<svg width="287" height="92" viewBox="0 0 287 92" fill="none" xmlns="http://www.w3.org/2000/svg">
<g opacity="0.1">
<path d="M280.332 454.907C266.191 446.314 263.077 427.442 267.043 411.924C270.99 396.398 280.308 382.628 286.103 367.634C301.613 327.45 288.607 278.892 254.784 250.706C243.94 241.675 231.367 234.693 220.445 225.746C209.522 216.799 200.043 205.122 198.46 191.499C196.196 171.906 210.673 154.058 226.593 141.335C242.514 128.611 261.134 118.117 272.562 101.602C287.572 79.8974 287.265 51.2224 278.356 26.7322C269.439 2.26186 252.948 -18.9727 236.699 -39.7712" stroke="#D4E8F7" stroke-miterlimit="10"/>
<path d="M278.517 455.233C264.555 446.412 261.445 427.587 265.36 412.026C267.045 405.304 269.754 398.887 272.8 392.6C276.789 384.349 281.321 376.285 284.777 367.874C291.841 350.722 293.93 332.15 291.057 314.01C288.846 300.007 284.025 286.434 276.659 274.25C271.441 265.545 264.809 257.663 256.925 250.895C253.395 247.864 249.665 245.052 245.857 242.325C238.117 236.777 230.085 231.572 222.877 225.476C214.71 218.553 207.486 210.077 204.111 200.326C203.047 197.29 202.339 194.162 202.079 190.935C201.012 177.397 208.004 164.919 217.553 154.093C221.69 149.414 226.285 145.027 230.932 141.094C236.128 136.688 241.516 132.493 246.737 128.257C257.023 119.952 266.76 111.594 273.239 100.973C277.441 94.06 279.936 86.6013 281.109 78.7231C283.508 62.7129 280.306 44.8345 273.753 28.4226C271.957 23.9162 269.94 19.5072 267.746 15.1438C258.003 -4.23592 245.056 -22.2972 233.041 -39.8158" stroke="#D4E8F7" stroke-miterlimit="10"/>
<path d="M276.682 455.551C262.907 446.483 259.774 427.718 263.637 412.114C265.31 405.364 268.019 398.947 271.093 392.648C275.121 384.412 279.772 376.395 283.419 368.08C290.865 351.121 293.661 332.845 291.199 314.705C289.312 300.69 284.97 287.119 278.124 274.771C273.229 265.94 266.805 257.933 259.034 251.048C255.566 247.973 251.852 245.122 248.067 242.335C240.386 236.695 232.372 231.384 225.29 225.199C217.236 218.16 210.3 209.589 207.314 199.715C206.393 196.666 205.791 193.557 205.659 190.356C205.111 176.95 212.49 164.828 222.052 154.029C226.196 149.33 230.727 144.873 235.219 140.811C240.239 136.268 245.352 131.899 250.188 127.537C259.744 118.995 268.499 110.578 273.851 100.274C277.32 93.603 278.998 86.6046 279.52 79.1135C280.533 63.9143 276.26 46.4438 269.114 30.0309C267.155 25.5303 265 21.0676 262.734 16.6537C252.588 -3.04166 240.13 -21.8955 229.319 -39.9303" stroke="#D4E8F7" stroke-miterlimit="10"/>
<path d="M274.847 455.869C261.259 446.553 258.103 427.848 261.934 412.208C263.587 405.452 266.291 398.987 269.405 392.703C273.5 384.47 278.255 376.539 282.082 368.293C289.916 351.508 293.404 333.567 291.362 315.407C289.798 301.38 285.943 287.792 279.609 275.3C275.044 266.322 268.821 258.21 261.144 251.202C257.719 248.074 254.067 245.179 250.285 242.325C242.662 236.593 234.667 231.175 227.69 224.894C219.75 217.739 213.093 209.094 210.505 199.077C209.726 196.014 209.232 192.923 209.238 189.776C209.202 176.522 216.997 164.743 226.551 153.964C230.723 149.254 235.162 144.738 239.498 140.547C244.342 135.869 249.173 131.344 253.652 126.844C262.438 118.05 270.259 109.569 274.476 99.6027C277.2 93.1456 278.101 86.6228 277.935 79.551C277.602 65.178 272.199 48.0923 264.471 31.706C262.331 27.2036 260.069 22.7224 257.711 18.2502C247.154 -1.74086 235.186 -21.3873 225.614 -39.9703" stroke="#D4E8F7" stroke-miterlimit="10"/>
<path d="M273.012 456.187C259.631 446.632 256.432 427.978 260.239 412.284C261.879 405.499 264.564 399.027 267.745 392.746C271.88 384.529 276.754 376.643 280.771 368.495C288.968 351.895 293.183 334.258 291.564 316.124C290.332 302.066 286.983 288.468 281.126 275.863C276.9 266.719 270.869 258.522 263.297 251.418C259.935 248.246 256.306 245.292 252.54 242.398C244.955 236.567 237.018 231.057 230.135 224.652C222.328 217.389 215.912 208.654 213.761 198.509C213.104 195.425 212.756 192.369 212.87 189.24C213.353 176.118 221.548 164.722 231.109 153.923C235.301 149.22 239.664 144.606 243.856 140.315C248.545 135.507 253.081 130.801 257.187 126.202C265.243 117.172 272.07 108.603 275.165 99.0017C277.164 92.7666 277.248 86.7041 276.403 80.0317C274.71 66.4574 268.202 49.8117 259.909 33.4122C257.614 28.8958 255.205 24.3807 252.756 19.8503C241.808 -0.42883 230.288 -20.8831 221.968 -39.9869" stroke="#D4E8F7" stroke-miterlimit="10"/>
<path d="M271.177 456.504C257.983 446.702 254.761 428.108 258.535 412.379C260.156 405.586 262.848 399.094 266.057 392.801C270.232 384.6 275.225 376.76 279.433 368.708C288.012 352.301 292.907 334.973 291.726 316.826C290.819 302.756 287.975 289.148 282.631 276.399C278.735 267.109 272.885 258.799 265.426 251.579C262.107 248.355 258.521 245.349 254.79 242.423C247.263 236.5 239.345 230.883 232.587 224.39C224.894 217.011 218.757 208.202 217.004 197.914C216.482 194.836 216.248 191.778 216.481 188.695C217.497 175.734 226.066 164.665 235.66 153.901C239.859 149.179 244.158 144.494 248.195 140.074C252.708 135.13 256.961 130.269 260.69 125.524C267.996 116.25 273.885 107.569 275.83 98.3454C277.111 92.3124 276.363 86.7499 274.866 80.4646C271.795 67.6814 264.208 51.4635 255.321 35.063C252.865 30.5524 250.336 25.9913 247.796 21.4026C236.437 0.827775 225.414 -20.439 218.325 -40.0711" stroke="#D4E8F7" stroke-miterlimit="10"/>
<path d="M269.354 456.85C256.347 446.8 253.122 428.274 256.845 412.501C258.453 405.681 261.133 399.162 264.382 392.884C268.624 384.686 273.721 376.932 278.108 368.949C287.056 352.708 292.67 335.703 291.901 317.555C291.338 303.482 288.988 289.836 284.128 276.955C280.57 267.499 274.913 259.103 267.568 251.767C264.284 248.512 260.741 245.453 257.04 242.448C249.572 236.434 241.68 230.69 235.02 224.121C227.46 216.633 221.563 207.734 220.228 197.311C219.828 194.211 219.721 191.18 220.081 188.123C221.608 175.314 230.585 164.609 240.179 153.845C244.406 149.11 248.621 144.348 252.494 139.818C256.832 134.738 260.803 129.722 264.174 124.839C270.749 115.328 275.648 106.493 276.474 97.6814C277.027 91.823 275.465 86.7682 273.282 80.9022C268.844 68.9376 260.146 53.1122 250.687 36.7184C248.048 32.206 245.401 27.5988 242.789 22.9595C231.027 2.06912 220.485 -19.9703 214.608 -40.1385" stroke="#D4E8F7" stroke-miterlimit="10"/>
<path d="M267.52 457.168C254.719 446.878 251.451 428.404 255.122 412.588C256.711 405.761 259.398 399.221 262.694 392.939C266.976 384.756 272.192 377.048 276.77 369.162C286.1 353.114 292.421 336.406 292.063 318.257C291.824 304.172 289.988 290.496 285.613 277.483C282.386 267.881 276.929 259.38 269.697 251.928C266.475 248.628 262.956 245.51 259.271 242.465C251.841 236.352 243.987 230.508 237.433 223.843C229.986 216.239 224.349 207.258 223.451 196.708C223.186 193.615 223.194 190.582 223.673 187.571C225.719 174.894 235.104 164.552 244.69 153.808C248.917 149.073 253.076 144.22 256.786 139.582C260.94 134.386 264.644 129.175 267.63 124.166C273.455 114.41 277.363 105.421 277.084 97.0495C276.895 91.3381 274.525 86.8384 271.69 81.3595C265.873 70.186 256.097 54.7883 246.045 38.3935C243.252 33.8671 240.47 29.2536 237.773 24.5362C225.601 3.35012 215.536 -19.5094 210.91 -40.1983" stroke="#D4E8F7" stroke-miterlimit="10"/>
<path d="M265.685 457.486C253.071 446.949 249.78 428.534 253.426 412.664C255.003 405.809 257.678 399.241 261.014 392.975C265.355 384.815 270.691 377.153 275.432 369.375C285.144 353.521 292.165 337.129 292.246 318.967C292.33 304.87 291 291.185 287.118 278.019C284.228 268.251 278.964 259.665 271.826 252.089C268.647 248.738 265.17 245.568 261.508 242.463C254.137 236.258 246.302 230.308 239.853 223.546C232.519 215.827 227.135 206.783 226.662 196.077C226.519 192.963 226.654 189.957 227.28 186.98C229.838 174.455 239.611 164.468 249.216 153.731C253.471 148.984 257.545 144.054 261.12 139.295C265.118 133.97 268.52 128.596 271.148 123.449C276.243 113.457 279.137 104.258 277.764 96.3537C276.813 90.7817 273.663 86.8249 270.16 81.7729C262.958 71.4104 252.111 56.4206 241.457 40.0446C238.503 35.5241 235.581 30.8568 232.813 26.0889C220.23 4.60705 210.654 -19.045 207.26 -40.2623" stroke="#D4E8F7" stroke-miterlimit="10"/>
<path d="M263.85 457.804C251.423 447.02 248.109 428.664 251.723 412.758C253.28 405.896 255.943 399.301 259.326 393.03C263.707 384.885 269.154 377.289 274.114 369.596C284.195 353.908 291.936 337.839 292.428 319.676C292.837 305.568 292.02 291.853 288.643 278.563C286.111 268.636 281.02 259.957 273.995 252.266C270.879 248.87 267.417 245.66 263.778 242.496C256.473 236.179 248.649 230.142 242.325 223.292C235.125 215.464 229.981 206.331 229.945 195.497C229.937 192.389 230.206 189.389 230.931 186.451C234.001 174.078 244.189 164.434 253.787 153.718C258.049 148.951 262.052 143.969 265.471 139.082C269.294 133.62 272.412 128.092 274.656 122.819C279.001 112.582 280.825 103.198 278.433 95.7448C276.693 90.3243 272.782 86.9181 268.608 82.2456C260.027 72.6741 248.074 58.1243 236.855 41.7352C233.746 37.2006 230.698 32.5071 227.818 27.6733C214.824 5.89573 205.745 -18.5687 203.562 -40.3221" stroke="#D4E8F7" stroke-miterlimit="10"/>
<path d="M262.015 458.122C249.767 447.11 246.458 428.802 250.02 412.854C251.565 405.963 254.228 399.369 257.631 393.105C262.079 384.964 267.618 377.426 272.768 369.829C283.232 354.334 291.652 338.574 292.583 320.398C293.323 306.258 293.04 292.521 290.12 279.111C287.927 269.019 283.028 260.254 276.097 252.439C273.024 248.991 269.605 245.729 265.981 242.525C258.714 236.11 250.928 229.973 244.71 223.027C237.623 215.083 232.712 205.88 233.121 194.899C233.235 191.77 233.631 188.796 234.483 185.884C238.093 173.651 248.641 164.375 258.279 153.673C262.561 148.914 266.487 143.835 269.742 138.838C273.39 133.241 276.246 127.565 278.112 122.146C281.719 111.693 282.421 102.08 279.042 95.1131C276.482 89.809 271.85 86.9686 267.008 82.7231C257.041 73.9625 244.017 59.8206 232.205 43.4305C228.914 38.894 225.759 34.182 222.795 29.2701C209.399 7.17698 200.801 -18.0602 199.857 -40.3618" stroke="#D4E8F7" stroke-miterlimit="10"/>
<path d="M260.2 458.447C248.159 447.196 244.807 428.94 248.337 412.956C249.862 406.058 252.521 399.416 255.983 393.176C260.471 385.049 266.149 377.565 271.47 370.058C282.323 354.736 291.443 339.292 292.785 321.115C293.869 306.971 294.081 293.197 291.645 279.655C289.802 269.424 285.084 260.546 278.266 252.615C275.255 249.123 271.86 245.802 268.259 242.538C261.05 236.031 253.303 229.795 247.178 222.725C240.224 214.673 235.545 205.4 236.388 194.244C236.616 191.113 237.147 188.146 238.126 185.26C242.247 173.18 253.21 164.246 262.84 153.565C267.15 148.793 270.993 143.636 274.112 138.519C277.584 132.784 280.165 126.934 281.666 121.396C284.543 110.707 284.1 100.926 279.777 94.3927C276.373 89.2645 271.035 86.9503 265.522 83.0843C254.168 75.1347 240.074 61.4006 227.689 45.0172C224.235 40.4866 220.941 35.7209 217.898 30.7783C204.111 8.3971 195.962 -17.648 196.269 -40.4703" stroke="#D4E8F7" stroke-miterlimit="10"/>
<path d="M258.365 458.765C246.511 447.267 243.135 429.07 246.622 413.023C248.134 406.098 250.773 399.448 254.283 393.203C258.81 385.092 264.6 377.674 270.12 370.244C281.335 355.107 291.182 339.967 292.947 321.817C294.356 307.661 295.1 293.865 293.122 280.203C291.617 269.806 287.092 260.843 280.387 252.796C277.42 249.252 274.067 245.879 270.481 242.575C263.331 235.977 255.602 229.633 249.603 222.475C242.755 214.327 238.316 204.964 239.623 193.668C239.994 190.524 240.632 187.575 241.729 184.735C246.363 172.807 257.733 164.237 267.363 153.555C271.681 148.764 275.459 143.536 278.415 138.31C281.731 132.447 284.01 126.434 285.134 120.751C287.28 109.825 285.666 99.8871 280.407 93.7683C276.138 88.8083 270.115 87.0281 263.942 83.5691C251.201 76.4304 236.017 63.0965 223.058 46.7198C219.45 42.1752 216.03 37.3833 212.895 32.3824C198.697 9.7055 191.045 -17.152 192.583 -40.5026" stroke="#D4E8F7" stroke-miterlimit="10"/>
<path d="M256.522 459.103C244.855 447.357 241.449 429.24 244.911 413.139C246.403 406.206 249.058 399.516 252.587 393.279C257.182 385.171 263.063 377.811 268.774 370.477C280.371 355.534 290.917 340.71 293.102 322.539C294.834 308.372 296.093 294.546 294.619 280.759C293.472 270.203 289.12 261.148 282.508 252.977C279.584 249.381 276.266 245.976 272.711 242.593C265.599 235.895 257.909 229.453 252.015 222.199C245.3 213.942 241.074 204.501 242.826 193.058C243.312 189.913 244.104 186.977 245.328 184.164C250.481 172.368 262.24 164.153 271.89 153.479C276.227 148.695 279.929 143.37 282.722 138.035C285.862 132.035 287.878 125.875 288.625 120.046C290.033 108.903 287.258 98.8369 281.059 93.0849C275.93 88.3406 269.217 87.0468 262.372 83.9674C248.246 77.6396 231.983 64.7335 218.431 48.3558C214.641 43.8093 211.102 38.9713 207.895 33.9199C193.294 10.9274 186.123 -16.7027 188.873 -40.5895" stroke="#D4E8F7" stroke-miterlimit="10"/>
<path d="M254.687 459.421C243.227 447.436 239.778 429.37 243.208 413.233C244.688 406.273 247.323 399.576 250.919 393.342C255.554 385.249 261.566 377.963 267.448 370.718C279.435 355.948 290.681 341.44 293.276 323.269C295.333 309.089 297.132 295.221 296.116 281.315C295.327 270.601 291.148 261.452 284.649 253.165C281.788 249.526 278.493 246.061 274.974 242.646C267.92 235.856 260.248 229.307 254.46 221.956C247.858 213.584 243.864 204.073 246.062 192.482C246.67 189.316 247.589 186.407 248.932 183.639C254.597 171.996 266.763 164.143 276.413 153.47C280.758 148.666 284.388 143.29 287.033 137.806C289.99 131.691 291.731 125.356 292.093 119.401C292.791 108.029 288.821 97.8657 281.68 92.4805C275.692 87.9518 268.297 87.1246 260.785 84.4721C245.292 78.9629 227.938 66.457 213.793 50.0783C209.849 45.5179 206.175 40.6735 202.865 35.5363C187.853 12.2482 181.159 -16.2022 185.16 -40.6096" stroke="#D4E8F7" stroke-miterlimit="10"/>
<path d="M252.852 459.739C241.579 447.506 238.127 429.508 241.505 413.328C242.966 406.36 245.615 399.623 249.232 393.397C253.926 385.327 260.037 378.079 266.11 370.931C278.459 356.347 290.405 342.155 293.459 323.978C295.859 309.795 298.173 295.897 297.621 281.851C297.198 270.958 293.191 261.717 286.779 253.326C283.96 249.634 280.728 246.125 277.204 242.663C270.208 235.782 262.563 229.106 256.893 221.687C250.404 213.198 246.631 203.59 249.306 191.887C250.028 188.719 251.089 185.796 252.552 183.075C258.736 171.564 271.31 164.074 280.972 153.428C285.344 148.613 288.891 143.158 291.392 137.574C294.173 131.321 295.66 124.819 295.636 118.738C295.603 107.13 290.47 96.9052 282.385 91.8395C275.53 87.5463 267.451 87.1857 259.288 84.9204C242.401 80.242 223.964 68.1165 209.246 51.7444C205.14 47.1898 201.327 42.2918 197.945 37.104C182.522 13.5201 176.317 -15.7227 181.55 -40.6586" stroke="#D4E8F7" stroke-miterlimit="10"/>
<path d="M251.037 460.065C239.951 447.585 236.475 429.646 239.829 413.411C241.278 406.416 243.907 399.671 247.571 393.44C252.313 385.366 258.556 378.192 264.8 371.132C277.53 356.741 290.183 342.846 293.648 324.668C296.381 310.453 299.22 296.553 299.133 282.367C299.068 271.316 295.214 261.974 288.935 253.475C286.179 249.739 282.97 246.171 279.47 242.649C272.512 235.668 264.905 228.893 259.341 221.378C252.985 212.78 249.404 203.087 252.544 191.244C253.381 188.075 254.577 185.159 256.159 182.483C262.875 171.132 275.816 163.99 285.498 153.352C289.878 148.516 293.36 142.992 295.698 137.298C298.324 130.917 299.508 124.253 299.107 118.026C298.344 106.181 292.068 95.9022 283.017 91.1482C275.327 87.1257 266.526 87.2165 257.691 85.3306C239.402 81.5029 219.91 69.7455 204.599 53.3725C200.331 48.8237 196.398 43.8796 192.925 38.6336C177.083 14.7738 171.348 -15.2692 177.82 -40.7533" stroke="#D4E8F7" stroke-miterlimit="10"/>
<path d="M249.202 460.382C238.303 447.655 234.805 429.776 238.106 413.498C239.535 406.495 242.153 399.723 245.864 393.488C250.665 385.436 257 378.32 263.442 371.338C276.562 357.12 289.907 343.56 293.791 325.362C296.848 311.135 300.248 297.201 300.599 282.888C300.891 271.678 297.211 262.244 291.045 253.628C288.324 249.86 285.158 246.24 281.68 242.658C274.789 235.566 267.212 228.711 261.734 221.093C255.491 212.379 252.143 202.616 255.728 190.626C256.687 187.435 258.03 184.553 259.719 181.896C266.946 170.697 280.303 163.898 289.977 153.28C294.377 148.452 297.783 142.829 299.957 137.027C302.408 130.51 303.329 123.698 302.551 117.325C301.058 105.243 293.638 94.911 283.614 90.4887C275.069 86.7292 265.574 87.2591 256.087 85.7604C236.439 82.7314 215.841 71.414 199.945 55.0201C195.502 50.4496 191.435 45.4992 187.898 40.1827C171.685 16.0426 166.439 -14.793 174.142 -40.8055" stroke="#D4E8F7" stroke-miterlimit="10"/>
<path d="M247.368 460.701C236.675 447.734 233.134 429.907 236.403 413.594C237.82 406.563 240.445 399.771 244.196 393.551C249.037 385.515 255.491 378.445 262.124 371.559C275.606 357.527 289.678 344.271 293.973 326.072C297.354 311.834 301.288 297.877 302.124 283.432C302.774 272.064 299.266 262.536 293.194 253.797C290.536 249.985 287.393 246.305 283.938 242.664C277.105 235.48 269.547 228.518 264.202 220.791C258.093 211.97 254.917 202.114 259.007 189.998C260.081 186.807 261.557 183.931 263.385 181.328C271.133 170.261 284.889 163.845 294.564 153.226C298.991 148.386 302.313 142.686 304.332 136.755C306.607 130.101 307.273 123.122 306.109 116.624C303.906 104.313 295.343 93.9266 284.334 89.8083C274.962 86.2997 264.752 87.261 254.577 86.1816C233.544 83.9635 211.855 73.0463 195.397 56.6866C190.793 52.122 186.607 47.1255 182.958 41.7431C166.33 17.2599 161.553 -14.376 170.488 -40.9168" stroke="#D4E8F7" stroke-miterlimit="10"/>
<path d="M245.533 461.018C235.019 447.824 231.483 430.044 234.7 413.688C236.097 406.65 238.71 399.83 242.509 393.606C247.389 385.585 253.982 378.569 260.786 371.772C274.65 357.933 289.429 344.974 294.148 326.801C297.853 312.551 302.32 298.573 303.621 283.987C304.629 272.461 301.294 262.841 295.328 254.006C292.712 250.141 289.612 246.409 286.173 242.729C279.378 235.446 271.858 228.384 266.619 220.561C260.623 211.624 257.668 201.67 262.215 189.435C263.411 186.222 265.015 183.372 266.97 180.795C275.229 169.881 289.381 163.8 299.067 153.209C303.502 148.35 306.76 142.578 308.635 136.546C310.735 129.756 311.146 122.611 309.57 115.998C306.664 103.438 296.969 93.0257 284.956 89.2039C274.768 85.9736 263.824 87.3586 252.998 86.6664C230.578 85.2593 207.818 74.7499 190.767 58.3893C186.001 53.8305 181.696 48.7879 177.947 43.3672C160.909 18.5883 156.628 -13.86 166.775 -40.937" stroke="#D4E8F7" stroke-miterlimit="10"/>
<path d="M243.71 461.364C233.383 447.922 229.824 430.202 233.017 413.791C234.401 406.725 237.002 399.878 240.841 393.669C245.788 385.652 252.465 378.713 259.461 372.013C273.714 358.348 289.165 345.716 294.323 327.531C298.371 313.277 303.4 299.264 305.11 284.563C306.516 272.894 303.315 263.165 297.441 254.206C294.869 250.29 291.804 246.526 288.388 242.786C281.651 235.411 274.15 228.243 269.016 220.324C263.134 211.27 260.391 201.239 265.403 188.864C266.714 185.65 268.452 182.806 270.526 180.275C279.297 169.513 293.856 163.796 303.563 153.212C308.018 148.36 311.192 142.511 312.911 136.35C314.855 129.431 314.963 122.123 313.03 115.372C309.394 102.576 298.596 92.125 285.57 88.6194C274.547 85.6598 262.908 87.4839 251.402 87.1911C227.616 86.6025 203.766 76.4934 186.122 60.1318C181.201 55.559 176.741 50.5024 172.929 45.0112C155.48 19.9366 151.688 -13.3043 163.066 -40.9096" stroke="#D4E8F7" stroke-miterlimit="10"/>
<path d="M241.875 461.682C227.376 442.085 226.262 414.376 239.153 393.724C254.325 369.412 286.177 355.336 294.485 328.233C298.857 313.967 304.419 299.933 306.595 285.091C309.101 268.095 301.787 255.247 290.625 242.784C276.295 226.767 258.349 211.658 268.634 188.241C276.071 171.302 296.102 166.193 308.089 153.136C317.588 142.792 320.896 127.681 316.529 114.648C312.162 101.615 300.268 91.1053 286.23 87.9159C274.399 85.2149 262.026 87.4628 249.84 87.5693C217.634 87.8579 185.796 71.899 167.944 46.5088C150.092 21.1186 146.762 -12.9027 159.399 -41.0486" stroke="#D4E8F7" stroke-miterlimit="10"/>
<path d="M245.161 461.331C232.24 442.139 231.788 414.845 244.259 394.214C250.489 383.885 259.495 375.29 268.288 366.773C277.32 358.052 286.152 349.436 291.764 339.051C293.58 335.712 295.061 332.176 296.081 328.416C299.929 314.267 304.896 300.413 306.949 285.593C309.284 268.805 302.475 255.947 292.181 243.544C289.814 240.689 287.366 237.871 284.972 235.028C277.924 226.688 271.475 218.215 269.954 208.154C269.113 202.533 269.765 196.417 272.667 189.617C279.822 172.82 298.479 167.249 309.408 154.33C310.851 152.605 312.13 150.771 313.239 148.849C318.726 139.259 319.955 127.339 316.084 116.804C311.436 104.142 299.582 93.9441 285.751 90.6297C274.034 87.8127 261.747 89.6602 249.692 89.4291C228.89 89.0351 208.281 81.9367 191.662 70.0114C182.79 63.6145 175.08 55.8635 169.053 47.0056C158.039 30.8553 152.825 11.3318 153.576 -8.03196C154 -19.1675 156.449 -30.2278 160.951 -40.5173" stroke="#D4E8F7" stroke-miterlimit="10"/>
<path d="M248.466 460.988C237.104 442.193 237.332 415.322 249.405 394.719C255.461 384.368 263.994 375.637 272.213 367.012C280.651 358.176 288.762 349.532 293.869 339.157C295.522 335.824 296.833 332.313 297.723 328.594C301.059 314.59 305.446 300.877 307.33 286.083C309.501 269.482 303.143 256.639 293.743 244.285C291.578 241.44 289.359 238.619 287.179 235.813C280.788 227.545 274.998 219.257 273.854 209.342C273.22 203.778 273.936 197.732 276.713 191.021C283.584 174.366 300.896 168.32 310.766 155.54C312.067 153.829 313.216 152.036 314.202 150.134C319.047 140.731 319.794 129.172 315.705 118.963C310.77 106.692 298.97 96.7665 285.312 93.3593C273.701 90.4461 261.535 91.8612 249.591 91.2848C229.011 90.3149 208.643 82.8302 192.342 70.7311C183.611 64.206 176.074 56.3621 170.217 47.4785C159.522 31.2691 154.555 11.8178 155.333 -7.55811C155.769 -18.6661 158.163 -29.702 162.558 -40.01" stroke="#D4E8F7" stroke-miterlimit="10"/>
<path d="M251.764 460.665C241.981 442.274 242.85 415.812 254.532 395.217C260.385 384.857 268.467 375.996 276.131 367.272C283.974 358.319 291.393 349.636 295.958 339.303C297.43 335.968 298.584 332.511 299.351 328.813C302.163 314.925 305.935 301.386 307.689 286.633C309.648 270.224 303.816 257.378 295.275 245.106C293.312 242.27 291.314 239.466 289.356 236.678C283.642 228.488 278.498 220.359 277.724 210.61C277.276 205.095 278.084 199.107 280.735 192.485C287.304 175.964 303.301 169.478 312.074 156.822C313.245 155.152 314.24 153.345 315.088 151.504C319.311 142.294 319.568 131.116 315.222 121.219C310.006 109.319 298.253 99.6853 284.776 96.1652C273.258 93.1284 261.218 94.1585 249.385 93.2368C229.007 91.6833 208.897 83.8871 192.93 71.5747C184.311 64.9335 176.975 56.9845 171.288 48.0752C160.893 31.799 156.191 12.4277 156.985 -6.98797C157.433 -18.0684 159.799 -29.0922 164.08 -39.3989" stroke="#D4E8F7" stroke-miterlimit="10"/>
<path d="M255.069 460.322C246.865 442.336 248.396 416.289 259.658 395.715C265.318 385.325 272.959 376.363 280.028 367.523C287.289 358.482 293.984 349.725 298.016 339.413C299.318 336.104 300.329 332.66 300.947 328.996C303.266 315.26 306.419 301.847 308.042 287.135C309.831 270.934 304.485 258.071 296.81 245.859C295.049 243.033 293.273 240.246 291.556 237.482C286.499 229.364 282.021 221.402 281.597 211.81C281.356 206.353 282.275 200.431 284.761 193.881C291.007 177.486 305.678 170.534 313.385 158.036C314.414 156.38 315.279 154.614 316.005 152.794C319.585 143.769 319.36 132.954 314.796 123.383C309.292 111.873 297.578 102.552 284.31 98.9069C272.897 95.7739 260.959 96.3639 249.237 95.0969C229.082 92.9674 209.205 84.8048 193.575 72.3263C185.078 65.5493 177.926 57.5349 172.397 48.5723C162.321 32.2371 157.873 12.9181 158.687 -6.48984C159.147 -17.5428 161.458 -28.5422 165.632 -38.8674" stroke="#D4E8F7" stroke-miterlimit="10"/>
<path d="M258.375 459.979C251.736 442.37 253.933 416.786 264.784 396.213C270.242 385.813 277.439 376.703 283.934 367.754C290.6 358.598 296.595 349.821 300.101 339.512C301.24 336.208 302.082 332.79 302.562 329.187C304.377 315.575 306.915 302.335 308.389 287.657C309.985 271.656 305.126 258.775 298.337 246.632C296.758 243.808 295.231 241.026 293.729 238.299C289.321 230.273 285.529 222.484 285.47 213.011C285.435 207.61 286.379 201.743 288.787 195.278C294.829 179.055 308.067 171.617 314.716 159.259C315.603 157.615 316.318 155.883 316.914 154.105C319.851 145.265 319.164 134.818 314.363 125.566C308.559 114.421 296.912 105.399 283.824 101.641C272.525 98.392 260.693 98.5893 249.088 96.9571C229.164 94.2319 209.532 85.7303 194.201 73.0704C185.824 66.1576 178.866 58.0578 173.506 49.0695C163.742 32.6951 159.568 13.4362 160.397 -6.01148C160.877 -17.0567 163.125 -28.0119 167.184 -38.3357" stroke="#D4E8F7" stroke-miterlimit="10"/>
<path d="M261.653 459.648C256.593 442.444 259.431 417.267 269.91 396.711C275.174 386.282 281.911 377.061 287.851 368.013C293.943 358.748 299.206 349.917 302.19 339.657C303.148 336.352 303.86 332.975 304.19 329.405C305.472 315.93 307.431 302.831 308.754 288.186C310.18 272.393 305.806 259.494 299.884 247.413C298.507 244.598 297.202 241.833 295.921 239.124C292.19 231.176 289.045 223.546 289.356 214.238C289.534 208.875 290.542 203.078 292.824 196.701C298.584 180.62 310.476 172.708 316.039 160.5C316.783 158.871 317.369 157.179 317.835 155.442C320.13 146.788 318.98 136.71 313.942 127.778C307.85 117.022 296.269 108.3 283.342 104.422C272.149 101.077 260.41 100.854 248.937 98.8844C229.235 95.5832 209.855 86.7228 194.843 73.8891C186.607 66.8481 179.821 58.6554 174.639 49.6216C165.175 33.1804 161.266 14.0014 162.123 -5.45846C162.595 -16.4839 164.816 -27.4268 168.781 -37.7417" stroke="#D4E8F7" stroke-miterlimit="10"/>
<path d="M264.958 459.305C261.457 442.498 264.976 417.744 275.037 397.208C280.099 386.77 286.391 377.401 291.749 368.264C297.246 358.884 301.789 350.025 304.267 339.775C305.055 336.496 305.605 333.125 305.825 329.603C306.603 316.253 307.947 303.327 309.121 288.715C310.382 273.11 306.487 260.214 301.452 248.201C300.276 245.395 299.173 242.64 298.133 239.956C295.052 232.1 292.6 224.623 293.261 215.474C293.646 210.167 294.725 204.421 296.874 198.153C302.351 182.213 312.897 173.827 317.375 161.77C317.977 160.154 318.42 158.476 318.756 156.78C320.401 148.33 318.777 138.595 313.521 129.989C307.148 119.605 295.615 111.175 282.888 107.191C271.808 103.73 260.191 103.075 248.82 100.78C229.337 96.8552 210.203 87.6559 195.52 74.676C187.406 67.4991 180.805 59.241 175.78 50.1539C166.636 33.6536 162.981 14.5271 163.845 -4.95261C164.33 -15.9505 166.515 -26.8614 170.353 -37.2025" stroke="#D4E8F7" stroke-miterlimit="10"/>
<path d="M268.264 458.962C266.341 442.56 270.561 418.237 280.163 397.706C285.051 387.246 290.883 377.767 295.654 368.495C300.55 359.019 304.388 350.094 306.352 339.873C306.978 336.6 307.378 333.262 307.448 329.774C307.721 316.548 308.478 303.784 309.502 289.205C310.592 273.807 307.191 260.874 303.007 248.962C302.033 246.166 301.151 243.428 300.333 240.761C297.921 233.003 296.124 225.666 297.134 216.674C297.725 211.425 298.849 205.741 300.9 199.549C306.093 183.752 315.294 174.89 318.706 162.992C319.158 161.409 319.479 159.753 319.685 158.097C320.688 149.834 318.594 140.487 313.088 132.173C306.427 122.179 294.948 114.022 282.394 109.945C271.4 106.38 259.917 105.32 248.657 102.68C229.396 98.1792 210.514 88.621 196.138 75.4399C188.145 68.1272 181.737 59.7838 176.882 50.671C168.037 34.1039 164.648 15.0573 165.539 -4.43458C166.036 -15.4049 168.167 -26.2915 171.897 -36.6511" stroke="#D4E8F7" stroke-miterlimit="10"/>
<path d="M271.562 458.639C271.197 442.633 276.091 418.753 285.289 398.204C289.975 387.734 295.363 378.107 299.552 368.746C303.873 359.162 306.991 350.21 308.422 340.011C308.886 336.744 309.116 333.432 309.056 329.984C308.797 316.896 308.966 304.292 309.848 289.727C310.766 274.537 307.831 261.578 304.534 249.735C303.762 246.948 303.109 244.208 302.505 241.577C300.743 233.911 299.639 226.728 301.007 217.875C301.805 212.682 303 207.049 304.926 200.945C309.836 185.289 317.671 175.946 320.025 164.187C320.335 162.617 320.505 160.994 320.589 159.36C320.95 151.282 318.374 142.296 312.65 134.309C305.709 124.687 294.27 116.841 281.924 112.639C271.043 108.958 259.654 107.478 248.504 104.492C229.465 99.4158 210.845 89.479 196.779 76.144C188.926 68.7032 182.691 60.2668 178.006 51.1283C169.473 34.522 166.338 15.5278 167.264 -3.99613C167.773 -14.9389 169.857 -25.821 173.492 -36.1716" stroke="#D4E8F7" stroke-miterlimit="10"/>
<path d="M274.867 458.296C276.081 442.695 281.616 419.223 290.415 398.702C294.907 388.203 299.835 378.466 303.469 369.005C307.196 359.306 309.621 350.313 310.499 340.13C310.773 336.88 310.861 333.581 310.671 330.175C309.907 317.211 309.489 304.769 310.194 290.249C310.948 275.247 308.5 262.27 306.061 250.508C305.491 247.731 305.06 245.008 304.678 242.394C303.565 234.82 303.155 227.79 304.872 219.095C305.884 213.939 307.136 208.397 308.944 202.361C313.571 186.847 320.06 177.029 321.328 165.421C321.496 163.865 321.536 162.283 321.49 160.69C321.208 152.797 318.17 144.181 312.209 136.512C304.98 127.281 293.595 119.707 281.422 115.413C270.654 111.616 259.371 109.743 248.332 106.412C229.524 100.74 211.129 90.4564 197.401 76.9553C189.677 69.3587 183.619 60.8768 179.092 51.6851C170.879 35.0197 167.989 16.0978 168.924 -3.44605C169.445 -14.3613 171.493 -25.2113 174.994 -35.5682" stroke="#D4E8F7" stroke-miterlimit="10"/>
<path d="M278.153 457.945C280.945 442.749 287.141 419.692 295.542 399.199C299.852 388.699 304.307 378.825 307.375 369.236C310.519 359.449 312.212 350.402 312.584 340.228C312.696 336.984 312.634 333.719 312.287 330.366C310.991 317.538 309.993 305.237 310.568 290.759C311.15 275.964 309.196 262.95 307.616 251.269C307.248 248.501 307.038 245.795 306.877 243.199C306.434 235.723 306.698 228.84 308.746 220.295C309.963 215.196 311.287 209.705 312.962 203.778C317.286 188.397 322.429 178.104 322.651 166.663C322.677 165.12 322.575 163.552 322.391 162.02C321.467 154.312 317.967 146.066 311.76 138.736C304.251 129.876 292.913 122.594 280.92 118.187C270.266 114.274 259.097 111.988 248.169 108.312C229.583 102.064 211.448 91.4016 198.011 77.739C190.428 70.0143 184.543 61.4394 180.185 52.222C172.272 35.4898 169.656 16.628 170.618 -2.92804C171.151 -13.8158 173.152 -24.6613 176.539 -35.0168" stroke="#D4E8F7" stroke-miterlimit="10"/>
<path d="M281.451 457.622C285.809 442.803 292.679 420.189 300.668 399.697C304.784 389.167 308.807 379.171 311.272 369.487C313.822 359.584 314.823 350.498 314.653 340.366C314.604 337.128 314.372 333.888 313.895 330.576C312.094 317.873 310.501 305.753 310.906 291.3C311.325 276.693 309.876 263.67 309.136 252.061C308.969 249.303 308.981 246.614 309.042 244.036C309.249 236.651 310.206 229.922 312.603 221.535C314.047 216.501 315.403 211.044 316.952 205.206C320.993 189.967 324.77 179.192 323.927 167.909C323.81 166.38 323.579 164.853 323.273 163.342C321.706 155.82 317.716 147.954 311.28 140.924C303.482 132.454 292.199 125.445 280.399 120.953C269.838 116.916 258.775 114.238 247.977 110.224C229.614 103.4 211.74 92.3589 198.614 78.5424C191.152 70.6818 185.46 62.0217 181.279 52.7587C173.685 35.9675 171.335 17.1855 172.305 -2.39034C172.83 -13.2582 174.796 -24.0717 178.095 -34.4381" stroke="#D4E8F7" stroke-miterlimit="10"/>
<path d="M284.756 457.279C290.693 442.865 298.204 420.658 305.794 400.195C309.708 389.655 313.279 379.531 315.19 369.746C317.145 359.727 317.434 350.594 316.751 340.491C316.531 337.279 316.138 334.046 315.53 330.775C313.197 318.208 311.045 306.237 311.28 291.81C311.527 277.41 310.58 264.33 310.703 252.85C310.746 250.081 310.972 247.43 311.274 244.876C312.13 237.582 313.809 230.995 316.536 222.759C318.194 217.761 319.606 212.395 321.037 206.625C324.803 191.508 327.207 180.271 325.298 169.147C325.039 167.631 324.658 166.137 324.221 164.667C322.013 157.331 317.56 149.834 310.886 143.123C302.809 135.025 291.572 128.307 279.953 123.702C269.498 119.569 258.556 116.458 247.869 112.099C229.709 104.692 212.107 93.2997 199.299 79.3094C191.958 71.313 186.451 62.5874 182.447 53.2788C175.166 36.4484 173.069 17.7189 174.074 -1.88904C174.62 -12.7492 176.522 -23.5185 179.715 -33.9034" stroke="#D4E8F7" stroke-miterlimit="10"/>
<path d="M288.062 456.936C295.557 442.919 303.749 421.135 310.921 400.692C314.641 390.123 317.759 379.87 319.095 369.977C320.476 359.85 320.045 350.69 318.836 340.59C318.454 337.384 317.891 334.175 317.153 330.946C314.296 318.496 311.549 306.706 311.654 292.32C311.737 278.108 311.296 265.017 312.258 253.611C312.503 250.852 312.95 248.217 313.474 245.68C314.96 238.471 317.134 231.961 320.409 223.959C322.412 219.072 323.757 213.703 325.063 208.021C328.526 193.039 329.584 181.326 326.609 170.361C326.208 168.859 325.697 167.406 325.138 165.958C322.287 158.806 317.352 151.672 310.461 145.287C302.095 137.579 290.913 131.134 279.467 126.436C269.125 122.187 258.29 118.684 247.693 113.972C229.756 105.988 212.414 94.2174 199.904 80.0458C192.712 71.9013 187.37 63.1026 183.517 53.7607C176.535 36.8635 174.712 18.194 175.717 -1.41387C176.274 -12.2465 178.15 -23.0036 181.227 -33.3872" stroke="#D4E8F7" stroke-miterlimit="10"/>
<path d="M291.34 456.605C300.414 442.992 309.199 421.621 316.027 401.182C319.525 390.596 322.232 380.229 322.973 370.22C323.751 359.998 322.635 350.778 320.865 340.712C320.302 337.504 319.609 334.337 318.721 331.141C315.351 318.836 312.025 307.186 311.96 292.826C311.892 278.83 311.924 265.694 313.745 254.368C314.192 251.619 314.841 248.994 315.607 246.482C317.734 239.383 320.848 233.099 324.235 225.164C326.333 220.268 327.853 215.035 329.034 209.442C332.214 194.601 331.905 182.406 327.892 171.587C327.341 170.119 326.696 168.66 325.999 167.272C322.506 160.306 317.109 153.541 309.98 147.475C301.334 140.138 290.191 134.005 278.945 129.202C268.717 124.837 257.96 120.953 247.509 115.864C229.779 107.344 212.714 95.1549 200.514 80.8293C193.443 72.549 188.294 63.665 184.61 54.2974C177.948 37.3411 176.371 18.7439 177.411 -0.896016C177.981 -11.7011 179.801 -22.4339 182.764 -32.8161" stroke="#D4E8F7" stroke-miterlimit="10"/>
<path d="M294.645 456.262C305.297 443.054 314.744 422.098 321.173 401.688C324.477 391.072 326.724 380.595 326.91 370.487C327.114 360.156 325.258 350.902 322.982 340.846C322.249 337.663 321.386 334.522 320.376 331.347C316.482 319.159 312.588 307.678 312.353 293.343C312.121 279.535 312.68 266.397 315.32 255.137C315.968 252.397 316.879 249.804 317.826 247.294C320.464 240.233 324.411 234.157 328.148 226.38C330.452 221.541 332.024 216.35 333.099 210.854C335.976 196.147 334.294 183.49 329.243 172.817C328.55 171.362 327.774 169.944 326.948 168.597C322.812 161.817 316.933 155.413 309.587 149.674C300.652 142.728 289.564 136.867 278.499 131.951C268.364 127.463 257.741 123.174 247.393 117.759C229.893 108.643 213.08 96.0956 201.172 81.6085C194.249 73.1802 189.258 64.243 185.751 54.8298C179.401 37.8343 178.077 19.2894 179.145 -0.362695C179.727 -11.1403 181.492 -21.8486 184.348 -32.2494" stroke="#D4E8F7" stroke-miterlimit="10"/>
<path d="M297.951 455.919C310.162 443.108 320.29 422.575 326.299 402.186C329.402 391.56 331.204 380.935 330.816 370.718C330.425 360.272 327.904 350.966 325.067 340.944C324.172 337.768 323.139 334.652 321.992 331.538C317.565 319.486 313.111 308.154 312.7 293.865C312.316 280.272 313.368 267.097 316.848 255.91C317.697 253.179 318.79 250.589 319.999 248.111C323.406 241.187 327.947 235.227 331.993 227.592C334.524 222.818 336.148 217.67 337.097 212.262C339.671 197.689 336.636 184.577 330.527 174.044C329.691 172.603 328.766 171.218 327.817 169.892C323.031 163.317 316.69 157.282 309.094 151.835C299.86 145.252 288.838 139.691 277.946 134.682C267.924 130.078 257.407 125.396 247.178 119.616C229.9 109.924 213.348 96.998 201.75 82.3571C194.968 73.8005 190.13 64.7627 186.793 55.3238C180.742 38.2615 179.685 19.7967 180.788 0.112478C181.382 -10.6376 183.119 -21.3337 185.861 -31.7332" stroke="#D4E8F7" stroke-miterlimit="10"/>
<path d="M301.249 455.596C315.038 443.19 325.807 423.065 331.426 402.683C334.334 392.029 335.676 381.294 334.713 370.969C333.74 360.435 330.488 351.074 327.144 341.062C326.087 337.891 324.885 334.801 323.607 331.728C318.621 319.825 313.655 308.638 313.073 294.375C312.525 280.969 313.945 267.73 318.415 256.698C319.514 253.973 320.768 251.376 322.219 248.923C326.255 242.083 331.529 236.292 335.914 228.788C338.67 224.078 340.319 218.986 341.17 213.654C343.461 199.223 339.06 185.628 331.905 175.261C330.928 173.834 329.872 172.49 328.793 171.205C323.365 164.816 316.561 159.15 308.728 154.022C299.206 147.83 288.246 142.521 277.547 137.427C267.638 132.706 257.215 127.605 247.116 121.487C230.042 111.212 213.778 97.8944 202.483 83.1194C195.829 74.4072 191.176 65.3039 188.009 55.8393C182.278 38.718 181.474 20.3055 182.577 0.621338C183.183 -10.1012 184.866 -20.7729 187.5 -31.1909" stroke="#D4E8F7" stroke-miterlimit="10"/>
<path d="M304.554 455.253C319.91 443.224 331.353 423.542 336.552 403.181C339.259 392.517 340.176 381.641 338.639 371.208C337.071 360.558 333.126 351.158 329.242 341.188C328.023 338.023 326.67 334.967 325.243 331.927C319.752 320.148 314.198 309.122 313.439 294.904C312.748 281.694 314.812 268.499 319.962 257.479C321.243 254.755 322.739 252.183 324.411 249.748C329.085 242.972 335.077 237.39 339.8 230.016C342.782 225.371 344.483 220.321 345.201 215.097C347.189 200.8 341.434 186.751 333.221 176.523C332.101 175.109 330.904 173.778 329.695 172.535C323.624 166.331 316.338 161.027 308.28 156.245C298.477 150.425 287.565 145.408 277.038 140.22C267.25 135.364 256.926 129.889 246.918 123.419C230.066 112.568 214.09 98.8596 203.058 83.9352C196.553 75.075 192.057 65.9185 189.075 56.3884C183.644 39.2003 183.126 20.8755 184.244 1.15156C184.843 -9.55108 186.498 -20.2107 189.01 -30.6074" stroke="#D4E8F7" stroke-miterlimit="10"/>
<path d="M307.84 454.902C324.774 443.278 336.87 424.031 341.678 403.679C344.191 392.985 344.648 382 342.536 371.459C340.374 360.694 335.737 351.254 331.299 341.298C329.91 338.159 328.396 335.109 326.858 332.118C320.835 320.476 314.742 309.606 313.793 295.406C312.957 282.392 315.52 269.207 321.497 258.232C322.98 255.518 324.678 252.956 326.591 250.545C331.894 243.852 338.62 238.44 343.672 231.216C346.889 226.616 348.606 221.641 349.226 216.494C350.884 202.343 343.775 187.839 334.532 177.738C333.262 176.357 331.942 175.048 330.603 173.845C323.891 167.826 316.142 162.891 307.846 158.429C297.755 152.999 286.898 148.254 276.551 142.954C266.877 137.982 256.666 132.095 246.769 125.279C230.14 113.852 214.424 99.7651 203.711 84.667C197.354 75.6588 193.024 66.4291 190.192 56.8657C185.072 39.6384 184.808 21.366 185.953 1.62988C186.572 -9.06508 188.164 -19.6804 190.589 -30.0881" stroke="#D4E8F7" stroke-miterlimit="10"/>
<path d="M311.145 454.559C339.387 437.422 354.235 402.552 346.441 371.69C343.697 360.837 338.328 351.343 333.384 341.397C325.736 326.045 315.533 313.701 314.147 295.908C312.905 279.929 317.974 263.33 328.783 251.37C334.736 244.768 342.176 239.517 347.538 232.436C361.778 213.607 347.496 187.839 331.512 175.155C315.229 162.242 294.582 155.539 276.065 145.688C250.407 132.049 220.935 109.792 204.348 85.4386C186.897 59.8381 185.851 32.8403 187.648 2.14794C188.279 -8.51949 189.836 -19.1028 192.134 -29.5367" stroke="#D4E8F7" stroke-miterlimit="10"/>
<path d="M350.571 -10.9816C338.629 -9.32008 326.679 -6.74894 315.871 -1.40755C305.064 3.93386 295.41 12.255 290.267 23.1411C285.123 34.0272 285.028 47.6184 291.631 57.7032C295.258 63.2598 300.589 67.4206 305.438 71.9428C310.287 76.465 314.899 81.7175 316.374 88.177C317.849 94.6365 315.169 102.457 308.977 104.835C302.202 107.421 294.383 102.846 287.453 105.007C279.668 107.43 276.855 116.775 275.205 124.765C273.554 132.756 270.808 142.104 263.06 144.61C256.852 146.616 249.756 142.709 246.912 136.839C244.068 130.969 244.937 123.817 247.855 117.983C250.772 112.148 255.477 107.416 260.378 103.124C266.628 97.6419 273.999 91.269 273.385 82.9965C273.055 78.4176 270.185 74.3863 266.792 71.2943C263.399 68.2022 259.44 65.8048 255.926 62.8486C244.717 53.4027 238.907 37.9627 241.086 23.4655C242.745 12.4421 248.661 2.03729 247.958 -9.0772C247.403 -18.0345 242.608 -26.12 237.947 -33.7878L350.571 -10.9816Z" fill="#2B3640"/>
<path d="M294.84 296.664C285.888 291.24 283.918 279.271 286.429 269.467C288.94 259.663 294.825 250.935 298.494 241.442C308.3 216.014 300.069 185.281 278.66 167.441C271.804 161.732 263.836 157.305 256.918 151.641C250.019 145.984 243.998 138.589 243.016 129.969C241.578 117.566 250.738 106.269 260.818 98.2041C270.898 90.139 282.683 83.509 289.915 73.0651C299.419 59.3445 299.211 41.1623 293.578 25.6768C287.944 10.1913 277.503 -3.24926 267.204 -16.4068" stroke="#FF4DC4" stroke-miterlimit="10"/>
<path d="M293.684 296.879C284.841 291.292 282.876 279.37 285.355 269.531C286.432 265.268 288.132 261.223 290.059 257.242C292.584 252.009 295.446 246.907 297.638 241.591C302.106 230.74 303.436 218.973 301.618 207.496C300.209 198.62 297.156 190.044 292.491 182.328C289.185 176.827 284.998 171.831 280.01 167.551C277.781 165.64 275.412 163.857 272.999 162.125C268.103 158.612 263.027 155.326 258.47 151.465C253.291 147.089 248.725 141.717 246.589 135.55C245.918 133.624 245.472 131.648 245.305 129.598C244.624 121.026 249.048 113.125 255.1 106.266C257.707 103.301 260.628 100.527 263.557 98.0297C266.85 95.2393 270.251 92.5821 273.565 89.914C280.067 84.6663 286.249 79.363 290.334 72.6331C293.007 68.2564 294.558 63.537 295.326 58.5381C296.841 48.4178 294.826 37.0933 290.672 26.6991C289.532 23.8615 288.242 21.0574 286.869 18.2897C280.7 6.02113 272.516 -5.40547 264.89 -16.5025" stroke="#F552C5" stroke-miterlimit="10"/>
<path d="M292.536 297.074C283.821 291.331 281.84 279.449 284.287 269.575C285.344 265.304 287.053 261.239 289.007 257.247C291.571 252.029 294.506 246.977 296.824 241.687C301.543 230.956 303.294 219.398 301.753 207.914C300.554 199.027 297.797 190.451 293.467 182.637C290.353 177.051 286.285 171.986 281.374 167.622C279.181 165.679 276.827 163.856 274.422 162.105C269.568 158.539 264.496 155.186 260.009 151.261C254.908 146.801 250.519 141.384 248.643 135.134C248.067 133.2 247.688 131.227 247.602 129.208C247.253 120.718 251.929 113.052 257.974 106.212C260.608 103.236 263.458 100.411 266.294 97.8555C269.464 94.9716 272.721 92.2132 275.769 89.4652C281.807 84.0608 287.356 78.7412 290.744 72.221C292.944 68.0041 294.004 63.5514 294.328 58.8146C294.963 49.1989 292.256 38.1315 287.75 27.7612C286.503 24.9052 285.145 22.0978 283.713 19.3072C277.297 6.85166 269.4 -5.08048 262.565 -16.511" stroke="#EB57C7" stroke-miterlimit="10"/>
<path d="M291.36 297.281C282.774 291.383 280.75 279.553 283.185 269.651C284.243 265.38 285.939 261.288 287.913 257.303C290.497 252.093 293.511 247.072 295.941 241.848C300.89 231.229 303.11 219.875 301.826 208.375C300.828 199.498 298.403 190.891 294.381 182.99C291.487 177.307 287.537 172.173 282.697 167.745C280.538 165.77 278.212 163.935 275.83 162.124C271 158.499 265.958 155.066 261.534 151.097C256.503 146.573 252.3 141.09 250.656 134.771C250.155 132.819 249.856 130.877 249.856 128.869C249.833 120.483 254.768 113.031 260.813 106.191C263.447 103.215 266.265 100.355 269.005 97.6933C272.071 94.7236 275.118 91.861 277.967 89.0362C283.541 83.4751 288.472 78.0994 291.135 71.8012C292.87 67.7241 293.423 63.5778 293.324 59.1109C293.119 50.0151 289.699 39.1972 284.801 28.8354C283.459 25.9884 282.003 23.1426 280.519 20.3091C273.835 7.65898 266.252 -4.7908 260.2 -16.5349" stroke="#E15DC8" stroke-miterlimit="10"/>
<path d="M290.204 297.497C281.727 291.435 279.707 279.652 282.11 269.715C283.155 265.417 284.851 261.324 286.865 257.355C289.489 252.16 292.563 247.162 295.124 242.012C300.304 231.505 302.973 220.347 301.958 208.86C301.17 199.973 299.069 191.354 295.354 183.367C292.68 177.585 288.848 172.383 284.078 167.892C281.935 165.876 279.644 164.009 277.27 162.178C272.482 158.502 267.443 155.002 263.098 150.948C258.165 146.348 254.091 140.824 252.735 134.411C252.321 132.47 252.097 130.511 252.169 128.553C252.479 120.25 257.666 113.033 263.723 106.221C266.377 103.252 269.131 100.321 271.78 97.6018C274.734 94.5663 277.625 91.5749 280.208 88.6702C285.298 82.9448 289.631 77.5207 291.589 71.4521C292.86 67.5149 292.906 63.675 292.37 59.4505C291.286 50.8591 287.185 40.326 281.932 29.9407C280.475 27.0949 278.959 24.2262 277.423 21.3497C270.492 8.51274 263.216 -4.43491 257.934 -16.5201" stroke="#D762CA" stroke-miterlimit="10"/>
<path d="M289.056 297.692C280.7 291.494 278.673 279.731 281.043 269.759C282.069 265.453 283.772 261.34 285.806 257.379C288.45 252.192 291.623 247.232 294.276 242.14C299.706 231.752 302.805 220.783 302.066 209.29C301.487 200.392 299.683 191.774 296.303 183.687C293.83 177.801 290.127 172.558 285.416 167.975C283.308 165.927 281.032 164.02 278.666 162.17C273.909 158.413 268.893 154.854 264.61 150.756C259.748 146.092 255.859 140.503 254.744 133.999C254.404 132.042 254.259 130.114 254.418 128.167C255.054 119.967 260.481 112.956 266.558 106.152C269.219 103.163 271.941 100.197 274.486 97.392C277.336 94.2707 280.036 91.1827 282.402 88.1936C287.026 82.3114 290.743 76.8313 291.975 70.9847C292.789 67.1675 292.321 63.6538 291.349 59.6716C289.404 51.5924 284.591 41.3088 278.966 30.9397C277.402 28.0754 275.799 25.1958 274.203 22.2964C267.005 9.26478 260.036 -4.18067 255.553 -16.6192" stroke="#CD67CB" stroke-miterlimit="10"/>
<path d="M287.88 297.899C279.652 291.546 277.59 279.815 279.969 269.823C280.994 265.517 282.685 261.377 284.739 257.423C287.43 252.231 290.655 247.315 293.427 242.269C299.088 231.993 302.656 221.228 302.166 209.74C301.797 200.832 300.316 192.201 297.244 184.029C294.991 178.045 291.406 172.733 286.765 168.086C284.685 166.026 282.444 164.087 280.101 162.177C275.367 158.361 270.374 154.742 266.162 150.58C261.37 145.852 257.639 140.209 256.811 133.612C256.566 131.645 256.489 129.721 256.727 127.804C257.696 119.687 263.374 112.911 269.451 106.106C272.113 103.118 274.79 100.089 277.244 97.2256C279.99 94.0185 282.5 90.834 284.634 87.7328C288.787 81.7138 291.909 76.118 292.421 70.5408C292.757 66.8359 291.783 63.6287 290.407 59.924C287.602 52.3571 282.096 42.3306 276.107 31.9578C274.449 29.1026 272.766 26.1923 271.119 23.2499C263.673 10.0314 256.998 -3.93938 253.279 -16.6992" stroke="#C36CCD" stroke-miterlimit="10"/>
<path d="M286.732 298.095C278.633 291.586 276.555 279.894 278.894 269.887C279.907 265.553 281.598 261.414 283.679 257.447C286.391 252.263 289.687 247.397 292.598 242.405C298.51 232.249 302.507 221.673 302.286 210.197C302.126 201.278 300.97 192.637 298.197 184.397C296.165 178.316 292.698 172.935 288.127 168.224C286.082 166.132 283.857 164.154 281.521 162.224C276.83 158.356 271.841 154.67 267.699 150.444C262.985 145.631 259.423 139.963 258.843 133.256C258.666 131.293 258.675 129.379 258.981 127.466C260.276 119.451 266.213 112.89 272.283 106.105C274.972 103.104 277.597 100.033 279.939 97.1033C282.582 93.8104 284.908 90.5094 286.816 87.3436C290.505 81.1679 292.977 75.4809 292.808 70.1884C292.695 66.5837 291.199 63.7226 289.387 60.2602C285.702 53.1978 279.515 43.456 273.143 33.0719C271.378 30.1981 269.608 27.277 267.908 24.2917C260.196 10.8787 253.847 -3.58235 250.899 -16.6833" stroke="#B972CE" stroke-miterlimit="10"/>
<path d="M285.575 298.31C277.586 291.637 275.512 279.993 277.819 269.951C278.812 265.61 280.511 261.45 282.612 257.491C285.363 252.323 288.719 247.479 291.742 242.553C297.884 232.509 302.33 222.13 302.386 210.646C302.436 201.718 301.603 193.064 299.138 184.738C297.306 178.551 293.969 173.13 289.457 168.327C287.447 166.203 285.229 164.205 282.909 162.235C278.241 158.308 273.282 154.542 269.203 150.272C264.56 145.395 261.164 139.654 260.855 132.892C260.773 130.92 260.85 129.009 261.235 127.127C262.862 119.196 269.044 112.888 275.121 106.084C277.811 103.083 280.384 99.9686 282.65 96.9411C285.188 93.5624 287.343 90.1724 288.994 86.9069C292.218 80.5745 294.048 74.7763 293.179 69.7609C292.576 66.2409 290.578 63.7336 288.37 60.5289C283.805 53.971 276.945 44.4941 270.209 34.1063C268.349 31.2416 266.5 28.2897 264.721 25.2738C256.761 11.6738 250.699 -3.2927 248.541 -16.7271" stroke="#AF77CF" stroke-miterlimit="10"/>
<path d="M284.407 298.497C276.546 291.669 274.437 280.057 276.732 269.987C277.725 265.646 279.404 261.479 281.533 257.508C284.304 252.347 287.759 247.542 290.893 242.682C297.286 232.758 302.173 222.594 302.486 211.096C302.745 202.157 302.237 193.492 300.079 185.079C298.467 178.795 295.248 173.305 290.806 168.438C288.832 166.282 286.649 164.251 284.344 162.242C279.727 158.243 274.763 154.43 270.763 150.076C266.197 145.115 262.951 139.341 262.93 132.485C262.915 130.516 263.099 128.623 263.551 126.744C265.504 118.916 271.945 112.823 278.022 106.018C280.719 102.997 283.261 99.8481 285.415 96.7546C287.83 93.2825 289.814 89.8036 291.246 86.4536C293.998 79.9844 295.154 74.0398 293.644 69.3245C292.552 65.8893 290.072 63.7435 287.427 60.7811C282.003 54.7354 274.43 45.508 267.343 35.1441C265.368 32.2807 263.439 29.2981 261.628 26.2469C253.421 12.46 247.645 -3.0119 246.279 -16.7797" stroke="#A57CD1" stroke-miterlimit="10"/>
<path d="M283.251 298.712C275.511 291.749 273.395 280.156 275.657 270.051C276.631 265.702 278.318 261.515 280.486 257.559C283.296 252.414 286.811 247.632 290.065 242.818C296.688 233.006 302.024 223.039 302.614 211.533C303.083 202.584 302.906 193.887 301.048 185.408C299.657 179.026 296.555 173.467 292.184 168.536C290.244 166.349 288.077 164.278 285.78 162.249C281.185 158.19 276.253 154.298 272.315 149.899C267.84 144.882 264.731 139.047 264.978 132.089C265.058 130.111 265.308 128.222 265.84 126.373C268.127 118.628 274.8 112.762 280.889 105.985C283.606 102.972 286.083 99.7518 288.146 96.6002C290.449 93.0621 292.258 89.4468 293.444 86.0246C295.731 79.3986 296.186 73.3199 294.035 68.9046C292.406 65.5588 289.479 63.7424 286.411 61.0499C280.107 55.5087 271.861 46.5462 264.382 36.1908C262.3 33.3089 260.304 30.3231 258.421 27.2214C249.947 13.2399 244.505 -2.7421 243.91 -16.851" stroke="#9B81D2" stroke-miterlimit="10"/>
<path d="M282.095 298.928C274.464 291.8 272.352 280.256 274.575 270.135C275.536 265.759 277.223 261.571 279.419 257.604C282.249 252.466 285.836 247.735 289.208 242.966C296.082 233.274 301.848 223.495 302.706 212.003C303.384 203.043 303.532 194.335 301.981 185.768C300.81 179.29 297.826 173.662 293.506 168.659C291.602 166.44 289.442 164.349 287.16 162.28C282.589 158.162 277.699 154.218 273.812 149.748C269.407 144.667 266.456 138.778 266.99 131.726C267.137 129.751 267.483 127.853 268.087 126.055C270.698 118.413 277.631 112.76 283.72 105.983C286.445 102.951 288.89 99.6955 290.849 96.458C293.048 92.8342 294.686 89.13 295.633 85.6157C297.448 78.8529 297.174 72.6522 294.437 68.5126C292.292 65.2637 288.91 63.7966 285.426 61.3541C278.242 56.3174 269.315 47.6396 261.48 37.2607C259.303 34.3878 257.208 31.3637 255.286 28.2466C246.564 14.0782 241.409 -2.40933 241.605 -16.8517" stroke="#9187D4" stroke-miterlimit="10"/>
<path d="M280.927 299.115C273.424 291.832 271.277 280.319 273.488 270.171C274.449 265.795 276.124 261.58 278.34 257.62C281.217 252.478 284.876 247.797 288.36 243.094C295.464 233.514 301.679 223.932 302.814 212.432C303.702 203.462 304.173 194.742 302.93 186.089C301.979 179.513 299.106 173.837 294.863 168.75C292.987 166.518 290.87 164.376 288.596 162.287C284.067 158.117 279.181 154.105 275.383 149.579C271.057 144.414 268.236 138.484 269.058 131.337C269.28 129.346 269.705 127.479 270.395 125.691C273.34 118.132 280.525 112.715 286.634 105.945C289.358 102.912 291.752 99.6145 293.627 96.2989C295.723 92.5893 297.169 88.7884 297.878 85.182C299.249 78.2702 298.21 71.9795 294.868 68.108C292.178 64.9682 288.349 63.8306 284.441 61.658C276.369 57.1457 266.758 48.7052 258.551 38.3425C256.259 35.4709 254.097 32.4436 252.11 29.2561C243.121 14.8931 238.273 -2.09224 239.24 -16.8758" stroke="#878CD5" stroke-miterlimit="10"/>
<path d="M279.771 299.33C272.397 291.892 270.235 280.419 272.433 270.243C273.375 265.859 275.057 261.624 277.292 257.672C280.19 252.537 283.928 247.887 287.523 243.251C294.858 233.782 301.542 224.404 302.926 212.91C304.016 203.949 304.819 195.197 303.883 186.458C303.161 179.764 300.397 174.039 296.225 168.889C294.384 166.625 292.282 164.443 290.023 162.314C285.526 158.065 280.662 153.993 276.935 149.403C272.679 144.174 270.015 138.191 271.117 130.97C271.427 128.989 271.926 127.105 272.697 125.348C275.967 117.892 283.411 112.689 289.512 105.94C292.257 102.914 294.586 99.5461 296.369 96.1722C298.361 92.3769 299.637 88.487 300.108 84.7885C301.006 77.7398 299.224 71.367 295.31 67.7314C292.068 64.7206 287.82 63.9003 283.476 61.9699C274.544 57.9698 264.24 49.7865 255.669 39.4202C253.271 36.53 251.021 33.4919 248.995 30.2891C239.759 15.7392 235.217 -1.744 236.955 -16.8687" stroke="#7D91D7" stroke-miterlimit="10"/>
<path d="M278.622 299.526C271.357 291.924 269.199 280.498 271.366 270.287C272.295 265.875 273.977 261.641 276.233 257.696C279.17 252.577 282.967 247.95 286.702 243.367C294.287 234.018 301.4 224.829 303.061 213.327C304.36 204.356 305.515 195.581 304.859 186.767C304.357 179.976 301.711 174.182 297.589 168.96C295.764 166.656 293.69 164.462 291.446 162.294C286.991 157.992 282.131 153.854 278.475 149.199C274.296 143.886 271.763 137.862 273.152 130.547C273.536 128.549 274.116 126.696 274.973 124.95C278.556 117.57 286.272 112.608 292.374 105.859C295.126 102.814 297.423 99.4102 299.103 95.9506C300.991 92.0694 302.083 88.0631 302.308 84.2923C302.742 77.087 300.227 70.6594 295.723 67.2521C291.922 64.3902 287.242 63.8596 282.501 62.187C272.682 58.7112 261.712 50.7729 252.75 40.4151C250.257 37.534 247.928 34.4651 245.83 31.2117C236.327 16.4672 232.099 -1.53366 234.628 -16.9918" stroke="#7396D8" stroke-miterlimit="10"/>
<path d="M277.447 299.733C270.303 291.995 268.117 280.582 270.264 270.363C271.193 265.951 272.863 261.689 275.166 257.74C278.123 252.629 282.02 248.04 285.846 243.515C293.662 234.279 301.216 225.306 303.154 213.797C304.663 204.815 306.142 196.028 305.793 187.128C305.511 180.239 302.975 174.397 298.932 169.09C297.141 166.754 295.103 164.528 292.867 162.34C288.435 157.979 283.605 153.761 280.012 149.062C275.904 143.685 273.52 137.628 275.205 130.198C275.664 128.184 276.33 126.342 277.267 124.627C281.176 117.349 289.131 112.595 295.245 105.873C298.017 102.835 300.25 99.3613 301.838 95.8434C303.595 91.8887 304.543 87.7812 304.53 83.9183C304.519 76.5639 301.265 70.1015 296.139 66.8873C291.797 64.182 286.686 63.9411 281.509 62.5108C270.81 59.5395 259.16 51.886 249.841 41.5046C247.234 38.6248 244.825 35.5253 242.695 32.2366C232.944 17.3053 229.004 -1.20111 232.323 -16.9927" stroke="#699CD9" stroke-miterlimit="10"/>
<path d="M276.298 299.928C269.283 292.035 267.082 280.661 269.197 270.407C270.106 265.988 271.784 261.706 274.106 257.764C277.103 252.668 281.052 248.122 284.997 243.644C293.064 234.527 301.067 225.75 303.254 214.246C304.972 205.255 306.783 196.436 306.734 187.469C306.692 180.49 304.255 174.572 300.281 169.201C298.526 166.833 296.495 164.587 294.282 162.34C289.893 157.927 285.067 153.641 281.543 148.878C277.526 143.445 275.26 137.319 277.252 129.803C277.778 127.792 278.532 125.96 279.556 124.256C283.798 117.062 292.005 112.541 298.119 105.819C300.898 102.762 303.099 99.253 304.584 95.6494C306.237 91.6089 306.994 87.4048 306.743 83.4498C306.26 75.9586 302.273 69.4414 296.564 66.4356C291.683 63.8869 286.132 63.9555 280.547 62.7554C268.973 60.3361 256.625 52.8923 246.955 42.5348C244.26 39.6442 241.765 36.5338 239.555 33.2144C229.537 18.0884 225.903 -0.915752 230.013 -17.0408" stroke="#5FA1DB" stroke-miterlimit="10"/>
<path d="M275.142 300.143C268.255 292.094 266.039 280.76 268.122 270.471C269.019 266.024 270.697 261.742 273.039 257.808C276.084 252.708 280.084 248.205 284.168 243.78C292.466 234.775 300.918 226.195 303.382 214.684C305.309 205.682 307.464 196.859 307.702 187.797C307.888 180.701 305.561 174.734 301.658 169.3C299.938 166.9 297.922 164.614 295.717 162.346C291.351 157.874 286.548 153.529 283.095 148.702C279.156 143.185 277.028 136.998 279.292 129.427C279.893 127.399 280.734 125.579 281.817 123.897C286.385 116.806 294.851 112.5 300.965 105.778C303.745 102.721 305.894 99.1689 307.294 95.4871C308.843 91.3608 309.438 87.048 308.94 83.0207C307.993 75.3727 303.306 68.836 296.947 66.0356C291.545 63.651 285.524 63.9941 279.522 63.0439C267.088 61.1368 254.047 53.9502 243.986 43.6012C241.176 40.7119 238.601 37.5708 236.36 34.2163C226.094 18.9034 222.767 -0.598642 227.628 -17.0725" stroke="#55A6DC" stroke-miterlimit="10"/>
<path d="M273.966 300.351C267.188 292.138 264.949 280.864 267.027 270.527C267.924 266.081 269.582 261.791 271.952 257.845C275.016 252.752 279.116 248.287 283.292 243.921C291.84 235.035 300.722 226.644 303.454 215.146C305.591 206.133 308.09 197.306 308.616 188.15C309.022 180.957 306.805 174.941 302.96 169.415C301.275 166.983 299.295 164.665 297.098 162.378C292.762 157.826 287.982 153.422 284.6 148.53C280.731 142.949 278.74 136.701 281.312 129.044C282 127.027 282.928 125.217 284.079 123.539C288.979 116.531 297.69 112.479 303.804 105.757C306.611 102.688 308.708 99.0927 309.997 95.3451C311.442 91.133 311.846 86.7235 311.11 82.6041C309.718 74.8071 304.291 68.2355 297.33 65.6359C291.408 63.4156 284.943 64.0208 278.497 63.3328C265.184 61.9302 251.462 55.0283 241.044 44.6558C238.12 41.7679 235.486 38.6038 233.172 35.1986C222.64 19.6912 219.627 -0.328553 225.271 -17.116" stroke="#4BABDE" stroke-miterlimit="10"/>
<path d="M272.818 300.546C266.161 292.198 263.914 280.943 265.952 270.591C266.83 266.137 268.495 261.827 270.893 257.869C273.997 252.791 278.156 248.35 282.463 244.057C291.242 235.284 300.593 227.096 303.582 215.583C305.928 206.56 308.759 197.702 309.577 188.499C310.223 181.216 308.104 175.124 304.338 169.514C302.68 167.07 300.715 164.712 298.541 162.365C294.248 157.761 289.471 153.29 286.159 148.334C282.368 142.669 280.508 136.38 283.367 128.628C284.13 126.595 285.145 124.796 286.368 123.168C291.594 116.263 300.564 112.426 306.698 105.712C309.505 102.642 311.558 98.9845 312.763 95.1587C314.104 90.8609 314.344 86.3426 313.362 82.1509C311.526 74.2049 305.379 67.6061 297.775 65.1919C291.326 63.1556 284.417 64.0231 277.555 63.5851C263.362 62.687 248.967 56.05 238.158 45.686C235.147 42.7872 232.405 39.6046 230.052 36.1841C219.273 20.4897 216.546 -0.0355144 222.989 -17.1763" stroke="#41B1DF" stroke-miterlimit="10"/>
<path d="M271.662 300.761C265.133 292.257 262.871 281.042 264.897 270.663C265.763 266.181 267.428 261.871 269.846 257.921C272.969 252.851 277.208 248.44 281.627 244.213C290.656 235.559 300.436 227.561 303.694 216.06C306.25 207.027 309.444 198.172 310.53 188.867C311.417 181.495 309.395 175.326 305.699 169.652C304.077 167.176 302.128 164.779 299.961 162.412C295.691 157.748 290.945 153.197 287.696 148.198C283.975 142.468 282.233 136.111 285.419 128.28C286.25 126.25 287.352 124.462 288.661 122.845C294.22 116.023 303.423 112.412 309.576 105.706C312.391 102.616 314.412 98.9233 315.505 95.0317C316.735 90.6679 316.792 86.0331 315.572 81.7493C313.271 73.6466 306.424 67.0283 298.198 64.8072C291.229 62.9352 283.848 64.077 276.57 63.8891C261.509 63.523 246.409 57.1156 235.257 46.7556C232.131 43.8582 229.329 40.6525 226.905 37.1815C215.858 21.2925 213.458 0.277163 220.672 -17.2047" stroke="#37B6E1" stroke-miterlimit="10"/>
<path d="M270.494 300.949C261.318 288.545 260.615 270.994 268.767 257.937C278.369 242.543 298.538 233.652 303.782 216.482C306.548 207.439 310.066 198.572 311.459 189.181C313.058 178.431 308.42 170.292 301.357 162.404C292.283 152.276 280.918 142.702 287.447 127.877C292.158 117.166 304.821 113.934 312.423 105.665C318.42 99.1258 320.522 89.5523 317.757 81.2929C314.992 73.0336 307.465 66.4035 298.596 64.3678C291.107 62.66 283.275 64.0838 275.561 64.1382C255.176 64.3166 235.02 54.2198 223.725 38.1439C212.431 22.068 210.325 0.527301 218.322 -17.2682" stroke="#2DBBE2" stroke-miterlimit="10"/>
<path d="M272.579 300.751C264.403 288.596 264.119 271.321 272.013 258.279C275.954 251.744 281.664 246.304 287.223 240.898C292.943 235.37 298.518 229.924 302.083 223.358C303.221 221.241 304.176 219.008 304.82 216.632C307.251 207.687 310.394 198.904 311.693 189.522C313.178 178.888 308.856 170.758 302.351 162.902C300.859 161.093 299.312 159.308 297.793 157.51C293.33 152.224 289.242 146.855 288.294 140.508C287.755 136.944 288.172 133.088 290.02 128.78C294.538 118.154 306.359 114.62 313.282 106.453C314.203 105.371 315.019 104.203 315.717 102.989C319.205 96.9181 319.971 89.3847 317.509 82.7034C314.557 74.6914 307.056 68.231 298.297 66.1465C290.878 64.3747 283.106 65.525 275.469 65.3807C262.303 65.131 249.25 60.6333 238.747 53.081C233.141 49.0421 228.263 44.1208 224.442 38.5348C217.482 28.3118 214.175 15.9624 214.645 3.70334C214.922 -3.33412 216.466 -10.3389 219.308 -16.8646" stroke="#33B4E3" stroke-miterlimit="10"/>
<path d="M274.672 300.533C267.487 288.647 267.629 271.628 275.274 258.581C279.108 252.028 284.505 246.513 289.716 241.062C295.048 235.476 300.199 230.003 303.42 223.442C304.463 221.334 305.296 219.122 305.865 216.762C307.968 207.897 310.75 199.225 311.945 189.871C313.329 179.381 309.292 171.223 303.337 163.42C301.96 161.61 300.567 159.839 299.182 158.048C295.135 152.809 291.48 147.561 290.751 141.298C290.358 137.768 290.807 133.947 292.565 129.696C296.91 119.163 307.869 115.318 314.113 107.254C314.939 106.181 315.653 105.042 316.276 103.844C319.354 97.8893 319.826 90.5846 317.212 84.1186C314.073 76.3539 306.618 70.0709 297.977 67.9179C290.636 66.0621 282.929 66.9862 275.364 66.596C262.337 65.9888 249.443 61.2559 239.14 53.5985C233.612 49.4756 228.844 44.5056 225.133 38.8709C218.371 28.61 215.23 16.3021 215.708 4.02325C215.985 -3.01421 217.494 -9.98693 220.288 -16.5081" stroke="#38ADE5" stroke-miterlimit="10"/>
<path d="M276.766 300.314C270.58 288.678 271.12 271.927 278.509 258.895C282.208 252.336 287.339 246.74 292.169 241.212C297.141 235.555 301.829 230.04 304.719 223.509C305.647 221.403 306.384 219.2 306.871 216.877C308.647 208.09 311.026 199.514 312.147 190.177C313.398 179.795 309.697 171.653 304.3 163.883C303.049 162.099 301.799 160.314 300.561 158.557C296.949 153.372 293.687 148.231 293.196 142.06C292.922 138.576 293.411 134.77 295.098 130.583C299.251 120.136 309.38 116.016 314.941 108.007C315.672 106.943 316.311 105.821 316.859 104.64C319.527 98.8004 319.706 91.7246 316.948 85.454C313.649 77.9245 306.212 71.831 297.689 69.6094C290.399 67.6818 282.771 68.3402 275.283 67.7514C262.401 66.7668 249.651 61.8385 239.557 54.056C234.107 49.8493 229.45 44.8305 225.861 39.1746C219.295 28.8758 216.321 16.6095 216.799 4.3306C217.089 -2.67933 218.577 -9.65973 221.285 -16.1917" stroke="#3EA6E6" stroke-miterlimit="10"/>
<path d="M278.859 300.096C273.653 288.702 274.631 272.234 281.77 259.197C285.343 252.612 290.18 246.949 294.67 241.357C299.261 235.621 303.498 230.091 306.064 223.573C306.897 221.475 307.532 219.301 307.924 216.988C309.392 208.287 311.389 199.814 312.415 190.487C313.545 180.24 310.168 172.087 305.302 164.362C304.186 162.584 303.07 160.806 301.966 159.055C298.771 153.917 295.92 148.889 295.668 142.81C295.521 139.352 296.102 135.605 297.678 131.467C301.638 121.104 310.918 116.702 315.808 108.777C316.464 107.729 317.009 106.615 317.454 105.464C319.712 99.7395 319.589 92.9123 316.687 86.8372C313.202 79.555 305.802 73.6588 297.385 71.3411C290.165 69.3494 282.597 69.7342 275.194 68.9269C262.43 67.5772 249.86 62.4214 239.954 54.5063C234.581 50.2156 230.062 45.1359 226.548 39.4634C220.18 29.1266 217.353 16.8942 217.878 4.61081C218.168 -2.39911 219.621 -9.34749 222.281 -15.875" stroke="#43A0E8" stroke-miterlimit="10"/>
<path d="M280.924 299.89C276.717 288.745 278.114 272.553 284.977 259.524C288.435 252.939 292.994 247.169 297.095 241.518C301.318 235.731 305.112 230.167 307.334 223.653C308.053 221.557 308.593 219.392 308.902 217.114C310.043 208.493 311.658 200.123 312.581 190.825C313.598 180.694 310.518 172.542 306.229 164.858C305.227 163.078 304.266 161.314 303.316 159.577C300.529 154.505 298.127 149.559 298.092 143.565C298.072 140.133 298.658 136.433 300.191 132.347C304.018 122.093 312.397 117.365 316.608 109.542C317.169 108.504 317.619 107.399 318.001 106.291C319.862 100.71 319.432 94.0845 316.379 88.2246C312.714 81.1699 305.333 75.4633 297.053 73.0847C289.904 71.0289 282.416 71.1478 275.07 70.1343C262.452 68.4072 250.033 63.0362 240.327 55.0159C235.033 50.6412 230.624 45.5129 227.232 39.8191C221.061 29.4445 218.401 17.2536 218.933 4.95032C219.235 -2.03207 220.661 -8.96824 223.234 -15.5066" stroke="#4999E9" stroke-miterlimit="10"/>
<path d="M283.017 299.672C279.81 288.776 281.605 272.852 288.231 259.845C291.554 253.255 295.828 247.396 299.588 241.683C303.431 235.817 306.774 230.239 308.671 223.736C309.275 221.641 309.733 219.513 309.948 217.244C310.761 208.702 311.994 200.436 312.842 191.154C313.738 181.159 310.982 172.995 307.223 165.356C306.356 163.583 305.529 161.825 304.707 160.114C302.335 155.089 300.345 150.256 300.549 144.355C300.648 140.969 301.293 137.292 302.737 133.262C306.378 123.073 313.908 118.063 317.439 110.343C317.906 109.313 318.273 108.245 318.568 107.127C320.019 101.661 319.296 95.2642 316.098 89.5998C312.247 82.7924 304.911 77.2632 296.749 74.8159C289.67 72.6961 282.235 72.5613 274.981 71.3095C262.501 69.2249 250.249 63.5989 240.736 55.4933C235.52 51.0347 231.221 45.8576 227.932 40.135C221.951 29.7423 219.456 17.593 219.997 5.26989C220.299 -1.7125 221.697 -8.63649 224.203 -15.178" stroke="#4F92EA" stroke-miterlimit="10"/>
<path d="M285.11 299.454C282.895 288.827 285.124 273.14 291.492 260.147C294.689 253.531 298.689 247.612 302.069 241.82C305.551 235.884 308.431 230.263 309.996 223.792C310.506 221.706 310.849 219.579 310.981 217.347C311.487 208.891 312.325 200.701 313.063 191.467C313.866 181.597 311.386 173.425 308.205 165.827C307.453 164.052 306.78 162.309 306.112 160.612C304.176 155.641 302.606 150.902 303.021 145.105C303.267 141.753 303.944 138.111 305.297 134.138C308.766 124.042 315.446 118.749 318.287 111.104C318.658 110.084 318.95 109.032 319.163 107.95C320.204 102.6 319.179 96.4519 315.838 90.9829C311.799 84.4228 304.509 79.071 296.445 76.5475C289.417 74.3559 282.069 73.9355 274.864 72.4972C262.538 70.0155 250.43 64.194 241.125 55.9634C235.987 51.4208 231.818 46.2027 228.631 40.4512C222.847 30.0206 220.52 17.9129 221.088 5.57757C221.402 -1.37728 222.772 -8.28908 225.211 -14.8338" stroke="#548BEC" stroke-miterlimit="10"/>
<path d="M287.203 299.236C285.987 288.859 288.654 273.454 294.726 260.462C297.828 253.854 301.503 247.833 304.542 241.977C307.636 235.982 310.072 230.327 311.314 223.868C311.709 221.783 311.949 219.685 312.006 217.47C312.178 209.113 312.661 201.013 313.304 191.789C313.993 182.034 311.838 173.851 309.187 166.298C308.57 164.53 308.031 162.792 307.498 161.102C305.97 156.197 304.84 151.561 305.473 145.848C305.846 142.522 306.575 138.923 307.858 135.013C311.153 125.011 316.972 119.407 319.134 111.865C319.43 110.862 319.628 109.819 319.758 108.774C320.389 103.539 319.07 97.6198 315.577 92.3661C311.359 86.0335 304.087 80.8713 296.153 78.3067C289.195 76.051 281.928 75.3647 274.787 73.7003C262.599 70.8611 250.651 64.8045 241.546 56.4688C236.486 51.8423 232.435 46.5555 229.363 40.8027C223.776 30.3343 221.615 18.268 222.183 5.93272C222.49 -1.00228 223.86 -7.91407 226.204 -14.4497" stroke="#5A84ED" stroke-miterlimit="10"/>
<path d="M289.289 299.037C289.072 288.909 292.157 273.781 297.98 260.783C300.955 254.149 304.356 248.068 307.015 242.134C309.748 236.068 311.734 230.398 312.631 223.943C312.924 221.887 313.077 219.778 313.032 217.592C312.876 209.314 312.976 201.318 313.538 192.13C314.105 182.511 312.274 174.316 310.174 166.816C309.691 165.054 309.287 163.323 308.888 161.639C307.776 156.781 307.066 152.238 307.93 146.637C308.429 143.337 309.183 139.794 310.403 135.928C313.506 126.011 318.482 120.105 319.965 112.666C320.167 111.671 320.27 110.638 320.317 109.629C320.538 104.51 318.926 98.8191 315.281 93.7807C310.896 87.703 303.65 82.7106 295.814 80.0697C288.934 77.7301 281.711 76.81 274.663 74.9073C262.621 71.6907 250.824 65.4188 241.927 56.9581C236.946 52.2477 233.005 46.9122 230.035 41.1304C224.646 30.6241 222.651 18.5995 223.227 6.2443C223.553 -0.683015 224.868 -7.57045 227.172 -14.1215" stroke="#607DEE" stroke-miterlimit="10"/>
<path d="M291.382 298.819C292.144 288.933 295.668 274.088 301.234 261.105C304.075 254.465 307.19 248.296 309.508 242.298C311.88 236.162 313.396 230.47 313.969 224.026C314.147 221.972 314.198 219.892 314.077 217.722C313.594 209.523 313.332 201.638 313.779 192.452C314.253 182.956 312.706 174.734 311.176 167.295C310.808 165.532 310.558 163.814 310.306 162.165C309.601 157.373 309.34 152.912 310.414 147.415C311.06 144.149 311.846 140.641 312.976 136.832C315.906 127.007 320.001 120.783 320.825 113.455C320.932 112.469 320.952 111.472 320.932 110.46C320.763 105.464 318.829 100.015 315.048 95.1517C310.484 89.3016 303.275 84.5063 295.557 81.7969C288.748 79.3932 281.605 78.2072 274.613 76.0982C262.71 72.5242 251.08 65.9973 242.376 57.4513C237.5 52.6447 233.642 47.2727 230.802 41.4499C225.61 30.9057 223.782 18.9226 224.365 6.5476C224.684 -0.35986 225.992 -7.22747 228.208 -13.7893" stroke="#6576F0" stroke-miterlimit="10"/>
<path d="M293.455 298.593C295.217 288.957 299.139 274.38 304.456 261.392C307.19 254.733 310.012 248.497 311.942 242.44C313.926 236.245 314.998 230.519 315.247 224.087C315.31 222.034 315.266 219.962 315.063 217.829C314.253 209.709 313.609 201.928 313.98 192.758C314.341 183.379 313.118 175.145 312.111 167.77C311.877 166.013 311.735 164.315 311.644 162.659C311.355 157.914 311.526 153.574 312.819 148.162C313.592 144.922 314.43 141.457 315.497 137.692C318.234 127.953 321.48 121.446 321.632 114.201C321.645 113.224 321.59 112.244 321.468 111.261C320.889 106.38 318.661 101.159 314.728 96.5118C309.977 90.909 302.794 86.2835 295.213 83.5131C288.455 81.0377 281.392 79.5859 274.485 77.2584C262.707 73.2994 251.249 66.5649 242.745 57.9137C237.947 53.0232 234.227 47.5902 231.462 41.7507C226.467 31.1687 224.806 19.2271 225.409 6.85977C225.747 -0.040007 227.008 -6.9031 229.169 -13.4406" stroke="#6B70F1" stroke-miterlimit="10"/>
<path d="M295.548 298.375C298.302 289.007 302.65 274.687 307.71 261.714C310.31 255.049 312.865 248.732 314.415 242.597C316.038 236.331 316.667 230.57 316.564 224.162C316.533 222.118 316.394 220.056 316.089 217.952C314.951 209.911 313.944 202.24 314.193 193.091C314.453 183.855 313.535 175.602 313.085 168.261C312.986 166.51 312.978 164.818 313.042 163.176C313.161 158.497 313.78 154.24 315.304 148.939C316.216 145.754 317.093 142.303 318.069 138.595C320.634 128.949 323.018 122.132 322.492 114.989C322.409 114.021 322.279 113.058 322.074 112.112C321.086 107.347 318.557 102.374 314.479 97.9221C309.542 92.5666 302.404 88.1185 294.922 85.2719C288.233 82.7323 281.25 81.0147 274.4 78.4809C262.76 74.1644 251.469 67.1749 243.166 58.4187C238.447 53.4442 234.836 47.9625 232.193 42.1018C227.376 31.4742 225.901 19.5818 226.512 7.19463C226.843 0.31471 228.095 -6.52853 230.178 -13.0967" stroke="#7069F3" stroke-miterlimit="10"/>
<path d="M297.634 298.177C301.386 289.059 306.133 275.006 310.957 262.056C313.421 255.384 315.691 248.98 316.9 242.781C318.143 236.437 318.321 230.662 317.894 224.265C317.748 222.222 317.506 220.189 317.119 218.122C315.654 210.159 314.265 202.592 314.439 193.46C314.605 184.348 313.991 176.075 314.064 168.799C314.079 167.047 314.226 165.369 314.417 163.754C314.944 159.141 316.01 154.965 317.745 149.769C318.784 146.609 319.693 143.194 320.599 139.55C322.971 129.989 324.513 122.87 323.288 115.822C323.131 114.871 322.886 113.909 322.606 112.979C321.208 108.33 318.385 103.586 314.163 99.3295C309.046 94.2014 301.947 89.9506 294.582 87.0354C287.972 84.4119 281.034 82.4604 274.275 79.6884C262.782 74.9945 251.642 67.7897 243.54 58.9283C238.898 53.8699 235.398 48.3395 232.858 42.4499C228.238 31.7844 226.929 19.9336 227.547 7.52655C227.898 0.654299 229.096 -6.16457 231.111 -12.7359" stroke="#7662F4" stroke-miterlimit="10"/>
<path d="M299.727 297.959C304.479 289.09 309.652 275.293 314.199 262.35C316.556 255.66 318.533 249.188 319.361 242.911C320.236 236.515 319.97 230.706 319.2 224.313C318.959 222.28 318.603 220.248 318.132 218.217C316.332 210.353 314.588 202.877 314.64 193.766C314.694 184.77 314.403 176.486 315.027 169.262C315.176 167.517 315.457 165.845 315.783 164.236C316.726 159.67 318.086 155.562 320.178 150.504C321.442 147.409 322.296 144.018 323.12 140.41C325.319 130.942 325.972 123.525 324.096 116.568C323.843 115.626 323.516 114.701 323.162 113.787C321.353 109.253 318.236 104.739 313.863 100.697C308.559 95.8166 301.486 91.7354 294.258 88.7593C287.719 86.0717 280.841 83.8467 274.159 80.8761C262.804 75.8248 251.831 68.3649 243.902 59.4106C239.346 54.2483 235.968 48.6967 233.53 42.7783C229.107 32.0749 227.965 20.2657 228.603 7.86628C228.947 1.01389 230.144 -5.80496 232.084 -12.3596" stroke="#7C5BF5" stroke-miterlimit="10"/>
<path d="M301.82 297.74C307.571 289.121 313.123 275.585 317.452 262.672C319.656 255.968 321.374 249.396 321.854 243.076C322.348 236.601 321.632 230.777 320.537 224.396C320.181 222.364 319.743 220.368 319.178 218.347C317.031 210.554 314.952 203.177 314.901 194.095C314.853 185.242 314.895 176.927 316.029 169.741C316.313 168.002 316.728 166.336 317.208 164.741C318.559 160.241 320.526 156.276 322.677 151.241C324.009 148.15 324.955 144.817 325.728 141.281C327.734 131.899 327.545 124.179 324.99 117.324C324.643 116.391 324.241 115.483 323.804 114.606C321.605 110.195 318.167 105.921 313.65 102.075C308.167 97.4223 301.131 93.5384 293.994 90.5059C287.513 87.7267 280.719 85.2832 274.09 82.0589C262.865 76.67 252.059 68.9551 244.338 59.8758C239.86 54.6296 236.6 49.0094 234.277 43.0896C230.051 32.3483 229.048 20.5928 229.722 8.16142C230.085 1.31671 231.227 -5.47777 233.108 -12.0555" stroke="#8154F7" stroke-miterlimit="10"/>
<path d="M303.905 297.542C310.656 289.172 316.626 275.912 320.686 262.986C322.783 256.264 324.208 249.624 324.307 243.225C324.44 236.68 323.281 230.821 321.815 224.457C321.364 222.434 320.811 220.439 320.163 218.454C317.689 210.741 315.247 203.474 315.082 194.394C314.941 185.665 315.287 177.33 316.963 170.217C317.382 168.484 317.952 166.832 318.546 165.236C320.206 160.764 322.719 156.919 325.082 151.989C326.541 148.923 327.538 145.634 328.221 142.154C330.034 132.857 328.976 124.846 325.77 118.083C325.328 117.159 324.831 116.259 324.319 115.399C321.703 111.124 317.978 107.059 313.317 103.408C307.667 99.01 300.657 95.2959 293.638 92.1948C287.227 89.3515 280.493 86.6345 273.941 83.2116C262.862 77.4453 252.216 69.4953 244.687 60.3307C240.307 55.0083 237.137 49.3317 234.917 43.383C230.881 32.6237 230.052 20.8899 230.733 8.43861C231.108 1.62143 232.223 -5.1609 234.037 -11.7418" stroke="#874DF8" stroke-miterlimit="10"/>
<path d="M305.998 297.324C313.721 289.215 320.137 276.219 323.94 263.308C325.902 256.579 327.042 249.852 326.8 243.39C326.545 236.785 324.942 230.893 323.152 224.54C322.587 222.518 321.931 220.553 321.208 218.584C318.407 210.95 315.583 203.786 315.335 194.742C315.081 186.13 315.77 177.79 317.958 170.715C318.491 168.981 319.195 167.336 319.956 165.781C322.111 161.386 324.978 157.632 327.558 152.786C329.164 149.754 330.194 146.5 330.786 143.077C332.407 133.865 330.507 125.552 326.621 118.891C326.085 117.976 325.513 117.093 324.918 116.27C321.892 112.11 317.874 108.274 313.061 104.838C307.224 100.688 300.24 97.1432 293.358 93.9811C287.018 91.0737 280.364 88.0909 273.876 84.4419C262.935 78.3181 252.476 70.1208 245.12 60.8632C240.826 55.437 237.759 49.7315 235.668 43.7418C231.83 32.9446 231.167 21.2523 231.848 8.80104C232.224 1.98387 233.311 -4.78626 235.05 -11.3505" stroke="#8D46F9" stroke-miterlimit="10"/>
<path d="M308.071 297.098C316.793 289.239 323.608 276.51 327.174 263.622C329.002 256.887 329.875 250.08 329.253 243.539C328.638 236.864 326.591 230.937 324.45 224.608C323.79 222.595 323.012 220.651 322.214 218.699C319.058 211.156 315.899 204.091 315.537 195.049C315.188 186.559 316.095 178.19 318.912 171.198C319.6 169.478 320.399 167.824 321.314 166.283C323.877 161.955 327.211 158.29 329.983 153.541C331.728 150.563 332.769 147.336 333.299 143.957C334.747 134.838 331.958 126.227 327.421 119.657C326.81 118.759 326.135 117.904 325.446 117.09C322.01 113.046 317.69 109.458 312.733 106.218C306.717 102.295 299.77 98.9479 292.987 95.7096C286.724 92.7182 280.115 89.5016 273.72 85.6142C262.924 79.1132 252.625 70.6807 245.469 61.318C241.253 55.8078 238.324 50.0414 236.308 44.035C232.667 33.1999 232.171 21.5492 232.88 9.0857C233.267 2.29606 234.327 -4.46185 235.986 -11.0568" stroke="#9240FB" stroke-miterlimit="10"/>
<path d="M310.165 296.88C319.886 289.27 327.119 276.817 330.416 263.916C332.137 257.163 332.697 250.28 331.734 243.676C330.738 236.922 328.241 230.981 325.775 224.663C324.993 222.672 324.148 220.724 323.248 218.801C319.764 211.337 316.251 204.364 315.778 195.37C315.336 187.004 316.647 178.654 319.914 171.677C320.717 169.955 321.663 168.335 322.74 166.788C325.699 162.499 329.485 158.963 332.475 154.298C334.367 151.354 335.44 148.163 335.9 144.848C337.155 135.814 333.516 126.92 328.308 120.433C327.602 119.544 326.853 118.706 326.081 117.929C322.235 114 317.621 110.641 312.513 107.617C306.309 103.941 299.416 100.751 292.743 97.4639C286.539 94.3809 280.002 90.9183 273.683 86.8323C263.026 79.9738 252.913 71.294 245.931 61.8383C241.82 56.2319 238.973 50.429 237.08 44.4014C233.636 33.5284 233.307 21.9193 234.023 9.43594C234.403 2.66617 235.455 -4.0719 237.047 -10.67" stroke="#9839FC" stroke-miterlimit="10"/>
<path d="M312.25 296.682C322.971 289.321 330.622 277.144 333.663 264.258C335.248 257.498 335.543 250.535 334.2 243.853C332.835 237.048 329.895 231.072 327.085 224.759C326.208 222.776 325.24 220.85 324.265 218.944C320.447 211.578 316.598 204.704 316.011 195.711C315.496 187.477 317.103 179.127 320.881 172.187C321.818 170.472 322.898 168.858 324.102 167.338C327.45 163.107 331.723 159.669 334.904 155.1C336.942 152.19 338.028 149.026 338.418 145.775C339.46 136.819 334.972 127.643 329.112 121.246C328.311 120.366 327.467 119.538 326.62 118.776C322.385 114.971 317.457 111.833 312.204 109.004C305.822 105.555 298.947 102.555 292.411 99.2074C286.277 96.0604 279.82 92.3319 273.566 88.0198C263.035 80.7763 253.101 71.869 246.312 62.328C242.28 56.6378 239.542 50.7861 237.752 44.7296C234.505 33.8188 234.342 22.2512 235.059 9.76784C235.458 3.00574 236.463 -3.72784 237.98 -10.3092" stroke="#9D32FE" stroke-miterlimit="10"/>
<path d="M314.343 296.464C332.212 285.611 341.63 263.548 336.673 244.01C334.928 237.127 331.537 231.136 328.403 224.835C323.569 215.136 317.096 207.316 316.225 196.045C315.434 185.924 318.653 175.412 325.48 167.848C329.243 163.664 333.95 160.347 337.349 155.863C346.364 143.939 337.324 127.639 327.207 119.62C316.903 111.437 303.837 107.208 292.119 100.967C275.89 92.3424 257.237 78.2384 246.713 62.8257C235.654 46.6127 234.997 29.535 236.162 10.1031C236.554 3.36087 237.551 -3.35283 239.008 -9.95724" stroke="#A32BFF" stroke-miterlimit="10"/>
</g>
</svg>
