<svg width="17" height="18" viewBox="0 0 17 18" fill="none" xmlns="http://www.w3.org/2000/svg">
<path d="M13.4006 1.90153e-05C12.9276 -0.00156919 12.4591 0.0963456 12.0222 0.288077C11.5853 0.479807 11.1887 0.761533 10.8555 1.11689L0.982211 11.5692C0.855564 11.7035 0.772258 11.8768 0.744198 12.0642L0.0106065 16.9583C-0.0105424 17.0987 3.28669e-05 17.2424 0.0414658 17.3777C0.0828988 17.5129 0.15401 17.6359 0.248973 17.7364C0.343936 17.8369 0.460049 17.9122 0.587796 17.9561C0.715543 18 0.851289 18.0112 0.983911 17.9888L5.61072 17.2121C5.78776 17.1824 5.9514 17.0942 6.07825 16.9601L15.9465 6.50686C16.4499 5.97338 16.7926 5.29381 16.9312 4.5541C17.0698 3.81439 16.998 3.04778 16.725 2.35124C16.4521 1.6547 15.9901 1.05953 15.3976 0.641005C14.805 0.222483 14.1086 -0.000585079 13.3963 1.90153e-05H13.4006ZM5.06669 15.4796L1.87051 16.0196L2.38054 12.6384L9.51244 5.08669L12.2003 7.93242L5.06669 15.4796ZM14.7445 5.23429L13.4014 6.65985L10.711 3.81142L12.0549 2.38946C12.4169 2.02366 12.898 1.81956 13.3984 1.81956C13.8988 1.81956 14.38 2.02366 14.7419 2.38946C14.9185 2.57618 15.0585 2.79792 15.1541 3.04199C15.2497 3.28605 15.2988 3.54767 15.2988 3.81187C15.2988 4.07608 15.2497 4.33769 15.1541 4.58176C15.0585 4.82583 14.9185 5.04756 14.7419 5.23429H14.7445Z" fill="currentColor"/>
</svg>
