<svg width="48" height="48" viewBox="0 0 48 48" fill="none" xmlns="http://www.w3.org/2000/svg">
<g filter="url(#filter0_d_5689_37726)">
<path d="M4 8C4 3.58172 7.58172 0 12 0H36C40.4183 0 44 3.58172 44 8V40H12C7.58172 40 4 36.4183 4 32V8Z" fill="#FF2551"/>
<path d="M20 23.5C20 23.5 21.5 21.75 24 21.75C26.5 21.75 28 23.5 28 23.5M27 17H27.01M21 17H21.01M34 20C34 25.5228 29.5228 30 24 30C18.4771 30 14 25.5228 14 20C14 14.4771 18.4771 10 24 10C29.5228 10 34 14.4771 34 20ZM27.5 17C27.5 17.2761 27.2761 17.5 27 17.5C26.7239 17.5 26.5 17.2761 26.5 17C26.5 16.7239 26.7239 16.5 27 16.5C27.2761 16.5 27.5 16.7239 27.5 17ZM21.5 17C21.5 17.2761 21.2761 17.5 21 17.5C20.7239 17.5 20.5 17.2761 20.5 17C20.5 16.7239 20.7239 16.5 21 16.5C21.2761 16.5 21.5 16.7239 21.5 17Z" stroke="#660F20" stroke-width="2" stroke-linecap="round" stroke-linejoin="round"/>
</g>
<defs>
<filter id="filter0_d_5689_37726" x="0" y="0" width="48" height="48" filterUnits="userSpaceOnUse" color-interpolation-filters="sRGB">
<feFlood flood-opacity="0" result="BackgroundImageFix"/>
<feColorMatrix in="SourceAlpha" type="matrix" values="0 0 0 0 0 0 0 0 0 0 0 0 0 0 0 0 0 0 127 0" result="hardAlpha"/>
<feOffset dy="4"/>
<feGaussianBlur stdDeviation="2"/>
<feComposite in2="hardAlpha" operator="out"/>
<feColorMatrix type="matrix" values="0 0 0 0 0 0 0 0 0 0 0 0 0 0 0 0 0 0 0.25 0"/>
<feBlend mode="normal" in2="BackgroundImageFix" result="effect1_dropShadow_5689_37726"/>
<feBlend mode="normal" in="SourceGraphic" in2="effect1_dropShadow_5689_37726" result="shape"/>
</filter>
</defs>
</svg>
