<svg width="48" height="48" viewBox="0 0 48 48" fill="none" xmlns="http://www.w3.org/2000/svg">
<g filter="url(#filter0_d_5689_30058)">
<path d="M4 8C4 3.58172 7.58172 0 12 0H36C40.4183 0 44 3.58172 44 8V40H12C7.58172 40 4 36.4183 4 32V8Z" fill="#3DC67D"/>
<path d="M19.9995 22C19.9995 22 21.4995 24 23.9995 24C26.4995 24 27.9995 22 27.9995 22M26.9995 17H27.0095M20.9995 17H21.0095M33.9995 20C33.9995 25.5228 29.5223 30 23.9995 30C18.4767 30 13.9995 25.5228 13.9995 20C13.9995 14.4771 18.4767 10 23.9995 10C29.5223 10 33.9995 14.4771 33.9995 20ZM27.4995 17C27.4995 17.2761 27.2756 17.5 26.9995 17.5C26.7234 17.5 26.4995 17.2761 26.4995 17C26.4995 16.7239 26.7234 16.5 26.9995 16.5C27.2756 16.5 27.4995 16.7239 27.4995 17ZM21.4995 17C21.4995 17.2761 21.2757 17.5 20.9995 17.5C20.7234 17.5 20.4995 17.2761 20.4995 17C20.4995 16.7239 20.7234 16.5 20.9995 16.5C21.2757 16.5 21.4995 16.7239 21.4995 17Z" stroke="#184F32" stroke-width="2" stroke-linecap="round" stroke-linejoin="round"/>
</g>
<defs>
<filter id="filter0_d_5689_30058" x="0" y="0" width="48" height="48" filterUnits="userSpaceOnUse" color-interpolation-filters="sRGB">
<feFlood flood-opacity="0" result="BackgroundImageFix"/>
<feColorMatrix in="SourceAlpha" type="matrix" values="0 0 0 0 0 0 0 0 0 0 0 0 0 0 0 0 0 0 127 0" result="hardAlpha"/>
<feOffset dy="4"/>
<feGaussianBlur stdDeviation="2"/>
<feComposite in2="hardAlpha" operator="out"/>
<feColorMatrix type="matrix" values="0 0 0 0 0 0 0 0 0 0 0 0 0 0 0 0 0 0 0.25 0"/>
<feBlend mode="normal" in2="BackgroundImageFix" result="effect1_dropShadow_5689_30058"/>
<feBlend mode="normal" in="SourceGraphic" in2="effect1_dropShadow_5689_30058" result="shape"/>
</filter>
</defs>
</svg>
