<svg width="32" height="32" viewBox="0 0 32 32" fill="none" xmlns="http://www.w3.org/2000/svg">
  <g clip-path="url(#clip0_3438_5106)">
    <path d="M8.27405 6.41016L4.34898 6.42921L4.32993 2.50414" stroke="currentColor" stroke-width="2" stroke-linecap="round" stroke-linejoin="round"/>
    <path d="M4.32996 12.7005C5.44188 14.6222 7.51978 15.915 9.89965 15.915C13.451 15.915 16.33 13.0361 16.33 9.48472C16.33 5.93336 13.451 3.0544 9.89965 3.05441C8.33419 3.05441 6.8994 3.61381 5.78425 4.54362" stroke="currentColor" stroke-width="2" stroke-linecap="round" stroke-linejoin="round"/>
    <path d="M21.8828 22.4962C21.5018 22.0976 21.1593 21.6639 20.8597 21.201C20.3928 20.4761 20.032 19.688 19.7883 18.8609C19.6233 18.9116 19.4825 19.021 19.3927 19.1684C19.3029 19.3158 19.2701 19.491 19.3007 19.6609L19.7409 22.0971C19.8027 22.2891 19.8251 22.4915 19.8069 22.6924C19.7887 22.8932 19.7302 23.0883 19.635 23.2661C19.5114 23.4691 19.3426 23.6408 19.1418 23.7679C18.941 23.895 18.7136 23.9741 18.4772 23.9989C18.0913 23.9683 17.7299 23.7977 17.461 23.5192C17.4073 23.4637 17.2247 23.4803 17.1035 23.57C16.9824 23.6596 16.9928 23.798 16.925 23.9595C16.8237 24.1662 16.6599 24.3357 16.4567 24.4439C16.0874 24.6675 15.6467 24.7422 15.2243 24.6528C15.0482 24.6194 14.8781 24.5597 14.7198 24.4757C14.6636 24.4474 14.6098 24.4147 14.5588 24.3777C14.5084 24.3409 14.4507 24.3153 14.3896 24.3026C14.3285 24.29 14.2653 24.2906 14.2044 24.3044C14.1436 24.3182 14.0863 24.3449 14.0367 24.3827C13.987 24.4205 13.9459 24.4685 13.9164 24.5235C13.8829 24.581 13.8518 24.6293 13.8257 24.666C13.5414 25.0396 13.1278 25.2935 12.6659 25.3778C12.6392 25.3785 12.6102 25.3792 12.5811 25.3775C12.2852 25.3598 11.9992 25.2643 11.7519 25.1008C11.6973 24.9663 11.2195 23.8408 9.99617 23.5202C8.62602 23.1587 7.55944 24.1277 7.43897 24.2441C7.12799 24.5399 6.89183 24.9055 6.74999 25.3106C6.60814 25.7157 6.56468 26.1488 6.62318 26.574L6.59922 26.5492L5.84819 27.3366C6.38835 27.6417 6.90643 27.9843 7.39861 28.362C8.01769 28.8361 8.59324 29.3645 9.11841 29.9409C12.3747 30.4117 15.6972 30.0495 18.7755 28.888L18.7885 28.8754C19.0286 28.7821 19.2456 28.6381 19.4248 28.4531C19.604 28.2681 19.7411 28.0466 19.8267 27.8037C20.1471 26.8969 20.8096 26.1514 21.6724 25.7265C22.5352 25.3016 23.53 25.231 24.4442 25.5297L24.4631 25.5115C24.5518 25.4362 24.6208 25.3403 24.664 25.2323C24.7072 25.1242 24.7232 25.0072 24.7108 24.8915C24.6983 24.7758 24.6577 24.6649 24.5925 24.5685C24.5274 24.4721 24.4396 24.3932 24.3368 24.3385C23.4239 23.8622 22.595 23.2399 21.8828 22.4962ZM7.98882 27.5382C6.82133 26.5332 7.2363 24.4811 9.1677 24.218C9.21444 24.2122 9.26178 24.2134 9.30817 24.2215C11.2232 24.5749 11.5408 26.6455 10.3282 27.5934C9.99099 27.8536 9.57461 27.9901 9.14876 27.98C8.72291 27.97 8.31343 27.814 7.98882 27.5382Z" fill="currentColor"/>
    <path d="M28.7415 12.88C26.4985 17.1599 22.6168 18.8553 21.2737 19.3538C21.5946 19.6912 22.0209 19.909 22.4823 19.9714C22.9437 20.0338 23.4126 19.937 23.8115 19.697C24.0846 19.5321 24.3602 19.3517 24.6384 19.156C26.6002 17.7578 28.2005 15.9123 29.3069 13.7724C29.0819 15.0754 28.6307 16.3291 27.9739 17.4767C27.616 18.0966 25.4685 21.823 22.6802 21.7288L22.5758 21.7223C23.4177 22.6103 24.4471 23.2994 25.589 23.7392C27.4068 22.0646 28.8426 20.0182 29.7988 17.7391C31.7768 12.9912 31.0493 8.60813 30.4922 6.48586C30.4835 6.46108 30.4664 6.4401 30.4439 6.42651C30.4214 6.41293 30.3949 6.40759 30.3689 6.41139C30.3429 6.4152 30.319 6.42793 30.3014 6.44739C30.2837 6.46685 30.2734 6.49185 30.2721 6.51809C30.2889 8.73188 29.7634 10.9161 28.7415 12.88Z" fill="currentColor"/>
  </g>
  <defs>
    <clipPath id="clip0_3438_5106">
      <rect width="32" height="32" fill="white"/>
    </clipPath>
  </defs>
</svg>
