<svg width="48" height="48" viewBox="0 0 48 48" fill="none" xmlns="http://www.w3.org/2000/svg">
<g filter="url(#filter0_d_5689_30228)">
<path d="M4 8C4 3.58172 7.58172 0 12 0H36C40.4183 0 44 3.58172 44 8V40H12C7.58172 40 4 36.4183 4 32V8Z" fill="#FFC700"/>
<g clip-path="url(#clip0_5689_30228)">
<path d="M18.2056 12.8076L15.2618 12.8219L15.2475 9.8781" stroke="#665000" stroke-width="2" stroke-linecap="round" stroke-linejoin="round"/>
<path d="M15.2476 17.5256C16.0815 18.9669 17.6399 19.9365 19.4248 19.9365C22.0884 19.9365 24.2476 17.7773 24.2476 15.1138C24.2476 12.4503 22.0884 10.291 19.4248 10.291C18.2507 10.291 17.1746 10.7106 16.3383 11.408" stroke="#665000" stroke-width="2" stroke-linecap="round" stroke-linejoin="round"/>
<path d="M28.412 24.8724C28.1263 24.5734 27.8693 24.2482 27.6446 23.901C27.2945 23.3573 27.0239 22.7663 26.8411 22.1459C26.7173 22.1839 26.6118 22.266 26.5444 22.3765C26.477 22.4871 26.4525 22.6185 26.4754 22.7459L26.8056 24.5731C26.8519 24.7171 26.8687 24.8689 26.8551 25.0195C26.8414 25.1702 26.7976 25.3165 26.7261 25.4498C26.6334 25.6021 26.5069 25.7309 26.3562 25.8262C26.2056 25.9215 26.035 25.9808 25.8578 25.9994C25.5683 25.9765 25.2973 25.8485 25.0956 25.6396C25.0554 25.598 24.9184 25.6105 24.8275 25.6777C24.7367 25.745 24.7445 25.8488 24.6936 25.9699C24.6177 26.1249 24.4948 26.252 24.3424 26.3332C24.0654 26.5009 23.7349 26.5569 23.4181 26.4898C23.286 26.4648 23.1585 26.42 23.0397 26.357C22.9976 26.3358 22.9572 26.3112 22.919 26.2835C22.8812 26.2559 22.8379 26.2367 22.7921 26.2272C22.7462 26.2177 22.6989 26.2182 22.6532 26.2286C22.6075 26.2389 22.5646 26.2589 22.5274 26.2873C22.4901 26.3156 22.4593 26.3516 22.4372 26.3929C22.412 26.436 22.3888 26.4722 22.3691 26.4997C22.1559 26.7799 21.8457 26.9704 21.4993 27.0336C21.4793 27.0341 21.4575 27.0346 21.4357 27.0334C21.2138 27.0201 20.9993 26.9485 20.8138 26.8259C20.7729 26.725 20.4145 25.8809 19.497 25.6404C18.4694 25.3693 17.6695 26.096 17.5791 26.1833C17.3459 26.4052 17.1688 26.6794 17.0624 26.9832C16.956 27.287 16.9234 27.6118 16.9673 27.9307L16.9493 27.9121L16.386 28.5027C16.7911 28.7315 17.1797 28.9885 17.5488 29.2717C18.0131 29.6273 18.4448 30.0236 18.8387 30.4559C21.2809 30.809 23.7728 30.5373 26.0815 29.6662L26.0913 29.6568C26.2713 29.5869 26.4341 29.4788 26.5685 29.3401C26.7029 29.2014 26.8057 29.0352 26.8699 28.853C27.1102 28.1729 27.607 27.6138 28.2542 27.2951C28.9013 26.9764 29.6474 26.9235 30.333 27.1475L30.3472 27.1338C30.4137 27.0774 30.4655 27.0055 30.4979 26.9245C30.5302 26.8434 30.5423 26.7557 30.533 26.6689C30.5236 26.5821 30.4932 26.499 30.4443 26.4267C30.3954 26.3544 30.3295 26.2951 30.2525 26.2541C29.5678 25.8969 28.9461 25.4302 28.412 24.8724ZM17.9915 28.6539C17.1159 27.9002 17.4271 26.361 18.8756 26.1637C18.9107 26.1594 18.9462 26.1603 18.981 26.1664C20.4173 26.4314 20.6555 27.9843 19.7461 28.6953C19.4931 28.8904 19.1808 28.9928 18.8614 28.9853C18.5421 28.9777 18.2349 28.8607 17.9915 28.6539Z" fill="#665000"/>
<path d="M33.5561 17.66C31.8738 20.8699 28.9626 22.1415 27.9553 22.5154C28.1959 22.7684 28.5157 22.9318 28.8617 22.9786C29.2077 23.0254 29.5594 22.9528 29.8586 22.7727C30.0634 22.6491 30.2701 22.5138 30.4788 22.367C31.9501 21.3183 33.1504 19.9342 33.9802 18.3293C33.8114 19.3066 33.473 20.2468 32.9804 21.1075C32.712 21.5725 31.1013 24.3672 29.0102 24.2966L28.9318 24.2917C29.5632 24.9578 30.3353 25.4745 31.1917 25.8044C32.555 24.5485 33.6319 23.0136 34.349 21.3043C35.8326 17.7434 35.287 14.4561 34.8691 12.8644C34.8626 12.8458 34.8498 12.8301 34.8329 12.8199C34.816 12.8097 34.7961 12.8057 34.7766 12.8085C34.7571 12.8114 34.7392 12.8209 34.726 12.8355C34.7128 12.8501 34.705 12.8689 34.7041 12.8886C34.7167 14.5489 34.3225 16.1871 33.5561 17.66Z" fill="#665000"/>
</g>
</g>
<defs>
<filter id="filter0_d_5689_30228" x="0" y="0" width="48" height="48" filterUnits="userSpaceOnUse" color-interpolation-filters="sRGB">
<feFlood flood-opacity="0" result="BackgroundImageFix"/>
<feColorMatrix in="SourceAlpha" type="matrix" values="0 0 0 0 0 0 0 0 0 0 0 0 0 0 0 0 0 0 127 0" result="hardAlpha"/>
<feOffset dy="4"/>
<feGaussianBlur stdDeviation="2"/>
<feComposite in2="hardAlpha" operator="out"/>
<feColorMatrix type="matrix" values="0 0 0 0 0 0 0 0 0 0 0 0 0 0 0 0 0 0 0.25 0"/>
<feBlend mode="normal" in2="BackgroundImageFix" result="effect1_dropShadow_5689_30228"/>
<feBlend mode="normal" in="SourceGraphic" in2="effect1_dropShadow_5689_30228" result="shape"/>
</filter>
<clipPath id="clip0_5689_30228">
<rect width="24" height="24" fill="white" transform="translate(12 8)"/>
</clipPath>
</defs>
</svg>
