<svg xmlns="http://www.w3.org/2000/svg" width="100" height="100" viewBox="0 0 100 100" fill="none">
  <path
    fill-rule="evenodd"
    clip-rule="evenodd"
    d="M39.9684 13.3345C38.9537 14.1992 38.4463 14.6316 37.9045 14.9948C36.6624 15.8273 35.2674 16.405 33.8005 16.6947C33.1605 16.821 32.496 16.874 31.1671 16.9801C27.828 17.2466 26.1584 17.3798 24.7655 17.8718C21.5438 19.0097 19.0098 21.5438 17.8718 24.7655C17.3798 26.1583 17.2466 27.8279 16.9801 31.167C16.8741 32.496 16.8211 33.1605 16.6947 33.8004C16.4051 35.2674 15.8273 36.6623 14.9948 37.9044C14.6316 38.4463 14.1993 38.9536 13.3345 39.9683C11.1618 42.5179 10.0755 43.7925 9.43847 45.1254C7.96501 48.2083 7.96501 51.7917 9.43847 54.8746C10.0755 56.2075 11.1618 57.4821 13.3345 60.0317C14.1991 61.0463 14.6316 61.5538 14.9948 62.0954C15.8273 63.3375 16.4051 64.7325 16.6947 66.1996C16.8211 66.8396 16.8741 67.5042 16.9801 68.8329C17.2466 72.1721 17.3798 73.8417 17.8718 75.2346C19.0098 78.4563 21.5438 80.9904 24.7655 82.1283C26.1584 82.62 27.828 82.7533 31.1671 83.02C32.496 83.1258 33.1605 83.1792 33.8005 83.3054C35.2674 83.595 36.6624 84.1729 37.9045 85.0054C38.4463 85.3683 38.9537 85.8008 39.9684 86.6654C42.518 88.8383 43.7926 89.9246 45.1255 90.5617C48.2084 92.035 51.7917 92.035 54.8746 90.5617C56.2076 89.9246 57.4821 88.8383 60.0317 86.6654C61.0463 85.8008 61.5538 85.3683 62.0955 85.0054C63.3376 84.1729 64.7326 83.595 66.1996 83.3054C66.8396 83.1792 67.5042 83.1258 68.833 83.02C72.1721 82.7533 73.8417 82.62 75.2346 82.1283C78.4563 80.9904 80.9905 78.4563 82.1284 75.2346C82.6201 73.8417 82.7534 72.1721 83.0201 68.8329C83.1259 67.5042 83.1792 66.8396 83.3055 66.1996C83.5951 64.7325 84.173 63.3375 85.0055 62.0954C85.3684 61.5538 85.8009 61.0463 86.6655 60.0317C88.8384 57.4821 89.9246 56.2075 90.5617 54.8746C92.0351 51.7917 92.0351 48.2083 90.5617 45.1254C89.9246 43.7925 88.8384 42.5179 86.6655 39.9683C85.8009 38.9536 85.3684 38.4463 85.0055 37.9044C84.173 36.6623 83.5951 35.2674 83.3055 33.8004C83.1792 33.1605 83.1259 32.496 83.0201 31.167C82.7534 27.8279 82.6201 26.1583 82.1284 24.7655C80.9905 21.5438 78.4563 19.0097 75.2346 17.8718C73.8417 17.3798 72.1721 17.2466 68.833 16.9801C67.5042 16.874 66.8396 16.821 66.1996 16.6947C64.7326 16.405 63.3376 15.8273 62.0955 14.9948C61.5538 14.6316 61.0463 14.1992 60.0317 13.3345C57.4821 11.1618 56.2076 10.0755 54.8746 9.43842C51.7917 7.96496 48.2084 7.96496 45.1255 9.43842C43.7926 10.0754 42.518 11.1618 39.9684 13.3345ZM68.223 41.0964C69.5471 39.7721 69.5471 37.625 68.223 36.3007C66.8988 34.9764 64.7513 34.9764 63.4271 36.3007L43.218 56.51L36.5728 49.865C35.2485 48.5408 33.1014 48.5408 31.7771 49.865C30.4528 51.1892 30.4528 53.3363 31.7771 54.6608L40.82 63.7038C42.1442 65.0279 44.2913 65.0279 45.6159 63.7038L68.223 41.0964Z"
    fill="#0D91EC"
  />
</svg>
