<svg xmlns="http://www.w3.org/2000/svg" width="24" height="24" viewBox="0 0 24 24" fill="none">
  <path d="M20.4155 11.7031L16.4691 5.28657C16.416 5.19955 16.3397 5.1273 16.248 5.07701C16.1563 5.02673 16.0523 5.00018 15.9464 5H8.05356C7.94767 5.00018 7.84368 5.02673 7.75197 5.07701C7.66026 5.1273 7.58402 5.19955 7.53086 5.28657L3.58453 11.7031C3.52917 11.7932 3.5 11.8957 3.5 12C3.5 12.1043 3.52917 12.2068 3.58453 12.2969L7.53086 18.7134C7.58402 18.8004 7.66026 18.8727 7.75197 18.923C7.84368 18.9733 7.94767 18.9998 8.05356 19H15.9464C16.0523 18.9998 16.1563 18.9733 16.248 18.923C16.3397 18.8727 16.416 18.8004 16.4691 18.7134L20.4155 12.2969C20.4708 12.2068 20.5 12.1043 20.5 12C20.5 11.8957 20.4708 11.7932 20.4155 11.7031ZM11.3625 8.32981C11.3625 7.97773 11.6479 7.69231 12 7.69231C12.3521 7.69231 12.6375 7.97773 12.6375 8.32981V12.9779C12.6375 13.33 12.3521 13.6154 12 13.6154C11.6479 13.6154 11.3625 13.33 11.3625 12.9779V8.32981ZM12 16.8462C11.8319 16.8462 11.6675 16.7988 11.5278 16.71C11.388 16.6213 11.279 16.4951 11.2147 16.3476C11.1504 16.2 11.1335 16.0376 11.1663 15.8809C11.1991 15.7242 11.2801 15.5803 11.399 15.4673C11.5178 15.3544 11.6693 15.2775 11.8342 15.2463C11.9991 15.2151 12.17 15.2311 12.3253 15.2923C12.4806 15.3534 12.6134 15.4569 12.7067 15.5897C12.8001 15.7226 12.85 15.8787 12.85 16.0385C12.85 16.2527 12.7604 16.4581 12.601 16.6096C12.4416 16.7611 12.2254 16.8462 12 16.8462Z" fill="currentColor"/>
</svg>
