<svg xmlns="http://www.w3.org/2000/svg" width="16" height="16" viewBox="0 0 16 16" fill="none">
  <g clip-path="url(#clip0_2656_9799)">
    <path
      fill-rule="evenodd"
      clip-rule="evenodd"
      d="M7.04628 4.6432C7.14588 4.3133 7.19943 3.96343 7.19943 3.60104C7.19943 3.59857 7.19943 3.5961 7.19942 3.59363L11.3387 5.77238L13.5594 4.66238C13.4394 4.54504 13.2921 4.42838 13.1041 4.30238C12.7221 4.04772 12.2121 3.77905 11.4854 3.39838L10.1521 2.69838C9.55875 2.38705 9.14339 2.16972 8.79811 2.02705C8.46211 1.88772 8.22611 1.83438 7.99943 1.83438C7.77343 1.83438 7.53676 1.88772 7.20076 2.02705C7.10645 2.066 7.00688 2.11053 6.89987 2.16102C6.76411 1.85033 6.58577 1.56249 6.37222 1.30489C6.53058 1.22818 6.6787 1.16041 6.81876 1.10238C7.22476 0.934381 7.59609 0.834381 7.99943 0.834381C8.40275 0.834381 8.77339 0.934381 9.18011 1.10238C9.57275 1.26505 10.0287 1.50438 10.5961 1.80238L11.9747 2.52572C12.6714 2.89105 13.2287 3.18372 13.6587 3.47105C14.1054 3.76904 14.4487 4.08238 14.6987 4.50704C14.9474 4.93038 15.0601 5.38838 15.1141 5.93504C15.1661 6.46503 15.1661 7.11634 15.1661 7.93564V8.0664C15.1661 8.88568 15.1661 9.53705 15.1141 10.067C15.0601 10.613 14.9481 11.0717 14.6987 11.495C14.4487 11.9197 14.1054 12.233 13.6587 12.531C13.2281 12.8184 12.6714 13.111 11.9747 13.477L10.5961 14.1997C10.0287 14.4977 9.57275 14.737 9.18011 14.8997C8.77411 15.0677 8.40275 15.1677 7.99943 15.1677C7.59609 15.1677 7.22543 15.0677 6.81876 14.8997C6.42609 14.737 5.97009 14.4977 5.40276 14.1997L4.02409 13.4764C3.32743 13.111 2.77009 12.8184 2.34009 12.531C1.89343 12.233 1.55009 11.9197 1.30009 11.495C1.05143 11.0717 0.938764 10.6137 0.884764 10.067C0.832764 9.53705 0.832764 8.88568 0.832764 8.06568V7.93638C0.832764 7.1305 0.832764 6.48753 0.882124 5.96253C1.15363 6.27468 1.47803 6.5396 1.84137 6.74332C1.83297 7.08558 1.83276 7.48447 1.83276 7.96172V8.03968C1.83276 8.89168 1.83276 9.49368 1.88009 9.96904C1.92609 10.4337 2.01343 10.7344 2.16209 10.9877C2.31009 11.239 2.52409 11.4517 2.89543 11.6997C3.27676 11.9544 3.78676 12.223 4.51343 12.6037L5.84676 13.3037C6.44009 13.615 6.85543 13.8324 7.20076 13.975C7.3092 14.0199 7.40876 14.0566 7.49943 14.085V8.30969L4.84183 6.98091C5.22344 6.84059 5.57472 6.63748 5.88314 6.38411L7.99943 7.44238L10.2374 6.32238L7.04628 4.6432ZM8.79811 13.975C8.68963 14.0199 8.59011 14.0564 8.49939 14.0844V8.3104L10.8327 7.14372V8.66769C10.8327 8.80033 10.8855 8.92752 10.9792 9.02129C11.073 9.11504 11.2002 9.16769 11.3327 9.16769C11.4654 9.16769 11.5925 9.11504 11.6863 9.02129C11.7801 8.92752 11.8327 8.80033 11.8327 8.66769V6.64304L14.0407 5.53971C14.077 5.70237 14.1031 5.86714 14.1187 6.03304C14.1661 6.50836 14.1661 7.11034 14.1661 7.9623V8.0404C14.1661 8.89168 14.1655 9.49368 14.1187 9.96904C14.0727 10.4344 13.9861 10.7344 13.8374 10.9877C13.6887 11.239 13.4747 11.4517 13.1041 11.6997C12.7221 11.9544 12.2121 12.2224 11.4854 12.6037L10.1521 13.3037C9.55875 13.615 9.14339 13.8324 8.79811 13.975Z"
      fill="#A9B2B9"
    />
    <path
      d="M0.800049 2.8H5.46671M0.800049 2.8L2.80005 0.800003M0.800049 2.8L2.80005 4.8"
      stroke="#A9B2B9"
      stroke-linecap="round"
      stroke-linejoin="round"
    />
  </g>
  <defs>
    <clipPath id="clip0_2656_9799">
      <rect width="16" height="16" fill="white" />
    </clipPath>
  </defs>
</svg>
