<svg width="100" height="100" viewBox="0 0 100 100" fill="none" xmlns="http://www.w3.org/2000/svg">
<path fill-rule="evenodd" clip-rule="evenodd" d="M50.5834 3.0957C25.0163 3.0957 4.28711 21.2352 4.28711 43.605C4.28711 56.3914 11.0724 67.7774 21.6482 75.1993V90.3588C21.6482 92.6974 24.2052 94.1367 26.2045 92.9236L41.9289 83.3822C44.7356 83.8452 47.6233 84.1142 50.5834 84.1142C76.1505 84.1142 96.8797 65.9776 96.8797 43.605C96.8797 21.2352 76.1505 3.0957 50.5834 3.0957Z" fill="#0D91EC"/>
<path d="M24.691 53.1876C24.691 54.2799 23.9931 54.9778 22.9765 54.9778C21.96 54.9778 21.2621 54.2799 21.2621 53.1876V48.1353H16.6196C15.5272 48.1353 14.8293 47.4678 14.8293 46.4513C14.8293 45.4499 15.5272 44.7672 16.6196 44.7672H21.2621V39.9274C21.2621 38.8502 21.9449 38.1371 22.9765 38.1371C23.9931 38.1371 24.691 38.8502 24.691 39.9274V44.7672H29.3942C30.5018 44.7672 31.1997 45.4348 31.1997 46.4513C31.1997 47.4678 30.5018 48.1353 29.3942 48.1353H24.691V53.1876Z" fill="#1B252B"/>
<path d="M38.3911 52.8083C38.3911 54.2041 37.6477 55.0233 36.3581 55.0233C35.0533 55.0233 34.2947 54.2041 34.2947 52.8083V37.2875C34.2947 35.1331 35.2354 34.1621 37.3898 34.1621H42.6847C47.1149 34.1621 49.861 36.5896 49.861 40.5039C49.861 43.1286 48.5107 45.2224 46.2046 46.1934L49.2086 51.7007C49.4362 52.1104 49.5727 52.6262 49.5727 53.0662C49.5727 54.1737 48.7079 54.9627 47.5397 54.9627C46.4625 54.9627 45.886 54.5075 45.2032 53.1724L42.1537 47.1644H38.3911V52.8083ZM38.3911 44.0996H42.093C44.4143 44.0996 45.7494 42.9466 45.7494 40.8225C45.7494 38.7137 44.3991 37.5151 42.1385 37.5151H38.3911V44.0996Z" fill="#1B252B"/>
<path d="M53.4415 52.2469V36.7868C53.4415 35.0421 54.3367 34.1621 56.1725 34.1621H65.3362C66.3679 34.1621 67.0658 34.8448 67.0658 35.8462C67.0658 36.8475 66.3679 37.5151 65.3362 37.5151H57.5076V42.8252H64.9114C65.8824 42.8252 66.5348 43.4473 66.5348 44.4031C66.5348 45.3589 65.8824 45.9658 64.9114 45.9658H57.5076V51.5187H65.2907C66.3679 51.5187 67.0658 52.1862 67.0658 53.2027C67.0658 54.2192 66.3679 54.8716 65.2907 54.8716H56.1725C54.3367 54.8716 53.4415 54.0068 53.4415 52.2469Z" fill="#1B252B"/>
<path d="M72.5884 55.0233C71.2988 55.0233 70.5553 54.2041 70.5553 52.8083V37.151C70.5553 34.9966 71.3746 34.1621 73.5138 34.1621H78.7481C83.0569 34.1621 85.8334 36.8627 85.8334 40.9591C85.8334 45.2375 83.0266 47.7712 78.5812 47.7712H74.6517V52.8083C74.6517 54.2041 73.8931 55.0233 72.5884 55.0233ZM74.6517 44.5851H77.2765C80.4625 44.5851 81.7521 43.6597 81.7521 41.0198C81.7521 38.744 80.4777 37.4392 78.2323 37.4392H74.6517V44.5851Z" fill="#1B252B"/>
</svg>
