<svg xmlns="http://www.w3.org/2000/svg" width="24" height="24" viewBox="0 0 24 24" fill="none">
  <path d="M5 5.36719C9.27372 3.49411 14.8821 3.59606 19 5.36719V14.1611C18.9995 18.0612 12.0285 20.988 12 21C11.9715 20.9881 5.00047 18.0612 5 14.1611V5.36719ZM15.4424 11.5576C15.1983 11.3137 14.8017 11.3137 14.5576 11.5576L12 14.1152L9.44238 11.5576C9.19834 11.3137 8.80166 11.3137 8.55762 11.5576C8.31358 11.8017 8.31366 12.1983 8.55762 12.4424L11.5576 15.4424C11.6748 15.5596 11.8342 15.625 12 15.625C12.1658 15.625 12.3252 15.5596 12.4424 15.4424L15.4424 12.4424C15.6863 12.1983 15.6864 11.8017 15.4424 11.5576ZM15.4424 7.55762C15.1983 7.3137 14.8017 7.3137 14.5576 7.55762L12 10.1152L9.44238 7.55762C9.19834 7.3137 8.80166 7.3137 8.55762 7.55762C8.31358 7.80165 8.31366 8.1983 8.55762 8.44238L11.5576 11.4424C11.6748 11.5596 11.8342 11.625 12 11.625C12.1658 11.625 12.3252 11.5596 12.4424 11.4424L15.4424 8.44238C15.6863 8.1983 15.6864 7.80165 15.4424 7.55762Z" fill="currentColor"/>
</svg>
