<svg xmlns="http://www.w3.org/2000/svg" width="20" height="20" viewBox="0 0 20 20" fill="none">
  <path d="M3 3.36719C7.27371 1.49412 12.8821 1.59607 17 3.36719V12.1611C16.9997 16.0593 10.0356 18.9851 10 19C9.9644 18.9851 3.0003 16.0593 3 12.1611V3.36719ZM10 9.375C9.83433 9.375 9.67481 9.44053 9.55762 9.55762L7.05762 12.0576C6.8136 12.3016 6.81373 12.6983 7.05762 12.9424C7.30169 13.1865 7.69831 13.1865 7.94238 12.9424L10 10.8848L12.0576 12.9424C12.3017 13.1865 12.6983 13.1865 12.9424 12.9424C13.1863 12.6983 13.1864 12.3016 12.9424 12.0576L10.4424 9.55762C10.3252 9.44053 10.1657 9.375 10 9.375ZM10 6.04199C9.83425 6.04199 9.67482 6.10742 9.55762 6.22461L7.05762 8.72461C6.81355 8.96868 6.81357 9.36529 7.05762 9.60938C7.30169 9.85345 7.69831 9.85345 7.94238 9.60938L10 7.55176L12.0576 9.60938C12.3017 9.85345 12.6983 9.85345 12.9424 9.60938C13.1864 9.36529 13.1865 8.96868 12.9424 8.72461L10.4424 6.22461C10.3252 6.10742 10.1657 6.04199 10 6.04199Z" fill="currentColor"/>
</svg>
