<svg width="16" height="16" viewBox="0 0 16 16" fill="none" xmlns="http://www.w3.org/2000/svg">
<path fill-rule="evenodd" clip-rule="evenodd" d="M6.07392 0.960218C5.8791 1.12624 5.78169 1.20927 5.67765 1.27899C5.43917 1.43883 5.17134 1.54977 4.88968 1.60538C4.76681 1.62964 4.63923 1.63982 4.38407 1.66018C3.74296 1.71135 3.4224 1.73692 3.15497 1.83139C2.53641 2.04987 2.04987 2.53641 1.83139 3.15497C1.73692 3.4224 1.71135 3.74296 1.66018 4.38407C1.63982 4.63923 1.62964 4.76681 1.60538 4.88968C1.54977 5.17134 1.43883 5.43917 1.27899 5.67765C1.20927 5.78169 1.12625 5.8791 0.960218 6.07392C0.543066 6.56344 0.334482 6.80816 0.212178 7.06408C-0.070726 7.656 -0.070726 8.344 0.212178 8.93592C0.33449 9.19184 0.543066 9.43656 0.960218 9.92608C1.12623 10.1209 1.20927 10.2183 1.27899 10.3223C1.43883 10.5608 1.54977 10.8286 1.60538 11.1103C1.62964 11.2332 1.63982 11.3608 1.66018 11.6159C1.71135 12.257 1.73692 12.5776 1.83139 12.845C2.04987 13.4636 2.53641 13.9502 3.15497 14.1686C3.4224 14.263 3.74296 14.2886 4.38407 14.3398C4.63923 14.3602 4.76681 14.3704 4.88968 14.3946C5.17134 14.4502 5.43917 14.5612 5.67765 14.721C5.78169 14.7907 5.8791 14.8738 6.07392 15.0398C6.56344 15.457 6.80816 15.6655 7.06408 15.7878C7.656 16.0707 8.344 16.0707 8.93592 15.7878C9.19184 15.6655 9.43656 15.457 9.92608 15.0398C10.1209 14.8738 10.2183 14.7907 10.3223 14.721C10.5608 14.5612 10.8286 14.4502 11.1103 14.3946C11.2332 14.3704 11.3608 14.3602 11.6159 14.3398C12.257 14.2886 12.5776 14.263 12.845 14.1686C13.4636 13.9502 13.9502 13.4636 14.1686 12.845C14.263 12.5776 14.2886 12.257 14.3398 11.6159C14.3602 11.3608 14.3704 11.2332 14.3946 11.1103C14.4502 10.8286 14.5612 10.5608 14.721 10.3223C14.7907 10.2183 14.8738 10.1209 15.0398 9.92608C15.457 9.43656 15.6655 9.19184 15.7878 8.93592C16.0707 8.344 16.0707 7.656 15.7878 7.06408C15.6655 6.80816 15.457 6.56344 15.0398 6.07392C14.8738 5.8791 14.7907 5.78169 14.721 5.67765C14.5612 5.43917 14.4502 5.17134 14.3946 4.88968C14.3704 4.76681 14.3602 4.63923 14.3398 4.38407C14.2886 3.74296 14.263 3.4224 14.1686 3.15497C13.9502 2.53641 13.4636 2.04987 12.845 1.83139C12.5776 1.73692 12.257 1.71135 11.6159 1.66018C11.3608 1.63982 11.2332 1.62964 11.1103 1.60538C10.8286 1.54977 10.5608 1.43883 10.3223 1.27899C10.2183 1.20927 10.1209 1.12625 9.92608 0.960218C9.43656 0.543066 9.19184 0.33449 8.93592 0.212178C8.344 -0.070726 7.656 -0.070726 7.06408 0.212178C6.80816 0.334482 6.56344 0.543066 6.07392 0.960218ZM11.4988 6.29051C11.753 6.03624 11.753 5.624 11.4988 5.36973C11.2446 5.11547 10.8322 5.11547 10.578 5.36973L6.69784 9.24992L5.42197 7.97408C5.16771 7.71984 4.75546 7.71984 4.50119 7.97408C4.24693 8.22832 4.24693 8.64056 4.50119 8.89488L6.23742 10.6311C6.49168 10.8854 6.90392 10.8854 7.15824 10.6311L11.4988 6.29051Z" fill="#0D91EC"/>
</svg>
