<svg xmlns="http://www.w3.org/2000/svg" width="22" height="16" viewBox="0 0 22 16" fill="none">
<path d="M7.49199 12.4313L19.4982 0.425C19.7816 0.141667 20.1121 0 20.4899 0C20.8677 0 21.1982 0.141667 21.4816 0.425C21.7649 0.708334 21.9066 1.04503 21.9066 1.43508C21.9066 1.82514 21.7649 2.16136 21.4816 2.44375L8.48365 15.4771C8.20032 15.7604 7.86976 15.9021 7.49199 15.9021C7.11421 15.9021 6.78365 15.7604 6.50032 15.4771L0.408654 9.38542C0.125321 9.10208 -0.0106795 8.76586 0.000653846 8.37675C0.0119872 7.98764 0.159792 7.65094 0.44407 7.36667C0.728348 7.08239 1.06504 6.94072 1.45415 6.94167C1.84326 6.94261 2.17949 7.08428 2.46282 7.36667L7.49199 12.4313Z" fill="#0D91EC"/>
</svg>
