<svg width="16" height="12" viewBox="0 0 14 13" fill="none" xmlns="http://www.w3.org/2000/svg">
<path d="M7.00004 12.6669L6.03337 11.8003C4.91115 10.7892 3.98337 9.91693 3.25004 9.18359C2.51671 8.45026 1.93337 7.79193 1.50004 7.20859C1.06671 6.62526 0.76393 6.08915 0.591707 5.60026C0.419485 5.11137 0.333374 4.61137 0.333374 4.10026C0.333374 3.05582 0.683374 2.18359 1.38337 1.48359C2.08337 0.783594 2.9556 0.433594 4.00004 0.433594C4.57782 0.433594 5.12782 0.555816 5.65004 0.80026C6.17226 1.0447 6.62226 1.38915 7.00004 1.83359C7.37782 1.38915 7.82782 1.0447 8.35004 0.80026C8.87226 0.555816 9.42226 0.433594 10 0.433594C11.0445 0.433594 11.9167 0.783594 12.6167 1.48359C13.3167 2.18359 13.6667 3.05582 13.6667 4.10026C13.6667 4.61137 13.5806 5.11137 13.4084 5.60026C13.2362 6.08915 12.9334 6.62526 12.5 7.20859C12.0667 7.79193 11.4834 8.45026 10.75 9.18359C10.0167 9.91693 9.08893 10.7892 7.96671 11.8003L7.00004 12.6669ZM7.00004 10.8669C8.06671 9.91137 8.94448 9.09193 9.63337 8.40859C10.3223 7.72526 10.8667 7.13082 11.2667 6.62526C11.6667 6.11971 11.9445 5.6697 12.1 5.27526C12.2556 4.88082 12.3334 4.48915 12.3334 4.10026C12.3334 3.43359 12.1112 2.87804 11.6667 2.43359C11.2223 1.98915 10.6667 1.76693 10 1.76693C9.47782 1.76693 8.99448 1.91415 8.55004 2.20859C8.1056 2.50304 7.80004 2.87804 7.63337 3.33359H6.36671C6.20004 2.87804 5.89448 2.50304 5.45004 2.20859C5.0056 1.91415 4.52226 1.76693 4.00004 1.76693C3.33337 1.76693 2.77782 1.98915 2.33337 2.43359C1.88893 2.87804 1.66671 3.43359 1.66671 4.10026C1.66671 4.48915 1.74449 4.88082 1.90004 5.27526C2.0556 5.6697 2.33337 6.11971 2.73337 6.62526C3.13337 7.13082 3.67782 7.72526 4.36671 8.40859C5.0556 9.09193 5.93337 9.91137 7.00004 10.8669Z" fill="white"/>
</svg>
