<svg width="16" height="12" viewBox="0 0 16 12" fill="none" xmlns="http://www.w3.org/2000/svg">
<path d="M7.33329 12L5.21663 10.1C4.41663 9.37778 3.73052 8.73333 3.15829 8.16667C2.58607 7.6 2.11385 7.06667 1.74163 6.56667C1.3694 6.06667 1.09718 5.58333 0.924959 5.11667C0.752737 4.65 0.666626 4.16111 0.666626 3.65C0.666626 2.60556 1.01663 1.73611 1.71663 1.04167C2.41663 0.347222 3.28885 0 4.33329 0C4.91107 0 5.46107 0.122222 5.98329 0.366667C6.50552 0.611111 6.95552 0.955556 7.33329 1.4C7.71107 0.955556 8.16107 0.611111 8.68329 0.366667C9.20551 0.122222 9.75552 0 10.3333 0C11.2666 0 12.1166 0.327778 12.8833 0.983333C13.65 1.63889 14.0333 2.52778 14.0333 3.65C14.0333 3.80556 14.0222 3.96944 14 4.14167C13.9777 4.31389 13.9444 4.48889 13.9 4.66667H12.4833C12.5388 4.46667 12.5833 4.27778 12.6166 4.1C12.65 3.92222 12.6666 3.75556 12.6666 3.6C12.6666 2.76667 12.3888 2.18056 11.8333 1.84167C11.2777 1.50278 10.7777 1.33333 10.3333 1.33333C9.76663 1.33333 9.27774 1.48611 8.86663 1.79167C8.45552 2.09722 8.07218 2.5 7.71663 3H6.94996C6.60552 2.5 6.21385 2.09722 5.77496 1.79167C5.33607 1.48611 4.85552 1.33333 4.33329 1.33333C3.69996 1.33333 3.15274 1.55278 2.69163 1.99167C2.23052 2.43056 1.99996 2.98333 1.99996 3.65C1.99996 4.01667 2.07774 4.38889 2.23329 4.76667C2.38885 5.14444 2.66663 5.58056 3.06663 6.075C3.46663 6.56944 4.01107 7.14722 4.69996 7.80833C5.38885 8.46945 6.26663 9.26667 7.33329 10.2C7.62218 9.94444 7.96107 9.65 8.34996 9.31667C8.73885 8.98333 9.04996 8.70556 9.28329 8.48333L9.43329 8.63333L9.75829 8.95833L10.0833 9.28333L10.2333 9.43333C9.98885 9.65556 9.67774 9.93056 9.29996 10.2583C8.92218 10.5861 8.58885 10.8778 8.29996 11.1333L7.33329 12ZM9.99996 7.33333V6H15.3333V7.33333H9.99996Z" fill="white"/>
</svg>
