<svg xmlns="http://www.w3.org/2000/svg" width="20" height="20" viewBox="0 0 20 20" fill="none">
  <path d="M9.23828 7.07113C9.97492 7.07117 10.7784 7.31423 11.3509 7.88656C11.6763 8.21199 11.6763 8.74032 11.3509 9.06576C11.0255 9.39088 10.4979 9.39101 10.1725 9.06576C9.98325 8.87648 9.64423 8.73783 9.23828 8.73779C8.83225 8.73779 8.49253 8.87645 8.30322 9.06576L4.49382 12.8752C4.30463 13.0645 4.16669 13.4036 4.16667 13.8094C4.16667 14.2154 4.30451 14.5552 4.49382 14.7445L5.25553 15.5062C5.44484 15.6955 5.78456 15.8333 6.19059 15.8333C6.59643 15.8333 6.93551 15.6954 7.12484 15.5062L8.64909 13.9819C8.97453 13.6568 9.50211 13.6566 9.82747 13.9819C10.1528 14.3073 10.1527 14.8349 9.82747 15.1603L8.30322 16.6846C7.73067 17.257 6.9273 17.5 6.19059 17.5C5.45376 17.5 4.64975 17.2572 4.07715 16.6846L3.31543 15.9229C2.74283 15.3503 2.5 14.5462 2.5 13.8094C2.50003 13.0727 2.743 12.2693 3.31543 11.6968L7.12484 7.88656C7.69743 7.31403 8.50149 7.07113 9.23828 7.07113ZM13.8094 2.5C14.5462 2.5 15.3503 2.74283 15.9229 3.31543L16.6846 4.07715C17.2572 4.64975 17.5 5.45376 17.5 6.19059C17.5 6.9273 17.257 7.73067 16.6846 8.30322L12.8752 12.1134C12.3026 12.686 11.4985 12.9289 10.7617 12.9289C10.0251 12.9288 9.22162 12.6858 8.64909 12.1134C8.32365 11.788 8.32365 11.2597 8.64909 10.9342C8.97452 10.6091 9.50212 10.609 9.82747 10.9342C10.0168 11.1235 10.3558 11.2622 10.7617 11.2622C11.1677 11.2622 11.5075 11.1236 11.6968 10.9342L15.5062 7.12484C15.6954 6.93551 15.8333 6.59643 15.8333 6.19059C15.8333 5.78456 15.6955 5.44484 15.5062 5.25553L14.7445 4.49382C14.5552 4.30451 14.2154 4.16667 13.8094 4.16667C13.4036 4.16669 13.0645 4.30463 12.8752 4.49382L11.3509 6.01807C11.0255 6.34324 10.4979 6.34336 10.1725 6.01807C9.84717 5.69271 9.84733 5.16514 10.1725 4.83968L11.6968 3.31543C12.2693 2.743 13.0727 2.50003 13.8094 2.5Z" fill="#0D91EC"/>
</svg>
