<svg width="48" height="48" viewBox="0 0 48 48" fill="none" xmlns="http://www.w3.org/2000/svg">
<path d="M44 40.14V24.36C44 13.16 35 4 24 4C13 4 4 13.16 4 24.36V40.14C4 42.66 5.49996 43.34 7.33996 41.66L9.33996 39.84C10.08 39.16 11.28 39.16 12.02 39.84L16.02 43.5C16.76 44.18 17.96 44.18 18.7 43.5L22.7 39.84C23.44 39.16 24.64 39.16 25.38 39.84L29.38 43.5C30.12 44.18 31.32 44.18 32.06 43.5L36.06 39.84C36.8 39.16 38 39.16 38.74 39.84L40.74 41.66C42.5 43.34 44 42.66 44 40.14Z" stroke="#00BAD9" stroke-width="3" stroke-linecap="round" stroke-linejoin="round"/>
<path d="M16 28C20.74 31.56 27.26 31.56 32 28" stroke="#00BAD9" stroke-width="3" stroke-linecap="round" stroke-linejoin="round"/>
<path d="M24 22C26.2092 22 28 20.2092 28 18C28 15.7909 26.2092 14 24 14C21.7908 14 20 15.7909 20 18C20 20.2092 21.7908 22 24 22Z" stroke="#00BAD9" stroke-width="3" stroke-linecap="round" stroke-linejoin="round"/>
</svg>
