<svg xmlns="http://www.w3.org/2000/svg" width="20" height="20" viewBox="0 0 20 20" fill="none">
  <g clip-path="url(#clip0_9755_2244)">
    <path d="M14.7085 5.29183C13.5001 4.0835 11.8418 3.3335 10.0001 3.3335C6.3168 3.3335 3.3418 6.31683 3.3418 10.0002C3.3418 13.6835 6.3168 16.6668 10.0001 16.6668C13.1085 16.6668 15.7001 14.5418 16.4418 11.6668H14.7085C14.0251 13.6085 12.1751 15.0002 10.0001 15.0002C7.2418 15.0002 5.00013 12.7585 5.00013 10.0002C5.00013 7.24183 7.2418 5.00016 10.0001 5.00016C11.3835 5.00016 12.6168 5.57516 13.5168 6.4835L10.8335 9.16683H16.6668V3.3335L14.7085 5.29183Z" fill="#858FA3"/>
  </g>
  <defs>
    <clipPath id="clip0_9755_2244">
      <rect width="20" height="20" fill="white"/>
    </clipPath>
  </defs>
</svg>
