<svg xmlns="http://www.w3.org/2000/svg" width="20" height="20" viewBox="0 0 20 20" fill="none">
  <path d="M13.3332 14.3309C13.3332 13.8514 13.3329 13.5413 13.3136 13.3055C13.2952 13.0798 13.2637 12.9958 13.2428 12.9548C13.1634 12.7989 13.0352 12.6713 12.8774 12.591C12.8361 12.57 12.7525 12.5378 12.5267 12.5194C12.2908 12.5001 11.9802 12.4998 11.4997 12.4998H8.5C8.01955 12.4998 7.7092 12.5009 7.47299 12.5202C7.24648 12.5387 7.16257 12.57 7.12142 12.591C6.96467 12.6709 6.83754 12.798 6.75765 12.9548C6.73669 12.9959 6.70536 13.0798 6.68685 13.3063C6.66756 13.5425 6.66651 13.8529 6.66651 14.3333V16.6665H13.3332V14.3309ZM12.4998 4.99984C12.9601 4.99984 13.3332 5.37294 13.3332 5.83317C13.3332 6.29341 12.9601 6.66651 12.4998 6.66651H7.49984C7.0396 6.66651 6.66651 6.29341 6.66651 5.83317C6.66651 5.37294 7.0396 4.99984 7.49984 4.99984H12.4998ZM1.66651 5.16667C1.66651 4.7137 1.66562 4.32355 1.69174 4.00375C1.71865 3.67435 1.77848 3.34655 1.93913 3.03125C2.1788 2.56095 2.56095 2.1788 3.03125 1.93913C3.34655 1.77848 3.67435 1.71865 4.00375 1.69174C4.32355 1.66561 4.7137 1.66651 5.16667 1.66651H12.849C13.1275 1.66875 13.3828 1.6819 13.6302 1.74545C13.9005 1.81491 14.1582 1.92867 14.3919 2.08399C14.6727 2.27059 14.8948 2.52669 15.1504 2.81071L17.4469 5.36198C17.6678 5.60732 17.8674 5.82276 18.0117 6.07894C18.1321 6.29264 18.2197 6.52263 18.273 6.76091C18.3375 7.04983 18.3332 7.34542 18.3332 7.68295V14.8355C18.3332 15.2875 18.334 15.6774 18.3079 15.9967C18.281 16.3257 18.2211 16.6534 18.0606 16.9684C17.8206 17.4392 17.4373 17.8212 16.9676 18.0606C16.6526 18.2211 16.325 18.281 15.9959 18.3079C15.6769 18.334 15.2879 18.3332 14.8363 18.3332H5.16423C4.71217 18.3332 4.32234 18.334 4.00293 18.3079C3.67391 18.281 3.34635 18.2211 3.03125 18.0606C2.56005 17.8204 2.17832 17.437 1.93913 16.9676C1.77857 16.6525 1.71868 16.3252 1.69174 15.9959C1.66561 15.6763 1.66651 15.286 1.66651 14.833V5.16667ZM3.33317 14.833C3.33317 15.3135 3.33342 15.6241 3.35271 15.86C3.37118 16.0859 3.40329 16.1695 3.42432 16.2108C3.50467 16.3685 3.63219 16.4967 3.78809 16.5762C3.82918 16.5971 3.91313 16.6285 4.13884 16.647C4.34657 16.664 4.61175 16.6653 4.99984 16.6657V14.3333C4.99984 13.8804 4.99895 13.4902 5.02507 13.1704C5.05199 12.841 5.11181 12.5132 5.27246 12.1979C5.51213 11.7276 5.89428 11.3455 6.36459 11.1058C6.67988 10.9451 7.00768 10.8853 7.33708 10.8584C7.65688 10.8323 8.04704 10.8332 8.5 10.8332H11.4997C11.9526 10.8332 12.343 10.8323 12.6626 10.8584C12.9919 10.8853 13.3192 10.9452 13.6343 11.1058C14.1037 11.345 14.4871 11.7267 14.7272 12.1979C14.8878 12.513 14.9477 12.8406 14.9746 13.1696C15.0007 13.489 14.9998 13.8788 14.9998 14.3309V16.6657C15.3876 16.6653 15.6525 16.6639 15.86 16.647C16.0853 16.6286 16.1696 16.5971 16.2108 16.5762C16.3681 16.496 16.4966 16.3679 16.5762 16.2116C16.5971 16.1705 16.6285 16.0867 16.647 15.8608C16.6662 15.6251 16.6665 15.315 16.6665 14.8355V7.68295C16.6665 7.27251 16.6622 7.19181 16.647 7.12386C16.6291 7.04378 16.5996 6.96735 16.5599 6.89681C16.5266 6.83781 16.4766 6.77581 16.2075 6.47689L13.9118 3.92562C13.5997 3.57886 13.5338 3.51535 13.4691 3.47233C13.392 3.42111 13.3063 3.38262 13.2152 3.35922C13.137 3.33917 13.0422 3.33318 12.5625 3.33317H5.16667C4.68622 3.33317 4.37587 3.33423 4.13965 3.35352C3.91315 3.37202 3.82924 3.40335 3.78809 3.42432C3.63133 3.50421 3.50421 3.63133 3.42432 3.78809C3.40335 3.82924 3.37202 3.91315 3.35352 4.13965C3.33423 4.37587 3.33317 4.68622 3.33317 5.16667V14.833Z" fill="#858FA3"/>
</svg>
