<svg width="16" height="16" viewBox="0 0 16 16" fill="none" xmlns="http://www.w3.org/2000/svg">
<rect width="16" height="16" rx="8" fill="#8C99A1"/>
<g clip-path="url(#clip0_9728_15586)">
<path d="M2.33341 9.69832C3.06338 12.1323 5.32104 13.9072 7.99261 13.9072C11.2553 13.9072 13.9003 11.2622 13.9003 7.99949C13.9003 4.73678 11.2553 2.0918 7.99261 2.0918C4.8619 2.0918 2.29999 4.52743 2.09766 7.607C2.48055 8.2489 2.62916 8.64601 2.33304 9.69832H2.33341Z" fill="url(#paint0_linear_9728_15586)"/>
<path d="M7.68795 6.51997L7.68851 6.54914L6.24297 8.64914C6.00888 8.63843 5.77405 8.6796 5.55103 8.77135C5.45395 8.81081 5.36126 8.86031 5.27448 8.91905L2.10002 7.61068C2.10002 7.61068 2.02654 8.81917 2.33263 9.71972L4.57682 10.6458C4.68759 11.1494 5.03466 11.591 5.54457 11.8033C5.94573 11.97 6.39665 11.9706 6.79828 11.8051C7.19992 11.6396 7.51944 11.3214 7.68666 10.9205C7.77588 10.7069 7.81891 10.4769 7.81294 10.2455L9.87934 8.76766L9.93011 8.76858C11.168 8.76858 12.1741 7.75948 12.1741 6.51997C12.1741 5.28046 11.1698 4.27505 9.93011 4.27246C8.69282 4.27246 7.68611 5.28046 7.68611 6.51997H7.68795ZM7.34088 10.7754C7.07245 11.4215 6.33177 11.7256 5.68802 11.4573C5.40235 11.3373 5.17079 11.1164 5.03743 10.8366L5.76795 11.1394C5.88081 11.1864 6.00181 11.2107 6.12404 11.2109C6.24628 11.2111 6.36736 11.1872 6.48036 11.1405C6.59336 11.0939 6.69607 11.0255 6.78261 10.9392C6.86916 10.8529 6.93785 10.7503 6.98475 10.6374C7.07974 10.4094 7.0803 10.1529 6.98632 9.9244C6.89234 9.6959 6.7115 9.51405 6.48352 9.4188L5.7266 9.10588C6.01792 8.99511 6.34912 8.99141 6.65891 9.12009C6.97275 9.24988 7.21275 9.49431 7.34125 9.80686C7.46974 10.1194 7.469 10.4641 7.3394 10.7754M9.93214 8.01812C9.53549 8.01705 9.15543 7.85881 8.87521 7.57808C8.595 7.29734 8.43746 6.91699 8.43712 6.52034C8.43756 6.12375 8.59514 5.74349 8.87534 5.46284C9.15555 5.18218 9.53555 5.024 9.93214 5.02292C10.3288 5.0239 10.7089 5.18204 10.9892 5.46271C11.2695 5.74337 11.4271 6.12368 11.4275 6.52034C11.4272 6.91705 11.2696 7.29746 10.9893 7.57821C10.709 7.85895 10.3289 8.01715 9.93214 8.01812ZM8.81189 6.51794C8.81165 6.21991 8.92974 5.93398 9.14022 5.72299C9.35069 5.51199 9.63633 5.3932 9.93435 5.39271C10.5537 5.39271 11.0576 5.89671 11.0576 6.51794C11.0577 6.81603 10.9395 7.10197 10.7288 7.31291C10.5182 7.52385 10.2324 7.64251 9.93435 7.6428C9.63636 7.64236 9.35073 7.52364 9.14023 7.31271C8.92972 7.10179 8.81175 6.81593 8.81189 6.51794Z" fill="white"/>
</g>
<circle opacity="0.4" cx="8" cy="8" r="7" fill="url(#paint1_linear_9728_15586)"/>
<defs>
<linearGradient id="paint0_linear_9728_15586" x1="7.99898" y1="2.0918" x2="7.99898" y2="13.9072" gradientUnits="userSpaceOnUse">
<stop stop-color="#111D2E"/>
<stop offset="0.212" stop-color="#051839"/>
<stop offset="0.407" stop-color="#0A1B48"/>
<stop offset="0.581" stop-color="#132E62"/>
<stop offset="0.738" stop-color="#144B7E"/>
<stop offset="0.873" stop-color="#136497"/>
<stop offset="1" stop-color="#1387B8"/>
</linearGradient>
<linearGradient id="paint1_linear_9728_15586" x1="5.8125" y1="2.75" x2="11.5" y2="14.125" gradientUnits="userSpaceOnUse">
<stop stop-color="#ADD7FF"/>
<stop offset="1" stop-color="#004192"/>
</linearGradient>
<clipPath id="clip0_9728_15586">
<rect width="12" height="12" fill="white" transform="translate(2 2)"/>
</clipPath>
</defs>
</svg>
