<svg width="16" height="10" viewBox="0 0 16 10" fill="none" xmlns="http://www.w3.org/2000/svg">
<path d="M3.83334 2.5V0.833336H15.5V2.5H3.83334ZM3.83334 5.83334V4.16667H15.5V5.83334H3.83334ZM3.83334 9.16667V7.5H15.5V9.16667H3.83334ZM1.33334 2.5C1.09723 2.5 0.899447 2.42 0.740003 2.26C0.580559 2.1 0.500558 1.90222 0.500003 1.66667C0.499447 1.43111 0.579447 1.23334 0.740003 1.07334C0.900559 0.913336 1.09834 0.833336 1.33334 0.833336C1.56834 0.833336 1.76639 0.913336 1.9275 1.07334C2.08861 1.23334 2.16834 1.43111 2.16667 1.66667C2.165 1.90222 2.085 2.10028 1.92667 2.26084C1.76834 2.42139 1.57056 2.50111 1.33334 2.5ZM1.33334 5.83334C1.09723 5.83334 0.899447 5.75334 0.740003 5.59334C0.580559 5.43334 0.500558 5.23556 0.500003 5C0.499447 4.76445 0.579447 4.56667 0.740003 4.40667C0.900559 4.24667 1.09834 4.16667 1.33334 4.16667C1.56834 4.16667 1.76639 4.24667 1.9275 4.40667C2.08861 4.56667 2.16834 4.76445 2.16667 5C2.165 5.23556 2.085 5.43361 1.92667 5.59417C1.76834 5.75472 1.57056 5.83445 1.33334 5.83334ZM1.33334 9.16667C1.09723 9.16667 0.899447 9.08667 0.740003 8.92667C0.580559 8.76667 0.500558 8.56889 0.500003 8.33334C0.499447 8.09778 0.579447 7.9 0.740003 7.74C0.900559 7.58 1.09834 7.5 1.33334 7.5C1.56834 7.5 1.76639 7.58 1.9275 7.74C2.08861 7.9 2.16834 8.09778 2.16667 8.33334C2.165 8.56889 2.085 8.76695 1.92667 8.9275C1.76834 9.08806 1.57056 9.16778 1.33334 9.16667Z" fill="#a9b2b9"/>
</svg>
