<svg width="14" height="14" viewBox="0 0 14 14" fill="none" xmlns="http://www.w3.org/2000/svg">
<path fill-rule="evenodd" clip-rule="evenodd" d="M13.6666 6.99992C13.6666 3.31792 10.682 0.333252 6.99998 0.333252C3.31798 0.333252 0.333313 3.31792 0.333313 6.99992C0.333313 10.6819 3.31798 13.6666 6.99998 13.6666C10.682 13.6666 13.6666 10.6819 13.6666 6.99992ZM6.99998 3.66659C7.17679 3.66659 7.34636 3.73682 7.47138 3.86185C7.59641 3.98687 7.66665 4.15644 7.66665 4.33325V7.66659C7.66665 7.8434 7.59641 8.01297 7.47138 8.13799C7.34636 8.26301 7.17679 8.33325 6.99998 8.33325C6.82317 8.33325 6.6536 8.26301 6.52858 8.13799C6.40355 8.01297 6.33331 7.8434 6.33331 7.66659V4.33325C6.33331 4.15644 6.40355 3.98687 6.52858 3.86185C6.6536 3.73682 6.82317 3.66659 6.99998 3.66659ZM6.33331 9.66659C6.33331 9.48977 6.40355 9.32021 6.52858 9.19518C6.6536 9.07016 6.82317 8.99992 6.99998 8.99992H7.00531C7.18212 8.99992 7.35169 9.07016 7.47672 9.19518C7.60174 9.32021 7.67198 9.48977 7.67198 9.66659C7.67198 9.8434 7.60174 10.013 7.47672 10.138C7.35169 10.263 7.18212 10.3333 7.00531 10.3333H6.99998C6.82317 10.3333 6.6536 10.263 6.52858 10.138C6.40355 10.013 6.33331 9.8434 6.33331 9.66659Z" fill="white" fill-opacity="0.4"/>
</svg>
