<svg width="18" height="18" viewBox="0 0 18 18" fill="none" xmlns="http://www.w3.org/2000/svg">
<path fill-rule="evenodd" clip-rule="evenodd" d="M12.4475 2.94L13.9725 4.465C16.2133 6.70666 17.3333 7.82666 17.3333 9.21833C17.3333 10.6108 16.2133 11.7308 13.9725 13.9717C11.7308 16.2133 10.6108 17.3333 9.2183 17.3333C7.82664 17.3333 6.7058 16.2133 4.46497 13.9725L2.93997 12.4475C1.65247 11.1592 1.0083 10.5158 0.769137 9.68C0.529137 8.84416 0.734137 7.95666 1.14414 6.1825L1.37997 5.15916C1.72414 3.66583 1.89664 2.91916 2.40747 2.4075C2.9183 1.89583 3.6658 1.72416 5.15914 1.38L6.18247 1.14333C7.95747 0.734163 8.84414 0.529163 9.67997 0.768329C10.5158 1.00833 11.16 1.6525 12.4475 2.94ZM8.2883 10.94C7.72747 10.38 7.73164 9.575 8.06747 8.9375C7.98433 8.81741 7.94587 8.67199 7.95878 8.5265C7.97169 8.38101 8.03514 8.24464 8.13812 8.14106C8.24111 8.03749 8.37711 7.97325 8.52253 7.95951C8.66794 7.94576 8.81357 7.98338 8.93414 8.06583C9.21747 7.91583 9.5283 7.83583 9.8383 7.83916C10.0041 7.84071 10.1624 7.90804 10.2785 8.02635C10.3947 8.14465 10.459 8.30424 10.4575 8.47C10.4559 8.63576 10.3886 8.79411 10.2703 8.91023C10.152 9.02635 9.9924 9.09071 9.82664 9.08916C9.63368 9.09629 9.45132 9.17924 9.31914 9.32C8.99664 9.6425 9.0808 9.96583 9.17164 10.0567C9.2633 10.1475 9.5858 10.2317 9.9083 9.90916C10.5616 9.25583 11.69 9.03916 12.4125 9.76166C12.9733 10.3225 12.9691 11.1275 12.6333 11.765C12.7159 11.8851 12.7539 12.0303 12.7408 12.1755C12.7277 12.3207 12.6642 12.4567 12.5614 12.5601C12.4585 12.6634 12.3228 12.7275 12.1777 12.7414C12.0325 12.7552 11.8871 12.7179 11.7666 12.6358C11.3927 12.841 10.9589 12.9094 10.54 12.8292C10.3775 12.7958 10.235 12.6993 10.1437 12.5608C10.0525 12.4223 10.0199 12.2533 10.0533 12.0908C10.0867 11.9284 10.1832 11.7859 10.3217 11.6946C10.4601 11.6033 10.6292 11.5708 10.7916 11.6042C10.9391 11.635 11.1775 11.5867 11.3816 11.3825C11.7041 11.0592 11.62 10.7367 11.5291 10.6458C11.4375 10.555 11.115 10.4708 10.7925 10.7933C10.1391 11.4467 9.0108 11.6633 8.2883 10.94ZM7.34997 7.5775C7.50471 7.4227 7.62745 7.23894 7.71117 7.03671C7.7949 6.83448 7.83797 6.61774 7.83793 6.39887C7.83789 6.17999 7.79474 5.96327 7.71095 5.76107C7.62715 5.55887 7.50435 5.37515 7.34955 5.22041C7.19476 5.06567 7.011 4.94294 6.80877 4.85921C6.60654 4.77549 6.3898 4.73241 6.17093 4.73245C5.95205 4.73249 5.73533 4.77564 5.53313 4.85944C5.33093 4.94323 5.14721 5.06603 4.99247 5.22083C4.67996 5.53345 4.50443 5.95742 4.50451 6.39946C4.50459 6.8415 4.68026 7.2654 4.99289 7.57791C5.30551 7.89043 5.72948 8.06595 6.17151 8.06587C6.61355 8.06579 7.03746 7.89012 7.34997 7.5775Z" fill="#a9b2b9"/>
</svg>
