<svg width="15" height="15" viewBox="0 0 20 20" fill="none" xmlns="http://www.w3.org/2000/svg">
<path fill-rule="evenodd" clip-rule="evenodd" d="M8.80791 5.80399C8.93242 5.39162 8.99935 4.95428 8.99935 4.5013C8.99935 4.49821 8.99935 4.49512 8.99934 4.49203L14.1735 7.21547L16.9493 5.82797C16.7993 5.6813 16.6152 5.53547 16.3802 5.37797C15.9027 5.05964 15.2652 4.7238 14.3568 4.24797L12.6902 3.37297C11.9485 2.9838 11.4293 2.71214 10.9977 2.5338C10.5777 2.35964 10.2827 2.29297 9.99935 2.29297C9.71685 2.29297 9.42101 2.35964 9.00102 2.5338C8.88313 2.5825 8.75867 2.63816 8.6249 2.70127C8.4552 2.3129 8.23228 1.9531 7.96534 1.63111C8.16329 1.53522 8.34844 1.4505 8.52352 1.37797C9.03102 1.16797 9.49518 1.04297 9.99935 1.04297C10.5035 1.04297 10.9668 1.16797 11.4752 1.37797C11.966 1.5813 12.536 1.88047 13.2452 2.25297L14.9685 3.15714C15.8393 3.6138 16.536 3.97964 17.0735 4.3388C17.6318 4.7113 18.061 5.10297 18.3735 5.6338C18.6843 6.16297 18.8252 6.73547 18.8927 7.4188C18.9577 8.08128 18.9577 8.89542 18.9577 9.91954V9.91963V10.083V10.0831C18.9577 11.1072 18.9577 11.9213 18.8927 12.5838C18.8252 13.2663 18.6852 13.8396 18.3735 14.3688C18.061 14.8996 17.6318 15.2913 17.0735 15.6638C16.5352 16.023 15.8393 16.3888 14.9685 16.8463L13.2452 17.7496C12.536 18.1221 11.966 18.4213 11.4752 18.6246C10.9677 18.8346 10.5035 18.9596 9.99935 18.9596C9.49518 18.9596 9.03185 18.8346 8.52352 18.6246C8.03268 18.4213 7.46268 18.1221 6.75352 17.7496L5.03018 16.8455C4.15935 16.3888 3.46268 16.023 2.92518 15.6638C2.36685 15.2913 1.93768 14.8996 1.62518 14.3688C1.31435 13.8396 1.17352 13.2671 1.10602 12.5838C1.04102 11.9213 1.04102 11.1071 1.04102 10.0821V9.92047C1.04102 8.91312 1.04102 8.10941 1.10272 7.45316C1.4421 7.84335 1.8476 8.17449 2.30178 8.42915C2.29128 8.85697 2.29102 9.35558 2.29102 9.95214V10.0496C2.29102 11.1146 2.29102 11.8671 2.35018 12.4613C2.40768 13.0421 2.51685 13.418 2.70268 13.7346C2.88768 14.0488 3.15518 14.3146 3.61935 14.6246C4.09602 14.943 4.73352 15.2788 5.64185 15.7546L7.30852 16.6296C8.05018 17.0188 8.56935 17.2905 9.00102 17.4688C9.13657 17.5249 9.26101 17.5707 9.37435 17.6063V10.3871L6.05235 8.72613C6.52937 8.55073 6.96847 8.29684 7.35399 7.98013L9.99935 9.30297L12.7968 7.90297L8.80791 5.80399ZM10.9977 17.4688C10.8621 17.5249 10.7377 17.5705 10.6243 17.6055V10.388L13.541 8.92964V10.8346C13.541 11.0004 13.6069 11.1594 13.7241 11.2766C13.8413 11.3938 14.0003 11.4596 14.166 11.4596C14.3318 11.4596 14.4907 11.3938 14.608 11.2766C14.7252 11.1594 14.791 11.0004 14.791 10.8346V8.3038L17.551 6.92463C17.5963 7.12796 17.6289 7.33392 17.6485 7.5413C17.7077 8.13545 17.7077 8.88792 17.7077 9.95287V9.95297V10.0505C17.7077 11.1146 17.7069 11.8671 17.6485 12.4613C17.591 13.043 17.4827 13.418 17.2968 13.7346C17.111 14.0488 16.8435 14.3146 16.3802 14.6246C15.9027 14.943 15.2652 15.278 14.3568 15.7546L12.6902 16.6296C11.9485 17.0188 11.4293 17.2905 10.9977 17.4688Z" fill="#63B7E7"/>
<path d="M6.83398 4.5L1.00065 4.5M6.83398 4.5L4.33398 7M6.83398 4.5L4.33398 2" stroke="#63B7E7" stroke-linecap="round" stroke-linejoin="round"/>
</svg>
