<svg xmlns="http://www.w3.org/2000/svg" width="20" height="20" viewBox="0 0 20 20" fill="none">
  <path d="M10.0915 10.8336C10.0381 10.8259 9.96952 10.8259 9.90855 10.8336C8.56709 10.7878 7.5 9.68852 7.5 8.33737C7.5 6.95569 8.61282 5.83356 10 5.83356C11.3796 5.83356 12.5 6.95569 12.5 8.33737C12.4924 9.68852 11.4329 10.7878 10.0915 10.8336Z" stroke="#0D91EC" stroke-width="1.2" stroke-linecap="round" stroke-linejoin="round"/>
  <path d="M15 15.5048C13.6795 16.7462 11.9288 17.5002 10 17.5002C8.07122 17.5002 6.32048 16.7462 5 15.5048C5.07418 14.7889 5.51929 14.0882 6.31306 13.5398C8.3457 12.1537 11.6691 12.1537 13.6869 13.5398C14.4807 14.0882 14.9258 14.7889 15 15.5048Z" stroke="#0D91EC" stroke-width="1.2" stroke-linecap="round" stroke-linejoin="round"/>
  <path d="M10 17.5002C14.1421 17.5002 17.5 14.1423 17.5 10.0002C17.5 5.85808 14.1421 2.50021 10 2.50021C5.85786 2.50021 2.5 5.85808 2.5 10.0002C2.5 14.1423 5.85786 17.5002 10 17.5002Z" stroke="#0D91EC" stroke-width="1.2" stroke-linecap="round" stroke-linejoin="round"/>
</svg>
