<svg xmlns="http://www.w3.org/2000/svg" width="20" height="20" viewBox="0 0 20 20" fill="none">
  <path opacity="0.1" d="M16.0669 10.5996V13.333C16.0669 14.1356 16.0656 14.6775 16.0112 15.082C15.9592 15.4692 15.8683 15.6399 15.7544 15.7539C15.6404 15.8679 15.4697 15.9587 15.0825 16.0107C14.6779 16.0651 14.1361 16.0664 13.3335 16.0664H6.6665C5.86433 16.0664 5.32294 16.0651 4.91846 16.0107C4.53114 15.9587 4.35962 15.8679 4.24561 15.7539C4.13174 15.6399 4.04079 15.469 3.98877 15.082C3.9344 14.6775 3.93311 14.1355 3.93311 13.333V10.5996H16.0669Z" stroke="#0D91EC" stroke-width="1.2"/>
  <path d="M2.5 7.91668C2.5 7.52946 2.5 7.33586 2.53202 7.17486C2.66353 6.51371 3.18037 5.99688 3.84152 5.86537C4.00252 5.83334 4.19612 5.83334 4.58333 5.83334H10H15.4167C15.8039 5.83334 15.9975 5.83334 16.1585 5.86537C16.8197 5.99688 17.3365 6.51371 17.468 7.17486C17.5 7.33586 17.5 7.52946 17.5 7.91668C17.5 8.30389 17.5 8.49751 17.468 8.65851C17.3365 9.31968 16.8197 9.83651 16.1585 9.96801C15.9975 10 15.8039 10 15.4167 10H10H4.58333C4.19612 10 4.00252 10 3.84152 9.96801C3.18037 9.83651 2.66353 9.31968 2.53202 8.65851C2.5 8.49751 2.5 8.30389 2.5 7.91668Z" stroke="#0D91EC" stroke-width="1.2" stroke-linejoin="round"/>
  <path d="M3.3335 10V13.3333C3.3335 14.9047 3.3335 15.6903 3.82165 16.1785C4.3098 16.6667 5.09548 16.6667 6.66683 16.6667H7.50016H12.5002H13.3335C14.9048 16.6667 15.6905 16.6667 16.1787 16.1785C16.6668 15.6903 16.6668 14.9047 16.6668 13.3333V10" stroke="#0D91EC" stroke-width="1.2" stroke-linecap="round" stroke-linejoin="round"/>
  <path d="M10 5.83334V16.6667" stroke="#0D91EC" stroke-width="1.2" stroke-linecap="round" stroke-linejoin="round"/>
  <path d="M9.47923 5.18261L7.82973 3.12073C7.20919 2.34505 6.05067 2.28248 5.34826 2.98489C4.29832 4.03483 5.03867 5.83333 6.52351 5.83333H9.16648C9.50232 5.83333 9.68907 5.44486 9.47923 5.18261Z" stroke="#0D91EC" stroke-width="1.2" stroke-linecap="round" stroke-linejoin="round"/>
  <path d="M10.5207 5.18261L12.1702 3.12073C12.7907 2.34505 13.9492 2.28248 14.6517 2.98489C15.7016 4.03483 14.9612 5.83333 13.4764 5.83333H10.8334C10.4976 5.83333 10.3108 5.44486 10.5207 5.18261Z" stroke="#0D91EC" stroke-width="1.2" stroke-linecap="round" stroke-linejoin="round"/>
</svg>
