<svg width="20" height="20" viewBox="0 0 20 20" fill="none" xmlns="http://www.w3.org/2000/svg">
<path d="M7.50016 10L9.16683 11.6667L12.5002 8.33333M16.6668 10C16.6668 13.7176 12.1168 16.4114 10.5347 17.2358C10.3636 17.325 10.278 17.3696 10.1593 17.3927C10.0668 17.4107 9.9335 17.4107 9.841 17.3927C9.72233 17.3696 9.63675 17.325 9.46566 17.2358C7.88346 16.4114 3.3335 13.7176 3.3335 10V6.848C3.3335 6.18174 3.3335 5.84862 3.44246 5.56226C3.53872 5.30928 3.69515 5.08357 3.89821 4.90461C4.12808 4.70203 4.44 4.58507 5.06383 4.35113L9.532 2.67557C9.70525 2.6106 9.79183 2.57812 9.881 2.56523C9.96 2.55382 10.0403 2.55382 10.1193 2.56523C10.2085 2.57812 10.2951 2.6106 10.4683 2.67557L14.9365 4.35113C15.5603 4.58507 15.8722 4.70203 16.1021 4.90461C16.3052 5.08357 16.4616 5.30928 16.5578 5.56226C16.6668 5.84862 16.6668 6.18174 16.6668 6.848V10Z" stroke="#0D91EC" stroke-width="1.2" stroke-linecap="round" stroke-linejoin="round"/>
</svg>
