<svg xmlns="http://www.w3.org/2000/svg" width="20" height="20" viewBox="0 0 20 20" fill="none">
  <path d="M15.6001 2.65601H13.2001C12.3164 2.65601 11.6001 3.37235 11.6001 4.25601V6.65601C11.6001 7.53966 12.3164 8.256 13.2001 8.256H15.6001C16.4838 8.256 17.2001 7.53966 17.2001 6.65601V4.25601C17.2001 3.37235 16.4838 2.65601 15.6001 2.65601Z" stroke="#0D91EC" stroke-width="1.2" stroke-linecap="round" stroke-linejoin="round"/>
  <path d="M6.7998 2.65601H4.3998C3.51615 2.65601 2.7998 3.37235 2.7998 4.25601V6.65601C2.7998 7.53966 3.51615 8.256 4.3998 8.256H6.7998C7.68346 8.256 8.3998 7.53966 8.3998 6.65601V4.25601C8.3998 3.37235 7.68346 2.65601 6.7998 2.65601Z" stroke="#0D91EC" stroke-width="1.2" stroke-linecap="round" stroke-linejoin="round"/>
  <path d="M15.6001 11.456H13.2001C12.3164 11.456 11.6001 12.1723 11.6001 13.056V15.456C11.6001 16.3397 12.3164 17.056 13.2001 17.056H15.6001C16.4838 17.056 17.2001 16.3397 17.2001 15.456V13.056C17.2001 12.1723 16.4838 11.456 15.6001 11.456Z" stroke="#0D91EC" stroke-width="1.2" stroke-linecap="round" stroke-linejoin="round"/>
  <path d="M6.7998 11.456H4.3998C3.51615 11.456 2.7998 12.1723 2.7998 13.056V15.456C2.7998 16.3397 3.51615 17.056 4.3998 17.056H6.7998C7.68346 17.056 8.3998 16.3397 8.3998 15.456V13.056C8.3998 12.1723 7.68346 11.456 6.7998 11.456Z" stroke="#0D91EC" stroke-width="1.2" stroke-linecap="round" stroke-linejoin="round"/>
</svg>
