<svg width="20" height="20" viewBox="0 0 20 20" fill="none" xmlns="http://www.w3.org/2000/svg">
<path d="M14.8277 7.7363C15.941 8.48714 16.4975 8.86256 16.6884 9.34328C16.8552 9.763 16.8552 10.2382 16.6884 10.658C16.4975 11.1387 15.941 11.5141 14.8277 12.265L9.59911 15.7916C8.36356 16.625 7.74578 17.0417 7.23597 16.9974C6.7916 16.9589 6.38425 16.7153 6.11843 16.329C5.81348 15.8859 5.81348 15.0997 5.81348 13.5273V6.47395C5.81348 4.90155 5.81348 4.11536 6.11843 3.67225C6.38425 3.286 6.7916 3.04236 7.23597 3.0038C7.74578 2.95957 8.36356 3.37626 9.59911 4.20963L14.8277 7.7363Z" fill="#3DC67D"/>
</svg>
