<svg width="36" height="36" viewBox="0 0 36 36" fill="none" xmlns="http://www.w3.org/2000/svg">
<g clip-path="url(#clip0_730_9138)">
<path d="M0 4C0 1.79086 1.79086 0 4 0H32C34.2091 0 36 1.79086 36 4V32C36 34.2091 34.2091 36 32 36H4C1.79086 36 0 34.2091 0 32V4Z" fill="white" fill-opacity="0.1"/>
<path d="M2.60107 26.5234V9.58659L15.8519 4.70473C16.1627 4.59022 16.4971 4.5547 16.825 4.60136L51.8635 9.58659L51.5341 27.2411C51.5241 27.7765 51.2999 28.2855 50.9116 28.6541L41.1732 37.9015L4.10747 28.4615C3.2213 28.2358 2.60107 27.4379 2.60107 26.5234Z" fill="#F712A3"/>
<g clip-path="url(#clip1_730_9138)">
<path d="M15.8338 19.5753L15.1096 18.9881L21.3037 20.4454C21.5576 20.5051 21.8233 20.4042 21.9791 20.1891L22.7952 19.0619L16.7794 17.6458C15.767 17.4077 14.707 17.8078 14.0829 18.664L11.5123 22.2217C10.9555 22.9926 11.3455 24.0854 12.2542 24.2991L17.6024 25.5574C17.8562 25.6171 18.122 25.5162 18.2778 25.3011L19.109 24.1533L13.4799 22.8289L15.8337 19.5755L15.8338 19.5753Z" fill="white"/>
<path d="M25.1075 19.6005C24.0899 19.3611 23.0248 19.7669 22.4024 20.6313L21.9866 21.2087L21.6899 21.6202C21.1341 22.391 21.5247 23.4827 22.4326 23.6963L22.8985 23.8059L26.7015 24.7006L25.938 25.7552L20.1718 24.3986C19.9184 24.339 19.6533 24.4392 19.4974 24.6536L18.6618 25.8019L25.1731 27.3339C26.1885 27.5727 27.2514 27.1693 27.8744 26.3085L28.6206 25.2778C29.1785 24.5072 28.7884 23.4135 27.8796 23.1997L23.6148 22.1963L24.105 21.517L23.4011 20.9343L30.1288 22.5171C30.3831 22.577 30.6492 22.4757 30.8049 22.2601L31.6186 21.1326L25.1077 19.6008L25.1075 19.6005Z" fill="white"/>
</g>
<path d="M16.825 4.60136L51.8635 9.58659L41.1732 15.6541L2.60107 9.58659L15.8519 4.70473C16.1627 4.59022 16.4971 4.5547 16.825 4.60136Z" fill="white"/>
</g>
<defs>
<clipPath id="clip0_730_9138">
<path d="M0 4C0 1.79086 1.79086 0 4 0H32C34.2091 0 36 1.79086 36 4V32C36 34.2091 34.2091 36 32 36H4C1.79086 36 0 34.2091 0 32V4Z" fill="white"/>
</clipPath>
<clipPath id="clip1_730_9138">
<rect width="28.1194" height="12.2258" fill="white" transform="translate(13.4756 13.417) rotate(13.2392)"/>
</clipPath>
</defs>
</svg>
