<svg width="36" height="36" viewBox="0 0 36 36" fill="none" xmlns="http://www.w3.org/2000/svg">
<path d="M0 4C0 1.79086 1.79086 0 4 0H32C34.2091 0 36 1.79086 36 4V32C36 34.2091 34.2091 36 32 36H4C1.79086 36 0 34.2091 0 32V4Z" fill="white" fill-opacity="0.1"/>
<path d="M30 28.2954L30 23.75L25.4545 23.75" stroke="white" stroke-width="2" stroke-linecap="round" stroke-linejoin="round"/>
<path d="M29.4634 23.7512C27.3019 27.4868 23.2626 30 18.6364 30C11.7328 30 6.13636 24.4036 6.13636 17.5C6.13636 10.5964 11.7328 5 18.6364 5C21.6795 5 24.4686 6.08743 26.6364 7.8949" stroke="white" stroke-width="2" stroke-linecap="round" stroke-linejoin="round"/>
<path d="M31.2397 4.58265C31.1249 4.61851 31.0393 4.67802 30.8458 4.85451C30.7474 4.9442 29.2956 6.23065 27.6214 7.71184C25.9472 9.19303 23.3877 11.4566 21.9359 12.7431C20.4841 14.0295 18.6595 15.642 17.8825 16.3245L16.4689 17.5684L17.2468 18.4636C17.6735 18.9571 18.409 19.792 18.8798 20.3194C19.352 20.847 19.8767 21.4446 20.0483 21.6467C20.2198 21.8504 20.363 22.0165 20.3676 22.0168C20.386 22.018 21.2883 21.2352 22.7703 19.9337C23.6112 19.1949 24.6018 18.3341 24.9693 18.0202C25.6386 17.4515 26.1009 17.0322 26.5676 16.5681C26.6088 16.5274 26.6798 16.456 26.7245 16.4093C26.7707 16.3628 26.8153 16.3176 26.8236 16.3088C26.8597 16.2755 27.3616 15.7455 27.4879 15.6065C27.702 15.374 28.1266 14.8714 28.3551 14.584C30.2268 12.2347 31.3459 9.72883 31.7335 7.02889C31.8249 6.38961 31.841 6.23865 31.8763 5.70425C31.9162 5.07554 31.9129 5.00862 31.8284 4.84017C31.7223 4.62686 31.4602 4.51186 31.2397 4.58265Z" fill="#F712A3"/>
<path d="M14.0867 16.1634C13.8483 16.2734 13.4803 16.5501 13.127 16.882C12.7409 17.2459 12.6566 17.3551 12.6467 17.505C12.6321 17.7274 12.7312 17.9076 13.0888 18.3035C13.6519 18.9254 18.4616 24.4701 18.6404 24.7037C18.9484 25.104 19.0673 25.2173 19.2504 25.2915C19.4065 25.3545 19.4694 25.3602 19.5586 25.3149C19.7387 25.2259 20.2761 24.7882 20.6987 24.3848C20.9602 24.1353 20.9971 24.0896 21.0273 23.983C21.0882 23.7606 20.9489 23.4892 20.5876 23.1257C20.4964 23.0359 20.0457 22.5315 19.5841 22.0063C16.9835 19.0473 16.4734 18.463 16.2794 18.2268C16.208 18.1399 16.0641 17.9629 15.9586 17.8334C15.7648 17.5926 15.1247 16.8524 14.9921 16.7133C14.7615 16.4716 14.511 16.2504 14.3775 16.1717C14.2736 16.1106 14.2059 16.1092 14.0867 16.1634Z" fill="#F712A3"/>
<path d="M9.4311 22.3573C7.43618 24.1214 5.7766 25.5912 5.74367 25.6231C5.49486 25.8674 5.2965 26.1645 5.21863 26.4107C5.16222 26.5885 5.13533 26.9497 5.1623 27.1717L5.17892 27.3171L5.07288 27.4295C4.67825 27.8518 4.45426 28.2807 4.31942 28.8768C4.27805 29.0602 4.2705 29.128 4.25872 29.4002C4.24553 29.7406 4.24645 29.75 4.28224 30.0253C4.41523 31.0238 4.98601 31.9037 5.80432 32.3718C6.46066 32.7486 7.29542 32.8502 8.05776 32.6476C8.34161 32.5732 8.58391 32.4511 8.87385 32.2376C8.94984 32.1836 9.89857 31.3511 10.9836 30.3911C16.149 25.8157 17.1096 24.9669 17.253 24.8492C17.4403 24.6956 17.5832 24.5623 17.6436 24.4871L17.6875 24.4295L17.5438 24.2711C17.2968 23.9973 13.3524 19.4715 13.2168 19.3074C13.147 19.2206 13.0823 19.1497 13.0731 19.1491C13.0654 19.1485 11.4261 20.5917 9.4311 22.3573Z" fill="#F712A3"/>
</svg>
