<svg xmlns="http://www.w3.org/2000/svg" width="36" height="36" viewBox="0 0 36 36" fill="none">
  <path d="M0 4C0 1.79086 1.79086 0 4 0H32C34.2091 0 36 1.79086 36 4V32C36 34.2091 34.2091 36 32 36H4C1.79086 36 0 34.2091 0 32V4Z" fill="white" fill-opacity="0.1"/>
  <g clip-path="url(#clip0_5684_5592)">
    <mask id="mask0_5684_5592" style="mask-type:luminance" maskUnits="userSpaceOnUse" x="-7" y="-4" width="50" height="44">
      <path d="M-6.1709 -3.06971H42.0392V39.0562H-6.1709V-3.06971Z" fill="white"/>
    </mask>
    <g mask="url(#mask0_5684_5592)">
      <path fill-rule="evenodd" clip-rule="evenodd" d="M28.6389 2.99998H7.36112C5.63648 2.99998 5 3.63286 5 5.34855V26.051C5 26.2451 5.00787 26.4255 5.02512 26.5926C5.06439 26.9671 5.07178 27.3299 5.42205 27.7431C5.45628 27.7836 5.81389 28.0482 5.81389 28.0482C6.00625 28.142 6.1376 28.2111 6.35454 28.2979L16.832 32.6628C17.3759 32.9107 17.6034 33.0073 17.9984 32.9996V32.9996C17.9989 32.9996 17.9994 32.9996 18 32.9996C18.0005 32.9996 18.001 32.9996 18.0015 32.9996V32.9996C18.3966 33.0073 18.624 32.9107 19.168 32.6628L29.6454 28.2979C29.8624 28.2111 29.9937 28.142 30.1861 28.0482C30.1861 28.0482 30.5437 27.7836 30.5779 27.7431C30.9282 27.3299 30.9355 26.9671 30.9748 26.5926C30.9921 26.4255 31 26.2451 31 26.051V5.34855C31 3.63286 30.3635 2.99998 28.6389 2.99998Z" fill="white"/>
      <path d="M27.2134 23.8134L27.2086 23.8611L27.2038 23.9136L27.1942 23.9614L27.1798 24.0091L27.1705 24.0521L27.1561 24.0999L27.1369 24.1428L27.1176 24.1811L27.0987 24.224L27.0747 24.2622L27.0507 24.3005L27.0222 24.3386L26.9981 24.3768L26.9696 24.4102L26.936 24.4437L26.9075 24.4723L26.8691 24.5058L26.8357 24.5344L26.7973 24.5631L26.7592 24.5866L26.721 24.6153L26.6778 24.6392L26.6348 24.6583L26.5919 24.6821L26.5439 24.7013L26.4962 24.7204L26.4484 24.7347L26.4007 24.749L26.3575 24.7633L26.3098 24.7729L26.2668 24.7824L26.2239 24.792L26.1758 24.8016L26.1281 24.8063L26.0851 24.8111L26.0371 24.8159L25.9846 24.8207L25.9368 24.8254H25.8891H25.8365H25.7837H25.736L25.6882 24.8207H25.6357L25.5879 24.8159L25.5399 24.8111L25.4874 24.8063L25.4397 24.7968L25.3919 24.792L25.3439 24.7824L25.2961 24.7729L25.2484 24.7633L25.2007 24.7538L25.1527 24.7395L25.1097 24.7299L25.062 24.7156L25.0142 24.7013L24.971 24.6821L24.9233 24.6678L24.8803 24.6535L24.8325 24.6344L24.7894 24.6153L24.7464 24.5962L24.7034 24.5726L24.6603 24.5535L24.6173 24.5296L24.5792 24.5058L24.5359 24.4819L24.4978 24.458L24.4594 24.4341L24.4213 24.4055L24.3831 24.3768L24.3447 24.3482L24.3065 24.3195L24.2729 24.2909L24.2348 24.2575L24.2636 24.2193L24.2969 24.1858L24.3257 24.1476L24.3591 24.1094L24.3879 24.076L24.4164 24.0378L24.4501 23.9996L24.4786 23.9662L24.5122 23.928L24.5408 23.8945L24.5743 23.8563L24.6029 23.8181L24.6317 23.7847L24.665 23.7465L24.6939 23.7083L24.7272 23.6749L24.756 23.6367L24.7941 23.6653L24.8371 23.694L24.8755 23.7226L24.9185 23.7513L24.9569 23.7752L24.9998 23.8038L25.0379 23.8277L25.0812 23.8468L25.1193 23.8707L25.1622 23.8898L25.2055 23.9089L25.2484 23.928L25.2914 23.9423L25.3346 23.9614L25.3823 23.9757L25.4301 23.99L25.473 24.0044L25.521 24.014L25.5688 24.0235L25.6165 24.033L25.669 24.0378L25.717 24.0473H25.7648L25.8173 24.0521H25.8651H25.9224L25.975 24.0473L26.023 24.0378L26.0659 24.0282L26.1089 24.0187L26.1473 24.0044L26.1807 23.9853L26.2191 23.9566L26.2476 23.9232L26.2668 23.8849L26.2813 23.842L26.286 23.7942V23.7847L26.2813 23.7274L26.262 23.6796L26.238 23.6462L26.2047 23.6176L26.1662 23.5889L26.1281 23.5698L26.0851 23.5507L26.0371 23.5316L25.9798 23.5078L25.9464 23.4982L25.9083 23.4887L25.8651 23.4743L25.8221 23.4647L25.7744 23.4504L25.7264 23.4409L25.6739 23.4266L25.6261 23.417L25.5735 23.4027L25.5258 23.3932L25.4778 23.3788L25.4301 23.3692L25.3823 23.3549L25.3391 23.3406L25.2914 23.3311L25.2484 23.3167L25.2055 23.3024L25.1622 23.2881L25.1097 23.2689L25.062 23.2498L25.0142 23.2308L24.9662 23.2116L24.9233 23.1878L24.8755 23.1639L24.8371 23.14L24.7941 23.1162L24.756 23.0875L24.7176 23.0637L24.6843 23.035L24.6507 23.0016L24.6173 22.9681L24.5885 22.9347L24.56 22.9013L24.5359 22.8679L24.5122 22.8296L24.4882 22.7867L24.469 22.7536L24.4546 22.7153L24.4405 22.6723L24.4261 22.6341L24.4164 22.5864L24.4068 22.5434L24.402 22.4957L24.3973 22.4479L24.3924 22.3954V22.3428V22.3333V22.2855L24.3973 22.2378L24.402 22.1948L24.4068 22.147L24.4164 22.1041L24.4261 22.0611L24.4405 22.0181L24.4501 21.9752L24.469 21.9322L24.4882 21.8892L24.5074 21.8463L24.5312 21.8032L24.5551 21.7603L24.5837 21.7221L24.6125 21.6839L24.6459 21.6457L24.6794 21.6123L24.7128 21.574L24.7512 21.5406L24.7845 21.5167L24.823 21.4881L24.8611 21.4594L24.8992 21.4355L24.9425 21.4117L24.9854 21.3926L25.0283 21.3687L25.0716 21.3496L25.1193 21.3353L25.167 21.3162L25.2102 21.3019L25.2484 21.2923L25.2914 21.2827L25.3346 21.2732L25.3823 21.2637L25.4253 21.2541L25.473 21.2493L25.521 21.2445L25.5688 21.2398L25.6165 21.235H25.6642H25.717H25.7696H25.8221L25.8747 21.2398L25.9272 21.2445H25.975L26.0278 21.2493L26.0755 21.2589L26.1281 21.2637L26.1758 21.2732L26.2191 21.2827L26.2668 21.2923L26.3145 21.3019L26.3575 21.3114L26.4055 21.3257L26.4484 21.34L26.4914 21.3496L26.5394 21.3687L26.5824 21.383L26.6253 21.4021L26.6682 21.4212L26.7162 21.4403L26.7592 21.4642L26.7973 21.4833L26.8405 21.5072L26.8835 21.5311L26.9216 21.555L26.9648 21.5836L27.003 21.6074L27.0414 21.6361L27.0796 21.6648L27.1176 21.6934L27.0891 21.7316L27.0652 21.7698L27.0366 21.808L27.0078 21.8463L26.9793 21.8892L26.9552 21.9274L26.9264 21.9656L26.8979 22.0038L26.8739 22.042L26.8453 22.0803L26.8165 22.1184L26.7925 22.1566L26.764 22.1996L26.7351 22.2378L26.7066 22.276L26.6826 22.3142L26.6541 22.3524L26.6157 22.3238L26.5728 22.2999L26.5346 22.276L26.4962 22.2473L26.4533 22.2283L26.4148 22.2044L26.3719 22.1852L26.3338 22.1662L26.2905 22.147L26.2524 22.128L26.2095 22.1137L26.1711 22.0945L26.1185 22.0803L26.0707 22.0659L26.023 22.0516L25.975 22.042L25.9272 22.0325L25.8795 22.0229L25.8318 22.0181L25.7837 22.0134L25.7408 22.0086H25.693H25.6357L25.5832 22.0181L25.5351 22.0277L25.4922 22.0372L25.4541 22.0563L25.4204 22.0754L25.3775 22.1137L25.3487 22.1566L25.3298 22.1996L25.3249 22.2473V22.2569L25.3298 22.319L25.3535 22.3715L25.3727 22.4002L25.406 22.4336L25.4493 22.4575L25.4874 22.4813L25.5351 22.5005L25.5879 22.5196L25.6453 22.5386L25.6834 22.5482L25.7216 22.5625L25.7648 22.572L25.8077 22.5864L25.8555 22.596L25.9083 22.6103L25.9609 22.6246L26.0134 22.6389L26.0659 22.6485L26.1136 22.6628L26.1662 22.6771L26.2142 22.6867L26.262 22.701L26.3098 22.7153L26.3527 22.7297L26.4007 22.744L26.4437 22.7583L26.4866 22.7726L26.5394 22.7914L26.5871 22.8154L26.6348 22.8344L26.6826 22.8583L26.7259 22.8822L26.7688 22.9061L26.8069 22.9299L26.8453 22.9586L26.8835 22.9824L26.9216 23.0159L26.9601 23.0493L26.9934 23.0875L27.027 23.1209L27.0555 23.1592L27.0843 23.2021L27.1081 23.2403L27.1321 23.2833L27.1513 23.3215L27.1657 23.3644L27.1798 23.4074L27.1894 23.4504L27.199 23.4982L27.2086 23.546L27.2134 23.5937L27.2182 23.6462V23.6987V23.7083V23.7608L27.2134 23.8134ZM23.8605 24.7682H23.8125H23.7647H23.717H23.6693H23.6212H23.5735H23.5258H23.478H23.4252H23.3775H23.3297H23.282H23.2339H23.1862H23.1384H23.0907H23.0427H22.9949H22.9472H22.8995H22.8517H22.8037H22.756H22.7082H22.6605H22.6124H22.5647H22.517H22.4644H22.4164H22.3686H22.3209H22.2732H22.2252H22.1774H22.1297H22.0819H22.0339H21.9862H21.9384H21.8907H21.8426H21.7949H21.7471H21.6994H21.6514H21.6036H21.5511H21.5034H21.4556H21.4076H21.3599H21.3121H21.2644H21.2164H21.1686H21.1209V24.7204V24.6726V24.6249V24.5774V24.5296V24.4819V24.4341V24.3864V24.3386V24.2909V24.2431V24.1954V24.1476V24.0999V24.0521V24.0044V23.9566V23.9089V23.8659V23.8181V23.7704V23.7226V23.6749V23.6271V23.5794V23.5316V23.4838V23.4361V23.3884V23.3406V23.2929V23.2451V23.1974V23.1496V23.1018V23.0541V23.0063V22.9586V22.9109V22.8631V22.8154V22.7678V22.7201V22.6723V22.6246V22.5768V22.5291V22.4813V22.4336V22.3858V22.3381V22.2903V22.2426V22.1948V22.1518V22.1041V22.0563V22.0086V21.9608V21.9131V21.8653V21.8176V21.7698V21.7221V21.6743V21.6266V21.5788V21.5311V21.4833V21.4355V21.3878V21.34V21.2923H21.1686H21.2164H21.2644H21.3121H21.3599H21.4076H21.4556H21.5034H21.5511H21.5989H21.6469H21.6947H21.7423H21.7901H21.8333H21.8811H21.9288H21.9766H22.0246H22.0723H22.12H22.1678H22.2158H22.2635H22.3113H22.359H22.4071H22.4548H22.5025H22.5503H22.5983H22.6461H22.6938H22.7415H22.7893H22.8373H22.8851H22.9328H22.9805H23.0286H23.0763H23.124H23.1718H23.215H23.2628H23.3105H23.3583H23.4063H23.454H23.5017H23.5495H23.5975H23.6452H23.693H23.7407H23.7887H23.8365H23.8842V21.34V21.383V21.4308V21.4785V21.5263V21.5692V21.617V21.6648V21.7077V21.7555V21.8032V21.8463V21.894V21.9417V21.9895V22.0325V22.0803H23.8365H23.7887H23.7407H23.693H23.6452H23.5975H23.5543H23.5065H23.4588H23.411H23.363H23.3153H23.2675H23.2198H23.1718H23.124H23.0763H23.0286H22.9805H22.9376H22.8898H22.8421H22.7941H22.7464H22.6986H22.6509H22.6028H22.5551H22.5074H22.4596H22.4116H22.3638H22.3209H22.2732H22.2252H22.1774H22.1297H22.0819H22.0339V22.128V22.1757V22.2234V22.2712V22.319V22.362V22.4097V22.4575V22.5052V22.553V22.6007V22.6485H22.0819H22.1297H22.1774H22.2252H22.2732H22.3209H22.3686H22.4164H22.4596H22.5074H22.5551H22.6028H22.6509H22.6986H22.7464H22.7941H22.8421H22.8898H22.9376H22.9853H23.0333H23.0811H23.1288H23.1766H23.2246H23.2724H23.3153H23.363H23.411H23.4588H23.5065H23.5543H23.6023H23.6501H23.6978V22.6962V22.7392V22.7867V22.8344V22.8774V22.9251V22.9729V23.0159V23.0637V23.1114V23.1592V23.2021V23.2498V23.2976V23.3406V23.3884H23.6501H23.6023H23.5543H23.5065H23.4588H23.411H23.363H23.3153H23.2724H23.2246H23.1766H23.1288H23.0811H23.0333H22.9853H22.9376H22.8898H22.8421H22.7941H22.7464H22.6986H22.6509H22.6028H22.5551H22.5074H22.4596H22.4164H22.3686H22.3209H22.2732H22.2252H22.1774H22.1297H22.0819H22.0339V23.4361V23.4887V23.5364V23.5842V23.6367V23.6845V23.7322V23.7847V23.8324V23.8802V23.9327V23.9804H22.0819H22.1297H22.1774H22.2252H22.2732H22.3209H22.3686H22.4164H22.4644H22.517H22.5647H22.6124H22.6605H22.7082H22.756H22.8037H22.8517H22.8995H22.9472H22.9949H23.0427H23.0907H23.1384H23.1862H23.2339H23.282H23.3297H23.3775H23.4252H23.478H23.5258H23.5735H23.6212H23.6693H23.717H23.7647H23.8125H23.8605H23.9082V24.0282V24.0712V24.119V24.1667V24.2145V24.2575V24.3052V24.3529V24.396V24.4437V24.4914V24.5344V24.5819V24.6296V24.6774V24.7204V24.7682H23.8605ZM20.3672 24.7682H20.3194H20.2716H20.2189H20.1712H20.1234H20.0756H20.0276H19.9799H19.9273H19.8796H19.8318H19.7838H19.7361H19.6884H19.6358H19.5878H19.54H19.4923V24.7204V24.6726V24.6249V24.5771V24.5291V24.4813V24.4336V24.3858V24.3381V24.2903V24.2426V24.1946V24.1468V24.099V24.0513V24.0035V23.9555V23.9077V23.86V23.8122V23.7645V23.7167V23.6687V23.621V23.5732V23.5254V23.4777V23.4299V23.3819V23.3341V23.2864V23.2386V23.1909V23.1431V23.0951V23.0474V22.9996V22.9519V22.9041V22.856V22.8083V22.7605V22.7128L19.4683 22.751L19.4398 22.7943L19.4157 22.8324L19.3872 22.8707L19.3632 22.9136L19.3343 22.9519L19.3107 22.9901L19.2866 23.0333L19.2581 23.0715L19.2341 23.1097L19.2053 23.1479L19.1816 23.1912L19.1527 23.2294L19.129 23.2676L19.105 23.3105L19.0761 23.349L19.0524 23.3872L19.0236 23.4302L18.9999 23.4684L18.9711 23.5066L18.9474 23.5499L18.9233 23.5881L18.8946 23.6263L18.8708 23.6693L18.842 23.7077L18.8183 23.7459L18.7895 23.7842L18.7654 23.8271L18.7417 23.8656L18.7129 23.9038L18.6892 23.9468L18.6604 23.985L18.6364 24.0232L18.6078 24.0665L18.5838 24.1047H18.5649L18.5361 24.0617L18.512 24.0232L18.4835 23.9802L18.4595 23.942L18.4309 23.8991L18.4069 23.8606L18.3784 23.8176L18.3544 23.7793L18.3256 23.7364L18.3018 23.6982L18.273 23.6549L18.2493 23.6167L18.2205 23.5737L18.1965 23.5355L18.168 23.4923L18.1439 23.4541L18.1154 23.4111L18.0866 23.3729L18.0626 23.3297L18.0341 23.2915L18.0101 23.2485L17.9815 23.2103L17.9575 23.167L17.929 23.1288L17.905 23.0858L17.8761 23.0476L17.8524 23.0047L17.8236 22.9661L17.7999 22.9232L17.771 22.885L17.747 22.842L17.7185 22.8038L17.6944 22.7605L17.6659 22.7224V22.7701V22.8179V22.8656V22.9136V22.9614V23.0091V23.0569V23.1047V23.1527V23.2005V23.2434V23.2912V23.3389V23.3867V23.4347V23.4825V23.5302V23.5779V23.6257V23.6735V23.7215V23.7693V23.817V23.8648V23.9125V23.9603V24.0083V24.056V24.1038V24.1515V24.1993V24.2473V24.2903V24.3381V24.3858V24.4336V24.4813V24.5291V24.5771V24.6249V24.6726V24.7204V24.7682H17.6182H17.5702H17.5224H17.4747H17.427H17.379H17.3312H17.2835H17.2357H17.1877H17.14H17.0922H17.0445H16.9965H16.9487H16.901H16.8532H16.8052H16.7575V24.7204V24.6726V24.6249V24.5774V24.5296V24.4819V24.4341V24.3864V24.3386V24.2909V24.2431V24.1954V24.1476V24.0999V24.0521V24.0044V23.9566V23.9089V23.8659V23.8181V23.7704V23.7226V23.6749V23.6271V23.5794V23.5316V23.4838V23.4361V23.3884V23.3406V23.2929V23.2451V23.1974V23.1496V23.1018V23.0541V23.0063V22.9586V22.9109V22.8631V22.8154V22.7678V22.7201V22.6723V22.6246V22.5768V22.5291V22.4813V22.4336V22.3858V22.3381V22.2903V22.2426V22.1948V22.1518V22.1041V22.0563V22.0086V21.9608V21.9131V21.8653V21.8176V21.7698V21.7221V21.6743V21.6266V21.5788V21.5311V21.4833V21.4355V21.3878V21.34V21.2923H16.8052H16.8532H16.8962H16.9439H16.9916H17.0396H17.0826H17.1303H17.1784H17.2261H17.2691H17.3168H17.3648H17.4126H17.4555H17.5032H17.5513H17.599H17.6419H17.6897H17.7377L17.7615 21.3305L17.7855 21.3734L17.814 21.4114L17.838 21.4544L17.862 21.4925L17.8857 21.5356L17.9097 21.5734L17.9383 21.6165L17.9623 21.6547L17.9863 21.6929L18.0101 21.7355L18.0341 21.7738L18.0626 21.8167L18.0866 21.8549L18.1106 21.8976L18.1343 21.9358L18.1632 21.974L18.1872 22.0168L18.2109 22.0549L18.2349 22.0979L18.2587 22.1361L18.2875 22.1788L18.3115 22.217L18.3352 22.26L18.3592 22.2979L18.3829 22.3361L18.4118 22.3791L18.4358 22.4173L18.4595 22.4603L18.4835 22.4982L18.5072 22.5412L18.5361 22.5794L18.5601 22.6221L18.5838 22.6603L18.6078 22.6221L18.6318 22.5794L18.6604 22.5412L18.6843 22.4982L18.7081 22.4603L18.7321 22.4173L18.7606 22.3791L18.7846 22.3361L18.8087 22.2979L18.8324 22.26L18.8612 22.217L18.8849 22.1788L18.909 22.1361L18.9329 22.0979L18.9615 22.0549L18.9855 22.0168L19.0095 21.974L19.0332 21.9358L19.0573 21.8976L19.0858 21.8549L19.1098 21.8167L19.1338 21.7738L19.1576 21.7355L19.1863 21.6929L19.2101 21.6547L19.2341 21.6165L19.2581 21.5734L19.2866 21.5356L19.3107 21.4925L19.3343 21.4544L19.3584 21.4114L19.3872 21.3734L19.4109 21.3305L19.4349 21.2923H19.4827H19.5304H19.5736H19.6214H19.6691H19.7169H19.7601H19.8079H19.8555H19.9033H19.9466H19.9943H20.042H20.0898H20.133H20.1807H20.2285H20.2762H20.3194H20.3672H20.4149V21.34V21.3878V21.4355V21.4833V21.5311V21.5788V21.6266V21.6743V21.7221V21.7698V21.8176V21.8653V21.9131V21.9608V22.0086V22.0563V22.1041V22.1518V22.1948V22.2426V22.2903V22.3381V22.3858V22.4336V22.4813V22.5291V22.5768V22.6246V22.6723V22.7201V22.7678V22.8154V22.8631V22.9109V22.9586V23.0063V23.0541V23.1018V23.1496V23.1974V23.2451V23.2929V23.3406V23.3884V23.4361V23.4838V23.5316V23.5794V23.6271V23.6749V23.7226V23.7704V23.8181V23.8659V23.9089V23.9566V24.0044V24.0521V24.0999V24.1476V24.1954V24.2431V24.2909V24.3386V24.3864V24.4341V24.4819V24.5296V24.5774V24.6249V24.6726V24.7204V24.7682H20.3672ZM14.8198 23.3358L14.8054 23.2926L14.7865 23.2448L14.7673 23.2018L14.7529 23.1586L14.734 23.1156L14.7148 23.0678L14.7003 23.0246L14.6811 22.9816L14.6622 22.9387L14.6478 22.8954L14.6285 22.8476L14.6145 22.8046L14.5952 22.7614L14.576 22.7184L14.5616 22.6754L14.5427 22.6274L14.5235 22.5844L14.5091 22.5415L14.4899 22.4982L14.471 22.4504L14.4565 22.4072L14.4373 22.3642L14.4184 22.4072L14.404 22.4504L14.3848 22.4982L14.3656 22.5415L14.3514 22.5844L14.3323 22.6274L14.313 22.6754L14.2941 22.7184L14.2797 22.7614L14.2605 22.8046L14.2413 22.8476L14.2271 22.8954L14.2079 22.9387L14.1887 22.9816L14.1744 23.0246L14.1554 23.0678L14.1362 23.1156L14.117 23.1586L14.1029 23.2018L14.0837 23.2448L14.0644 23.2926L14.05 23.3358L14.0311 23.3788H14.0788H14.1266H14.1744H14.2224H14.2701H14.3178H14.3656H14.4136H14.4565H14.5043H14.5523H14.6H14.6478H14.6956H14.7433H14.7913H14.839L14.8198 23.3358ZM16.3213 24.7682H16.2733H16.2303H16.1826H16.1346H16.0869H16.0391H15.9962H15.9481H15.9004H15.8527H15.8049H15.7569H15.7139H15.6662H15.6184H15.5704H15.5227H15.4797H15.432H15.384L15.365 24.7251L15.3506 24.6821L15.3315 24.6392L15.3122 24.5914L15.2981 24.5487L15.2789 24.5058L15.2597 24.4628L15.2455 24.4198L15.2264 24.3768L15.2071 24.3339L15.1928 24.2909L15.1738 24.2431L15.1546 24.2002L15.1402 24.1572L15.1209 24.1142H15.0732H15.0255H14.9777H14.93H14.8868H14.839H14.7913H14.7433H14.6956H14.6478H14.6H14.5523H14.5043H14.4565H14.4136H14.3656H14.3178H14.2701H14.2224H14.1744H14.1266H14.0788H14.0311H13.9834H13.9401H13.8924H13.8447H13.7966H13.7489L13.73 24.1572L13.7156 24.2002L13.6963 24.2431L13.6771 24.2909L13.663 24.3339L13.6438 24.3768L13.6246 24.4198L13.6102 24.4628L13.5913 24.5058L13.5721 24.5487L13.5576 24.5914L13.5387 24.6392L13.5195 24.6821L13.5051 24.7251L13.4859 24.7682H13.4381H13.3904H13.3427H13.2946H13.2469H13.1943H13.1466H13.0988H13.0508H13.0031H12.9554H12.9076H12.8596H12.8119H12.7642H12.7116H12.6636H12.6158H12.568H12.5203L12.5392 24.7251L12.5585 24.6821L12.5776 24.6392L12.5966 24.5914L12.611 24.5487L12.6302 24.5058L12.6494 24.4628L12.6683 24.4198L12.6876 24.3768L12.7068 24.3291L12.7257 24.2861L12.7449 24.2431L12.7593 24.2002L12.7785 24.1572L12.7974 24.1142L12.8167 24.0665L12.8358 24.0235L12.8548 23.9804L12.874 23.9375L12.8932 23.8945L12.9076 23.8515L12.9265 23.8038L12.9457 23.7608L12.965 23.7179L12.9839 23.6749L13.0031 23.6319L13.0223 23.5889L13.0413 23.5411L13.0557 23.4982L13.0749 23.4552L13.0941 23.4122L13.113 23.3692L13.1322 23.3263L13.1514 23.2785L13.1704 23.2356L13.1895 23.1926L13.2039 23.1496L13.2232 23.1067L13.2421 23.0637L13.2613 23.0159L13.2805 22.9729L13.2994 22.9299L13.3186 22.8869L13.3379 22.844L13.3523 22.801L13.3712 22.7583L13.3904 22.7105L13.4096 22.6676L13.4285 22.6246L13.4477 22.5816L13.467 22.5386L13.4859 22.4957L13.5003 22.4479L13.5195 22.405L13.5387 22.362L13.5576 22.319L13.5769 22.276L13.596 22.233L13.615 22.1852L13.6342 22.1423L13.6486 22.0993L13.6678 22.0563L13.6867 22.0134L13.7059 21.9704L13.7251 21.9226L13.7441 21.8797L13.7633 21.8367L13.7825 21.7937L13.7966 21.7508L13.8158 21.7077L13.8351 21.66L13.8543 21.617L13.8732 21.574L13.8924 21.5311L13.9116 21.4881L13.9305 21.4451L13.945 21.3974L13.9642 21.3544L13.9834 21.3114L14.0023 21.2684H14.05H14.0933H14.141H14.1887H14.2368H14.2797H14.3274H14.3752H14.4232H14.4662H14.5139H14.5616H14.6096H14.6526H14.7003H14.7481H14.7961H14.839H14.8868L14.906 21.3114L14.9252 21.3544L14.9442 21.3974L14.9633 21.4451L14.9777 21.4881L14.9967 21.5311L15.0159 21.574L15.0351 21.617L15.0543 21.66L15.0732 21.7077L15.0924 21.7508L15.1117 21.7937L15.1258 21.8367L15.145 21.8797L15.1642 21.9226L15.1834 21.9704L15.2024 22.0134L15.2215 22.0563L15.2408 22.0993L15.2597 22.1423L15.2741 22.1852L15.2933 22.233L15.3122 22.276L15.3315 22.319L15.3506 22.362L15.3699 22.405L15.3888 22.4479L15.4079 22.4957L15.4224 22.5386L15.4413 22.5816L15.4605 22.6246L15.4797 22.6676L15.499 22.7105L15.5179 22.7583L15.5371 22.801L15.5563 22.844L15.5704 22.8869L15.5896 22.9299L15.6088 22.9729L15.6278 23.0159L15.647 23.0637L15.6662 23.1067L15.6854 23.1496L15.7043 23.1926L15.7187 23.2356L15.7379 23.2785L15.7569 23.3263L15.7761 23.3692L15.7953 23.4122L15.8145 23.4552L15.8334 23.4982L15.8527 23.5411L15.867 23.5889L15.886 23.6319L15.9052 23.6749L15.9244 23.7179L15.9433 23.7608L15.9625 23.8038L15.9818 23.8515L16.001 23.8945L16.0151 23.9375L16.0343 23.9804L16.0535 24.0235L16.0724 24.0665L16.0916 24.1142L16.1108 24.1572L16.13 24.2002L16.1489 24.2431L16.1634 24.2861L16.1826 24.3291L16.2015 24.3768L16.2207 24.4198L16.2399 24.4628L16.2589 24.5058L16.278 24.5487L16.2973 24.5914L16.3117 24.6392L16.3306 24.6821L16.3498 24.7251L16.369 24.7682H16.3213ZM12.1328 24.3243L12.0944 24.3529L12.061 24.3768L12.0226 24.4055L11.9844 24.4294L11.9463 24.458L11.9079 24.4819L11.8698 24.5058L11.8265 24.5296L11.7836 24.5535L11.7406 24.5774L11.6974 24.5962L11.6545 24.6201L11.6067 24.6392L11.5638 24.6583L11.5158 24.6774L11.4729 24.6965L11.4299 24.7108L11.3867 24.7251L11.3437 24.7395L11.296 24.7538L11.2531 24.7682L11.205 24.7777L11.1621 24.7872L11.1144 24.7968L11.0664 24.8063L11.0186 24.8111L10.966 24.8159L10.9183 24.8207L10.8657 24.8254L10.8177 24.8302L10.7652 24.835H10.7127H10.6601H10.6076H10.5595L10.5118 24.8302L10.4592 24.8254L10.4115 24.8207L10.3638 24.8159L10.3157 24.8111L10.268 24.8016L10.2202 24.792L10.1773 24.7824L10.1293 24.7729L10.0864 24.7586L10.0386 24.749L9.99539 24.7347L9.95243 24.7156L9.90947 24.7013L9.8618 24.6821L9.81857 24.6631L9.77561 24.644L9.7327 24.6249L9.68942 24.601L9.65133 24.5774L9.60837 24.5535L9.56997 24.5296L9.53183 24.5058L9.49342 24.4771L9.45528 24.4485L9.41709 24.4198L9.3835 24.3912L9.35018 24.3625L9.31654 24.3291L9.28322 24.3005L9.24958 24.267L9.21626 24.2336L9.18745 24.2002L9.1589 24.162L9.13008 24.1285L9.10608 24.0903L9.07753 24.0521L9.05358 24.014L9.0298 23.9757L9.0058 23.9327L8.9818 23.8945L8.96289 23.8515L8.94366 23.8086L8.92449 23.7656L8.90552 23.7226L8.89112 23.6845L8.87188 23.6414L8.86229 23.5984L8.84815 23.5555L8.83857 23.5078L8.82416 23.4647L8.81457 23.417L8.80975 23.374L8.8001 23.3263L8.79539 23.2833L8.79052 23.2356L8.78602 23.1878L8.78125 23.14V23.0875V23.0398V23.0302V22.9824L8.78602 22.9299V22.8822L8.79052 22.8344L8.79539 22.7819L8.80498 22.7344L8.80975 22.6867L8.81934 22.6437L8.83374 22.596L8.84339 22.5482L8.85747 22.5052L8.87188 22.4575L8.88629 22.4145L8.90552 22.3667L8.92449 22.3238L8.94366 22.2808L8.96289 22.2378L8.9818 22.1948L9.0058 22.1518L9.0298 22.1137L9.05358 22.0754L9.07753 22.0372L9.10158 21.999L9.13008 21.9608L9.1589 21.9226L9.18745 21.8845L9.21626 21.851L9.24958 21.8176L9.2784 21.7841L9.31178 21.7508L9.34536 21.7173L9.37868 21.6887L9.41709 21.6552L9.45046 21.6266L9.4886 21.5979L9.52701 21.574L9.56515 21.5454L9.60361 21.5215L9.64169 21.4977L9.68465 21.4737L9.72788 21.4499L9.77079 21.426L9.81375 21.4069L9.85692 21.3878L9.90471 21.3639L9.94285 21.3496L9.99057 21.3353L10.0339 21.3162L10.0768 21.3066L10.1197 21.2923L10.1677 21.2827L10.2106 21.2684L10.2584 21.2589L10.3061 21.2541L10.3541 21.2445L10.4019 21.2398L10.4496 21.235L10.4974 21.2302L10.5454 21.2254H10.598H10.6457H10.6982H10.7507L10.8036 21.2302L10.8562 21.235H10.9039L10.9516 21.2398L11.0042 21.2493L11.0474 21.2541L11.0951 21.2637L11.1429 21.2732L11.1861 21.2827L11.229 21.2923L11.272 21.3019L11.3152 21.3162L11.3581 21.3257L11.3963 21.34L11.4395 21.3544L11.4825 21.3734L11.5254 21.3926L11.5686 21.4117L11.6116 21.4355L11.6545 21.4547L11.6929 21.4785L11.7358 21.5024L11.774 21.5263L11.8172 21.5502L11.8553 21.5788L11.8935 21.6027L11.9319 21.6313L11.97 21.66L12.0084 21.6934L12.0466 21.7221L12.0178 21.7603L11.9844 21.7937L11.9556 21.8319L11.9223 21.8701L11.8935 21.9083L11.8649 21.9417L11.8313 21.9799L11.8028 22.0181L11.774 22.0516L11.7406 22.0898L11.7118 22.128L11.6785 22.1662L11.6496 22.1996L11.6211 22.2378L11.5876 22.276L11.559 22.3142L11.5254 22.3476L11.4968 22.3858L11.4584 22.3572L11.4203 22.3238L11.3819 22.2999L11.3437 22.2712L11.3056 22.2473L11.2672 22.2234L11.229 22.1996L11.1861 22.1757L11.1477 22.1566L11.1095 22.1375L11.0711 22.1232L11.0282 22.1089L10.9853 22.0945L10.942 22.085L10.8943 22.0754L10.8466 22.0659L10.7988 22.0611L10.7462 22.0563L10.6934 22.0516H10.6409H10.5931L10.5454 22.0563L10.5022 22.0611L10.4545 22.0707L10.4115 22.0803L10.3683 22.0945L10.3254 22.1089L10.2824 22.128L10.2394 22.147L10.201 22.1709L10.163 22.1948L10.1245 22.2187L10.0912 22.2473L10.0575 22.276L10.0242 22.3047L9.99539 22.3381L9.96208 22.3715L9.93326 22.4097L9.90947 22.4431L9.88548 22.4813L9.8618 22.5243L9.83775 22.5625L9.81857 22.6055L9.80416 22.6485L9.7852 22.6915L9.77079 22.7392L9.7612 22.7867L9.75161 22.8296L9.74197 22.8822L9.7372 22.9299L9.7327 22.9776V23.0302V23.0398V23.0875L9.7372 23.1353L9.74197 23.1782L9.74679 23.226L9.75638 23.2689L9.76602 23.312L9.77561 23.3549L9.79002 23.3979L9.80416 23.4361L9.82339 23.4838L9.84257 23.5269L9.8663 23.5698L9.8903 23.608L9.91429 23.6462L9.94285 23.6845L9.97166 23.7179L10.005 23.7513L10.0339 23.7847L10.0671 23.8134L10.1056 23.842L10.1437 23.8707L10.1818 23.8945L10.2202 23.9184L10.2632 23.9375L10.3061 23.9566L10.3493 23.9757L10.3971 23.99L10.4448 24.0044L10.4929 24.014L10.5406 24.0235L10.5883 24.0282L10.6409 24.033H10.6934H10.7507L10.8036 24.0282L10.8562 24.0235L10.9039 24.0187L10.9516 24.0091L10.9997 23.9996L11.0474 23.9853L11.0903 23.9757L11.1333 23.9566L11.1717 23.9375L11.2146 23.9184L11.2482 23.8993L11.2864 23.8754V23.8277V23.78V23.7322V23.6845V23.6319V23.5842V23.5364V23.4887V23.4409H11.2386H11.1955H11.1477H11.0999H11.0522H11.009H10.9612H10.9135H10.8657H10.8226H10.7748H10.7271H10.6793H10.6361H10.5883V23.3932V23.3502V23.3024V23.2547V23.2069V23.1639V23.1162V23.0684V23.0207V22.9776V22.9299V22.8822V22.8344V22.7914V22.744H10.6361H10.6841H10.7319H10.7796H10.8273H10.8751H10.9231H10.9708H11.0186H11.0664H11.1144H11.1621H11.2098H11.2575H11.3056H11.3534H11.4011H11.4488H11.4968H11.5446H11.5923H11.6401H11.6881H11.7358H11.7836H11.8313H11.8793H11.9271H11.9748H12.0226H12.0706H12.1183H12.1661V22.7914V22.8392V22.8869V22.9299V22.9776V23.0254V23.0731V23.1209V23.1687V23.2116V23.2594V23.3072V23.3549V23.4027V23.4504V23.4982V23.5411V23.5889V23.6367V23.6845V23.7322V23.78V23.8277V23.8707V23.9184V23.9662V24.014V24.0617V24.1094V24.1524V24.2002V24.2479V24.2957L12.1328 24.3243Z" fill="#2F2D2E"/>
      <path d="M10.5956 13.4281H12.6677V11.8343H10.5956V8.58062H12.7502V6.98685H8.83594V18.4893H12.783V16.8954H10.5956V13.4281Z" fill="#2F2D2E"/>
      <path d="M25.4374 13.7734V16.3697C25.4374 16.8298 25.2235 17.0433 24.7797 17.0433H24.4506C23.9902 17.0433 23.7763 16.8298 23.7763 16.3697V9.10648C23.7763 8.64639 23.9902 8.43291 24.4506 8.43291H24.7466C25.1907 8.43291 25.4046 8.64639 25.4046 9.10648V11.3579H27.1312V9.00789C27.1312 7.57845 26.4405 6.88825 25.01 6.88825H24.1546C22.724 6.88825 22.0166 7.59474 22.0166 9.02446V16.4517C22.0166 17.8815 22.724 18.5879 24.1546 18.5879H25.0263C26.4572 18.5879 27.1642 17.8815 27.1642 16.4517V13.7734H25.4374Z" fill="#2F2D2E"/>
      <path d="M19.3271 18.4893H21.087V6.9868H19.3271V18.4893Z" fill="#2F2D2E"/>
      <path d="M16.7729 12.0972C16.7729 12.5573 16.5593 12.7711 16.1152 12.7711H15.3915V8.53146H16.1152C16.5593 8.53146 16.7729 8.74499 16.7729 9.20503V12.0972ZM16.3947 6.9868H13.6318V18.4893H15.3915V14.3154H16.3947C17.8255 14.3154 18.5326 13.6089 18.5326 12.1795V9.123C18.5326 7.69329 17.8255 6.9868 16.3947 6.9868Z" fill="#2F2D2E"/>
      <path fill-rule="evenodd" clip-rule="evenodd" d="M12.9873 28.8897H23.0608L17.9191 30.5757L12.9873 28.8897Z" fill="#2F2D2E"/>
    </g>
  </g>
  <defs>
    <clipPath id="clip0_5684_5592">
      <rect width="26" height="30" fill="white" transform="translate(5 3)"/>
    </clipPath>
  </defs>
</svg>
