<svg width="36" height="36" viewBox="0 0 36 36" fill="none" xmlns="http://www.w3.org/2000/svg">
<path d="M0 4C0 1.79086 1.79086 0 4 0H32C34.2091 0 36 1.79086 36 4V32C36 34.2091 34.2091 36 32 36H4C1.79086 36 0 34.2091 0 32V4Z" fill="white" fill-opacity="0.1"/>
<path d="M16.9998 4.6665C11.3745 4.67184 8.46517 4.77317 6.6185 6.6185C4.77317 8.4665 4.67184 11.3745 4.6665 16.9998H11.2185C10.7395 16.4012 10.3953 15.7063 10.2092 14.9625C9.49317 12.0932 12.0932 9.49317 14.9625 10.2092C15.7252 10.3998 16.4158 10.7505 16.9998 11.2185V4.6665ZM4.6665 18.9998C4.67184 24.6238 4.77317 27.5332 6.6185 29.3798C8.4665 31.2265 11.3745 31.3265 16.9998 31.3332V20.8305C16.4739 21.8831 15.6652 22.7684 14.6642 23.3871C13.6633 24.0058 12.5099 24.3334 11.3332 24.3332C11.068 24.3332 10.8136 24.2278 10.6261 24.0403C10.4385 23.8527 10.3332 23.5984 10.3332 23.3332C10.3332 23.068 10.4385 22.8136 10.6261 22.6261C10.8136 22.4385 11.068 22.3332 11.3332 22.3332C12.3087 22.3334 13.2558 22.0044 14.0212 21.3995C14.7865 20.7946 15.3254 19.9491 15.5505 18.9998H4.6665ZM18.9998 31.3332C24.6238 31.3265 27.5332 31.2265 29.3798 29.3798C31.2265 27.5345 31.3265 24.6238 31.3332 18.9998H20.4492C20.6743 19.9491 21.2131 20.7946 21.9785 21.3995C22.7439 22.0044 23.6909 22.3334 24.6665 22.3332C24.9317 22.3332 25.1861 22.4385 25.3736 22.6261C25.5611 22.8136 25.6665 23.068 25.6665 23.3332C25.6665 23.5984 25.5611 23.8527 25.3736 24.0403C25.1861 24.2278 24.9317 24.3332 24.6665 24.3332C23.4898 24.3334 22.3363 24.0058 21.3354 23.3871C20.3345 22.7684 19.5258 21.8831 18.9998 20.8305V31.3332ZM31.3332 16.9998C31.3265 11.3745 31.2265 8.46517 29.3798 6.6185C27.5345 4.77317 24.6238 4.67184 18.9998 4.6665V11.2185C19.5981 10.7397 20.2925 10.3954 21.0358 10.2092C23.9065 9.49184 26.5078 12.0918 25.7892 14.9625C25.6035 15.7062 25.2597 16.401 24.7812 16.9998H31.3332Z" fill="#0D91EC"/>
<path d="M14.4772 12.1509C15.1972 12.3314 15.8364 12.7471 16.2934 13.3321C16.7503 13.9171 16.999 14.6379 16.9999 15.3802V17.0002H15.3799C14.6375 16.9993 13.9167 16.7507 13.3318 16.2937C12.7468 15.8367 12.3311 15.1976 12.1505 14.4775C12.0706 14.1562 12.0751 13.8196 12.1637 13.5005C12.2523 13.1814 12.4219 12.8906 12.6561 12.6565C12.8903 12.4223 13.181 12.2527 13.5001 12.1641C13.8192 12.0755 14.1558 12.0709 14.4772 12.1509ZM18.9999 15.3802V17.0002H20.6199C22.1465 17.0002 23.4785 15.9602 23.8492 14.4775C23.9292 14.156 23.9247 13.8193 23.836 13.5C23.7474 13.1808 23.5776 12.8899 23.3433 12.6557C23.109 12.4215 22.818 12.2519 22.4987 12.1635C22.1794 12.075 21.8427 12.0707 21.5212 12.1509C20.8014 12.3317 20.1625 12.7475 19.7058 13.3324C19.2491 13.9174 19.0007 14.6381 18.9999 15.3802Z" fill="white"/>
</svg>
