<svg width="36" height="36" viewBox="0 0 36 36" fill="none" xmlns="http://www.w3.org/2000/svg">
<g clip-path="url(#clip0_730_9146)">
<path d="M0 4C0 1.79086 1.79086 0 4 0H32C34.2091 0 36 1.79086 36 4V32C36 34.2091 34.2091 36 32 36H4C1.79086 36 0 34.2091 0 32V4Z" fill="white" fill-opacity="0.1"/>
<path d="M17.1701 1.94806L8.38325 11.3849C7.73324 12.0883 8.24396 13.1991 9.20738 13.1991H13.4325C13.6268 13.1982 13.8137 13.2738 13.9527 13.4095C14.0917 13.5453 14.1717 13.7303 14.1754 13.9246V19.9546C14.1637 20.6917 14.7905 21.293 15.545 21.293H20.4434C21.2095 21.293 21.8246 20.6917 21.8246 19.943V13.913C21.8246 13.5172 22.1613 13.1875 22.5675 13.1875H26.7926C27.756 13.1875 28.2668 12.0651 27.6167 11.3733L18.8299 1.93645C18.7219 1.82519 18.5924 1.73695 18.4494 1.67705C18.3063 1.61715 18.1526 1.58683 17.9975 1.58792C17.8424 1.589 17.6892 1.62147 17.547 1.68336C17.4048 1.74526 17.2766 1.8353 17.1701 1.94806Z" fill="#3DC67D"/>
<path d="M14.0997 33.0609C13.4037 33.0609 12.7917 32.9209 12.2637 32.6409C11.7357 32.3569 11.3237 31.9589 11.0277 31.4469C10.7317 30.9349 10.5837 30.3329 10.5837 29.6409V24.2529L12.2397 24.2409V29.6289C12.2397 29.9129 12.2877 30.1709 12.3837 30.4029C12.4797 30.6349 12.6117 30.8349 12.7797 31.0029C12.9517 31.1709 13.1497 31.3009 13.3737 31.3929C13.6017 31.4809 13.8437 31.5249 14.0997 31.5249C14.3637 31.5249 14.6077 31.4789 14.8317 31.3869C15.0597 31.2949 15.2577 31.1649 15.4257 30.9969C15.5937 30.8289 15.7237 30.6289 15.8157 30.3969C15.9117 30.1649 15.9597 29.9089 15.9597 29.6289V24.2409H17.6157V29.6409C17.6157 30.3329 17.4677 30.9349 17.1717 31.4469C16.8757 31.9589 16.4637 32.3569 15.9357 32.6409C15.4077 32.9209 14.7957 33.0609 14.0997 33.0609ZM19.2907 32.8809V24.2409H22.9387C23.0227 24.2409 23.1347 24.2449 23.2747 24.2529C23.4187 24.2569 23.5467 24.2689 23.6587 24.2889C24.1747 24.3689 24.5967 24.5389 24.9247 24.7989C25.2567 25.0589 25.5007 25.3869 25.6567 25.7829C25.8127 26.1749 25.8907 26.6129 25.8907 27.0969C25.8907 27.5809 25.8107 28.0209 25.6507 28.4169C25.4947 28.8089 25.2507 29.1349 24.9187 29.3949C24.5907 29.6549 24.1707 29.8249 23.6587 29.9049C23.5467 29.9209 23.4187 29.9329 23.2747 29.9409C23.1307 29.9489 23.0187 29.9529 22.9387 29.9529H20.9227V32.8809H19.2907ZM20.9227 28.4289H22.8667C22.9507 28.4289 23.0427 28.4249 23.1427 28.4169C23.2427 28.4089 23.3347 28.3929 23.4187 28.3689C23.6387 28.3089 23.8087 28.2089 23.9287 28.0689C24.0487 27.9249 24.1307 27.7669 24.1747 27.5949C24.2227 27.4189 24.2467 27.2529 24.2467 27.0969C24.2467 26.9409 24.2227 26.7769 24.1747 26.6049C24.1307 26.4289 24.0487 26.2709 23.9287 26.1309C23.8087 25.9869 23.6387 25.8849 23.4187 25.8249C23.3347 25.8009 23.2427 25.7849 23.1427 25.7769C23.0427 25.7689 22.9507 25.7649 22.8667 25.7649H20.9227V28.4289Z" fill="white"/>
</g>
<defs>
<clipPath id="clip0_730_9146">
<path d="M0 4C0 1.79086 1.79086 0 4 0H32C34.2091 0 36 1.79086 36 4V32C36 34.2091 34.2091 36 32 36H4C1.79086 36 0 34.2091 0 32V4Z" fill="white"/>
</clipPath>
</defs>
</svg>
