<svg width="36" height="36" viewBox="0 0 36 36" fill="none" xmlns="http://www.w3.org/2000/svg">
<g clip-path="url(#clip0_730_9134)">
<path d="M0 4C0 1.79086 1.79086 0 4 0H32C34.2091 0 36 1.79086 36 4V32C36 34.2091 34.2091 36 32 36H4C1.79086 36 0 34.2091 0 32V4Z" fill="white" fill-opacity="0.1"/>
<path d="M14.5098 -6.85113C12.693 -7.47924 10.5608 -6.44146 9.93426 -4.62415L5.47399 8.29484C5.37423 8.58394 5.39337 8.90084 5.52722 9.17583C5.66106 9.45083 5.89864 9.6614 6.18772 9.76126L10.8132 11.3582C10.9563 11.4081 11.1079 11.4292 11.2592 11.4202C11.4105 11.4113 11.5586 11.3726 11.6948 11.3063C11.8311 11.2399 11.9529 11.1473 12.0533 11.0338C12.1537 10.9202 12.2306 10.7879 12.2796 10.6445L16.7399 -2.27451C17.0505 -3.17715 16.9901 -4.16617 16.5719 -5.0243C16.1538 -5.88243 15.4121 -6.53949 14.5098 -6.85113ZM14.5597 -3.0272L10.4758 8.80171L8.03048 7.95746L12.1144 -3.87145C12.2328 -4.19108 12.4702 -4.45259 12.7769 -4.60138C13.0835 -4.75017 13.4359 -4.77472 13.7602 -4.66992C14.0835 -4.55735 14.3491 -4.32136 14.4989 -4.01354C14.6488 -3.70572 14.6706 -3.3511 14.5597 -3.0272ZM7.04127 12.2872C5.40935 12.2682 3.41152 14.0538 4.42103 16.1279C5.02522 17.3693 5.94908 17.9497 4.37969 19.9963C4.37969 19.9963 8.88588 20.6892 10.0836 17.2201C10.7618 15.2558 9.61394 12.3177 7.04127 12.2872Z" fill="#516AF2"/>
<g filter="url(#filter0_d_730_9134)">
<path d="M25.7676 20.3665C23.8468 20.3665 22.2105 19.7005 20.8586 18.3686C19.5067 17.0366 18.8307 15.4245 18.8307 13.5321C18.8307 11.6398 19.5067 10.0276 20.8586 8.69567C22.2105 7.36372 23.8468 6.69775 25.7676 6.69775C27.6883 6.69775 29.3247 7.36372 30.6766 8.69567C32.0285 10.0276 32.7045 11.6398 32.7045 13.5321C32.7045 15.4245 32.0285 17.0366 30.6766 18.3686C29.3247 19.7005 27.6883 20.3665 25.7676 20.3665ZM9.58154 34.4726V33.0875C9.58154 32.1474 9.85902 31.268 10.414 30.4494C10.9705 29.6293 11.7181 28.993 12.6569 28.5404C14.8397 27.5091 17.024 26.7361 19.2099 26.2212C21.3943 25.7049 23.5802 25.4467 25.7676 25.4467C27.955 25.4467 30.1417 25.7049 32.3276 26.2212C34.5134 26.7376 36.6963 27.5107 38.876 28.5404C39.8163 28.993 40.5639 29.6293 41.1189 30.4494C41.6754 31.268 41.9536 32.1474 41.9536 33.0875V34.4726C41.9536 35.1409 41.7232 35.7028 41.2623 36.1584C40.8013 36.611 40.231 36.8373 39.5512 36.8373H11.9863C11.3065 36.8373 10.7361 36.6102 10.2752 36.1561C9.81431 35.702 9.58308 35.1409 9.58154 34.4726Z" fill="white"/>
</g>
</g>
<defs>
<filter id="filter0_d_730_9134" x="7.58154" y="6.69775" width="36.3721" height="34.1396" filterUnits="userSpaceOnUse" color-interpolation-filters="sRGB">
<feFlood flood-opacity="0" result="BackgroundImageFix"/>
<feColorMatrix in="SourceAlpha" type="matrix" values="0 0 0 0 0 0 0 0 0 0 0 0 0 0 0 0 0 0 127 0" result="hardAlpha"/>
<feOffset dy="2"/>
<feGaussianBlur stdDeviation="1"/>
<feComposite in2="hardAlpha" operator="out"/>
<feColorMatrix type="matrix" values="0 0 0 0 0 0 0 0 0 0 0 0 0 0 0 0 0 0 0.1 0"/>
<feBlend mode="normal" in2="BackgroundImageFix" result="effect1_dropShadow_730_9134"/>
<feBlend mode="normal" in="SourceGraphic" in2="effect1_dropShadow_730_9134" result="shape"/>
</filter>
<clipPath id="clip0_730_9134">
<path d="M0 4C0 1.79086 1.79086 0 4 0H32C34.2091 0 36 1.79086 36 4V32C36 34.2091 34.2091 36 32 36H4C1.79086 36 0 34.2091 0 32V4Z" fill="white"/>
</clipPath>
</defs>
</svg>
