<svg width="36" height="36" viewBox="0 0 36 36" fill="none" xmlns="http://www.w3.org/2000/svg">
<path d="M0 4C0 1.79086 1.79086 0 4 0H32C34.2091 0 36 1.79086 36 4V32C36 34.2091 34.2091 36 32 36H4C1.79086 36 0 34.2091 0 32V4Z" fill="white" fill-opacity="0.1"/>
<path d="M20.4432 30.7077L19.6301 32.0816C18.9053 33.306 17.0948 33.306 16.37 32.0816L15.5568 30.7077C14.9261 29.6421 14.6107 29.1095 14.1042 28.8147C13.5976 28.5201 12.9599 28.5092 11.6844 28.4873C9.80133 28.4547 8.62034 28.3394 7.62987 27.9291C5.79216 27.1679 4.33211 25.7079 3.5709 23.8701C3 22.4919 3 20.7446 3 17.25V15.75C3 10.8399 3 8.38478 4.1052 6.58127C4.72362 5.5721 5.57209 4.72362 6.58126 4.1052C8.38478 3 10.8399 3 15.75 3H20.25C25.1601 3 27.6152 3 29.4188 4.1052C30.428 4.72362 31.2764 5.5721 31.8948 6.58127C33 8.38478 33 10.8399 33 15.75V17.25C33 20.7446 33 22.4919 32.4291 23.8701C31.6679 25.7079 30.2079 27.1679 28.3701 27.9291C27.3797 28.3394 26.1987 28.4547 24.3156 28.4873C23.04 28.5092 22.4024 28.5201 21.8958 28.8147C21.3893 29.1093 21.0738 29.6421 20.4432 30.7077Z" fill="#3DC67D"/>
<path d="M7.67463 21.6136C7.51589 21.6611 7.34874 21.5709 7.30129 21.4121L6.87864 19.9979C6.8312 19.8392 6.66405 19.7489 6.5053 19.7964L5.09111 20.219C4.93236 20.2665 4.76521 20.1762 4.71777 20.0175L4.52878 19.3851C4.48133 19.2264 4.57156 19.0592 4.73031 19.0118L6.1445 18.5891C6.30325 18.5417 6.39348 18.3745 6.34604 18.2158L5.92682 16.8131C5.87938 16.6544 5.96961 16.4872 6.12836 16.4398L6.76072 16.2508C6.91947 16.2033 7.08662 16.2936 7.13406 16.4523L7.55327 17.855C7.60072 18.0138 7.76787 18.104 7.92662 18.0565L9.32931 17.6373C9.48806 17.5899 9.65521 17.6801 9.70265 17.8389L9.89164 18.4712C9.93909 18.63 9.84886 18.7971 9.69011 18.8446L8.28742 19.2638C8.12867 19.3112 8.03844 19.4784 8.08588 19.6371L8.50853 21.0513C8.55598 21.2101 8.46575 21.3772 8.307 21.4247L7.67463 21.6136Z" fill="#184F32"/>
<path d="M12.8216 21.7662C12.6629 21.8137 12.4957 21.7234 12.4483 21.5647L10.146 13.8613C10.0986 13.7026 10.1888 13.5354 10.3475 13.488L13.5554 12.5293C13.6358 12.5053 13.7443 12.477 13.8807 12.4446C14.0198 12.4072 14.1459 12.382 14.259 12.3691C14.7763 12.298 15.2293 12.3401 15.618 12.4953C16.0105 12.6493 16.3382 12.8937 16.6011 13.2284C16.8628 13.5594 17.063 13.9567 17.2016 14.4204C17.4089 15.1141 17.4139 15.7597 17.2168 16.3572C17.0185 16.9508 16.5686 17.4151 15.8671 17.75L15.191 18.0021L13.5468 18.4935C13.3881 18.5409 13.2979 18.7081 13.3453 18.8668L14.0119 21.0974C14.0594 21.2561 13.9691 21.4233 13.8104 21.4707L12.8216 21.7662ZM17.3823 20.4032C17.2721 20.4361 17.1528 20.4032 17.0752 20.3184L14.8265 17.8642C14.6934 17.7188 14.7342 17.4867 14.9089 17.3955L15.8758 16.891C15.996 16.8283 16.1434 16.854 16.2353 16.9538L18.6477 19.5747C18.7978 19.7378 18.7253 20.0018 18.5129 20.0653L17.3823 20.4032ZM12.7371 16.8318C12.7845 16.9905 12.9517 17.0808 13.1104 17.0333L14.6856 16.5626C14.7661 16.5385 14.8531 16.5083 14.9466 16.472C15.0401 16.4357 15.1237 16.3941 15.1973 16.347C15.3909 16.2265 15.5252 16.082 15.6 15.9135C15.6738 15.7412 15.7071 15.5663 15.7 15.3889C15.6956 15.2066 15.6711 15.0406 15.6264 14.8912C15.5817 14.7417 15.5118 14.5914 15.4165 14.4404C15.324 14.2844 15.2002 14.1565 15.0451 14.0567C14.8889 13.9531 14.6968 13.904 14.4688 13.9095C14.3815 13.9106 14.2887 13.9216 14.1906 13.9426C14.0925 13.9635 14.0032 13.9861 13.9228 14.0101L12.3476 14.4809C12.1889 14.5283 12.0986 14.6955 12.1461 14.8542L12.7371 16.8318Z" fill="#184F32"/>
<path d="M20.524 19.4642C20.3653 19.5117 20.1981 19.4215 20.1507 19.2627L17.8484 11.5594C17.801 11.4006 17.8912 11.2335 18.05 11.186L22.8789 9.74284C23.0377 9.69539 23.2048 9.78562 23.2523 9.94437L23.5169 10.8297C23.5643 10.9884 23.4741 11.1556 23.3153 11.203L20.05 12.1789C19.8913 12.2263 19.8011 12.3935 19.8485 12.5522L20.2059 13.748C20.2533 13.9067 20.4205 13.997 20.5792 13.9495L23.1547 13.1798C23.3134 13.1324 23.4805 13.2226 23.528 13.3813L23.7926 14.2666C23.84 14.4254 23.7498 14.5925 23.591 14.64L21.0156 15.4097C20.8569 15.4571 20.7666 15.6243 20.8141 15.783L21.278 17.3352C21.3254 17.4939 21.4925 17.5842 21.6513 17.5367L24.9166 16.5609C25.0753 16.5134 25.2425 16.6036 25.2899 16.7624L25.5545 17.6477C25.602 17.8064 25.5117 17.9736 25.353 18.021L20.524 19.4642Z" fill="#184F32"/>
<path d="M27.3058 17.4374C27.147 17.4849 26.9799 17.3946 26.9324 17.2359L24.6302 9.53257C24.5827 9.37382 24.673 9.20667 24.8317 9.15922L28.0395 8.20053C28.12 8.17648 28.2285 8.14824 28.3649 8.11581C28.504 8.07841 28.6301 8.05326 28.7431 8.04035C29.2604 7.96924 29.7134 8.01129 30.1021 8.16648C30.4947 8.32052 30.8224 8.56492 31.0853 8.89967C31.347 9.23058 31.5471 9.6279 31.6857 10.0916C31.8243 10.5554 31.8737 10.9999 31.8337 11.4251C31.7965 11.8453 31.6561 12.2276 31.4124 12.5717C31.1726 12.9148 30.8189 13.1979 30.3512 13.4212C30.2485 13.4686 30.1293 13.5167 29.9936 13.5656C29.858 13.6145 29.7518 13.6504 29.6751 13.6733L28.031 14.1647C27.8722 14.2122 27.782 14.3793 27.8295 14.5381L28.4961 16.7686C28.5435 16.9273 28.4533 17.0945 28.2945 17.1419L27.3058 17.4374ZM27.2213 12.503C27.2687 12.6617 27.4359 12.752 27.5946 12.7045L29.1698 12.2338C29.2502 12.2097 29.3372 12.1795 29.4308 12.1432C29.5243 12.1069 29.6079 12.0653 29.6815 12.0182C29.8751 11.8977 30.0093 11.7533 30.0842 11.5848C30.1579 11.4124 30.1913 11.2376 30.1842 11.0602C30.1798 10.8778 30.1552 10.7119 30.1106 10.5624C30.0659 10.4129 29.9959 10.2627 29.9007 10.1116C29.8081 9.95558 29.6843 9.82768 29.5293 9.7279C29.3731 9.62429 29.181 9.57525 28.953 9.58075C28.8656 9.58181 28.7729 9.59283 28.6748 9.6138C28.5767 9.63477 28.4874 9.65728 28.4069 9.68133L26.8318 10.1521C26.673 10.1995 26.5828 10.3667 26.6302 10.5254L27.2213 12.503Z" fill="#184F32"/>
</svg>
