<svg width="36" height="36" viewBox="0 0 36 36" fill="none" xmlns="http://www.w3.org/2000/svg">
  <path d="M0 4C0 1.79086 1.79086 0 4 0H32C34.2091 0 36 1.79086 36 4V32C36 34.2091 34.2091 36 32 36H4C1.79086 36 0 34.2091 0 32V4Z" fill="white" fill-opacity="0.1"/>
  <path d="M18.7992 2.39082C18.614 2.20202 18.2876 2.20077 18.1026 2.38976C17.044 3.47113 13.6265 6.24523 8.57764 3.36382C8.40302 3.26417 8.17663 3.3003 8.05092 3.45721L5.18521 7.03416C5.07518 7.1715 5.06679 7.36361 5.16224 7.51145C5.6848 8.32077 7.29019 10.9439 7.29019 12.6243C7.29019 13.2071 7.02195 20.9844 7.02195 20.9844C7.02195 26.0361 9.14217 28.928 13.1886 30.5299C14.5563 31.0713 15.3553 31.4201 16.0751 31.9011C16.634 32.2746 17.6765 33.2542 18.1736 33.7313C18.3292 33.8806 18.5748 33.8826 18.7328 33.7357C19.2376 33.2663 20.2991 32.2991 20.8947 31.9011C21.6145 31.4201 22.4134 31.0713 23.7812 30.5299C27.8276 28.928 29.9478 26.0361 29.9478 20.9844C29.9478 20.9844 29.6799 13.2071 29.6799 12.6243C29.6799 10.949 31.2964 8.35944 31.8308 7.54909C31.9299 7.39884 31.9205 7.20189 31.8057 7.06329L28.6837 3.29445C28.557 3.14154 28.3335 3.10778 28.1612 3.20645C23.1358 6.08387 19.834 3.44574 18.7992 2.39082Z" fill="#0D91EC"/>
  <path d="M13.1592 21.1609C12.5865 21.1609 12.0692 21.0607 11.6074 20.8602C11.1492 20.6562 10.7716 20.3662 10.4745 19.9903C10.2377 19.6843 10.0708 19.3316 9.97375 18.9324C9.93454 18.7711 10.0494 18.6175 10.2136 18.5932L11.1699 18.4518C11.3234 18.4291 11.4663 18.5284 11.522 18.6733C11.6448 18.9922 11.8397 19.2469 12.1068 19.4373C12.4433 19.6771 12.8263 19.797 13.2559 19.797C13.4957 19.797 13.7284 19.7595 13.9539 19.6843C14.1795 19.6091 14.3638 19.4981 14.507 19.3514C14.6538 19.2046 14.7271 19.0238 14.7271 18.809C14.7271 18.7303 14.7146 18.6551 14.6896 18.5835C14.6681 18.5083 14.6305 18.4385 14.5768 18.3741C14.5231 18.3097 14.4461 18.2488 14.3459 18.1915C14.2493 18.1343 14.1258 18.0824 13.9754 18.0358L11.9672 17.4452C11.8168 17.4022 11.6414 17.3414 11.441 17.2626C11.2441 17.1839 11.0526 17.0711 10.8664 16.9243C10.6803 16.7776 10.5246 16.5842 10.3993 16.3444C10.2776 16.101 10.2167 15.7949 10.2167 15.4262C10.2167 14.9072 10.3474 14.4758 10.6087 14.1321C10.87 13.7885 11.219 13.5325 11.6558 13.3643C12.0925 13.1961 12.5757 13.1137 13.1055 13.1173C13.6389 13.1245 14.115 13.2157 14.5338 13.3911C14.9527 13.5666 15.3035 13.8225 15.5863 14.159C15.806 14.4176 15.9781 14.7216 16.1028 15.0709C16.1618 15.2365 16.0496 15.4086 15.8763 15.438L14.8993 15.6042C14.7424 15.6309 14.5956 15.5285 14.5331 15.3821C14.4749 15.2457 14.3981 15.1244 14.303 15.0181C14.149 14.8463 13.9647 14.7156 13.7499 14.6261C13.5387 14.5367 13.3167 14.4883 13.0841 14.4812C12.855 14.474 12.6384 14.5062 12.4343 14.5778C12.2339 14.6458 12.0692 14.7461 11.9403 14.8785C11.8151 15.011 11.7524 15.1685 11.7524 15.351C11.7524 15.5193 11.8043 15.6571 11.9081 15.7645C12.0119 15.8683 12.1426 15.9524 12.3001 16.0169C12.4576 16.0813 12.6187 16.135 12.7834 16.178L14.1258 16.5431C14.3262 16.5968 14.5482 16.6684 14.7916 16.7579C15.035 16.8438 15.2677 16.9655 15.4896 17.123C15.7151 17.2769 15.8995 17.481 16.0427 17.7351C16.1895 17.9893 16.2628 18.3115 16.2628 18.7016C16.2628 19.1169 16.1751 19.4802 15.9997 19.7917C15.8279 20.0995 15.5952 20.3555 15.3017 20.5595C15.0082 20.76 14.6752 20.9103 14.303 21.0106C13.9342 21.1108 13.553 21.1609 13.1592 21.1609Z" fill="white"/>
  <path d="M17.8504 20.9998C17.6848 20.9998 17.5504 20.8655 17.5504 20.6998V13.5676C17.5504 13.402 17.6848 13.2676 17.8504 13.2676H18.711C18.8767 13.2676 19.011 13.402 19.011 13.5676V20.6998C19.011 20.8655 18.8767 20.9998 18.711 20.9998H17.8504Z" fill="white"/>
  <path d="M20.9207 20.9998C20.7551 20.9998 20.6207 20.8655 20.6207 20.6998V13.5676C20.6207 13.402 20.7551 13.2676 20.9207 13.2676H21.7813C21.947 13.2676 22.0813 13.402 22.0813 13.5676V16.4464H25.5393V13.5676C25.5393 13.402 25.6736 13.2676 25.8393 13.2676H26.6998C26.8655 13.2676 26.9998 13.402 26.9998 13.5676V20.6998C26.9998 20.8655 26.8655 20.9998 26.6998 20.9998H25.8393C25.6736 20.9998 25.5393 20.8655 25.5393 20.6998V17.8103H22.0813V20.6998C22.0813 20.8655 21.947 20.9998 21.7813 20.9998H20.9207Z" fill="white"/>
</svg>
