<svg width="36" height="36" viewBox="0 0 36 36" fill="none" xmlns="http://www.w3.org/2000/svg">
<g clip-path="url(#clip0_730_9148)">
<path d="M0 4C0 1.79086 1.79086 0 4 0H32C34.2091 0 36 1.79086 36 4V32C36 34.2091 34.2091 36 32 36H4C1.79086 36 0 34.2091 0 32V4Z" fill="white" fill-opacity="0.1"/>
<g clip-path="url(#clip1_730_9148)">
<g clip-path="url(#clip2_730_9148)">
<path d="M11.263 3.78873C11.5562 3.28102 12.2005 3.10838 12.7082 3.40151L14.4451 4.40431C15.2849 4.88918 15.7472 5.80758 15.6714 6.74107L31.3608 15.7993C32.3647 16.379 32.5467 17.7565 31.7235 18.574L26.8017 23.4843C25.7852 24.4956 24.2146 24.7035 22.974 23.9872L11.9608 17.6287L11.5388 18.8357C11.3738 19.3156 11.571 19.8468 12.01 20.1002L23.0155 26.4542C23.5232 26.7474 23.6958 27.3917 23.4027 27.8994C23.1095 28.4071 22.4653 28.5797 21.9576 28.2866L10.9521 21.9326C9.63126 21.17 9.03968 19.5764 9.54251 18.1412L13.5455 6.65889C13.6025 6.4984 13.536 6.3226 13.3872 6.23665L11.6503 5.23385C11.1426 4.94072 10.9699 4.29644 11.263 3.78873Z" fill="#FFC700"/>
</g>
<g filter="url(#filter0_d_730_9148)">
<path d="M6.99081 22.7805C6.77038 22.9497 6.58542 23.1606 6.44649 23.4012C6.30757 23.6418 6.2174 23.9074 6.18113 24.1829C6.14486 24.4584 6.16321 24.7383 6.23512 25.0067C6.30704 25.2751 6.43111 25.5267 6.60025 25.7471C6.7694 25.9675 6.9803 26.1525 7.22093 26.2914C7.46156 26.4304 7.72719 26.5205 8.00266 26.5568C8.27814 26.5931 8.55806 26.5747 8.82644 26.5028C9.09482 26.4309 9.34642 26.3068 9.56685 26.1377C9.78728 25.9685 9.97224 25.7576 10.1112 25.517C10.2501 25.2764 10.3403 25.0107 10.3765 24.7353C10.4128 24.4598 10.3945 24.1799 10.3225 23.9115C10.2506 23.6431 10.1266 23.3915 9.95741 23.1711C9.78826 22.9506 9.57736 22.7657 9.33673 22.6267C9.09611 22.4878 8.83047 22.3977 8.555 22.3614C8.27952 22.3251 7.99961 22.3435 7.73122 22.4154C7.46284 22.4873 7.21125 22.6114 6.99081 22.7805Z" fill="white"/>
</g>
<g filter="url(#filter1_d_730_9148)">
<path d="M17.9976 29.1291C17.7772 29.2983 17.5923 29.5092 17.4533 29.7498C17.3144 29.9904 17.2242 30.2561 17.188 30.5316C17.1517 30.807 17.17 31.0869 17.242 31.3553C17.3139 31.6237 17.4379 31.8753 17.6071 32.0957C17.7762 32.3162 17.9871 32.5011 18.2278 32.6401C18.4684 32.779 18.734 32.8692 19.0095 32.9054C19.285 32.9417 19.5649 32.9233 19.8333 32.8514C20.1017 32.7795 20.3533 32.6554 20.5737 32.4863C20.7941 32.3172 20.9791 32.1062 21.118 31.8656C21.2569 31.625 21.3471 31.3594 21.3834 31.0839C21.4196 30.8084 21.4013 30.5285 21.3294 30.2601C21.2575 29.9917 21.1334 29.7401 20.9642 29.5197C20.7951 29.2993 20.5842 29.1143 20.3436 28.9754C20.1029 28.8365 19.8373 28.7463 19.5618 28.71C19.2864 28.6738 19.0064 28.6921 18.7381 28.764C18.4697 28.8359 18.2181 28.96 17.9976 29.1291Z" fill="white"/>
</g>
</g>
</g>
<defs>
<filter id="filter0_d_730_9148" x="4.16309" y="22.3433" width="8.23145" height="8.23145" filterUnits="userSpaceOnUse" color-interpolation-filters="sRGB">
<feFlood flood-opacity="0" result="BackgroundImageFix"/>
<feColorMatrix in="SourceAlpha" type="matrix" values="0 0 0 0 0 0 0 0 0 0 0 0 0 0 0 0 0 0 127 0" result="hardAlpha"/>
<feOffset dy="2"/>
<feGaussianBlur stdDeviation="1"/>
<feComposite in2="hardAlpha" operator="out"/>
<feColorMatrix type="matrix" values="0 0 0 0 0 0 0 0 0 0 0 0 0 0 0 0 0 0 0.05 0"/>
<feBlend mode="normal" in2="BackgroundImageFix" result="effect1_dropShadow_730_9148"/>
<feBlend mode="normal" in="SourceGraphic" in2="effect1_dropShadow_730_9148" result="shape"/>
</filter>
<filter id="filter1_d_730_9148" x="15.1699" y="28.6919" width="8.23145" height="8.23145" filterUnits="userSpaceOnUse" color-interpolation-filters="sRGB">
<feFlood flood-opacity="0" result="BackgroundImageFix"/>
<feColorMatrix in="SourceAlpha" type="matrix" values="0 0 0 0 0 0 0 0 0 0 0 0 0 0 0 0 0 0 127 0" result="hardAlpha"/>
<feOffset dy="2"/>
<feGaussianBlur stdDeviation="1"/>
<feComposite in2="hardAlpha" operator="out"/>
<feColorMatrix type="matrix" values="0 0 0 0 0 0 0 0 0 0 0 0 0 0 0 0 0 0 0.05 0"/>
<feBlend mode="normal" in2="BackgroundImageFix" result="effect1_dropShadow_730_9148"/>
<feBlend mode="normal" in="SourceGraphic" in2="effect1_dropShadow_730_9148" result="shape"/>
</filter>
<clipPath id="clip0_730_9148">
<path d="M0 4C0 1.79086 1.79086 0 4 0H32C34.2091 0 36 1.79086 36 4V32C36 34.2091 34.2091 36 32 36H4C1.79086 36 0 34.2091 0 32V4Z" fill="white"/>
</clipPath>
<clipPath id="clip1_730_9148">
<rect width="36" height="36" fill="white"/>
</clipPath>
<clipPath id="clip2_730_9148">
<rect width="37.1447" height="33.0175" fill="white" transform="translate(10.1704 -3) rotate(30)"/>
</clipPath>
</defs>
</svg>
