<svg width="36" height="36" viewBox="0 0 36 36" fill="none" xmlns="http://www.w3.org/2000/svg">
<path d="M0 4C0 1.79086 1.79086 0 4 0H32C34.2091 0 36 1.79086 36 4V32C36 34.2091 34.2091 36 32 36H4C1.79086 36 0 34.2091 0 32V4Z" fill="white" fill-opacity="0.1"/>
<rect x="3" y="3" width="30" height="30" rx="8" fill="#0D91EC"/>
<path d="M29.9518 22.0103L27.7273 11.1032C27.4773 9.87743 26.4264 9 25.2097 9H23.0546C22.3299 9 21.7422 9.60476 21.7422 10.3505C21.7422 11.0962 21.1544 11.701 20.4297 11.701H19.073H16.9269H15.5706C14.8455 11.701 14.2577 11.0963 14.2577 10.3505V10.0026C14.2577 9.25641 13.6704 9 12.9453 9H10.7902C9.57342 9 8.52258 9.87743 8.27264 11.1032L6.04804 22.0103C5.92007 22.639 6.05029 23.294 6.40832 23.82C6.76636 24.346 7.32032 24.6963 7.93809 24.787L9.22579 24.9767C10.1397 25.1107 11.0408 24.6588 11.5017 23.8358L13.8031 19.7217C14.0842 19.2196 14.6052 18.9099 15.1681 18.9099H20.8317C21.395 18.9099 21.9152 19.2196 22.1963 19.7217L24.4985 23.8358C24.959 24.6588 25.8602 25.1107 26.7741 24.9767L28.0621 24.787C28.6799 24.6962 29.2335 24.346 29.5915 23.82C29.9496 23.294 30.0802 22.639 29.9518 22.0103ZM14.0726 15.8292H12.4366V17.5123H11.1399V15.8292H9.50395V14.4949H11.1399V12.8118H12.4366V14.4949H14.0727L14.0726 15.8292ZM24.3578 12.3036C24.9031 12.3036 25.3452 12.7585 25.3452 13.3201C25.3452 13.8812 24.9031 14.3361 24.3578 14.3361C23.8117 14.3361 23.3695 13.8812 23.3695 13.3201C23.3695 12.7585 23.8117 12.3036 24.3578 12.3036ZM22.3817 16.3694C21.8364 16.3694 21.3939 15.9142 21.3939 15.3526C21.3939 14.7914 21.8364 14.3361 22.3817 14.3361C22.9275 14.3361 23.3696 14.7914 23.3696 15.3526C23.3695 15.9142 22.9274 16.3694 22.3817 16.3694ZM24.3578 18.402C23.8117 18.402 23.3695 17.9467 23.3695 17.3856C23.3695 16.8244 23.8117 16.3694 24.3578 16.3694C24.9031 16.3694 25.3452 16.8244 25.3452 17.3856C25.3452 17.9467 24.9031 18.402 24.3578 18.402ZM26.3326 16.3694C25.7873 16.3694 25.3452 15.9142 25.3452 15.3526C25.3452 14.7914 25.7873 14.3361 26.3326 14.3361C26.8784 14.3361 27.3209 14.7914 27.3209 15.3526C27.3208 15.9142 26.8784 16.3694 26.3326 16.3694Z" fill="white"/>
</svg>
