<svg width="36" height="36" viewBox="0 0 36 36" fill="none" xmlns="http://www.w3.org/2000/svg">
<g clip-path="url(#clip0_5684_5887)">
<path d="M0 4C0 1.79086 1.79086 0 4 0H32C34.2091 0 36 1.79086 36 4V32C36 34.2091 34.2091 36 32 36H4C1.79086 36 0 34.2091 0 32V4Z" fill="white" fill-opacity="0.1"/>
<path d="M-3.85016 15.8226L-2.06036 43.5644C-2.02641 44.0906 -1.58973 44.5 -1.06244 44.5H37.0844C37.6026 44.5 38.0349 44.1041 38.0805 43.5879L42.0472 -1.36824C42.1438 -2.46339 40.6595 -2.88979 40.1602 -1.91032L30.1573 17.7106C29.8397 18.3337 28.9969 18.4466 28.5265 17.9291L25.4115 14.5027C24.9587 14.0046 24.1531 14.0871 23.8106 14.6666L19.0242 22.7667C18.6037 23.4783 17.5507 23.4016 17.2377 22.6367L14.0325 14.8018C13.772 14.165 12.9613 13.9754 12.4454 14.4306L5.64302 20.4326C5.27304 20.7591 4.72026 20.7669 4.34121 20.451L-2.21205 14.99C-2.88679 14.4277 -3.9067 14.9461 -3.85016 15.8226Z" fill="#0D91EC" fill-opacity="0.3" stroke="#0D91EC" stroke-width="4"/>
</g>
<defs>
<clipPath id="clip0_5684_5887">
<path d="M0 4C0 1.79086 1.79086 0 4 0H32C34.2091 0 36 1.79086 36 4V32C36 34.2091 34.2091 36 32 36H4C1.79086 36 0 34.2091 0 32V4Z" fill="white"/>
</clipPath>
</defs>
</svg>
