<svg width="122" height="18" viewBox="0 0 122 18" fill="none" xmlns="http://www.w3.org/2000/svg">
<g clip-path="url(#clip0_3262_938)">
<path d="M1.27 5.58868C0.422 5.89868 0 6.30868 0 6.82068V17.9967H5.951V12.7277H14.283V10.4927H5.95V7.93668C5.95 7.61668 6.267 7.45768 6.9 7.45768H14.282V5.22268H3.57C2.78748 5.21452 2.00919 5.3386 1.268 5.58968L1.27 5.58868ZM31.202 5.70268C30.4707 5.38244 29.6804 5.21893 28.882 5.22268C28.0893 5.21242 27.3047 5.38201 26.587 5.71868C25.894 6.04868 25.41 6.47468 25.135 6.99468L19.41 17.9957H22.742L23.573 16.3997H31.203L32.026 17.9957H38.451L32.691 6.93368C32.425 6.43168 31.929 6.02168 31.202 5.70268ZM24.759 14.1637L27.394 9.10268L30.03 14.1647H24.759V14.1637ZM45.863 7.09868C44.002 8.34868 43.071 9.85268 43.07 11.6087C43.07 13.3657 44 14.8687 45.863 16.1187C47.725 17.3737 49.963 17.9987 52.58 17.9957H59.721V15.7617H52.58C51.34 15.7617 50.504 15.2347 50.072 14.1817C49.838 13.6067 49.722 12.7487 49.722 11.6087C49.724 10.4687 49.84 9.61368 50.072 9.04268C50.505 7.98868 51.342 7.46268 52.58 7.46168H59.721V5.22168H52.58C49.962 5.22168 47.723 5.84768 45.863 7.09868ZM68.543 5.58868C67.693 5.89868 67.273 6.30868 67.273 6.81868V16.4007C67.273 16.9147 67.698 17.3237 68.543 17.6307C69.2816 17.8826 70.0577 18.0067 70.838 17.9977H81.55V15.7617H74.17C73.535 15.7617 73.217 15.6017 73.218 15.2807V12.7267H81.55V10.4917H73.218V7.93668C73.218 7.61668 73.535 7.45768 74.171 7.45768H81.551V5.22268H70.837C70.0568 5.21533 69.281 5.33939 68.542 5.58968L68.543 5.58868ZM91.69 17.9217L91.696 17.8967H98.096V13.5337L91.68 10.9287L91.69 17.9217ZM103.61 5.23468V7.47068H108.87C109.492 7.47068 109.805 7.62968 109.805 7.94968V18.0087H115.81V7.94868C115.81 7.62868 116.122 7.46868 116.746 7.46868H122V5.23568H103.609L103.61 5.23468Z" fill="white"/>
<path d="M98.2079 0.107627C98.209 0.0872424 98.2035 0.0670439 98.1921 0.0500849C98.1808 0.0331258 98.1642 0.0203282 98.1449 0.0136267C98.1255 0.00698241 98.1044 0.00701475 98.085 0.0137186C98.0657 0.0204225 98.0491 0.0334133 98.0379 0.0506267C96.4079 2.57063 95.4879 4.00963 94.6619 5.31463H84.9379C84.8179 5.31463 84.7679 5.47263 84.8749 5.51263C88.9089 7.04363 94.7369 9.35063 97.9919 10.6456C98.0769 10.6806 98.2099 10.5996 98.2099 10.5416L98.2079 0.108627V0.107627Z" fill="#FF5500"/>
</g>
<defs>
<clipPath id="clip0_3262_938">
<rect width="122" height="18" fill="white" transform="translate(0 0.00866699)"/>
</clipPath>
</defs>
</svg>
