<svg width="40" height="40" viewBox="0 0 40 40" fill="none" xmlns="http://www.w3.org/2000/svg">
<rect width="40" height="40" rx="8" fill="#334046"/>
<path d="M19.2305 10.5488C19.8397 10.4684 20.2328 10.4894 20.5811 10.5889V10.5898C20.9298 10.69 21.2748 10.8803 21.75 11.2725C22.242 11.6785 22.8124 12.247 23.6367 13.0713L25.5576 14.9922V14.9932L25.5605 14.9951V14.9961C26.9913 16.4274 27.9924 17.4313 28.6475 18.29C29.2846 19.1255 29.5 19.7055 29.5 20.2754C29.5 20.8461 29.2842 21.4268 28.6465 22.2627C27.991 23.1218 26.9902 24.126 25.5586 25.5576C24.1264 26.9898 23.122 27.9909 22.2627 28.6465C21.4267 29.2843 20.8461 29.4999 20.2754 29.5C19.7052 29.5 19.1243 29.2844 18.2881 28.6465C17.4289 27.9911 16.4247 26.9901 14.9932 25.5586L13.0615 23.627C12.2406 22.8055 11.6748 22.2374 11.2705 21.7471C10.8799 21.2734 10.6903 20.9296 10.5908 20.582L10.5898 20.5811L10.5566 20.4482C10.4865 20.1309 10.479 19.7625 10.5498 19.2275C10.5916 18.9116 10.6569 18.5575 10.7451 18.1406L11.0762 16.6748L11.373 15.3857C11.5945 14.4251 11.7449 13.7784 11.9131 13.2881C12.0737 12.8197 12.2248 12.5772 12.4014 12.4004C12.5768 12.2247 12.8176 12.0742 13.2842 11.9141C13.7732 11.7463 14.4181 11.5967 15.376 11.376L15.3848 11.373H15.3857L16.6748 11.0752L16.6836 11.0732C17.8169 10.812 18.5996 10.6321 19.2305 10.5488Z" stroke="#0D91EC" stroke-width="2"/>
<circle cx="17.0834" cy="17.0835" r="1.75" fill="#0D91EC"/>
</svg>
