<svg width="40" height="40" viewBox="0 0 40 40" fill="none" xmlns="http://www.w3.org/2000/svg">
<rect width="40" height="40" rx="8" fill="#334046"/>
<path d="M11.8334 18.8335V22.0153C11.8334 26.0151 11.8334 28.0151 12.959 29.2576C14.0846 30.5002 15.8963 30.5002 19.5196 30.5002H20.4804C24.1037 30.5002 25.9155 30.5002 27.0411 29.2576C28.1667 28.0151 28.1667 26.0151 28.1667 22.0153V18.8335" stroke="#0D91EC" stroke-width="2"/>
<path d="M18.1585 9.5H21.8414L22.3215 16.3432C22.4589 18.3011 21.3803 20 20 20C18.6197 20 17.5411 18.3011 17.6784 16.3432L18.1585 9.5Z" stroke="#0D91EC" stroke-width="2"/>
<path d="M11.3415 13.0189C11.5241 12.084 11.6153 11.6165 11.8009 11.2376C12.192 10.4391 12.8956 9.84826 13.7367 9.61209C14.1358 9.5 14.6013 9.5 15.5321 9.5H17.6666L16.9239 17.1075C16.7636 18.7496 15.4147 20 13.8036 20C11.8247 20 10.3405 18.1456 10.7286 16.158L11.3415 13.0189Z" stroke="#0D91EC" stroke-width="2"/>
<path d="M28.6585 13.0189C28.4759 12.084 28.3846 11.6165 28.1991 11.2376C27.808 10.4391 27.1044 9.84826 26.2633 9.61209C25.8641 9.5 25.3987 9.5 24.4679 9.5H22.3334L23.0761 17.1075C23.2364 18.7496 24.5853 20 26.1964 20C28.1753 20 29.6595 18.1456 29.2714 16.158L28.6585 13.0189Z" stroke="#0D91EC" stroke-width="2"/>
<path d="M17.6666 29.3333V26.1515C17.6666 25.1603 17.6666 24.6647 17.8542 24.2955C17.9771 24.0536 18.1538 23.8528 18.3666 23.7132C18.6915 23.5 19.1277 23.5 20 23.5C20.8723 23.5 21.3084 23.5 21.6333 23.7132C21.8461 23.8528 22.0229 24.0536 22.1457 24.2955C22.3333 24.6647 22.3333 25.1603 22.3333 26.1515V29.3333" stroke="#0D91EC" stroke-width="2" stroke-linecap="round"/>
</svg>
