<svg width="40" height="40" viewBox="0 0 40 40" fill="none" xmlns="http://www.w3.org/2000/svg">
<rect width="40" height="40" rx="8" fill="#334046"/>
<path d="M13.8233 14.0004C14.2383 14.3668 14.5 14.9028 14.5 15.5C14.5 16.6046 13.6046 17.5 12.5 17.5C11.9028 17.5 11.3668 17.2383 11.0004 16.8233M13.8233 14.0004C13.9414 14 14.0668 14 14.2 14H25.8C25.9332 14 26.0586 14 26.1767 14.0004M13.8233 14.0004C12.9485 14.0031 12.4689 14.0259 12.092 14.218C11.7157 14.4097 11.4097 14.7157 11.218 15.092C11.0259 15.469 11.0031 15.9485 11.0004 16.8233M11.0004 16.8233C11 16.9414 11 17.0668 11 17.2V22.8C11 22.9332 11 23.0586 11.0004 23.1767M26.1767 14.0004C25.7617 14.3668 25.5 14.9028 25.5 15.5C25.5 16.6046 26.3954 17.5 27.5 17.5C28.0971 17.5 28.6332 17.2383 28.9996 16.8233M26.1767 14.0004C27.0515 14.0031 27.5311 14.0259 27.908 14.218C28.2843 14.4097 28.5903 14.7157 28.782 15.092C28.9741 15.469 28.9969 15.9485 28.9996 16.8233M11.0004 23.1767C11.3668 22.7617 11.9028 22.5 12.5 22.5C13.6046 22.5 14.5 23.3954 14.5 24.5C14.5 25.0971 14.2383 25.6332 13.8233 25.9996M11.0004 23.1767C11.0031 24.0515 11.0259 24.531 11.218 24.908C11.4097 25.2843 11.7157 25.5903 12.092 25.782C12.4689 25.9741 12.9485 25.9969 13.8233 25.9996M13.8233 25.9996C13.9414 26 14.0668 26 14.2 26H25.8C25.9332 26 26.0586 26 26.1767 25.9996M26.1767 25.9996C25.7617 25.6332 25.5 25.0971 25.5 24.5C25.5 23.3954 26.3954 22.5 27.5 22.5C28.0973 22.5 28.6335 22.7619 29 23.1771M26.1767 25.9996C27.0515 25.9969 27.5311 25.9741 27.908 25.782C28.2843 25.5903 28.5903 25.2843 28.782 24.908C28.974 24.5311 28.9973 24.0516 29 23.1771M29 23.1771C29.0004 23.0589 29 22.9334 29 22.8V17.2C29 17.0668 29 16.9414 28.9996 16.8233M22 20C22 21.1046 21.1046 22 20 22C18.8954 22 18 21.1046 18 20C18 18.8954 18.8954 18 20 18C21.1046 18 22 18.8954 22 20Z" stroke="#0D91EC" stroke-width="2" stroke-linecap="round" stroke-linejoin="round"/>
</svg>
