<svg width="28" height="26" viewBox="0 0 28 26" fill="none" xmlns="http://www.w3.org/2000/svg">
<g filter="url(#filter0_d_9701_6311)">
<path d="M21.7872 6.69218C22.3722 6.61042 22.958 6.53334 23.5442 6.46095C23.9742 6.40573 24.5077 6.2413 24.8174 6.63815C24.8804 6.71891 24.8943 6.7637 24.943 6.84056L25.2879 9.51094C25.2183 9.75898 25.1712 9.9099 24.9245 10.0608C24.7733 10.1533 24.233 10.2245 24.0587 10.2224C24.1135 10.5772 24.1549 10.9591 24.2001 11.3175L24.4288 13.0937L24.7028 15.2152L25.0388 17.8179L25.1304 18.5187C25.1421 18.6088 25.1757 18.8302 25.1717 18.9104C25.1979 19.1542 25.1256 19.3984 24.9709 19.5888C24.8661 19.7162 24.7361 19.8078 24.5865 19.875C24.5659 19.8843 24.5737 19.88 24.5546 19.8957L16.968 20.8755L13.2949 21.3498L5.718 22.3284C5.67806 22.3129 5.62294 22.3067 5.57874 22.2937C5.44407 22.2538 5.31097 22.2015 5.1997 22.1142C5.0445 21.9942 4.93341 21.8262 4.88381 21.6364C4.84178 21.474 4.82372 21.2968 4.80207 21.1296L4.71411 20.4486L4.41628 18.1376L3.89894 14.1283C3.83849 13.7042 3.78277 13.2795 3.73178 12.8542C3.89993 12.8188 4.28266 12.7796 4.46474 12.7553L6.11389 12.5397C6.27936 12.5176 6.6097 12.4921 6.75012 12.4589C6.77133 12.6276 6.77374 12.9241 6.90516 13.0407C6.97618 13.1038 7.12535 13.0696 7.18731 13.004C7.38459 12.7952 7.54963 12.5489 7.73218 12.3236C7.7916 12.3422 8.23766 12.259 8.34397 12.2464C9.17458 12.1469 10.0045 12.0416 10.8336 11.9305C10.9312 11.9176 11.4082 11.871 11.4774 11.8455C11.6284 11.8259 11.7964 11.8074 11.9453 11.7822C11.9797 11.7786 12.0265 11.7688 12.0553 11.7828C12.0762 11.8771 12.1576 12.5016 12.1627 12.6069L12.1702 12.6339C12.201 12.6198 12.2919 12.6134 12.3344 12.607C12.6524 12.5704 15.8156 12.1481 15.8411 12.1572L15.8429 12.139L15.834 12.1092C15.8219 11.9933 15.7296 11.3776 15.7374 11.3013L15.7602 11.2856C15.9392 11.2793 16.1341 11.2361 16.3127 11.2242L15.9832 8.68606L15.889 7.95028C15.8746 7.83796 15.8546 7.63943 15.829 7.5344L15.8366 7.49644L15.8514 7.48938L15.888 7.51033C15.9046 7.48285 15.9037 7.48797 15.9288 7.46537C16.0262 7.43797 16.3275 7.40534 16.4437 7.39033L17.4488 7.26081L19.627 6.97917C19.7787 6.95954 20.4532 6.86059 20.5556 6.87568C20.6016 6.83411 21.6206 6.72158 21.7872 6.69218ZM23.9547 10.2327C23.8327 10.2048 21.1634 10.5823 21.1364 10.6054C21.2575 10.5955 21.3979 10.5759 21.5191 10.557C22.3193 10.432 23.16 10.3768 23.9547 10.2327Z" fill="#FF2596"/>
<path d="M21.1376 10.6053C21.1647 10.5823 23.8339 10.2047 23.956 10.2326C23.1613 10.3767 22.3206 10.432 21.5203 10.557C21.3992 10.5759 21.2587 10.5954 21.1376 10.6053Z" fill="#FF2596"/>
<path d="M6.75003 12.4588C6.77125 12.6276 6.77366 12.924 6.90508 13.0407C6.97609 13.1037 7.12527 13.0696 7.18723 13.004C7.3845 12.7951 7.54954 12.5489 7.73209 12.3235C7.79151 12.3422 8.23758 12.259 8.34388 12.2464C9.17449 12.1469 10.0044 12.0416 10.8335 11.9305C10.9311 11.9176 11.4082 11.871 11.4773 11.8455C11.6284 11.8259 11.7963 11.8074 11.9452 11.7822C11.9796 11.7786 12.0265 11.7688 12.0552 11.7827C12.0761 11.877 12.1575 12.5016 12.1627 12.6068L12.1701 12.6338L13.2948 21.3498L5.71792 22.3284C5.67798 22.3129 5.62286 22.3067 5.57866 22.2937C5.44399 22.2538 5.31089 22.2014 5.19962 22.1142C5.04442 21.9942 4.93333 21.8262 4.88373 21.6364C4.8417 21.474 4.82364 21.2968 4.80199 21.1296L4.71403 20.4486L4.4162 18.1376L3.89886 14.1282C3.8384 13.7042 3.78269 13.2795 3.7317 12.8541C3.89984 12.8187 4.28257 12.7796 4.46465 12.7553L6.1138 12.5396C6.27927 12.5175 6.60962 12.4921 6.75003 12.4588Z" fill="#FF2596"/>
<path d="M6.75003 12.4588C6.77125 12.6276 6.77366 12.924 6.90508 13.0407C6.97609 13.1037 7.12527 13.0696 7.18723 13.004C7.38451 12.7951 7.54954 12.5489 7.73209 12.3235C7.79151 12.3422 8.23758 12.259 8.34388 12.2464C9.17449 12.1469 10.0044 12.0416 10.8335 11.9305C10.9311 11.9176 11.4082 11.871 11.4773 11.8455C11.6284 11.8259 11.7963 11.8074 11.9452 11.7822C11.9796 11.7786 12.0265 11.7688 12.0552 11.7827C12.0761 11.877 12.1575 12.5016 12.1627 12.6068C11.9017 12.6235 11.5631 12.6763 11.2973 12.7107L9.79433 12.9054L5.97364 13.3989C5.27943 13.4887 4.54453 13.5964 3.85118 13.6694C3.85867 13.7313 3.91325 14.0986 3.89886 14.1282C3.8384 13.7042 3.78269 13.2795 3.7317 12.8541C3.89984 12.8187 4.28257 12.7796 4.46465 12.7553L6.1138 12.5396C6.27927 12.5175 6.60962 12.4921 6.75003 12.4588Z" fill="#92005C"/>
<path d="M12.3347 12.6069C12.6528 12.5703 15.8159 12.1481 15.8414 12.1571L16.9061 20.4035L16.7832 19.4572C16.8431 19.9206 16.8986 20.416 16.9676 20.8755L13.2946 21.3499L12.1705 12.6338C12.2013 12.6197 12.2922 12.6133 12.3347 12.6069Z" fill="#30AAFF"/>
<path d="M21.7874 6.69221C22.3725 6.61045 22.9582 6.53336 23.5445 6.46097C23.9744 6.40576 24.5079 6.24133 24.8177 6.63818C24.8807 6.71893 24.8945 6.76373 24.9433 6.84059L25.2881 9.51097C25.2185 9.75901 25.1714 9.90992 24.9247 10.0608C24.7736 10.1533 24.2332 10.2245 24.059 10.2224C24.0498 10.2215 23.9691 10.2311 23.955 10.2327C23.8329 10.2048 21.1637 10.5823 21.1366 10.6054C21.1043 10.6109 21.0725 10.6177 21.0404 10.6242C21.0639 10.7978 21.1308 11.0561 21.041 11.2082C20.9899 11.2946 20.8334 11.3008 20.7562 11.2521C20.5106 11.097 20.2829 10.9007 20.0493 10.7245C19.9789 10.7696 19.5543 10.794 19.4213 10.8137C18.6469 10.9242 17.8715 11.027 17.0951 11.1222C16.9336 11.1417 16.7724 11.1635 16.6115 11.1877C16.5382 11.1985 16.3775 11.2261 16.3129 11.2243L15.9834 8.68609L15.8892 7.95031C15.8748 7.83798 15.8549 7.63946 15.8292 7.53442L15.8369 7.49647L15.8517 7.4894L15.8883 7.51035C15.9049 7.48287 15.9039 7.488 15.929 7.4654C16.0264 7.438 16.3277 7.40536 16.4439 7.39036L17.449 7.26083L19.6272 6.9792C19.7789 6.95956 20.4535 6.86062 20.5558 6.87571C20.6019 6.83413 21.6208 6.72161 21.7874 6.69221Z" fill="#30AAFF"/>
<path d="M21.7874 6.69221C22.3724 6.61045 22.9582 6.53337 23.5444 6.46098C23.9744 6.40576 24.5079 6.24133 24.8176 6.63819C24.8806 6.71894 24.8945 6.76374 24.9432 6.8406L25.2881 9.51097C25.2185 9.75901 25.1714 9.90993 24.9247 10.0608C24.7735 10.1533 24.2332 10.2245 24.0589 10.2224C24.0498 10.2215 23.9691 10.2311 23.955 10.2327C23.8329 10.2048 21.1637 10.5823 21.1366 10.6054C21.1043 10.6109 21.0725 10.6177 21.0403 10.6242C20.9928 10.2569 20.9437 9.8883 20.898 9.52084C20.8945 9.46684 20.8822 9.3551 20.9163 9.31285C21.0298 9.17164 21.322 9.16911 21.4919 9.14757L22.3087 9.04437C22.4 9.03282 22.596 9.0178 22.6746 8.98428C23.1484 8.78189 22.6374 8.47303 22.458 8.3372L21.9493 7.94458L21.0726 7.26787C20.9078 7.1406 20.7256 6.99359 20.5558 6.87572C20.6019 6.83414 21.6208 6.72161 21.7874 6.69221Z" fill="#FF2596"/>
<path d="M15.8296 7.53438L15.8372 7.49643L15.852 7.48936L15.8886 7.51031C16.2551 7.80493 16.6507 8.10068 17.0242 8.3886L18.9564 9.8792C19.3074 10.1494 19.7097 10.4459 20.0497 10.7244C19.9792 10.7696 19.5547 10.794 19.4216 10.8136C18.6473 10.9241 17.8718 11.027 17.0954 11.1222C16.934 11.1417 16.7728 11.1635 16.6119 11.1877C16.5385 11.1984 16.3778 11.2261 16.3133 11.2242L15.9838 8.68605L15.8895 7.95027C15.8751 7.83794 15.8552 7.63942 15.8296 7.53438Z" fill="#FF2596"/>
<path d="M20.0492 10.7245C20.2828 10.9007 20.5105 11.097 20.7561 11.2521C20.8333 11.3008 20.9898 11.2946 21.0409 11.2082C21.1306 11.0561 21.0638 10.7978 21.0403 10.6242C21.0724 10.6177 21.1042 10.6109 21.1365 10.6054C21.2576 10.5955 21.398 10.576 21.5192 10.557C22.3195 10.4321 23.1601 10.3768 23.9549 10.2327C23.969 10.2312 24.0497 10.2215 24.0588 10.2224C24.1136 10.5773 24.155 10.9591 24.2003 11.3175L24.429 13.0938L25.1788 18.9L25.5148 21.5027L25.6064 22.2035C25.6181 22.2936 25.6517 22.515 25.6477 22.5952C25.627 22.5127 25.607 22.3195 25.5953 22.2277L25.5032 21.5123L25.1999 19.1626L24.1514 11.0564C23.9653 11.0672 23.6968 11.1097 23.5044 11.1346L22.3585 11.2829L18.8036 11.742L16.757 12.0059C16.6123 12.0246 15.949 12.1016 15.843 12.139L15.8341 12.1092C15.822 11.9933 15.7297 11.3777 15.7375 11.3014L15.7603 11.2856C15.9393 11.2793 16.1342 11.2361 16.3128 11.2243C16.3774 11.2261 16.538 11.1985 16.6114 11.1877C16.7723 11.1635 16.9335 11.1417 17.095 11.1222C17.8714 11.027 18.6468 10.9242 19.4212 10.8137C19.5542 10.7941 19.9788 10.7696 20.0492 10.7245Z" fill="#92005C"/>
<path d="M5.89811 2.74151L6.51888 2.66133C6.60334 2.69096 6.67863 2.66708 6.76037 2.67383C8.18456 2.79141 9.46929 3.64197 10.566 4.49858C10.7526 4.64432 11.5011 5.27144 11.6047 5.4418C11.6035 5.50948 11.6618 5.7677 11.6757 5.86547C11.7363 6.28332 11.7886 6.70233 11.8326 7.12225C11.8594 7.33388 11.9257 7.7641 11.9282 7.9659C12.0378 7.96272 12.2039 7.9369 12.316 7.92228L12.9474 7.83961C13.496 7.76834 14.0938 7.70417 14.6364 7.62122C14.7879 7.60838 15.7579 7.46528 15.8075 7.48856L15.8292 7.53438C15.8548 7.63941 15.8748 7.83794 15.8891 7.95027L15.9834 8.68605L16.3129 11.2242C16.1342 11.2361 15.9394 11.2792 15.7604 11.2856L15.7376 11.3013C15.7298 11.3776 15.822 11.9933 15.8342 12.1092L15.843 12.139L15.8413 12.1572C15.8158 12.1481 12.6526 12.5704 12.3346 12.6069C12.2921 12.6134 12.2011 12.6197 12.1704 12.6339L12.1629 12.6069C12.1578 12.5016 12.0764 11.8771 12.0554 11.7827C12.0267 11.7688 11.9799 11.7786 11.9455 11.7822C11.7966 11.8074 11.6286 11.8259 11.4776 11.8455C11.4084 11.871 10.9313 11.9176 10.8338 11.9305C10.0047 12.0416 9.17475 12.1469 8.34414 12.2464C8.23783 12.259 7.79177 12.3422 7.73235 12.3235C7.5498 12.5489 7.38476 12.7951 7.18748 13.004C7.12553 13.0696 6.97635 13.1037 6.90533 13.0407C6.77391 12.9241 6.7715 12.6276 6.75029 12.4588C6.60988 12.4921 6.27953 12.5176 6.11406 12.5397L4.46491 12.7553C4.28283 12.7796 3.9001 12.8188 3.73195 12.8542C3.27051 12.9175 2.74917 13.0711 2.45019 12.6211C2.41945 12.5748 2.39293 12.5272 2.36187 12.4816L2.01592 9.80287C2.07518 9.66892 2.05731 9.56411 2.17524 9.425C2.39909 9.16098 2.66819 9.15442 2.98295 9.11569C3.66869 9.03133 4.35007 8.93278 5.03607 8.85825C5.00098 8.80461 4.9789 8.75898 4.96384 8.69684C4.8829 8.55469 4.74344 8.13942 4.68592 7.96474C4.33341 6.89392 4.05435 5.70066 4.26045 4.57306C4.38237 3.90611 4.74328 3.27754 5.36299 2.95753C5.46907 2.90896 5.57612 2.85984 5.68431 2.81616C5.75427 2.7879 5.83674 2.79079 5.89811 2.74151Z" fill="#30AAFF"/>
<path d="M2.01602 9.80288C2.07527 9.66892 2.0574 9.56411 2.17534 9.425C2.39919 9.16098 2.66829 9.15442 2.98304 9.11569C3.66879 9.03133 4.35017 8.93278 5.03617 8.85826C5.2018 8.84274 6.22751 8.69722 6.27163 8.72098C6.30834 8.70242 6.34109 8.69469 6.38124 8.68788C6.80478 8.616 10.8992 8.09749 10.9388 8.10921C10.9492 8.11227 10.9556 8.11782 10.964 8.12388L10.9837 8.11839C10.9999 8.13992 10.9959 8.13189 11.0052 8.15723C11.0173 8.34076 11.0556 8.58482 11.0796 8.77027L11.2183 9.84192L11.3894 11.1693C11.4166 11.3798 11.4431 11.6399 11.4777 11.8455C11.4085 11.871 10.9314 11.9176 10.8339 11.9305C10.0048 12.0416 9.17485 12.1469 8.34424 12.2464C8.23793 12.259 7.79187 12.3422 7.73245 12.3235C7.5499 12.5489 7.38486 12.7951 7.18758 13.004C7.12562 13.0696 6.97645 13.1037 6.90543 13.0407C6.77401 12.9241 6.7716 12.6276 6.75039 12.4588C6.60997 12.4921 6.27963 12.5176 6.11416 12.5397L4.46501 12.7553C4.28293 12.7796 3.9002 12.8188 3.73205 12.8542C3.27061 12.9175 2.74927 13.0711 2.45029 12.6211C2.41955 12.5748 2.39302 12.5272 2.36197 12.4816L2.01602 9.80288Z" fill="#30AAFF"/>
<path d="M2.01602 9.80288C2.07527 9.66892 2.0574 9.56411 2.17534 9.425C2.39919 9.16098 2.66829 9.15442 2.98304 9.11569C3.66879 9.03133 4.35017 8.93278 5.03617 8.85826C5.2018 8.84274 6.22752 8.69722 6.27163 8.72098C6.14965 8.85968 6.00713 9.05512 5.89148 9.2053L5.25225 10.0346L4.78746 10.637C4.71672 10.7286 4.63326 10.8202 4.57256 10.9183C4.53628 10.9769 4.50411 11.0458 4.50969 11.1165C4.51344 11.164 4.53564 11.203 4.57254 11.2327C4.62397 11.2742 4.69124 11.2935 4.75624 11.2985C5.08928 11.3241 6.32402 11.0197 6.51345 11.1465C6.57667 11.1888 6.60178 11.3068 6.61221 11.3776C6.665 11.7366 6.70404 12.0989 6.75039 12.4588C6.60997 12.4921 6.27963 12.5176 6.11416 12.5397L4.46501 12.7553C4.28293 12.7796 3.9002 12.8188 3.73205 12.8542C3.27061 12.9175 2.74927 13.0711 2.45029 12.6211C2.41955 12.5748 2.39302 12.5272 2.36197 12.4816L2.01602 9.80288Z" fill="#FF2596"/>
<path d="M10.9643 8.12387L10.984 8.11839C11.0002 8.13992 10.9962 8.13188 11.0055 8.15722C11.0176 8.34075 11.0559 8.58481 11.0799 8.77027L11.2187 9.84191L11.3898 11.1693C11.4169 11.3798 11.4435 11.6399 11.478 11.8455C11.4089 11.871 10.9318 11.9176 10.8342 11.9305C10.0051 12.0416 9.17519 12.1469 8.34458 12.2464C8.23827 12.259 7.79221 12.3422 7.73279 12.3235C7.98285 11.9724 8.302 11.58 8.57044 11.2319L10.119 9.22445C10.3962 8.86506 10.6967 8.48788 10.9643 8.12387Z" fill="#FF2596"/>
<path d="M10.2801 7.31028C10.5676 7.35851 11.6413 7.81683 11.9296 7.96478C11.7229 8.00469 11.5015 8.0217 11.2926 8.05196C11.2074 8.0643 11.0987 8.07142 11.017 8.09108C10.9923 8.13227 11.0188 8.1236 11.0052 8.15721C10.9959 8.13187 10.9998 8.1399 10.9837 8.11837L10.9639 8.12386C10.9556 8.1178 10.9492 8.11225 10.9388 8.10919C10.8992 8.09747 6.80475 8.61598 6.38121 8.68786C6.34106 8.69467 6.30831 8.7024 6.2716 8.72096C6.22749 8.6972 5.20178 8.84272 5.03614 8.85824C5.00105 8.8046 4.97898 8.75896 4.96392 8.69683C4.99255 8.71264 4.99091 8.72232 5.01503 8.74299C5.00703 8.68482 5.19856 8.05185 5.2323 7.97188C5.33879 7.97761 5.622 7.93351 5.74279 7.91801L6.71034 7.79365L8.78978 7.52477C9.23519 7.46758 9.68169 7.41174 10.1262 7.34865C10.1847 7.34035 10.2254 7.33349 10.2801 7.31028Z" fill="#005D9E"/>
<path d="M5.23265 7.9719C5.25182 7.91289 5.2807 7.85489 5.30724 7.79888C6.14662 6.02761 8.1804 6.59009 9.64416 7.05929C9.79526 7.10774 10.1649 7.22657 10.2805 7.31029C10.2258 7.33351 10.185 7.34036 10.1266 7.34866C9.68203 7.41175 9.23553 7.4676 8.79013 7.52479L6.71069 7.79366L5.74314 7.91803C5.62234 7.93352 5.33914 7.97762 5.23265 7.9719Z" fill="#005D9E"/>
<path d="M11.946 11.7822C12.4176 11.6612 13.1884 11.599 13.675 11.5264C13.8725 11.4969 15.6898 11.253 15.7609 11.2856L15.7381 11.3013C15.7303 11.3776 15.8226 11.9933 15.8347 12.1092L15.8436 12.139L15.8418 12.1572C15.8163 12.1481 12.6532 12.5704 12.3351 12.607C12.2926 12.6134 12.2017 12.6197 12.1709 12.6339L12.1635 12.6069C12.1583 12.5016 12.0769 11.8771 12.056 11.7827C12.0273 11.7688 11.9804 11.7786 11.946 11.7822Z" fill="#005D9E"/>
<path d="M12.3346 12.607C12.3013 12.5964 12.2566 12.6167 12.2009 12.6074C12.3025 12.5662 12.9477 12.5037 13.1046 12.4835L15.8181 12.1356L15.8342 12.1092L15.843 12.139L15.8413 12.1572C15.8158 12.1482 12.6526 12.5704 12.3346 12.607Z" fill="#005D9E"/>
<path d="M18.772 1.07897L19.3834 0.999998C19.4574 1.0271 19.5345 1.00843 19.6107 1.01485C19.8196 1.03246 19.9792 1.07727 20.1755 1.14212C20.7047 1.31688 21.112 1.73546 21.3726 2.21786C21.9286 3.25854 21.9679 4.59845 21.8972 5.75202C21.8795 6.03904 21.8444 6.41395 21.7877 6.69219C21.6211 6.7216 20.6022 6.83412 20.5561 6.8757C20.4538 6.86061 19.7792 6.95955 19.6275 6.97919L17.4493 7.26082L16.4442 7.39035C16.328 7.40535 16.0267 7.43799 15.9293 7.46539C15.9042 7.48799 15.9052 7.48286 15.8886 7.51034L15.8519 7.48939L15.8371 7.49646L15.8295 7.53441L15.8079 7.48859C15.7582 7.46531 14.7882 7.60841 14.6368 7.62125C14.0941 7.7042 13.4963 7.76837 12.9477 7.83964L12.3163 7.92231C12.2042 7.93693 12.0381 7.96275 11.9286 7.96593C11.926 7.76414 11.8598 7.33391 11.8329 7.12228C11.789 6.70236 11.7367 6.28335 11.6761 5.86551C11.6622 5.76773 11.6039 5.50951 11.6051 5.44183C11.759 5.40969 11.9944 5.38786 12.1567 5.3671L13.1946 5.23393L14.0401 5.1233C14.194 5.103 14.3974 5.06893 14.5475 5.06808C14.6078 4.90161 14.8118 4.60938 14.9205 4.45085C15.8012 3.16683 16.8856 1.81984 18.3661 1.21847C18.4763 1.17372 18.6909 1.13067 18.772 1.07897Z" fill="#30AAFF"/>
<path d="M11.8324 7.12227C11.9593 7.12175 12.158 7.09091 12.2904 7.07385L13.0177 6.9792L14.1485 6.83313C14.3414 6.80811 14.5743 6.78356 14.7635 6.75057C14.7963 6.99795 14.8317 7.34961 14.8749 7.58725C14.7934 7.59394 14.7157 7.60017 14.6363 7.62124C14.0936 7.70419 13.4958 7.76836 12.9472 7.83963L12.3158 7.9223C12.2037 7.93692 12.0376 7.96274 11.9281 7.96592C11.9255 7.76412 11.8593 7.3339 11.8324 7.12227Z" fill="#005D9E"/>
<path d="M19.1642 5.03978C19.3482 5.00729 19.5346 4.99144 19.7213 4.9924C20.2549 4.99732 20.7554 5.20812 21.1203 5.59423C21.1929 5.67099 21.4989 5.98126 21.4982 6.06283C21.4556 6.0561 21.395 5.88287 21.3236 5.89329C21.2672 5.90155 21.2108 5.91117 21.1545 5.9197C21.0101 5.94124 20.8656 5.96165 20.7209 5.98091L18.6809 6.25241C18.3595 6.29627 18.0402 6.31957 17.7164 6.36491C17.4678 6.39973 17.2284 6.43014 16.9792 6.47153C16.8271 6.48442 16.6774 6.50029 16.5263 6.52197C16.4491 6.53305 16.3659 6.51457 16.2893 6.53879L16.2783 6.53122C16.3366 6.48375 16.4002 6.45642 16.4615 6.41411C17.273 5.85509 18.1971 5.26792 19.1642 5.03978Z" fill="#005D9E"/>
</g>
<defs>
<filter id="filter0_d_9701_6311" x="-1.81738" y="-0.610504" width="31.8887" height="31.8885" filterUnits="userSpaceOnUse" color-interpolation-filters="sRGB">
<feFlood flood-opacity="0" result="BackgroundImageFix"/>
<feColorMatrix in="SourceAlpha" type="matrix" values="0 0 0 0 0 0 0 0 0 0 0 0 0 0 0 0 0 0 127 0" result="hardAlpha"/>
<feOffset dy="2"/>
<feGaussianBlur stdDeviation="1.5"/>
<feComposite in2="hardAlpha" operator="out"/>
<feColorMatrix type="matrix" values="0 0 0 0 0 0 0 0 0 0 0 0 0 0 0 0 0 0 0.15 0"/>
<feBlend mode="normal" in2="BackgroundImageFix" result="effect1_dropShadow_9701_6311"/>
<feBlend mode="normal" in="SourceGraphic" in2="effect1_dropShadow_9701_6311" result="shape"/>
</filter>
</defs>
</svg>
