<svg width="192" height="120" viewBox="0 0 192 120" fill="none" xmlns="http://www.w3.org/2000/svg">
<g clip-path="url(#clip0_4099_10984)">
<rect x="1" y="5" width="190" height="106" rx="7" stroke="#334046" stroke-width="2"/>
<path d="M0 12C0 7.58172 3.58172 4 8 4H96V112H8C3.58172 112 0 108.418 0 104V12Z" fill="#334046"/>
<path d="M35.45 66.3C34.65 66.3 33.98 66.1533 33.44 65.86C32.9 65.56 32.49 65.1667 32.21 64.68C31.9367 64.1867 31.8 63.6467 31.8 63.06C31.8 62.5133 31.8967 62.0333 32.09 61.62C32.2833 61.2067 32.57 60.8567 32.95 60.57C33.33 60.2767 33.7967 60.04 34.35 59.86C34.83 59.72 35.3733 59.5967 35.98 59.49C36.5867 59.3833 37.2233 59.2833 37.89 59.19C38.5633 59.0967 39.23 59.0033 39.89 58.91L39.13 59.33C39.1433 58.4833 38.9633 57.8567 38.59 57.45C38.2233 57.0367 37.59 56.83 36.69 56.83C36.1233 56.83 35.6033 56.9633 35.13 57.23C34.6567 57.49 34.3267 57.9233 34.14 58.53L32.19 57.93C32.4567 57.0033 32.9633 56.2667 33.71 55.72C34.4633 55.1733 35.4633 54.9 36.71 54.9C37.6767 54.9 38.5167 55.0667 39.23 55.4C39.95 55.7267 40.4767 56.2467 40.81 56.96C40.9833 57.3133 41.09 57.6867 41.13 58.08C41.17 58.4733 41.19 58.8967 41.19 59.35V66H39.34V63.53L39.7 63.85C39.2533 64.6767 38.6833 65.2933 37.99 65.7C37.3033 66.1 36.4567 66.3 35.45 66.3ZM35.82 64.59C36.4133 64.59 36.9233 64.4867 37.35 64.28C37.7767 64.0667 38.12 63.7967 38.38 63.47C38.64 63.1433 38.81 62.8033 38.89 62.45C39.0033 62.13 39.0667 61.77 39.08 61.37C39.1 60.97 39.11 60.65 39.11 60.41L39.79 60.66C39.13 60.76 38.53 60.85 37.99 60.93C37.45 61.01 36.96 61.09 36.52 61.17C36.0867 61.2433 35.7 61.3333 35.36 61.44C35.0733 61.54 34.8167 61.66 34.59 61.8C34.37 61.94 34.1933 62.11 34.06 62.31C33.9333 62.51 33.87 62.7533 33.87 63.04C33.87 63.32 33.94 63.58 34.08 63.82C34.22 64.0533 34.4333 64.24 34.72 64.38C35.0067 64.52 35.3733 64.59 35.82 64.59ZM47.5767 66.3C46.5701 66.3 45.7001 66.05 44.9667 65.55C44.2401 65.05 43.6767 64.37 43.2767 63.51C42.8834 62.6433 42.6867 61.67 42.6867 60.59C42.6867 59.5033 42.8867 58.5333 43.2867 57.68C43.6867 56.82 44.2534 56.1433 44.9867 55.65C45.7267 55.15 46.6034 54.9 47.6167 54.9C48.6367 54.9 49.4934 55.15 50.1867 55.65C50.8867 56.1433 51.4134 56.82 51.7667 57.68C52.1267 58.54 52.3067 59.51 52.3067 60.59C52.3067 61.67 52.1267 62.64 51.7667 63.5C51.4067 64.36 50.8767 65.0433 50.1767 65.55C49.4767 66.05 48.6101 66.3 47.5767 66.3ZM47.8667 64.41C48.5534 64.41 49.1134 64.2467 49.5467 63.92C49.9801 63.5933 50.2967 63.1433 50.4967 62.57C50.6967 61.9967 50.7967 61.3367 50.7967 60.59C50.7967 59.8433 50.6934 59.1833 50.4867 58.61C50.2867 58.0367 49.9734 57.59 49.5467 57.27C49.1267 56.95 48.5901 56.79 47.9367 56.79C47.2434 56.79 46.6734 56.96 46.2267 57.3C45.7801 57.64 45.4467 58.0967 45.2267 58.67C45.0134 59.2433 44.9067 59.8833 44.9067 60.59C44.9067 61.3033 45.0134 61.95 45.2267 62.53C45.4467 63.1033 45.7734 63.56 46.2067 63.9C46.6467 64.24 47.2001 64.41 47.8667 64.41ZM50.7967 66V58.23H50.5567V51.6H52.6567V66H50.7967ZM59.0847 66.29C57.7714 66.29 56.7014 66 55.8747 65.42C55.048 64.84 54.5414 64.0233 54.3547 62.97L56.4947 62.64C56.628 63.2 56.9347 63.6433 57.4147 63.97C57.9014 64.29 58.5047 64.45 59.2247 64.45C59.878 64.45 60.388 64.3167 60.7547 64.05C61.128 63.7833 61.3147 63.4167 61.3147 62.95C61.3147 62.6767 61.248 62.4567 61.1147 62.29C60.988 62.1167 60.718 61.9533 60.3047 61.8C59.8914 61.6467 59.2614 61.4567 58.4147 61.23C57.488 60.99 56.7514 60.7333 56.2047 60.46C55.6647 60.18 55.278 59.8567 55.0447 59.49C54.818 59.1167 54.7047 58.6667 54.7047 58.14C54.7047 57.4867 54.878 56.9167 55.2247 56.43C55.5714 55.9433 56.058 55.5667 56.6847 55.3C57.318 55.0333 58.058 54.9 58.9047 54.9C59.7314 54.9 60.468 55.03 61.1147 55.29C61.7614 55.55 62.2847 55.92 62.6847 56.4C63.0847 56.8733 63.3247 57.43 63.4047 58.07L61.2647 58.46C61.1914 57.94 60.948 57.53 60.5347 57.23C60.1214 56.93 59.5847 56.7667 58.9247 56.74C58.2914 56.7133 57.778 56.82 57.3847 57.06C56.9914 57.2933 56.7947 57.6167 56.7947 58.03C56.7947 58.27 56.868 58.4733 57.0147 58.64C57.168 58.8067 57.4614 58.9667 57.8947 59.12C58.328 59.2733 58.968 59.4567 59.8147 59.67C60.7214 59.9033 61.4414 60.1633 61.9747 60.45C62.508 60.73 62.888 61.0667 63.1147 61.46C63.348 61.8467 63.4647 62.3167 63.4647 62.87C63.4647 63.9367 63.0747 64.7733 62.2947 65.38C61.5214 65.9867 60.4514 66.29 59.0847 66.29Z" fill="#8C99A1"/>
<g filter="url(#filter0_f_4099_10984)">
<rect x="-6" y="116" width="93" height="204" transform="rotate(-90 -6 116)" fill="url(#paint0_linear_4099_10984)"/>
</g>
<g filter="url(#filter1_f_4099_10984)">
<rect x="95" y="15" width="2" height="90" rx="1" fill="#0D91EC"/>
</g>
<rect x="95" width="2" height="116" rx="1" fill="#0D91EC"/>
</g>
<defs>
<filter id="filter0_f_4099_10984" x="-10" y="19" width="212" height="101" filterUnits="userSpaceOnUse" color-interpolation-filters="sRGB">
<feFlood flood-opacity="0" result="BackgroundImageFix"/>
<feBlend mode="normal" in="SourceGraphic" in2="BackgroundImageFix" result="shape"/>
<feGaussianBlur stdDeviation="2" result="effect1_foregroundBlur_4099_10984"/>
</filter>
<filter id="filter1_f_4099_10984" x="65" y="-15" width="62" height="150" filterUnits="userSpaceOnUse" color-interpolation-filters="sRGB">
<feFlood flood-opacity="0" result="BackgroundImageFix"/>
<feBlend mode="normal" in="SourceGraphic" in2="BackgroundImageFix" result="shape"/>
<feGaussianBlur stdDeviation="15" result="effect1_foregroundBlur_4099_10984"/>
</filter>
<linearGradient id="paint0_linear_4099_10984" x1="-6" y1="218" x2="95.9178" y2="218" gradientUnits="userSpaceOnUse">
<stop stop-color="#242E33"/>
<stop offset="1" stop-color="#242E33" stop-opacity="0"/>
</linearGradient>
<clipPath id="clip0_4099_10984">
<rect width="192" height="120" fill="white"/>
</clipPath>
</defs>
</svg>
