<svg width="310" height="176" viewBox="0 0 310 176" fill="none" xmlns="http://www.w3.org/2000/svg">
<g clip-path="url(#clip0_4099_11456)">
<path d="M168 42C159.222 52.1373 139.472 72.2824 130.694 71.7647C119.722 71.1176 121.917 57.5294 116.796 60.1176C111.676 62.7059 86.0741 98.9412 80.9537 98.9412C75.8333 98.9412 72.1759 84.0588 66.3241 87.2941C60.4722 90.5294 34.8704 115.765 32.6759 115.118C30.4815 114.471 32.6759 101.529 29.0185 104.118C26.0926 106.188 14.6327 115.118 10 119" stroke="url(#paint0_linear_4099_11456)" stroke-width="2" stroke-linecap="round"/>
<g opacity="0.2" filter="url(#filter0_f_4099_11456)">
<circle cx="47" cy="47" r="47" transform="matrix(-1 0 0 1 215 -5)" fill="#0099FF"/>
</g>
<circle opacity="0.12" cx="15" cy="15" r="15" transform="matrix(-1 0 0 1 183 27)" fill="#0D91EC"/>
<circle cx="5" cy="5" r="5" transform="matrix(-1 0 0 1 173 37)" fill="#0D91EC"/>
</g>
<defs>
<filter id="filter0_f_4099_11456" x="1" y="-125" width="334" height="334" filterUnits="userSpaceOnUse" color-interpolation-filters="sRGB">
<feFlood flood-opacity="0" result="BackgroundImageFix"/>
<feBlend mode="normal" in="SourceGraphic" in2="BackgroundImageFix" result="shape"/>
<feGaussianBlur stdDeviation="60" result="effect1_foregroundBlur_4099_11456"/>
</filter>
<linearGradient id="paint0_linear_4099_11456" x1="166.5" y1="43.5" x2="10" y2="127" gradientUnits="userSpaceOnUse">
<stop stop-color="#0D91EC"/>
<stop offset="1" stop-color="#242E33"/>
</linearGradient>
<clipPath id="clip0_4099_11456">
<rect width="310" height="250" fill="white" transform="translate(0 -74)"/>
</clipPath>
</defs>
</svg>
