<svg width="192" height="112" viewBox="0 0 192 112" fill="none" xmlns="http://www.w3.org/2000/svg">
<g clip-path="url(#clip0_4099_10980)">
<rect width="32" height="32" rx="8" fill="#334046"/>
<path d="M26 6H6V26H26V6Z" fill="#3A85CF"/>
<path d="M11 10V20.7429C11 21.4286 10.4238 22 9.68874 22H9.50993H9.49007H8V11.2762C8 11.2571 8 11.2571 8 11.2381C8 10.5714 8.57616 10.019 9.31126 10H11Z" fill="white"/>
<path d="M23.9809 12.4375L22.3357 10H17.1704C17.1704 10 13 10.675 13 15.775C13 21.2312 17.3235 22 17.3235 22H24V14.6875H18.4522C18.1461 14.6875 17.8974 14.9313 17.8974 15.2313V16.3938C17.8974 16.6938 18.1461 16.9375 18.4522 16.9375H21.7235V19.75H17.9165C17.9165 19.75 15.6591 19.6187 15.6591 15.8687C15.6783 12.925 17.9165 12.4375 17.9165 12.4375H23.9809Z" fill="white"/>
<rect x="40" width="32" height="32" rx="8" fill="#334046"/>
<path d="M49.5714 23.3333C48.6637 24.2728 47.8896 25.0793 47 26C46.9999 25.2295 47.0001 8.66789 47 6C53.0091 6 58.9365 6 65 6C65 6.93945 65 8.66667 65 8.66667C65 8.66667 60.4883 12.215 57.9286 14H65V24.6667C65 24.6667 55.668 24.6667 50.8571 24.6667C51.6741 23.7272 52.5209 22.9394 53.4286 22C56.4059 22 59.3994 22 62.4311 22C62.4311 20.1994 62.4286 18.4484 62.4286 16.6667C59.4513 16.6667 56.4422 16.6667 53.4286 16.6667C53.4286 15.7272 53.4286 14.9582 53.4286 14C55.9157 12.2714 58.6376 10.414 61.1429 8.66667C60.4167 8.66667 52.6577 8.66667 49.5714 8.66667C49.5714 13.5706 49.5714 18.4482 49.5714 23.3333Z" fill="white"/>
<rect x="80" width="32" height="32" rx="8" fill="#334046"/>
<path fill-rule="evenodd" clip-rule="evenodd" d="M89.3183 16.6851H92.2949V18.2512H89.3183V20.1073H93.8536V15.0996H90.8418V13.6302H93.8536V11.8901H89.3183V16.6851ZM96.7527 11.8901H95.1147V20.1073H96.7527V11.8901ZM101.12 15.0996V11.8901H102.679V20.1073H101.155V16.5691H99.6756V20.1073H98.1697V11.8901H99.702V15.0996H101.12Z" fill="white"/>
<path fill-rule="evenodd" clip-rule="evenodd" d="M85 15.1012H88.0383V16.8993H85V15.1012ZM103.962 15.1001H107V16.8982H103.962V15.1001ZM95.1104 7H96.7484V10.3352H95.1104V7ZM95.1104 21.6648H96.7484V25H95.1104V21.6648Z" fill="#0D91EC"/>
<path fill-rule="evenodd" clip-rule="evenodd" d="M86.5082 13.5646V11.7471C86.5082 10.0457 87.7763 8.65358 89.3263 8.65358H93.7824V10.3357H89.3263C88.6129 10.3357 88.0405 10.9737 88.0405 11.7471V13.5646H86.5082ZM98.2126 8.65358H102.369C104.087 8.65358 105.478 10.1907 105.487 12.0758V13.5646H103.954V12.0758C103.954 11.1188 103.241 10.3357 102.369 10.3357H98.2126V8.65358ZM103.954 19.9049C103.954 20.8619 103.241 21.645 102.369 21.645H98.2126V23.3271H102.369C104.087 23.3271 105.487 21.79 105.487 19.9049V18.4161H103.954V19.9049ZM88.0405 18.4161V19.9049C88.0405 20.8716 88.7538 21.645 89.6257 21.645H93.7824V23.3271H89.6257C87.9084 23.3271 86.5082 21.79 86.5082 19.9049V18.4161H88.0405Z" fill="white"/>
<rect x="120" width="32" height="32" rx="8" fill="#334046"/>
<path d="M136.226 14.4296C136.032 14.0469 135.798 13.6774 135.523 13.3755C135.33 13.156 135.124 12.95 134.945 12.7442C134.56 12.3325 134.109 12.0153 133.643 11.7116C132.575 10.994 131.388 10.6153 130.108 10.467C129.332 10.3915 128.557 10.4249 127.797 10.608C127.648 10.6473 127.513 10.7005 127.35 10.7261C127.485 10.6186 127.62 10.5111 127.741 10.417C128.214 10.0815 128.715 9.82789 129.257 9.64268C130.694 9.11242 132.148 8.94958 133.646 9.18163C134.831 9.36985 135.937 9.80215 136.95 10.4376C137.073 10.5068 137.182 10.5894 137.278 10.6584C137.361 10.7136 137.415 10.7685 137.524 10.7696C137.551 10.7698 137.579 10.7973 137.593 10.811C137.771 10.9624 137.976 11.1139 138.168 11.279C138.182 11.2655 138.209 11.2386 138.222 11.2251C138.263 11.1575 138.317 11.1308 138.412 11.1453C138.494 11.1461 138.548 11.1739 138.603 11.2288C138.686 11.3112 138.782 11.4073 138.864 11.4897C138.947 11.5721 139.002 11.6543 139.03 11.7634C139.058 11.8453 139.032 11.9538 139.087 12.036C139.101 12.0497 139.074 12.0766 139.06 12.0901C139.156 12.1318 139.184 12.2409 139.104 12.349C139.212 12.2956 139.213 12.3772 139.268 12.4322C139.337 12.528 139.201 12.5267 139.188 12.5946C139.215 12.5949 139.228 12.5814 139.256 12.5817C139.31 12.555 139.337 12.5552 139.378 12.6236C139.42 12.6921 139.407 12.7327 139.353 12.7866C139.339 12.8001 139.326 12.8408 139.313 12.8542L139.326 12.868C139.34 12.8545 139.367 12.8548 139.38 12.8413C139.434 12.7874 139.489 12.8151 139.517 12.8698C139.558 12.9382 139.558 12.9654 139.491 13.0056C139.477 13.0191 139.464 13.0325 139.45 13.046C139.437 13.0595 139.437 13.0867 139.437 13.0867C139.451 13.1004 139.464 13.0869 139.478 13.1007C139.478 13.1007 139.492 13.0872 139.519 13.0875C139.654 13.0072 139.654 13.0072 139.737 13.1712C139.697 13.2116 139.643 13.2383 139.602 13.2787L139.616 13.2924C139.67 13.2657 139.724 13.2391 139.778 13.2124C139.806 13.2671 139.847 13.3083 139.861 13.3492C139.862 13.3764 139.794 13.4166 139.754 13.457C139.754 13.457 139.767 13.4707 139.754 13.4842C139.781 13.4844 139.808 13.4575 139.835 13.4578C139.876 13.4445 139.903 13.4176 139.93 13.3907C139.971 13.4319 139.999 13.4865 140.04 13.5277C140 13.5682 139.945 13.5948 139.905 13.6353C139.946 13.6765 139.946 13.6765 140.122 13.5557C140.163 13.5969 140.191 13.6516 140.232 13.6928C140.192 13.7332 140.151 13.7736 140.097 13.8003C140.111 13.8141 140.111 13.8141 140.124 13.8278C140.192 13.7876 140.232 13.7472 140.3 13.7071C140.341 13.7483 140.355 13.7892 140.397 13.8304C140.356 13.8708 140.329 13.8978 140.302 13.9247C140.302 13.9247 140.316 13.9384 140.302 13.9519C140.33 13.9522 140.357 13.9524 140.37 13.939C140.492 13.8721 140.492 13.8721 140.589 13.9955C140.575 14.0089 140.548 14.0359 140.548 14.0631C140.548 14.0631 140.548 14.0631 140.562 14.0768C140.589 14.0499 140.616 14.0502 140.643 14.0232C140.711 13.9831 140.806 14.0248 140.821 14.0929C140.821 14.1201 140.807 14.1336 140.794 14.1743C140.794 14.1743 140.794 14.1743 140.808 14.188C140.875 14.1207 140.93 14.1484 140.972 14.2168C140.999 14.2443 141.054 14.272 141.095 14.286C141.136 14.3 141.176 14.314 141.231 14.3145C141.34 14.3155 141.435 14.3573 141.491 14.4666C141.505 14.4804 141.518 14.4941 141.532 14.5078C141.6 14.5221 141.614 14.563 141.601 14.6309C141.724 14.6729 141.807 14.7825 141.78 14.8639C141.848 14.8509 141.903 14.8786 141.876 14.96L141.89 14.9737C141.945 15.0015 141.972 15.0289 141.932 15.0966C142 15.1108 142.055 15.1385 142.029 15.2199C142.124 15.2344 142.138 15.2754 142.111 15.3567C142.18 15.371 142.221 15.385 142.221 15.4666C142.221 15.4666 142.222 15.4938 142.235 15.4803C142.303 15.4946 142.304 15.549 142.304 15.6034C142.386 15.6314 142.414 15.6589 142.387 15.7402C142.483 15.7547 142.51 15.7822 142.484 15.8636C142.565 15.8916 142.662 16.0693 142.649 16.1372C142.663 16.1509 142.69 16.1512 142.69 16.1512C142.732 16.2196 142.774 16.3152 142.815 16.3836C142.843 16.4383 142.884 16.4795 142.912 16.5342C142.926 16.5751 142.94 16.6161 142.967 16.6435C142.981 16.6573 143.008 16.6847 143.022 16.7257C143.05 16.8076 143.078 16.8894 143.12 16.9578C143.148 17.0125 143.189 17.0809 143.217 17.1356C143.258 17.204 143.272 17.2722 143.314 17.3406C143.342 17.4224 143.397 17.5046 143.425 17.5865C143.495 17.764 143.578 17.928 143.634 18.0917C143.676 18.2418 143.732 18.4055 143.788 18.5421C143.788 18.5693 143.802 18.583 143.802 18.6102C143.776 18.7188 143.818 18.8144 143.9 18.8968C143.941 18.938 143.969 18.9927 143.997 19.0474C144.038 19.1158 144.039 19.1974 143.972 19.2648C143.931 19.3052 143.932 19.3596 144 19.3738C144.123 19.4158 144.192 19.5389 144.22 19.648C144.234 19.6889 144.18 19.7428 144.154 19.797C144.14 19.8377 144.127 19.8511 144.1 19.8781C144.141 19.8921 144.155 19.9058 144.196 19.9198C144.373 19.9623 144.483 20.1266 144.43 20.2893C144.431 20.3165 144.404 20.3435 144.39 20.3569C144.309 20.4106 144.31 20.465 144.392 20.493C144.473 20.521 144.528 20.5759 144.584 20.658C144.625 20.7264 144.612 20.7943 144.558 20.8754C144.491 20.97 144.492 20.9972 144.587 21.0389C144.738 21.1356 144.78 21.2312 144.741 21.4349C144.701 21.5569 144.661 21.6789 144.622 21.801C144.595 21.8823 144.527 21.8953 144.446 21.8673C144.46 21.9082 144.474 21.9492 144.488 21.9901C144.502 22.0583 144.516 22.1264 144.489 22.1805C144.396 22.4109 144.303 22.6412 144.21 22.8716C144.024 23.3322 143.948 23.8212 143.871 24.3101C143.845 24.5003 143.777 24.5132 143.613 24.43C143.476 24.3471 143.326 24.2505 143.189 24.1675C143.162 24.1401 143.134 24.1398 143.08 24.1393C142.821 24.1232 142.577 24.1208 142.331 24.0913C142.182 24.0762 142.031 24.0068 141.881 23.9373C141.458 23.7836 141.169 23.468 140.921 23.0848C140.727 22.7837 140.642 22.4292 140.653 22.062C140.65 21.8444 140.73 21.6275 140.755 21.4101C140.78 21.2199 140.847 21.0438 140.968 20.8953C141.075 20.7603 141.101 20.6245 141.154 20.4618C141.207 20.2991 141.178 20.1356 141.163 19.9858C141.147 19.7 141.008 19.4539 140.789 19.2613C140.665 19.1649 140.528 19.0548 140.405 18.9584C140.364 18.9172 140.336 18.8897 140.336 18.8353C140.335 18.7537 140.321 18.6856 140.334 18.6177C140.398 18.2238 140.299 17.8828 140.119 17.5411C140.036 17.377 139.926 17.24 139.802 17.0892C139.637 16.8971 139.432 16.8 139.2 16.7297C139.091 16.7015 139.091 16.7015 139.104 16.5792C139.129 16.4162 139.155 16.2532 139.153 16.09C139.15 15.7363 138.997 15.422 138.75 15.1748C138.668 15.0924 138.558 15.0369 138.449 14.9814C138.107 14.8285 137.753 14.7163 137.359 14.8077C137.101 14.8733 136.871 14.9663 136.669 15.1411C136.561 15.2217 136.492 15.2075 136.41 15.125C136.286 14.947 136.162 14.769 136.132 14.5511C136.146 14.5104 136.145 14.456 136.226 14.4296ZM143.423 23.0272C143.463 22.9596 143.557 22.8381 143.624 22.7163C143.798 22.4051 143.822 22.0517 143.737 21.6972C143.694 21.52 143.624 21.3425 143.487 21.2324C143.199 20.9712 142.885 20.8457 142.504 20.8421C142.164 20.8524 141.866 20.9583 141.61 21.1599C141.232 21.4827 141.059 21.9027 141.091 22.3927C141.092 22.5015 141.12 22.6106 141.176 22.72C141.356 23.0617 141.63 23.3092 141.998 23.408C142.503 23.5624 142.964 23.4309 143.423 23.0272Z" fill="#F41795"/>
<rect x="160" width="32" height="32" rx="8" fill="#334046"/>
<path d="M166 15.9C166 10.5 170.5 6 176 6C181.5 6 186 10.2 186 16.1C186 21.5 181.7 26 176.1 26C170.4 26 166.1 21.6 166 15.9ZM180.3 21.5C180.3 21.6 180.2 21.6 180.2 21.6C180.1 21.7 180.1 21.7 180 21.7C177.8 22.7 175.5 22.8 173.2 21.9C171.5 21.2 171.8 21.2 171.9 19.8C171.9 19.7 171.9 19.6 171.9 19.5C172.1 17.9 172.6 16.4 173.7 15.1C174 14.7 174.3 14.7 174.6 15.1C174.8 15.4 175.1 15.7 175.4 16.1C175.6 15.9 175.8 15.8 176 15.6C177.1 14.6 177.7 13.3 178.1 11.9C178.6 10 178.7 10.1 177 9.3C174.7 8.2 172.3 8.3 169.9 8.8C169.7 8.8 169.6 8.9 169.4 9C169.7 9.3 170 9.6 170.5 10C170.2 10.1 170 10.2 169.9 10.4C167.3 12.9 166.6 16.9 168.1 20.1C169.7 23.3 173.4 25.2 177 24.7C181.2 24.1 184 20.8 184.6 17.9C185.2 14.7 184.3 11.8 182.4 9.2C182.3 9.1 182.3 9.1 182.1 9C183 13.4 183.4 17.5 178.9 20.3C179.4 20.8 179.9 21.1 180.3 21.5Z" fill="white"/>
<path d="M180.397 21.5053C179.986 21.0916 179.471 20.7814 178.957 20.3677C183.483 17.3688 183.175 13.1288 182.249 8.68209C182.455 8.7855 182.557 8.7855 182.557 8.88891C184.409 11.5776 185.438 14.5766 184.821 17.8858C184.203 20.8848 181.323 24.2974 177.003 24.9179C173.299 25.4349 169.493 23.4701 167.847 20.1609C166.201 16.8517 167.024 12.6118 169.699 10.1299C169.905 9.92304 170.11 9.71622 170.316 9.6128C169.905 9.19915 169.596 8.88891 169.288 8.57868C169.493 8.47526 169.596 8.37185 169.699 8.37185C172.168 7.85479 174.637 7.75138 177.003 8.88891C178.854 9.71622 178.648 9.6128 178.237 11.4742C177.928 12.922 177.208 14.2664 176.077 15.3005C175.871 15.5073 175.665 15.7141 175.46 15.8176C175.151 15.5073 174.842 15.0937 174.637 14.7834C174.328 14.3698 174.019 14.3698 173.711 14.7834C172.579 16.1278 172.065 17.679 171.859 19.3336C171.859 19.437 171.859 19.5404 171.859 19.6438C171.653 21.0916 171.448 21.0916 173.196 21.8155C175.562 22.8496 177.928 22.6428 180.192 21.6087C180.294 21.6087 180.397 21.5053 180.397 21.5053C180.397 21.6087 180.397 21.6087 180.397 21.5053Z" fill="#1D4D50"/>
<rect y="40" width="32" height="32" rx="8" fill="#334046"/>
<path d="M6 62.9582L12.0255 47L14.7081 52.3525H17.2087L19.9797 47L26 62.9582L22.2152 61.2193L19.9797 61.7311L18.1289 63.9765L16.0026 65L13.8555 63.9765L12.0515 61.7311L9.87315 61.2193L6 62.9582Z" fill="#852803"/>
<path d="M9.23782 56.7998L7.55859 61.1928L9.7837 60.1791L12.7315 60.9641L9.23782 56.7998Z" fill="white"/>
<path d="M22.7502 56.7998L24.4346 61.1928L22.2043 60.1791L19.2617 60.9641L22.7502 56.7998Z" fill="white"/>
<path d="M9.23828 56.7997L12.134 49.147L14.2396 53.2125H17.7904L19.8335 49.147L22.7501 56.7997L17.5565 63.2047L16.0124 62.0713L14.4527 63.2047L9.23828 56.7997Z" fill="#FF7300"/>
<path d="M14.4414 53.8105H17.5139L16.0115 57.6577L14.4414 53.8105Z" fill="#FF6800"/>
<path d="M13.483 53.2023H11.2891L12.2093 50.8057L13.483 53.2023Z" fill="#FF6800"/>
<path d="M20.7213 53.2023H18.5273L19.8115 50.8057L20.7213 53.2023Z" fill="#FF6800"/>
<path d="M18.5294 56.7998H19.6264L19.1793 57.6108L17.5156 58.8586V57.954L18.5294 56.7998Z" fill="#852803"/>
<path d="M13.4759 56.7998H12.3789L12.826 57.6108L14.4896 58.8586V57.954L13.4759 56.7998Z" fill="#852803"/>
<rect x="40" y="40" width="32" height="32" rx="8" fill="#334046"/>
<path d="M45 50.4C45.8571 48.9 46.619 47.5 47.381 46C53.1905 46 59 46 64.7143 46C65.4762 47.4 66.2381 48.8 67 50.2C64.1429 55.5 61.1905 60.7 58.3333 66C56.7143 66 55.0952 66 53.4762 66C50.7143 60.8 47.8571 55.6 45 50.4ZM59.5714 55.2C58.3333 57.4 57.1905 59.5 56.0476 61.6C55.7619 61.1 55.5714 60.7 55.2857 60.3C55.1905 60.1 55.1905 60 55.2857 59.8C55.9524 58.6 56.7143 57.3 57.381 56.1C57.381 56.1 57.4762 56 57.381 56C56.2381 56 55.0952 56 53.9524 56C53.7619 56.3 53.5714 56.6 53.4762 56.9C53.381 56.8 53.381 56.8 53.381 56.7C52.4286 55.2 51.6667 53.6 50.8095 52.1C50.7143 52 50.7143 52 50.619 52C49.4762 52 48.4286 52 47.381 52C47.381 52 47.2857 52 47.1905 52C49.5714 56.3 51.8571 60.5 54.2381 64.8C54.3333 64.8 54.3333 64.8 54.4286 64.8C55.381 64.8 56.4286 64.8 57.381 64.8C57.6667 64.8 57.7619 64.7 57.9524 64.5C59.6667 61.3 61.381 58.1 63.1905 55C63.6667 54.1 64.1429 53.2 64.7143 52.3C64.8095 52.2 64.8095 52.1 64.9048 52C61.9524 52 59.0952 52 56.2381 52C56.0476 51.7 55.9524 51.5 55.8571 51.2C54.7143 51.2 53.5714 51.2 52.3333 51.2C53.0952 52.5 53.7619 53.8 54.5238 55.1C56.0476 55.2 57.7619 55.2 59.5714 55.2ZM62.1429 47.3C62.0476 47.3 62.0476 47.3 62.0476 47.3C57.4762 47.3 52.8095 47.3 48.2381 47.3C48.1429 47.3 48.0476 47.3 48.0476 47.4C47.4762 48.4 47 49.4 46.4286 50.3C46.4286 50.3 46.3333 50.4 46.4286 50.5C49.9524 50.5 53.381 50.5 57 50.5C56.8095 50.8 56.7143 51 56.619 51.3C57.7619 51.3 59 51.3 60.1429 51.3C60.8095 49.9 61.4762 48.6 62.1429 47.3ZM65.8571 50.4C65.2857 49.3 64.7143 48.3 64.1429 47.3C64.1429 47.2 64.0476 47.2 63.9524 47.2C63.6667 47.2 63.381 47.2 63.0952 47.2C63 47.2 63 47.2 62.9048 47.3C62.3333 48.3 61.7619 49.3 61.2857 50.3C61.2857 50.3 61.1905 50.4 61.2857 50.4C62.8095 50.4 64.3333 50.4 65.8571 50.4Z" fill="black"/>
<path d="M59.5713 55.2002C57.857 55.2002 56.1427 55.2002 54.4284 55.2002C53.6665 53.8002 52.9046 52.5002 52.1427 51.2002C53.3808 51.2002 54.5236 51.2002 55.6665 51.2002C55.7617 51.4002 55.9522 51.7002 56.0475 52.0002C58.9046 52.0002 61.857 52.0002 64.7141 52.0002C64.6189 52.1002 64.6189 52.2002 64.5236 52.3002C64.0475 53.2002 63.5713 54.1002 62.9998 55.0002C61.1903 58.2002 59.476 61.3002 57.7617 64.5002C57.6665 64.7002 57.476 64.8002 57.1903 64.8002C56.2379 64.8002 55.1903 64.8002 54.2379 64.8002C54.1427 64.8002 54.1427 64.8002 54.0475 64.8002C51.857 60.5002 49.5713 56.2002 47.1903 52.0002C47.2855 51.9002 47.2855 52.0002 47.3808 52.0002C48.4284 52.0002 49.476 52.0002 50.5236 52.0002C50.7141 52.0002 50.7141 52.0002 50.8094 52.1002C51.6665 53.6002 52.5236 55.1002 53.2855 56.7002C53.2855 56.8002 53.3808 56.8002 53.3808 56.9002C53.5713 56.6002 53.7617 56.3002 53.857 56.0002C54.9998 56.0002 56.1427 56.0002 57.2855 56.0002C57.2855 56.1002 57.2855 56.1002 57.2855 56.1002C56.6189 57.4002 55.9522 58.6002 55.1903 59.8002C55.0951 60.0002 55.0951 60.1002 55.1903 60.3002C55.476 60.7002 55.6665 61.1002 55.9522 61.6002C57.1903 59.4002 58.3332 57.3002 59.5713 55.2002Z" fill="#00BC8C"/>
<path d="M62.1423 47.2997C61.3804 48.5997 60.7137 49.8997 59.9518 51.1997C58.809 51.1997 57.6661 51.1997 56.428 51.1997C56.5233 50.9997 56.7137 50.6997 56.809 50.3997C53.2852 50.3997 49.7614 50.3997 46.2375 50.3997C46.2375 50.2997 46.2375 50.2997 46.2375 50.1997C46.809 49.1997 47.2852 48.1997 47.8566 47.2997C47.9518 47.1997 47.9518 47.1997 48.0471 47.1997C52.6185 47.1997 57.2852 47.1997 61.8566 47.1997C62.1423 47.1997 62.1423 47.1997 62.1423 47.2997Z" fill="#00BC8C"/>
<path d="M65.8567 50.3997C64.3329 50.3997 62.8091 50.3997 61.3805 50.3997V50.2997C61.9519 49.2997 62.5233 48.2997 62.9995 47.2997C62.9995 47.1997 63.0948 47.1997 63.19 47.1997C63.4757 47.1997 63.7614 47.1997 64.0472 47.1997C64.1424 47.1997 64.1424 47.1997 64.2376 47.2997C64.7138 48.2997 65.2853 49.2997 65.8567 50.3997C65.8567 50.3997 65.8567 50.2997 65.8567 50.3997Z" fill="#00BC8C"/>
<rect x="80" y="40" width="32" height="32" rx="8" fill="#334046"/>
<path d="M99.4633 49.3292C99.4633 49.3292 99.3317 47.7046 95.3937 46.2813C94.173 45.8407 95.1098 46.6887 95.2827 47.2285C95.4556 47.7657 95.515 48.2444 94.9601 47.8574C94.4053 47.4678 93.9717 47.2208 93.9717 47.2208C93.9717 47.2208 92.5885 49.5711 92.3666 49.7009C92.1446 49.8308 90.5601 51.4935 89.9021 52.7387C89.244 53.9838 99.4633 49.3292 99.4633 49.3292Z" fill="#FA4A0B"/>
<path d="M88.7795 56.3826C88.7795 56.3826 88.506 54.3608 86.4776 53.602C85.1356 52.8254 85.7911 53.8515 85.9537 54.2895C86.1163 54.7275 86.5498 55.7052 87.084 56.3113C87.3885 56.6576 87.6131 56.8995 87.4169 57.2177C86.9214 58.0249 86.9111 58.5877 86.8518 59.5603C86.8105 60.2071 87.2647 59.9677 87.6492 59.68C88.0337 59.3923 89.0118 58.4043 89.2234 57.3578C89.435 56.3138 88.7795 56.3826 88.7795 56.3826Z" fill="#FA4A0B"/>
<path d="M90.7383 60.001C90.9112 60.2709 91.848 61.5949 91.848 62.8401C93.1718 63.0794 94.0389 62.4021 94.0389 62.4021L90.7383 60.001Z" fill="#FA4A0B"/>
<path d="M100.48 49.7089C99.6183 49.4823 94.7176 48.3543 91.0273 51.6212C87.337 54.8881 89.1021 57.852 89.1021 57.852C89.1021 57.852 92.5499 64.2814 99.1744 63.2196C105.799 62.1578 105.221 53.5615 105.221 53.5615L100.48 49.7089Z" fill="#4DB5DB"/>
<path d="M89.3857 58.3203C89.729 59.0995 92.9264 63.1353 97.6103 63.8585C102.803 64.5816 104.782 60.118 104.382 59.8099C102.48 60.2555 91.8451 61.5312 89.3857 58.3203Z" fill="#006599"/>
<path d="M99.2412 60.9761C98.6141 60.9761 97.796 61.2154 97.3315 61.3758C96.867 61.5363 95.3212 61.8342 95.3212 61.8342C95.3212 61.8342 95.0089 61.8138 95.2412 62.6006C95.4734 63.3874 95.0089 64.0953 95.0089 64.0953C95.0089 64.0953 94.8076 64.6045 95.525 64.7624C96.2425 64.9228 96.5754 64.8413 96.5754 64.8413C96.5754 64.8413 96.9986 65.0807 98.8283 63.2474C100.658 61.414 100.031 61.1059 99.9096 61.055C99.7857 61.0066 99.2412 60.9761 99.2412 60.9761Z" fill="#FA4A0B"/>
<path d="M101.892 52.9477C101.36 53.8389 99.4324 53.1871 101.164 56.482C102.318 58.6769 103.345 58.435 103.345 58.435C103.345 58.435 105.378 57.7577 104.772 55.247C104.165 52.7364 102.496 52.5098 102.496 52.5098C102.496 52.5098 102.139 52.5352 101.892 52.9477Z" fill="#222627"/>
<path d="M106.707 58.4297C106.648 57.6455 106.573 53.9737 103.221 50.9233C98.9187 47.6564 97.1252 50.3274 96.6323 50.8927C96.1393 51.4605 96.3484 51.2085 96.3484 51.2085C95.2181 52.4561 94.8 54.7427 94.8 54.7427C94.8 54.7427 94.5858 56.4691 95.3523 57.2534C96.1187 58.0376 96.8052 58.636 98.4619 58.9008C100.119 59.1656 100.387 59.0994 100.387 59.0994C100.387 59.0994 101.961 58.9543 101.667 60.2962C101.386 61.386 101.35 61.4064 101.35 61.4064C101.35 61.4064 100.999 62.1626 102.015 61.992C103.032 61.8214 102.581 61.9182 102.385 62.4172C102.188 62.9163 102.305 63.1735 102.305 63.1735C102.305 63.1735 102.606 63.5656 103.489 63.2677C103.858 63.0742 103.894 62.9367 103.894 62.9367C103.894 62.9367 103.928 63.395 104.379 63.4485C104.831 63.502 105.04 63.5936 105.334 63.2091C105.368 63.176 105.28 63.4077 105.67 63.4154C106.059 63.423 106.155 63.1964 106.281 62.7584C106.41 62.3154 106.766 59.214 106.707 58.4297ZM104.462 57.6888C104.462 57.6888 103.463 58.9034 102.098 57.6888C100.735 56.4742 101.21 54.3302 101.391 54.073C101.548 53.77 101.982 53.4645 101.92 53.2404C101.861 53.1385 101.572 53.1666 101.572 53.1666C101.177 53.1666 100.815 53.2455 101.228 52.8381C101.641 52.4307 102.581 52.3797 103.166 52.7591C103.752 53.1385 104.782 53.8159 104.945 55.5397C105.107 57.2635 104.462 57.6888 104.462 57.6888Z" fill="white"/>
<path d="M103.672 55C103.424 55 103.308 55.5678 103.308 55.5678C103.308 55.5678 103.249 56.1458 103.489 56.4743C103.729 56.8028 104.281 56.9428 104.312 55.9803C104.317 55.1146 103.92 55 103.672 55Z" fill="#4DB5DB"/>
<path d="M103.744 55.438C103.626 55.438 103.571 55.7053 103.571 55.7053C103.571 55.7053 103.543 55.9778 103.659 56.1331C103.775 56.2884 104.038 56.3546 104.051 55.8989C104.051 55.4915 103.863 55.438 103.744 55.438Z" fill="#8BD7FF"/>
<rect x="120" y="40" width="32" height="32" rx="8" fill="#334046"/>
<path fill-rule="evenodd" clip-rule="evenodd" d="M127.285 54.3487L127.285 54.3488L127.286 54.3489C127.83 54.8822 128.37 55.4118 128.9 55.9414V55.8414C128.9 55.4414 128.9 55.0414 129 54.6414C129.7 50.9414 133.2 48.3414 136.9 48.7414C138.6 48.9414 140.2 49.6414 141.4 50.9414C142.357 51.8384 143.278 52.8069 144.206 53.7827L144.206 53.7828L144.206 53.7828C144.83 54.4389 145.457 55.0982 146.1 55.7414C146.1 55.7414 146.2 55.7414 146.2 55.8414V55.7414C146.2 55.0414 146.1 54.3414 145.9 53.6414C145.2 50.8414 143.6 48.7414 141.2 47.3414C139.9 46.5414 138.4 46.1414 136.8 46.0414C135.9 45.9414 135 46.0414 134.2 46.1414C131.3 46.8414 129.1 48.4414 127.6 50.9414C127.6 51.0414 127.5 51.0414 127.4 51.0414H124.2H124C125.07 52.1786 126.185 53.271 127.285 54.3487L127.285 54.3487L127.285 54.3487ZM148.299 60.8415L143.499 56.0415C143.499 56.5415 143.499 56.9415 143.399 57.0415C142.999 58.9415 141.999 60.4415 140.499 61.6415C139.399 62.4415 138.099 62.9415 136.699 63.0415C135.999 63.1415 135.399 63.0415 134.799 62.9415C133.299 62.6415 131.999 61.9415 130.899 60.8415L130.899 60.8415C129.399 59.3415 127.799 57.7415 126.299 56.1415L126.199 56.0415C126.247 56.3265 126.272 56.589 126.295 56.8396C126.322 57.1166 126.347 57.379 126.399 57.6415C126.599 58.7415 126.999 59.7415 127.499 60.7415C128.299 62.3415 129.499 63.5415 130.999 64.4415C132.299 65.2415 133.799 65.7415 135.399 65.8415C135.899 65.9415 136.499 65.9415 137.099 65.8415C137.699 65.8415 138.299 65.7415 138.899 65.5415C141.499 64.7415 143.399 63.2415 144.799 60.9415C144.899 60.8415 144.999 60.8415 145.099 60.8415H148.199H148.299ZM136.299 59.8416L136.499 59.6416C136.899 59.1416 136.699 58.3416 135.999 58.1416C135.899 58.1416 135.799 58.0416 135.799 57.9416C135.599 57.6416 135.399 57.4416 134.999 57.4416C134.899 57.4416 134.799 57.3416 134.799 57.3416C134.599 57.0416 134.299 56.9416 133.999 56.9416C133.957 56.9416 133.932 56.9416 133.911 56.9339C133.881 56.9235 133.857 56.8991 133.799 56.8416C133.599 56.6416 133.399 56.4416 133.099 56.4416C132.899 56.4416 132.699 56.4416 132.599 56.5416C132.499 56.5416 132.399 56.6416 132.299 56.7416H132.199V56.6416L132.199 56.6416C132.299 56.3416 132.399 56.0416 132.499 55.8416C132.599 55.5416 132.724 55.2166 132.849 54.8916C132.974 54.5666 133.099 54.2416 133.199 53.9416C133.199 53.8416 133.299 53.8416 133.399 53.8416C133.899 53.7416 134.399 53.6416 134.999 53.6416H135.099C134.999 53.6416 134.999 53.7416 134.999 53.7416C134.849 53.8416 134.724 53.9416 134.599 54.0416C134.474 54.1416 134.349 54.2416 134.199 54.3416C133.899 54.3416 133.799 54.4416 133.699 54.6416C133.649 54.6916 133.624 54.7416 133.599 54.7916C133.574 54.8416 133.549 54.8916 133.499 54.9416C133.417 55.1062 133.47 55.203 133.547 55.3436L133.547 55.3437C133.564 55.3739 133.582 55.4062 133.599 55.4416C133.799 55.7416 134.099 55.9416 134.499 55.9416C134.699 55.9416 134.999 55.9416 135.199 55.8416C135.349 55.7916 135.499 55.7166 135.649 55.6416C135.799 55.5666 135.949 55.4916 136.099 55.4416C136.14 55.4213 136.175 55.403 136.207 55.3869C136.329 55.3238 136.387 55.2941 136.437 55.3041C136.481 55.313 136.519 55.3533 136.591 55.4296C136.621 55.4608 136.656 55.498 136.699 55.5416L136.699 55.5416C137.199 55.9416 137.699 56.3416 138.299 56.7416C138.486 56.9286 138.712 57.0768 138.953 57.2346C139.098 57.3299 139.249 57.4286 139.399 57.5416C139.449 57.5916 139.499 57.6166 139.549 57.6416C139.599 57.6666 139.649 57.6916 139.699 57.7416C139.899 57.9416 139.799 58.1416 139.699 58.2416C139.599 58.3416 139.499 58.3416 139.399 58.2416C139.349 58.2416 139.324 58.2166 139.299 58.1916C139.274 58.1666 139.249 58.1416 139.199 58.1416H138.999C138.899 58.1416 138.899 58.2416 138.999 58.2416C138.999 58.2749 139.01 58.3083 139.021 58.3416C139.044 58.4083 139.066 58.4749 138.999 58.5416C138.999 58.7416 138.799 58.8416 138.599 58.8416C138.499 58.8416 138.399 58.7416 138.299 58.6416L138.199 58.5416H138.099C137.999 58.5416 137.999 58.6416 138.099 58.6416V58.7416C138.199 58.8416 138.199 59.0416 138.099 59.1416C137.999 59.3416 137.799 59.3416 137.699 59.3416C137.599 59.3416 137.499 59.2416 137.399 59.1416L137.299 59.0416H137.099V59.2416C137.099 59.2916 137.124 59.3166 137.149 59.3416C137.174 59.3666 137.199 59.3916 137.199 59.4416C137.299 59.7416 137.099 59.9416 136.799 59.9416C136.499 60.0416 136.399 59.9416 136.299 59.8416ZM132.151 53.0914C131.976 53.0414 131.801 52.9914 131.601 52.9414C131.301 54.0414 131.001 55.2414 130.801 56.3414C131.001 56.3414 131.301 56.4414 131.501 56.5414L132.701 53.2414C132.501 53.1914 132.326 53.1414 132.151 53.0914Z" fill="#615DFC"/>
<path fill-rule="evenodd" clip-rule="evenodd" d="M139.398 53.7414C139.898 54.8414 140.298 55.9414 140.698 57.0414C140.998 56.9414 141.198 56.8414 141.298 56.7414L140.398 53.4414C140.098 53.5414 139.798 53.6414 139.398 53.7414ZM139.898 56.8413C139.798 56.8413 139.698 56.9413 139.598 57.0413L139.598 57.0413C139.548 56.9913 139.473 56.9413 139.398 56.8913C139.323 56.8413 139.248 56.7913 139.198 56.7413C138.848 56.4913 138.474 56.2164 138.099 55.9414L138.098 55.9413L138.098 55.9412C137.723 55.6662 137.348 55.3913 136.998 55.1413C136.998 54.9949 136.945 54.9557 136.877 54.9059C136.852 54.8877 136.825 54.8681 136.798 54.8413C136.598 54.7413 136.398 54.7413 136.198 54.8413C136.098 54.8413 135.898 54.9413 135.798 55.0413C135.648 55.0913 135.523 55.1413 135.398 55.1913C135.273 55.2413 135.148 55.2913 134.998 55.3413C134.798 55.4413 134.598 55.4413 134.498 55.4413C134.398 55.4413 134.198 55.3413 134.098 55.2413C134.048 55.1913 134.023 55.1663 134.023 55.1413C134.023 55.1163 134.048 55.0913 134.098 55.0413C134.148 54.9913 134.173 54.9413 134.198 54.8913C134.223 54.8413 134.248 54.7913 134.298 54.7413C134.398 54.6413 134.523 54.5413 134.648 54.4413C134.773 54.3413 134.898 54.2413 134.998 54.1413C135.098 54.0913 135.198 54.0163 135.298 53.9413C135.398 53.8663 135.498 53.7913 135.598 53.7413C135.648 53.6913 135.698 53.6663 135.748 53.6413C135.798 53.6163 135.848 53.5913 135.898 53.5413C136.098 53.4413 136.298 53.4413 136.498 53.5413C136.898 53.6913 137.298 53.8163 137.698 53.9413C138.098 54.0663 138.498 54.1913 138.898 54.3413C138.948 54.3413 138.973 54.3413 138.986 54.3538C138.998 54.3663 138.998 54.3913 138.998 54.4413L139.898 56.8413ZM134.701 59.0413C134.601 59.0413 134.526 59.0663 134.451 59.0913C134.376 59.1163 134.301 59.1413 134.201 59.1413C134.001 59.1413 133.901 59.1413 133.801 59.0413C133.601 58.9413 133.601 58.7413 133.701 58.6413C133.651 58.6413 133.601 58.6663 133.551 58.6913C133.501 58.7163 133.451 58.7413 133.401 58.7413C133.101 58.7413 132.801 58.6413 132.701 58.4413C132.601 58.3413 132.601 58.2413 132.801 58.0413H132.701C132.601 58.0413 132.501 58.0413 132.401 57.9413C132.301 57.9413 132.201 57.8413 132.201 57.8413C132.001 57.6413 132.001 57.4413 132.201 57.3413C132.361 57.0213 132.521 56.9573 132.681 56.8933C132.721 56.8773 132.761 56.8613 132.801 56.8413H133.201C133.401 56.9413 133.501 57.0413 133.501 57.2413V57.4413C133.551 57.4413 133.626 57.4163 133.701 57.3913C133.776 57.3663 133.851 57.3413 133.901 57.3413C134.201 57.2413 134.401 57.4413 134.501 57.6413C134.601 57.7413 134.501 57.9413 134.401 58.0413H134.501C134.551 58.0413 134.601 58.0163 134.651 57.9913C134.701 57.9663 134.751 57.9413 134.801 57.9413C135.001 57.9413 135.201 58.0413 135.301 58.2413C135.363 58.3031 135.348 58.3649 135.328 58.4503L135.328 58.4503C135.315 58.5031 135.301 58.5649 135.301 58.6413C135.401 58.6413 135.501 58.6413 135.501 58.5413C135.701 58.5413 135.801 58.5413 136.001 58.6413C136.101 58.7413 136.201 58.8413 136.101 59.0413C136.101 59.0913 136.076 59.1163 136.051 59.1413C136.026 59.1663 136.001 59.1913 136.001 59.2413C135.801 59.4413 135.501 59.5413 135.201 59.5413C134.801 59.6413 134.601 59.4413 134.701 59.0413Z" fill="#8986FD"/>
<rect x="160" y="40" width="32" height="32" rx="8" fill="#334046"/>
<path d="M184 50V48H182V46H179.326H177.11H174.893H172.677H170V48H168V50H166V52.6402V54.8889V57.1111V59.3333V60.4444V62H168V64H170V66H172.676H173.778H174.889H177.111H179.333H182V64H184V62H186V59.2849V57.1111V54.8889V53.7702V53.2092V52.6471V50H184Z" fill="url(#paint0_linear_4099_10980)"/>
<path d="M184 50V48H182V49.4286V49.7143V50H183H184V52.8572V54.1429V55.2857V56.5714V57.8572V59.4286V60.2857V60.8572V61.1428V62H183H182V61.8536V62.143V62.5714V62.8572V63.2858V64H184V62H186L186 59.3789V57.143V54.8571V53.7065V53.1295V52.5513L186 50H184Z" fill="#0A7BD1"/>
<path fill-rule="evenodd" clip-rule="evenodd" d="M172 52L179 52V50L172 50V52ZM172 59H170L170 52L172 52L172 59ZM179 59H172L172 61H179V59ZM179 59H181V57V55H179H175V57L179 57V59Z" fill="#121626"/>
<rect y="80" width="32" height="32" rx="8" fill="#334046"/>
<path d="M7.97686 90.0501C8.87074 90.317 9.42082 90.8509 9.35206 91.852C9.35206 91.9854 9.35206 92.0522 9.42082 92.1856C9.76462 93.7873 10.521 95.1888 11.4836 96.5236C11.8962 97.1242 12.7901 97.1242 13.2714 96.5903C13.959 95.7894 14.5778 94.9219 14.7154 93.7873C14.7841 93.0532 15.5405 92.5193 16.2968 92.4526C17.122 92.4526 17.8096 92.9865 17.9471 93.7206C18.1534 94.4547 17.7408 95.1888 16.9844 95.5225C15.1967 96.3901 14.0965 97.7916 13.6839 99.6602C13.4777 100.461 12.7901 101.062 11.8962 100.995C11.0711 100.928 10.4522 100.328 10.3835 99.46C10.3147 98.8593 10.1772 98.3255 10.0397 97.7248C9.42082 96.3233 8.66446 94.9886 7.70181 93.8541C7.42677 93.5204 7.01421 93.1867 6.67041 92.9197C6.32661 92.6528 6.12033 92.2524 6.05157 91.9187C5.98281 91.7185 5.98281 91.5183 6.05157 91.3848C6.25785 90.7174 6.73917 90.2503 7.42677 90.0501C7.56429 89.9833 7.77057 89.9833 7.97686 90.0501Z" fill="white"/>
<path d="M24.5071 90C24.6526 90.0673 24.7254 90.0673 24.8709 90.1346C25.4529 90.3365 25.8166 90.8077 25.9622 91.3461C26.1077 91.9519 25.8166 92.423 25.3801 92.8268C24.8709 93.298 24.2889 93.7018 23.9251 94.2402C22.8339 95.5863 21.9609 97.1344 21.5971 98.817C21.5244 99.0189 21.5244 99.2881 21.5244 99.49C21.4516 100.23 20.9424 100.836 20.1421 100.971C19.3418 101.105 18.5416 100.769 18.1778 100.096C17.8141 99.4227 18.0323 98.6824 18.6143 98.2112C20.7241 96.5959 21.8154 94.4421 22.4701 92.0192C22.5429 91.8845 22.4701 91.6826 22.5429 91.548C22.6156 90.8077 23.0521 90.2692 23.8524 90.0673C23.9251 90.0673 23.9979 90 24.0706 90C24.1434 90 24.2889 90 24.5071 90Z" fill="white"/>
<rect x="40" y="80" width="32" height="32" rx="8" fill="#334046"/>
<path d="M58 87C58 87.3 58 87.8 58 87.8V88H61.1H65C64.6667 88.6667 64.3333 89.3333 64 90H57.7H51.9L50.7 90.6C50 91.1 49.5 91.6 49.1 92.7C49 93.1 49 93.2 49.1 93.6C49.6 94.7 50.1 95.2 50.8 95.5L51.8 96H55.6H58.9C58.9 96 58.8 96.3 58.7 96.5C58.6 96.7 58.5 96.9 58.4 97.1C58.1 97.5 58.2 97.5 58.1 97.7L58 98H55.2C52.1 98 51 97.9 50.8 97.9C50.4 97.8 49.7 97.5 49.4 97.2C48.1 96.2 47 95.5 47 93.4C47 92.3 47.3 91.5 47.6 90.7C48.1 89.5 49.4 88.6 50.6 88.2C50.8 88 51.1 88 51.3 88H53.2H56V87.7V87H56.7H58Z" fill="url(#paint1_linear_4099_10980)"/>
<path d="M56 103C56 102.9 56 102.5 56 102.5V102H52.3H50V106H48V102.6V101.7V100.4V100H55.7H60.1H60.3C61 99.7 61.8 99 62 97.8C62.1 97.4 62.1 96.7 62 96.3C61.7 95 60.3 94.2 60.3 94.2L60 94H56.2H53.3L52.7 93.1L52.1 92.2L52 92H52.5H57C59.8 92 60.8 92 61 92.1C61.4 92.2 62 92.5 62.3 92.7C63.5 93.6 64 95.1 64 97C64 98 64 98.8 63.7 99.5C63.3 100.4 62.7 101.1 61.9 101.5C61.5 101.7 61 101.9 60.5 101.9C59.8 102 58.8 101.9 58.8 101.9H58V102.4V103H56.7H56Z" fill="url(#paint2_linear_4099_10980)"/>
<rect x="80" y="80" width="32" height="32" rx="8" fill="#334046"/>
<path opacity="0.43" d="M100.502 88.2042C96.2008 85.7222 90.6954 87.2003 88.2089 91.5044C85.7224 95.8089 87.1948 101.313 91.4957 103.796C95.7973 106.278 101.303 104.8 103.79 100.496C106.276 96.1911 104.812 90.6909 100.502 88.2042ZM93.7291 99.9296C91.5626 98.6796 90.8196 95.9021 92.072 93.7339C93.3248 91.5656 96.1025 90.8201 98.269 92.0701C100.436 93.3204 101.179 96.0979 99.9261 98.2661C98.6733 100.434 95.9038 101.185 93.7291 99.9296Z" fill="url(#paint3_linear_4099_10980)"/>
<path d="M97.5 98L94.3658 95.0144L90.5347 93.0289C89.8105 92.6538 89.8219 91.711 90.569 91.3516L101.423 86.1199C102.369 85.6619 103.39 86.605 102.85 87.445L97.5 98Z" fill="#F95043"/>
<path d="M93.5 94.5L101.465 98.9711C102.189 99.3462 102.178 100.289 101.431 100.648L90.5771 105.88C89.6311 106.338 88.6098 105.395 89.1501 104.555L93.5 94.5Z" fill="#F95043"/>
<path d="M98.0001 97L93.05 95.5L93.5001 94.5L98.0001 97Z" fill="#D13733"/>
<rect x="120" y="80" width="32" height="32" rx="8" fill="#334046"/>
<path d="M129.446 87.27C129.716 87.09 129.985 87 130.254 87H139.052C139.591 87 140.13 87.27 140.399 87.72L144.798 95.19C145.067 95.73 145.067 96.18 144.798 96.72L140.399 104.19C140.13 104.73 139.591 105 139.052 105H130.254C129.985 105 129.716 104.91 129.446 104.73C129.267 104.55 128.998 104.37 128.908 104.19L127.202 101.4C126.933 100.95 126.933 100.5 127.202 100.14L129.177 96.72C129.357 96.45 129.357 96.18 129.357 96C129.357 95.82 129.267 95.46 129.087 95.28L127.202 91.86C126.933 91.41 126.933 90.96 127.202 90.6L128.908 87.81C128.998 87.63 129.177 87.36 129.446 87.27ZM132.14 100.41C132.319 100.5 132.589 100.59 132.858 100.59H136.449C136.988 100.59 137.526 100.32 137.796 99.87L139.681 96.81C139.95 96.27 139.95 95.82 139.681 95.28L137.796 92.13C137.526 91.59 136.988 91.41 136.449 91.41H132.858C132.589 91.32 132.319 91.41 132.14 91.5L134.384 95.28C134.653 95.82 134.653 96.27 134.384 96.81L132.14 100.41Z" fill="#00F8D8"/>
<rect x="160" y="80" width="32" height="32" rx="8" fill="#334046"/>
<path fill-rule="evenodd" clip-rule="evenodd" d="M175.005 86L171.005 93H171L173 96H177L175 100L179 106L185 95L184 93H178L182 86H175.005Z" fill="white"/>
<path fill-rule="evenodd" clip-rule="evenodd" d="M167 100H174L170.497 94L167 100Z" fill="#FF6C47"/>
<rect y="123" width="91" height="199" transform="rotate(-90 0 123)" fill="url(#paint4_linear_4099_10980)"/>
<rect x="31.8033" y="191.221" width="117.474" height="253.456" transform="rotate(-112.871 31.8033 191.221)" fill="url(#paint5_linear_4099_10980)"/>
</g>
<defs>
<linearGradient id="paint0_linear_4099_10980" x1="167.795" y1="46.7692" x2="181.897" y2="66" gradientUnits="userSpaceOnUse">
<stop stop-color="#00A3FF"/>
<stop offset="1" stop-color="#0291FF"/>
</linearGradient>
<linearGradient id="paint1_linear_4099_10980" x1="49.5265" y1="99.3586" x2="60.2518" y2="83.8286" gradientUnits="userSpaceOnUse">
<stop stop-color="#40D58B"/>
<stop offset="1" stop-color="#3AC17D"/>
</linearGradient>
<linearGradient id="paint2_linear_4099_10980" x1="55.9648" y1="106" x2="55.9648" y2="92" gradientUnits="userSpaceOnUse">
<stop stop-color="#28AC93"/>
<stop offset="1" stop-color="#40D27E"/>
</linearGradient>
<linearGradient id="paint3_linear_4099_10980" x1="96.1033" y1="84.8111" x2="95.9378" y2="105.605" gradientUnits="userSpaceOnUse">
<stop stop-color="#DB2F36"/>
<stop offset="1" stop-color="#5474BF"/>
</linearGradient>
<linearGradient id="paint4_linear_4099_10980" x1="1.35601e-06" y1="222.5" x2="99.726" y2="222.5" gradientUnits="userSpaceOnUse">
<stop stop-color="#242E33"/>
<stop offset="1" stop-color="#242E33" stop-opacity="0"/>
</linearGradient>
<linearGradient id="paint5_linear_4099_10980" x1="31.8033" y1="317.949" x2="160.542" y2="317.949" gradientUnits="userSpaceOnUse">
<stop stop-color="#242E33"/>
<stop offset="1" stop-color="#242E33" stop-opacity="0"/>
</linearGradient>
<clipPath id="clip0_4099_10980">
<rect width="192" height="112" fill="white"/>
</clipPath>
</defs>
</svg>
