<svg xmlns="http://www.w3.org/2000/svg" width="456" height="28" viewBox="0 0 456 28" fill="none">
  <rect width="456" height="28" fill="url(#paint0_linear_2313_3711)"/>
  <path d="M43.815 20L44.805 14.384H42.843L41.853 20H39.063L41.421 6.608H44.211L43.329 11.684H45.273L46.173 6.608H48.963L46.605 20H43.815ZM57.1445 10.298L56.0825 16.4C55.6685 18.722 54.7325 20.18 52.3205 20.18H51.8885C49.4405 20.18 48.0005 18.938 48.4505 16.292L49.5305 10.19C49.9265 7.958 50.7545 6.446 53.2745 6.446H53.7065C56.2265 6.446 57.6125 7.652 57.1445 10.298ZM53.2565 16.4L54.3365 10.226C54.5165 9.236 54.1205 8.84 53.4725 8.84C52.8245 8.84 52.5185 9.254 52.3385 10.226L51.2585 16.4C51.0965 17.264 51.4205 17.75 52.1225 17.75C52.7885 17.75 53.0945 17.318 53.2565 16.4ZM56.6509 20L59.0089 6.608H63.1669C65.0569 6.608 66.1369 7.544 65.7589 9.74L65.5969 10.622C65.3269 12.134 64.4449 12.548 63.9229 12.656C64.4269 12.872 65.3269 13.484 64.9849 15.464L64.7149 16.994C64.3729 18.92 63.7069 20 61.6009 20H56.6509ZM62.2129 8.642H61.3849L60.7909 11.882H61.7989C62.4829 11.882 62.7709 11.504 62.8969 10.73L63.0589 9.83C63.1849 9.038 63.0049 8.642 62.2129 8.642ZM61.3309 13.97H60.4309L59.7289 17.876H60.8269C61.5469 17.876 61.7989 17.516 61.9429 16.652L62.2129 15.194C62.3389 14.438 62.1049 13.97 61.3309 13.97ZM69.9148 20H65.1988L67.5748 6.608H70.3648L69.5008 11.54H70.7248C72.8488 11.54 73.8568 12.62 73.4968 14.672L73.0648 17.066C72.6688 19.298 71.8048 20 69.9148 20ZM69.1048 13.7L68.3848 17.84H69.2668C69.9508 17.84 70.2028 17.48 70.3468 16.67L70.6528 14.906C70.8148 14.078 70.5988 13.7 69.8968 13.7H69.1048ZM78.7708 6.608L76.4128 20H73.6228L75.9808 6.608H78.7708ZM80.0422 6.608H86.1622L85.7482 9.002H82.3102L81.8062 11.846H84.7042L84.2542 14.312H81.3742L80.7982 17.552H84.3442L83.9122 20H77.6842L80.0422 6.608ZM91.2735 17.786C91.9935 17.786 92.2095 17.282 92.3535 16.454L92.7315 14.366H95.4135L94.9995 16.67C94.6935 18.452 94.0275 20.18 91.5075 20.18H91.0215C88.4475 20.18 87.2775 18.758 87.7095 16.292L88.8075 10.082C89.2215 7.76 90.1215 6.464 92.5155 6.464H92.9475C95.5575 6.464 96.5835 7.688 96.1695 10.028L95.8995 11.63H93.2175L93.4875 10.082C93.6315 9.254 93.3975 8.786 92.6775 8.786C92.0295 8.786 91.7775 9.272 91.6335 10.082L90.4995 16.472C90.3555 17.318 90.6075 17.786 91.2735 17.786ZM100.653 20L99.3928 13.754L98.2768 20H95.5408L97.8988 6.608H100.635L99.6448 12.314L102.831 6.608H105.657L102.003 12.98L103.425 20H100.653ZM109.15 20L109.96 15.392C110.284 13.538 110.572 12.278 110.788 11.36C110.428 12.242 109.888 13.502 109.222 14.888L106.738 20H103.948L106.324 6.608H109.078L108.25 11.216C107.926 13.07 107.692 14.132 107.458 15.068C107.854 14.132 108.34 13.07 109.006 11.72L111.49 6.608H114.28L111.904 20H109.15ZM117.951 20L118.941 14.384H116.979L115.989 20H113.199L115.557 6.608H118.347L117.465 11.684H119.409L120.309 6.608H123.099L120.741 20H117.951ZM126.727 20H122.011L124.387 6.608H127.177L126.313 11.54H127.537C129.661 11.54 130.669 12.62 130.309 14.672L129.877 17.066C129.481 19.298 128.617 20 126.727 20ZM125.917 13.7L125.197 17.84H126.079C126.763 17.84 127.015 17.48 127.159 16.67L127.465 14.906C127.627 14.078 127.411 13.7 126.709 13.7H125.917ZM135.583 6.608L133.225 20H130.435L132.793 6.608H135.583Z" fill="white"/>
  <path d="M169.963 20L170.953 14.384H168.991L168.001 20H165.211L167.569 6.608H170.359L169.477 11.684H171.421L172.321 6.608H175.111L172.753 20H169.963ZM179.225 20L180.035 15.392C180.359 13.538 180.647 12.278 180.863 11.36C180.503 12.242 179.963 13.502 179.297 14.888L176.813 20H174.023L176.399 6.608H179.153L178.325 11.216C178.001 13.07 177.767 14.132 177.533 15.068C177.929 14.132 178.415 13.07 179.081 11.72L181.565 6.608H184.355L181.979 20H179.225ZM184.966 9.938C185.416 7.418 186.586 6.464 188.674 6.464H189.232C191.518 6.464 192.652 7.67 192.328 9.686L192.148 10.712C191.896 12.134 191.176 12.71 190.33 12.962C191.158 13.268 191.77 14.06 191.518 15.464L191.266 16.958C190.87 19.208 189.754 20.18 187.486 20.18H187C184.948 20.18 183.328 19.172 183.796 16.562L184.066 15.104H186.748L186.496 16.616C186.316 17.534 186.73 17.894 187.342 17.894C187.972 17.894 188.35 17.534 188.476 16.724L188.71 15.32C188.872 14.528 188.656 14.258 187.774 14.258H186.568L186.982 11.9H188.17C188.926 11.9 189.25 11.576 189.376 10.802L189.574 9.704C189.718 8.912 189.448 8.57 188.818 8.57C188.206 8.57 187.828 8.948 187.666 9.848L187.45 11.054H184.768L184.966 9.938ZM196.864 20L195.604 13.754L194.488 20H191.752L194.11 6.608H196.846L195.856 12.314L199.042 6.608H201.868L198.214 12.98L199.636 20H196.864ZM205.361 20L206.171 15.392C206.495 13.538 206.783 12.278 206.999 11.36C206.639 12.242 206.099 13.502 205.433 14.888L202.949 20H200.159L202.535 6.608H205.289L204.461 11.216C204.137 13.07 203.903 14.132 203.669 15.068C204.065 14.132 204.551 13.07 205.217 11.72L207.701 6.608H210.491L208.115 20H205.361ZM211.768 6.608H217.888L217.474 9.002H214.036L213.532 11.846H216.43L215.98 14.312H213.1L212.524 17.552H216.07L215.638 20H209.41L211.768 6.608ZM224.475 21.908L224.817 20H218.859L221.217 6.608H224.007L222.081 17.552H223.935L225.861 6.608H228.651L226.725 17.552H227.805L227.031 21.908H224.475ZM230.398 6.608H236.518L236.104 9.002H232.666L232.162 11.846H235.06L234.61 14.312H231.73L231.154 17.552H234.7L234.268 20H228.04L230.398 6.608ZM239.951 20L240.941 14.384H238.979L237.989 20H235.199L237.557 6.608H240.347L239.465 11.684H241.409L242.309 6.608H245.099L242.741 20H239.951ZM248.727 20H244.011L246.387 6.608H249.177L248.313 11.54H249.537C251.661 11.54 252.669 12.62 252.309 14.672L251.877 17.066C251.481 19.298 250.617 20 248.727 20ZM247.917 13.7L247.197 17.84H248.079C248.763 17.84 249.015 17.48 249.159 16.67L249.465 14.906C249.627 14.078 249.411 13.7 248.709 13.7H247.917ZM257.583 6.608L255.225 20H252.435L254.793 6.608H257.583Z" fill="white"/>
  <path d="M328.101 17.786C327.453 19.388 326.913 20 325.257 20H323.547L323.961 17.696H324.771C325.167 17.696 325.311 17.552 325.401 17.264L325.437 17.156C325.545 16.814 325.527 16.598 325.455 15.968L324.609 6.608H327.381L327.561 13.43L329.937 6.608H332.655L328.101 17.786ZM334.853 17.786C335.573 17.786 335.789 17.282 335.933 16.454L336.311 14.366H338.993L338.579 16.67C338.273 18.452 337.607 20.18 335.087 20.18H334.601C332.027 20.18 330.857 18.758 331.289 16.292L332.387 10.082C332.801 7.76 333.701 6.464 336.095 6.464H336.527C339.137 6.464 340.163 7.688 339.749 10.028L339.479 11.63H336.797L337.067 10.082C337.211 9.254 336.977 8.786 336.257 8.786C335.609 8.786 335.357 9.272 335.213 10.082L334.079 16.472C333.935 17.318 334.187 17.786 334.853 17.786ZM339.121 20L341.479 6.608H348.967L346.591 20H343.801L345.745 9.002H343.855L341.911 20H339.121ZM350.237 6.608H356.357L355.943 9.002H352.505L352.001 11.846H354.899L354.449 14.312H351.569L350.993 17.552H354.539L354.107 20H347.879L350.237 6.608ZM360.241 20L361.051 15.392C361.375 13.538 361.663 12.278 361.879 11.36C361.519 12.242 360.979 13.502 360.313 14.888L357.829 20H355.039L357.415 6.608H360.169L359.341 11.216C359.017 13.07 358.783 14.132 358.549 15.068C358.945 14.132 359.431 13.07 360.097 11.72L362.581 6.608H365.371L362.995 20H360.241ZM364.111 3.692C363.913 4.952 363.193 5.834 361.663 5.834H361.609C359.953 5.834 359.179 5.042 359.359 3.692L359.395 3.476H361.213L361.177 3.638C361.123 4.034 361.285 4.268 361.645 4.268C362.023 4.268 362.221 4.034 362.293 3.638L362.311 3.476H364.147L364.111 3.692ZM371.692 20L370.432 13.754L369.316 20H366.58L368.938 6.608H371.674L370.684 12.314L373.87 6.608H376.696L373.042 12.98L374.464 20H371.692ZM379.991 17.786C379.343 19.388 378.803 20 377.147 20H375.437L375.851 17.696H376.661C377.057 17.696 377.201 17.552 377.291 17.264L377.327 17.156C377.435 16.814 377.417 16.598 377.345 15.968L376.499 6.608H379.271L379.451 13.43L381.827 6.608H384.545L379.991 17.786ZM382.779 20L385.137 6.608H392.625L390.249 20H387.459L389.403 9.002H387.513L385.569 20H382.779ZM396.74 20L397.55 15.392C397.874 13.538 398.162 12.278 398.378 11.36C398.018 12.242 397.478 13.502 396.812 14.888L394.328 20H391.538L393.914 6.608H396.668L395.84 11.216C395.516 13.07 395.282 14.132 395.048 15.068C395.444 14.132 395.93 13.07 396.596 11.72L399.08 6.608H401.87L399.494 20H396.74ZM409.231 9.002H407.143L405.199 20H402.481L404.407 9.002H402.301L402.715 6.608H409.663L409.231 9.002ZM412.875 20H408.159L410.535 6.608H413.325L412.461 11.54H413.685C415.809 11.54 416.817 12.62 416.457 14.672L416.025 17.066C415.629 19.298 414.765 20 412.875 20ZM412.065 13.7L411.345 17.84H412.227C412.911 17.84 413.163 17.48 413.307 16.67L413.613 14.906C413.775 14.078 413.559 13.7 412.857 13.7H412.065Z" fill="url(#paint1_linear_2313_3711)"/>
  <path d="M289.473 15.4962L289.755 15.5184C290.594 18.3017 289.412 21.6387 287 22.9707V23C289.375 22.7726 292.468 20.2148 292.65 16.2734L293 16.2239V15.6094C292.286 15.193 291.819 13.4608 292.819 12.5402C292.649 10.235 291.702 7.93482 290.499 6.32491L288.342 5L288.013 5.73067C287.726 5.90405 287.493 6.16341 287.344 6.47612C287.196 6.78883 287.138 7.14093 287.179 7.48813C287.282 8.32491 287.849 8.83729 288.888 9.00404C289.423 9.08792 289.619 9.32946 289.715 9.65387C289.811 9.99646 289.783 10.3441 289.523 10.5452L289.566 10.6908C290.033 10.7221 290.276 10.9939 290.373 11.3911C290.489 11.861 290.452 12.2481 290.086 12.5149L290.102 12.6382C290.535 12.7928 290.772 13.2446 290.786 13.6963C290.8 14.1673 290.471 14.6473 289.977 14.8504C289.814 14.9171 289.328 15.0232 289.328 15.0232L289.473 15.4962ZM288.927 8.30571C288.279 8.40071 287.848 8.00253 287.771 7.4194C287.687 6.77564 288.003 6.27337 288.651 6.17938C289.273 6.08843 289.73 6.48257 289.814 7.12228C289.895 7.70945 289.554 8.21577 288.927 8.30571Z" fill="#FF007F"/>
  <defs>
    <linearGradient id="paint0_linear_2313_3711" x1="228" y1="0" x2="228" y2="28" gradientUnits="userSpaceOnUse">
      <stop offset="0.0926659" stop-color="#0A185E"/>
      <stop offset="0.90854" stop-color="#120A35"/>
    </linearGradient>
    <linearGradient id="paint1_linear_2313_3711" x1="323" y1="13.5" x2="417" y2="13.5" gradientUnits="userSpaceOnUse">
      <stop stop-color="#68FF55"/>
      <stop offset="1" stop-color="#C4FF00"/>
    </linearGradient>
  </defs>
</svg>
