<svg xmlns="http://www.w3.org/2000/svg" width="456" height="28" viewBox="0 0 456 28" fill="none">
  <rect width="456" height="28" fill="url(#paint0_linear_2313_3705)"/>
  <path d="M64.3438 12.278C64.4878 13.448 64.5778 14.276 64.6318 15.014C64.7398 14.186 64.8298 13.448 65.1358 11.72L66.0358 6.608H68.3758L66.0178 20H63.6058L62.6518 13.808C62.4718 12.584 62.3998 11.756 62.3638 11.072C62.2918 11.774 62.1838 12.728 61.8778 14.42L60.8878 20H58.5298L60.8878 6.608H63.5878L64.3438 12.278ZM69.6291 6.608H75.7491L75.3351 9.002H71.8971L71.3931 11.846H74.2911L73.8411 14.312H70.9611L70.3851 17.552H73.9311L73.4991 20H67.2711L69.6291 6.608ZM81.3084 15.32C81.3624 13.556 81.4164 12.494 81.4704 11.738C81.2904 12.458 80.9844 13.538 80.4084 15.32L78.9684 20H75.9984L76.0344 6.608H78.7704L78.5184 12.638C78.4464 14.222 78.3564 15.59 78.3024 16.256C78.4644 15.608 78.8604 14.24 79.3464 12.638L81.1464 6.608H83.5044L83.3064 12.62C83.2524 14.204 83.1624 15.59 83.1084 16.256C83.2704 15.626 83.6664 14.24 84.1344 12.638L85.8984 6.608H88.5084L84.0804 20H81.1464L81.3084 15.32ZM92.1398 16.688C91.9958 17.534 92.3558 17.894 93.0218 17.894C93.9758 17.894 94.1198 16.868 94.1198 16.202C94.1198 15.608 93.8318 15.248 93.3818 14.726L92.1398 13.304C91.3478 12.404 90.7178 11.594 90.7178 10.154C90.7178 8.318 91.4018 6.446 94.4258 6.446H94.8398C97.3058 6.446 98.4038 7.454 98.0258 9.614L97.8278 10.748H95.1818L95.3798 9.686C95.5058 8.894 95.2358 8.57 94.6058 8.57C93.7058 8.57 93.5258 9.236 93.5258 9.866C93.5258 10.46 93.8318 10.802 94.2638 11.306L95.4878 12.746C96.3518 13.754 97.0358 14.51 97.0358 15.968C97.0358 17.75 96.3878 20.162 93.2198 20.162H92.7878C90.2858 20.162 89.0618 19.01 89.4398 16.868L89.7278 15.23H92.4098L92.1398 16.688ZM102.356 20L101.096 13.754L99.9799 20H97.2439L99.6019 6.608H102.338L101.348 12.314L104.534 6.608H107.36L103.706 12.98L105.128 20H102.356ZM110.799 6.608L108.441 20H105.651L108.009 6.608H110.799ZM115.531 12.278C115.675 13.448 115.765 14.276 115.819 15.014C115.927 14.186 116.017 13.448 116.323 11.72L117.223 6.608H119.563L117.205 20H114.793L113.839 13.808C113.659 12.584 113.587 11.756 113.551 11.072C113.479 11.774 113.371 12.728 113.065 14.42L112.075 20H109.717L112.075 6.608H114.775L115.531 12.278ZM121.392 16.688C121.248 17.534 121.608 17.894 122.274 17.894C123.228 17.894 123.372 16.868 123.372 16.202C123.372 15.608 123.084 15.248 122.634 14.726L121.392 13.304C120.6 12.404 119.97 11.594 119.97 10.154C119.97 8.318 120.654 6.446 123.678 6.446H124.092C126.558 6.446 127.656 7.454 127.278 9.614L127.08 10.748H124.434L124.632 9.686C124.758 8.894 124.488 8.57 123.858 8.57C122.958 8.57 122.778 9.236 122.778 9.866C122.778 10.46 123.084 10.802 123.516 11.306L124.74 12.746C125.604 13.754 126.288 14.51 126.288 15.968C126.288 17.75 125.64 20.162 122.472 20.162H122.04C119.538 20.162 118.314 19.01 118.692 16.868L118.98 15.23H121.662L121.392 16.688Z" fill="white"/>
  <path d="M164.713 6.608H167.503L165.595 17.462H168.655L168.205 20H162.355L164.713 6.608ZM177.993 10.298L176.931 16.4C176.517 18.722 175.581 20.18 173.169 20.18H172.737C170.289 20.18 168.849 18.938 169.299 16.292L170.379 10.19C170.775 7.958 171.603 6.446 174.123 6.446H174.555C177.075 6.446 178.461 7.652 177.993 10.298ZM174.105 16.4L175.185 10.226C175.365 9.236 174.969 8.84 174.321 8.84C173.673 8.84 173.367 9.254 173.187 10.226L172.107 16.4C171.945 17.264 172.269 17.75 172.971 17.75C173.637 17.75 173.943 17.318 174.105 16.4ZM184.29 15.32C184.344 13.556 184.398 12.494 184.452 11.738C184.272 12.458 183.966 13.538 183.39 15.32L181.95 20H178.98L179.016 6.608H181.752L181.5 12.638C181.428 14.222 181.338 15.59 181.284 16.256C181.446 15.608 181.842 14.24 182.328 12.638L184.128 6.608H186.486L186.288 12.62C186.234 14.204 186.144 15.59 186.09 16.256C186.252 15.626 186.648 14.24 187.116 12.638L188.88 6.608H191.49L187.062 20H184.128L184.29 15.32ZM197.857 14.798H195.895L194.977 20H192.187L194.545 6.608H198.487C200.395 6.608 201.637 7.472 201.241 9.74L200.863 11.9C200.521 13.844 199.783 14.798 197.857 14.798ZM196.957 8.714L196.291 12.602H197.101C197.839 12.602 198.037 12.296 198.199 11.342L198.451 9.974C198.613 8.984 198.325 8.714 197.587 8.714H196.957ZM204.18 14.276L203.172 20H200.436L202.794 6.608H207.132C208.824 6.608 209.922 7.454 209.544 9.65L209.346 10.73C209.094 12.062 208.374 12.602 207.618 12.782C208.284 13.124 208.806 13.826 208.536 15.374L207.978 18.506C207.87 19.154 207.924 19.604 208.014 19.91L207.996 20H205.278C205.17 19.802 205.098 19.406 205.224 18.65L205.782 15.482C205.926 14.618 205.674 14.276 204.972 14.276H204.18ZM205.17 8.642L204.558 12.098H205.494C206.178 12.098 206.448 11.72 206.592 10.91L206.79 9.776C206.934 8.966 206.682 8.642 205.962 8.642H205.17ZM214.062 6.608L211.704 20H208.914L211.272 6.608H214.062ZM217.119 17.786C217.839 17.786 218.055 17.282 218.199 16.454L218.577 14.366H221.259L220.845 16.67C220.539 18.452 219.873 20.18 217.353 20.18H216.867C214.293 20.18 213.123 18.758 213.555 16.292L214.653 10.082C215.067 7.76 215.967 6.464 218.361 6.464H218.793C221.403 6.464 222.429 7.688 222.015 10.028L221.745 11.63H219.063L219.333 10.082C219.477 9.254 219.243 8.786 218.523 8.786C217.875 8.786 217.623 9.272 217.479 10.082L216.345 16.472C216.201 17.318 216.453 17.786 217.119 17.786ZM223.745 6.608H229.865L229.451 9.002H226.013L225.509 11.846H228.407L227.957 14.312H225.077L224.501 17.552H228.047L227.615 20H221.387L223.745 6.608ZM231.392 16.688C231.248 17.534 231.608 17.894 232.274 17.894C233.228 17.894 233.372 16.868 233.372 16.202C233.372 15.608 233.084 15.248 232.634 14.726L231.392 13.304C230.6 12.404 229.97 11.594 229.97 10.154C229.97 8.318 230.654 6.446 233.678 6.446H234.092C236.558 6.446 237.656 7.454 237.278 9.614L237.08 10.748H234.434L234.632 9.686C234.758 8.894 234.488 8.57 233.858 8.57C232.958 8.57 232.778 9.236 232.778 9.866C232.778 10.46 233.084 10.802 233.516 11.306L234.74 12.746C235.604 13.754 236.288 14.51 236.288 15.968C236.288 17.75 235.64 20.162 232.472 20.162H232.04C229.538 20.162 228.314 19.01 228.692 16.868L228.98 15.23H231.662L231.392 16.688Z" fill="white"/>
  <path d="M313.162 20L315.52 6.608H319.39C321.514 6.608 322.774 7.562 322.342 10.082L321.172 16.67C320.776 18.956 320.038 20 317.806 20H313.162ZM317.932 8.786L316.366 17.696H317.248C318.004 17.696 318.256 17.264 318.4 16.364L319.516 10.118C319.678 9.182 319.39 8.786 318.634 8.786H317.932ZM331.103 10.298L330.041 16.4C329.627 18.722 328.691 20.18 326.279 20.18H325.847C323.399 20.18 321.959 18.938 322.409 16.292L323.489 10.19C323.885 7.958 324.713 6.446 327.233 6.446H327.665C330.185 6.446 331.571 7.652 331.103 10.298ZM327.215 16.4L328.295 10.226C328.475 9.236 328.079 8.84 327.431 8.84C326.783 8.84 326.477 9.254 326.297 10.226L325.217 16.4C325.055 17.264 325.379 17.75 326.081 17.75C326.747 17.75 327.053 17.318 327.215 16.4ZM336.424 12.278C336.568 13.448 336.658 14.276 336.712 15.014C336.82 14.186 336.91 13.448 337.216 11.72L338.116 6.608H340.456L338.098 20H335.686L334.732 13.808C334.552 12.584 334.48 11.756 334.444 11.072C334.372 11.774 334.264 12.728 333.958 14.42L332.968 20H330.61L332.968 6.608H335.668L336.424 12.278ZM342.717 11.864H341.097C341.511 11.18 341.979 10.244 342.249 9.362H341.061L341.547 6.608H344.265L343.905 8.678C343.653 10.154 343.023 11.324 342.717 11.864ZM351.489 9.002H349.401L347.457 20H344.739L346.665 9.002H344.559L344.973 6.608H351.921L351.489 9.002ZM360.358 14.042L358.108 20H356.866L356.722 14.114C356.668 12.26 356.686 11.126 356.686 10.046C356.488 11.36 356.308 12.62 355.966 14.474L354.994 20H352.708L355.066 6.608H358.45L358.522 11.252C358.522 12.656 358.504 13.502 358.486 14.384C358.738 13.556 359.026 12.692 359.548 11.27L361.204 6.608H364.696L362.338 20H359.98L360.952 14.474C361.276 12.62 361.528 11.378 361.816 10.046C361.438 11.09 361.024 12.278 360.358 14.042ZM368.777 6.608L366.419 20H363.629L365.987 6.608H368.777ZM370.628 16.688C370.484 17.534 370.844 17.894 371.51 17.894C372.464 17.894 372.608 16.868 372.608 16.202C372.608 15.608 372.32 15.248 371.87 14.726L370.628 13.304C369.836 12.404 369.206 11.594 369.206 10.154C369.206 8.318 369.89 6.446 372.914 6.446H373.328C375.794 6.446 376.892 7.454 376.514 9.614L376.316 10.748H373.67L373.868 9.686C373.994 8.894 373.724 8.57 373.094 8.57C372.194 8.57 372.014 9.236 372.014 9.866C372.014 10.46 372.32 10.802 372.752 11.306L373.976 12.746C374.84 13.754 375.524 14.51 375.524 15.968C375.524 17.75 374.876 20.162 371.708 20.162H371.276C368.774 20.162 367.55 19.01 367.928 16.868L368.216 15.23H370.898L370.628 16.688ZM378.666 16.688C378.522 17.534 378.882 17.894 379.548 17.894C380.502 17.894 380.646 16.868 380.646 16.202C380.646 15.608 380.358 15.248 379.908 14.726L378.666 13.304C377.874 12.404 377.244 11.594 377.244 10.154C377.244 8.318 377.928 6.446 380.952 6.446H381.366C383.832 6.446 384.93 7.454 384.552 9.614L384.354 10.748H381.708L381.906 9.686C382.032 8.894 381.762 8.57 381.132 8.57C380.232 8.57 380.052 9.236 380.052 9.866C380.052 10.46 380.358 10.802 380.79 11.306L382.014 12.746C382.878 13.754 383.562 14.51 383.562 15.968C383.562 17.75 382.914 20.162 379.746 20.162H379.314C376.812 20.162 375.588 19.01 375.966 16.868L376.254 15.23H378.936L378.666 16.688ZM391.208 6.608L388.85 20H386.06L388.418 6.608H391.208ZM398.568 9.002H396.48L394.536 20H391.818L393.744 9.002H391.638L392.052 6.608H399L398.568 9.002Z" fill="url(#paint1_linear_2313_3705)"/>
  <path d="M274.473 15.4962L274.755 15.5184C275.594 18.3017 274.412 21.6387 272 22.9707V23C274.375 22.7726 277.468 20.2148 277.65 16.2734L278 16.2239V15.6094C277.286 15.193 276.819 13.4608 277.819 12.5402C277.649 10.235 276.702 7.93482 275.499 6.32491L273.342 5L273.013 5.73067C272.726 5.90405 272.493 6.16341 272.344 6.47612C272.196 6.78883 272.138 7.14093 272.179 7.48813C272.282 8.32491 272.849 8.83729 273.888 9.00404C274.423 9.08792 274.619 9.32946 274.715 9.65387C274.811 9.99646 274.783 10.3441 274.523 10.5452L274.566 10.6908C275.033 10.7221 275.276 10.9939 275.373 11.3911C275.489 11.861 275.452 12.2481 275.086 12.5149L275.102 12.6382C275.535 12.7928 275.772 13.2446 275.786 13.6963C275.8 14.1673 275.471 14.6473 274.977 14.8504C274.814 14.9171 274.328 15.0232 274.328 15.0232L274.473 15.4962ZM273.927 8.30571C273.279 8.40071 272.848 8.00253 272.771 7.4194C272.687 6.77564 273.003 6.27337 273.651 6.17938C274.273 6.08843 274.73 6.48257 274.814 7.12228C274.895 7.70945 274.554 8.21577 273.927 8.30571Z" fill="#FF007F"/>
  <defs>
    <linearGradient id="paint0_linear_2313_3705" x1="228" y1="0" x2="228" y2="28" gradientUnits="userSpaceOnUse">
      <stop offset="0.0926659" stop-color="#0A185E"/>
      <stop offset="0.90854" stop-color="#120A35"/>
    </linearGradient>
    <linearGradient id="paint1_linear_2313_3705" x1="313" y1="13.5" x2="398" y2="13.5" gradientUnits="userSpaceOnUse">
      <stop stop-color="#68FF55"/>
      <stop offset="1" stop-color="#C4FF00"/>
    </linearGradient>
  </defs>
</svg>
