<svg id="Layer_2" data-name="Layer 2" xmlns="http://www.w3.org/2000/svg" width="456" height="28" viewBox="0 0 456 28">
  <defs>
    <style>
      .cls-1 {
        fill: #abff47;
      }

      .cls-2 {
        fill: #191939;
      }

      .cls-3 {
        fill: #fff;
      }

      .cls-4 {
        fill: #615dfc;
      }
    </style>
  </defs>
  <g id="Layer_1-2" data-name="Layer 1">
    <rect class="cls-4" y="0" width="456" height="28"/>
    <g>
      <rect class="cls-1" x="85.5" y="5.78" width="49.3" height="16.43" rx="3.16" ry="3.16"/>
      <g>
        <path class="cls-2" d="M94,18.47c-1.16,0-2.04-.27-2.64-.82-.6-.55-.9-1.36-.9-2.43v-1.96c0-1.08.3-1.89.9-2.44s1.48-.82,2.64-.82,2.05.27,2.65.82c.6.54.9,1.36.9,2.44v1.96c0,1.07-.3,1.88-.9,2.43-.6.55-1.49.82-2.65.82ZM94,16.67c.51,0,.88-.14,1.13-.41s.37-.67.37-1.18v-1.68c0-.52-.12-.91-.37-1.18s-.62-.41-1.13-.41-.87.14-1.12.41-.37.67-.37,1.18v1.68c0,.52.12.91.37,1.18s.62.41,1.12.41Z"/>
        <path class="cls-2" d="M99.05,18.32c-.12,0-.17-.06-.17-.17v-7.82c0-.12.06-.17.17-.17h5.14c.11,0,.16.06.16.17v1.43c0,.12-.05.17-.16.17h-3.25v1.16h1.08c1.11,0,1.93.21,2.44.63.51.42.77,1.02.77,1.81,0,.91-.26,1.61-.78,2.08-.52.47-1.37.7-2.55.7h-2.84ZM100.93,16.66h.96c.42,0,.74-.08.96-.24.22-.16.32-.43.32-.81s-.1-.62-.31-.77c-.21-.15-.52-.22-.95-.22h-.98v2.03Z"/>
        <path class="cls-2" d="M106.3,18.32c-.12,0-.17-.06-.17-.17l.17-7.82c0-.12.05-.17.16-.17h1.98c.09,0,.15.04.19.12l1.94,4.09,1.94-4.09c.04-.08.11-.12.2-.12h1.97c.12,0,.17.06.17.17l.16,7.82c0,.12-.05.17-.16.17h-1.67c-.12,0-.17-.06-.17-.17l-.08-2.79c0-.35,0-.72.01-1.1s.03-.75.05-1.09h-.05c-.14.33-.29.68-.46,1.05-.17.37-.34.72-.52,1.06l-1.15,2.22c-.04.08-.11.12-.21.12h-.08c-.1,0-.17-.04-.2-.12l-1.16-2.23c-.17-.33-.33-.68-.5-1.05s-.33-.72-.47-1.04h-.05c.02.35.03.71.05,1.1.02.38.02.75.01,1.1l-.07,2.79c0,.12-.06.17-.17.17h-1.67Z"/>
        <path class="cls-2" d="M116.51,18.32c-.12,0-.17-.06-.17-.17v-7.82c0-.12.06-.17.17-.17h5.19c.11,0,.16.06.16.17v1.43c0,.12-.05.17-.16.17h-3.3v1.43h3c.11,0,.16.06.16.17v1.33c0,.12-.05.17-.16.17h-3v1.48h3.3c.11,0,.16.06.16.17v1.43c0,.12-.05.17-.16.17h-5.19Z"/>
        <path class="cls-2" d="M123.35,18.32c-.12,0-.17-.06-.17-.17v-7.82c0-.12.06-.17.17-.17h1.72c.11,0,.16.06.16.17v3h2.85v-3c0-.12.06-.17.17-.17h1.71c.12,0,.17.06.17.17v7.82c0,.12-.06.17-.17.17h-1.71c-.12,0-.17-.06-.17-.17v-3.04h-2.85v3.04c0,.12-.05.17-.16.17h-1.72Z"/>
      </g>
      <g>
        <path class="cls-3" d="M143.19,18.47c-1.11,0-1.97-.27-2.59-.8-.62-.53-.93-1.35-.93-2.47v-1.91c0-1.13.31-1.96.93-2.49.62-.53,1.48-.8,2.59-.8.81,0,1.48.12,2.03.37.55.25.95.6,1.21,1.05.26.45.34.99.26,1.6,0,.05-.03.09-.06.12-.03.03-.07.05-.12.05h-1.72c-.11,0-.16-.06-.16-.19,0-.37-.1-.67-.32-.9-.22-.23-.59-.34-1.1-.34-.47,0-.83.13-1.09.38-.26.25-.39.66-.39,1.22v1.73c0,.56.13.96.39,1.22.26.25.63.38,1.09.38.53,0,.91-.12,1.12-.37.22-.25.32-.54.3-.88,0-.12.05-.19.16-.19h1.71c.11,0,.17.06.19.17.06.62-.04,1.15-.31,1.6s-.66.8-1.2,1.05c-.54.25-1.2.37-1.99.37Z"/>
        <path class="cls-3" d="M148.19,18.32c-.12,0-.17-.06-.17-.17v-7.82c0-.12.06-.17.17-.17h1.71c.12,0,.17.06.17.17v3.1h.62l1.92-3.18c.04-.07.11-.1.2-.1h1.93c.07,0,.11.02.13.06.02.04.01.09-.03.16l-2.38,3.7,2.68,4.04c.04.06.05.11.02.15-.03.04-.07.06-.13.06h-2.06c-.09,0-.16-.04-.21-.11l-1.98-3.03h-.71v2.97c0,.12-.06.17-.17.17h-1.71Z"/>
        <path class="cls-3" d="M156.04,18.32c-.11,0-.16-.06-.16-.17v-7.82c0-.12.05-.17.16-.17h1.66c.11,0,.16.06.16.17v2.64c0,.32,0,.62-.02.92s-.04.58-.06.86c-.03.28-.05.56-.09.85h.04c.11-.28.22-.56.34-.83.12-.27.26-.55.42-.84.16-.29.35-.61.55-.96l1.57-2.69c.05-.08.12-.12.2-.12h1.82c.12,0,.17.06.17.17v7.82c0,.12-.06.17-.17.17h-1.63c-.12,0-.17-.06-.17-.17v-2.49c0-.46.01-.91.04-1.36.02-.45.06-.9.11-1.33h-.05c-.1.26-.21.51-.34.75s-.27.52-.45.82c-.17.3-.39.68-.65,1.12l-1.43,2.54c-.04.08-.1.12-.19.12h-1.83Z"/>
        <path class="cls-3" d="M164.45,18.32c-.12,0-.17-.06-.17-.17v-7.82c0-.12.06-.17.17-.17h1.72c.11,0,.16.06.16.17v3h2.85v-3c0-.12.06-.17.17-.17h1.71c.12,0,.17.06.17.17v7.82c0,.12-.06.17-.17.17h-1.71c-.12,0-.17-.06-.17-.17v-3.04h-2.85v3.04c0,.12-.05.17-.16.17h-1.72Z"/>
        <path class="cls-3" d="M176.11,18.47c-1.16,0-2.04-.27-2.64-.82-.6-.55-.9-1.36-.9-2.43v-1.96c0-1.08.3-1.89.9-2.44s1.48-.82,2.64-.82,2.05.27,2.65.82c.6.54.9,1.36.9,2.44v1.96c0,1.07-.3,1.88-.9,2.43-.6.55-1.49.82-2.65.82ZM176.11,16.67c.51,0,.88-.14,1.13-.41s.37-.67.37-1.18v-1.68c0-.52-.12-.91-.37-1.18s-.62-.41-1.13-.41-.87.14-1.12.41-.37.67-.37,1.18v1.68c0,.52.12.91.37,1.18s.62.41,1.12.41Z"/>
        <path class="cls-3" d="M181.16,18.32c-.12,0-.17-.06-.17-.17v-7.82c0-.12.06-.17.17-.17h2.79c1.04,0,1.82.16,2.34.49.52.33.79.83.79,1.5,0,.5-.11.89-.32,1.18s-.54.51-.98.66v.04c.52.1.92.3,1.21.59.29.29.44.71.44,1.25,0,.87-.27,1.5-.82,1.88-.54.38-1.44.57-2.67.57h-2.78ZM183.04,13.44h.9c.38,0,.66-.07.83-.21.17-.14.26-.35.26-.64,0-.26-.09-.45-.28-.59s-.48-.2-.88-.2h-.82v1.63ZM183.04,16.66h1.01c.47,0,.8-.07,1.01-.2.21-.13.31-.36.31-.69,0-.29-.11-.5-.32-.64-.21-.14-.55-.21-1.02-.21h-1v1.73Z"/>
      </g>
    </g>
    <g>
      <rect class="cls-1" x="329.69" y="5.78" width="38.56" height="16.43" rx="3.16" ry="3.16"/>
      <g>
        <path class="cls-2" d="M333.78,15.76c-.12,0-.17-.06-.17-.18v-1.18c0-.12.06-.17.17-.17h4.47c.12,0,.17.06.17.17v1.18c0,.12-.06.18-.17.18h-4.47Z"/>
        <path class="cls-2" d="M342.52,18.47c-.73,0-1.32-.11-1.78-.32s-.77-.5-.96-.88-.26-.8-.23-1.27c.02-.12.07-.17.17-.17h1.54c.12,0,.17.05.17.15,0,.32.1.53.29.63s.49.16.88.16c.35,0,.61-.07.8-.21.18-.14.27-.34.27-.62v-.17c0-.52-.35-.79-1.06-.79h-.91c-.12,0-.17-.06-.17-.17v-1.23c0-.12.06-.17.17-.17h.7c.39,0,.67-.06.84-.19.17-.12.26-.32.26-.6v-.21c0-.25-.08-.43-.24-.55s-.42-.18-.77-.18c-.37,0-.63.06-.8.19-.17.12-.25.31-.25.55,0,.12-.06.17-.17.17h-1.53c-.12,0-.17-.06-.17-.17,0-.77.26-1.36.77-1.78.51-.41,1.27-.62,2.29-.62s1.74.18,2.21.55c.46.37.7.9.7,1.6,0,.48-.1.88-.31,1.21-.2.32-.5.56-.88.7v.04c.43.12.76.34,1,.67.23.33.35.73.35,1.22,0,.81-.27,1.43-.81,1.85-.54.42-1.33.63-2.37.63Z"/>
        <path class="cls-2" d="M349.57,18.47c-.69,0-1.26-.11-1.71-.32s-.78-.5-.98-.87c-.2-.37-.28-.78-.23-1.24,0-.12.07-.17.17-.17h1.55c.12,0,.17.06.17.17,0,.19.08.36.25.5.17.15.45.22.83.22.44,0,.75-.08.93-.24.18-.16.27-.41.27-.74v-.2c0-.21-.04-.38-.12-.53-.08-.15-.22-.26-.4-.34-.18-.08-.42-.12-.72-.12-.38,0-.79.04-1.22.11s-.82.16-1.19.26c-.12.03-.2.03-.25,0s-.07-.1-.06-.2l.4-4.44c.02-.12.07-.17.17-.17h4.66c.12,0,.17.06.17.17v1.36c0,.12-.06.17-.17.17h-3.17l-.11,1.35c.27-.07.53-.12.77-.15.24-.03.49-.05.75-.05.82,0,1.45.21,1.87.64s.64,1.09.64,1.99c0,.99-.27,1.71-.82,2.16-.55.45-1.37.67-2.46.67Z"/>
        <path class="cls-2" d="M356.05,14.58c-.74,0-1.29-.18-1.66-.55-.37-.37-.55-.88-.55-1.54v-.39c0-.66.19-1.17.56-1.54.37-.37.93-.55,1.66-.55s1.29.18,1.65.55c.36.37.54.88.54,1.54v.39c0,.66-.18,1.17-.55,1.54-.37.37-.91.55-1.65.55ZM356.05,13.12c.24,0,.42-.06.53-.18.11-.12.17-.3.17-.53v-.22c0-.24-.06-.42-.17-.54-.11-.12-.29-.18-.53-.18s-.43.06-.54.18c-.11.12-.17.3-.17.54v.22c0,.23.06.41.17.53.11.12.29.18.54.18ZM356.17,18.32c-.16,0-.2-.07-.11-.21l2.51-4.16,2.12-3.68c.05-.08.12-.11.21-.11h1.45c.15,0,.19.07.11.2l-2.37,3.91-2.27,3.94c-.05.08-.12.11-.21.11h-1.43ZM362.44,18.47c-.74,0-1.29-.19-1.66-.56-.37-.37-.55-.88-.55-1.53v-.39c0-.66.19-1.17.55-1.54.37-.37.92-.55,1.65-.55s1.29.19,1.66.55c.37.37.55.88.55,1.54v.39c0,.65-.19,1.16-.56,1.53s-.93.56-1.66.56ZM362.44,17.01c.25,0,.43-.06.54-.19.11-.12.17-.3.17-.54v-.22c0-.23-.06-.41-.17-.53s-.29-.18-.54-.18-.42.06-.53.18-.17.3-.17.53v.22c0,.24.06.42.17.54.11.12.29.18.53.18Z"/>
      </g>
      <g>
        <path class="cls-3" d="M375.01,18.32c-.12,0-.17-.06-.17-.17v-7.82c0-.12.06-.17.17-.17h2.79c1.04,0,1.82.16,2.34.49.52.33.79.83.79,1.5,0,.5-.11.89-.32,1.18s-.54.51-.98.66v.04c.52.1.92.3,1.21.59s.44.71.44,1.25c0,.87-.27,1.5-.82,1.88-.54.38-1.44.57-2.67.57h-2.78ZM376.9,13.44h.9c.38,0,.66-.07.83-.21.17-.14.26-.35.26-.64,0-.26-.09-.45-.28-.59-.19-.13-.48-.2-.88-.2h-.82v1.63ZM376.9,16.66h1.01c.47,0,.8-.07,1.01-.2s.31-.36.31-.69c0-.29-.11-.5-.32-.64-.21-.14-.55-.21-1.02-.21h-1v1.73Z"/>
        <path class="cls-3" d="M384.84,18.32c-.12,0-.17-.06-.17-.17l.17-7.82c0-.12.05-.17.16-.17h1.98c.09,0,.15.04.19.12l1.94,4.09,1.94-4.09c.04-.08.11-.12.2-.12h1.97c.12,0,.17.06.17.17l.16,7.82c0,.12-.05.17-.16.17h-1.67c-.12,0-.17-.06-.17-.17l-.08-2.79c0-.35,0-.72.01-1.1s.03-.75.05-1.09h-.05c-.14.33-.29.68-.46,1.05-.17.37-.34.72-.52,1.06l-1.15,2.22c-.04.08-.11.12-.21.12h-.07c-.1,0-.17-.04-.2-.12l-1.16-2.23c-.17-.33-.33-.68-.5-1.05-.17-.37-.33-.72-.47-1.04h-.05c.02.35.03.71.05,1.1s.02.75.01,1.1l-.08,2.79c0,.12-.06.17-.17.17h-1.67Z"/>
        <path class="cls-3" d="M394.23,18.32c-.13,0-.18-.07-.14-.2l2.59-7.83c.03-.09.1-.14.2-.14h2.22c.1,0,.17.05.2.14l2.61,7.83c.03.13-.01.2-.14.2h-1.87c-.11,0-.17-.05-.2-.14l-1.26-4.51c-.08-.3-.16-.6-.24-.9-.08-.3-.15-.59-.21-.89h-.03c-.07.3-.14.6-.21.9-.07.3-.15.6-.24.9l-1.23,4.49c-.02.1-.09.15-.2.15h-1.86ZM396.35,16.86l.32-1.61h2.58l.34,1.61h-3.24Z"/>
        <path class="cls-3" d="M402.77,18.32c-.11,0-.16-.06-.16-.17v-7.82c0-.12.06-.17.17-.17h4.67c.12,0,.17.06.17.17v1.43c0,.12-.06.17-.17.17h-2.79v6.21c0,.12-.06.17-.17.17h-1.72Z"/>
        <path class="cls-3" d="M407.21,18.32c-.13,0-.18-.07-.14-.2l2.59-7.83c.03-.09.1-.14.2-.14h2.22c.1,0,.17.05.2.14l2.61,7.83c.03.13-.01.2-.14.2h-1.87c-.11,0-.17-.05-.2-.14l-1.26-4.51c-.08-.3-.16-.6-.24-.9-.08-.3-.15-.59-.21-.89h-.03c-.07.3-.14.6-.21.9-.07.3-.15.6-.24.9l-1.23,4.49c-.02.1-.09.15-.2.15h-1.86ZM409.33,16.86l.32-1.61h2.58l.34,1.61h-3.24Z"/>
        <path class="cls-3" d="M418.45,18.47c-1.06,0-1.85-.2-2.38-.59-.53-.39-.76-.98-.69-1.75.02-.12.04-.21.08-.26.03-.05.07-.08.12-.08h1.52c.11,0,.16.04.16.11,0,.28.1.5.29.64s.52.22.97.22c.51,0,.88-.08,1.1-.23.22-.15.33-.4.33-.73,0-.27-.09-.48-.27-.6-.18-.13-.48-.19-.9-.19h-1.28c-.12,0-.17-.06-.17-.17v-1.21c0-.12.06-.17.17-.17h.9c.46,0,.78-.06.97-.19.19-.13.29-.34.29-.63,0-.33-.09-.57-.27-.72-.18-.15-.51-.22-.97-.22-.39,0-.67.06-.85.19-.17.12-.26.31-.26.55,0,.13-.06.2-.17.2h-1.52s-.09-.02-.12-.07c-.03-.05-.05-.14-.07-.26-.04-.75.2-1.31.72-1.7s1.32-.57,2.4-.57,1.87.18,2.39.55c.52.37.78.92.78,1.66,0,.43-.1.81-.3,1.14-.2.33-.5.56-.9.69v.02c.51.11.89.33,1.14.65.25.33.38.72.38,1.18,0,.82-.3,1.46-.9,1.9-.6.44-1.49.66-2.67.66Z"/>
        <path class="cls-3" d="M423.35,18.32c-.11,0-.16-.06-.16-.17v-7.82c0-.12.05-.17.16-.17h1.66c.11,0,.16.06.16.17v2.64c0,.32,0,.62-.03.92s-.04.58-.06.86c-.02.28-.05.56-.09.85h.04c.11-.28.22-.56.34-.83s.26-.55.42-.84.35-.61.55-.96l1.57-2.69c.05-.08.12-.12.2-.12h1.82c.12,0,.17.06.17.17v7.82c0,.12-.06.17-.17.17h-1.63c-.12,0-.17-.06-.17-.17v-2.49c0-.46.01-.91.04-1.36.02-.45.06-.9.11-1.33h-.05c-.1.26-.21.51-.34.75s-.27.52-.45.82c-.17.3-.39.68-.65,1.12l-1.43,2.54c-.04.08-.1.12-.19.12h-1.83Z"/>
        <path class="cls-3" d="M431.77,18.32c-.12,0-.17-.06-.17-.17v-7.82c0-.12.06-.17.17-.17h1.72c.11,0,.16.06.16.17v3h2.85v-3c0-.12.06-.17.17-.17h1.71c.12,0,.17.06.17.17v7.82c0,.12-.06.17-.17.17h-1.71c-.12,0-.17-.06-.17-.17v-3.04h-2.85v3.04c0,.12-.05.17-.16.17h-1.72Z"/>
        <path class="cls-3" d="M440.21,18.32c-.12,0-.17-.06-.17-.17v-7.82c0-.12.06-.17.17-.17h5.19c.11,0,.16.06.16.17v1.43c0,.12-.05.17-.16.17h-3.3v1.43h3c.11,0,.16.06.16.17v1.33c0,.12-.05.17-.16.17h-3v1.48h3.3c.11,0,.16.06.16.17v1.43c0,.12-.05.17-.16.17h-5.19Z"/>
      </g>
    </g>
    <g>
      <rect class="cls-1" x="210.04" y="5.78" width="95.65" height="16.43" rx="3.16" ry="3.16"/>
      <g>
        <path class="cls-2" d="M217.73,18.47c-.69,0-1.26-.11-1.71-.32-.45-.21-.78-.5-.98-.87-.2-.37-.28-.78-.23-1.24,0-.12.07-.17.17-.17h1.55c.12,0,.17.06.17.17,0,.19.09.36.26.5.17.15.45.22.83.22.44,0,.75-.08.94-.24.18-.16.27-.41.27-.74v-.2c0-.21-.04-.38-.12-.53s-.22-.26-.4-.34c-.18-.08-.42-.12-.72-.12-.38,0-.79.04-1.22.11-.43.07-.83.16-1.19.26-.12.03-.2.03-.25,0s-.07-.1-.06-.2l.4-4.44c.02-.12.08-.17.17-.17h4.66c.12,0,.17.06.17.17v1.36c0,.12-.06.17-.17.17h-3.17l-.11,1.35c.27-.07.53-.12.77-.15s.49-.05.75-.05c.82,0,1.45.21,1.87.64s.64,1.09.64,1.99c0,.99-.27,1.71-.82,2.16-.55.45-1.37.67-2.46.67Z"/>
        <path class="cls-2" d="M225.2,18.47c-1.03,0-1.79-.21-2.27-.63-.49-.42-.69-1.06-.62-1.93.02-.12.07-.17.17-.17h1.6c.12,0,.17.06.16.19-.02.29.05.51.21.66.17.15.43.22.8.22.34,0,.59-.06.74-.17.15-.11.22-.29.22-.54,0-.12-.02-.23-.06-.32-.04-.09-.1-.17-.19-.25-.09-.08-.22-.15-.37-.22l-1.81-.88c-.49-.24-.85-.53-1.07-.87-.22-.34-.33-.77-.32-1.29,0-.76.25-1.32.74-1.7s1.19-.56,2.12-.56c1.02,0,1.77.21,2.26.62.48.42.69,1.05.64,1.91,0,.12-.07.19-.17.19h-1.6c-.11,0-.16-.06-.15-.19.02-.29-.06-.51-.22-.65-.16-.15-.41-.22-.73-.22-.28,0-.5.06-.65.17-.15.11-.22.28-.22.49,0,.19.05.34.14.46.1.11.26.23.5.34l1.78.85c.32.16.59.33.8.53s.37.43.47.69c.1.27.15.59.14.96,0,.8-.26,1.38-.77,1.76-.5.37-1.26.56-2.26.56ZM224.42,10.23v-1.03c0-.08.04-.12.12-.12h1.48c.08,0,.12.04.12.12v1.1l-1.73-.06ZM224.54,19.4c-.08,0-.12-.04-.12-.12v-1.04l1.73-.06v1.1c0,.08-.04.12-.12.12h-1.48Z"/>
        <path class="cls-2" d="M232.67,18.32c-.12,0-.17-.06-.17-.17v-7.82c0-.12.06-.17.17-.17h5.14c.11,0,.16.06.16.17v1.43c0,.12-.05.17-.16.17h-3.25v1.16h1.08c1.11,0,1.93.21,2.44.63s.77,1.02.77,1.81c0,.91-.26,1.61-.78,2.08s-1.37.7-2.55.7h-2.84ZM234.55,16.66h.96c.42,0,.74-.08.96-.24s.32-.43.32-.81-.1-.62-.31-.77c-.21-.15-.52-.22-.95-.22h-.99v2.03Z"/>
        <path class="cls-2" d="M240.13,18.32c-.12,0-.17-.06-.17-.17v-7.82c0-.12.06-.17.17-.17h5.19c.11,0,.16.06.16.17v1.43c0,.12-.05.17-.16.17h-3.3v1.43h3c.11,0,.16.06.16.17v1.33c0,.12-.05.17-.16.17h-3v1.48h3.3c.11,0,.16.06.16.17v1.43c0,.12-.05.17-.16.17h-5.19Z"/>
        <path class="cls-2" d="M250.07,18.47c-1.1,0-1.97-.27-2.59-.8-.62-.53-.93-1.35-.93-2.47v-1.91c0-1.13.31-1.96.93-2.49.62-.53,1.48-.8,2.59-.8.81,0,1.48.12,2.03.37.55.25.95.6,1.21,1.05.26.45.34.99.26,1.6,0,.05-.03.09-.06.12-.03.03-.07.05-.12.05h-1.72c-.11,0-.16-.06-.16-.19,0-.37-.1-.67-.32-.9s-.59-.34-1.1-.34c-.47,0-.83.13-1.09.38-.26.25-.39.66-.39,1.22v1.73c0,.56.13.96.39,1.22.26.25.62.38,1.09.38.53,0,.91-.12,1.12-.37.22-.25.32-.54.3-.88,0-.12.05-.19.16-.19h1.71c.11,0,.17.06.19.17.06.62-.04,1.15-.31,1.6-.26.45-.66.8-1.2,1.05-.54.25-1.21.37-2,.37Z"/>
        <path class="cls-2" d="M255.07,18.32c-.12,0-.17-.06-.17-.17v-7.82c0-.12.06-.17.17-.17h6.58c.11,0,.16.06.16.17v7.82c0,.12-.05.17-.16.17h-1.71c-.12,0-.17-.06-.17-.17v-6.21h-2.82v6.21c0,.12-.05.17-.16.17h-1.72Z"/>
        <path class="cls-2" d="M262.65,18.32c-.13,0-.18-.07-.14-.2l2.55-7.83c.03-.09.1-.14.2-.14h2.22c.1,0,.17.05.2.14l2.57,7.83c.03.13-.01.2-.14.2h-1.87c-.11,0-.17-.05-.2-.14l-1.23-4.51c-.08-.3-.16-.6-.22-.9-.07-.3-.14-.59-.21-.89h-.03c-.07.3-.13.6-.2.9-.07.3-.14.6-.22.9l-1.22,4.49c-.02.1-.09.15-.2.15h-1.86Z"/>
        <path class="cls-2" d="M270.61,18.32c-.13,0-.18-.07-.14-.2l2.59-7.83c.03-.09.1-.14.2-.14h2.22c.1,0,.17.05.2.14l2.61,7.83c.03.13-.01.2-.14.2h-1.87c-.11,0-.17-.05-.2-.14l-1.26-4.51c-.08-.3-.16-.6-.24-.9-.08-.3-.15-.59-.21-.89h-.03c-.07.3-.14.6-.21.9-.07.3-.15.6-.24.9l-1.23,4.49c-.02.1-.09.15-.2.15h-1.86ZM272.73,16.86l.32-1.61h2.58l.34,1.61h-3.24Z"/>
        <path class="cls-2" d="M280.12,18.32c-.11,0-.16-.06-.16-.17v-6.21h-2.04c-.12,0-.17-.06-.17-.17v-1.43c0-.12.06-.17.17-.17h6.13c.11,0,.16.06.16.17v1.43c0,.12-.05.17-.16.17h-2.04v6.21c0,.12-.06.17-.17.17h-1.71Z"/>
        <path class="cls-2" d="M285.36,18.32c-.12,0-.17-.06-.17-.17v-7.82c0-.12.06-.17.17-.17h1.72c.11,0,.16.06.16.17v3h2.85v-3c0-.12.06-.17.17-.17h1.71c.12,0,.17.06.17.17v7.82c0,.12-.06.17-.17.17h-1.71c-.12,0-.17-.06-.17-.17v-3.04h-2.85v3.04c0,.12-.05.17-.16.17h-1.72Z"/>
        <path class="cls-2" d="M297.01,18.47c-1.16,0-2.04-.27-2.64-.82-.6-.55-.9-1.36-.9-2.43v-1.96c0-1.08.3-1.89.9-2.44s1.48-.82,2.64-.82,2.05.27,2.65.82.9,1.36.9,2.44v1.96c0,1.07-.3,1.88-.9,2.43-.6.55-1.49.82-2.65.82ZM297.01,16.67c.51,0,.88-.14,1.13-.41s.37-.67.37-1.18v-1.68c0-.52-.12-.91-.37-1.18s-.62-.41-1.13-.41-.87.14-1.12.41c-.25.27-.37.67-.37,1.18v1.68c0,.52.12.91.37,1.18.24.27.62.41,1.12.41Z"/>
      </g>
    </g>
    <circle class="cls-3" cx="198.92" cy="14" r="1.36"/>
    <circle class="cls-3" cx="317.8" cy="14" r="1.36"/>
    <g>
      <path class="cls-3" d="M31.38,11.57h-2.5l-.61-1.21h5.56l.61,1.21h-1.75v6.21h-1.31v-6.21Z"/>
      <path class="cls-3" d="M63.38,10.36h2.07v7.42h-2.07v-7.42Z"/>
      <path class="cls-3" d="M69.22,12.17h-2.22v-1.8h6.51v1.8h-2.23v5.62h-2.06v-5.62Z"/>
      <path class="cls-3" d="M39.4,14.98c.26-.07.5-.17.72-.3.22-.13.4-.29.56-.48.16-.19.28-.4.37-.65.09-.24.13-.52.13-.82v-.02c0-.32-.05-.62-.16-.89-.11-.27-.26-.51-.46-.71-.24-.23-.54-.41-.9-.55-.36-.13-.77-.2-1.24-.2h-2.92l.61,1.21h2.08c.49,0,.98.13,1.25.34.27.21.41.46.41.86v.02c0,.38-.14.69-.41.91-.28.22-.65.34-1.12.34h-3.05l.61,1.16h2.17l1.83,2.59h1.54l-2-2.81Z"/>
      <path class="cls-3" d="M45.97,10.31h-1.21l-2.61,5.97.83,1.16.62-1.45.48-1.16,1.27-2.97,1.28,2.97.48,1.16.75,1.79h1.38l-3.26-7.47Z"/>
      <path class="cls-3" d="M54.95,12.6c-.19-.45-.46-.84-.81-1.17-.35-.33-.77-.59-1.25-.78-.48-.19-1.02-.28-1.59-.28h-3.37l.51,1.18h2.85c.39,0,.74.06,1.06.19.32.13.59.3.81.53.22.22.4.49.52.8.12.31.19.65.19,1.01v.02c0,.36-.06.7-.19,1.01-.12.31-.3.58-.52.8-.22.22-.49.4-.81.52-.32.12-.67.19-1.06.19h-.64l.51,1.17c.51-.02,1.29-.11,1.73-.28.48-.19.9-.45,1.25-.78.35-.33.62-.72.81-1.18.19-.45.29-.94.29-1.46v-.02c0-.52-.1-1.01-.29-1.46Z"/>
      <path class="cls-3" d="M56.88,14.59h2.87l.61-1.18h-3.49c.03.21.04.42.04.64v.02c0,.17,0,.34-.02.51Z"/>
      <path class="cls-3" d="M61.87,16.57h-5.6c-.24.42-.53.8-.88,1.13-.02.02-.03.03-.05.05h6.53v-1.18Z"/>
      <path class="cls-3" d="M56.23,11.5h5.64v-1.18h-6.6s.08.07.12.11c.33.32.61.67.84,1.07Z"/>
      <path class="cls-3" d="M11.35,14c0-3.07,2.49-5.56,5.56-5.56,1.54,0,2.94.63,3.94,1.64l3.66,3.8c-.06-4.15-3.44-7.5-7.61-7.5-2.85,0-5.33,1.57-6.64,3.89h-2.64l3.72,3.73Z"/>
      <path class="cls-3" d="M16.9,21.61c2.85,0,5.33-1.57,6.64-3.89h2.64l-3.72-3.73c0,3.07-2.49,5.56-5.56,5.56-1.54,0-2.94-.63-3.94-1.64l-3.66-3.8c.06,4.15,3.44,7.5,7.61,7.5Z"/>
      <path class="cls-3" d="M19.51,15.63c.12-.2.13-.32-.35-.62-.16-.1-.49-.36-.84-.63-.45-.35-1.14-.88-1.26-.9-.07,0-.14.03-.27.1-.12.06-.27.14-.51.23-.57.23-.97.2-1.23-.07-.1-.1-.2-.23-.2-.4,0-.19.13-.4.41-.67.18-.17.51-.42.74-.59-.31.02-.82.07-1.4.2l-.79,2.2.04.04c.11-.08.34-.21.6-.21.18,0,.44.07.64.4.02,0,.04,0,.06,0,.15,0,.52.04.71.44.16,0,.57.06.73.53.13.02.44.11.56.44.12.32.05.63-.21.86.08.07.25.15.4.1.13-.05.17-.13.19-.2.02-.09,0-.2-.06-.27h-.01c-.03-.05-.03-.11,0-.14.04-.03.09-.03.13,0h0s.01.02.01.02c.03.03.21.2.38.2.07,0,.13-.03.19-.08.21-.2.06-.39.04-.41-.03-.04-.03-.1,0-.13.04-.03.09-.03.13,0,0,0,.16.17.34.17.05,0,.09-.01.14-.04.22-.13.11-.41.11-.43-.02-.04,0-.08.03-.11.03-.03.07-.03.11,0,0,0,.13.08.26.08.08,0,.14-.03.18-.1Z"/>
      <path class="cls-3" d="M17.08,12.12c-.22-.06-.58.1-1.07.48-.54.42-.79.7-.71.8.2.26.57.21,1.27-.17.2-.11.36-.18.51-.18.18,0,.33.1.51.23,1.2.89,1.79,1.34,1.95,1.46l.22-.12-.72-1.89c-.26-.08-1.66-.53-1.95-.62Z"/>
      <path class="cls-3" d="M13.31,14.45l.94-2.54-.86-.22-.63,2.57.55.19Z"/>
      <path class="cls-3" d="M16.75,16.14c-.23-.23-.59-.05-.59-.05,0,0,.23-.18-.03-.44-.26-.26-.67,0-.67,0,0,0,.24-.22-.03-.49-.26-.27-.66.03-.66.03.04-.12.07-.3-.03-.4-.1-.1-.27-.19-.58-.09-.19.06-.51.27-.32.53.19.26.58.18.58.18,0,0-.33.12-.01.41.32.29.69.05.69.05,0,0-.26.2-.01.41.25.21.7,0,.7,0-.13.13-.08.56.35.52.43-.05.83-.44.6-.67Z"/>
      <path class="cls-3" d="M19.38,12.27l.96,2.54.52-.21-.69-2.55-.8.22Z"/>
    </g>
  </g>
</svg>
