<svg xmlns="http://www.w3.org/2000/svg" id="Layer_2" version="1.1" width="456" height="28" viewBox="0 0 456 28">
  <defs>
    <style>
      .st0 {
      fill: #abff47;
      }

      .st1 {
      fill: #191939;
      }

      .st2 {
      fill: #fff;
      }

      .st3 {
      fill: #615dfc;
      }
    </style>
  </defs>
  <g id="Layer_1-2">
    <rect class="st3" width="456" height="28"/>
    <g>
      <g>
        <rect class="st0" x="100.8" y="4.6" width="51.3" height="18.8" rx="3.6" ry="3.6"/>
        <g>
          <path class="st1" d="M107.8,19c-.1,0-.2,0-.2-.2v-7.1h-2.3c-.1,0-.2,0-.2-.2v-1.6c0-.1,0-.2.2-.2h7c.1,0,.2,0,.2.2v1.6c0,.1,0,.2-.2.2h-2.3v7.1c0,.1,0,.2-.2.2h-2Z"/>
          <path class="st1" d="M113.8,19c-.1,0-.2,0-.2-.2v-8.9c0-.1,0-.2.2-.2h3.3c1.3,0,2.3.3,2.9.8.6.5.9,1.3.9,2.2s-.1,1.2-.4,1.6c-.3.4-.7.8-1.3.9h0s2.2,3.5,2.2,3.5c0,0,0,.1,0,.2s0,0-.2,0h-2.2c0,0-.2,0-.2-.1l-1.9-3.3h-.9v3.2c0,.1,0,.2-.2.2h-1.9,0ZM116,13.7h1.1c.5,0,.8,0,1.1-.2s.4-.4.4-.8-.1-.6-.3-.8-.6-.2-1.1-.2h-1.2v2.1Z"/>
          <path class="st1" d="M122.1,19c-.2,0-.2,0-.2-.2l3-8.9c0-.1.1-.2.2-.2h2.5c.1,0,.2,0,.2.2l3,8.9c0,.1,0,.2-.2.2h-2.1c-.1,0-.2,0-.2-.2l-1.4-5.2c0-.3-.2-.7-.3-1s-.2-.7-.2-1h0c0,.3-.2.7-.2,1,0,.3-.2.7-.3,1l-1.4,5.1c0,.1,0,.2-.2.2h-2.1ZM124.5,17.3l.4-1.8h2.9l.4,1.8h-3.7,0Z"/>
          <path class="st1" d="M131.9,19c-.1,0-.2,0-.2-.2v-8.9c0-.1,0-.2.2-.2h3.4c1.5,0,2.6.3,3.3,1,.7.7,1.1,1.7,1.1,3.1v1c0,1.4-.4,2.4-1.1,3.1-.7.7-1.8,1.1-3.3,1.1h-3.4ZM134.1,16.9h1c.8,0,1.3-.2,1.7-.6.4-.4.5-1,.5-1.7v-.9c0-.7-.2-1.2-.5-1.6s-.9-.6-1.7-.6h-1v5.3h0Z"/>
          <path class="st1" d="M141.3,19c-.1,0-.2,0-.2-.2v-8.9c0-.1,0-.2.2-.2h5.9c.1,0,.2,0,.2.2v1.6c0,.1,0,.2-.2.2h-3.8v1.6h3.4c.1,0,.2,0,.2.2v1.5c0,.1,0,.2-.2.2h-3.4v1.7h3.8c.1,0,.2,0,.2.2v1.6c0,.1,0,.2-.2.2h-5.9Z"/>
        </g>
        <g>
          <path class="st2" d="M159.8,19.1c-1.3,0-2.2-.2-2.8-.7s-.8-1.2-.7-2.2c0-.1,0-.2.2-.2h1.9c.1,0,.2,0,.2.2,0,.3,0,.5.3.7.2.2.5.2,1,.2s.8,0,1-.2c.2-.1.3-.3.3-.5s0-.2,0-.3-.1-.2-.3-.3-.3-.2-.5-.2l-2-.9c-.5-.2-.9-.4-1.1-.7-.3-.2-.5-.5-.6-.9s-.2-.7-.2-1.1c0-.8.3-1.5.9-1.9.6-.5,1.4-.7,2.5-.7s1.5.1,2.1.3.9.5,1.2.9c.2.4.3.9.3,1.6,0,.2,0,.2-.2.2h-1.9c0,0-.1,0-.1,0s0-.1,0-.2c0-.3,0-.5-.3-.6-.2-.2-.5-.3-.9-.3s-.6,0-.8.2-.3.3-.3.5,0,.2,0,.3.1.2.3.3c.1,0,.3.2.5.3l2,.9c.5.2.9.4,1.1.7s.5.5.6.9c.1.3.2.7.2,1.1,0,.9-.3,1.5-.9,2-.6.5-1.5.7-2.8.7h0Z"/>
          <path class="st2" d="M165.1,19c-.1,0-.2,0-.2-.2v-8.9c0-.1,0-.2.2-.2h1.9c.1,0,.2,0,.2.2v2.1c0,.3,0,.6,0,.8,0,.3,0,.6,0,.8h0c.2-.3.3-.6.5-.8.2-.3.4-.5.6-.8l1.7-2.2c0,0,.1-.1.2-.1h2.4c0,0,.1,0,.2,0s0,.1,0,.2l-2.9,3.5,3.2,5.3c0,0,0,.1,0,.2,0,0,0,0-.1,0h-2.4c-.1,0-.2,0-.2-.1l-2.1-3.6-1,1.2v2.3c0,.1,0,.2-.2.2h-2Z"/>
          <path class="st2" d="M174.2,19c-.1,0-.2,0-.2-.2v-8.9c0-.1,0-.2.2-.2h1.9c.1,0,.2,0,.2.2v8.9c0,.1,0,.2-.2.2h-1.9Z"/>
          <path class="st2" d="M178.2,19c-.1,0-.2,0-.2-.2v-8.9c0-.1,0-.2.2-.2h2.5c.1,0,.2,0,.2.1l1.8,3.6c.1.3.3.6.4.9s.3.6.4.9c.1.3.2.6.3.8h0c0-.2,0-.5,0-.8s0-.6,0-.9,0-.6,0-.8v-3.4c0-.1,0-.2.2-.2h1.9c.1,0,.2,0,.2.2v8.9c0,.1,0,.2-.2.2h-2.5c-.1,0-.2,0-.2-.1l-1.7-3.4c-.1-.3-.3-.5-.4-.9s-.2-.6-.4-.9c-.1-.3-.2-.6-.3-.8h0c0,.3,0,.5,0,.9,0,.3,0,.6,0,1v4.1c0,.1,0,.2-.2.2h-1.9Z"/>
          <path class="st2" d="M190.9,19.1c-1.3,0-2.2-.2-2.8-.7s-.8-1.2-.7-2.2c0-.1,0-.2.2-.2h1.9c.1,0,.2,0,.2.2,0,.3,0,.5.3.7.2.2.5.2,1,.2s.8,0,1-.2c.2-.1.3-.3.3-.5s0-.2,0-.3-.1-.2-.3-.3-.3-.2-.5-.2l-2-.9c-.5-.2-.9-.4-1.1-.7-.3-.2-.5-.5-.6-.9s-.2-.7-.2-1.1c0-.8.3-1.5.9-1.9.6-.5,1.4-.7,2.5-.7s1.5.1,2.1.3.9.5,1.2.9c.2.4.3.9.3,1.6,0,.2,0,.2-.2.2h-1.9c0,0-.1,0-.1,0s0-.1,0-.2c0-.3,0-.5-.3-.6-.2-.2-.5-.3-.9-.3s-.6,0-.8.2-.3.3-.3.5,0,.2,0,.3.1.2.3.3c.1,0,.3.2.5.3l2,.9c.5.2.9.4,1.1.7s.5.5.6.9c.1.3.2.7.2,1.1,0,.9-.3,1.5-.9,2-.6.5-1.5.7-2.8.7h0Z"/>
        </g>
      </g>
      <g>
        <rect class="st0" x="356.6" y="4.6" width="44.2" height="18.8" rx="3.6" ry="3.6"/>
        <g>
          <path class="st1" d="M361.3,16c-.1,0-.2,0-.2-.2v-1.4c0-.1,0-.2.2-.2h5.1c.1,0,.2,0,.2.2v1.4c0,.1,0,.2-.2.2h-5.1Z"/>
          <path class="st1" d="M371.3,19.1c-.8,0-1.5-.1-2-.4s-.9-.6-1.1-1-.3-.9-.3-1.5c0-.1,0-.2.2-.2h1.8c.1,0,.2,0,.2.2,0,.4.1.6.3.7s.6.2,1,.2.7,0,.9-.2.3-.4.3-.7v-.2c0-.6-.4-.9-1.2-.9h-1c-.1,0-.2,0-.2-.2v-1.4c0-.1,0-.2.2-.2h.8c.5,0,.8,0,1-.2.2-.1.3-.4.3-.7v-.2c0-.3,0-.5-.3-.6s-.5-.2-.9-.2-.7,0-.9.2-.3.4-.3.6,0,.2-.2.2h-1.8c-.1,0-.2,0-.2-.2,0-.9.3-1.6.9-2,.6-.5,1.5-.7,2.6-.7s2,.2,2.5.6c.5.4.8,1,.8,1.8s-.1,1-.4,1.4c-.2.4-.6.6-1,.8h0c.5.2.9.4,1.1.8.3.4.4.8.4,1.4,0,.9-.3,1.6-.9,2.1s-1.5.7-2.7.7h0Z"/>
          <path class="st1" d="M379.4,19.1c-.8,0-1.5-.1-2-.4s-.9-.6-1.1-1-.3-.9-.3-1.4c0-.1,0-.2.2-.2h1.8c.1,0,.2,0,.2.2,0,.2.1.4.3.6.2.2.5.2,1,.2s.9,0,1.1-.3c.2-.2.3-.5.3-.9v-.2c0-.2,0-.4-.1-.6-.1-.2-.2-.3-.5-.4s-.5-.1-.8-.1-.9,0-1.4.1-.9.2-1.4.3c-.1,0-.2,0-.3,0s0-.1,0-.2l.5-5.1c0-.1,0-.2.2-.2h5.3c.1,0,.2,0,.2.2v1.6c0,.1,0,.2-.2.2h-3.6v1.5c.2,0,.5-.1.8-.2.3,0,.6,0,.9,0,.9,0,1.7.2,2.1.7s.7,1.2.7,2.3-.3,2-.9,2.5-1.6.8-2.8.8h0Z"/>
          <path class="st1" d="M386.8,14.7c-.9,0-1.5-.2-1.9-.6-.4-.4-.6-1-.6-1.8v-.4c0-.8.2-1.3.6-1.8.4-.4,1.1-.6,1.9-.6s1.5.2,1.9.6c.4.4.6,1,.6,1.8v.4c0,.8-.2,1.3-.6,1.8s-1,.6-1.9.6h0ZM386.8,13c.3,0,.5,0,.6-.2.1-.1.2-.3.2-.6v-.3c0-.3,0-.5-.2-.6s-.3-.2-.6-.2-.5,0-.6.2-.2.4-.2.6v.3c0,.3,0,.5.2.6.1.1.3.2.6.2ZM386.9,19c-.2,0-.2,0-.1-.2l2.9-4.8,2.4-4.2c0,0,.1-.1.2-.1h1.7c.2,0,.2,0,.1.2l-2.7,4.5-2.6,4.5c0,0-.1.1-.2.1h-1.6ZM394.1,19.1c-.9,0-1.5-.2-1.9-.6-.4-.4-.6-1-.6-1.8v-.4c0-.8.2-1.3.6-1.8.4-.4,1.1-.6,1.9-.6s1.5.2,1.9.6c.4.4.6,1,.6,1.8v.4c0,.7-.2,1.3-.6,1.8s-1.1.6-1.9.6h0ZM394.1,17.5c.3,0,.5,0,.6-.2s.2-.4.2-.6v-.3c0-.3,0-.5-.2-.6s-.3-.2-.6-.2-.5,0-.6.2-.2.3-.2.6v.3c0,.3,0,.5.2.6.1.1.3.2.6.2h0Z"/>
        </g>
        <g>
          <path class="st2" d="M409.1,19.1c-1.3,0-2.2-.2-2.8-.7s-.8-1.2-.7-2.2c0-.1,0-.2.2-.2h1.9c.1,0,.2,0,.2.2,0,.3,0,.5.3.7.2.2.5.2,1,.2s.8,0,1-.2c.2-.1.3-.3.3-.5s0-.2,0-.3c0,0-.1-.2-.3-.3-.1,0-.3-.2-.5-.2l-2-.9c-.5-.2-.9-.4-1.2-.7s-.5-.5-.6-.9-.2-.7-.2-1.1c0-.8.3-1.5.9-1.9.6-.5,1.4-.7,2.5-.7s1.5.1,2.1.3,1,.5,1.2.9.3.9.3,1.6c0,.2,0,.2-.2.2h-1.9c0,0-.1,0-.1,0s0-.1,0-.2c0-.3,0-.5-.3-.6-.2-.2-.5-.3-.9-.3s-.6,0-.8.2-.3.3-.3.5,0,.2,0,.3c0,0,.1.2.3.3s.3.2.5.3l2,.9c.5.2.9.4,1.2.7s.5.5.6.9c.1.3.2.7.2,1.1,0,.9-.3,1.5-.9,2-.6.5-1.5.7-2.8.7h0Z"/>
          <path class="st2" d="M416.3,19c-.1,0-.2,0-.2-.2v-7.1h-2.3c-.1,0-.2,0-.2-.2v-1.6c0-.1,0-.2.2-.2h7c.1,0,.2,0,.2.2v1.6c0,.1,0,.2-.2.2h-2.3v7.1c0,.1,0,.2-.2.2h-2,0Z"/>
          <path class="st2" d="M425.8,19.1c-1.3,0-2.3-.3-3-.9-.7-.6-1-1.5-1-2.8v-2.2c0-1.2.3-2.2,1-2.8.7-.6,1.7-.9,3-.9s2.3.3,3,.9,1,1.6,1,2.8v2.2c0,1.2-.3,2.2-1,2.8s-1.7.9-3,.9ZM425.8,17.1c.6,0,1-.2,1.3-.5s.4-.8.4-1.4v-1.9c0-.6-.1-1-.4-1.4s-.7-.5-1.3-.5-1,.2-1.3.5-.4.8-.4,1.4v1.9c0,.6.1,1,.4,1.4s.7.5,1.3.5Z"/>
          <path class="st2" d="M431.5,19c-.1,0-.2,0-.2-.2v-8.9c0-.1,0-.2.2-.2h3.3c1.3,0,2.3.3,2.9.8.6.5.9,1.3.9,2.2s-.1,1.2-.4,1.6-.7.8-1.3.9h0s2.2,3.5,2.2,3.5c0,0,0,.1,0,.2s0,0-.2,0h-2.2c-.1,0-.2,0-.2-.1l-1.9-3.3h-.9v3.2c0,.1,0,.2-.2.2h-2,0ZM433.7,13.7h1.1c.5,0,.8,0,1.1-.2.2-.2.4-.4.4-.8s-.1-.6-.3-.8c-.2-.2-.6-.2-1-.2h-1.2v2.1Z"/>
          <path class="st2" d="M440.5,19c-.1,0-.2,0-.2-.2v-8.9c0-.1,0-.2.2-.2h5.9c.1,0,.2,0,.2.2v1.6c0,.1,0,.2-.2.2h-3.8v1.6h3.4c.1,0,.2,0,.2.2v1.5c0,.1,0,.2-.2.2h-3.4v1.7h3.8c.1,0,.2,0,.2.2v1.6c0,.1,0,.2-.2.2h-5.9Z"/>
        </g>
      </g>
      <g>
        <rect class="st0" x="234.1" y="4.6" width="81.7" height="18.8" rx="3.6" ry="3.6"/>
        <g>
          <path class="st1" d="M239.6,19c-.1,0-.2,0-.2-.2v-8.9c0-.1,0-.2.2-.2h5.9c.1,0,.2,0,.2.2v1.6c0,.1,0,.2-.2.2h-3.8v1.8h3.2c.1,0,.2,0,.2.2v1.6c0,.1,0,.2-.2.2h-3.2v3.4c0,.1,0,.2-.2.2h-2,0Z"/>
          <path class="st1" d="M247.2,19c-.1,0-.2,0-.2-.2v-8.9c0-.1,0-.2.2-.2h3.3c1.3,0,2.3.3,2.9.8s.9,1.3.9,2.2-.1,1.2-.4,1.6c-.3.4-.7.8-1.3.9h0s2.2,3.5,2.2,3.5c0,0,0,.1,0,.2s0,0-.2,0h-2.2c-.1,0-.2,0-.2-.1l-1.9-3.3h-.9v3.2c0,.1,0,.2-.2.2h-1.9,0ZM249.3,13.7h1.1c.5,0,.8,0,1.1-.2s.4-.4.4-.8-.1-.6-.3-.8-.6-.2-1.1-.2h-1.2v2.1Z"/>
          <path class="st1" d="M256,19c-.1,0-.2,0-.2-.2v-8.9c0-.1,0-.2.2-.2h5.9c.1,0,.2,0,.2.2v1.6c0,.1,0,.2-.2.2h-3.8v1.6h3.4c.1,0,.2,0,.2.2v1.5c0,.1,0,.2-.2.2h-3.4v1.7h3.8c.1,0,.2,0,.2.2v1.6c0,.1,0,.2-.2.2h-5.9Z"/>
          <path class="st1" d="M263.9,19c-.1,0-.2,0-.2-.2v-8.9c0-.1,0-.2.2-.2h5.9c.1,0,.2,0,.2.2v1.6c0,.1,0,.2-.2.2h-3.8v1.6h3.4c.1,0,.2,0,.2.2v1.5c0,.1,0,.2-.2.2h-3.4v1.7h3.8c.1,0,.2,0,.2.2v1.6c0,.1,0,.2-.2.2h-5.9Z"/>
          <path class="st1" d="M277.7,19.1c-1.2,0-2-.2-2.6-.7-.6-.5-.8-1.2-.7-2.2,0-.1,0-.2.2-.2h1.8c.1,0,.2,0,.2.2,0,.3,0,.6.2.8s.5.3.9.3.7,0,.8-.2c.2-.1.3-.3.3-.6s0-.3,0-.4-.1-.2-.2-.3c-.1,0-.2-.2-.4-.3l-2.1-1c-.6-.3-1-.6-1.2-1s-.4-.9-.4-1.5c0-.9.3-1.5.8-1.9s1.4-.6,2.4-.6,2,.2,2.6.7c.5.5.8,1.2.7,2.2,0,.1,0,.2-.2.2h-1.8c-.1,0-.2,0-.2-.2,0-.3,0-.6-.2-.8s-.5-.2-.8-.2-.6,0-.7.2c-.2.1-.3.3-.3.6s0,.4.2.5.3.3.6.4l2,1c.4.2.7.4.9.6s.4.5.5.8.2.7.2,1.1c0,.9-.3,1.6-.9,2s-1.4.6-2.6.6h0ZM276.8,9.7v-1.2c0,0,0-.1.1-.1h1.7c0,0,.1,0,.1.1v1.2h-2q0,0,0,0ZM276.9,20.2c0,0-.1,0-.1-.1v-1.2h2c0,0,0,1.2,0,1.2,0,0,0,.1-.1.1h-1.7,0Z"/>
          <path class="st1" d="M286.2,19.1c-.8,0-1.4-.1-2-.4s-.9-.6-1.1-1c-.2-.4-.3-.9-.3-1.4,0-.1,0-.2.2-.2h1.8c.1,0,.2,0,.2.2,0,.2.1.4.3.6s.5.2,1,.2.9,0,1.1-.3.3-.5.3-.9v-.2c0-.2,0-.4-.1-.6,0-.2-.2-.3-.5-.4s-.5-.1-.8-.1-.9,0-1.4.1c-.5,0-.9.2-1.4.3-.1,0-.2,0-.3,0s0-.1,0-.2l.5-5.1c0-.1,0-.2.2-.2h5.3c.1,0,.2,0,.2.2v1.6c0,.1,0,.2-.2.2h-3.6v1.5c.2,0,.5-.1.8-.2.3,0,.6,0,.9,0,.9,0,1.6.2,2.1.7.5.5.7,1.2.7,2.3s-.3,1.9-.9,2.5c-.6.5-1.6.8-2.8.8h0Z"/>
          <path class="st1" d="M292.7,19.1c-.5,0-.8-.1-1.1-.3-.3-.2-.4-.5-.4-.9v-.4c0-.4.1-.7.4-1,.3-.2.6-.3,1.1-.3s.9.1,1.1.3c.2.2.4.5.4,1v.4c0,.4-.1.7-.4.9-.2.2-.6.3-1.1.3Z"/>
          <path class="st1" d="M299,19.1c-1.2,0-2.1-.3-2.8-.9s-1-1.5-1-2.7v-2.5c0-1.2.3-2.1,1-2.7s1.5-.9,2.8-.9,2.1.3,2.8.9c.6.6.9,1.5.9,2.7v2.5c0,1.2-.3,2-.9,2.7s-1.5.9-2.8.9ZM299,17.1c.5,0,.8-.1,1-.4.2-.3.4-.7.4-1.2v-2.4c0-.6-.1-1-.4-1.2s-.6-.4-1-.4-.8.1-1.1.4c-.2.3-.4.7-.4,1.2v2.4c0,.5.1,1,.4,1.2s.6.4,1.1.4Z"/>
          <path class="st1" d="M307.7,19.1c-1.2,0-2.1-.3-2.8-.9s-1-1.5-1-2.7v-2.5c0-1.2.3-2.1,1-2.7s1.5-.9,2.8-.9,2.1.3,2.8.9c.6.6.9,1.5.9,2.7v2.5c0,1.2-.3,2-.9,2.7s-1.5.9-2.8.9ZM307.7,17.1c.5,0,.8-.1,1-.4.2-.3.4-.7.4-1.2v-2.4c0-.6-.1-1-.4-1.2s-.6-.4-1-.4-.8.1-1.1.4c-.2.3-.4.7-.4,1.2v2.4c0,.5.1,1,.4,1.2s.6.4,1.1.4Z"/>
        </g>
      </g>
      <circle class="st2" cx="211.4" cy="14" r="1.6"/>
      <circle class="st2" cx="338.4" cy="14" r="1.5"/>
    </g>
    <g>
      <path class="st2" d="M31.4,11.6h-2.5l-.6-1.2h5.6l.6,1.2h-1.8v6.2h-1.3s0-6.2,0-6.2Z"/>
      <path class="st2" d="M63.4,10.4h2.1v7.4h-2.1s0-7.4,0-7.4Z"/>
      <path class="st2" d="M69.2,12.2h-2.2v-1.8h6.5v1.8h-2.2v5.6h-2.1v-5.6Z"/>
      <path class="st2" d="M39.4,15c.3,0,.5-.2.7-.3s.4-.3.6-.5.3-.4.4-.6c0-.2.1-.5.1-.8h0c0-.3,0-.6-.2-.9s-.3-.5-.5-.7c-.2-.2-.5-.4-.9-.6-.4-.1-.8-.2-1.2-.2h-2.9l.6,1.2h2.1c.5,0,1,.1,1.2.3s.4.5.4.9h0c0,.4-.1.7-.4.9-.3.2-.7.3-1.1.3h-3l.6,1.2h2.2l1.8,2.6h1.5l-2-2.8h0Z"/>
      <path class="st2" d="M46,10.3h-1.2l-2.6,6,.8,1.2.6-1.4.5-1.2,1.3-3,1.3,3,.5,1.2.8,1.8h1.4l-3.3-7.5h0Z"/>
      <path class="st2" d="M55,12.6c-.2-.4-.5-.8-.8-1.2-.3-.3-.8-.6-1.2-.8s-1-.3-1.6-.3h-3.4l.5,1.2h2.8c.4,0,.7,0,1.1.2.3.1.6.3.8.5.2.2.4.5.5.8s.2.6.2,1h0c0,.4,0,.7-.2,1-.1.3-.3.6-.5.8-.2.2-.5.4-.8.5s-.7.2-1.1.2h-.6l.5,1.2c.5,0,1.3-.1,1.7-.3.5-.2.9-.5,1.2-.8s.6-.7.8-1.2c.2-.4.3-.9.3-1.5h0c0-.5,0-1-.3-1.5h0Z"/>
      <path class="st2" d="M56.9,14.6h2.9l.6-1.2h-3.5c0,.2,0,.4,0,.6h0c0,.2,0,.4,0,.5h0Z"/>
      <path class="st2" d="M61.9,16.6h-5.6c-.2.4-.5.8-.9,1.1,0,0,0,0,0,0h6.5s0-1.2,0-1.2Z"/>
      <path class="st2" d="M56.2,11.5h5.6v-1.2h-6.6s0,0,.1.1c.3.3.6.7.8,1.1Z"/>
      <path class="st2" d="M11.4,14c0-3.1,2.5-5.6,5.6-5.6s2.9.6,3.9,1.6l3.7,3.8c0-4.1-3.4-7.5-7.6-7.5s-5.3,1.6-6.6,3.9h-2.6l3.7,3.7h0Z"/>
      <path class="st2" d="M16.9,21.6c2.9,0,5.3-1.6,6.6-3.9h2.6l-3.7-3.7c0,3.1-2.5,5.6-5.6,5.6s-2.9-.6-3.9-1.6l-3.7-3.8c0,4.2,3.4,7.5,7.6,7.5h0Z"/>
      <path class="st2" d="M19.5,15.6c.1-.2.1-.3-.4-.6-.2-.1-.5-.4-.8-.6-.5-.4-1.1-.9-1.3-.9,0,0-.1,0-.3.1-.1,0-.3.1-.5.2-.6.2-1,.2-1.2,0-.1-.1-.2-.2-.2-.4s.1-.4.4-.7c.2-.2.5-.4.7-.6-.3,0-.8,0-1.4.2l-.8,2.2h0c.1,0,.3-.2.6-.2s.4,0,.6.4h0c.1,0,.5,0,.7.4.2,0,.6,0,.7.5.1,0,.4.1.6.4.1.3,0,.6-.2.9,0,0,.2.1.4.1.1,0,.2-.1.2-.2,0,0,0-.2,0-.3h0s0-.1,0-.1c0,0,0,0,.1,0h0c0,0,.2.2.4.2s.1,0,.2,0c.2-.2,0-.4,0-.4,0,0,0-.1,0-.1,0,0,0,0,.1,0,0,0,.2.2.3.2s0,0,.1,0c.2-.1.1-.4.1-.4,0,0,0,0,0-.1s0,0,.1,0c0,0,.1,0,.3,0s.1,0,.2-.1h0Z"/>
      <path class="st2" d="M17.1,12.1c-.2,0-.6.1-1.1.5-.5.4-.8.7-.7.8.2.3.6.2,1.3-.2.2-.1.4-.2.5-.2s.3.1.5.2c1.2.9,1.8,1.3,2,1.5h.2c0-.1-.7-2-.7-2-.3,0-1.7-.5-2-.6h0Z"/>
      <path class="st2" d="M13.3,14.4l.9-2.5-.9-.2-.6,2.6s.6.2.6.2Z"/>
      <path class="st2" d="M16.8,16.1c-.2-.2-.6,0-.6,0,0,0,.2-.2,0-.4-.3-.3-.7,0-.7,0,0,0,.2-.2,0-.5-.3-.3-.7,0-.7,0,0-.1,0-.3,0-.4s-.3-.2-.6,0c-.2,0-.5.3-.3.5.2.3.6.2.6.2,0,0-.3.1,0,.4s.7,0,.7,0c0,0-.3.2,0,.4s.7,0,.7,0c-.1.1,0,.6.4.5.4,0,.8-.4.6-.7h0Z"/>
      <path class="st2" d="M19.4,12.3l1,2.5.5-.2-.7-2.6-.8.2h0Z"/>
    </g>
  </g>
</svg>
