<svg width="770" height="221" viewBox="0 0 770 221" fill="none" xmlns="http://www.w3.org/2000/svg">
<path d="M314.56 67.12L157.28 0L0 67.12V118.67L34.15 140.79V86.49L157.28 33.41L280.41 86.49V140.79L314.56 118.67V67.12Z" fill="white"/>
<path d="M260.01 83.9L160.46 40.88V85.73L260.01 83.9Z" fill="white"/>
<path d="M274.19 90L154.24 92.28V40.88L40.3701 90V144.76L157.28 220.57L274.19 144.76V90Z" fill="white"/>
<path d="M280.41 86.49V140.79L314.56 118.67V67.12L280.41 86.49Z" fill="#E7E7E7"/>
<path d="M34.15 86.49L0 67.12V118.67L34.15 140.79V86.49Z" fill="#E7E7E7"/>
<path d="M157.28 156.66L40.3701 90V144.76L157.28 220.57L274.19 144.76V90L157.28 156.66Z" fill="#E7E7E7"/>
<path d="M432.34 81.775V93.695H401.14V138.795H388.56V81.775H432.34Z" fill="white"/>
<path d="M456.31 122.205L481.37 81.775H496.72V138.795H484.14V98.165L458.98 138.795H443.53V81.775H456.31V122.205Z" fill="white"/>
<path d="M511.28 81.775H523.86V104.725H550.21V81.775H562.99V138.795H550.21V116.745H523.86V138.795H511.28V81.775Z" fill="white"/>
<path d="M625.78 81.775V93.695H606.96V138.795H594.08V93.695H575.46V81.775H625.78Z" fill="white"/>
<path d="M639.15 99.365H682.63V109.995H639.15V99.365Z" fill="white"/>
<path d="M740.38 138.795H727.5L710.46 99.955V138.795H697.88V81.775H714.42L733.93 126.575L753.54 81.775H769.49V138.795H757.51V99.955L740.37 138.795H740.38Z" fill="white"/>
</svg>
