<svg width="24" height="24" viewBox="0 0 24 24" fill="none" xmlns="http://www.w3.org/2000/svg">
<g clip-path="url(#clip0_11756_777)">
<path d="M15 0H3C2.20435 0 1.44129 0.31607 0.87868 0.87868C0.31607 1.44129 0 2.20435 0 3L0 11H15V0Z" fill="#374957"/>
<path d="M21 0H17V11H24V3C24 2.20435 23.6839 1.44129 23.1213 0.87868C22.5587 0.31607 21.7956 0 21 0V0Z" fill="#374957"/>
<path d="M7 13.0005H0V21.0005C0 21.7961 0.316071 22.5592 0.87868 23.1218C1.44129 23.6844 2.20435 24.0005 3 24.0005H7V13.0005Z" fill="#374957"/>
<path d="M24 13.0005H9V24.0005H21C21.7956 24.0005 22.5587 23.6844 23.1213 23.1218C23.6839 22.5592 24 21.7961 24 21.0005V13.0005Z" fill="#374957"/>
</g>
<defs>
<clipPath id="clip0_11756_777">
<rect width="24" height="24" fill="white"/>
</clipPath>
</defs>
</svg>
