<svg width="24" height="24" viewBox="0 0 24 24" fill="none" xmlns="http://www.w3.org/2000/svg">
<g clip-path="url(#clip0_11756_792)">
<ellipse cx="12" cy="5.5" rx="3" ry="2.5" fill="#374957"/>
<path d="M23 23L13.6116 7.87425M23 13.1458C20.3125 16.1907 16.3805 18.1111 12 18.1111C7.61946 18.1111 3.68746 16.1907 1 13.1458M1 23L10.3884 7.87425M12 2.22222C10.3125 2.22222 8.94444 3.59024 8.94444 5.27778C8.94444 6.3738 9.52151 7.33505 10.3884 7.87425M12 2.22222C13.6875 2.22222 15.0556 3.59024 15.0556 5.27778C15.0556 6.3738 14.4785 7.33505 13.6116 7.87425M12 2.22222V1M13.6116 7.87425C13.1438 8.16526 12.5915 8.33333 12 8.33333C11.4085 8.33333 10.8562 8.16526 10.3884 7.87425" stroke="#374957" stroke-width="2" stroke-linecap="round" stroke-linejoin="round"/>
</g>
<defs>
<clipPath id="clip0_11756_792">
<rect width="24" height="24" fill="white"/>
</clipPath>
</defs>
</svg>
