<svg width="118" height="117" viewBox="0 0 118 117" fill="none" xmlns="http://www.w3.org/2000/svg">
<g clip-path="url(#clip0_3356_7348)">
<mask id="mask0_3356_7348" style="mask-type:luminance" maskUnits="userSpaceOnUse" x="0" y="0" width="118" height="117">
<path d="M0.5 0H117.5V117H0.5V0Z" fill="white"/>
</mask>
<g mask="url(#mask0_3356_7348)">
<path d="M58.9963 109.68C93.1238 109.68 110.18 86.7628 110.18 58.4927C110.18 30.2299 93.1238 7.3125 58.9927 7.3125C24.8689 7.3125 7.8125 30.2299 7.8125 58.4963C7.8125 86.7628 24.8652 109.68 58.9963 109.68Z" fill="url(#paint0_radial_3356_7348)"/>
<path d="M58.9963 109.68C93.1238 109.68 110.18 86.7628 110.18 58.4927C110.18 30.2299 93.1238 7.3125 58.9927 7.3125C24.8689 7.3125 7.8125 30.2299 7.8125 58.4963C7.8125 86.7628 24.8652 109.68 58.9963 109.68Z" fill="url(#paint1_radial_3356_7348)"/>
<path d="M58.9963 109.68C93.1238 109.68 110.18 86.7628 110.18 58.4927C110.18 30.2299 93.1238 7.3125 58.9927 7.3125C24.8689 7.3125 7.8125 30.2299 7.8125 58.4963C7.8125 86.7628 24.8652 109.68 58.9963 109.68Z" fill="url(#paint2_radial_3356_7348)"/>
<path d="M58.9963 109.68C93.1238 109.68 110.18 86.7628 110.18 58.4927C110.18 30.2299 93.1238 7.3125 58.9927 7.3125C24.8689 7.3125 7.8125 30.2299 7.8125 58.4963C7.8125 86.7628 24.8652 109.68 58.9963 109.68Z" fill="url(#paint3_radial_3356_7348)" fill-opacity="0.6"/>
<path d="M58.9963 109.68C93.1238 109.68 110.18 86.7628 110.18 58.4927C110.18 30.2299 93.1238 7.3125 58.9927 7.3125C24.8689 7.3125 7.8125 30.2299 7.8125 58.4963C7.8125 86.7628 24.8652 109.68 58.9963 109.68Z" fill="url(#paint4_radial_3356_7348)"/>
<path d="M58.9963 109.68C93.1238 109.68 110.18 86.7628 110.18 58.4927C110.18 30.2299 93.1238 7.3125 58.9927 7.3125C24.8689 7.3125 7.8125 30.2299 7.8125 58.4963C7.8125 86.7628 24.8652 109.68 58.9963 109.68Z" fill="url(#paint5_radial_3356_7348)"/>
<path d="M58.9963 109.68C93.1238 109.68 110.18 86.7628 110.18 58.4927C110.18 30.2299 93.1238 7.3125 58.9927 7.3125C24.8689 7.3125 7.8125 30.2299 7.8125 58.4963C7.8125 86.7628 24.8652 109.68 58.9963 109.68Z" fill="url(#paint6_radial_3356_7348)"/>
<path d="M58.9963 109.68C93.1238 109.68 110.18 86.7628 110.18 58.4927C110.18 30.2299 93.1238 7.3125 58.9927 7.3125C24.8689 7.3125 7.8125 30.2299 7.8125 58.4963C7.8125 86.7628 24.8652 109.68 58.9963 109.68Z" fill="url(#paint7_radial_3356_7348)"/>
<path d="M33.4685 77.1249C42.9046 77.1249 50.5541 69.4754 50.5541 60.0393C50.5541 50.6031 42.9046 42.9536 33.4685 42.9536C24.0323 42.9536 16.3828 50.6031 16.3828 60.0393C16.3828 69.4754 24.0323 77.1249 33.4685 77.1249Z" fill="url(#paint8_radial_3356_7348)"/>
<path d="M70.8609 77.465C79.4307 77.465 86.378 70.5177 86.378 61.9479C86.378 53.378 79.4307 46.4307 70.8609 46.4307C62.291 46.4307 55.3438 53.378 55.3438 61.9479C55.3438 70.5177 62.291 77.465 70.8609 77.465Z" fill="url(#paint9_radial_3356_7348)"/>
<path d="M38.5981 70.2878C40.6373 70.3192 42.6624 69.9447 44.5555 69.1861C46.4486 68.4275 48.1719 67.2999 49.6251 65.8689C51.0783 64.438 52.2323 62.7323 53.02 60.8511C53.8077 58.9699 54.2134 56.9508 54.2134 54.9114C54.2134 52.8719 53.8077 50.8529 53.02 48.9717C52.2323 47.0905 51.0783 45.3848 49.6251 43.9539C48.1719 42.5229 46.4486 41.3953 44.5555 40.6367C42.6624 39.8781 40.6373 39.5036 38.5981 39.535C34.5611 39.5973 30.7105 41.2447 27.8777 44.1215C25.0449 46.9984 23.457 50.8739 23.457 54.9114C23.457 58.9489 25.0449 62.8244 27.8777 65.7013C30.7105 68.5781 34.5611 70.2255 38.5981 70.2878ZM79.358 70.5693C81.396 70.5693 83.414 70.1679 85.2968 69.388C87.1797 68.6081 88.8905 67.465 90.3315 66.0239C91.7726 64.5828 92.9157 62.872 93.6956 60.9892C94.4755 59.1063 94.8769 57.0883 94.8769 55.0503C94.8769 53.0123 94.4755 50.9943 93.6956 49.1115C92.9157 47.2286 91.7726 45.5178 90.3315 44.0768C88.8905 42.6357 87.1797 41.4926 85.2968 40.7127C83.414 39.9328 81.396 39.5314 79.358 39.5314C75.2416 39.5314 71.2938 41.1666 68.3831 44.0773C65.4724 46.988 63.8372 50.9358 63.8372 55.0522C63.8372 59.1685 65.4724 63.1163 68.3831 66.027C71.2938 68.9377 75.2416 70.5693 79.358 70.5693Z" fill="white"/>
<path d="M40.7188 65.8125C43.6278 65.8125 46.4178 64.6569 48.4748 62.5998C50.5319 60.5428 51.6875 57.7528 51.6875 54.8438C51.6875 51.9347 50.5319 49.1447 48.4748 47.0877C46.4178 45.0306 43.6278 43.875 40.7188 43.875C37.8097 43.875 35.0197 45.0306 32.9627 47.0877C30.9056 49.1447 29.75 51.9347 29.75 54.8438C29.75 57.7528 30.9056 60.5428 32.9627 62.5998C35.0197 64.6569 37.8097 65.8125 40.7188 65.8125Z" fill="url(#paint10_linear_3356_7348)"/>
<path d="M77.2812 65.8125C80.1903 65.8125 82.9803 64.6569 85.0373 62.5998C87.0944 60.5428 88.25 57.7528 88.25 54.8438C88.25 51.9347 87.0944 49.1447 85.0373 47.0877C82.9803 45.0306 80.1903 43.875 77.2812 43.875C74.3722 43.875 71.5822 45.0306 69.5252 47.0877C67.4681 49.1447 66.3125 51.9347 66.3125 54.8438C66.3125 57.7528 67.4681 60.5428 69.5252 62.5998C71.5822 64.6569 74.3722 65.8125 77.2812 65.8125Z" fill="url(#paint11_linear_3356_7348)"/>
<path d="M38.8906 23.7656C38.8906 23.7656 37.0625 34.7344 24.2656 34.7344" stroke="url(#paint12_linear_3356_7348)" stroke-width="0.625" stroke-linecap="round" stroke-linejoin="round"/>
<path d="M38.8906 23.7656C38.8906 23.7656 37.0625 34.7344 24.2656 34.7344" stroke="url(#paint13_radial_3356_7348)" stroke-width="0.625" stroke-linecap="round" stroke-linejoin="round"/>
<path d="M79.1094 23.7656C79.1094 23.7656 80.9375 34.7344 93.7344 34.7344" stroke="url(#paint14_radial_3356_7348)" stroke-width="0.625" stroke-linecap="round" stroke-linejoin="round"/>
<path d="M48.0312 84.0938C48.0312 84.0938 51.6875 80.4375 59 80.4375C66.3125 80.4375 69.9688 84.0938 69.9688 84.0938" stroke="url(#paint15_linear_3356_7348)" stroke-linecap="round"/>
<path d="M22.4375 71.2969C22.4375 66.2486 18.3451 62.1562 13.2969 62.1562C8.24865 62.1562 4.15625 66.2486 4.15625 71.2969V85.9219C4.15625 90.9701 8.24865 95.0625 13.2969 95.0625C18.3451 95.0625 22.4375 90.9701 22.4375 85.9219V71.2969Z" fill="url(#paint16_radial_3356_7348)"/>
</g>
</g>
<defs>
<radialGradient id="paint0_radial_3356_7348" cx="0" cy="0" r="1" gradientUnits="userSpaceOnUse" gradientTransform="translate(93.735 32.9047) rotate(132.839) scale(137.121)">
<stop stop-color="#FFF478"/>
<stop offset="0.475" stop-color="#FFB02E"/>
<stop offset="1" stop-color="#F70A8D"/>
</radialGradient>
<radialGradient id="paint1_radial_3356_7348" cx="0" cy="0" r="1" gradientUnits="userSpaceOnUse" gradientTransform="translate(93.7301 32.9086) rotate(131.878) scale(142.406)">
<stop stop-color="#FFF478"/>
<stop offset="0.475" stop-color="#FFB02E"/>
<stop offset="1" stop-color="#F70A8D"/>
</radialGradient>
<radialGradient id="paint2_radial_3356_7348" cx="0" cy="0" r="1" gradientUnits="userSpaceOnUse" gradientTransform="translate(58.9975 45.7021) rotate(101.31) scale(65.2516 83.5749)">
<stop offset="0.788" stop-color="#F59639" stop-opacity="0"/>
<stop offset="0.973" stop-color="#FF7DCE"/>
</radialGradient>
<radialGradient id="paint3_radial_3356_7348" cx="0" cy="0" r="1" gradientUnits="userSpaceOnUse" gradientTransform="translate(66.3125 51.1875) rotate(135) scale(149.951)">
<stop offset="0.315" stop-opacity="0"/>
<stop offset="1"/>
</radialGradient>
<radialGradient id="paint4_radial_3356_7348" cx="0" cy="0" r="1" gradientUnits="userSpaceOnUse" gradientTransform="translate(58.9998 62.159) rotate(77.692) scale(102.912)">
<stop offset="0.508" stop-color="#7D6133" stop-opacity="0"/>
<stop offset="1" stop-color="#715B32"/>
</radialGradient>
<radialGradient id="paint5_radial_3356_7348" cx="0" cy="0" r="1" gradientUnits="userSpaceOnUse" gradientTransform="translate(60.8281 60.3281) rotate(55.713) scale(48.6775 35.284)">
<stop stop-color="#FFB849"/>
<stop offset="1" stop-color="#FFB847" stop-opacity="0"/>
</radialGradient>
<radialGradient id="paint6_radial_3356_7348" cx="0" cy="0" r="1" gradientUnits="userSpaceOnUse" gradientTransform="translate(75.4531 65.8125) rotate(9.86582) scale(42.6779)">
<stop stop-color="#FFA64B"/>
<stop offset="0.9" stop-color="#FFAE46" stop-opacity="0"/>
</radialGradient>
<radialGradient id="paint7_radial_3356_7348" cx="0" cy="0" r="1" gradientUnits="userSpaceOnUse" gradientTransform="translate(64.4846 54.8448) rotate(43.971) scale(215.912)">
<stop offset="0.185" stop-opacity="0"/>
<stop offset="1" stop-opacity="0.4"/>
</radialGradient>
<radialGradient id="paint8_radial_3356_7348" cx="0" cy="0" r="1" gradientUnits="userSpaceOnUse" gradientTransform="translate(46.7585 46.7467) rotate(135) scale(33.293 17.2314)">
<stop stop-color="#392108"/>
<stop offset="1" stop-color="#C87928" stop-opacity="0"/>
</radialGradient>
<radialGradient id="paint9_radial_3356_7348" cx="0" cy="0" r="1" gradientUnits="userSpaceOnUse" gradientTransform="translate(82.9287 49.8776) rotate(135) scale(28.0423 15.8303)">
<stop stop-color="#392108"/>
<stop offset="1" stop-color="#C87928" stop-opacity="0"/>
</radialGradient>
<linearGradient id="paint10_linear_3356_7348" x1="60.8281" y1="40.2187" x2="57.1719" y2="65.8125" gradientUnits="userSpaceOnUse">
<stop stop-color="#553B3E"/>
<stop offset="1" stop-color="#3D2432"/>
</linearGradient>
<linearGradient id="paint11_linear_3356_7348" x1="60.8281" y1="40.2187" x2="57.1719" y2="65.8125" gradientUnits="userSpaceOnUse">
<stop stop-color="#553B3E"/>
<stop offset="1" stop-color="#3D2432"/>
</linearGradient>
<linearGradient id="paint12_linear_3356_7348" x1="35.2344" y1="21.9375" x2="35.2344" y2="27.4219" gradientUnits="userSpaceOnUse">
<stop offset="0.03" stop-color="#524049"/>
<stop offset="1" stop-color="#4A2C42"/>
</linearGradient>
<radialGradient id="paint13_radial_3356_7348" cx="0" cy="0" r="1" gradientUnits="userSpaceOnUse" gradientTransform="translate(26.0938 21.9375) rotate(54.4623) scale(15.7261)">
<stop offset="0.542" stop-color="#493032"/>
<stop offset="0.807" stop-color="#5E445A"/>
<stop offset="0.955" stop-color="#4A2C42"/>
</radialGradient>
<radialGradient id="paint14_radial_3356_7348" cx="0" cy="0" r="1" gradientUnits="userSpaceOnUse" gradientTransform="translate(91.9063 21.9398) rotate(125.538) scale(15.7261)">
<stop stop-color="#C2B4B5"/>
<stop offset="0.887" stop-color="#462B45"/>
<stop offset="1" stop-color="#4A2C42"/>
</radialGradient>
<linearGradient id="paint15_linear_3356_7348" x1="59" y1="73.125" x2="59" y2="80.4375" gradientUnits="userSpaceOnUse">
<stop stop-color="#4F3C43"/>
<stop offset="1" stop-color="#512756"/>
</linearGradient>
<radialGradient id="paint16_radial_3356_7348" cx="0" cy="0" r="1" gradientUnits="userSpaceOnUse" gradientTransform="translate(19.392 63.6501) rotate(104.88) scale(35.5956 13.5168)">
<stop stop-color="#5C98FF"/>
<stop offset="0.806" stop-color="#3D5BF1"/>
<stop offset="0.962" stop-color="#6065CA"/>
</radialGradient>
<clipPath id="clip0_3356_7348">
<rect width="117" height="117" fill="white" transform="translate(0.5)"/>
</clipPath>
</defs>
</svg>
