<svg width="24" height="24" viewBox="0 0 24 24" fill="none" xmlns="http://www.w3.org/2000/svg">
<path d="M4.44942 13.9083L11.4021 20.4396C11.6416 20.6645 11.7612 20.777 11.9024 20.8047C11.966 20.8172 12.0314 20.8172 12.095 20.8047C12.2362 20.777 12.3559 20.6645 12.5954 20.4396L19.548 13.9083C21.5042 12.0707 21.7417 9.04667 20.0965 6.92614L19.7872 6.52741C17.819 3.99065 13.8683 4.41608 12.4854 7.31372C12.29 7.72303 11.7074 7.72303 11.512 7.31372C10.1291 4.41608 6.17847 3.99065 4.21029 6.52742L3.90094 6.92614C2.2557 9.04667 2.49325 12.0707 4.44942 13.9083Z" stroke="currentColor" stroke-width="2"/>
</svg>
