<svg width="27" height="27" viewBox="0 0 27 27" fill="none" xmlns="http://www.w3.org/2000/svg">
<g filter="url(#filter0_d_7641_2984)">
<path d="M5.64083 13.9083L12.5935 20.4396C12.833 20.6645 12.9527 20.777 13.0939 20.8047C13.1575 20.8172 13.2229 20.8172 13.2865 20.8047C13.4277 20.777 13.5474 20.6645 13.7869 20.4396L20.7395 13.9083C22.6957 12.0707 22.9332 9.04667 21.288 6.92614L20.9787 6.52741C19.0105 3.99065 15.0598 4.41608 13.6769 7.31372C13.4815 7.72303 12.8989 7.72303 12.7035 7.31372C11.3206 4.41608 7.36988 3.99065 5.4017 6.52742L5.09235 6.92614C3.44711 9.04667 3.68466 12.0707 5.64083 13.9083Z" fill="#FF2551"/>
</g>
<defs>
<filter id="filter0_d_7641_2984" x="0" y="2.85742" width="26.3789" height="23.957" filterUnits="userSpaceOnUse" color-interpolation-filters="sRGB">
<feFlood flood-opacity="0" result="BackgroundImageFix"/>
<feColorMatrix in="SourceAlpha" type="matrix" values="0 0 0 0 0 0 0 0 0 0 0 0 0 0 0 0 0 0 127 0" result="hardAlpha"/>
<feOffset dy="2"/>
<feGaussianBlur stdDeviation="2"/>
<feComposite in2="hardAlpha" operator="out"/>
<feColorMatrix type="matrix" values="0 0 0 0 0 0 0 0 0 0 0 0 0 0 0 0 0 0 0.24 0"/>
<feBlend mode="normal" in2="BackgroundImageFix" result="effect1_dropShadow_7641_2984"/>
<feBlend mode="normal" in="SourceGraphic" in2="effect1_dropShadow_7641_2984" result="shape"/>
</filter>
</defs>
</svg>
