<svg xmlns="http://www.w3.org/2000/svg" width="16" height="11" viewBox="0 0 16 11" fill="none">
  <path
    d="M15.9678 8.42906L14.4848 1.36262C14.3182 0.568469 13.6176 0 12.8065 0H11.3697C10.8866 0 10.4948 0.391813 10.4948 0.874969C10.4948 1.35809 10.1029 1.74994 9.61981 1.74994H8.71531H7.28462H6.38037C5.89697 1.74994 5.50515 1.35812 5.50515 0.874969V0.649531C5.50515 0.166125 5.11359 0 4.63019 0H3.19347C2.38228 0 1.68172 0.568469 1.51509 1.36262L0.0320285 8.42906C-0.053284 8.83637 0.0335286 9.26075 0.272216 9.60156C0.510904 9.94231 0.880216 10.1693 1.29206 10.2281L2.15053 10.3509C2.75981 10.4377 3.36056 10.145 3.66781 9.61181L5.20209 6.94634C5.38947 6.62106 5.73678 6.42041 6.11209 6.42041H9.88778C10.2633 6.42041 10.6101 6.62106 10.7975 6.94634L12.3323 9.61181C12.6393 10.145 13.2401 10.4377 13.8494 10.3509L14.7081 10.2281C15.1199 10.1693 15.489 9.94231 15.7277 9.60156C15.9664 9.26075 16.0534 8.83641 15.9678 8.42906ZM5.38175 4.42447H4.29106V5.51491H3.42659V4.42447H2.33597V3.56H3.42662V2.46956H4.29109V3.56H5.38178L5.38175 4.42447ZM12.2385 2.14031C12.6021 2.14031 12.8968 2.43506 12.8968 2.79888C12.8968 3.16241 12.6021 3.45716 12.2385 3.45716C11.8744 3.45716 11.5797 3.16241 11.5797 2.79888C11.5797 2.43506 11.8744 2.14031 12.2385 2.14031ZM10.9212 4.7745C10.5576 4.7745 10.2626 4.47953 10.2626 4.11569C10.2626 3.75212 10.5576 3.45712 10.9212 3.45712C11.285 3.45712 11.5797 3.75212 11.5797 4.11569C11.5797 4.47953 11.2849 4.7745 10.9212 4.7745ZM12.2385 6.09137C11.8744 6.09137 11.5797 5.79638 11.5797 5.43281C11.5797 5.06925 11.8744 4.7745 12.2385 4.7745C12.6021 4.7745 12.8968 5.06925 12.8968 5.43281C12.8968 5.79638 12.6021 6.09137 12.2385 6.09137ZM13.5551 4.7745C13.1916 4.7745 12.8968 4.47953 12.8968 4.11569C12.8968 3.75212 13.1916 3.45712 13.5551 3.45712C13.9189 3.45712 14.2139 3.75212 14.2139 4.11569C14.2139 4.47953 13.9189 4.7745 13.5551 4.7745Z"
    fill="#0D91EC"
  />
</svg>
