<svg width="120" height="120" viewBox="0 0 120 120" fill="none" xmlns="http://www.w3.org/2000/svg">
<path d="M18.1056 65.915L56.6887 101.935C58.0178 103.175 58.6821 103.796 59.4657 103.948C59.8186 104.017 60.1815 104.017 60.5345 103.948C61.3181 103.796 61.9823 103.175 63.3114 101.935L101.894 65.915C112.75 55.7807 114.068 39.1035 104.938 27.4089L103.222 25.2099C92.2994 11.2198 70.3753 13.566 62.701 29.5464C61.6166 31.8037 58.3835 31.8037 57.2992 29.5464C49.6249 13.566 27.7009 11.2198 16.7786 25.21L15.0619 27.4089C5.93175 39.1035 7.25002 55.7807 18.1056 65.915Z" fill="#C5CCD0"/>
</svg>
