<svg width="120" height="120" viewBox="0 0 120 120" fill="none" xmlns="http://www.w3.org/2000/svg">
<path d="M60 15C35.1472 15 15 35.1472 15 60V95.0465C15 103.704 25.2544 108.271 31.6897 102.479L34.9341 99.5595C37.9903 96.809 42.4184 96.209 46.0959 98.048L55.528 102.764C58.343 104.171 61.657 104.171 64.472 102.764L73.904 98.048C77.5815 96.209 82.01 96.809 85.066 99.5595L88.3105 102.479C94.7455 108.271 105 103.704 105 95.0465V60C105 35.1472 84.853 15 60 15Z" fill="#C5CCD0"/>
<circle cx="43.5" cy="47" r="4" fill="#031D2F"/>
<circle cx="75.5" cy="47" r="4" fill="#031D2F"/>
</svg>
