<svg width="20" height="20" viewBox="0 0 20 20" fill="none" xmlns="http://www.w3.org/2000/svg">
<path d="M1.66602 2.5L1.88677 2.57358C2.98681 2.94027 3.53682 3.1236 3.85142 3.56008C4.16602 3.99656 4.16602 4.57632 4.16602 5.73587V7.91667C4.16602 10.2737 4.16602 11.4522 4.89825 12.1844C5.63048 12.9167 6.80899 12.9167 9.16602 12.9167H14.5827" stroke="white" stroke-width="2" stroke-linecap="round"/>
<path d="M6.24935 15C7.39995 15 8.33268 15.9328 8.33268 17.0833C8.33268 18.2339 7.39995 19.1667 6.24935 19.1667C5.09875 19.1667 4.16602 18.2339 4.16602 17.0833C4.16602 15.9328 5.09875 15 6.24935 15Z" fill="white"/>
<path d="M13.7493 15C14.8999 15 15.8327 15.9326 15.8327 17.0833C15.8327 18.2339 14.8999 19.1667 13.7493 19.1667C12.5988 19.1667 11.666 18.2339 11.666 17.0833C11.666 15.9326 12.5988 15 13.7493 15Z" fill="white"/>
<path d="M4.16602 5H13.708C15.4205 5 16.2767 5 16.6473 5.56188C17.0178 6.12378 15.2573 11.3426 14.5827 12.9167" stroke="white" stroke-width="2"/>
</svg>
