<svg width="327" height="152" viewBox="0 0 327 152" fill="none" xmlns="http://www.w3.org/2000/svg">
<path d="M0 8C0 3.58172 3.58172 0 8 0H319C323.418 0 327 3.58172 327 8V144C327 148.418 323.418 152 319 152H8C3.58173 152 0 148.418 0 144V8Z" fill="#212D34"/>
<path d="M180.667 65.9998C180.667 64.2937 180.016 62.5877 178.714 61.286C177.412 59.9842 175.706 59.3333 174 59.3333M174 86C185.046 86 194 77.0457 194 66C194 54.9543 185.046 46 174 46C162.954 46 154 54.9543 154 66C154 66.9123 154.061 67.8103 154.179 68.6901C154.374 70.1373 154.471 70.861 154.406 71.3187C154.338 71.7957 154.251 72.0523 154.016 72.473C153.79 72.8767 153.392 73.2743 152.597 74.0697L135.562 91.1047C134.986 91.681 134.697 91.9693 134.491 92.3057C134.308 92.604 134.174 92.929 134.092 93.2693C134 93.653 134 94.0607 134 94.8757V100.667C134 102.534 134 103.467 134.363 104.18C134.683 104.807 135.193 105.317 135.82 105.637C136.533 106 137.466 106 139.333 106H147.333V99.3333H154V92.6667H160.667L165.93 87.403C166.726 86.6077 167.123 86.21 167.527 85.9843C167.948 85.7493 168.204 85.6623 168.681 85.5943C169.139 85.5287 169.863 85.626 171.31 85.8207C172.19 85.939 173.088 86 174 86Z" stroke="#0D91EC" stroke-width="4" stroke-linecap="round" stroke-linejoin="round"/>
</svg>
