<svg width="41" height="41" viewBox="0 0 41 41" fill="none" xmlns="http://www.w3.org/2000/svg">
<rect width="41" height="41" rx="4" fill="#243038"/>
<path d="M26 17.9999C26 17.4881 25.8047 16.9763 25.4142 16.5858C25.0237 16.1953 24.5118 16 24 16M24 24C27.3137 24 30 21.3137 30 18C30 14.6863 27.3137 12 24 12C20.6863 12 18 14.6863 18 18C18 18.2737 18.0183 18.5431 18.0538 18.807C18.1122 19.2412 18.1414 19.4583 18.1217 19.5956C18.1013 19.7387 18.0752 19.8157 18.0047 19.9419C17.937 20.063 17.8177 20.1823 17.5791 20.4209L12.4686 25.5314C12.2957 25.7043 12.2092 25.7908 12.1474 25.8917C12.0925 25.9812 12.0521 26.0787 12.0276 26.1808C12 26.2959 12 26.4182 12 26.6627V28.4C12 28.9601 12 29.2401 12.109 29.454C12.2049 29.6422 12.3579 29.7951 12.546 29.891C12.7599 30 13.0399 30 13.6 30H16V28H18V26H20L21.5791 24.4209C21.8177 24.1823 21.937 24.063 22.0581 23.9953C22.1843 23.9248 22.2613 23.8987 22.4044 23.8783C22.5417 23.8586 22.7588 23.8878 23.193 23.9462C23.4569 23.9817 23.7263 24 24 24Z" stroke="#0D91EC" stroke-width="2" stroke-linecap="round" stroke-linejoin="round"/>
</svg>
