<svg xmlns="http://www.w3.org/2000/svg" width="28" height="28" viewBox="0 0 28 28" fill="none">
  <g filter="url(#filter0_d_7867_7976)">
    <path d="M14 2C15.3132 2 16.6136 2.25866 17.8268 2.7612C19.0401 3.26375 20.1425 4.00035 21.0711 4.92893C21.9997 5.85752 22.7362 6.95991 23.2388 8.17317C23.7413 9.38642 24 10.6868 24 12C24 14.6522 22.9464 17.1957 21.0711 19.0711C19.1957 20.9464 16.6522 22 14 22C9.4 22 5.55 18.92 4.36 14.73L8.19 16.31C8.45 17.6 9.6 18.58 10.97 18.58C12.53 18.58 13.8 17.31 13.8 15.75V15.62L17.2 13.19H17.28C19.36 13.19 21.05 11.5 21.05 9.42C21.05 7.34 19.36 5.65 17.28 5.65C15.2 5.65 13.5 7.34 13.5 9.42V9.47L11.13 12.93L10.97 12.92C10.38 12.92 9.83 13.1 9.38 13.41L4 11.2C4.43 6.05 8.73 2 14 2ZM10.28 17.17C11.08 17.5 12 17.13 12.33 16.33C12.66 15.53 12.28 14.62 11.5 14.29L10.22 13.76C10.71 13.58 11.26 13.57 11.78 13.79C12.31 14 12.72 14.41 12.93 14.94C13.15 15.46 13.15 16.04 12.93 16.56C12.5 17.64 11.23 18.16 10.15 17.71C9.65 17.5 9.27 17.12 9.06 16.67L10.28 17.17ZM19.8 9.42C19.8 10.81 18.67 11.94 17.28 11.94C15.9 11.94 14.77 10.81 14.77 9.42C14.7687 9.09001 14.8327 8.76303 14.9584 8.4579C15.084 8.15278 15.2689 7.87555 15.5022 7.64221C15.7356 7.40887 16.0128 7.22404 16.3179 7.09837C16.623 6.9727 16.95 6.90868 17.28 6.91C18.67 6.91 19.8 8.04 19.8 9.42ZM15.4 9.42C15.4 10.46 16.24 11.31 17.29 11.31C18.33 11.31 19.17 10.46 19.17 9.42C19.17 8.38 18.33 7.53 17.29 7.53C16.24 7.53 15.4 8.38 15.4 9.42Z" fill="white"/>
  </g>
  <defs>
    <filter id="filter0_d_7867_7976" x="0" y="0" width="28" height="28" filterUnits="userSpaceOnUse" color-interpolation-filters="sRGB">
      <feFlood flood-opacity="0" result="BackgroundImageFix"/>
      <feColorMatrix in="SourceAlpha" type="matrix" values="0 0 0 0 0 0 0 0 0 0 0 0 0 0 0 0 0 0 127 0" result="hardAlpha"/>
      <feOffset dy="2"/>
      <feGaussianBlur stdDeviation="2"/>
      <feComposite in2="hardAlpha" operator="out"/>
      <feColorMatrix type="matrix" values="0 0 0 0 0 0 0 0 0 0 0 0 0 0 0 0 0 0 0.24 0"/>
      <feBlend mode="normal" in2="BackgroundImageFix" result="effect1_dropShadow_7867_7976"/>
      <feBlend mode="normal" in="SourceGraphic" in2="effect1_dropShadow_7867_7976" result="shape"/>
    </filter>
  </defs>
</svg>
