<svg width="24" height="24" viewBox="0 0 24 24" fill="none" xmlns="http://www.w3.org/2000/svg">
<path d="M5.55289 9.68579C4.27641 9.68579 3.23828 10.7239 3.23828 12.0001C3.23828 13.2765 4.27641 14.3144 5.55289 14.3144C6.8286 14.3144 7.8672 13.2766 7.8672 12.0001C7.8672 10.7239 6.8286 9.68579 5.55289 9.68579Z" fill="#E2E5E8"/>
<path d="M12.1154 9.68579C10.8391 9.68579 9.80078 10.7239 9.80078 12.0001C9.80078 13.2765 10.8391 14.3144 12.1154 14.3144C13.3916 14.3144 14.4301 13.2766 14.4301 12.0001C14.4301 10.7239 13.3916 9.68579 12.1154 9.68579Z" fill="#E2E5E8"/>
<path d="M18.4473 9.68579C17.1713 9.68579 16.1328 10.7239 16.1328 12.0001C16.1328 13.2765 17.1713 14.3144 18.4473 14.3144C19.723 14.3144 20.7615 13.2766 20.7615 12.0001C20.7615 10.7239 19.723 9.68579 18.4473 9.68579Z" fill="#E2E5E8"/>
</svg>
