<svg
  class="flex-shrink-0"
  xmlns="http://www.w3.org/2000/svg"
  width="24"
  height="24"
  viewBox="0 0 24 24"
  fill="none"
>
  <path
    d="M12 9V13"
    stroke="#f9571d"
    stroke-width="2"
    stroke-linecap="round"
    stroke-linejoin="round"
  />
  <path
    d="M12.0492 17H11.9492"
    stroke="#f9571d"
    stroke-width="2"
    stroke-linecap="round"
    stroke-linejoin="round"
  />
  <path
    d="M10.2493 4.18996L2.62932 18C2.45301 18.3053 2.36055 18.6519 2.36133 19.0045C2.36211 19.3571 2.4561 19.7032 2.63377 20.0078C2.81144 20.3124 3.06647 20.5645 3.37302 20.7388C3.67957 20.913 4.02673 21.0031 4.37932 21H19.6193C19.9719 21.0031 20.3191 20.913 20.6256 20.7388C20.9322 20.5645 21.1872 20.3124 21.3649 20.0078C21.5425 19.7032 21.6365 19.3571 21.6373 19.0045C21.6381 18.6519 21.5456 18.3053 21.3693 18L13.7493 4.18996C13.5764 3.87735 13.3228 3.61679 13.0151 3.43534C12.7073 3.2539 12.3566 3.1582 11.9993 3.1582C11.6421 3.1582 11.2913 3.2539 10.9836 3.43534C10.6758 3.61679 10.4223 3.87735 10.2493 4.18996Z"
    stroke="#f9571d"
    stroke-width="2"
    stroke-linecap="round"
    stroke-linejoin="round"
  />
</svg>
