<svg width="207" height="48" viewBox="0 4 207 48" fill="none" xmlns="http://www.w3.org/2000/svg">
<rect y="4.01392" width="284.2" height="48" rx="8" fill="#182330"/>
<path d="M10.4258 15.9827V24.5139H8.81445V15.9827H10.4258ZM13.8652 19.6682V20.9397H10.0039V19.6682H13.8652ZM14.3164 15.9827V17.2542H10.0039V15.9827H14.3164ZM22.2676 15.9827V24.5139H20.6504L17.0234 18.5959V24.5139H15.4121V15.9827H17.0234L20.6621 21.9065V15.9827H22.2676Z" fill="#3DC67D"/>
<path d="M12.3008 29.6233V31.3635H11.3926V29.6233H12.3008ZM12.1895 39.1917V40.762H11.2871V39.1917H12.1895ZM12.9512 37.2815C12.9512 37.0588 12.9082 36.8655 12.8223 36.7014C12.7402 36.5374 12.6016 36.3909 12.4062 36.262C12.2148 36.1331 11.957 36.01 11.6328 35.8928C11.1289 35.7092 10.6875 35.5081 10.3086 35.2893C9.92969 35.0667 9.63477 34.7913 9.42383 34.4631C9.2168 34.135 9.11328 33.7209 9.11328 33.2209C9.11328 32.7405 9.22461 32.3245 9.44727 31.9729C9.67383 31.6174 9.98828 31.344 10.3906 31.1526C10.793 30.9573 11.2598 30.8596 11.791 30.8596C12.2051 30.8596 12.5762 30.9221 12.9043 31.0471C13.2363 31.1682 13.5195 31.3459 13.7539 31.5803C13.9922 31.8147 14.1738 32.1038 14.2988 32.4475C14.4277 32.7874 14.4922 33.176 14.4922 33.6135H12.9453C12.9453 33.3713 12.918 33.1565 12.8633 32.969C12.8086 32.7815 12.7305 32.6233 12.6289 32.4944C12.5273 32.3616 12.4043 32.262 12.2598 32.1956C12.1191 32.1292 11.959 32.0959 11.7793 32.0959C11.5215 32.0959 11.3086 32.1448 11.1406 32.2424C10.9766 32.3401 10.8555 32.4729 10.7773 32.6409C10.7031 32.8088 10.666 33.0022 10.666 33.2209C10.666 33.4319 10.7051 33.6174 10.7832 33.7776C10.8652 33.9338 11.002 34.0764 11.1934 34.2053C11.3887 34.3342 11.6562 34.4651 11.9961 34.5979C12.5039 34.7854 12.9453 34.9924 13.3203 35.219C13.6953 35.4417 13.9863 35.7151 14.1934 36.0393C14.4004 36.3635 14.5039 36.7737 14.5039 37.2698C14.5039 37.7776 14.3867 38.2073 14.1523 38.5588C13.9219 38.9104 13.5977 39.178 13.1797 39.3616C12.7617 39.5452 12.2754 39.637 11.7207 39.637C11.3652 39.637 11.0137 39.5901 10.666 39.4963C10.3184 39.4026 10.002 39.2502 9.7168 39.0393C9.43555 38.8245 9.21094 38.5413 9.04297 38.1897C8.875 37.8342 8.79102 37.3987 8.79102 36.8831H10.3438C10.3438 37.1799 10.3828 37.426 10.4609 37.6213C10.5391 37.8167 10.6445 37.9729 10.7773 38.0901C10.9102 38.2034 11.0586 38.2834 11.2227 38.3303C11.3867 38.3772 11.5527 38.4006 11.7207 38.4006C11.9941 38.4006 12.2207 38.3538 12.4004 38.26C12.584 38.1663 12.7207 38.0354 12.8105 37.8674C12.9043 37.6956 12.9512 37.5002 12.9512 37.2815ZM21.4766 38.2952V39.5139H15.6992V38.4709L18.4707 35.4768C18.7598 35.1487 18.9883 34.8635 19.1562 34.6213C19.3242 34.3792 19.4434 34.1604 19.5137 33.9651C19.5879 33.7659 19.625 33.5764 19.625 33.3967C19.625 33.135 19.5781 32.9065 19.4844 32.7112C19.3906 32.512 19.2539 32.3577 19.0742 32.2483C18.8984 32.1389 18.6816 32.0842 18.4238 32.0842C18.1387 32.0842 17.8945 32.1506 17.6914 32.2834C17.4922 32.4124 17.3398 32.592 17.2344 32.8225C17.1328 33.053 17.082 33.3167 17.082 33.6135H15.5293C15.5293 33.1096 15.6465 32.6506 15.8809 32.2366C16.1152 31.8186 16.4512 31.4846 16.8887 31.2346C17.3262 30.9846 17.8457 30.8596 18.4473 30.8596C19.0332 30.8596 19.5293 30.9573 19.9355 31.1526C20.3418 31.344 20.6504 31.6174 20.8613 31.9729C21.0723 32.3284 21.1777 32.7522 21.1777 33.2444C21.1777 33.5178 21.1328 33.7874 21.043 34.053C20.9531 34.3186 20.8262 34.5823 20.6621 34.844C20.502 35.1018 20.3105 35.3635 20.0879 35.6292C19.8652 35.8948 19.6172 36.1663 19.3438 36.4436L17.6797 38.2952H21.4766ZM28.2148 37.1819C28.2148 37.7131 28.0898 38.1624 27.8398 38.5295C27.5938 38.8928 27.2559 39.1682 26.8262 39.3557C26.4004 39.5393 25.916 39.6311 25.373 39.6311C24.834 39.6311 24.3477 39.5393 23.9141 39.3557C23.4844 39.1682 23.1426 38.8928 22.8887 38.5295C22.6387 38.1624 22.5137 37.7131 22.5137 37.1819C22.5137 36.8264 22.584 36.5042 22.7246 36.2151C22.8691 35.926 23.0684 35.678 23.3223 35.4709C23.5762 35.26 23.877 35.0999 24.2246 34.9905C24.5723 34.8772 24.9512 34.8206 25.3613 34.8206C25.9082 34.8206 26.3965 34.9202 26.8262 35.1194C27.2598 35.3147 27.5996 35.5901 27.8457 35.9456C28.0918 36.2971 28.2148 36.7092 28.2148 37.1819ZM26.6562 37.0881C26.6562 36.8147 26.6016 36.5784 26.4922 36.3792C26.3867 36.176 26.2363 36.0198 26.041 35.9104C25.8457 35.801 25.6191 35.7463 25.3613 35.7463C25.0996 35.7463 24.8711 35.801 24.6758 35.9104C24.4844 36.0198 24.334 36.176 24.2246 36.3792C24.1191 36.5784 24.0664 36.8147 24.0664 37.0881C24.0664 37.3655 24.1191 37.6038 24.2246 37.803C24.334 37.9983 24.4863 38.1487 24.6816 38.2542C24.877 38.3596 25.1074 38.4124 25.373 38.4124C25.6387 38.4124 25.8672 38.3596 26.0586 38.2542C26.25 38.1487 26.3965 37.9983 26.498 37.803C26.6035 37.6038 26.6562 37.3655 26.6562 37.0881ZM28.0273 33.2327C28.0273 33.6624 27.9141 34.0452 27.6875 34.3811C27.4609 34.7131 27.1465 34.9729 26.7441 35.1604C26.3457 35.3479 25.8887 35.4417 25.373 35.4417C24.8574 35.4417 24.3965 35.3479 23.9902 35.1604C23.5879 34.9729 23.2715 34.7131 23.041 34.3811C22.8145 34.0452 22.7012 33.6624 22.7012 33.2327C22.7012 32.7249 22.8164 32.2952 23.0469 31.9436C23.2773 31.5881 23.5918 31.3186 23.9902 31.135C24.3926 30.9514 24.8496 30.8596 25.3613 30.8596C25.8809 30.8596 26.3418 30.9514 26.7441 31.135C27.1465 31.3186 27.4609 31.5881 27.6875 31.9436C27.9141 32.2952 28.0273 32.7249 28.0273 33.2327ZM26.4805 33.2971C26.4805 33.0549 26.4355 32.844 26.3457 32.6643C26.2559 32.4807 26.127 32.3381 25.959 32.2366C25.7949 32.135 25.5957 32.0842 25.3613 32.0842C25.1348 32.0842 24.9395 32.1331 24.7754 32.2307C24.6113 32.3284 24.4844 32.469 24.3945 32.6526C24.3047 32.8323 24.2598 33.0471 24.2598 33.2971C24.2598 33.5432 24.3047 33.7581 24.3945 33.9417C24.4844 34.1252 24.6113 34.2698 24.7754 34.3752C24.9434 34.4768 25.1426 34.5276 25.373 34.5276C25.6035 34.5276 25.8008 34.4768 25.9648 34.3752C26.1289 34.2698 26.2559 34.1252 26.3457 33.9417C26.4355 33.7581 26.4805 33.5432 26.4805 33.2971ZM33.3945 30.9592V39.5139H31.8418V32.7698L29.7852 33.4495V32.1956L33.2188 30.9592H33.3945ZM36.4121 38.7581C36.4121 38.5237 36.4922 38.3264 36.6523 38.1663C36.8125 38.0061 37.0293 37.926 37.3027 37.926C37.5762 37.926 37.793 38.0061 37.9531 38.1663C38.1133 38.3264 38.1934 38.5237 38.1934 38.7581C38.1934 38.9885 38.1133 39.1838 37.9531 39.344C37.793 39.5002 37.5762 39.5784 37.3027 39.5784C37.0293 39.5784 36.8125 39.5002 36.6523 39.344C36.4922 39.1838 36.4121 38.9885 36.4121 38.7581ZM41.3691 34.5627H42.2422C42.5508 34.5627 42.8047 34.51 43.0039 34.4045C43.207 34.2952 43.3574 34.1467 43.4551 33.9592C43.5566 33.7678 43.6074 33.5471 43.6074 33.2971C43.6074 33.051 43.5625 32.8381 43.4727 32.6584C43.3828 32.4749 43.2461 32.3342 43.0625 32.2366C42.8828 32.135 42.6523 32.0842 42.3711 32.0842C42.1445 32.0842 41.9355 32.1292 41.7441 32.219C41.5566 32.3088 41.4062 32.4377 41.293 32.6057C41.1836 32.7698 41.1289 32.967 41.1289 33.1975H39.5762C39.5762 32.7366 39.6973 32.3323 39.9395 31.9846C40.1855 31.6331 40.5176 31.3577 40.9355 31.1584C41.3535 30.9592 41.8203 30.8596 42.3359 30.8596C42.8984 30.8596 43.3906 30.9534 43.8125 31.1409C44.2383 31.3245 44.5684 31.5959 44.8027 31.9553C45.041 32.3147 45.1602 32.76 45.1602 33.2913C45.1602 33.5452 45.0996 33.7991 44.9785 34.053C44.8613 34.303 44.6875 34.5295 44.457 34.7327C44.2305 34.9319 43.9512 35.094 43.6191 35.219C43.291 35.3401 42.9141 35.4006 42.4883 35.4006H41.3691V34.5627ZM41.3691 35.7581V34.9319H42.4883C42.9688 34.9319 43.3848 34.9885 43.7363 35.1018C44.0918 35.2112 44.3848 35.3674 44.6152 35.5706C44.8457 35.7698 45.0156 36.0022 45.125 36.2678C45.2383 36.5334 45.2949 36.8186 45.2949 37.1233C45.2949 37.5217 45.2207 37.8772 45.0723 38.1897C44.9238 38.4983 44.7148 38.76 44.4453 38.9749C44.1797 39.1897 43.8672 39.3538 43.5078 39.467C43.1484 39.5764 42.7598 39.6311 42.3418 39.6311C41.9785 39.6311 41.625 39.5823 41.2812 39.4846C40.9414 39.3831 40.6348 39.2327 40.3613 39.0334C40.0879 38.8303 39.8711 38.5764 39.7109 38.2717C39.5508 37.9631 39.4707 37.6057 39.4707 37.1995H41.0234C41.0234 37.4338 41.0801 37.6428 41.1934 37.8264C41.3105 38.01 41.4707 38.1545 41.6738 38.26C41.8809 38.3616 42.1133 38.4124 42.3711 38.4124C42.6562 38.4124 42.9004 38.3616 43.1035 38.26C43.3105 38.1545 43.4688 38.0061 43.5781 37.8147C43.6875 37.6194 43.7422 37.387 43.7422 37.1174C43.7422 36.7971 43.6816 36.5374 43.5605 36.3381C43.4395 36.1389 43.2656 35.9924 43.0391 35.8987C42.8164 35.8049 42.5508 35.7581 42.2422 35.7581H41.3691ZM52.3086 38.2952V39.5139H46.5312V38.4709L49.3027 35.4768C49.5918 35.1487 49.8203 34.8635 49.9883 34.6213C50.1562 34.3792 50.2754 34.1604 50.3457 33.9651C50.4199 33.7659 50.457 33.5764 50.457 33.3967C50.457 33.135 50.4102 32.9065 50.3164 32.7112C50.2227 32.512 50.0859 32.3577 49.9062 32.2483C49.7305 32.1389 49.5137 32.0842 49.2559 32.0842C48.9707 32.0842 48.7266 32.1506 48.5234 32.2834C48.3242 32.4124 48.1719 32.592 48.0664 32.8225C47.9648 33.053 47.9141 33.3167 47.9141 33.6135H46.3613C46.3613 33.1096 46.4785 32.6506 46.7129 32.2366C46.9473 31.8186 47.2832 31.4846 47.7207 31.2346C48.1582 30.9846 48.6777 30.8596 49.2793 30.8596C49.8652 30.8596 50.3613 30.9573 50.7676 31.1526C51.1738 31.344 51.4824 31.6174 51.6934 31.9729C51.9043 32.3284 52.0098 32.7522 52.0098 33.2444C52.0098 33.5178 51.9648 33.7874 51.875 34.053C51.7852 34.3186 51.6582 34.5823 51.4941 34.844C51.334 35.1018 51.1426 35.3635 50.9199 35.6292C50.6973 35.8948 50.4492 36.1663 50.1758 36.4436L48.5117 38.2952H52.3086Z" fill="#8B9097"/>
<g filter="url(#filter0_d_1704_15807)">
<rect x="44.2002" y="4.01392" width="284.2" height="48" rx="8" fill="#182330" shape-rendering="crispEdges"/>
<path d="M53.7178 15.9827H55.1123L57.4443 22.4045L59.7705 15.9827H61.1709L58.001 24.5139H56.8818L53.7178 15.9827ZM53.0146 15.9827H54.3799L54.626 21.8831V24.5139H53.0146V15.9827ZM60.5029 15.9827H61.874V24.5139H60.2627V21.8831L60.5029 15.9827ZM65.6123 22.8792L67.3115 15.9827H68.2314L68.29 17.4358L66.4736 24.5139H65.501L65.6123 22.8792ZM64.54 15.9827L65.9346 22.8557V24.5139H64.874L62.9404 15.9827H64.54ZM70.0537 22.8264L71.4248 15.9827H73.0303L71.0967 24.5139H70.0361L70.0537 22.8264ZM68.6709 15.9827L70.3701 22.9026L70.4697 24.5139H69.4971L67.6865 17.4299L67.7568 15.9827H68.6709Z" fill="#8BDDB1"/>
<path d="M56.501 29.6233V31.3635H55.5928V29.6233H56.501ZM56.3896 39.1917V40.762H55.4873V39.1917H56.3896ZM57.1514 37.2815C57.1514 37.0588 57.1084 36.8655 57.0225 36.7014C56.9404 36.5374 56.8018 36.3909 56.6064 36.262C56.415 36.1331 56.1572 36.01 55.833 35.8928C55.3291 35.7092 54.8877 35.5081 54.5088 35.2893C54.1299 35.0667 53.835 34.7913 53.624 34.4631C53.417 34.135 53.3135 33.7209 53.3135 33.2209C53.3135 32.7405 53.4248 32.3245 53.6475 31.9729C53.874 31.6174 54.1885 31.344 54.5908 31.1526C54.9932 30.9573 55.46 30.8596 55.9912 30.8596C56.4053 30.8596 56.7764 30.9221 57.1045 31.0471C57.4365 31.1682 57.7197 31.3459 57.9541 31.5803C58.1924 31.8147 58.374 32.1038 58.499 32.4475C58.6279 32.7874 58.6924 33.176 58.6924 33.6135H57.1455C57.1455 33.3713 57.1182 33.1565 57.0635 32.969C57.0088 32.7815 56.9307 32.6233 56.8291 32.4944C56.7275 32.3616 56.6045 32.262 56.46 32.1956C56.3193 32.1292 56.1592 32.0959 55.9795 32.0959C55.7217 32.0959 55.5088 32.1448 55.3408 32.2424C55.1768 32.3401 55.0557 32.4729 54.9775 32.6409C54.9033 32.8088 54.8662 33.0022 54.8662 33.2209C54.8662 33.4319 54.9053 33.6174 54.9834 33.7776C55.0654 33.9338 55.2021 34.0764 55.3936 34.2053C55.5889 34.3342 55.8564 34.4651 56.1963 34.5979C56.7041 34.7854 57.1455 34.9924 57.5205 35.219C57.8955 35.4417 58.1865 35.7151 58.3936 36.0393C58.6006 36.3635 58.7041 36.7737 58.7041 37.2698C58.7041 37.7776 58.5869 38.2073 58.3525 38.5588C58.1221 38.9104 57.7979 39.178 57.3799 39.3616C56.9619 39.5452 56.4756 39.637 55.9209 39.637C55.5654 39.637 55.2139 39.5901 54.8662 39.4963C54.5186 39.4026 54.2021 39.2502 53.917 39.0393C53.6357 38.8245 53.4111 38.5413 53.2432 38.1897C53.0752 37.8342 52.9912 37.3987 52.9912 36.8831H54.5439C54.5439 37.1799 54.583 37.426 54.6611 37.6213C54.7393 37.8167 54.8447 37.9729 54.9775 38.0901C55.1104 38.2034 55.2588 38.2834 55.4229 38.3303C55.5869 38.3772 55.7529 38.4006 55.9209 38.4006C56.1943 38.4006 56.4209 38.3538 56.6006 38.26C56.7842 38.1663 56.9209 38.0354 57.0107 37.8674C57.1045 37.6956 57.1514 37.5002 57.1514 37.2815ZM65.6768 38.2952V39.5139H59.8994V38.4709L62.6709 35.4768C62.96 35.1487 63.1885 34.8635 63.3564 34.6213C63.5244 34.3792 63.6436 34.1604 63.7139 33.9651C63.7881 33.7659 63.8252 33.5764 63.8252 33.3967C63.8252 33.135 63.7783 32.9065 63.6846 32.7112C63.5908 32.512 63.4541 32.3577 63.2744 32.2483C63.0986 32.1389 62.8818 32.0842 62.624 32.0842C62.3389 32.0842 62.0947 32.1506 61.8916 32.2834C61.6924 32.4124 61.54 32.592 61.4346 32.8225C61.333 33.053 61.2822 33.3167 61.2822 33.6135H59.7295C59.7295 33.1096 59.8467 32.6506 60.0811 32.2366C60.3154 31.8186 60.6514 31.4846 61.0889 31.2346C61.5264 30.9846 62.0459 30.8596 62.6475 30.8596C63.2334 30.8596 63.7295 30.9573 64.1357 31.1526C64.542 31.344 64.8506 31.6174 65.0615 31.9729C65.2725 32.3284 65.3779 32.7522 65.3779 33.2444C65.3779 33.5178 65.333 33.7874 65.2432 34.053C65.1533 34.3186 65.0264 34.5823 64.8623 34.844C64.7021 35.1018 64.5107 35.3635 64.2881 35.6292C64.0654 35.8948 63.8174 36.1663 63.5439 36.4436L61.8799 38.2952H65.6768ZM67.9209 38.3127H68.0322C68.5361 38.3127 68.9619 38.2483 69.3096 38.1194C69.6611 37.9905 69.9443 37.8088 70.1592 37.5745C70.3779 37.3362 70.5361 37.053 70.6338 36.7249C70.7354 36.3928 70.7861 36.0256 70.7861 35.6233V34.0764C70.7861 33.7483 70.7529 33.4612 70.6865 33.2151C70.6201 32.9651 70.5264 32.7561 70.4053 32.5881C70.2881 32.4202 70.1494 32.2952 69.9893 32.2131C69.8291 32.1272 69.6572 32.0842 69.4736 32.0842C69.2705 32.0842 69.0908 32.1311 68.9346 32.2249C68.7783 32.3186 68.6455 32.4475 68.5361 32.6116C68.4307 32.7717 68.3486 32.9573 68.29 33.1682C68.2354 33.3792 68.208 33.6018 68.208 33.8362C68.208 34.0627 68.2334 34.2795 68.2842 34.4866C68.3389 34.6936 68.4189 34.8772 68.5244 35.0374C68.6338 35.1975 68.7705 35.3245 68.9346 35.4182C69.0986 35.5081 69.29 35.553 69.5088 35.553C69.7158 35.553 69.9033 35.5139 70.0713 35.4358C70.2432 35.3538 70.3916 35.2463 70.5166 35.1135C70.6416 34.9768 70.7373 34.8264 70.8037 34.6624C70.874 34.4944 70.9131 34.3245 70.9209 34.1526L71.4658 34.387C71.4658 34.6721 71.4053 34.9534 71.2842 35.2307C71.167 35.5081 71.001 35.76 70.7861 35.9866C70.5752 36.2092 70.3291 36.3889 70.0479 36.5256C69.7666 36.6584 69.4639 36.7249 69.1396 36.7249C68.7373 36.7249 68.3818 36.6506 68.0732 36.5022C67.7646 36.3538 67.5049 36.1487 67.2939 35.887C67.0869 35.6213 66.9307 35.3167 66.8252 34.9729C66.7197 34.6252 66.667 34.2542 66.667 33.8596C66.667 33.4495 66.7314 33.0647 66.8604 32.7053C66.9893 32.342 67.1748 32.0237 67.417 31.7502C67.6631 31.4729 67.96 31.2561 68.3076 31.0999C68.6553 30.9397 69.0459 30.8596 69.4795 30.8596C69.9287 30.8596 70.3291 30.9475 70.6807 31.1233C71.0322 31.2991 71.3311 31.5432 71.5771 31.8557C71.8232 32.1643 72.0107 32.5295 72.1396 32.9514C72.2725 33.3733 72.3389 33.8342 72.3389 34.3342V34.8792C72.3389 35.4065 72.2861 35.9065 72.1807 36.3792C72.0752 36.8518 71.9131 37.2834 71.6943 37.6741C71.4756 38.0647 71.1963 38.4026 70.8564 38.6877C70.5205 38.9729 70.1182 39.1936 69.6494 39.3499C69.1846 39.5022 68.6533 39.5784 68.0557 39.5784H67.9209V38.3127ZM79.3877 38.2952V39.5139H73.6104V38.4709L76.3818 35.4768C76.6709 35.1487 76.8994 34.8635 77.0674 34.6213C77.2354 34.3792 77.3545 34.1604 77.4248 33.9651C77.499 33.7659 77.5361 33.5764 77.5361 33.3967C77.5361 33.135 77.4893 32.9065 77.3955 32.7112C77.3018 32.512 77.165 32.3577 76.9854 32.2483C76.8096 32.1389 76.5928 32.0842 76.335 32.0842C76.0498 32.0842 75.8057 32.1506 75.6025 32.2834C75.4033 32.4124 75.251 32.592 75.1455 32.8225C75.0439 33.053 74.9932 33.3167 74.9932 33.6135H73.4404C73.4404 33.1096 73.5576 32.6506 73.792 32.2366C74.0264 31.8186 74.3623 31.4846 74.7998 31.2346C75.2373 30.9846 75.7568 30.8596 76.3584 30.8596C76.9443 30.8596 77.4404 30.9573 77.8467 31.1526C78.2529 31.344 78.5615 31.6174 78.7725 31.9729C78.9834 32.3284 79.0889 32.7522 79.0889 33.2444C79.0889 33.5178 79.0439 33.7874 78.9541 34.053C78.8643 34.3186 78.7373 34.5823 78.5732 34.844C78.4131 35.1018 78.2217 35.3635 77.999 35.6292C77.7764 35.8948 77.5283 36.1663 77.2549 36.4436L75.5908 38.2952H79.3877ZM80.6123 38.7581C80.6123 38.5237 80.6924 38.3264 80.8525 38.1663C81.0127 38.0061 81.2295 37.926 81.5029 37.926C81.7764 37.926 81.9932 38.0061 82.1533 38.1663C82.3135 38.3264 82.3936 38.5237 82.3936 38.7581C82.3936 38.9885 82.3135 39.1838 82.1533 39.344C81.9932 39.5002 81.7764 39.5784 81.5029 39.5784C81.2295 39.5784 81.0127 39.5002 80.8525 39.344C80.6924 39.1838 80.6123 38.9885 80.6123 38.7581ZM85.5693 34.5627H86.4424C86.751 34.5627 87.0049 34.51 87.2041 34.4045C87.4072 34.2952 87.5576 34.1467 87.6553 33.9592C87.7568 33.7678 87.8076 33.5471 87.8076 33.2971C87.8076 33.051 87.7627 32.8381 87.6729 32.6584C87.583 32.4749 87.4463 32.3342 87.2627 32.2366C87.083 32.135 86.8525 32.0842 86.5713 32.0842C86.3447 32.0842 86.1357 32.1292 85.9443 32.219C85.7568 32.3088 85.6064 32.4377 85.4932 32.6057C85.3838 32.7698 85.3291 32.967 85.3291 33.1975H83.7764C83.7764 32.7366 83.8975 32.3323 84.1396 31.9846C84.3857 31.6331 84.7178 31.3577 85.1357 31.1584C85.5537 30.9592 86.0205 30.8596 86.5361 30.8596C87.0986 30.8596 87.5908 30.9534 88.0127 31.1409C88.4385 31.3245 88.7686 31.5959 89.0029 31.9553C89.2412 32.3147 89.3604 32.76 89.3604 33.2913C89.3604 33.5452 89.2998 33.7991 89.1787 34.053C89.0615 34.303 88.8877 34.5295 88.6572 34.7327C88.4307 34.9319 88.1514 35.094 87.8193 35.219C87.4912 35.3401 87.1143 35.4006 86.6885 35.4006H85.5693V34.5627ZM85.5693 35.7581V34.9319H86.6885C87.1689 34.9319 87.585 34.9885 87.9365 35.1018C88.292 35.2112 88.585 35.3674 88.8154 35.5706C89.0459 35.7698 89.2158 36.0022 89.3252 36.2678C89.4385 36.5334 89.4951 36.8186 89.4951 37.1233C89.4951 37.5217 89.4209 37.8772 89.2725 38.1897C89.124 38.4983 88.915 38.76 88.6455 38.9749C88.3799 39.1897 88.0674 39.3538 87.708 39.467C87.3486 39.5764 86.96 39.6311 86.542 39.6311C86.1787 39.6311 85.8252 39.5823 85.4814 39.4846C85.1416 39.3831 84.835 39.2327 84.5615 39.0334C84.2881 38.8303 84.0713 38.5764 83.9111 38.2717C83.751 37.9631 83.6709 37.6057 83.6709 37.1995H85.2236C85.2236 37.4338 85.2803 37.6428 85.3936 37.8264C85.5107 38.01 85.6709 38.1545 85.874 38.26C86.0811 38.3616 86.3135 38.4124 86.5713 38.4124C86.8564 38.4124 87.1006 38.3616 87.3037 38.26C87.5107 38.1545 87.6689 38.0061 87.7783 37.8147C87.8877 37.6194 87.9424 37.387 87.9424 37.1174C87.9424 36.7971 87.8818 36.5374 87.7607 36.3381C87.6396 36.1389 87.4658 35.9924 87.2393 35.8987C87.0166 35.8049 86.751 35.7581 86.4424 35.7581H85.5693ZM96.5088 38.2952V39.5139H90.7314V38.4709L93.5029 35.4768C93.792 35.1487 94.0205 34.8635 94.1885 34.6213C94.3564 34.3792 94.4756 34.1604 94.5459 33.9651C94.6201 33.7659 94.6572 33.5764 94.6572 33.3967C94.6572 33.135 94.6104 32.9065 94.5166 32.7112C94.4229 32.512 94.2861 32.3577 94.1064 32.2483C93.9307 32.1389 93.7139 32.0842 93.4561 32.0842C93.1709 32.0842 92.9268 32.1506 92.7236 32.2834C92.5244 32.4124 92.3721 32.592 92.2666 32.8225C92.165 33.053 92.1143 33.3167 92.1143 33.6135H90.5615C90.5615 33.1096 90.6787 32.6506 90.9131 32.2366C91.1475 31.8186 91.4834 31.4846 91.9209 31.2346C92.3584 30.9846 92.8779 30.8596 93.4795 30.8596C94.0654 30.8596 94.5615 30.9573 94.9678 31.1526C95.374 31.344 95.6826 31.6174 95.8936 31.9729C96.1045 32.3284 96.21 32.7522 96.21 33.2444C96.21 33.5178 96.165 33.7874 96.0752 34.053C95.9854 34.3186 95.8584 34.5823 95.6943 34.844C95.5342 35.1018 95.3428 35.3635 95.1201 35.6292C94.8975 35.8948 94.6494 36.1663 94.376 36.4436L92.7119 38.2952H96.5088Z" fill="#8B9097"/>
</g>
<g filter="url(#filter1_d_1704_15807)">
<rect x="88.4004" y="4.01392" width="284.2" height="48" rx="8" fill="#182330" shape-rendering="crispEdges"/>
<path d="M98.8262 15.9827V24.5139H97.2148V15.9827H98.8262ZM102.266 19.6682V20.9397H98.4043V19.6682H102.266ZM102.717 15.9827V17.2542H98.4043V15.9827H102.717ZM107.592 15.9827V24.5139H105.986V15.9827H107.592ZM110.24 15.9827V17.2542H103.367V15.9827H110.24Z" fill="#FFDD66"/>
<path d="M100.701 29.6233V31.3635H99.793V29.6233H100.701ZM100.59 39.1917V40.762H99.6875V39.1917H100.59ZM101.352 37.2815C101.352 37.0588 101.309 36.8655 101.223 36.7014C101.141 36.5374 101.002 36.3909 100.807 36.262C100.615 36.1331 100.357 36.01 100.033 35.8928C99.5293 35.7092 99.0879 35.5081 98.709 35.2893C98.3301 35.0667 98.0352 34.7913 97.8242 34.4631C97.6172 34.135 97.5137 33.7209 97.5137 33.2209C97.5137 32.7405 97.625 32.3245 97.8477 31.9729C98.0742 31.6174 98.3887 31.344 98.791 31.1526C99.1934 30.9573 99.6602 30.8596 100.191 30.8596C100.605 30.8596 100.977 30.9221 101.305 31.0471C101.637 31.1682 101.92 31.3459 102.154 31.5803C102.393 31.8147 102.574 32.1038 102.699 32.4475C102.828 32.7874 102.893 33.176 102.893 33.6135H101.346C101.346 33.3713 101.318 33.1565 101.264 32.969C101.209 32.7815 101.131 32.6233 101.029 32.4944C100.928 32.3616 100.805 32.262 100.66 32.1956C100.52 32.1292 100.359 32.0959 100.18 32.0959C99.9219 32.0959 99.709 32.1448 99.541 32.2424C99.377 32.3401 99.2559 32.4729 99.1777 32.6409C99.1035 32.8088 99.0664 33.0022 99.0664 33.2209C99.0664 33.4319 99.1055 33.6174 99.1836 33.7776C99.2656 33.9338 99.4023 34.0764 99.5938 34.2053C99.7891 34.3342 100.057 34.4651 100.396 34.5979C100.904 34.7854 101.346 34.9924 101.721 35.219C102.096 35.4417 102.387 35.7151 102.594 36.0393C102.801 36.3635 102.904 36.7737 102.904 37.2698C102.904 37.7776 102.787 38.2073 102.553 38.5588C102.322 38.9104 101.998 39.178 101.58 39.3616C101.162 39.5452 100.676 39.637 100.121 39.637C99.7656 39.637 99.4141 39.5901 99.0664 39.4963C98.7188 39.4026 98.4023 39.2502 98.1172 39.0393C97.8359 38.8245 97.6113 38.5413 97.4434 38.1897C97.2754 37.8342 97.1914 37.3987 97.1914 36.8831H98.7441C98.7441 37.1799 98.7832 37.426 98.8613 37.6213C98.9395 37.8167 99.0449 37.9729 99.1777 38.0901C99.3105 38.2034 99.459 38.2834 99.623 38.3303C99.7871 38.3772 99.9531 38.4006 100.121 38.4006C100.395 38.4006 100.621 38.3538 100.801 38.26C100.984 38.1663 101.121 38.0354 101.211 37.8674C101.305 37.6956 101.352 37.5002 101.352 37.2815ZM109.877 38.2952V39.5139H104.1V38.4709L106.871 35.4768C107.16 35.1487 107.389 34.8635 107.557 34.6213C107.725 34.3792 107.844 34.1604 107.914 33.9651C107.988 33.7659 108.025 33.5764 108.025 33.3967C108.025 33.135 107.979 32.9065 107.885 32.7112C107.791 32.512 107.654 32.3577 107.475 32.2483C107.299 32.1389 107.082 32.0842 106.824 32.0842C106.539 32.0842 106.295 32.1506 106.092 32.2834C105.893 32.4124 105.74 32.592 105.635 32.8225C105.533 33.053 105.482 33.3167 105.482 33.6135H103.93C103.93 33.1096 104.047 32.6506 104.281 32.2366C104.516 31.8186 104.852 31.4846 105.289 31.2346C105.727 30.9846 106.246 30.8596 106.848 30.8596C107.434 30.8596 107.93 30.9573 108.336 31.1526C108.742 31.344 109.051 31.6174 109.262 31.9729C109.473 32.3284 109.578 32.7522 109.578 33.2444C109.578 33.5178 109.533 33.7874 109.443 34.053C109.354 34.3186 109.227 34.5823 109.062 34.844C108.902 35.1018 108.711 35.3635 108.488 35.6292C108.266 35.8948 108.018 36.1663 107.744 36.4436L106.08 38.2952H109.877ZM112.121 38.3127H112.232C112.736 38.3127 113.162 38.2483 113.51 38.1194C113.861 37.9905 114.145 37.8088 114.359 37.5745C114.578 37.3362 114.736 37.053 114.834 36.7249C114.936 36.3928 114.986 36.0256 114.986 35.6233V34.0764C114.986 33.7483 114.953 33.4612 114.887 33.2151C114.82 32.9651 114.727 32.7561 114.605 32.5881C114.488 32.4202 114.35 32.2952 114.189 32.2131C114.029 32.1272 113.857 32.0842 113.674 32.0842C113.471 32.0842 113.291 32.1311 113.135 32.2249C112.979 32.3186 112.846 32.4475 112.736 32.6116C112.631 32.7717 112.549 32.9573 112.49 33.1682C112.436 33.3792 112.408 33.6018 112.408 33.8362C112.408 34.0627 112.434 34.2795 112.484 34.4866C112.539 34.6936 112.619 34.8772 112.725 35.0374C112.834 35.1975 112.971 35.3245 113.135 35.4182C113.299 35.5081 113.49 35.553 113.709 35.553C113.916 35.553 114.104 35.5139 114.271 35.4358C114.443 35.3538 114.592 35.2463 114.717 35.1135C114.842 34.9768 114.938 34.8264 115.004 34.6624C115.074 34.4944 115.113 34.3245 115.121 34.1526L115.666 34.387C115.666 34.6721 115.605 34.9534 115.484 35.2307C115.367 35.5081 115.201 35.76 114.986 35.9866C114.775 36.2092 114.529 36.3889 114.248 36.5256C113.967 36.6584 113.664 36.7249 113.34 36.7249C112.938 36.7249 112.582 36.6506 112.273 36.5022C111.965 36.3538 111.705 36.1487 111.494 35.887C111.287 35.6213 111.131 35.3167 111.025 34.9729C110.92 34.6252 110.867 34.2542 110.867 33.8596C110.867 33.4495 110.932 33.0647 111.061 32.7053C111.189 32.342 111.375 32.0237 111.617 31.7502C111.863 31.4729 112.16 31.2561 112.508 31.0999C112.855 30.9397 113.246 30.8596 113.68 30.8596C114.129 30.8596 114.529 30.9475 114.881 31.1233C115.232 31.2991 115.531 31.5432 115.777 31.8557C116.023 32.1643 116.211 32.5295 116.34 32.9514C116.473 33.3733 116.539 33.8342 116.539 34.3342V34.8792C116.539 35.4065 116.486 35.9065 116.381 36.3792C116.275 36.8518 116.113 37.2834 115.895 37.6741C115.676 38.0647 115.396 38.4026 115.057 38.6877C114.721 38.9729 114.318 39.1936 113.85 39.3499C113.385 39.5022 112.854 39.5784 112.256 39.5784H112.121V38.3127ZM118.977 38.3127H119.088C119.592 38.3127 120.018 38.2483 120.365 38.1194C120.717 37.9905 121 37.8088 121.215 37.5745C121.434 37.3362 121.592 37.053 121.689 36.7249C121.791 36.3928 121.842 36.0256 121.842 35.6233V34.0764C121.842 33.7483 121.809 33.4612 121.742 33.2151C121.676 32.9651 121.582 32.7561 121.461 32.5881C121.344 32.4202 121.205 32.2952 121.045 32.2131C120.885 32.1272 120.713 32.0842 120.529 32.0842C120.326 32.0842 120.146 32.1311 119.99 32.2249C119.834 32.3186 119.701 32.4475 119.592 32.6116C119.486 32.7717 119.404 32.9573 119.346 33.1682C119.291 33.3792 119.264 33.6018 119.264 33.8362C119.264 34.0627 119.289 34.2795 119.34 34.4866C119.395 34.6936 119.475 34.8772 119.58 35.0374C119.689 35.1975 119.826 35.3245 119.99 35.4182C120.154 35.5081 120.346 35.553 120.564 35.553C120.771 35.553 120.959 35.5139 121.127 35.4358C121.299 35.3538 121.447 35.2463 121.572 35.1135C121.697 34.9768 121.793 34.8264 121.859 34.6624C121.93 34.4944 121.969 34.3245 121.977 34.1526L122.521 34.387C122.521 34.6721 122.461 34.9534 122.34 35.2307C122.223 35.5081 122.057 35.76 121.842 35.9866C121.631 36.2092 121.385 36.3889 121.104 36.5256C120.822 36.6584 120.52 36.7249 120.195 36.7249C119.793 36.7249 119.438 36.6506 119.129 36.5022C118.82 36.3538 118.561 36.1487 118.35 35.887C118.143 35.6213 117.986 35.3167 117.881 34.9729C117.775 34.6252 117.723 34.2542 117.723 33.8596C117.723 33.4495 117.787 33.0647 117.916 32.7053C118.045 32.342 118.23 32.0237 118.473 31.7502C118.719 31.4729 119.016 31.2561 119.363 31.0999C119.711 30.9397 120.102 30.8596 120.535 30.8596C120.984 30.8596 121.385 30.9475 121.736 31.1233C122.088 31.2991 122.387 31.5432 122.633 31.8557C122.879 32.1643 123.066 32.5295 123.195 32.9514C123.328 33.3733 123.395 33.8342 123.395 34.3342V34.8792C123.395 35.4065 123.342 35.9065 123.236 36.3792C123.131 36.8518 122.969 37.2834 122.75 37.6741C122.531 38.0647 122.252 38.4026 121.912 38.6877C121.576 38.9729 121.174 39.1936 120.705 39.3499C120.24 39.5022 119.709 39.5784 119.111 39.5784H118.977V38.3127ZM124.812 38.7581C124.812 38.5237 124.893 38.3264 125.053 38.1663C125.213 38.0061 125.43 37.926 125.703 37.926C125.977 37.926 126.193 38.0061 126.354 38.1663C126.514 38.3264 126.594 38.5237 126.594 38.7581C126.594 38.9885 126.514 39.1838 126.354 39.344C126.193 39.5002 125.977 39.5784 125.703 39.5784C125.43 39.5784 125.213 39.5002 125.053 39.344C124.893 39.1838 124.812 38.9885 124.812 38.7581ZM129.77 34.5627H130.643C130.951 34.5627 131.205 34.51 131.404 34.4045C131.607 34.2952 131.758 34.1467 131.855 33.9592C131.957 33.7678 132.008 33.5471 132.008 33.2971C132.008 33.051 131.963 32.8381 131.873 32.6584C131.783 32.4749 131.646 32.3342 131.463 32.2366C131.283 32.135 131.053 32.0842 130.771 32.0842C130.545 32.0842 130.336 32.1292 130.145 32.219C129.957 32.3088 129.807 32.4377 129.693 32.6057C129.584 32.7698 129.529 32.967 129.529 33.1975H127.977C127.977 32.7366 128.098 32.3323 128.34 31.9846C128.586 31.6331 128.918 31.3577 129.336 31.1584C129.754 30.9592 130.221 30.8596 130.736 30.8596C131.299 30.8596 131.791 30.9534 132.213 31.1409C132.639 31.3245 132.969 31.5959 133.203 31.9553C133.441 32.3147 133.561 32.76 133.561 33.2913C133.561 33.5452 133.5 33.7991 133.379 34.053C133.262 34.303 133.088 34.5295 132.857 34.7327C132.631 34.9319 132.352 35.094 132.02 35.219C131.691 35.3401 131.314 35.4006 130.889 35.4006H129.77V34.5627ZM129.77 35.7581V34.9319H130.889C131.369 34.9319 131.785 34.9885 132.137 35.1018C132.492 35.2112 132.785 35.3674 133.016 35.5706C133.246 35.7698 133.416 36.0022 133.525 36.2678C133.639 36.5334 133.695 36.8186 133.695 37.1233C133.695 37.5217 133.621 37.8772 133.473 38.1897C133.324 38.4983 133.115 38.76 132.846 38.9749C132.58 39.1897 132.268 39.3538 131.908 39.467C131.549 39.5764 131.16 39.6311 130.742 39.6311C130.379 39.6311 130.025 39.5823 129.682 39.4846C129.342 39.3831 129.035 39.2327 128.762 39.0334C128.488 38.8303 128.271 38.5764 128.111 38.2717C127.951 37.9631 127.871 37.6057 127.871 37.1995H129.424C129.424 37.4338 129.48 37.6428 129.594 37.8264C129.711 38.01 129.871 38.1545 130.074 38.26C130.281 38.3616 130.514 38.4124 130.771 38.4124C131.057 38.4124 131.301 38.3616 131.504 38.26C131.711 38.1545 131.869 38.0061 131.979 37.8147C132.088 37.6194 132.143 37.387 132.143 37.1174C132.143 36.7971 132.082 36.5374 131.961 36.3381C131.84 36.1389 131.666 35.9924 131.439 35.8987C131.217 35.8049 130.951 35.7581 130.643 35.7581H129.77ZM140.709 38.2952V39.5139H134.932V38.4709L137.703 35.4768C137.992 35.1487 138.221 34.8635 138.389 34.6213C138.557 34.3792 138.676 34.1604 138.746 33.9651C138.82 33.7659 138.857 33.5764 138.857 33.3967C138.857 33.135 138.811 32.9065 138.717 32.7112C138.623 32.512 138.486 32.3577 138.307 32.2483C138.131 32.1389 137.914 32.0842 137.656 32.0842C137.371 32.0842 137.127 32.1506 136.924 32.2834C136.725 32.4124 136.572 32.592 136.467 32.8225C136.365 33.053 136.314 33.3167 136.314 33.6135H134.762C134.762 33.1096 134.879 32.6506 135.113 32.2366C135.348 31.8186 135.684 31.4846 136.121 31.2346C136.559 30.9846 137.078 30.8596 137.68 30.8596C138.266 30.8596 138.762 30.9573 139.168 31.1526C139.574 31.344 139.883 31.6174 140.094 31.9729C140.305 32.3284 140.41 32.7522 140.41 33.2444C140.41 33.5178 140.365 33.7874 140.275 34.053C140.186 34.3186 140.059 34.5823 139.895 34.844C139.734 35.1018 139.543 35.3635 139.32 35.6292C139.098 35.8948 138.85 36.1663 138.576 36.4436L136.912 38.2952H140.709Z" fill="#8B9097"/>
</g>
<g filter="url(#filter2_d_1704_15807)">
<rect x="132.6" y="4.01392" width="284.2" height="48" rx="8" fill="#182330" shape-rendering="crispEdges"/>
<path d="M143.512 22.8792L145.211 15.9827H146.131L146.189 17.4358L144.373 24.5139H143.4L143.512 22.8792ZM142.439 15.9827L143.834 22.8557V24.5139H142.773L140.84 15.9827H142.439ZM147.953 22.8264L149.324 15.9827H150.93L148.996 24.5139H147.936L147.953 22.8264ZM146.57 15.9827L148.27 22.9026L148.369 24.5139H147.396L145.586 17.4299L145.656 15.9827H146.57ZM154.047 22.8792L155.746 15.9827H156.666L156.725 17.4358L154.908 24.5139H153.936L154.047 22.8792ZM152.975 15.9827L154.369 22.8557V24.5139H153.309L151.375 15.9827H152.975ZM158.488 22.8264L159.859 15.9827H161.465L159.531 24.5139H158.471L158.488 22.8264ZM157.105 15.9827L158.805 22.9026L158.904 24.5139H157.932L156.121 17.4299L156.191 15.9827H157.105Z" fill="#CC9F00"/>
<path d="M144.9 29.6233V31.3635H143.992V29.6233H144.9ZM144.789 39.1917V40.762H143.887V39.1917H144.789ZM145.551 37.2815C145.551 37.0588 145.508 36.8655 145.422 36.7014C145.34 36.5374 145.201 36.3909 145.006 36.262C144.814 36.1331 144.557 36.01 144.232 35.8928C143.729 35.7092 143.287 35.5081 142.908 35.2893C142.529 35.0667 142.234 34.7913 142.023 34.4631C141.816 34.135 141.713 33.7209 141.713 33.2209C141.713 32.7405 141.824 32.3245 142.047 31.9729C142.273 31.6174 142.588 31.344 142.99 31.1526C143.393 30.9573 143.859 30.8596 144.391 30.8596C144.805 30.8596 145.176 30.9221 145.504 31.0471C145.836 31.1682 146.119 31.3459 146.354 31.5803C146.592 31.8147 146.773 32.1038 146.898 32.4475C147.027 32.7874 147.092 33.176 147.092 33.6135H145.545C145.545 33.3713 145.518 33.1565 145.463 32.969C145.408 32.7815 145.33 32.6233 145.229 32.4944C145.127 32.3616 145.004 32.262 144.859 32.1956C144.719 32.1292 144.559 32.0959 144.379 32.0959C144.121 32.0959 143.908 32.1448 143.74 32.2424C143.576 32.3401 143.455 32.4729 143.377 32.6409C143.303 32.8088 143.266 33.0022 143.266 33.2209C143.266 33.4319 143.305 33.6174 143.383 33.7776C143.465 33.9338 143.602 34.0764 143.793 34.2053C143.988 34.3342 144.256 34.4651 144.596 34.5979C145.104 34.7854 145.545 34.9924 145.92 35.219C146.295 35.4417 146.586 35.7151 146.793 36.0393C147 36.3635 147.104 36.7737 147.104 37.2698C147.104 37.7776 146.986 38.2073 146.752 38.5588C146.521 38.9104 146.197 39.178 145.779 39.3616C145.361 39.5452 144.875 39.637 144.32 39.637C143.965 39.637 143.613 39.5901 143.266 39.4963C142.918 39.4026 142.602 39.2502 142.316 39.0393C142.035 38.8245 141.811 38.5413 141.643 38.1897C141.475 37.8342 141.391 37.3987 141.391 36.8831H142.943C142.943 37.1799 142.982 37.426 143.061 37.6213C143.139 37.8167 143.244 37.9729 143.377 38.0901C143.51 38.2034 143.658 38.2834 143.822 38.3303C143.986 38.3772 144.152 38.4006 144.32 38.4006C144.594 38.4006 144.82 38.3538 145 38.26C145.184 38.1663 145.32 38.0354 145.41 37.8674C145.504 37.6956 145.551 37.5002 145.551 37.2815ZM149.992 34.5627H150.865C151.174 34.5627 151.428 34.51 151.627 34.4045C151.83 34.2952 151.98 34.1467 152.078 33.9592C152.18 33.7678 152.23 33.5471 152.23 33.2971C152.23 33.051 152.186 32.8381 152.096 32.6584C152.006 32.4749 151.869 32.3342 151.686 32.2366C151.506 32.135 151.275 32.0842 150.994 32.0842C150.768 32.0842 150.559 32.1292 150.367 32.219C150.18 32.3088 150.029 32.4377 149.916 32.6057C149.807 32.7698 149.752 32.967 149.752 33.1975H148.199C148.199 32.7366 148.32 32.3323 148.562 31.9846C148.809 31.6331 149.141 31.3577 149.559 31.1584C149.977 30.9592 150.443 30.8596 150.959 30.8596C151.521 30.8596 152.014 30.9534 152.436 31.1409C152.861 31.3245 153.191 31.5959 153.426 31.9553C153.664 32.3147 153.783 32.76 153.783 33.2913C153.783 33.5452 153.723 33.7991 153.602 34.053C153.484 34.303 153.311 34.5295 153.08 34.7327C152.854 34.9319 152.574 35.094 152.242 35.219C151.914 35.3401 151.537 35.4006 151.111 35.4006H149.992V34.5627ZM149.992 35.7581V34.9319H151.111C151.592 34.9319 152.008 34.9885 152.359 35.1018C152.715 35.2112 153.008 35.3674 153.238 35.5706C153.469 35.7698 153.639 36.0022 153.748 36.2678C153.861 36.5334 153.918 36.8186 153.918 37.1233C153.918 37.5217 153.844 37.8772 153.695 38.1897C153.547 38.4983 153.338 38.76 153.068 38.9749C152.803 39.1897 152.49 39.3538 152.131 39.467C151.771 39.5764 151.383 39.6311 150.965 39.6311C150.602 39.6311 150.248 39.5823 149.904 39.4846C149.564 39.3831 149.258 39.2327 148.984 39.0334C148.711 38.8303 148.494 38.5764 148.334 38.2717C148.174 37.9631 148.094 37.6057 148.094 37.1995H149.646C149.646 37.4338 149.703 37.6428 149.816 37.8264C149.934 38.01 150.094 38.1545 150.297 38.26C150.504 38.3616 150.736 38.4124 150.994 38.4124C151.279 38.4124 151.523 38.3616 151.727 38.26C151.934 38.1545 152.092 38.0061 152.201 37.8147C152.311 37.6194 152.365 37.387 152.365 37.1174C152.365 36.7971 152.305 36.5374 152.184 36.3381C152.062 36.1389 151.889 35.9924 151.662 35.8987C151.439 35.8049 151.174 35.7581 150.865 35.7581H149.992ZM160.803 34.5159V35.9514C160.803 36.6077 160.736 37.1682 160.604 37.6331C160.471 38.0979 160.279 38.4788 160.029 38.7756C159.779 39.0686 159.48 39.2854 159.133 39.426C158.785 39.5627 158.398 39.6311 157.973 39.6311C157.633 39.6311 157.316 39.5881 157.023 39.5022C156.73 39.4124 156.467 39.2756 156.232 39.092C156.002 38.9045 155.803 38.6663 155.635 38.3772C155.471 38.0881 155.344 37.7424 155.254 37.3401C155.168 36.9377 155.125 36.4749 155.125 35.9514V34.5159C155.125 33.8596 155.191 33.301 155.324 32.8401C155.461 32.3792 155.654 32.0022 155.904 31.7092C156.154 31.4163 156.453 31.2034 156.801 31.0706C157.148 30.9338 157.535 30.8655 157.961 30.8655C158.305 30.8655 158.621 30.9084 158.91 30.9944C159.203 31.0803 159.465 31.2151 159.695 31.3987C159.93 31.5784 160.129 31.8127 160.293 32.1018C160.457 32.387 160.582 32.7307 160.668 33.1331C160.758 33.5315 160.803 33.9924 160.803 34.5159ZM159.256 36.1624V34.2991C159.256 33.9709 159.236 33.6858 159.197 33.4436C159.162 33.1975 159.109 32.9885 159.039 32.8167C158.969 32.6448 158.881 32.5061 158.775 32.4006C158.67 32.2913 158.549 32.2112 158.412 32.1604C158.275 32.1096 158.125 32.0842 157.961 32.0842C157.758 32.0842 157.576 32.1252 157.416 32.2073C157.256 32.2854 157.121 32.4104 157.012 32.5823C156.902 32.7542 156.818 32.9827 156.76 33.2678C156.705 33.5491 156.678 33.8928 156.678 34.2991V36.1624C156.678 36.4905 156.695 36.7776 156.73 37.0237C156.77 37.2698 156.824 37.4807 156.895 37.6565C156.969 37.8323 157.057 37.9768 157.158 38.0901C157.264 38.1995 157.385 38.2815 157.521 38.3362C157.658 38.387 157.809 38.4124 157.973 38.4124C158.18 38.4124 158.361 38.3713 158.518 38.2893C158.678 38.2073 158.812 38.0784 158.922 37.9026C159.031 37.7229 159.113 37.4905 159.168 37.2053C159.227 36.9163 159.256 36.5686 159.256 36.1624ZM167.787 38.2952V39.5139H162.01V38.4709L164.781 35.4768C165.07 35.1487 165.299 34.8635 165.467 34.6213C165.635 34.3792 165.754 34.1604 165.824 33.9651C165.898 33.7659 165.936 33.5764 165.936 33.3967C165.936 33.135 165.889 32.9065 165.795 32.7112C165.701 32.512 165.564 32.3577 165.385 32.2483C165.209 32.1389 164.992 32.0842 164.734 32.0842C164.449 32.0842 164.205 32.1506 164.002 32.2834C163.803 32.4124 163.65 32.592 163.545 32.8225C163.443 33.053 163.393 33.3167 163.393 33.6135H161.84C161.84 33.1096 161.957 32.6506 162.191 32.2366C162.426 31.8186 162.762 31.4846 163.199 31.2346C163.637 30.9846 164.156 30.8596 164.758 30.8596C165.344 30.8596 165.84 30.9573 166.246 31.1526C166.652 31.344 166.961 31.6174 167.172 31.9729C167.383 32.3284 167.488 32.7522 167.488 33.2444C167.488 33.5178 167.443 33.7874 167.354 34.053C167.264 34.3186 167.137 34.5823 166.973 34.844C166.812 35.1018 166.621 35.3635 166.398 35.6292C166.176 35.8948 165.928 36.1663 165.654 36.4436L163.99 38.2952H167.787ZM169.012 38.7581C169.012 38.5237 169.092 38.3264 169.252 38.1663C169.412 38.0061 169.629 37.926 169.902 37.926C170.176 37.926 170.393 38.0061 170.553 38.1663C170.713 38.3264 170.793 38.5237 170.793 38.7581C170.793 38.9885 170.713 39.1838 170.553 39.344C170.393 39.5002 170.176 39.5784 169.902 39.5784C169.629 39.5784 169.412 39.5002 169.252 39.344C169.092 39.1838 169.012 38.9885 169.012 38.7581ZM173.969 34.5627H174.842C175.15 34.5627 175.404 34.51 175.604 34.4045C175.807 34.2952 175.957 34.1467 176.055 33.9592C176.156 33.7678 176.207 33.5471 176.207 33.2971C176.207 33.051 176.162 32.8381 176.072 32.6584C175.982 32.4749 175.846 32.3342 175.662 32.2366C175.482 32.135 175.252 32.0842 174.971 32.0842C174.744 32.0842 174.535 32.1292 174.344 32.219C174.156 32.3088 174.006 32.4377 173.893 32.6057C173.783 32.7698 173.729 32.967 173.729 33.1975H172.176C172.176 32.7366 172.297 32.3323 172.539 31.9846C172.785 31.6331 173.117 31.3577 173.535 31.1584C173.953 30.9592 174.42 30.8596 174.936 30.8596C175.498 30.8596 175.99 30.9534 176.412 31.1409C176.838 31.3245 177.168 31.5959 177.402 31.9553C177.641 32.3147 177.76 32.76 177.76 33.2913C177.76 33.5452 177.699 33.7991 177.578 34.053C177.461 34.303 177.287 34.5295 177.057 34.7327C176.83 34.9319 176.551 35.094 176.219 35.219C175.891 35.3401 175.514 35.4006 175.088 35.4006H173.969V34.5627ZM173.969 35.7581V34.9319H175.088C175.568 34.9319 175.984 34.9885 176.336 35.1018C176.691 35.2112 176.984 35.3674 177.215 35.5706C177.445 35.7698 177.615 36.0022 177.725 36.2678C177.838 36.5334 177.895 36.8186 177.895 37.1233C177.895 37.5217 177.82 37.8772 177.672 38.1897C177.523 38.4983 177.314 38.76 177.045 38.9749C176.779 39.1897 176.467 39.3538 176.107 39.467C175.748 39.5764 175.359 39.6311 174.941 39.6311C174.578 39.6311 174.225 39.5823 173.881 39.4846C173.541 39.3831 173.234 39.2327 172.961 39.0334C172.688 38.8303 172.471 38.5764 172.311 38.2717C172.15 37.9631 172.07 37.6057 172.07 37.1995H173.623C173.623 37.4338 173.68 37.6428 173.793 37.8264C173.91 38.01 174.07 38.1545 174.273 38.26C174.48 38.3616 174.713 38.4124 174.971 38.4124C175.256 38.4124 175.5 38.3616 175.703 38.26C175.91 38.1545 176.068 38.0061 176.178 37.8147C176.287 37.6194 176.342 37.387 176.342 37.1174C176.342 36.7971 176.281 36.5374 176.16 36.3381C176.039 36.1389 175.865 35.9924 175.639 35.8987C175.416 35.8049 175.15 35.7581 174.842 35.7581H173.969ZM184.908 38.2952V39.5139H179.131V38.4709L181.902 35.4768C182.191 35.1487 182.42 34.8635 182.588 34.6213C182.756 34.3792 182.875 34.1604 182.945 33.9651C183.02 33.7659 183.057 33.5764 183.057 33.3967C183.057 33.135 183.01 32.9065 182.916 32.7112C182.822 32.512 182.686 32.3577 182.506 32.2483C182.33 32.1389 182.113 32.0842 181.855 32.0842C181.57 32.0842 181.326 32.1506 181.123 32.2834C180.924 32.4124 180.771 32.592 180.666 32.8225C180.564 33.053 180.514 33.3167 180.514 33.6135H178.961C178.961 33.1096 179.078 32.6506 179.312 32.2366C179.547 31.8186 179.883 31.4846 180.32 31.2346C180.758 30.9846 181.277 30.8596 181.879 30.8596C182.465 30.8596 182.961 30.9573 183.367 31.1526C183.773 31.344 184.082 31.6174 184.293 31.9729C184.504 32.3284 184.609 32.7522 184.609 33.2444C184.609 33.5178 184.564 33.7874 184.475 34.053C184.385 34.3186 184.258 34.5823 184.094 34.844C183.934 35.1018 183.742 35.3635 183.52 35.6292C183.297 35.8948 183.049 36.1663 182.775 36.4436L181.111 38.2952H184.908Z" fill="#8B9097"/>
</g>
<g filter="url(#filter3_d_1704_15807)">
<rect x="176.8" y="4.01392" width="284.2" height="48" rx="8" fill="#283442" shape-rendering="crispEdges"/>
<path d="M188.884 20.7112H186.704L186.692 19.5745H188.562C188.882 19.5745 189.149 19.5295 189.364 19.4397C189.579 19.3499 189.741 19.219 189.851 19.0471C189.964 18.8752 190.021 18.6663 190.021 18.4202C190.021 18.1467 189.968 17.9241 189.862 17.7522C189.761 17.5803 189.601 17.4553 189.382 17.3772C189.163 17.2952 188.886 17.2542 188.55 17.2542H187.226V24.5139H185.614V15.9827H188.55C189.034 15.9827 189.466 16.0295 189.845 16.1233C190.228 16.2131 190.552 16.3538 190.817 16.5452C191.083 16.7366 191.284 16.9768 191.421 17.2659C191.562 17.5549 191.632 17.8987 191.632 18.2971C191.632 18.6487 191.55 18.9729 191.386 19.2698C191.226 19.5627 190.978 19.801 190.642 19.9846C190.31 20.1682 189.888 20.2737 189.376 20.301L188.884 20.7112ZM188.813 24.5139H186.229L186.903 23.2483H188.813C189.134 23.2483 189.397 23.1956 189.604 23.0901C189.815 22.9846 189.972 22.8401 190.073 22.6565C190.179 22.469 190.231 22.2542 190.231 22.012C190.231 21.7463 190.185 21.5159 190.091 21.3206C190.001 21.1252 189.856 20.9749 189.657 20.8694C189.462 20.7639 189.204 20.7112 188.884 20.7112H187.208L187.22 19.5745H189.353L189.722 20.0139C190.214 20.0178 190.614 20.1155 190.923 20.3069C191.235 20.4983 191.466 20.7444 191.614 21.0452C191.763 21.3459 191.837 21.6702 191.837 22.0178C191.837 22.5647 191.718 23.0237 191.479 23.3948C191.245 23.7659 190.901 24.0452 190.448 24.2327C189.999 24.4202 189.454 24.5139 188.813 24.5139ZM197.696 22.2991C197.696 22.135 197.671 21.9885 197.62 21.8596C197.573 21.7268 197.485 21.6077 197.356 21.5022C197.231 21.3928 197.054 21.2874 196.823 21.1858C196.597 21.0803 196.304 20.9709 195.944 20.8577C195.546 20.7327 195.175 20.592 194.831 20.4358C194.487 20.2795 194.185 20.0979 193.923 19.8909C193.665 19.6838 193.464 19.4456 193.319 19.176C193.175 18.9026 193.103 18.5862 193.103 18.2268C193.103 17.8752 193.177 17.5549 193.325 17.2659C193.478 16.9768 193.692 16.7288 193.97 16.5217C194.247 16.3108 194.573 16.1487 194.948 16.0354C195.327 15.9221 195.745 15.8655 196.202 15.8655C196.835 15.8655 197.382 15.9807 197.843 16.2112C198.308 16.4417 198.667 16.7542 198.921 17.1487C199.175 17.5432 199.302 17.9866 199.302 18.4788H197.696C197.696 18.2131 197.64 17.9788 197.526 17.7756C197.417 17.5725 197.249 17.4124 197.022 17.2952C196.8 17.178 196.519 17.1194 196.179 17.1194C195.851 17.1194 195.577 17.1682 195.358 17.2659C195.144 17.3635 194.981 17.4963 194.872 17.6643C194.767 17.8323 194.714 18.0198 194.714 18.2268C194.714 18.3831 194.751 18.5237 194.825 18.6487C194.899 18.7698 195.011 18.885 195.159 18.9944C195.308 19.0999 195.491 19.1995 195.71 19.2932C195.933 19.3831 196.19 19.4729 196.483 19.5627C196.952 19.7034 197.362 19.8596 197.714 20.0315C198.069 20.2034 198.364 20.3987 198.599 20.6174C198.837 20.8362 199.015 21.0823 199.132 21.3557C199.253 21.6292 199.313 21.9397 199.313 22.2874C199.313 22.6545 199.241 22.9827 199.097 23.2717C198.952 23.5608 198.745 23.8069 198.476 24.01C198.206 24.2131 197.882 24.3674 197.503 24.4729C197.128 24.5784 196.708 24.6311 196.243 24.6311C195.829 24.6311 195.419 24.5764 195.013 24.467C194.61 24.3538 194.245 24.1858 193.917 23.9631C193.589 23.7366 193.327 23.4514 193.132 23.1077C192.937 22.76 192.839 22.3538 192.839 21.8889H194.456C194.456 22.1584 194.499 22.3889 194.585 22.5803C194.675 22.7678 194.8 22.9221 194.96 23.0432C195.124 23.1604 195.315 23.2463 195.534 23.301C195.753 23.3557 195.989 23.3831 196.243 23.3831C196.571 23.3831 196.841 23.3381 197.052 23.2483C197.267 23.1545 197.427 23.0256 197.532 22.8616C197.642 22.6975 197.696 22.51 197.696 22.2991Z" fill="#D85752"/>
<path d="M189.101 29.6233V31.3635H188.192V29.6233H189.101ZM188.989 39.1917V40.762H188.087V39.1917H188.989ZM189.751 37.2815C189.751 37.0588 189.708 36.8655 189.622 36.7014C189.54 36.5374 189.401 36.3909 189.206 36.262C189.015 36.1331 188.757 36.01 188.433 35.8928C187.929 35.7092 187.487 35.5081 187.108 35.2893C186.729 35.0667 186.435 34.7913 186.224 34.4631C186.017 34.135 185.913 33.7209 185.913 33.2209C185.913 32.7405 186.024 32.3245 186.247 31.9729C186.474 31.6174 186.788 31.344 187.19 31.1526C187.593 30.9573 188.06 30.8596 188.591 30.8596C189.005 30.8596 189.376 30.9221 189.704 31.0471C190.036 31.1682 190.319 31.3459 190.554 31.5803C190.792 31.8147 190.974 32.1038 191.099 32.4475C191.228 32.7874 191.292 33.176 191.292 33.6135H189.745C189.745 33.3713 189.718 33.1565 189.663 32.969C189.608 32.7815 189.53 32.6233 189.429 32.4944C189.327 32.3616 189.204 32.262 189.06 32.1956C188.919 32.1292 188.759 32.0959 188.579 32.0959C188.321 32.0959 188.108 32.1448 187.94 32.2424C187.776 32.3401 187.655 32.4729 187.577 32.6409C187.503 32.8088 187.466 33.0022 187.466 33.2209C187.466 33.4319 187.505 33.6174 187.583 33.7776C187.665 33.9338 187.802 34.0764 187.993 34.2053C188.188 34.3342 188.456 34.4651 188.796 34.5979C189.304 34.7854 189.745 34.9924 190.12 35.219C190.495 35.4417 190.786 35.7151 190.993 36.0393C191.2 36.3635 191.304 36.7737 191.304 37.2698C191.304 37.7776 191.187 38.2073 190.952 38.5588C190.722 38.9104 190.397 39.178 189.979 39.3616C189.562 39.5452 189.075 39.637 188.521 39.637C188.165 39.637 187.813 39.5901 187.466 39.4963C187.118 39.4026 186.802 39.2502 186.517 39.0393C186.235 38.8245 186.011 38.5413 185.843 38.1897C185.675 37.8342 185.591 37.3987 185.591 36.8831H187.144C187.144 37.1799 187.183 37.426 187.261 37.6213C187.339 37.8167 187.444 37.9729 187.577 38.0901C187.71 38.2034 187.858 38.2834 188.022 38.3303C188.187 38.3772 188.353 38.4006 188.521 38.4006C188.794 38.4006 189.021 38.3538 189.2 38.26C189.384 38.1663 189.521 38.0354 189.61 37.8674C189.704 37.6956 189.751 37.5002 189.751 37.2815ZM194.192 34.5627H195.065C195.374 34.5627 195.628 34.51 195.827 34.4045C196.03 34.2952 196.181 34.1467 196.278 33.9592C196.38 33.7678 196.431 33.5471 196.431 33.2971C196.431 33.051 196.386 32.8381 196.296 32.6584C196.206 32.4749 196.069 32.3342 195.886 32.2366C195.706 32.135 195.476 32.0842 195.194 32.0842C194.968 32.0842 194.759 32.1292 194.567 32.219C194.38 32.3088 194.229 32.4377 194.116 32.6057C194.007 32.7698 193.952 32.967 193.952 33.1975H192.399C192.399 32.7366 192.521 32.3323 192.763 31.9846C193.009 31.6331 193.341 31.3577 193.759 31.1584C194.177 30.9592 194.644 30.8596 195.159 30.8596C195.722 30.8596 196.214 30.9534 196.636 31.1409C197.062 31.3245 197.392 31.5959 197.626 31.9553C197.864 32.3147 197.983 32.76 197.983 33.2913C197.983 33.5452 197.923 33.7991 197.802 34.053C197.685 34.303 197.511 34.5295 197.28 34.7327C197.054 34.9319 196.774 35.094 196.442 35.219C196.114 35.3401 195.737 35.4006 195.312 35.4006H194.192V34.5627ZM194.192 35.7581V34.9319H195.312C195.792 34.9319 196.208 34.9885 196.56 35.1018C196.915 35.2112 197.208 35.3674 197.438 35.5706C197.669 35.7698 197.839 36.0022 197.948 36.2678C198.062 36.5334 198.118 36.8186 198.118 37.1233C198.118 37.5217 198.044 37.8772 197.896 38.1897C197.747 38.4983 197.538 38.76 197.269 38.9749C197.003 39.1897 196.69 39.3538 196.331 39.467C195.972 39.5764 195.583 39.6311 195.165 39.6311C194.802 39.6311 194.448 39.5823 194.104 39.4846C193.765 39.3831 193.458 39.2327 193.185 39.0334C192.911 38.8303 192.694 38.5764 192.534 38.2717C192.374 37.9631 192.294 37.6057 192.294 37.1995H193.847C193.847 37.4338 193.903 37.6428 194.017 37.8264C194.134 38.01 194.294 38.1545 194.497 38.26C194.704 38.3616 194.937 38.4124 195.194 38.4124C195.479 38.4124 195.724 38.3616 195.927 38.26C196.134 38.1545 196.292 38.0061 196.401 37.8147C196.511 37.6194 196.565 37.387 196.565 37.1174C196.565 36.7971 196.505 36.5374 196.384 36.3381C196.263 36.1389 196.089 35.9924 195.862 35.8987C195.64 35.8049 195.374 35.7581 195.065 35.7581H194.192ZM205.003 34.5159V35.9514C205.003 36.6077 204.937 37.1682 204.804 37.6331C204.671 38.0979 204.479 38.4788 204.229 38.7756C203.979 39.0686 203.681 39.2854 203.333 39.426C202.985 39.5627 202.599 39.6311 202.173 39.6311C201.833 39.6311 201.517 39.5881 201.224 39.5022C200.931 39.4124 200.667 39.2756 200.433 39.092C200.202 38.9045 200.003 38.6663 199.835 38.3772C199.671 38.0881 199.544 37.7424 199.454 37.3401C199.368 36.9377 199.325 36.4749 199.325 35.9514V34.5159C199.325 33.8596 199.392 33.301 199.524 32.8401C199.661 32.3792 199.854 32.0022 200.104 31.7092C200.354 31.4163 200.653 31.2034 201.001 31.0706C201.349 30.9338 201.735 30.8655 202.161 30.8655C202.505 30.8655 202.821 30.9084 203.11 30.9944C203.403 31.0803 203.665 31.2151 203.896 31.3987C204.13 31.5784 204.329 31.8127 204.493 32.1018C204.657 32.387 204.782 32.7307 204.868 33.1331C204.958 33.5315 205.003 33.9924 205.003 34.5159ZM203.456 36.1624V34.2991C203.456 33.9709 203.437 33.6858 203.397 33.4436C203.362 33.1975 203.31 32.9885 203.239 32.8167C203.169 32.6448 203.081 32.5061 202.976 32.4006C202.87 32.2913 202.749 32.2112 202.612 32.1604C202.476 32.1096 202.325 32.0842 202.161 32.0842C201.958 32.0842 201.776 32.1252 201.616 32.2073C201.456 32.2854 201.321 32.4104 201.212 32.5823C201.103 32.7542 201.019 32.9827 200.96 33.2678C200.905 33.5491 200.878 33.8928 200.878 34.2991V36.1624C200.878 36.4905 200.896 36.7776 200.931 37.0237C200.97 37.2698 201.024 37.4807 201.095 37.6565C201.169 37.8323 201.257 37.9768 201.358 38.0901C201.464 38.1995 201.585 38.2815 201.722 38.3362C201.858 38.387 202.009 38.4124 202.173 38.4124C202.38 38.4124 202.562 38.3713 202.718 38.2893C202.878 38.2073 203.013 38.0784 203.122 37.9026C203.231 37.7229 203.313 37.4905 203.368 37.2053C203.427 36.9163 203.456 36.5686 203.456 36.1624ZM207.745 35.5881L206.509 35.2893L206.983 30.9827H211.677V32.2659H208.267L208.044 34.2581C208.165 34.1838 208.341 34.1096 208.571 34.0354C208.806 33.9573 209.069 33.9182 209.362 33.9182C209.769 33.9182 210.132 33.9846 210.452 34.1174C210.772 34.2463 211.044 34.4338 211.267 34.6799C211.493 34.926 211.663 35.2268 211.776 35.5823C211.894 35.9338 211.952 36.3323 211.952 36.7776C211.952 37.1682 211.894 37.5354 211.776 37.8792C211.663 38.219 211.489 38.5217 211.255 38.7874C211.021 39.0491 210.726 39.2561 210.37 39.4084C210.015 39.5569 209.597 39.6311 209.116 39.6311C208.753 39.6311 208.403 39.5784 208.067 39.4729C207.735 39.3635 207.437 39.2053 207.171 38.9983C206.905 38.7874 206.692 38.5295 206.532 38.2249C206.376 37.9202 206.29 37.5706 206.274 37.176H207.804C207.831 37.4377 207.901 37.6604 208.015 37.844C208.128 38.0276 208.276 38.1682 208.46 38.2659C208.647 38.3635 208.864 38.4124 209.11 38.4124C209.333 38.4124 209.524 38.3713 209.685 38.2893C209.849 38.2034 209.983 38.0842 210.089 37.9319C210.194 37.7795 210.272 37.5999 210.323 37.3928C210.374 37.1858 210.399 36.9592 210.399 36.7131C210.399 36.4749 210.37 36.2581 210.312 36.0627C210.253 35.8635 210.163 35.6917 210.042 35.5471C209.921 35.4026 209.769 35.2913 209.585 35.2131C209.405 35.135 209.194 35.0959 208.952 35.0959C208.628 35.0959 208.378 35.1448 208.202 35.2424C208.03 35.3401 207.878 35.4553 207.745 35.5881ZM213.212 38.7581C213.212 38.5237 213.292 38.3264 213.452 38.1663C213.612 38.0061 213.829 37.926 214.103 37.926C214.376 37.926 214.593 38.0061 214.753 38.1663C214.913 38.3264 214.993 38.5237 214.993 38.7581C214.993 38.9885 214.913 39.1838 214.753 39.344C214.593 39.5002 214.376 39.5784 214.103 39.5784C213.829 39.5784 213.612 39.5002 213.452 39.344C213.292 39.1838 213.212 38.9885 213.212 38.7581ZM218.169 34.5627H219.042C219.351 34.5627 219.604 34.51 219.804 34.4045C220.007 34.2952 220.157 34.1467 220.255 33.9592C220.356 33.7678 220.407 33.5471 220.407 33.2971C220.407 33.051 220.362 32.8381 220.272 32.6584C220.183 32.4749 220.046 32.3342 219.862 32.2366C219.683 32.135 219.452 32.0842 219.171 32.0842C218.944 32.0842 218.735 32.1292 218.544 32.219C218.356 32.3088 218.206 32.4377 218.093 32.6057C217.983 32.7698 217.929 32.967 217.929 33.1975H216.376C216.376 32.7366 216.497 32.3323 216.739 31.9846C216.985 31.6331 217.317 31.3577 217.735 31.1584C218.153 30.9592 218.62 30.8596 219.136 30.8596C219.698 30.8596 220.19 30.9534 220.612 31.1409C221.038 31.3245 221.368 31.5959 221.603 31.9553C221.841 32.3147 221.96 32.76 221.96 33.2913C221.96 33.5452 221.899 33.7991 221.778 34.053C221.661 34.303 221.487 34.5295 221.257 34.7327C221.03 34.9319 220.751 35.094 220.419 35.219C220.091 35.3401 219.714 35.4006 219.288 35.4006H218.169V34.5627ZM218.169 35.7581V34.9319H219.288C219.769 34.9319 220.185 34.9885 220.536 35.1018C220.892 35.2112 221.185 35.3674 221.415 35.5706C221.646 35.7698 221.815 36.0022 221.925 36.2678C222.038 36.5334 222.095 36.8186 222.095 37.1233C222.095 37.5217 222.021 37.8772 221.872 38.1897C221.724 38.4983 221.515 38.76 221.245 38.9749C220.979 39.1897 220.667 39.3538 220.308 39.467C219.948 39.5764 219.56 39.6311 219.142 39.6311C218.778 39.6311 218.425 39.5823 218.081 39.4846C217.741 39.3831 217.435 39.2327 217.161 39.0334C216.888 38.8303 216.671 38.5764 216.511 38.2717C216.351 37.9631 216.271 37.6057 216.271 37.1995H217.823C217.823 37.4338 217.88 37.6428 217.993 37.8264C218.11 38.01 218.271 38.1545 218.474 38.26C218.681 38.3616 218.913 38.4124 219.171 38.4124C219.456 38.4124 219.7 38.3616 219.903 38.26C220.11 38.1545 220.269 38.0061 220.378 37.8147C220.487 37.6194 220.542 37.387 220.542 37.1174C220.542 36.7971 220.481 36.5374 220.36 36.3381C220.239 36.1389 220.065 35.9924 219.839 35.8987C219.616 35.8049 219.351 35.7581 219.042 35.7581H218.169ZM229.108 38.2952V39.5139H223.331V38.4709L226.103 35.4768C226.392 35.1487 226.62 34.8635 226.788 34.6213C226.956 34.3792 227.075 34.1604 227.146 33.9651C227.22 33.7659 227.257 33.5764 227.257 33.3967C227.257 33.135 227.21 32.9065 227.116 32.7112C227.022 32.512 226.886 32.3577 226.706 32.2483C226.53 32.1389 226.313 32.0842 226.056 32.0842C225.771 32.0842 225.526 32.1506 225.323 32.2834C225.124 32.4124 224.972 32.592 224.866 32.8225C224.765 33.053 224.714 33.3167 224.714 33.6135H223.161C223.161 33.1096 223.278 32.6506 223.513 32.2366C223.747 31.8186 224.083 31.4846 224.521 31.2346C224.958 30.9846 225.478 30.8596 226.079 30.8596C226.665 30.8596 227.161 30.9573 227.567 31.1526C227.974 31.344 228.282 31.6174 228.493 31.9729C228.704 32.3284 228.81 32.7522 228.81 33.2444C228.81 33.5178 228.765 33.7874 228.675 34.053C228.585 34.3186 228.458 34.5823 228.294 34.844C228.134 35.1018 227.942 35.3635 227.72 35.6292C227.497 35.8948 227.249 36.1663 226.976 36.4436L225.312 38.2952H229.108Z" fill="white"/>
</g>
<defs>
<filter id="filter0_d_1704_15807" x="38.2002" y="0.013916" width="292.2" height="56" filterUnits="userSpaceOnUse" color-interpolation-filters="sRGB">
<feFlood flood-opacity="0" result="BackgroundImageFix"/>
<feColorMatrix in="SourceAlpha" type="matrix" values="0 0 0 0 0 0 0 0 0 0 0 0 0 0 0 0 0 0 127 0" result="hardAlpha"/>
<feOffset dx="-2"/>
<feGaussianBlur stdDeviation="2"/>
<feComposite in2="hardAlpha" operator="out"/>
<feColorMatrix type="matrix" values="0 0 0 0 0 0 0 0 0 0 0 0 0 0 0 0 0 0 0.25 0"/>
<feBlend mode="normal" in2="BackgroundImageFix" result="effect1_dropShadow_1704_15807"/>
<feBlend mode="normal" in="SourceGraphic" in2="effect1_dropShadow_1704_15807" result="shape"/>
</filter>
<filter id="filter1_d_1704_15807" x="82.4004" y="0.013916" width="292.2" height="56" filterUnits="userSpaceOnUse" color-interpolation-filters="sRGB">
<feFlood flood-opacity="0" result="BackgroundImageFix"/>
<feColorMatrix in="SourceAlpha" type="matrix" values="0 0 0 0 0 0 0 0 0 0 0 0 0 0 0 0 0 0 127 0" result="hardAlpha"/>
<feOffset dx="-2"/>
<feGaussianBlur stdDeviation="2"/>
<feComposite in2="hardAlpha" operator="out"/>
<feColorMatrix type="matrix" values="0 0 0 0 0 0 0 0 0 0 0 0 0 0 0 0 0 0 0.25 0"/>
<feBlend mode="normal" in2="BackgroundImageFix" result="effect1_dropShadow_1704_15807"/>
<feBlend mode="normal" in="SourceGraphic" in2="effect1_dropShadow_1704_15807" result="shape"/>
</filter>
<filter id="filter2_d_1704_15807" x="126.6" y="0.013916" width="292.2" height="56" filterUnits="userSpaceOnUse" color-interpolation-filters="sRGB">
<feFlood flood-opacity="0" result="BackgroundImageFix"/>
<feColorMatrix in="SourceAlpha" type="matrix" values="0 0 0 0 0 0 0 0 0 0 0 0 0 0 0 0 0 0 127 0" result="hardAlpha"/>
<feOffset dx="-2"/>
<feGaussianBlur stdDeviation="2"/>
<feComposite in2="hardAlpha" operator="out"/>
<feColorMatrix type="matrix" values="0 0 0 0 0 0 0 0 0 0 0 0 0 0 0 0 0 0 0.25 0"/>
<feBlend mode="normal" in2="BackgroundImageFix" result="effect1_dropShadow_1704_15807"/>
<feBlend mode="normal" in="SourceGraphic" in2="effect1_dropShadow_1704_15807" result="shape"/>
</filter>
<filter id="filter3_d_1704_15807" x="170.8" y="0.013916" width="292.2" height="56" filterUnits="userSpaceOnUse" color-interpolation-filters="sRGB">
<feFlood flood-opacity="0" result="BackgroundImageFix"/>
<feColorMatrix in="SourceAlpha" type="matrix" values="0 0 0 0 0 0 0 0 0 0 0 0 0 0 0 0 0 0 127 0" result="hardAlpha"/>
<feOffset dx="-2"/>
<feGaussianBlur stdDeviation="2"/>
<feComposite in2="hardAlpha" operator="out"/>
<feColorMatrix type="matrix" values="0 0 0 0 0 0 0 0 0 0 0 0 0 0 0 0 0 0 0.25 0"/>
<feBlend mode="normal" in2="BackgroundImageFix" result="effect1_dropShadow_1704_15807"/>
<feBlend mode="normal" in="SourceGraphic" in2="effect1_dropShadow_1704_15807" result="shape"/>
</filter>
</defs>
</svg>
