<svg width="14" height="14" viewBox="0 0 14 14" fill="none" xmlns="http://www.w3.org/2000/svg">
<path d="M3.88939 4.45483C3.82704 5.11983 3.78329 6.29671 4.17595 6.79765C4.17595 6.79765 3.9911 5.50483 5.64813 3.8828C6.31532 3.22983 6.46954 2.34171 6.23657 1.67561C6.10423 1.29827 5.86251 0.986552 5.65251 0.768895C5.53001 0.640927 5.62407 0.429833 5.80235 0.437489C6.88079 0.485614 8.6286 0.785301 9.37126 2.64905C9.6972 3.46718 9.72126 4.31265 9.56595 5.17233C9.46751 5.7214 9.11751 6.94202 9.91595 7.09186C10.4858 7.19905 10.7614 6.74624 10.885 6.4203C10.9364 6.28468 11.1147 6.25077 11.2109 6.35905C12.1734 7.4539 12.2555 8.74343 12.0564 9.85358C11.6714 11.9995 9.49813 13.5614 7.33907 13.5614C4.64188 13.5614 2.49485 12.0181 1.93813 9.22468C1.71392 8.09702 1.82767 5.86577 3.56673 4.29077C3.69579 4.17265 3.90689 4.27765 3.88939 4.45483Z" fill="url(#paint0_radial_945_14109)"/>
<path d="M8.32455 8.46781C7.33033 7.18812 7.77548 5.72797 8.01939 5.14609C8.0522 5.06953 7.9647 4.99734 7.8958 5.04437C7.46814 5.33531 6.59205 6.02 6.18408 6.98359C5.63173 8.28625 5.67111 8.9239 5.99814 9.70265C6.19501 10.1719 5.96642 10.2714 5.85158 10.2889C5.74001 10.3064 5.6372 10.232 5.55517 10.1544C5.31923 9.92777 5.15107 9.63993 5.06954 9.32312C5.05204 9.25531 4.96345 9.23672 4.92298 9.2925C4.61673 9.71578 4.45814 10.395 4.45048 10.8752C4.42642 12.3594 5.65251 13.5625 7.13564 13.5625C9.00486 13.5625 10.3666 11.4953 9.29251 9.76719C8.9808 9.26406 8.68767 8.93484 8.32455 8.46781Z" fill="url(#paint1_radial_945_14109)"/>
<defs>
<radialGradient id="paint0_radial_945_14109" cx="0" cy="0" r="1" gradientUnits="userSpaceOnUse" gradientTransform="translate(6.80486 13.5954) rotate(-179.751) scale(7.72053 12.6678)">
<stop offset="0.314" stop-color="#FF9800"/>
<stop offset="0.662" stop-color="#FF6D00"/>
<stop offset="0.972" stop-color="#F44336"/>
</radialGradient>
<radialGradient id="paint1_radial_945_14109" cx="0" cy="0" r="1" gradientUnits="userSpaceOnUse" gradientTransform="translate(7.23845 5.91263) rotate(90.5787) scale(8.07804 6.07933)">
<stop offset="0.214" stop-color="#FFF176"/>
<stop offset="0.328" stop-color="#FFF27D"/>
<stop offset="0.487" stop-color="#FFF48F"/>
<stop offset="0.672" stop-color="#FFF7AD"/>
<stop offset="0.793" stop-color="#FFF9C4"/>
<stop offset="0.822" stop-color="#FFF8BD" stop-opacity="0.804"/>
<stop offset="0.863" stop-color="#FFF6AB" stop-opacity="0.529"/>
<stop offset="0.91" stop-color="#FFF38D" stop-opacity="0.209"/>
<stop offset="0.941" stop-color="#FFF176" stop-opacity="0"/>
</radialGradient>
</defs>
</svg>
