<svg width="36" height="36" viewBox="0 0 36 36" fill="none" xmlns="http://www.w3.org/2000/svg">
<g clip-path="url(#clip0_567_3515)">
<path d="M26.6169 25.0067L3.17214 35.2079C1.64389 35.8161 0.125145 34.3105 0.720059 32.7771L10.9652 8.96338" fill="#FFB636"/>
<path d="M0.719893 32.7767L1.53411 30.8842L1.74343 30.5647C5.79322 24.3952 9.90235 18.2634 14.1518 12.2295L18.9166 17.1134C15.3215 19.5815 3.6482 31.6448 1.20308 34.8446C0.670815 34.355 0.412135 33.57 0.719893 32.7767Z" fill="#FFD469"/>
<path d="M21.4015 14.3744C25.7507 18.7235 28.1294 23.396 26.7146 24.8109C25.2999 26.2256 20.6273 23.8469 16.2782 19.4978C11.929 15.1487 9.5503 10.4761 10.9651 9.06128C12.3798 7.64645 17.0524 10.0252 21.4015 14.3744Z" fill="#A06C33"/>
<path d="M10.9409 23.0324C10.9409 23.4552 10.5982 23.7978 10.1755 23.7978C9.75286 23.7978 9.41016 23.4552 9.41016 23.0324C9.41016 22.6097 9.75279 22.2671 10.1755 22.2671C10.5982 22.2671 10.9409 22.6097 10.9409 23.0324Z" fill="#F7F9AA"/>
<path d="M35.2959 14.9876C35.2959 15.5942 34.8042 16.086 34.1975 16.086C33.5909 16.086 33.0991 15.5942 33.0991 14.9876C33.0991 14.3809 33.5909 13.8892 34.1975 13.8892C34.8042 13.8892 35.2959 14.3809 35.2959 14.9876ZM27.9607 29.6141C27.3541 29.6141 26.8623 30.1059 26.8623 30.7126C26.8623 31.3192 27.3541 31.811 27.9607 31.811C28.5674 31.811 29.0591 31.3192 29.0591 30.7126C29.0591 30.1059 28.5673 29.6141 27.9607 29.6141Z" fill="#FFB636"/>
<path d="M25.0281 5.59159C24.9338 6.22898 24.522 6.79197 23.8981 7.13622C23.4674 7.37387 22.9609 7.49741 22.4352 7.49741C22.2677 7.49726 22.1004 7.4849 21.9347 7.46043C21.5629 7.40544 21.1908 7.46155 20.9138 7.61434C20.7896 7.68283 20.5763 7.83266 20.5416 8.06701C20.507 8.30137 20.6679 8.50654 20.7668 8.608C20.9819 8.82843 21.31 8.98635 21.6703 9.04534C21.6802 9.0464 21.69 9.04675 21.7 9.04823C23.22 9.27295 24.3058 10.477 24.1202 11.7323C24.026 12.3697 23.6142 12.9327 22.9902 13.277C22.5595 13.5146 22.053 13.6382 21.5273 13.6382C21.3598 13.638 21.1925 13.6256 21.0269 13.6012C20.6551 13.5461 20.2828 13.6022 20.0059 13.7551C19.8817 13.8236 19.6684 13.9734 19.6337 14.2078C19.5781 14.5839 20.04 15.0804 20.7917 15.1915C21.2007 15.252 21.4833 15.6326 21.4229 16.0416C21.3679 16.4136 21.0482 16.6809 20.6832 16.6809C20.6467 16.6809 20.6098 16.6782 20.5727 16.6728C19.0526 16.4481 17.9669 15.244 18.1525 13.9887C18.2467 13.3513 18.6585 12.7883 19.2825 12.444C19.8488 12.1316 20.5461 12.0164 21.2459 12.1198C21.6177 12.1747 21.9898 12.1187 22.2668 11.9659C22.391 11.8974 22.6043 11.7476 22.639 11.5132C22.6936 11.1433 22.2469 10.6575 21.5166 10.536C21.5046 10.5348 21.4926 10.5339 21.4806 10.5321C20.7809 10.4286 20.1467 10.1167 19.695 9.65369C19.1974 9.14364 18.9661 8.48552 19.0604 7.84799C19.1546 7.21061 19.5664 6.64762 20.1903 6.30337C20.7567 5.9909 21.4539 5.87573 22.1537 5.97916C22.5254 6.034 22.8977 5.97803 23.1746 5.82524C23.2988 5.75676 23.5121 5.60692 23.5468 5.37257C23.5814 5.13822 23.4205 4.93305 23.3216 4.83159C23.1007 4.60518 22.7607 4.44374 22.3887 4.38883C21.9797 4.32836 21.6972 3.94776 21.7576 3.53868C21.8181 3.1296 22.1988 2.84737 22.6078 2.90748C23.3074 3.01098 23.9417 3.32289 24.3934 3.7859C24.891 4.29602 25.1224 4.95414 25.0281 5.59159Z" fill="#BEA4FF"/>
<path d="M5.74632 11.2281C5.74632 11.9156 5.18902 12.4729 4.50158 12.4729C3.81413 12.4729 3.25684 11.9156 3.25684 11.2281C3.25684 10.5407 3.81413 9.9834 4.50158 9.9834C5.18902 9.9834 5.74632 10.5406 5.74632 11.2281ZM27.9964 9.79004C27.2021 9.79004 26.5583 10.4339 26.5583 11.2281C26.5583 12.0223 27.2022 12.6661 27.9964 12.6661C28.7905 12.6661 29.4344 12.0223 29.4344 11.2281C29.4344 10.4339 28.7906 9.79004 27.9964 9.79004ZM15.154 27.8367C14.3597 27.8367 13.716 28.4805 13.716 29.2747C13.716 30.0689 14.3598 30.7127 15.154 30.7127C15.9482 30.7127 16.592 30.0689 16.592 29.2747C16.592 28.4805 15.9482 27.8367 15.154 27.8367ZM34.23 21.2522C34.4475 20.8311 34.2824 20.3134 33.8613 20.0959C33.6934 20.0093 33.493 19.8942 33.2609 19.7611C31.2224 18.5916 26.9807 16.1582 21.9862 20.1907C21.6174 20.4884 21.5599 21.0287 21.8576 21.3974C22.1552 21.7662 22.6955 21.8239 23.0644 21.526C27.1449 18.2315 30.4389 20.1208 32.4069 21.2499C32.6461 21.3871 32.8721 21.5168 33.0736 21.6208C33.1738 21.6726 33.2831 21.704 33.3954 21.7135C33.5077 21.723 33.6208 21.7102 33.7282 21.676C33.8355 21.6418 33.9351 21.5867 34.0212 21.514C34.1073 21.4413 34.1783 21.3523 34.23 21.2522Z" fill="#FF6E83"/>
<path d="M30.5746 4.41399C30.5746 4.83671 30.2319 5.17934 29.8093 5.17934C29.3866 5.17934 29.0439 4.83671 29.0439 4.41399C29.0439 3.99127 29.3866 3.64864 29.8093 3.64864C30.232 3.64857 30.5746 3.99127 30.5746 4.41399ZM3.25754 0.836351C2.83482 0.836351 2.49219 1.17898 2.49219 1.6017C2.49219 2.02442 2.83482 2.36705 3.25754 2.36705C3.68026 2.36705 4.02296 2.02442 4.02296 1.6017C4.02296 1.17898 3.68026 0.836351 3.25754 0.836351ZM15.2585 10.8247C15.3451 10.655 15.4518 10.4617 15.5648 10.2571C16.1382 9.21852 16.9233 7.79623 16.9705 6.13967C17.0273 4.14955 15.9908 2.34266 13.89 0.769203C13.5253 0.496039 13.0083 0.570359 12.7354 0.93493C12.4623 1.29957 12.5365 1.81651 12.9011 2.08953C14.571 3.34025 15.3628 4.64968 15.3216 6.09263C15.2858 7.34926 14.6398 8.51954 14.1207 9.45983C14.0011 9.6766 13.888 9.88128 13.7893 10.0749C13.5822 10.4806 13.7433 10.9774 14.149 11.1845C14.2649 11.2438 14.3931 11.2747 14.5233 11.2748C14.6754 11.2749 14.8246 11.2329 14.9544 11.1535C15.0842 11.074 15.1894 10.9603 15.2585 10.8247Z" fill="#59CAFC"/>
</g>
<defs>
<clipPath id="clip0_567_3515">
<rect width="36" height="36" fill="white"/>
</clipPath>
</defs>
</svg>
