<svg width="90" height="64" viewBox="0 0 90 64" fill="none" xmlns="http://www.w3.org/2000/svg">
<path d="M17.958 34.4404H30.0004V40.0086H17.958V46.608H36.3066V28.8034H24.1217V23.5789H36.3066V17.3921H17.958V34.4404Z" fill="url(#paint0_linear_2214_25356)"/>
<path d="M48.0284 17.3921H41.4015V46.608H48.0284V17.3921Z" fill="url(#paint1_linear_2214_25356)"/>
<path d="M65.7002 17.3921V28.8034H59.964V17.3921H53.7646V46.608H59.8571V34.0279H65.8427V46.608H72.0064V17.3921H65.7002Z" fill="url(#paint2_linear_2214_25356)"/>
<path d="M12.7918 28.8034H0.5V35.1966H12.7918V28.8034Z" fill="url(#paint3_linear_2214_25356)"/>
<path d="M89.5 28.8034H77.2082V35.1966H89.5V28.8034Z" fill="url(#paint4_linear_2214_25356)"/>
<path d="M48.0284 0H41.4015V11.8582H48.0284V0Z" fill="url(#paint5_linear_2214_25356)"/>
<path d="M48.0284 52.1418H41.4015V64H48.0284V52.1418Z" fill="url(#paint6_linear_2214_25356)"/>
<path d="M12.7918 28.8034H0.5V35.1966H12.7918V28.8034Z" fill="url(#paint7_linear_2214_25356)"/>
<path d="M12.7918 28.8034H0.5V35.1966H12.7918V28.8034Z" fill="url(#paint8_linear_2214_25356)"/>
<path d="M89.5 28.8034H77.2082V35.1966H89.5V28.8034Z" fill="url(#paint9_linear_2214_25356)"/>
<path d="M89.5 28.8034H77.2082V35.1966H89.5V28.8034Z" fill="url(#paint10_linear_2214_25356)"/>
<path d="M48.0284 0H41.4015V11.8582H48.0284V0Z" fill="url(#paint11_linear_2214_25356)"/>
<path d="M48.0284 0H41.4015V11.8582H48.0284V0Z" fill="url(#paint12_linear_2214_25356)"/>
<path d="M48.0284 52.1418H41.4015V64H48.0284V52.1418Z" fill="url(#paint13_linear_2214_25356)"/>
<path d="M48.0284 52.1418H41.4015V64H48.0284V52.1418Z" fill="url(#paint14_linear_2214_25356)"/>
<path d="M70.7594 5.87755H53.9427V11.8582H70.7594C74.2866 11.8582 77.1725 14.6423 77.1725 18.0451V23.3383H83.3719V18.0451C83.3363 11.3426 77.707 5.87755 70.7594 5.87755Z" fill="url(#paint15_linear_2214_25356)"/>
<path d="M6.59247 16.8765V23.3383H12.7918V16.8765C12.7918 14.1267 15.1077 11.8582 17.9936 11.8582H36.0216V5.87755H17.9936C11.723 5.87755 6.59247 10.8271 6.59247 16.8765Z" fill="url(#paint16_linear_2214_25356)"/>
<path d="M77.1725 45.8861C77.1725 49.2889 74.2866 52.073 70.7594 52.073H53.9427V58.0537H70.7594C77.707 58.0537 83.3719 52.5886 83.3719 45.8861V40.5929H77.1725V45.8861Z" fill="url(#paint17_linear_2214_25356)"/>
<path d="M12.7918 45.8861V40.5929H6.59247V45.8861C6.59247 52.5886 12.2574 58.0537 19.205 58.0537H36.0216V52.073H19.205C15.6777 52.073 12.7918 49.3233 12.7918 45.8861Z" fill="url(#paint18_linear_2214_25356)"/>
<defs>
<linearGradient id="paint0_linear_2214_25356" x1="-548.812" y1="-108.721" x2="646.518" y2="-108.721" gradientUnits="userSpaceOnUse">
<stop stop-color="white"/>
</linearGradient>
<linearGradient id="paint1_linear_2214_25356" x1="-548.812" y1="-108.721" x2="646.518" y2="-108.721" gradientUnits="userSpaceOnUse">
<stop stop-color="white"/>
</linearGradient>
<linearGradient id="paint2_linear_2214_25356" x1="-548.812" y1="-108.721" x2="646.518" y2="-108.721" gradientUnits="userSpaceOnUse">
<stop stop-color="white"/>
</linearGradient>
<linearGradient id="paint3_linear_2214_25356" x1="-548.812" y1="-108.721" x2="646.518" y2="-108.721" gradientUnits="userSpaceOnUse">
<stop stop-color="white"/>
</linearGradient>
<linearGradient id="paint4_linear_2214_25356" x1="-548.812" y1="-108.721" x2="646.518" y2="-108.721" gradientUnits="userSpaceOnUse">
<stop stop-color="white"/>
</linearGradient>
<linearGradient id="paint5_linear_2214_25356" x1="-548.812" y1="-108.721" x2="646.518" y2="-108.721" gradientUnits="userSpaceOnUse">
<stop stop-color="white"/>
</linearGradient>
<linearGradient id="paint6_linear_2214_25356" x1="-548.812" y1="-108.721" x2="646.518" y2="-108.721" gradientUnits="userSpaceOnUse">
<stop stop-color="white"/>
</linearGradient>
<linearGradient id="paint7_linear_2214_25356" x1="-548.812" y1="-108.721" x2="646.518" y2="-108.721" gradientUnits="userSpaceOnUse">
<stop stop-color="white"/>
</linearGradient>
<linearGradient id="paint8_linear_2214_25356" x1="-548.812" y1="-108.721" x2="646.518" y2="-108.721" gradientUnits="userSpaceOnUse">
<stop stop-color="white"/>
</linearGradient>
<linearGradient id="paint9_linear_2214_25356" x1="-548.812" y1="-108.721" x2="646.518" y2="-108.721" gradientUnits="userSpaceOnUse">
<stop stop-color="white"/>
</linearGradient>
<linearGradient id="paint10_linear_2214_25356" x1="-548.812" y1="-108.721" x2="646.518" y2="-108.721" gradientUnits="userSpaceOnUse">
<stop stop-color="white"/>
</linearGradient>
<linearGradient id="paint11_linear_2214_25356" x1="-548.812" y1="-108.721" x2="646.518" y2="-108.721" gradientUnits="userSpaceOnUse">
<stop stop-color="white"/>
</linearGradient>
<linearGradient id="paint12_linear_2214_25356" x1="-548.812" y1="-108.721" x2="646.518" y2="-108.721" gradientUnits="userSpaceOnUse">
<stop stop-color="white"/>
</linearGradient>
<linearGradient id="paint13_linear_2214_25356" x1="-548.812" y1="-108.721" x2="646.518" y2="-108.721" gradientUnits="userSpaceOnUse">
<stop stop-color="white"/>
</linearGradient>
<linearGradient id="paint14_linear_2214_25356" x1="-548.812" y1="-108.721" x2="646.518" y2="-108.721" gradientUnits="userSpaceOnUse">
<stop stop-color="white"/>
</linearGradient>
<linearGradient id="paint15_linear_2214_25356" x1="-548.812" y1="-108.721" x2="646.518" y2="-108.721" gradientUnits="userSpaceOnUse">
<stop stop-color="white"/>
</linearGradient>
<linearGradient id="paint16_linear_2214_25356" x1="-548.812" y1="-108.721" x2="646.518" y2="-108.721" gradientUnits="userSpaceOnUse">
<stop stop-color="white"/>
</linearGradient>
<linearGradient id="paint17_linear_2214_25356" x1="-548.812" y1="-108.721" x2="646.518" y2="-108.721" gradientUnits="userSpaceOnUse">
<stop stop-color="white"/>
</linearGradient>
<linearGradient id="paint18_linear_2214_25356" x1="-548.812" y1="-108.721" x2="646.518" y2="-108.721" gradientUnits="userSpaceOnUse">
<stop stop-color="white"/>
</linearGradient>
</defs>
</svg>
