<svg width="64" height="64" viewBox="3 3 58 58" fill="none" xmlns="http://www.w3.org/2000/svg">
  <g clip-path="url(#clip0_23799_27765)">
    <path fill-rule="evenodd" clip-rule="evenodd" d="M20 38.7046V42.384L10.4243 60H8.42431L20 38.7046ZM20 27.6667V31.346L4.42431 60H4V57.1013L20 27.6667ZM20 16.6287V20.308L4 49.7426V46.0633L20 16.6287ZM20 5.59072V9.27004L4 38.7046V35.0253L20 5.59072ZM14.8647 4H16.8647L4 27.6667V23.9873L14.8647 4ZM8.86468 4H10.8647L4 16.6287V12.9494L8.86468 4ZM4 5.59072V4H4.86468L4 5.59072ZM14.4243 60L20 49.7426V53.4219L16.4243 60H14.4243Z" fill="#0d91ec"/>
    <path fill-rule="evenodd" clip-rule="evenodd" d="M60 38.7046V42.384L50.4243 60H48.4243L60 38.7046ZM60 27.6667V31.346L44.4243 60H44V57.1013L60 27.6667ZM60 16.6287V20.308L44 49.7426V46.0633L60 16.6287ZM60 5.59072V9.27004L44 38.7046V35.0253L60 5.59072ZM54.8647 4H56.8647L44 27.6667V23.9873L54.8647 4ZM48.8647 4H50.8647L44 16.6287V12.9494L48.8647 4ZM44 5.59072V4H44.8647L44 5.59072ZM54.4243 60L60 49.7426V53.4219L56.4243 60H54.4243Z" fill="#0d91ec"/>
  </g>
  <defs>
    <clipPath id="clip0_23799_27765">
      <rect width="64" height="64" fill="white"/>
    </clipPath>
  </defs>
</svg>
