<svg width="56" height="56" viewBox="0 0 56 56" fill="none" xmlns="http://www.w3.org/2000/svg">
<path fill-rule="evenodd" clip-rule="evenodd" d="M20.5826 0H18.5826L14.2339 8H16.2339L20.5826 0ZM8 23.1477V19.4684L0 34.1857V37.865L8 23.1477ZM0 45.2236L8 30.5063V34.1857L0 48.903V45.2236ZM2.1422 56H0.142202L8 41.5443V45.2236L2.1422 56ZM8.1422 56H6.1422L10.4908 48H12.4908L8.1422 56ZM14.1422 56H12.1422L16.4908 48H18.4908L14.1422 56ZM20.1422 56H18.1422L22.4908 48H24.4908L20.1422 56ZM26.1422 56H24.1422L28.4908 48H30.4908L26.1422 56ZM32.1422 56H30.1422L34.4908 48H36.4908L32.1422 56ZM38.1422 56H36.1422L40.4908 48H42.4908L38.1422 56ZM44.1422 56H42.1422L46.4908 48H48V45.2236L56 30.5063V34.1857L44.1422 56ZM50.1422 56H48.1422L56 41.5443V45.2236L50.1422 56ZM56 52.5823V56H54.1422L56 52.5823ZM56 19.4684V23.1477L48 37.865V34.1857L56 19.4684ZM56 8.43038V12.1097L48 26.827V23.1477L56 8.43038ZM54.5826 0L56 0V1.07173L48 15.789V12.1097L54.5826 0ZM48.5826 0H50.5826L46.2339 8H44.2339L48.5826 0ZM42.5826 0H44.5826L40.2339 8H38.2339L42.5826 0ZM36.5826 0H38.5826L34.2339 8H32.2339L36.5826 0ZM30.5826 0H32.5826L28.2339 8H26.2339L30.5826 0ZM24.5826 0H26.5826L22.2339 8H20.2339L24.5826 0ZM0 26.827L8 12.1097V8.43038L0 23.1477V26.827ZM0 15.789L8.58257 0H6.58257L0 12.1097V15.789ZM0 4.75105L2.58257 0H0.582569L0 1.07173V4.75105ZM12.5826 0L8.23394 8H10.2339L14.5826 0H12.5826Z" fill="#293E59"/>
</svg>
