<svg width="52" height="32" viewBox="0 0 52 32" fill="none" xmlns="http://www.w3.org/2000/svg">
<path fill-rule="evenodd" clip-rule="evenodd" d="M52 21.2152V24.8945L48.1376 32H46.1376L52 21.2152ZM52 13.8565L42.1376 32H40.1376L52 10.1772V13.8565ZM52 2.81857L36.1376 32H34.1376L51.5321 0H52V2.81857ZM47.5321 0L30.1376 32H28.1376L45.5321 0H47.5321ZM26.3119 28L24.1376 32H22.1376L24.3119 28H26.3119ZM20.3119 28L18.1376 32H16.1376L18.3119 28H20.3119ZM14.3119 28L12.1376 32H10.1376L12.3119 28H14.3119ZM8.31193 28L6.13761 32H4.13761L6.31193 28H8.31193ZM4 24.8945L0.137615 32H0V28.5738L4 21.2152V24.8945ZM4 13.8565L0 21.2152V17.5359L4 10.1772V13.8565ZM5.53211 0L0 10.1772V6.49789L3.53211 0H5.53211ZM7.3578 4L9.53211 0H11.5321L9.3578 4H7.3578ZM13.3578 4L15.5321 0H17.5321L15.3578 4H13.3578ZM19.3578 4L21.5321 0H23.5321L21.3578 4H19.3578ZM25.3578 4L27.5321 0H29.5321L27.3578 4H25.3578ZM28 10.1772L33.5321 0H35.5321L28 13.8565V10.1772ZM28 21.2152L39.5321 0H41.5321L28 24.8945V21.2152ZM20 11C20 13.21 18.21 15 16 15C13.79 15 12 13.21 12 11C12 8.79 13.79 7 16 7C18.21 7 20 8.79 20 11ZM8 21C8 18.34 13.33 17 16 17C18.67 17 24 18.34 24 21V23H8V21Z" fill="#293E59"/>
</svg>
