<svg width="40" height="40" viewBox="0 0 40 40" fill="none" xmlns="http://www.w3.org/2000/svg">
<g clip-path="url(#clip0_23799_27663)">
<path d="M4.21667 32.75L6.45 33.6834V18.6334L2.4 28.4C1.71667 30.1 2.53334 32.05 4.21667 32.75ZM36.7167 26.5834L28.45 6.63337C27.9333 5.38337 26.7167 4.61671 25.4333 4.58337C25 4.58337 24.55 4.65004 24.1167 4.83337L11.8333 9.91671C10.5833 10.4334 9.81667 11.6334 9.78334 12.9167C9.76667 13.3667 9.85 13.8167 10.0333 14.25L18.3 34.2C18.8167 35.4667 20.05 36.2334 21.35 36.25C21.7833 36.25 22.2167 36.1667 22.6333 36L34.9 30.9167C36.6 30.2167 37.4167 28.2667 36.7167 26.5834ZM13.1333 14.5834C12.2167 14.5834 11.4667 13.8334 11.4667 12.9167C11.4667 12 12.2167 11.25 13.1333 11.25C14.05 11.25 14.8 12 14.8 12.9167C14.8 13.8334 14.05 14.5834 13.1333 14.5834ZM9.8 32.9167C9.8 34.75 11.3 36.25 13.1333 36.25H15.55L9.8 22.35V32.9167Z" fill="#0d91ec"/>
</g>
<defs>
<clipPath id="clip0_23799_27663">
<rect width="40" height="40" fill="white"/>
</clipPath>
</defs>
</svg>
