<svg width="774" height="264" viewBox="0 0 774 264" fill="none" xmlns="http://www.w3.org/2000/svg">
<g clip-path="url(#clip0_497_2550)">
<path d="M40.37 144.76L0 161.54L157.28 263.43L314.56 161.54L274.19 144.76H40.37Z" fill="#D2D4D4"/>
<path d="M314.56 67.12L157.28 0L0 67.12V118.67L34.15 140.79V86.49L157.28 33.41L280.41 86.49V140.79L314.56 118.67V67.12Z" fill="#5D6AA6"/>
<path d="M260.01 83.9L160.46 40.88V85.73L260.01 83.9Z" fill="#E9AC68"/>
<path d="M274.19 90L154.24 92.28V40.88L40.3701 90V144.76L157.28 220.57L274.19 144.76V90Z" fill="#5D6AA6"/>
<path d="M280.41 86.49V140.79L314.56 118.67V67.12L280.41 86.49Z" fill="#34539A"/>
<path d="M34.15 86.49L0 67.12V118.67L34.15 140.79V86.49Z" fill="#34539A"/>
<path d="M157.28 156.66L40.3701 90V144.76L157.28 220.57L274.19 144.76V90L157.28 156.66Z" fill="#34539A"/>
<path d="M410.34 103.205V115.125H379.14V160.225H366.56V103.205H410.34Z" fill="#11131A"/>
<path d="M434.31 143.635L459.37 103.205H474.72V160.225H462.14V119.595L436.98 160.225H421.53V103.205H434.31V143.635Z" fill="#11131A"/>
<path d="M489.28 103.205H501.86V126.155H528.21V103.205H540.99V160.225H528.21V138.175H501.86V160.225H489.28V103.205Z" fill="#11131A"/>
<path d="M603.78 103.205V115.125H584.96V160.225H572.08V115.125H553.46V103.205H603.78Z" fill="#11131A"/>
<path d="M617.15 120.795H660.63V131.425H617.15V120.795Z" fill="#11131A"/>
<path d="M718.38 160.225H705.5L688.46 121.385V160.225H675.88V103.205H692.42L711.93 148.005L731.54 103.205H747.49V160.225H735.51V121.385L718.37 160.225H718.38Z" fill="#11131A"/>
</g>
<defs>
<clipPath id="clip0_497_2550">
<rect width="774" height="263.43" fill="white"/>
</clipPath>
</defs>
</svg>
