<svg width="40" height="40" viewBox="0 0 40 40" fill="none" xmlns="http://www.w3.org/2000/svg">
<rect width="40" height="40" rx="8" fill="#334046"/>
<path d="M20 15.5073H29.6" stroke="#0D91EC" stroke-width="2" stroke-linecap="round" stroke-linejoin="round"/>
<path d="M10.4 15.5073H12.32" stroke="#0D91EC" stroke-width="2" stroke-linecap="round" stroke-linejoin="round"/>
<path d="M27.6801 24.147H29.6001" stroke="#0D91EC" stroke-width="2" stroke-linecap="round" stroke-linejoin="round"/>
<path d="M10.4 24.147H20" stroke="#0D91EC" stroke-width="2" stroke-linecap="round" stroke-linejoin="round"/>
<path d="M16 18C17.6568 18 19 16.6568 19 15C19 13.3431 17.6568 12 16 12C14.3431 12 13 13.3431 13 15C13 16.6568 14.3431 18 16 18Z" stroke="#0D91EC" stroke-width="2" stroke-linecap="round" stroke-linejoin="round"/>
<path d="M24 27C25.6568 27 27 25.6568 27 24C27 22.3432 25.6568 21 24 21C22.3432 21 21 22.3432 21 24C21 25.6568 22.3432 27 24 27Z" stroke="#0D91EC" stroke-width="2" stroke-linecap="round" stroke-linejoin="round"/>
</svg>
