<svg width="40" height="40" viewBox="0 0 40 40" fill="none" xmlns="http://www.w3.org/2000/svg">
<rect width="40" height="40" rx="8" fill="#334046"/>
<path d="M12.2 16.3126L19.0341 14.3339C19.0356 14.3334 19.037 14.3331 19.0385 14.3326L26.8667 12.0661C27.1151 11.9942 27.3769 11.9807 27.6315 12.0267C27.8861 12.0727 28.1264 12.1768 28.3333 12.3309C28.5403 12.485 28.7083 12.6849 28.824 12.9146C28.9397 13.1443 29 13.3976 29 13.6545V25.125C28.9997 25.563 28.8246 25.983 28.5132 26.2932C28.2018 26.6035 27.7793 26.7787 27.3381 26.7807C27.1785 26.7805 27.0197 26.7578 26.8666 26.7132L20.3328 24.8216V25.3456C20.3324 25.7842 20.1566 26.2047 19.8441 26.5149C19.5317 26.8251 19.1081 26.9995 18.6662 27H15.9995C15.5576 26.9995 15.134 26.8251 14.8215 26.5149C14.5091 26.2047 14.3333 25.7842 14.3328 25.3456V23.0844L12.2001 22.4669C11.8546 22.3655 11.5513 22.1562 11.3351 21.8701C11.1189 21.584 11.0014 21.2363 11 20.8787V17.9008C11.0014 17.5431 11.1188 17.1955 11.335 16.9094C11.5512 16.6233 11.8545 16.414 12.2 16.3126ZM27 24.6838V14.0956L20.3328 16.0259V22.7535L27 24.6838ZM16.3328 25.0147H18.3328V24.2425L16.3328 23.6635V25.0147ZM13 20.6305L15.6275 21.3912L15.6314 21.3924L18.3328 22.1745V16.6049L13 18.1489V20.6305Z" fill="#0D91EC"/>
<path d="M15.8452 8.87646C16.6677 8.54368 17.6254 8.88182 18.0483 9.68311L27.5483 27.6831L27.6235 27.8452C27.9563 28.6677 27.6182 29.6254 26.8169 30.0483C25.962 30.4994 24.9027 30.1715 24.4517 29.3169L14.9517 11.3169C14.5006 10.4621 14.8285 9.40268 15.6831 8.95166L15.8452 8.87646Z" fill="#0D91EC" stroke="#334046" stroke-width="1.5" stroke-linecap="round"/>
</svg>
