<svg width="40" height="40" viewBox="0 0 40 40" fill="none" xmlns="http://www.w3.org/2000/svg">
<rect width="40" height="40" rx="8" fill="#334046"/>
<path d="M28.9202 13.9621L27.5724 10.6C27.424 10.2299 27.1152 10 26.7666 10C26.4906 10 26.2333 10.1396 26.0421 10.3932L23.8655 13.2788C23.6501 13.5644 23.5953 13.8957 23.7153 14.1875C23.8353 14.4794 24.1063 14.6742 24.4588 14.7219L25.3239 14.8388C24.4664 20.557 22.0504 24.5226 18.1327 26.6358C15.0143 28.3178 12.032 28.1578 11.9717 28.1541C11.4712 28.1192 11.0366 28.5026 11.0022 29.0088C10.9678 29.5154 11.3468 29.9543 11.8487 29.989C11.8756 29.9909 12.0206 30 12.2628 30C13.2803 30 16.0123 29.839 18.9072 28.3028C21.0163 27.1835 22.7747 25.5663 24.1336 23.4963C25.6275 21.2205 26.6326 18.3943 27.1289 15.0827L27.9717 15.1966C28.0232 15.2036 28.0746 15.2072 28.1244 15.2072H28.1245C28.4337 15.2072 28.7017 15.0716 28.8596 14.8351C29.0226 14.5909 29.0448 14.2727 28.9202 13.9621Z" fill="#0D91EC"/>
<path d="M13.4951 18.2502C13.4951 19.2202 14.2451 20.0002 15.1651 20.0002H17.0451C17.8451 20.0002 18.4951 19.3202 18.4951 18.4702C18.4951 17.5602 18.0951 17.2302 17.5051 17.0202L14.4951 15.9702C13.9051 15.7602 13.5051 15.4402 13.5051 14.5202C13.5051 13.6802 14.1551 12.9902 14.9551 12.9902H16.8351C17.7551 12.9902 18.5051 13.7702 18.5051 14.7402" stroke="#0D91EC" stroke-width="2" stroke-linecap="round" stroke-linejoin="round"/>
<path d="M15.9951 12V21" stroke="#0D91EC" stroke-width="2" stroke-linecap="round" stroke-linejoin="round"/>
</svg>
