<svg width="40" height="40" viewBox="0 0 40 40" fill="none" xmlns="http://www.w3.org/2000/svg">
<rect width="40" height="40" rx="8" fill="#334046"/>
<path d="M10 22C10 18.2288 10 16.3431 11.1716 15.1716C12.3431 14 14.2288 14 18 14H22C25.7712 14 27.6569 14 28.8284 15.1716C30 16.3431 30 18.2288 30 22C30 25.7712 30 27.6569 28.8284 28.8284C27.6569 30 25.7712 30 22 30H18C14.2288 30 12.3431 30 11.1716 28.8284C10 27.6569 10 25.7712 10 22Z" stroke="#0D91EC" stroke-width="2"/>
<path d="M24 14C24 12.1144 24 11.1716 23.4142 10.5858C22.8284 10 21.8856 10 20 10C18.1144 10 17.1716 10 16.5858 10.5858C16 11.1716 16 12.1144 16 14" stroke="#0D91EC" stroke-width="2"/>
<path d="M20 25.3333C21.1046 25.3333 22 24.5871 22 23.6667C22 22.7462 21.1046 22 20 22C18.8954 22 18 21.2538 18 20.3333C18 19.4129 18.8954 18.6667 20 18.6667M20 25.3333C18.8954 25.3333 18 24.5871 18 23.6667M20 25.3333V26M20 18.6667V18M20 18.6667C21.1046 18.6667 22 19.4129 22 20.3333" stroke="#0D91EC" stroke-width="2" stroke-linecap="round"/>
</svg>
