<svg xmlns="http://www.w3.org/2000/svg" viewBox="0 0 162 73.16"><defs><style>.a{fill:#009ace;}.b{fill:#ffffff;}</style></defs><title>Align Technology logo - Brandlogos.net</title><path class="a" d="M501.83,475.42a5.44,5.44,0,1,0,5.44,5.44h0a5.42,5.42,0,0,0-5.41-5.43h0" transform="translate(-431 -475.42)"/><path class="b" d="M560.76,493.33h8.35l.13,3.48a12.29,12.29,0,0,1,9.59-4.53c9.17,0,14.17,5.67,14.17,15.55v23h-8.66V508.14c0-5.08-3.11-8-7.47-8s-7.45,2.92-7.45,8v22.71h-8.66Zm-73.11,37.52H479V476.31h8.67Zm18.53,0H497.5V493.33h8.68Zm-45.61-37.52h8.57v37.52h-8.57l-.14-3.93a16.82,16.82,0,0,1-11.62,5c-10.23,0-17.81-8.24-17.81-19.78,0-12.3,8.21-19.86,17.81-19.86a15,15,0,0,1,11.62,5Zm-20.71,18.81c0,7.2,4.41,12,10.55,12,5.59,0,10.59-4.1,10.59-12,0-7.71-4.79-12-10.56-12-6.44,0-10.58,5-10.58,12m102.87,0c0-7.82-4.93-12-10.54-12-6.7,0-10.57,5.45-10.57,12,0,6.91,4.17,12,10.57,12,5.89,0,10.54-4.38,10.54-12m8.17,15c0,16.1-9.42,21.44-20.51,21.44a29.32,29.32,0,0,1-13.42-3l2.15-7.44a22.69,22.69,0,0,0,11.2,2.92c6.45,0,11.93-4.14,11.93-11.59v-2.58a15.34,15.34,0,0,1-11.73,5c-10.1,0-17.74-8.13-17.74-19.82,0-11.2,7.19-19.81,17.78-19.81a14.9,14.9,0,0,1,11.64,5l.11-4h8.59Z" transform="translate(-431 -475.42)"/></svg>