<?xml version="1.0" encoding="utf-8"?>
<!-- Generator: Adobe Illustrator 28.0.0, SVG Export Plug-In . SVG Version: 6.00 Build 0)  -->
<svg version="1.1" id="Слой_1" xmlns="http://www.w3.org/2000/svg" xmlns:xlink="http://www.w3.org/1999/xlink" x="0px" y="0px"
	 viewBox="0 0 1000 253.7" style="enable-background:new 0 0 1000 253.7;" xml:space="preserve">
<style type="text/css">
	.st0{fill:#04E061;}
	.st1{fill:#FF4053;}
	.st2{fill:#965EEB;}
	.st3{fill:#00AAFF;}
</style>
<g>
	<path d="M382.1,5.7l-86.3,225.5h46.4l17.9-47.1h91.6l17.8,47.1h46l-86-225.5H382.1z M375.8,142.7L406,63.4l30,79.3H375.8z"/>
	<path d="M918,69.9c-16.2,0-32.1,4.8-45.6,13.8c-13.5,9-24,21.8-30.2,36.8c-6.2,15-7.8,31.5-4.7,47.4c3.2,15.9,11,30.5,22.5,42
		c11.5,11.5,26.1,19.3,42,22.5c15.9,3.2,32.4,1.5,47.4-4.7c15-6.2,27.8-16.7,36.8-30.2c9-13.5,13.8-29.4,13.8-45.6
		c0-21.8-8.6-42.6-24-58C960.6,78.6,939.7,69.9,918,69.9z M918,192c-7.9,0-15.6-2.3-22.2-6.7c-6.6-4.4-11.7-10.6-14.7-17.9
		c-3-7.3-3.8-15.3-2.3-23.1c1.5-7.8,5.3-14.9,10.9-20.5c5.6-5.6,12.7-9.4,20.5-10.9c7.8-1.5,15.8-0.8,23.1,2.3
		c7.3,3,13.5,8.1,17.9,14.7c4.4,6.6,6.7,14.3,6.7,22.2c0,5.2-1,10.5-3,15.3c-2,4.9-4.9,9.3-8.7,13c-3.7,3.7-8.1,6.7-13,8.7
		C928.4,190.9,923.2,192,918,192z"/>
	<path d="M570.8,173L533.4,72.8h-44.2l60.3,158.4h43.9l59.2-158.4h-44.2L570.8,173z"/>
	<path d="M791.7,30.7h-42.1v42.1H725v37.8h24.6V178c0,38.2,21.1,54.6,50.7,54.6c10,0.1,20-1.8,29.3-5.7v-39.2
		c-5,1.9-10.3,2.8-15.7,2.9c-12.8,0-22.1-5-22.1-22.1v-57.9h37.8V72.8h-37.8V30.7z"/>
	<path d="M687.1,61.4c16.9,0,30.7-13.7,30.7-30.7c0-16.9-13.7-30.7-30.7-30.7c-16.9,0-30.7,13.7-30.7,30.7
		C656.5,47.6,670.2,61.4,687.1,61.4z"/>
	<path d="M708.2,72.8h-42.1v158.4h42.1V72.8z"/>
	<path class="st0" d="M82.1,253.7c45.3,0,82.1-36.7,82.1-82.1c0-45.3-36.7-82.1-82.1-82.1C36.7,89.6,0,126.3,0,171.6
		C0,216.9,36.7,253.7,82.1,253.7z"/>
	<path class="st1" d="M224.4,243.3c27.4,0,49.6-22.2,49.6-49.6s-22.2-49.6-49.6-49.6s-49.6,22.2-49.6,49.6S197,243.3,224.4,243.3z"
		/>
	<path class="st2" d="M97.8,78.9c16.9,0,30.7-13.7,30.7-30.7s-13.7-30.7-30.7-30.7c-16.9,0-30.7,13.7-30.7,30.7S80.8,78.9,97.8,78.9
		z"/>
	<path class="st3" d="M205.2,133.4c36.8,0,66.7-29.9,66.7-66.7C271.9,29.9,242,0,205.2,0c-36.8,0-66.7,29.9-66.7,66.7
		C138.4,103.6,168.3,133.4,205.2,133.4z"/>
</g>
</svg>
