<?xml version="1.0" encoding="utf-8"?>
<!-- Generator: Adobe Illustrator 28.0.0, SVG Export Plug-In . SVG Version: 6.00 Build 0)  -->
<svg version="1.1" id="Слой_1" xmlns="http://www.w3.org/2000/svg" xmlns:xlink="http://www.w3.org/1999/xlink" x="0px" y="0px"
	 viewBox="0 0 1000 222.6327972" enable-background="new 0 0 1000 222.6327972" xml:space="preserve">
<g>
	<g>
		<path fill-rule="evenodd" clip-rule="evenodd" fill="#ED0007" d="M427.713623,107.8521957
			c12.3742981-4.7880554,20.4754333-16.7556305,20.3233337-30.0230942c0-27.0207863-19.1686096-40.4157028-45.496521-40.4157028
			h-69.0531616v146.9284058h75.0577393c23.094696,0,45.7275085-16.166275,45.7275085-40.877594
			C454.272522,114.0877686,427.713623,108.1293335,427.713623,107.8521957z M369.5150146,67.8983841h26.789856
			c7.2054138-0.4466324,13.4086304,5.0324326,13.8552551,12.2378464c0.0005188,0.0084763,0.0010681,0.0169601,0.0015564,0.0254364
			c0.0000305,0.5234756,0.0000305,1.0546494,0,1.5935287c-0.1516418,7.5185013-6.3373413,13.508316-13.8568115,13.4180145
			h-27.020813L369.5150146,67.8983841z M396.5357971,153.5796814h-26.7898254V124.711319h26.0970154
			c13.1639404,0,19.3995056,5.7736664,19.3995056,14.3187103
			C415.2424927,149.6997681,407.3902893,153.5796814,396.5357971,153.5796814z"/>
		<path fill-rule="evenodd" clip-rule="evenodd" fill="#ED0007" d="M533.7182617,33.7182465
			c-42.4942017,0-67.4364929,33.9491882-67.4364929,76.905304s24.9422913,76.9053192,67.4364929,76.9053192
			s67.4365234-33.7182465,67.4365234-76.9053192S576.4434204,33.7182465,533.7182617,33.7182465z M533.7182617,152.424942
			c-20.7852173,0-31.1778259-18.7066956-31.1778259-41.8013763s10.3926086-41.5704422,31.1778259-41.5704422
			s31.4088135,18.7066956,31.4088135,41.5704422C565.1270142,133.9491882,554.503479,152.424942,533.7182617,152.424942z"/>
		<path fill-rule="evenodd" clip-rule="evenodd" fill="#ED0007" d="M679.4457397,95.1501236l-5.0808716-1.1547394
			c-12.4710693-2.5404129-22.4018555-5.773674-22.4018555-14.7806015c0-9.6997681,9.4688721-13.6258698,17.782959-13.6258698
			c11.4667969,0.1707687,22.3447876,5.1077194,30.0230713,13.6258698l22.8637085-22.6327934
			c-10.3925781-11.7782936-27.2516479-23.0946884-53.5796509-23.0946884c-30.9468994,0-54.503479,17.3210144-54.503479,46.189373
			c0,26.3279495,18.9376221,39.2609711,42.0323486,44.1108551l5.0808716,1.1547318
			c19.1685181,3.9261017,26.3278809,6.9284058,26.3278809,16.1662903c0,8.7759857-7.8521729,14.5496521-19.8614502,14.5496521
			c-14.3187256,0-27.2516479-6.2355499-37.1824341-18.9376373l-23.3256226,23.094696
			c12.9329834,15.4734344,29.3302612,27.4826813,60.9699097,27.4826813c27.482666,0,56.8129883-15.7044067,56.8129883-47.806015
			C725.8660278,106.0046234,700.461853,99.5381088,679.4457397,95.1501236z"/>
		<path fill-rule="evenodd" clip-rule="evenodd" fill="#ED0007" d="M807.6212769,152.424942
			c-16.1662598,0-33.0253906-13.3949127-33.0253906-42.7251663c0-26.0970001,15.7043457-40.6466522,32.1016235-40.6466522
			c12.9330444,0,20.5542603,6.0046158,26.5588989,16.3972244l29.5611572-19.6304855
			c-14.7805786-22.4018478-32.3325806-31.8706665-56.5819702-31.8706665c-44.3418579,0-68.3602905,34.4110794-68.3602905,75.9815292
			c0,43.6489563,26.5588989,77.8291016,67.8983765,77.8291016c29.0993042,0,42.9561157-10.1616669,57.9676514-31.8706818
			l-29.7921143-20.0461884C827.9445801,145.4965363,821.4780884,152.424942,807.6212769,152.424942z"/>
		<polygon fill-rule="evenodd" clip-rule="evenodd" fill="#ED0007" points="961.4318237,37.4133949 961.4318237,91.4549637 
			916.8591309,91.4549637 916.8591309,37.4133949 878.2909546,37.4133949 878.2909546,184.2956238 916.8591309,184.2956238 
			916.8591309,126.3279495 961.4318237,126.3279495 961.4318237,184.2956238 1000,184.2956238 1000,37.4133949 		"/>
	</g>
	<g>
		<path d="M111.3163986,0.000002C49.838047,0.000002,0,49.8380508,0,111.3163986s49.838047,111.3163986,111.3163986,111.3163986
			s111.3163986-49.8380585,111.3163986-111.3163986S172.794754,0.0000015,111.3164062,0
			C111.3163986,0,111.3163986,0,111.3163986,0.000002z M111.3163986,212.2401886
			c-55.7386703,0-100.92379-45.1851196-100.92379-100.92379s45.1851196-100.9237823,100.92379-100.9237823
			s100.92379,45.1851158,100.92379,100.9237823C212.2274475,167.0497894,167.0497894,212.2274475,111.3163986,212.2401886z"/>
		<path d="M157.274826,41.8013878h-7.6212463v38.1062355H73.2101593V41.8013878h-7.8521957
			C26.9658813,67.1291046,16.3751221,118.7842102,41.7028427,157.1763
			c6.2038536,9.4038849,14.2512321,17.4512634,23.6551208,23.6551208h7.8521957v-38.0600586h76.4434204v38.1062317h7.6212616
			c38.3920746-25.3045502,49.0016327-76.9408493,23.6970978-115.3329315
			c-6.2111816-9.4235916-14.2735138-17.4859238-23.6970978-23.6970863L157.274826,41.8013878z M62.5866051,165.8660583
			c-30.1203804-26.7628937-32.8421631-72.8759003-6.0792656-102.9962845
			c0.0017853-0.0020103,0.0035706-0.0040245,0.0053596-0.006031c1.9077301-2.1309814,3.9356689-4.1512108,6.0739021-6.0508118
			L62.5866051,165.8660583z M149.6535797,132.1478119H73.2101593v-41.84758h76.4434204V132.1478119z M160.0461884,165.6351166
			v-23.094696l0,0V79.9076233l0,0V56.8129311c30.0366974,26.9714546,32.5215912,73.1856995,5.5501556,103.2223969
			c-0.0101624,0.011322-0.0203552,0.022644-0.0305176,0.0339508c-1.7463379,1.9311066-3.5885315,3.7733002-5.5196381,5.5196381
			V165.6351166z"/>
	</g>
</g>
</svg>
