<?xml version="1.0" encoding="utf-8"?>
<!-- Generator: Adobe Illustrator 28.0.0, SVG Export Plug-In . SVG Version: 6.00 Build 0)  -->
<svg version="1.1" id="Слой_1" xmlns="http://www.w3.org/2000/svg" xmlns:xlink="http://www.w3.org/1999/xlink" x="0px" y="0px"
	 viewBox="0 0 1000 527.0819702" style="enable-background:new 0 0 1000 527.0819702;" xml:space="preserve">
<style type="text/css">
	.st0{fill:#02C8FF;}
</style>
<g>
	<rect x="282.8148499" y="350.1988831" class="st0" width="43.8494797" height="173.7581329"/>
	<path class="st0" d="M680.2338867,400.0016174c-1.7863159-0.9070129-15.9151611-9.2819519-36.8953857-9.2819519
		c-28.3301392,0-48.0074463,19.7505798-48.0074463,46.3676758c0,25.8119507,18.8283691,46.3828735,48.0074463,46.3828735
		c20.6138306,0,34.9473267-8.1988831,36.8953857-9.2238464v46.6312561
		c-5.4902954,1.5370483-20.4976196,6.1784668-39.9550781,6.1784668c-49.3407593,0-92.6187744-33.9813538-92.6187744-89.96875
		c0-51.9017944,39.1647339-89.9535217,92.6187744-89.9535217c20.5700073,0,35.7962646,5.0220947,39.9550781,6.2365112V400.0016174z"
		/>
	<path class="st0" d="M222.5510712,400.0016174c-1.7572784-0.9070129-15.8709717-9.2819519-36.8368683-9.2819519
		c-28.4034119,0-48.051239,19.7505798-48.051239,46.3676758c0,25.8119507,18.8279266,46.3828735,48.051239,46.3828735
		c20.6147003,0,34.9477692-8.1988831,36.8368683-9.2238464v46.6312561
		c-5.4613037,1.5370483-20.3948822,6.1784668-39.9846191,6.1784668c-49.2960358,0-92.5307007-33.9813538-92.5307007-89.96875
		c0-51.9017944,39.1647186-89.9535217,92.5307007-89.9535217c20.6290131,0,35.8556976,5.0220947,39.9846191,6.2365112V400.0016174z"
		/>
	<path class="st0" d="M818.1680908,391.3755798c-26.0166016,0-45.3427124,20.4824524-45.3427124,45.7081909
		c0,25.2704163,19.3261108,45.7385864,45.3427124,45.7385864c25.9879761,0,45.3721924-20.4681702,45.3721924-45.7385864
		C863.5402832,411.8580322,844.1560669,391.3755798,818.1680908,391.3755798 M909.9821167,437.0837708
		c0,49.6918945-38.3600464,89.9981995-91.8140259,89.9981995s-91.7541504-40.3063049-91.7541504-89.9981995
		c0-49.632019,38.3001709-89.9535217,91.7541504-89.9535217S909.9821167,387.4517517,909.9821167,437.0837708"/>
	<path class="st0" d="M492.9630432,389.717926c-0.6442871-0.2189331-19.1067505-5.3143005-34.2744446-5.3143005
		c-17.5692749,0-27.1295776,5.8853149-27.1295776,14.2459412c0,10.5705261,12.8836365,14.2602539,20.1017761,16.5443115
		l12.0932312,3.8505859c28.4619446,9.0621033,41.4340515,28.5347595,41.4340515,49.7052917
		c0,43.6591187-38.3886108,58.3295288-71.9454956,58.3295288c-23.3232422,0-45.1671143-4.3045044-47.3193665-4.7584229v-39.9837341
		c3.8648682,0.9659729,22.2540283,6.4563293,41.4045715,6.4563293c21.8148193,0,31.843811-6.3687744,31.843811-16.2217102
		c0-8.799408-8.6818848-13.8947754-19.5602417-17.3056641c-2.6500244-0.878418-6.6323853-2.1375427-9.3556519-3.0159607
		c-24.421051-7.7306213-44.786438-22.0793152-44.786438-50.8339233c0-32.5024109,24.3477478-54.3172302,64.7568359-54.3172302
		c21.3461304,0,41.4335938,5.1677551,42.7369385,5.5046387V389.717926z"/>
	<path class="st0" d="M43.5425224,163.474472c0-11.976181-9.7805672-21.6977692-21.7567406-21.6977692
		C9.7948675,141.7767029,0,151.498291,0,163.474472v45.6072083c0,12.0494385,9.7948675,21.7710419,21.7857819,21.7710419
		c11.9761734,0,21.7567406-9.7216034,21.7567406-21.7710419V163.474472z"/>
	<path class="st0" d="M163.1161346,103.6079102c0-11.9761734-9.7805786-21.712059-21.7567444-21.712059
		c-12.005661,0-21.7857819,9.7358856-21.7857819,21.712059v105.4880676c0,12.035141,9.7801208,21.7567444,21.7857819,21.7567444
		c11.9761658,0,21.7567444-9.7216034,21.7567444-21.7567444V103.6079102z"/>
	<path class="st0" d="M282.6915283,21.6977615C282.6915283,9.721591,272.9109497,0,260.9347839,0
		c-12.005661,0-21.7857819,9.721591-21.7857819,21.6977615v230.7267151c0,12.0494537,9.7801208,21.7710419,21.7857819,21.7710419
		c11.9761658,0,21.7567444-9.7215881,21.7567444-21.7710419V21.6977615z"/>
	<path class="st0" d="M402.265564,103.6079102c0-11.9761734-9.7805481-21.712059-21.7567444-21.712059
		c-12.0056458,0-21.7857666,9.7358856-21.7857666,21.712059v105.4880676c0,12.035141,9.7801208,21.7567444,21.7857666,21.7567444
		c11.9761963,0,21.7567444-9.7216034,21.7567444-21.7567444V103.6079102z"/>
	<path class="st0" d="M521.7047119,163.474472c0-11.976181-9.7073059-21.6977692-21.6397095-21.6977692
		c-11.9909058,0-21.7710266,9.7215881-21.7710266,21.6977692v45.6072083c0,12.0494385,9.7801208,21.7710419,21.7710266,21.7710419
		c11.9324036,0,21.6397095-9.7216034,21.6397095-21.7710419V163.474472z"/>
	<path class="st0" d="M641.3296509,103.6079102c0-11.9761734-9.7072754-21.712059-21.7129517-21.712059
		c-11.9466553,0-21.6834717,9.7358856-21.6834717,21.712059v105.4880676c0,12.035141,9.7368164,21.7567444,21.6834717,21.7567444
		c12.0056763,0,21.7129517-9.7216034,21.7129517-21.7567444V103.6079102z"/>
	<path class="st0" d="M760.989502,21.6977615C760.989502,9.721591,751.2965088,0,739.2765503,0
		c-11.9761353,0-21.6834717,9.721591-21.6834717,21.6977615v230.7267151c0,12.0494537,9.7073364,21.7710419,21.6834717,21.7710419
		c12.0199585,0,21.7129517-9.7215881,21.7129517-21.7710419V21.6977615z"/>
	<path class="st0" d="M880.616272,103.6079102c0-11.9761734-9.7215576-21.712059-21.9765625-21.712059
		c-11.9761353,0-21.7120361,9.7358856-21.7120361,21.712059v105.4880676c0,12.035141,9.7359009,21.7567444,21.7120361,21.7567444
		c12.2550049,0,21.9765625-9.7216034,21.9765625-21.7567444V103.6079102z"/>
	<path class="st0" d="M1000,163.474472c0-11.976181-9.7367554-21.6977692-21.7129517-21.6977692
		c-11.9904785,0-21.7120361,9.7215881-21.7120361,21.6977692v45.6072083c0,12.0494385,9.7215576,21.7710419,21.7120361,21.7710419
		c11.9761963,0,21.7129517-9.7216034,21.7129517-21.7710419V163.474472z"/>
</g>
</svg>
