<svg width="1116" height="208" viewBox="0 0 1116 208" fill="none" xmlns="http://www.w3.org/2000/svg">
<path d="M1111.69 158.536H962.043V153.463H1111.69V158.536ZM1037.12 130.127L1051.32 116.429L1056.9 122.01L1041.68 134.692C1040.67 136.214 1039.66 138.751 1038.64 140.273H1027.48C1029.27 135.78 1032.72 132.148 1037.12 130.127ZM989.435 43.8827C988.928 43.8827 977.768 46.9266 977.768 46.9266C975.164 47.9602 972.624 49.146 970.159 50.4778C967.623 51.9998 965.086 54.5364 965.086 56.0583L975.232 58.5949C976.624 56.9486 978.151 55.4214 979.797 54.0291L982.334 53.0144L990.45 44.39C990.957 43.8827 990.957 43.3754 989.182 43.8827H989.435ZM1057.92 71.2778C1051.74 64.5305 1045.98 57.415 1040.67 49.9705C1044.49 40.4865 1045.89 30.1983 1044.73 20.0388C1042.66 16.2985 1040.28 12.7353 1037.63 9.38516C1036.61 7.86321 1032.05 2.79004 1030.02 2.79004C1029.51 2.79004 1029 2.79004 1029 3.29736L1029.51 8.87784C1022.92 12.9364 1015.31 18.0096 1008.71 23.0827C1008.58 25.1259 1008.75 27.1771 1009.22 29.1705C1010.29 30.0339 1011.48 30.7191 1012.77 31.1998C1017.29 30.1096 1021.86 29.2629 1026.47 28.6632L1017.84 41.3461L1007.7 48.4486L995.523 44.39C994.508 44.39 994.001 44.39 993.494 44.8974L984.363 54.5364C984.053 54.7778 983.802 55.0853 983.626 55.4364C983.451 55.7874 983.356 56.1732 983.348 56.5656L982.841 67.2193V70.7705C982.673 74.9494 983.925 79.062 986.392 82.4388L991.972 73.8144C990.825 71.9244 989.97 69.872 989.435 67.7266V58.5949L995.015 54.5364L1010.23 65.19C1012.54 69.4983 1015.26 73.5754 1018.35 77.3656C1025.11 83.2773 1032.42 88.5425 1040.16 93.0925C1040.81 97.068 1041.83 100.974 1043.21 104.761L1061.47 123.532L1050.82 137.229C1048.76 138.311 1047.03 139.91 1045.78 141.867C1044.54 143.825 1043.82 146.073 1043.71 148.39H1056.4L1057.92 141.288L1073.14 124.546C1074.15 123.532 1074.15 123.024 1073.64 122.01L1069.58 107.805C1073.44 103.421 1075.75 97.8986 1076.18 92.0778C1076.18 78.3803 1062.48 74.8291 1057.92 71.0242V71.2778ZM1080.74 93.5998C1079.81 90.2997 1078.63 87.077 1077.19 83.9608C1077.19 83.9608 1077.7 83.4534 1079.22 83.9608C1080.74 84.4681 1088.35 90.0486 1088.35 90.0486C1092.41 95.6291 1094.95 119.98 1094.95 128.605C1090.5 126.746 1086.39 124.176 1082.77 120.995L1080.74 93.5998ZM692.174 88.0193C692.174 78.8876 689.13 71.7852 681.521 71.7852C673.912 71.7852 670.361 78.8876 670.361 88.0193V148.39H679.492V158.029H628.257V148.39H637.895V65.19H628.257V55.8047H668.332V71.5315H668.839C671.092 66.266 674.84 61.7771 679.619 58.621C684.398 55.4648 689.998 53.7801 695.724 53.7754C702.042 53.3963 708.278 55.3603 713.238 59.2915C718.199 63.2227 721.535 68.845 722.61 75.0827C723.597 80.6092 724.106 86.2104 724.132 91.8242V148.644H736.306V158.283H691.666L692.174 87.7656M484.699 87.7656C484.699 78.6339 481.655 71.5315 474.046 71.5315C466.437 71.5315 462.886 78.6339 462.886 87.7656V148.136H472.017V157.775H420.783V148.136H430.421V65.19H420.783V55.8047H460.857V71.5315H461.365C463.618 66.266 467.366 61.7771 472.145 58.621C476.923 55.4648 482.523 53.7801 488.25 53.7754C494.568 53.3963 500.803 55.3603 505.764 59.2915C510.724 63.2227 514.061 68.845 515.135 75.0827C516.122 80.6092 516.632 86.2104 516.657 91.8242V148.644H528.832V158.283H484.192L484.699 87.7656ZM780.439 64.9364V140.527C780.362 141.412 780.479 142.304 780.783 143.139C781.087 143.975 781.57 144.733 782.199 145.362C782.827 145.99 783.586 146.474 784.421 146.778C785.256 147.082 786.148 147.199 787.034 147.122C789.1 147.07 791.149 146.728 793.121 146.107V155.239C787.013 158.352 780.177 159.754 773.337 159.297C757.612 159.297 747.974 151.688 747.974 134.946V65.19H737.321V58.5949C749.495 48.9559 763.699 37.7949 774.859 28.6632H780.946V55.8047H796.418V64.9364H780.439ZM140.768 2.79004C140.768 2.79004 165.625 27.6486 176.785 40.3315V49.9705C162.362 36.774 143.575 29.3671 124.028 29.1705C77.8663 29.1705 48.9518 64.1754 48.9518 107.297C48.9518 150.419 76.3445 184.917 124.028 184.917C133.979 185 143.84 183.04 153.002 179.156C162.164 175.273 170.431 169.55 177.292 162.341V171.473C163.088 191.258 136.71 203.941 103.737 203.941C44.8936 204.449 4.31177 161.834 4.31177 107.551C4.40423 94.6145 7.05392 81.824 12.1083 69.9155C17.1627 58.0071 24.5221 47.2159 33.7628 38.163C43.0036 29.11 53.9433 21.9741 65.9523 17.1658C77.9614 12.3575 90.8027 9.97189 103.737 10.1461C116.327 10.1849 128.829 12.2402 140.768 16.2339V2.79004ZM613.039 131.141C610.317 134.364 606.884 136.911 603.012 138.584C599.139 140.256 594.931 141.008 590.719 140.78C581.588 140.78 566.877 135.707 566.37 111.863H621.155C621.155 109.834 621.663 106.283 621.663 104.253C621.663 75.3364 609.995 54.0291 579.052 54.0291C548.108 54.0291 532.383 77.873 532.383 107.297C532.383 136.722 548.108 160.058 579.052 160.058C587.342 160.502 595.577 158.472 602.712 154.227C609.847 149.981 615.56 143.712 619.126 136.214L613.039 131.141ZM565.863 101.717C565.863 74.8291 567.892 64.6827 577.023 64.6827C586.154 64.6827 588.183 74.3217 588.69 101.717H565.863ZM113.883 106.79C113.883 75.3364 116.926 61.6388 127.579 61.6388C138.232 61.6388 141.275 75.3364 141.275 106.79C141.275 138.244 138.232 151.941 127.579 151.941C116.926 151.941 113.883 138.244 113.883 106.79ZM75.8372 107.297C75.8372 138.244 94.6063 163.61 127.579 163.61C160.552 163.61 179.321 138.244 179.321 107.297C179.321 76.351 160.552 50.7315 127.579 50.7315C94.6063 50.7315 75.8372 76.0974 75.8372 107.044M251.354 87.7656C251.354 78.6339 248.31 71.5315 240.701 71.5315C233.092 71.5315 229.541 78.6339 229.541 87.7656V148.136H238.418V157.775H187.437V148.136H197.075V65.19H187.437V55.8047H227.512V71.5315H228.019C230.272 66.266 234.02 61.7771 238.799 58.621C243.578 55.4648 249.178 53.7801 254.905 53.7754C261.222 53.3963 267.458 55.3603 272.418 59.2915C277.379 63.2227 280.715 68.845 281.79 75.0827C282.777 80.6092 283.286 86.2104 283.312 91.8242V148.644H295.486V158.283H250.846V88.0193L251.354 87.7656ZM367.519 28.4095C367.519 37.5413 375.635 43.6291 387.303 43.6291C398.97 43.6291 407.086 37.5413 407.086 28.4095C407.086 19.2778 398.97 13.19 387.303 13.19C375.635 13.19 367.519 19.7852 367.519 28.4095ZM339.619 64.9364V140.527C339.542 141.412 339.659 142.304 339.963 143.139C340.267 143.975 340.75 144.733 341.379 145.362C342.007 145.99 342.766 146.474 343.601 146.778C344.436 147.082 345.328 147.199 346.214 147.122C348.28 147.07 350.329 146.728 352.301 146.107V155.239C346.193 158.352 339.357 159.754 332.517 159.297C316.792 159.297 307.154 151.688 307.154 134.946V65.19H296.501V58.5949C308.675 48.9559 322.879 37.7949 334.039 28.6632H339.873V55.8047H352.555V64.9364H339.619ZM938.201 148.644H950.883V158.283H905.735V27.6486H894.575V18.0096H938.455V148.897L938.201 148.644ZM851.457 107.551C849.451 105.963 846.898 105.234 844.355 105.522C834.717 105.522 832.688 115.161 832.688 124.8C832.688 134.439 835.732 142.049 843.848 142.049C845.267 142.186 846.699 141.981 848.023 141.451C849.346 140.922 850.524 140.083 851.457 139.005V107.551ZM852.472 146.107C849.564 150.562 845.57 154.203 840.866 156.688C836.163 159.173 830.905 160.42 825.586 160.312C808.846 160.312 798.701 146.107 798.701 128.858C798.701 108.566 813.412 95.3754 836.746 95.3754C841.73 95.1979 846.707 95.8845 851.457 97.4047V90.8096C851.674 88.29 851.337 85.7537 850.47 83.3781C849.603 81.0025 848.227 78.8451 846.44 77.057C844.652 75.2689 842.494 73.8932 840.119 73.0264C837.744 72.1596 835.207 71.8225 832.688 72.0388C828.107 72.048 823.596 73.159 819.535 75.2781C815.474 77.3972 811.982 80.4622 809.354 84.2144L803.774 77.112C808.037 70.1292 813.988 64.3316 821.08 60.2534C828.172 56.1751 836.176 53.9474 844.355 53.7754C869.212 53.7754 883.923 68.4876 883.923 90.8096V148.644H894.575V158.283H852.979L852.472 146.107ZM361.939 158.283V148.644H371.07V65.19H361.939V55.8047H403.535V148.644H413.174V158.283H361.939Z" fill="#F7A000"/>
</svg>
