<svg width="1000" height="315" viewBox="0 0 1000 315" fill="none" xmlns="http://www.w3.org/2000/svg">
<g clip-path="url(#clip0_507_2576)">
<path d="M488.739 314.505C441.073 312.769 392.107 301.145 342.047 279.681C321.674 270.946 300.128 260.126 278.203 247.619C263.742 239.37 230.64 219.11 228.797 217.38C227.638 216.292 227.184 215.271 227.184 213.752C227.184 210.941 229.205 208.933 232.028 208.937C233.492 208.939 233.846 209.094 237.302 211.236C251.175 219.835 270.363 229.575 289.06 237.508C376.138 274.456 479.3 287.43 578.329 273.888C645.958 264.639 710.964 242.999 761.673 212.854C768.989 208.505 769.664 208.276 771.855 209.406C774.883 210.966 775.54 214.785 773.182 217.122C772.254 218.04 771.116 218.769 754.471 229.104C710.079 256.665 674.239 274.861 636.922 288.784C586.729 307.51 536.43 316.241 488.739 314.505Z" fill="#E30613"/>
<path fill-rule="evenodd" clip-rule="evenodd" d="M0 4.86425C0 4.86425 0.9386 7.81828 1.8465 16.2135C2.9349 37.1271 2.9926 54.4624 3.1184 73.7915C3.369 88.7175 3.2224 103.262 3.0934 117.267C3.0064 126.751 2.9408 131.921 2.9408 140.545C2.9408 166.206 0.9054 184.191 0.9054 184.191C0.9054 184.191 19.8771 188.273 48.5129 188.273C77.1587 188.273 107.552 178.361 125.09 163.488C142.624 148.616 158.404 127.328 158.404 89.1334C158.404 50.9372 142.039 29.9415 120.414 16.2393C98.7835 2.53086 65.7589 -0.08916 40.3301 1.07518C14.9075 2.24423 0.8797 4.86425 0 4.86425ZM995.999 148.616L957.742 139.579C947.704 149.488 936.858 154.412 922.931 154.156C894.255 153.631 880.005 136.768 874.706 108.959H998.034C999.786 99.0455 1000.36 88.5481 999.781 78.635C998.61 58.6123 992.446 40.1832 979.909 24.4028C967.498 8.77961 946.148 0.58628 919.75 0.78226C894.963 0.96985 874.703 9.4451 858.665 26.4454C843.592 42.416 834.57 66.771 834.99 98.4617C835.393 128.568 843.071 150.984 861.878 169.32C874.97 182.085 892.569 188.903 915.654 188.854C959.641 187.53 977.919 173.386 995.999 148.616ZM964.683 78.0554H876.154C877.716 55.2104 898.68 33.9335 920.89 34.0388C943.879 34.1441 963.623 50.5494 964.683 78.0554ZM576.477 35.3498C605.754 35.3498 629.496 61.7924 629.496 94.3991C629.496 127.006 605.754 153.45 576.477 153.45C547.21 153.45 523.464 127.006 523.464 94.3991C523.464 61.7924 547.21 35.3498 576.477 35.3498ZM577.617 0C626.746 0 666.582 42.5868 666.582 94.3991C666.582 146.212 625.606 188.228 576.477 188.228C527.358 188.228 487.518 146.212 487.518 94.3991C487.518 42.5868 528.499 0 577.617 0ZM674.291 181.858H714.008V62.0136C750.348 93.7991 777.124 133.749 793.197 181.858L827.316 182.061V6.0286L789.285 6.02865L789.244 92.2717C777.338 72.4063 762.758 56.0678 748.424 41.9831C734.067 27.8764 722.406 15.9315 707.871 6.02865H674.291L674.291 181.858ZM327.33 181.858H365.909V62.0136C402.247 93.7991 428.459 133.749 444.532 181.858H479.017V6.02859H440.435V90.8668C418.018 58.6432 390.861 29.6994 359.776 6.02859H327.33V181.858ZM217.152 6.02859H254.561C290.886 46.1248 313.122 104.443 320.613 181.858H279.985C278.93 168.412 277.283 156.055 275.05 143.648H194.849C192.622 156.036 190.991 168.391 189.971 181.858H150.515C157.632 103.977 181.475 43.7176 217.152 6.02859ZM267.564 110.713C258.843 82.924 248.46 60.0632 234.407 38.9785C220.445 60.145 209.525 84.0076 201.807 110.713H267.564ZM40.6701 35.4808C40.6701 35.4808 48.5127 35.1879 58.1614 35.1879C67.8086 35.1879 88.8799 36.938 104.366 52.1015C119.855 67.2656 120.148 84.4666 120.148 96.4249C120.148 108.38 116.03 134.329 90.6009 145.99C65.1767 157.658 40.3781 153.284 40.3781 153.284L40.6701 35.4808Z" fill="url(#paint0_radial_507_2576)"/>
</g>
<defs>
<radialGradient id="paint0_radial_507_2576" cx="0" cy="0" r="1" gradientUnits="userSpaceOnUse" gradientTransform="translate(448.805 183.568) scale(577.345 154.309)">
<stop stop-color="#3E98D3"/>
<stop offset="1" stop-color="#192777"/>
</radialGradient>
<clipPath id="clip0_507_2576">
<rect width="1000" height="314.721" fill="white"/>
</clipPath>
</defs>
</svg>
