<svg version="1.1" id="Layer_1" xmlns="http://www.w3.org/2000/svg" xmlns:xlink="http://www.w3.org/1999/xlink" x="0px" y="0px" viewBox="0 0 72 72" style="enable-background:new 0 0 72 72;" xml:space="preserve">
 <style type="text/css">
  .st0{fill:#0076CE;}
 </style>
 <path class="st0" d="M33.5,27.1l-8.9,6.9c-0.9-3.4-3.9-6-7.6-6h-6.4v15.8H17c3.7,0,6.9-2.5,7.6-6l8.9,6.9l8.9-6.9v6h10.1v-3.2h-6.6
	V28h-3.7v6l-8.5,6.9l-1.8-1.6L36,36l4.4-3.4l-2.5-2.1l-8.5,6.6l-1.8-1.6l8.5-6.4L33.5,27.1L33.5,27.1z M14,31.2h2.8
	c0.6,0,1.1,0.1,1.6,0.4c0.5,0.2,1,0.6,1.4,1c0.4,0.4,0.7,0.9,1,1.5s0.4,1.2,0.4,1.9c0,0.6-0.1,1.2-0.3,1.8c-0.2,0.6-0.5,1.1-0.9,1.5
	c-0.4,0.4-0.9,0.8-1.4,1.1c-0.5,0.3-1.1,0.4-1.7,0.4H14L14,31.2L14,31.2z M64,40.6v3.2H53.9V28h3.7v12.6L64,40.6L64,40.6z M36,0
	C16.3,0,0,16.3,0,36s16.1,36,36,36s36-16.1,36-36S55.7,0,36,0z M36,3.7c2.2,0,4.4,0.2,6.5,0.7c2.1,0.4,4.1,1.1,6.1,1.9
	c1.9,0.8,3.8,1.8,5.5,3s3.3,2.5,4.8,3.9s2.8,3.1,3.9,4.8c1.2,1.7,2.2,3.6,3,5.5c0.8,1.9,1.5,4,1.9,6.1c0.4,2.1,0.7,4.3,0.7,6.5
	s-0.2,4.4-0.7,6.5c-0.4,2.1-1.1,4.1-1.9,6.1c-0.8,1.9-1.8,3.8-3,5.5s-2.5,3.3-3.9,4.8s-3.1,2.8-4.8,3.9c-1.7,1.2-3.6,2.2-5.5,3
	c-1.9,0.8-4,1.5-6.1,1.9c-2.1,0.4-4.3,0.7-6.5,0.7s-4.4-0.2-6.5-0.7c-2.1-0.4-4.1-1.1-6.1-1.9c-1.9-0.8-3.8-1.8-5.5-3
	c-1.7-1.2-3.3-2.5-4.8-3.9s-2.8-3.1-3.9-4.8c-1.2-1.7-2.2-3.6-3-5.5c-0.8-1.9-1.5-4-1.9-6.1c-0.4-2.1-0.7-4.3-0.7-6.5
	s0.2-4.4,0.7-6.5c0.4-2.1,1.1-4.1,1.9-6.1c0.8-1.9,1.8-3.8,3-5.5c1.2-1.7,2.5-3.3,3.9-4.8s3.1-2.8,4.8-3.9c1.7-1.2,3.6-2.2,5.5-3
	c1.9-0.8,4-1.5,6.1-1.9C31.6,3.9,33.8,3.7,36,3.7L36,3.7z">
 </path>
</svg>