<?xml version="1.0" encoding="utf-8"?>
<!-- Generator: Adobe Illustrator 28.0.0, SVG Export Plug-In . SVG Version: 6.00 Build 0)  -->
<svg version="1.1" id="Слой_1" xmlns="http://www.w3.org/2000/svg" xmlns:xlink="http://www.w3.org/1999/xlink" x="0px" y="0px"
	 viewBox="0 0 1000 636" style="enable-background:new 0 0 1000 636;" xml:space="preserve">
<style type="text/css">
	.st0{fill-rule:evenodd;clip-rule:evenodd;fill:#020A0A;}
</style>
<path class="st0" d="M115.3,533.7l15.1,1.8c6.8,0.8,7.5,6.5,7.5,10.1v18H68.1v-18c0-3.7,0.7-9.4,7.5-10.1l15.1-1.8v-15.4H0v15.4
	l15.2,1.8c6.8,0.8,7.5,6.5,7.5,10.1v59.1c0,3.6-0.7,9.4-7.5,10.1L0,616.7v15.4h90.8v-15.4l-15.1-1.8c-6.8-0.8-7.5-6.5-7.5-10.1v-18
	H138v18c0,3.6-0.7,9.4-7.5,10.1l-15.1,1.8v15.4h90.8v-15.4l-15.2-1.8c-6.8-0.8-7.6-6.5-7.6-10.1v-59.1c0-3.7,0.7-9.4,7.6-10.1
	l15.2-1.8v-15.4h-90.8V533.7z"/>
<path class="st0" d="M712.5,610.3l-38,0v-70.2h38c22.4,0,30.1,10.7,30.1,35.1C742.5,599.6,734.9,610.3,712.5,610.3z M720.7,518.2
	H608.6v15.4l13.4,1.4c4.8,0.6,7.9,2.6,7.9,9.3v60.3c0,3.6-0.7,9.4-7.5,10.1l-15.2,1.8v15.4l113.5,0c40.6,0,74-16.4,74-56.9
	C794.7,534.7,761.3,518.2,720.7,518.2z"/>
<path class="st0" d="M858.3,577.1l21.4-35.1l22.8,35.1H858.3z M985.6,615c-7.2-0.9-9.5-5.5-11.7-8.9l-52.3-80.3
	c-3.8-5.8-6.5-7.6-12.1-7.6h-86.1v15.4L844,536c2.8,0.3,6.9,4.3,3.6,9.6l-38.6,63.1c-1.6,2.6-3.5,5.5-8,6.1l-15.4,1.8v15.4h72.5
	v-15.4l-12.5-1.3c-5.3-0.6-8.2-4.3-5.5-8.7l5.8-9.5h69.7l5.1,7.9c4.5,6.9-1.2,9.7-6.1,10.3l-12.8,1.3v15.4h98.1v-15.4L985.6,615z"/>
<path class="st0" d="M527.6,533.7l15.2,1.8c6.8,0.8,7.6,6.5,7.6,10.1v57l-60-79.5c-2.7-3.7-5-4.8-11.5-4.8h-77.9v15.4l15.2,1.8
	c6.8,0.8,7.6,6.5,7.6,10.1v59.1c0,3.6-0.7,9.4-7.6,10.1l-15.2,1.8v15.4h72.5v-15.4l-15.2-1.8c-6.8-0.8-7.6-6.5-7.6-10.1v-57l60,79.5
	c2.7,3.7,5.1,4.8,11.5,4.8h55.2v-86.5c0-3.7,0.7-9.4,7.5-10.1l15.2-1.8v-15.4h-72.5V533.7z"/>
<path class="st0" d="M303.3,614.3c-28.6,0-40.5-12-40.5-39.1c0-27.1,11.9-39.1,40.5-39.1c28.6,0,40.5,12.1,40.5,39.1
	C343.8,602.3,331.9,614.3,303.3,614.3z M303.3,514.3c-73.7,0-92.8,32.4-92.8,60.8c0,28.4,19,60.8,92.8,60.8
	c73.7,0,92.8-32.4,92.8-60.8C396.1,546.8,377.1,514.3,303.3,514.3z"/>
<path class="st0" d="M625.7,37.6c-12.5,56-17.4,81.7-27.6,122.3c-9.7,38.9-17.3,75-30.3,92.5c-13.2,17.8-30.9,21.6-42.9,23
	c-6.2,0.7-10.8,1-24.3,1.1c-13.5-0.1-18-0.4-24.3-1.1c-12-1.4-29.7-5.2-42.9-23c-13-17.5-20.6-53.6-30.3-92.5
	c-10.2-40.5-15.1-66.3-27.6-122.3c0,0-12.5,0.5-18,0.9c-7.5,0.5-13.3,1.2-19.7,2c0,0,7.2,115.2,10.4,163.9
	c3.4,51.3,9.4,137.8,15.1,203.1c0,0,10.4,1.7,27.8,2.7c18.3,1,26.4,1.2,26.4,1.2c7.5-28.8,16.8-68.7,27.4-85.7
	c8.6-13.9,21.8-15.3,29.3-16.4c11.7-1.6,21.7-1.9,26.3-1.7h0.1c4.6-0.2,14.5,0.1,26.3,1.7c7.5,1,20.7,2.5,29.3,16.4
	c10.6,17,19.9,56.9,27.4,85.7c0,0,8.1-0.1,26.4-1.2c17.4-1,27.9-2.7,27.9-2.7c5.6-65.3,11.6-151.8,15-203.1
	c3.3-48.8,10.4-163.9,10.4-163.9c-6.4-0.8-12.2-1.5-19.7-2C638.1,38,625.7,37.6,625.7,37.6z"/>
<path class="st0" d="M743.4,228.4c-4.3,58.4-9.5,93.5-16.9,118.7c-6.5,22.1-14.5,37-26.3,47.7c-19.6,17.8-46.6,21.7-62.5,24
	c-34.2,5.1-91.8,6.9-137.2,6.9c-45.3,0-103-1.8-137.2-6.9c-15.8-2.4-42.8-6.2-62.4-24c-11.7-10.7-19.8-25.5-26.3-47.7
	c-7.4-25.3-12.6-60.3-16.9-118.7c-2.6-35.2-2.1-92.3,1.8-123c5.8-45.7,28.4-68.8,76.8-77.4c22.6-4,52.9-6.9,81.7-8.3
	c23.1-1.6,61.1-2.3,82.4-2.1c21.2-0.2,59.2,0.6,82.3,2.1c28.8,1.4,59.2,4.3,81.7,8.3c48.4,8.7,71,31.7,76.8,77.4
	C745.4,136.1,746,193.2,743.4,228.4z M770.1,105.5c-7.4-73.1-56-88.6-98.6-95.8c-21.5-3.6-59.7-6.7-84.1-7.7
	C566,0.7,515.6,0,500.6,0c-15,0-65.4,0.7-86.8,2.1c-24.5,1-62.6,4.1-84.1,7.7c-42.6,7.2-91.2,22.6-98.6,95.8
	c-2,19.9-2.6,45.9-2.2,73.9c0.6,46.3,4.6,77.6,6.9,99.3c1.5,14.9,7.7,59.6,15.7,82.7c10.9,31.8,20.7,41,32.2,50.5
	c21.1,17.3,55.8,22.6,63.2,23.9c39.2,7.1,118.6,8.4,153.7,8.3c35,0,114.4-1.2,153.7-8.3c7.4-1.3,42.2-6.7,63.3-23.9
	c11.5-9.5,21.3-18.7,32.2-50.5c7.9-23.1,14.1-67.8,15.7-82.7c2.3-21.7,6.2-53,6.8-99.3C772.7,151.5,772.1,125.5,770.1,105.5z"/>
</svg>
