<?xml version="1.0" encoding="utf-8"?>
<!-- Generator: Adobe Illustrator 28.0.0, SVG Export Plug-In . SVG Version: 6.00 Build 0)  -->
<svg version="1.1" id="Слой_1" xmlns="http://www.w3.org/2000/svg" xmlns:xlink="http://www.w3.org/1999/xlink" x="0px" y="0px"
	 viewBox="0 0 1000 406.2505798" enable-background="new 0 0 1000 406.2505798" xml:space="preserve">
<rect fill="#005AA6" width="1000" height="406.2505798"/>
<path fill="#FFD700" d="M19.5372429,203.127121c0,98.234726,201.405014,179.6901703,480.4642944,179.6901703
	c279.0691528,0,480.4741211-81.4554443,480.4741211-179.6901703S779.0706787,23.4369392,500.0015259,23.4369392
	C220.9422607,23.4369392,19.5372429,104.8924637,19.5372429,203.127121"/>
<path fill="#005AA6" d="M471.65448,260.7151184c2.9181824,4.3862,6.3586121,8.4841919,10.600769,12.7262878H374.1134033
	c0-4.2420959-4.0799866-13.0054932-8.7363892-19.9225311c-4.647583-6.8990479-29.4335327-44.5285034-29.4335327-44.5285034
	v51.7247467c0,4.2421265,0,8.4841919,2.1164246,12.7262878h-90.1737823
	c2.1166992-4.3051453,2.1166992-8.4841614,2.1166992-12.7262878v-122.984726c0-4.2420959,0-8.4842072-2.1166992-12.7263031
	h90.1737823c-2.1164246,4.2420959-2.1164246,8.4842072-2.1164246,12.7263031v53.6791534
	c0,0,28.8390198-37.4583588,35.4139099-46.2307434c5.0076599-6.6738586,11.2310181-15.9326172,11.2310181-20.1747131h93.9747925
	c-6.4578247,4.2420959-13.6629639,12.0867767-19.4723816,19.219986c-5.1338196,6.2866364-34.4499817,41.943634-34.4499817,41.943634
	S466.0075073,252.2219238,471.65448,260.7151184 M500.007019,137.7303925v122.984726c0,4.2421265,0,8.4841919-2.1252136,12.7262878
	h173.9977722V232.254364c-4.2421875,2.1255493-8.484375,2.1255493-12.7265625,2.1255493h-73.2141113v-19.5352936h70.3143921
	v-31.2437897h-70.3143921v-19.5352478h73.2141113c4.2421875,0,8.484375,0,12.7265625,2.0715179v-41.1330109H497.8818054
	C500.007019,129.2461853,500.007019,133.4882965,500.007019,137.7303925 M913.0308228,260.6790771
	c1.6298828,4.2781677,3.260376,8.5202332,6.9709473,12.7623291h-94.2991333
	c0.4865112-4.2420959-1.1978149-8.4841614-2.8640137-12.7262878c0,0-1.4407959-3.4404907-3.3862305-8.5021973
	c-0.1352539-0.324234-0.8466187-2.206604-0.8466187-2.206604H764.277771l-0.8015137,2.2156067
	c0,0-1.5221558,4.2150574-3.0443115,8.4931946c-1.5128174,4.2421265-3.0707397,8.4841919-2.4313965,12.7262878h-74.4031982
	c3.6561279-4.2420959,5.1783447-8.4391785,6.727417-12.7082825c2.4589233-6.7549133,41.1513062-113.4377747,44.6277466-123.0027313
	c1.5402832-4.2420959,3.0800781-8.4842072,2.4951782-12.7263031h125.7044678
	c-1.0895386,4.2420959,1.1439819,8.4571381,2.7832642,12.7263031
	C869.5646362,147.2142639,909.8424683,252.3750153,913.0308228,260.6790771 M806.6719971,218.7534943
	c-6.8088379-17.8420105-12.5280762-32.8199615-13.1135254-34.3600616c-1.6211548-4.2601166-2.918457-9.772171-2.918457-9.772171
	s-1.053833,5.5120544-2.5754395,9.7631226c-0.4865112,1.3690033-5.9715576,16.5090637-12.4560547,34.3691101H806.6719971z
	 M205.2492065,125.0040894h-97.9915848c2.1254807,4.2420959,2.1254807,8.4842072,2.1254807,12.7172394v122.9937897
	c0,4.2421265,0,8.4841919-2.1254807,12.7262878h97.9915848c-2.1166992-4.2420959-2.1166992-8.4841614-2.1166992-12.7262878
	V137.7213287C203.1325073,133.4882965,203.1325073,129.2461853,205.2492065,125.0040894 M882.8133545,136.7216034
	c0-11.3302383,8.1962891-19.5352554,19.5353394-19.5352554c10.7991943,0,19.5353394,8.2050171,19.5353394,19.5352554
	c0,11.3392944-8.2050781,19.5353088-19.5353394,19.5353088
	C891.0096436,156.2569122,882.8133545,148.0608978,882.8133545,136.7216034 M886.6954956,136.7216034
	c0,8.6102905,6.5476685,15.6264038,15.6531982,15.6264038c8.6014404,0,15.5993652-6.520752,15.5993652-15.6264038
	c0-8.6102295-6.4938354-15.6263504-15.5993652-15.6263504S886.6954956,127.6160049,886.6954956,136.7216034
	 M898.4401855,148.4391785h-3.4769287v-23.4350891h8.7905273c4.0437012,0,7.331604,3.5485687,7.331604,7.5925598
	c0,2.9001007-1.6843872,5.64711-4.1251221,6.8449554l5.0618286,8.9975739h-3.9002686l-4.6291504-8.2410278h-5.0524902V148.4391785z
	 M898.4401855,136.7216034h4.7731934c2.4226074,0,4.3950195-1.6932068,4.3950195-4.1249542
	c0-2.4228058-1.9724121-4.1160126-4.3950195-4.1160126h-4.7731934V136.7216034z"/>
</svg>
