<svg width="633" height="131" viewBox="0 0 633 131" fill="none" xmlns="http://www.w3.org/2000/svg">
<path d="M285.3 65.2C285.3 88.6 271 99.7 253.1 99.7H242.2V85.6H252.3C263.1 85.6 270.3 79.8 270.3 65.1C270.3 50.6 263.5 43.4 252 43.4C240.9 43.4 233 50.2 233 64.8V123.6H218V31.2H232.9V39.2H235C240 32.5 247.3 29.5 255 29.5C271.5 29.5 285.3 41.5 285.3 65.2ZM187.3 59.1L177.4 58.1C169.6 57.4 165.5 55.3 165.5 50.7C165.5 45.3 170.8 42.2 178.3 42.2C186.1 42.2 191.1 45.9 191.5 51.1H205.8C205.2 37.7 194.9 29.5 178.4 29.5C161.8 29.5 150.6 38.3 150.6 51.2C150.6 62 157.4 69 172.9 70.5L183 71.5C189.1 72.1 193.2 73.3 193.2 79.2C193.2 84.5 189.4 88.3 179.3 88.3C170 88.3 165.4 84.1 163.8 78.4H148.3C149.8 91.3 160.7 101.3 179.3 101.3C196.8 101.3 208.1 92.1 208.1 78.4C208 66.5 200.1 60.3 187.3 59.1ZM343 78.5C340.7 83.9 335.1 87.9 327.1 87.9C316.2 87.9 308.1 80.8 308.1 65.5C308.1 50.9 315.6 42.8 327.3 42.8C337.7 42.8 343.6 49 344.2 58.4H317.4V69.2H358.9V62.1C358.9 42.4 345.8 29.6 327.2 29.6C309.9 29.6 293.3 41.4 293.3 65.5C293.3 89.6 309.9 101.4 327.2 101.4C343 101.4 354.4 91.6 357.9 78.5H343ZM107.9 29.5C91.6 29.5 79.4 38 77.9 51.1H93.9C95 46.3 99.4 42.7 107.8 42.7C118.6 42.7 122.1 48.4 122.1 55.3V78.7C116 85.7 108.9 88.9 101.8 88.9C94.4 88.9 89.3 85.3 89.3 79C89.3 72.9 93.3 69.1 100.9 69.1H112.8V58.4H100.4C83.4 58.4 73.8 66.9 73.8 80C73.8 92.2 83 101.4 98.2 101.4C106.7 101.4 114.2 98 119.8 93.9H121.9V99.7H136.8V54C137.2 37.1 125.7 29.5 107.9 29.5ZM6.80005 99.7H21.7V6H6.80005V99.7ZM69.4001 31.2H51.2001L29.5 59.8V68.7L51.8 99.7H70.3001L44.1 64.2L69.4001 31.2ZM608.5 31.2L596.3 58.3C593.3 64.8 590.5 71.2 589.6 75.5H587.5C586.6 71.2 583.7 65 580.7 58.5L568.5 31.2H552L580.7 92.7L566.5 123.7H582.4L625 31.2H608.5ZM548.7 31.2H530.5L508.8 59.7V68.6L531.1 99.6H549.6L523.5 64.1L548.7 31.2ZM455.3 59.1L445.4 58.1C437.6 57.4 433.5 55.3 433.5 50.7C433.5 45.3 438.8 42.2 446.3 42.2C454.1 42.2 459.1 45.9 459.5 51.1H473.8C473.2 37.7 462.9 29.5 446.4 29.5C429.8 29.5 418.6 38.3 418.6 51.2C418.6 62 425.4 69 440.9 70.5L451 71.5C457.1 72.1 461.2 73.3 461.2 79.2C461.2 84.5 457.4 88.3 447.3 88.3C438 88.3 433.4 84.1 431.8 78.4H416.3C417.8 91.3 428.7 101.3 447.3 101.3C464.8 101.3 476.1 92.1 476.1 78.4C476.1 66.5 468.1 60.3 455.3 59.1ZM486.1 99.7H501V6H486.1V99.7ZM387.7 39.2H385.6V31.2H370.7V99.7H385.6V63.9C385.6 51.7 391.2 44.6 402.4 44.6H411.8V29.5H406.3C396 29.5 391.6 33.4 387.7 39.2Z" fill="#009982"/>
</svg>
