<?xml version="1.0" encoding="UTF-8" standalone="no"?>
<svg
   xmlns:dc="http://purl.org/dc/elements/1.1/"
   xmlns:cc="http://creativecommons.org/ns#"
   xmlns:rdf="http://www.w3.org/1999/02/22-rdf-syntax-ns#"
   xmlns:svg="http://www.w3.org/2000/svg"
   xmlns="http://www.w3.org/2000/svg"
   xmlns:sodipodi="http://sodipodi.sourceforge.net/DTD/sodipodi-0.dtd"
   xmlns:inkscape="http://www.inkscape.org/namespaces/inkscape"
   version="1.1"
   id="svg2"
   xml:space="preserve"
   width="239.24667"
   height="154.82401"
   viewBox="0 0 239.24667 154.82401"
   sodipodi:docname="kitmed-logo.ai"><metadata
     id="metadata8"><rdf:RDF><cc:Work
         rdf:about=""><dc:format>image/svg+xml</dc:format><dc:type
           rdf:resource="http://purl.org/dc/dcmitype/StillImage" /></cc:Work></rdf:RDF></metadata><defs
     id="defs6"><clipPath
       clipPathUnits="userSpaceOnUse"
       id="clipPath22"><path
         d="M 0,0 H 179.435 V 116.118 H 0 Z"
         id="path20" /></clipPath></defs><sodipodi:namedview
     pagecolor="#ffffff"
     bordercolor="#666666"
     borderopacity="1"
     objecttolerance="10"
     gridtolerance="10"
     guidetolerance="10"
     inkscape:pageopacity="0"
     inkscape:pageshadow="2"
     inkscape:window-width="640"
     inkscape:window-height="480"
     id="namedview4" /><g
     id="g10"
     inkscape:groupmode="layer"
     inkscape:label="kitmed-logo"
     transform="matrix(1.3333333,0,0,-1.3333333,0,154.824)"><g
       id="g12"
       transform="translate(3.4731,6.7851)"><path
         d="M 0,0 -2.755,-2.695 V 0 h -0.718 v -5.434 h 0.718 v 1.908 l 0.9,0.855 1.969,-2.763 H 1.03 L -1.352,-2.183 0.939,0 Z"
         style="fill:#4f5a69;fill-opacity:1;fill-rule:nonzero;stroke:none"
         id="path14" /></g><g
       id="g16"><g
         id="g18"
         clip-path="url(#clipPath22)"><g
           id="g24"
           transform="translate(5.5206,4.0753)"><path
             d="M 0,0 C 0,-1.358 0.741,-2.236 1.893,-2.236 3.03,-2.236 3.771,-1.351 3.771,0 3.771,1.344 3.03,2.214 1.878,2.214 0.596,2.214 0,1.161 0,0 m 4.488,0.039 c 0,-1.595 -0.878,-2.893 -2.602,-2.893 -1.74,0 -2.603,1.328 -2.603,2.908 0,1.694 1.015,2.786 2.595,2.786 1.687,0 2.61,-1.183 2.61,-2.801"
             style="fill:#4f5a69;fill-opacity:1;fill-rule:nonzero;stroke:none"
             id="path26" /></g><g
           id="g28"
           transform="translate(12.0646,6.7847)"><path
             d="M 0,0 1.748,-4.602 3.435,0 H 4.434 V -5.434 H 3.755 V -0.9 L 2.053,-5.434 H 1.427 L -0.305,-0.9 V -5.434 H -0.992 V 0 Z"
             style="fill:#4f5a69;fill-opacity:1;fill-rule:nonzero;stroke:none"
             id="path30" /></g><g
           id="g32"
           transform="translate(22.1734,1.3512)"><path
             d="M 0,0 H -0.718 V 4.809 H -3.587 V 0 H -4.305 V 5.434 H 0 Z"
             style="fill:#4f5a69;fill-opacity:1;fill-rule:nonzero;stroke:none"
             id="path34" /></g><g
           id="g36"
           transform="translate(25.3971,6.0977)"><path
             d="M 0,0 -0.939,-2.511 H 0.923 Z M 2.542,-4.747 H 1.74 l -0.603,1.664 h -2.282 l -0.618,-1.664 h -0.763 l 2.137,5.434 h 0.808 z"
             style="fill:#4f5a69;fill-opacity:1;fill-rule:nonzero;stroke:none"
             id="path38" /></g><g
           id="g40"
           transform="translate(32.9405,1.3512)"><path
             d="M 0,0 H -0.718 V 2.542 H -3.587 V 0 h -0.718 v 5.434 h 0.718 V 3.167 h 2.869 V 5.434 H 0 Z"
             style="fill:#4f5a69;fill-opacity:1;fill-rule:nonzero;stroke:none"
             id="path42" /></g><g
           id="g44"
           transform="translate(34.3014,6.7847)"><path
             d="M 0,0 H 0.718 V -4.602 H 0.733 L 3.396,0 H 4.305 V -5.434 H 3.587 v 4.618 H 3.572 L 0.9,-5.434 H 0 Z"
             style="fill:#4f5a69;fill-opacity:1;fill-rule:nonzero;stroke:none"
             id="path46" /></g><g
           id="g48"
           transform="translate(43.1354,6.1744)"><path
             d="m 0,0 h -1.374 c -0.793,0 -1.236,-0.282 -1.236,-0.947 0,-0.671 0.435,-0.946 1.236,-0.946 l 1.374,0 z m -2.916,-4.823 h -0.885 l 1.817,2.343 c -0.848,0.114 -1.351,0.626 -1.351,1.533 0,1.023 0.656,1.557 1.717,1.557 H 0.717 V -4.823 H 0 v 2.32 h -1.122 z"
             style="fill:#4f5a69;fill-opacity:1;fill-rule:nonzero;stroke:none"
             id="path50" /></g><g
           id="g52"
           transform="translate(49.7648,6.7847)"><path
             d="M 0,0 H 0.718 V -4.602 H 0.732 L 3.396,0 H 4.305 V -5.434 H 3.587 v 4.618 H 3.572 L 0.9,-5.434 H 0 Z"
             style="fill:#4f5a69;fill-opacity:1;fill-rule:nonzero;stroke:none"
             id="path54" /></g><g
           id="g56"
           transform="translate(59.735,1.3512)"><path
             d="M 0,0 H -0.718 V 2.542 H -3.587 V 0 h -0.718 v 5.434 h 0.718 V 3.167 h 2.869 V 5.434 H 0 Z"
             style="fill:#4f5a69;fill-opacity:1;fill-rule:nonzero;stroke:none"
             id="path58" /></g><g
           id="g60"
           transform="translate(65.4015,1.3512)"><path
             d="M 0,0 H -0.718 V 2.542 H -3.587 V 0 h -0.718 v 5.434 h 0.718 V 3.167 h 2.869 V 5.434 H 0 Z"
             style="fill:#4f5a69;fill-opacity:1;fill-rule:nonzero;stroke:none"
             id="path62" /></g><g
           id="g64"
           transform="translate(67.1744,4.0753)"><path
             d="M 0,0 C 0,-1.358 0.741,-2.236 1.893,-2.236 3.03,-2.236 3.77,-1.351 3.77,0 3.77,1.344 3.03,2.214 1.878,2.214 0.595,2.214 0,1.161 0,0 m 4.488,0.039 c 0,-1.595 -0.878,-2.893 -2.603,-2.893 -1.739,0 -2.602,1.328 -2.602,2.908 0,1.694 1.014,2.786 2.595,2.786 1.686,0 2.61,-1.183 2.61,-2.801"
             style="fill:#4f5a69;fill-opacity:1;fill-rule:nonzero;stroke:none"
             id="path66" /></g><g
           id="g68"
           transform="translate(73.421,1.9537)"><path
             d="M 0,0 H 1.435 C 2.16,0 2.87,0.046 2.87,1 2.87,1.946 2.038,1.939 1.312,1.939 H 0 Z m 0,2.503 h 1.29 c 0.61,0 1.343,0.046 1.343,0.863 C 2.633,4.183 2,4.221 1.358,4.221 H 0 Z M 1.618,4.831 C 2.519,4.831 3.351,4.473 3.351,3.473 3.351,2.938 3.038,2.481 2.549,2.306 3.221,2.153 3.595,1.648 3.595,0.931 3.595,-0.32 2.572,-0.603 1.534,-0.603 h -2.236 v 5.434 z"
             style="fill:#4f5a69;fill-opacity:1;fill-rule:nonzero;stroke:none"
             id="path70" /></g><g
           id="g72"
           transform="translate(79.965,6.0977)"><path
             d="M 0,0 -0.939,-2.511 H 0.923 Z M 2.541,-4.747 H 1.74 l -0.603,1.664 h -2.282 l -0.618,-1.664 h -0.763 l 2.136,5.434 h 0.809 z"
             style="fill:#4f5a69;fill-opacity:1;fill-rule:nonzero;stroke:none"
             id="path74" /></g><g
           id="g76"
           transform="translate(87.3014,1.3512)"><path
             d="m 0,0 h -4.144 v 5.434 h 0.717 V 0.626 h 2.809 V 5.434 H 0.1 V 0.626 h 0.595 v -1.977 l -0.695,0 z"
             style="fill:#4f5a69;fill-opacity:1;fill-rule:nonzero;stroke:none"
             id="path78" /></g><g
           id="g80"
           transform="translate(88.8697,6.7847)"><path
             d="M 0,0 H 0.718 V -4.602 H 0.732 L 3.396,0 H 4.305 V -5.434 H 3.587 v 4.618 H 3.571 L 0.9,-5.434 H 0 Z"
             style="fill:#4f5a69;fill-opacity:1;fill-rule:nonzero;stroke:none"
             id="path82" /></g><g
           id="g84"
           transform="translate(94.9469,4.0753)"><path
             d="M 0,0 C 0,-1.358 0.741,-2.236 1.893,-2.236 3.03,-2.236 3.77,-1.351 3.77,0 3.77,1.344 3.03,2.214 1.878,2.214 0.596,2.214 0,1.161 0,0 m 4.488,0.039 c 0,-1.595 -0.879,-2.893 -2.602,-2.893 -1.74,0 -2.603,1.328 -2.603,2.908 0,1.694 1.014,2.786 2.595,2.786 1.686,0 2.61,-1.183 2.61,-2.801"
             style="fill:#4f5a69;fill-opacity:1;fill-rule:nonzero;stroke:none"
             id="path86" /></g><g
           id="g88"
           transform="translate(104.7955,1.3512)"><path
             d="m 0,0 h -0.717 v 2.542 h -2.87 V 0 h -0.717 v 5.434 h 0.717 V 3.167 h 2.87 V 5.434 H 0 Z"
             style="fill:#4f5a69;fill-opacity:1;fill-rule:nonzero;stroke:none"
             id="path90" /></g><g
           id="g92"
           transform="translate(110.4615,1.3512)"><path
             d="m 0,0 h -0.717 v 2.542 h -2.87 V 0 h -0.717 v 5.434 h 0.717 V 3.167 h 2.87 V 5.434 H 0 Z"
             style="fill:#4f5a69;fill-opacity:1;fill-rule:nonzero;stroke:none"
             id="path94" /></g><path
           d="m 117.273,1.351 h -0.718 v 5.434 h 0.718 z m -3.312,2.61 h -1.419 V 1.978 h 1.419 c 0.793,0 1.19,0.319 1.19,0.984 0,0.671 -0.389,0.999 -1.19,0.999 m 0.243,-2.61 h -2.381 v 5.434 h 0.719 V 4.579 h 1.662 c 1.069,0 1.672,-0.587 1.672,-1.617 0,-1.023 -0.611,-1.611 -1.672,-1.611"
           style="fill:#4f5a69;fill-opacity:1;fill-rule:nonzero;stroke:none"
           id="path96" /><g
           id="g98"
           transform="translate(120.7565,4.1524)"><path
             d="m 0,0 1.908,-2.801 h -0.87 l -1.466,2.236 -1.518,-2.236 H -2.771 L -0.855,0 -2.648,2.632 h 0.862 l 1.366,-2.09 1.412,2.09 h 0.817 z"
             style="fill:#4f5a69;fill-opacity:1;fill-rule:nonzero;stroke:none"
             id="path100" /></g><g
           id="g102"
           transform="translate(131.7672,6.1597)"><path
             d="M 0,0 H -1.824 V -4.809 H -2.542 V 0 H -4.366 V 0.625 H 0 Z"
             style="fill:#4f5a69;fill-opacity:1;fill-rule:nonzero;stroke:none"
             id="path104" /></g><g
           id="g106"
           transform="translate(136.2945,6.1597)"><path
             d="m 0,0 h -3.045 v -1.703 h 2.848 V -2.306 H -3.045 V -4.182 H 0.039 V -4.809 H -3.762 V 0.625 H 0 Z"
             style="fill:#4f5a69;fill-opacity:1;fill-rule:nonzero;stroke:none"
             id="path108" /></g><g
           id="g110"
           transform="translate(139.4801,4.1524)"><path
             d="m 0,0 1.908,-2.801 h -0.87 l -1.465,2.236 -1.519,-2.236 H -2.77 L -0.854,0 -2.648,2.632 h 0.863 l 1.365,-2.09 1.412,2.09 h 0.817 z"
             style="fill:#4f5a69;fill-opacity:1;fill-rule:nonzero;stroke:none"
             id="path112" /></g><g
           id="g114"
           transform="translate(146.4742,1.3512)"><path
             d="M 0,0 H -0.719 V 2.542 H -3.587 V 0 h -0.719 v 5.434 h 0.719 V 3.167 h 2.868 V 5.434 H 0 Z"
             style="fill:#4f5a69;fill-opacity:1;fill-rule:nonzero;stroke:none"
             id="path116" /></g><g
           id="g118"
           transform="translate(148.2467,4.0753)"><path
             d="M 0,0 C 0,-1.358 0.74,-2.236 1.893,-2.236 3.03,-2.236 3.771,-1.351 3.771,0 3.771,1.344 3.03,2.214 1.878,2.214 0.595,2.214 0,1.161 0,0 m 4.488,0.039 c 0,-1.595 -0.878,-2.893 -2.603,-2.893 -1.739,0 -2.603,1.328 -2.603,2.908 0,1.694 1.016,2.786 2.596,2.786 1.686,0 2.61,-1.183 2.61,-2.801"
             style="fill:#4f5a69;fill-opacity:1;fill-rule:nonzero;stroke:none"
             id="path120" /></g><g
           id="g122"
           transform="translate(157.7984,1.3512)"><path
             d="M 0,0 H -0.718 V 4.809 H -2.725 L -2.832,1.748 c -0.038,-1.092 -0.435,-1.862 -1.259,-1.862 -0.152,0 -0.382,0.053 -0.519,0.106 v 0.611 c 0.099,-0.061 0.305,-0.076 0.388,-0.076 0.391,0 0.673,0.214 0.711,1.595 l 0.099,3.312 H 0 Z"
             style="fill:#4f5a69;fill-opacity:1;fill-rule:nonzero;stroke:none"
             id="path124" /></g><g
           id="g126"
           transform="translate(159.5865,4.0753)"><path
             d="M 0,0 C 0,-1.358 0.74,-2.236 1.893,-2.236 3.03,-2.236 3.771,-1.351 3.771,0 3.771,1.344 3.03,2.214 1.878,2.214 0.596,2.214 0,1.161 0,0 m 4.488,0.039 c 0,-1.595 -0.878,-2.893 -2.602,-2.893 -1.74,0 -2.603,1.328 -2.603,2.908 0,1.694 1.015,2.786 2.595,2.786 1.686,0 2.61,-1.183 2.61,-2.801"
             style="fill:#4f5a69;fill-opacity:1;fill-rule:nonzero;stroke:none"
             id="path128" /></g><g
           id="g130"
           transform="translate(165.1305,1.3512)"><path
             d="M 0,0 V 5.434 H 3.572 V 4.809 H 0.719 L 0.719,0 Z"
             style="fill:#4f5a69;fill-opacity:1;fill-rule:nonzero;stroke:none"
             id="path132" /></g><g
           id="g134"
           transform="translate(169.4615,6.7847)"><path
             d="M 0,0 H 0.717 V -4.602 H 0.731 L 3.396,0 H 4.304 V -5.434 H 3.587 v 4.618 H 3.571 L 0.899,-5.434 H 0 Z"
             style="fill:#4f5a69;fill-opacity:1;fill-rule:nonzero;stroke:none"
             id="path136" /></g><g
           id="g138"
           transform="translate(177.2789,7.1588)"><path
             d="m 0,0 c -0.634,0 -1.084,0.443 -1.16,1.053 h 0.389 c 0.107,-0.366 0.375,-0.595 0.763,-0.595 0.397,0 0.642,0.229 0.764,0.595 H 1.145 C 1.045,0.443 0.664,0 0,0 m -2.152,-0.374 h 0.717 v -4.602 h 0.015 l 2.664,4.602 H 2.152 V -5.808 H 1.435 V -1.19 H 1.419 l -2.671,-4.618 h -0.9 z"
             style="fill:#4f5a69;fill-opacity:1;fill-rule:nonzero;stroke:none"
             id="path140" /></g><g
           id="g142"
           transform="translate(23.5821,16.692)"><path
             d="m 0,0 -6.316,9.079 c -1.073,1.577 -1.592,2.171 -2.806,2.171 H -21.725 V 0 h -1.857 v 24.424 h 1.857 V 13.14 h 12.603 c 1.161,0 1.666,0.496 2.802,2.199 L 0,24.424 H 2.308 L -4.784,14.285 c -0.588,-0.899 -1.082,-1.571 -1.685,-2.089 0.577,-0.457 1.082,-1.134 1.692,-2.065 L 2.273,0 Z"
             style="fill:#4f5a69;fill-opacity:1;fill-rule:nonzero;stroke:none"
             id="path144" /></g><g
           id="g146"
           transform="translate(51.7521,16.5631)"><path
             d="m 0,0 v 21.896 c 0,0.419 -0.131,0.672 -0.391,0.75 -0.065,0.021 -0.135,0.032 -0.21,0.032 -0.14,0 -0.482,-0.042 -0.78,-0.396 L -1.451,22.159 -17.325,1.273 c -0.32,-0.498 -0.838,-0.905 -1.403,-1.093 -0.267,-0.109 -0.587,-0.17 -0.905,-0.17 -0.282,0 -0.565,0.049 -0.819,0.14 -0.509,0.155 -0.959,0.481 -1.218,0.89 -0.311,0.412 -0.477,0.964 -0.477,1.618 v 21.895 h 1.889 V 2.658 c 0,-0.274 0.068,-0.621 0.39,-0.72 0.062,-0.021 0.127,-0.031 0.197,-0.031 0.119,0 0.529,0.033 0.817,0.466 l 0.108,0.161 H -18.7 L -2.966,23.31 c 0.351,0.492 0.863,0.872 1.436,1.062 0.28,0.112 0.601,0.174 0.934,0.174 0.25,0 0.506,-0.034 0.76,-0.102 0.48,-0.147 0.914,-0.469 1.235,-0.914 0.323,-0.485 0.49,-1.046 0.49,-1.634 L 1.889,0 Z"
             style="fill:#4f5a69;fill-opacity:1;fill-rule:nonzero;stroke:none"
             id="path148" /></g><g
           id="g150"
           transform="translate(67.6476,16.692)"><path
             d="m 0,0 v 22.535 h -10.669 v 1.889 H 12.592 V 22.535 H 1.89 L 1.89,0 Z"
             style="fill:#4f5a69;fill-opacity:1;fill-rule:nonzero;stroke:none"
             id="path152" /></g><g
           id="g154"
           transform="translate(122.1734,16.692)"><path
             d="m 0,0 v 21.767 c 0,0.273 -0.067,0.619 -0.39,0.719 -0.063,0.019 -0.135,0.03 -0.209,0.03 -0.148,0 -0.524,-0.046 -0.805,-0.467 L -14.153,3.206 -26.901,22.046 c -0.29,0.436 -0.702,0.47 -0.82,0.47 -0.069,0 -0.134,-0.01 -0.188,-0.027 -0.331,-0.103 -0.399,-0.45 -0.399,-0.722 V 0 h -1.889 v 21.767 c 0,0.652 0.166,1.203 0.494,1.639 0.245,0.39 0.684,0.707 1.218,0.872 0.238,0.086 0.521,0.134 0.802,0.134 0.319,0 0.638,-0.061 0.925,-0.175 0.585,-0.234 1.076,-0.612 1.422,-1.096 l 11.183,-16.57 11.177,16.561 c 0.351,0.493 0.843,0.871 1.427,1.105 0.291,0.116 0.599,0.175 0.912,0.175 0.277,0 0.553,-0.046 0.824,-0.137 0.486,-0.15 0.908,-0.452 1.214,-0.873 0.324,-0.432 0.49,-0.985 0.49,-1.635 L 1.891,0 Z"
             style="fill:#4f5a69;fill-opacity:1;fill-rule:nonzero;stroke:none"
             id="path156" /></g><g
           id="g158"
           transform="translate(132.6109,16.692)"><path
             d="m 0,0 c -2.375,0 -4.308,1.945 -4.308,4.338 v 15.746 c 0,2.394 1.933,4.34 4.308,4.34 H 16.626 V 22.567 H 0 c -1.352,0 -2.45,-1.114 -2.45,-2.483 V 13.14 H 15.397 V 11.25 H -2.45 V 4.338 C -2.45,2.987 -1.352,1.889 0,1.889 H 16.626 V 0 Z"
             style="fill:#4f5a69;fill-opacity:1;fill-rule:nonzero;stroke:none"
             id="path160" /></g><g
           id="g162"
           transform="translate(172.9303,18.5811)"><path
             d="m 0,0 c 2.564,0 4.649,2.07 4.649,4.616 v 11.381 c 0,2.564 -2.085,4.649 -4.649,4.649 H -17.678 V 0 Z M -19.535,-1.889 V 22.535 H 0 c 3.588,0 6.505,-2.932 6.505,-6.538 V 4.616 C 6.505,1.028 3.588,-1.889 0,-1.889 Z"
             style="fill:#4f5a69;fill-opacity:1;fill-rule:nonzero;stroke:none"
             id="path164" /></g><g
           id="g166"
           transform="translate(95.6881,82.7432)"><path
             d="m 0,0 c 0,-3.205 -2.599,-5.803 -5.804,-5.803 -3.205,0 -5.802,2.598 -5.802,5.803 0,3.205 2.597,5.803 5.802,5.803 C -2.599,5.803 0,3.205 0,0"
             style="fill:#ef4123;fill-opacity:1;fill-rule:nonzero;stroke:none"
             id="path168" /></g><g
           id="g170"
           transform="translate(79.7911,91.63)"><path
             d="m 0,0 c -0.81,0 -1.418,-0.279 -1.76,-0.823 -0.77,-1.224 -0.101,-3.481 1.664,-5.615 l 14.892,-18.01 c 2.441,-2.952 5.508,-4.13 7.159,-3.742 0.719,0.17 1.17,0.624 1.337,1.35 l 3.127,13.544 c 0.064,0.269 0.083,0.565 0.061,0.88 -0.206,2.958 -3.969,6.966 -7.321,7.796 L 1.138,-0.153 C 0.726,-0.051 0.345,0 0,0 m 21.285,-28.94 c -2.134,0 -4.989,1.616 -7.011,4.061 L -0.618,-6.87 c -1.274,1.542 -2.029,3.149 -2.126,4.525 -0.051,0.734 0.087,1.368 0.411,1.883 0.655,1.041 1.946,1.385 3.634,0.966 l 18.021,-4.466 c 4.222,-1.046 8.5,-6.277 7.758,-9.486 l -3.129,-13.544 c -0.226,-0.984 -0.863,-1.626 -1.842,-1.857 -0.258,-0.061 -0.535,-0.091 -0.824,-0.091"
             style="fill:#0054a6;fill-opacity:1;fill-rule:nonzero;stroke:none"
             id="path172" /></g><g
           id="g174"
           transform="translate(77.9371,91.9068)"><path
             d="M 0,0 C -0.996,0 -1.722,-0.352 -2.085,-1.026 -2.728,-2.221 -2.28,-4.599 0.167,-7.219 l 17.342,-18.554 c 2.808,-3.005 6.124,-4.047 7.823,-3.5 0.766,0.247 1.229,0.821 1.337,1.662 l 1.982,15.282 c 0.027,0.208 0.033,0.43 0.017,0.658 -0.231,3.321 -4.671,7.676 -8.481,8.321 L 0.863,-0.077 C 0.557,-0.025 0.269,0 0,0 m 24.313,-30.097 c -2.203,0 -5.067,1.473 -7.298,3.861 L -0.327,-7.681 c -1.597,1.709 -2.577,3.603 -2.688,5.196 -0.048,0.68 0.065,1.279 0.333,1.779 0.609,1.132 1.909,1.592 3.658,1.296 l 19.323,-3.272 c 4.514,-0.764 9.49,-6.131 9.024,-9.734 l -1.982,-15.282 c -0.146,-1.12 -0.769,-1.887 -1.803,-2.22 -0.375,-0.121 -0.787,-0.179 -1.225,-0.179"
             style="fill:#0054a6;fill-opacity:1;fill-rule:nonzero;stroke:none"
             id="path176" /></g><g
           id="g178"
           transform="translate(76.0348,92.045)"><path
             d="m 0,0 c -1.231,0 -2.103,-0.447 -2.479,-1.284 -0.629,-1.394 0.033,-4.03 2.932,-6.779 l 19.96,-18.931 c 3.182,-3.017 6.746,-3.891 8.481,-3.18 0.831,0.339 1.288,1.039 1.323,2.024 l 0.614,17.101 c 0.005,0.128 0.002,0.259 -0.008,0.39 v 0.001 c -0.255,3.658 -5.54,8.431 -9.75,8.805 L 0.499,-0.023 C 0.327,-0.008 0.16,0 0,0 m 27.51,-31.094 c -2.259,0 -5.175,1.345 -7.563,3.609 L -0.014,-8.554 c -1.972,1.87 -3.225,4.062 -3.351,5.864 -0.044,0.627 0.047,1.194 0.268,1.685 0.555,1.229 1.849,1.818 3.656,1.657 l 20.575,-1.83 c 4.798,-0.427 10.517,-5.884 10.373,-9.895 l -0.613,-17.101 c -0.046,-1.271 -0.649,-2.179 -1.745,-2.627 C 28.665,-31 28.11,-31.094 27.51,-31.094"
             style="fill:#0054a6;fill-opacity:1;fill-rule:nonzero;stroke:none"
             id="path180" /></g><g
           id="g182"
           transform="translate(74.1066,92.0255)"><path
             d="m 0,0 c -1.525,0 -2.574,-0.571 -2.956,-1.61 -0.702,-1.913 0.823,-4.943 3.709,-7.367 l 22.744,-19.104 c 3.594,-3.019 7.31,-3.682 9.123,-2.778 0.903,0.45 1.348,1.295 1.289,2.443 l -1,19.059 c -0.282,4.034 -6.521,9.215 -11.128,9.24 L 0.032,0 Z m 30.805,-31.908 c -2.305,0 -5.238,1.206 -7.743,3.309 L 0.318,-9.495 c -2.43,2.041 -3.967,4.489 -4.11,6.549 -0.041,0.569 0.028,1.097 0.202,1.57 0.486,1.325 1.76,2.052 3.588,2.052 H 0.036 L 21.785,0.56 c 5.08,-0.028 11.589,-5.516 11.804,-9.955 l 0.995,-18.986 c 0.076,-1.438 -0.499,-2.504 -1.662,-3.084 -0.602,-0.3 -1.322,-0.443 -2.117,-0.443"
             style="fill:#0054a6;fill-opacity:1;fill-rule:nonzero;stroke:none"
             id="path184" /></g><g
           id="g186"
           transform="translate(94.9957,93.7169)"><path
             d="M 0,0 C -0.187,0 -0.371,-0.007 -0.553,-0.022 L -23.369,-1.91 c -1.608,-0.133 -2.635,-0.825 -2.97,-2.002 -0.629,-2.206 1.257,-5.472 4.588,-7.941 L 3.928,-30.89 c 3.967,-2.941 7.902,-3.379 9.743,-2.289 0.904,0.535 1.338,1.441 1.256,2.621 -0.007,0.099 -0.017,0.2 -0.032,0.302 L 12.033,-9.33 C 11.44,-5.001 4.873,0 0,0 m 11.3,-34.416 c -2.314,0 -5.174,1.054 -7.776,2.982 l -25.679,19.038 c -2.949,2.186 -4.807,4.896 -4.971,7.248 -0.036,0.503 0.01,0.982 0.136,1.422 0.413,1.45 1.679,2.334 3.565,2.49 l 22.817,1.888 c 5.293,0.442 12.645,-5.014 13.312,-9.89 l 2.862,-20.926 v -10e-4 l 0.017,-0.127 h -10e-4 c 0.173,-1.539 -0.382,-2.768 -1.566,-3.47 -0.746,-0.442 -1.676,-0.654 -2.716,-0.654"
             style="fill:#0054a6;fill-opacity:1;fill-rule:nonzero;stroke:none"
             id="path188" /></g><g
           id="g190"
           transform="translate(94.0045,95.6427)"><path
             d="M 0,0 C -0.43,0 -0.847,-0.034 -1.247,-0.104 L -24.99,-4.312 c -1.647,-0.292 -2.658,-1.135 -2.924,-2.441 -0.514,-2.529 1.777,-6.019 5.574,-8.488 L 6.41,-33.932 c 3.885,-2.525 8.134,-3.228 10.332,-1.709 1.07,0.741 1.46,1.942 1.125,3.474 l -0.003,0.013 -5.004,22.885 C 11.866,-4.722 5.065,0 0,0 m 13.763,-37.1 c -2.312,0 -5.108,0.901 -7.722,2.601 l -28.75,18.691 c -3.424,2.225 -5.754,5.368 -5.939,8.005 -0.029,0.414 -0.005,0.812 0.071,1.185 0.321,1.577 1.553,2.634 3.469,2.973 l 23.743,4.207 c 5.518,0.973 13.722,-4.364 14.886,-9.686 l 5.008,-22.897 c 0.392,-1.798 -0.106,-3.281 -1.402,-4.176 -0.879,-0.608 -2.043,-0.903 -3.364,-0.903"
             style="fill:#0054a6;fill-opacity:1;fill-rule:nonzero;stroke:none"
             id="path192" /></g><g
           id="g194"
           transform="translate(92.8795,97.6866)"><path
             d="M 0,0 C -0.728,0 -1.423,-0.084 -2.065,-0.265 L -26.56,-7.124 c -1.681,-0.471 -2.663,-1.488 -2.838,-2.94 -0.348,-2.879 2.394,-6.574 6.668,-8.986 L 9.206,-37.073 c 4.2,-2.37 8.678,-2.796 10.884,-1.032 1.161,0.927 1.5,2.342 0.977,4.092 l -0.039,0.13 -7.406,24.759 C 12.211,-4.406 5.252,0 0,0 m 16.379,-39.851 c -2.271,0 -4.946,0.744 -7.505,2.188 l -31.937,18.023 c -4.06,2.291 -6.818,5.718 -7.029,8.73 -0.022,0.317 -0.014,0.629 0.022,0.927 0.208,1.721 1.39,2.968 3.328,3.511 l 24.494,6.86 c 5.681,1.59 14.793,-3.546 16.519,-9.318 l 7.443,-24.882 c 0.601,-2.011 0.175,-3.724 -1.201,-4.823 -1.023,-0.816 -2.47,-1.216 -4.134,-1.216"
             style="fill:#0054a6;fill-opacity:1;fill-rule:nonzero;stroke:none"
             id="path196" /></g><g
           id="g198"
           transform="translate(91.6471,99.8487)"><path
             d="m 0,0 c -1.129,0 -2.166,-0.172 -3.053,-0.521 l -25.025,-9.866 c -1.713,-0.675 -2.649,-1.888 -2.709,-3.51 -0.12,-3.248 3.116,-7.117 7.87,-9.411 l 35.215,-16.987 c 4.499,-2.171 9.181,-2.278 11.386,-0.257 0.85,0.78 1.254,1.844 1.169,3.076 -0.039,0.546 -0.173,1.129 -0.401,1.73 L 14.263,-8.893 c -1.097,2.889 -4.18,5.745 -8.048,7.456 C 4.067,-0.489 1.902,0 0,0 m 19.106,-42.69 c -2.161,0 -4.639,0.596 -7.103,1.785 l -35.214,16.988 c -4.693,2.264 -8.005,6.066 -8.243,9.462 -0.013,0.195 -0.017,0.391 -0.009,0.582 0.069,1.885 1.183,3.346 3.137,4.116 l 25.025,9.865 c 2.585,1.019 6.154,0.681 9.789,-0.926 4.03,-1.783 7.251,-4.784 8.408,-7.834 l 10.19,-26.853 c 0,-0.002 0.001,-0.004 0.002,-0.005 l 0.043,-0.116 H 25.13 c 0.792,-2.19 0.443,-4.113 -0.989,-5.425 -1.194,-1.094 -2.969,-1.639 -5.035,-1.639"
             style="fill:#0054a6;fill-opacity:1;fill-rule:nonzero;stroke:none"
             id="path200" /></g><g
           id="g202"
           transform="translate(90.2828,102.1461)"><path
             d="m 0,0 c -1.597,0 -3.032,-0.305 -4.198,-0.916 l -25.295,-13.242 c -1.739,-0.91 -2.61,-2.35 -2.52,-4.166 0.187,-3.628 3.96,-7.63 9.174,-9.732 l 38.551,-15.539 c 4.856,-1.957 9.61,-1.706 11.831,0.623 1.334,1.401 1.509,3.389 0.49,5.599 l -0.026,0.057 -13.231,28.724 C 13.292,-5.372 9.635,-2.438 5.23,-0.937 3.396,-0.312 1.616,0 0,0 m 21.955,-45.576 c -2.007,0 -4.245,0.446 -6.495,1.354 l -38.553,15.538 c -5.378,2.168 -9.321,6.363 -9.589,10.203 l 0.128,0.009 -0.129,-0.002 -0.006,0.117 c -0.103,2.067 0.92,3.772 2.881,4.799 l 25.295,13.242 c 2.51,1.315 6.141,1.321 9.962,0.02 4.573,-1.559 8.383,-4.63 9.943,-8.014 l 13.256,-28.78 c 1.141,-2.479 0.924,-4.734 -0.614,-6.348 -1.348,-1.416 -3.527,-2.138 -6.079,-2.138"
             style="fill:#0054a6;fill-opacity:1;fill-rule:nonzero;stroke:none"
             id="path204" /></g><g
           id="g206"
           transform="translate(88.7721,104.5548)"><path
             d="m 0,0 c -2.168,0 -4.076,-0.491 -5.503,-1.452 l -25.255,-17.005 c -1.755,-1.182 -2.534,-2.884 -2.25,-4.922 0.56,-4 4.905,-8.079 10.566,-9.919 L 19.47,-46.922 c 5.118,-1.662 10.025,-1.016 12.208,1.61 0.813,0.978 1.178,2.133 1.088,3.435 -0.069,0.972 -0.393,1.996 -0.963,3.045 L 15.145,-8.203 C 13.22,-4.664 8.972,-1.719 4.059,-0.516 2.646,-0.17 1.277,0 0,0 m 24.98,-48.531 c -1.78,0 -3.723,0.317 -5.719,0.965 l -41.913,13.624 c -5.898,1.918 -10.432,6.223 -11.027,10.469 -0.021,0.152 -0.037,0.303 -0.048,0.452 -0.145,2.083 0.775,3.903 2.591,5.126 L -5.881,-0.89 c 2.425,1.633 6.107,2.008 10.1,1.032 5.094,-1.247 9.507,-4.32 11.519,-8.021 l 16.66,-30.628 c 0,-0.003 10e-4,-0.005 0.002,-0.007 l 0.059,-0.106 -0.001,-0.001 c 1.421,-2.685 1.33,-5.212 -0.259,-7.125 -1.521,-1.829 -4.123,-2.785 -7.219,-2.785"
             style="fill:#0054a6;fill-opacity:1;fill-rule:nonzero;stroke:none"
             id="path208" /></g><g
           id="g210"
           transform="translate(87.1236,107.0904)"><path
             d="m 0,0 c -2.852,0 -5.316,-0.753 -6.988,-2.176 l -24.851,-21.166 c -1.767,-1.506 -2.416,-3.511 -1.878,-5.798 1.026,-4.351 5.972,-8.435 12.028,-9.933 l 45.252,-11.193 c 5.44,-1.347 10.348,-0.283 12.506,2.707 1.5,2.078 1.379,4.726 -0.342,7.456 l -0.039,0.061 -20.364,32.298 C 12.949,-3.976 7.991,-1.02 2.694,-0.211 1.769,-0.07 0.866,0 0,0 m 28.054,-51.515 c -1.475,0 -3.043,0.193 -4.654,0.592 l -45.253,11.193 c -6.291,1.556 -11.44,5.847 -12.522,10.435 -0.094,0.396 -0.155,0.793 -0.182,1.181 -0.144,2.066 0.644,3.894 2.28,5.287 l 24.851,21.166 c 2.327,1.982 6.053,2.756 10.223,2.119 5.483,-0.836 10.625,-3.914 13.101,-7.84 L 36.3,-39.741 c 1.851,-2.937 1.968,-5.93 0.319,-8.214 -1.667,-2.308 -4.811,-3.56 -8.565,-3.56"
             style="fill:#0054a6;fill-opacity:1;fill-rule:nonzero;stroke:none"
             id="path212" /></g><g
           id="g214"
           transform="translate(85.3082,109.752)"><path
             d="m 0,0 c -3.65,0 -6.753,-1.113 -8.632,-3.126 l -24.03,-25.735 c -1.737,-1.86 -2.223,-4.277 -1.367,-6.806 1.574,-4.654 7.136,-8.658 13.526,-9.737 l 48.523,-8.192 c 5.645,-0.953 10.644,0.585 12.719,3.923 1.534,2.467 1.195,5.574 -0.934,8.522 L 15.313,-7.224 C 12.421,-3.217 6.869,-0.396 1.171,-0.038 0.775,-0.012 0.385,0 0,0 m 31.248,-54.551 c -1.078,0 -2.196,0.094 -3.341,0.287 l -48.523,8.193 c -6.624,1.118 -12.404,5.307 -14.055,10.188 -0.239,0.705 -0.384,1.413 -0.432,2.104 -0.14,2.006 0.533,3.866 1.946,5.38 l 24.03,25.735 c 2.215,2.373 5.985,3.577 10.341,3.303 5.892,-0.372 11.641,-3.302 14.647,-7.466 l 24.493,-33.928 c 0.002,-0.004 0.005,-0.007 0.008,-0.01 l 0.068,-0.094 h -10e-4 c 2.23,-3.151 2.554,-6.488 0.884,-9.171 -1.791,-2.882 -5.563,-4.52 -10.065,-4.521"
             style="fill:#0054a6;fill-opacity:1;fill-rule:nonzero;stroke:none"
             id="path216" /></g><g
           id="g218"
           transform="translate(83.3082,112.5377)"><path
             d="m 0,0 c -0.165,0 -0.33,-0.002 -0.495,-0.006 -4.354,-0.108 -7.974,-1.688 -9.932,-4.333 l -22.73,-30.717 c -1.708,-2.308 -1.949,-5.134 -0.678,-7.959 2.232,-4.962 8.271,-8.697 15.024,-9.294 l 51.665,-4.567 c 5.918,-0.521 10.842,1.492 12.834,5.262 0.649,1.229 0.929,2.558 0.832,3.95 -0.133,1.915 -0.997,3.895 -2.497,5.725 L 15.091,-6.655 C 11.749,-2.581 5.87,0 0,0 m 34.677,-57.635 c -0.615,0 -1.243,0.028 -1.883,0.084 l -51.665,4.568 c -6.99,0.618 -13.252,4.513 -15.582,9.691 -0.486,1.082 -0.772,2.175 -0.847,3.251 -0.135,1.93 0.418,3.793 1.598,5.388 l 22.731,30.716 c 2.082,2.814 5.894,4.494 10.459,4.607 0.17,0.005 0.34,0.007 0.51,0.007 6.066,0 12.15,-2.677 15.616,-6.903 L 44.628,-41.61 c 2.731,-3.389 3.336,-7.144 1.657,-10.321 -1.901,-3.6 -6.257,-5.704 -11.608,-5.704"
             style="fill:#0054a6;fill-opacity:1;fill-rule:nonzero;stroke:none"
             id="path220" /></g><g
           id="g222"
           transform="translate(81.066,115.442)"><path
             d="m 0,0 c -0.752,0 -1.504,-0.042 -2.252,-0.125 -4.584,-0.513 -8.252,-2.604 -10.064,-5.734 l -20.891,-36.11 c -1.643,-2.841 -1.56,-6.127 0.235,-9.257 2.924,-5.096 9.545,-8.543 16.475,-8.577 l 54.61,-0.262 h 0.103 c 6.035,0 10.911,2.574 12.739,6.735 1.544,3.512 0.611,7.486 -2.557,10.905 L 14.679,-6.052 C 11.162,-2.258 5.583,0 0,0 M 38.214,-60.743 H 38.11 l -54.609,0.263 c -7.165,0.035 -14.021,3.619 -17.06,8.917 -0.873,1.522 -1.371,3.085 -1.48,4.646 -0.129,1.855 0.29,3.635 1.246,5.287 l 20.891,36.11 c 1.92,3.318 5.774,5.53 10.575,6.067 6.502,0.73 13.371,-1.681 17.502,-6.139 l 33.719,-36.373 c 3.361,-3.626 4.337,-7.868 2.681,-11.638 -1.937,-4.41 -7.052,-7.14 -13.361,-7.14"
             style="fill:#0054a6;fill-opacity:1;fill-rule:nonzero;stroke:none"
             id="path224" /></g><path
           d="M 179.435,9.983 H 0 v 1.088 h 179.435 z"
           style="fill:#4f5a69;fill-opacity:1;fill-rule:nonzero;stroke:none"
           id="path226" /></g></g></g></svg>
