<svg width="1719" height="757" viewBox="0 0 1719 757" fill="none" xmlns="http://www.w3.org/2000/svg">
<g clip-path="url(#clip0_508_2587)">
<path d="M378.64 757.29C587.8 757.29 757.28 587.64 757.28 378.59C757.28 169.54 587.8 0 378.64 0C169.48 0 0 169.44 0 378.59C0 587.74 169.54 757.29 378.64 757.29Z" fill="#A50034"/>
<path d="M363.61 212.41V544.34H469.1V514.79H393.73V212.41H363.61Z" fill="white"/>
<path d="M257.77 303.02C282.89 303.02 303.23 282.67 303.23 257.68C303.23 232.69 282.88 212.21 257.77 212.21C232.66 212.21 212.45 232.57 212.45 257.68C212.45 282.79 232.85 303.02 257.77 303.02Z" fill="white"/>
<path d="M393.73 61.79C389.86 61.62 382.31 61.51 378.67 61.51C203.99 61.51 61.8101 203.73 61.8101 378.51C61.8101 463.18 94.6901 542.69 154.45 602.54C214.52 662.43 294.15 695.36 378.67 695.36C463.19 695.36 542.85 662.43 602.91 602.54C662.62 542.69 695.51 463.18 695.51 378.51V364.04L682.88 364.14H469.33V393.56H665.44V397.82C655.37 547.29 530.6 665.78 378.67 665.78C301.96 665.78 229.84 635.92 175.57 581.68C121.27 527.42 91.3801 455.24 91.3801 378.52C91.3801 301.8 121.27 229.59 175.57 175.37C229.84 121 301.97 91.16 378.67 91.16C382.14 91.16 390.29 91.23 393.73 91.31V61.8V61.79Z" fill="white"/>
<path d="M1039.65 131.77H926.56V621.32H1273.95V526H1039.65V131.77Z" fill="#6B6B6B"/>
<path d="M1522.74 434.74H1614.78V520.3C1597.86 526.79 1564.77 533.29 1533.28 533.29C1431.46 533.29 1397.52 481.55 1397.52 376.52C1397.52 271.49 1429.8 217.38 1531.61 217.38C1588.15 217.38 1620.49 235.17 1647.12 269.08L1717.46 204.51C1674.63 143.1 1599.46 124.51 1529.18 124.51C1370.83 124.51 1287.6 210.94 1287.6 375.7C1287.6 540.46 1362.73 628.55 1528.38 628.55C1604.28 628.55 1678.61 609.19 1719.05 580.9V343.41H1522.74V434.73V434.74Z" fill="#6B6B6B"/>
</g>
<defs>
<clipPath id="clip0_508_2587">
<rect width="1719" height="757" fill="white"/>
</clipPath>
</defs>
</svg>
