<?xml version="1.0" encoding="utf-8"?>
<!-- Generator: Adobe Illustrator 28.0.0, SVG Export Plug-In . SVG Version: 6.00 Build 0)  -->
<svg version="1.1" id="Слой_1" xmlns="http://www.w3.org/2000/svg" xmlns:xlink="http://www.w3.org/1999/xlink" x="0px" y="0px"
	 viewBox="0 0 1000 189.9" style="enable-background:new 0 0 1000 189.9;" xml:space="preserve">
<style type="text/css">
	.st0{fill:#76B900;}
</style>
<g>
	<path d="M610.9,35.9v124.7h35.2V35.9H610.9z M334.1,35.7v124.8h35.5V63.6l27.7,0.1c9.1,0,15.4,2.2,19.8,6.9
		c5.6,5.9,7.8,15.5,7.8,33v57h34.4V91.6c0-49.2-31.4-55.9-62-55.9C397.3,35.7,334.1,35.7,334.1,35.7z M667.7,35.9v124.7h57.1
		c30.4,0,40.4-5.1,51-16.4c7.6-7.9,12.5-25.5,12.5-44.6c0-17.5-4.1-33.2-11.4-42.9c-12.9-17.4-31.7-20.8-59.8-20.8
		C717,35.9,667.7,35.9,667.7,35.9z M702.6,63h15.1c22,0,36.1,9.8,36.1,35.4s-14.2,35.5-36.1,35.5h-15.1V63z M560.2,35.9l-29.4,98.8
		l-28.1-98.8h-38l40.2,124.7h50.7l40.6-124.7C596.2,35.9,560.2,35.9,560.2,35.9z M804.7,160.6h35.2V35.9h-35.2V160.6z M903.4,35.9
		l-49.1,124.6h34.7l7.8-22.1h58.1l7.4,22h37.7L950.4,35.9H903.4z M926.2,58.6l21.3,58.3h-43.3C904.3,117,926.2,58.6,926.2,58.6z"/>
	<path class="st0" d="M107,56.6V39.5c1.7-0.1,3.4-0.2,5.1-0.2c46.9-1.5,77.7,40.4,77.7,40.4s-33.2,46.1-68.8,46.1
		c-4.8,0-9.4-0.7-13.8-2.2v-52c18.3,2.2,22,10.2,32.9,28.5l24.4-20.5c0,0-17.9-23.4-47.9-23.4C113.4,56.1,110.2,56.3,107,56.6
		 M107,0v25.6l5.1-0.3c65.2-2.2,107.8,53.5,107.8,53.5s-48.8,59.4-99.6,59.4c-4.4,0-8.8-0.4-13.1-1.2v15.8c3.6,0.4,7.3,0.7,10.9,0.7
		c47.3,0,81.6-24.2,114.8-52.7c5.5,4.4,28,15.1,32.7,19.8c-31.5,26.4-104.9,47.7-146.6,47.7c-4,0-7.8-0.2-11.6-0.6v22.3h179.8V0
		C287.1,0,107,0,107,0z M107,123.5V137c-43.7-7.8-55.9-53.4-55.9-53.4s21-23.2,55.9-27v14.8h-0.1c-18.3-2.2-32.7,14.9-32.7,14.9
		S82.4,115.2,107,123.5 M29.4,81.8c0,0,25.9-38.3,77.8-42.3V25.6C49.7,30.2,0,78.8,0,78.8s28.1,81.4,107,88.8v-14.8
		C49.1,145.6,29.4,81.8,29.4,81.8z"/>
</g>
</svg>
