<svg width="98" height="30" viewBox="0 0 98 30" fill="none" xmlns="http://www.w3.org/2000/svg">
<g clip-path="url(#clip0_547_2549)">
<path fill-rule="evenodd" clip-rule="evenodd" d="M19.9492 0L9.97461 10.0003H19.9492V30L29.9238 20.0241V0H19.9492Z" fill="#F26126"/>
<path fill-rule="evenodd" clip-rule="evenodd" d="M9.9746 30L19.9492 20H9.9746V0L0 9.97618V30H9.9746Z" fill="#2B2D84"/>
<path fill-rule="evenodd" clip-rule="evenodd" d="M71.1679 20.7374C67.6728 20.7374 65.708 18.1684 65.708 14.9931C65.708 12.4436 67.1385 9.24336 71.069 9.24336C71.9498 9.2518 72.818 9.45352 73.6123 9.83427C74.4066 10.215 75.1075 10.7655 75.6657 11.4469L78.8502 8.255C77.8699 7.07686 76.6422 6.12904 75.2543 5.47889C73.8664 4.82873 72.3523 4.49218 70.8196 4.49315C69.4395 4.46293 68.0677 4.71503 66.7885 5.23398C65.5093 5.75292 64.3496 6.52777 63.3806 7.51098C62.4116 8.49419 61.6537 9.66502 61.1534 10.9516C60.6531 12.2383 60.421 13.6135 60.4712 14.9931C60.4468 17.1961 61.1236 19.3497 62.4038 21.1427C63.684 22.9357 65.5012 24.2751 67.5928 24.9672C69.6843 25.6594 71.9418 25.6684 74.0388 24.9931C76.1359 24.3177 77.9638 22.993 79.2583 21.2103L76.0539 17.9971C75.5477 18.8389 74.8309 19.5344 73.9742 20.0149C73.1174 20.4954 72.1502 20.7444 71.1679 20.7374ZM90.2669 20.7497H86.2919V16.7541H90.2669C91.5024 16.7541 92.7527 17.2421 92.7527 18.7463C92.7527 20.2512 91.5024 20.7497 90.2669 20.7497ZM90.7656 12.4934H86.2919V9.49982H96.255V4.9996H81.0551V24.9996C81.0551 24.9996 88.5251 24.9992 91.0149 24.9992C95.0079 24.9992 98.0004 22.9926 98.0004 18.7463C98.0004 14.4928 95.0079 12.4934 90.7656 12.4934ZM39.8984 24.9996H45.1353V9.49982H53.1148V24.9996H58.3516V4.9996H39.8984V24.9996Z" fill="#2B2D84"/>
</g>
<defs>
<clipPath id="clip0_547_2549">
<rect width="98" height="30" fill="white"/>
</clipPath>
</defs>
</svg>
