<svg width="321" height="70" viewBox="0 0 321 70" fill="none" xmlns="http://www.w3.org/2000/svg">
<g clip-path="url(#clip0_507_2549)">
<path d="M301.6 27.9H308.2V20.3H314.3V27.9H320.9V8.9H314.3V15.6H308.2V8.9H301.6V27.9ZM261.3 14.3C262.7 13.4 264.6 12.7 266.2 12.7C267 12.7 268.9 12.8 268.9 14.4C268.9 16 267.3 16 266.7 16H263.4V20.1H266.3C267.2 20.1 269 20.2 269 21.7C269 22.3 268.6 23.5 266.3 23.5C264 23.5 262.5 22.9 260.6 21.7L258.9 26.2C262.5 28.3 265.8 28.5 267.4 28.5C275 28.5 275.9 24.1 275.9 22.7C275.9 20.7 274.7 18.7 272.1 18C273.8 17.3 274.8 15.6 274.8 13.6C274.8 9.2 270.1 8.3 267.3 8.3C264.6 8.3 261.6 9.1 259.6 10.2L261.3 14.3ZM247 6.5C250 6.5 253.1 5.3 254.5 2.1L250.2 0.5C249.7 2.7 247.8 2.8 247 2.8C246.2 2.8 244.4 2.7 243.9 0.5L239.6 2.1C240.8 5.3 244 6.5 247 6.5ZM236.6 8.9V27.8H243.1L249.7 17.4V27.8H256.3V8.9H249.9L243.3 19V8.9H236.6ZM192.5 23.8V13.3C190.3 13.3 188 14.9 188 18.6C188 22.1 190.3 23.8 192.5 23.8ZM198.4 13.3V23.8C200.6 23.8 202.9 22.2 202.9 18.6C202.9 14.9 200.6 13.3 198.4 13.3ZM192.1 36.1V28.2C188.1 28.2 181.6 26.6 181.6 18.4C181.6 10.3 188.1 8.6 192.1 8.7V0.4H198.7V8.6C202.7 8.6 209.2 10.2 209.2 18.3C209.2 26.5 202.7 28.1 198.7 28.1V36H192.1V36.1ZM162.7 23.8V13.3C160.5 13.3 158.2 14.9 158.2 18.6C158.1 22.1 160.4 23.8 162.7 23.8ZM168.5 13.3V23.8C170.7 23.8 173 22.2 173 18.6C173 14.9 170.7 13.3 168.5 13.3ZM162.2 36.1V28.2C158.2 28.2 151.7 26.6 151.7 18.4C151.7 10.3 158.2 8.6 162.2 8.7V0.4H168.8V8.6C172.8 8.6 179.3 10.2 179.3 18.3C179.3 26.5 172.8 28.1 168.8 28.1V36H162.2V36.1ZM139.3 6.5C142.3 6.5 145.4 5.3 146.8 2.1L142.5 0.5C142 2.7 140.1 2.8 139.3 2.8C138.5 2.8 136.7 2.7 136.1 0.5L131.8 2.1C133.2 5.3 136.3 6.5 139.3 6.5ZM128.9 8.9V27.8H135.3L141.9 17.4V27.8H148.5V8.9H142.1L135.5 19V8.9H128.9ZM88.4001 6V12.3H90.8001C94.1001 12.3 94.4001 10.3 94.4001 9.1C94.4001 7.8 94.0001 6 90.8001 6H88.7001H88.4001ZM81.2001 27.9V0H92.4001C100 0 102.1 5.4 102.1 9.2C102.1 13 99.9001 18.4 92.4001 18.4H88.3001V27.9H81.2001ZM232.5 8.9V27.8H225.9V25.7H225.8C224.6 27.6 222.3 28.4 220.2 28.4C214.7 28.4 210.8 23.7 210.8 18.3C210.8 12.9 214.6 8.2 220.2 8.2C222.3 8.2 224.6 9 226 10.7V8.9H232.5ZM221.8 14.1C219.1 14.1 217.5 16.1 217.5 18.4C217.5 20.8 219.1 22.6 221.8 22.6C224.5 22.6 226.1 20.7 226.1 18.4C226.1 16.1 224.5 14.1 221.8 14.1ZM124.8 8.9V27.8H118.2V25.7H118.1C116.9 27.6 114.6 28.4 112.5 28.4C107 28.4 103.1 23.7 103.1 18.3C103.1 12.9 106.9 8.2 112.5 8.2C114.6 8.2 116.9 9 118.3 10.7V8.9H124.8ZM114.1 14.1C111.4 14.1 109.8 16.1 109.8 18.4C109.8 20.8 111.4 22.6 114.1 22.6C116.8 22.6 118.4 20.7 118.4 18.4C118.4 16.1 116.8 14.1 114.1 14.1ZM298.3 19.2V19.9H284.4C284.4 22.6 285.8 24.1 288.5 24.1C289.9 24.1 290.9 23.6 291.7 22.4H298.1C297 26.9 292.9 28.9 288.6 28.9C282.4 28.9 277.8 25.4 277.8 18.8C277.8 12.5 282.1 8.7 288.1 8.7C294.6 8.7 298.3 12.7 298.3 19.2ZM284.5 16H292.2C291.9 14.2 290.2 13 288.4 13C286.5 13 284.9 14.1 284.5 16ZM91.8001 58.1H89.8001L88.8001 64H90.7001C95.1001 64 95.9001 62.8 96.2001 61.2C96.5001 59.4 96.1001 58.1 91.8001 58.1ZM103.8 61.2C103.5 63.1 102.9 65 101.5 66.3C98.5001 69.3 94.0001 69.5 91.2001 69.6H80.1001L84.8001 41.8H103.8L102.9 47.3H91.4001L90.5001 52.9H93.8001C96.3001 52.9 99.4001 53.2 101.6 55.1C103.4 56.5 104.3 58.6 103.8 61.2ZM123.8 64.8H113.3L110.5 69.6H102.4L118.3 41.8H126.6L133 69.6H124.9L123.8 64.8ZM122.7 59.2L121.1 50.3H121L116.4 59.2H122.7ZM175.5 41.8H167.8L163.2 69.6H170.8L172.8 57.5H172.9L180.7 69.6H190.6L180.3 55L194.1 41.8H184.7L173.6 53.3H173.5L175.5 41.8ZM146.1 41.8L144.4 52.2H154.5L156.2 41.8H163.6L159.1 69.6H151.7L153.6 57.6H143.5L141.6 69.6H134.2L138.7 41.8H146.1Z" fill="black"/>
<path d="M67.3 2.30005H2.30005V67.3H67.3V2.30005Z" fill="#FAEB00"/>
<path d="M2.3 2.3H67.3V67.3H2.3V2.3ZM0 69.6H69.6V0H0V69.6Z" fill="black"/>
<path d="M34.8001 42.6999L14.8001 62.6999L6.9001 54.7999L26.9001 34.7999L22.7001 30.5999V22.3999L19.8001 19.4999V26.6999L17.3001 29.1999L7.1001 19.0999L4.6001 21.5999C4.6001 19.6999 5.0001 14.1999 9.6001 9.69995C14.6001 4.89995 20.0001 7.09995 21.9001 8.89995L32.1001 18.9999L29.5001 21.5999L34.8001 26.8999L40.1001 21.5999L37.5001 18.9999L47.7001 8.79995C49.6001 6.99995 55.0001 4.79995 60.0001 9.59995C64.6001 14.1999 65.0001 19.5999 65.0001 21.4999L62.5001 18.9999L52.3001 29.1999L49.8001 26.6999V19.4999L46.9001 22.3999V30.5999L42.7001 34.7999L62.7001 54.7999L54.8001 62.6999L34.8001 42.6999Z" fill="black"/>
</g>
<defs>
<clipPath id="clip0_507_2549">
<rect width="321" height="70" fill="white"/>
</clipPath>
</defs>
</svg>
