<svg width="432" height="140" viewBox="0 0 432 140" fill="none" xmlns="http://www.w3.org/2000/svg">
<g clip-path="url(#clip0_548_2554)">
<path d="M218.784 33.6975H230.382V44.1419H218.784V33.6975ZM218.784 50.2165H230.382V94.1344H218.784V50.2165Z" fill="#747679"/>
<path d="M248.035 57.2366H248.291C250.935 52.2707 253.919 49.7021 259.036 49.7021C260.314 49.7021 261.083 49.7885 261.765 50.0449V60.2323H261.509C253.92 59.4624 248.462 63.4859 248.462 72.7313V94.1339H236.863V50.2161H248.035V57.2366Z" fill="#747679"/>
<path d="M284.362 33.6975H295.959V44.1419H284.362V33.6975ZM284.362 50.2165H295.96V94.1344H284.362V50.2165Z" fill="#747679"/>
<path d="M313.782 56.2088H314.037C317.022 51.5003 321.029 49.0176 326.999 49.0176C336.04 49.0176 342.093 55.8661 342.093 65.4547V94.1339H330.496V67.1666C330.496 62.4581 327.767 59.1192 322.906 59.1192C317.79 59.1192 314.037 63.2284 314.037 69.2212V94.1339H302.44V50.216H313.782V56.2088H313.782Z" fill="#747679"/>
<path d="M346.867 72.1325C346.867 59.1196 355.65 49.0181 368.442 49.0181C382.513 49.0181 390.017 59.8047 390.017 75.471H358.294C359.147 82.2336 362.899 86.4292 369.466 86.4292C373.985 86.4292 376.629 84.3746 377.908 81.0352H389.336C387.715 88.8261 380.807 95.4186 369.551 95.4186C355.054 95.4181 346.867 85.2298 346.867 72.1325ZM358.464 67.424H377.908C377.566 61.8588 373.9 58.006 368.613 58.006C362.472 58.006 359.488 61.6877 358.464 67.424Z" fill="#747679"/>
<path d="M392.688 79.922H403.433C404.202 84.9733 407.782 87.1991 412.985 87.1991C418.103 87.1991 421.002 85.2298 421.002 82.1488C421.002 77.9537 415.458 77.5251 409.489 76.3276C401.643 74.7864 393.968 72.6459 393.968 63.0578C393.968 53.5554 401.815 49.0181 411.792 49.0181C423.304 49.0181 429.7 54.7539 430.553 63.5712H420.064C419.551 58.8632 416.566 57.1508 411.621 57.1508C407.101 57.1508 404.116 58.8632 404.116 62.0305C404.116 65.797 409.915 66.1397 416.141 67.4245C423.475 68.9652 431.576 71.0199 431.576 81.2931C431.576 90.1109 424.071 95.4191 413.156 95.4191C400.449 95.4181 393.372 89.2547 392.688 79.922Z" fill="#747679"/>
<path d="M191.42 33.6975H177.921L153.516 94.1339H167.33L171.85 81.7207H196.752L201.356 94.1339H215.257L191.42 33.6975ZM175.176 71.5328L184.13 45.8493L193.34 71.5323H175.176V71.5328Z" fill="#747679"/>
<path d="M277.882 33.6975H266.283V94.1339H277.882V33.6975Z" fill="#747679"/>
<path d="M138.463 69.9716C138.463 108.368 107.489 139.458 69.2527 139.458C31.0114 139.458 0 108.368 0 69.9716C0 31.5753 31.0114 0.455566 69.2527 0.455566C107.49 0.455566 138.463 31.5753 138.463 69.9716Z" fill="#BED600"/>
<path d="M64.2078 33.6946C53.3027 33.6946 46.2282 34.2997 41.1071 36.2082C32.5013 39.5736 26.5581 46.6271 26.5581 55.8965C26.5581 63.6168 30.139 69.208 40.5024 75.6387C51.5599 82.368 53.7658 84.5918 53.7658 88.6467C53.7658 93.0845 49.4345 98.1358 38.2901 98.1358C34.4004 98.1358 28.5417 97.5954 24.7981 96.6759L23.0118 96.2238C22.0153 98.9057 19.7532 105.25 19.0635 107.551L20.8322 108.074C24.1997 109.152 32.1916 109.994 37.9174 109.994C56.9652 109.994 68.33 98.4413 68.33 86.3439C68.33 78.9104 64.9688 73.2609 53.6065 66.1437C47.9071 62.6243 45.0026 60.3421 43.2388 58.5754C41.809 56.7311 41.6508 55.3585 41.6508 53.9085C41.6508 52.5242 41.9575 50.929 42.8666 49.7605C43.8499 48.3159 45.6533 47.3955 48.0942 46.6359C50.6029 45.8003 55.2512 45.7782 62.4908 45.7782H69.2317L74.0451 33.6951L64.2078 33.6946ZM115.151 33.6946H81.2768L76.463 45.7772H87.6909C95.2461 45.7772 96.6993 45.6139 98.5965 45.6139C95.8576 51.9039 79.3508 94.1314 79.3508 94.1314H93.321C93.321 94.1314 114.22 41.5655 116.434 36.0542C117.048 34.8244 116.743 33.6946 115.151 33.6946Z" fill="white"/>
</g>
<defs>
<clipPath id="clip0_548_2554">
<rect width="432" height="140" fill="white"/>
</clipPath>
</defs>
</svg>
