<svg width="743" height="368" viewBox="0 0 743 368" fill="none" xmlns="http://www.w3.org/2000/svg">
<g clip-path="url(#clip0_549_2592)">
<path d="M0 367.448H375.135L743 0H0V367.448Z" fill="#014185"/>
<path fill-rule="evenodd" clip-rule="evenodd" d="M440.566 69.061L367.865 69.0465V242.854L303.889 69.0465H241.366L186.114 214.404C180.298 177.789 142.493 165.133 111.959 155.659C93.0569 149.295 71.2467 139.938 72.7007 129.709C72.7007 121.224 82.8788 113.435 104.689 114.598C119.229 115.339 132.315 116.545 158.487 129.012L184.66 84.7388C159.941 72.7661 127.953 65.196 101.781 65.167C69.7927 65.167 43.6205 75.2217 27.6264 91.8876C17.4483 103.482 10.1782 118.201 10.1782 134.518C10.1782 156.967 18.9023 172.892 34.8964 185.577C50.8905 196.256 68.3387 203.216 85.7868 208.316C106.143 214.607 122.137 220.056 122.137 231.738C122.137 236.054 120.683 239.977 117.775 243.13C111.959 248.346 104.689 250.322 93.0569 250.569C72.7007 250.947 58.1606 247.707 33.4424 233.278L10.1782 278.103C34.8964 291.994 63.9766 300.16 93.0569 300.16L97.4189 300.131C122.137 299.666 143.947 292.328 159.941 278.99C161.395 278.205 161.395 277.479 162.849 276.752L155.579 296.266H222.464L232.642 262.44C244.274 266.334 257.36 268.601 271.9 268.601C286.44 268.601 298.073 266.407 309.705 262.716L321.337 296.266H428.934V226.101H453.652C510.358 226.101 543.8 197.026 543.8 148.264C543.8 93.9798 511.812 69.061 440.566 69.061ZM271.9 217.862C263.176 217.862 255.906 216.351 248.636 213.707L271.9 140.592L295.164 213.939C287.894 216.438 280.624 217.862 271.9 217.862ZM444.928 175.813H428.934V116.865H444.928C466.738 116.865 484.186 123.999 484.186 146.041C484.186 168.707 466.738 175.813 444.928 175.813Z" fill="white"/>
<path d="M466.738 343.968C466.738 332.736 475.462 324.178 485.64 324.178C495.818 324.178 504.542 332.736 504.542 343.968C504.542 355.621 495.818 364.019 485.64 364.019C475.462 364.019 466.738 355.621 466.738 343.968ZM485.64 368C498.726 368 510.358 357.815 510.358 343.968C510.358 330.324 498.726 320.298 485.64 320.298C472.554 320.298 460.922 330.324 460.922 343.968C460.922 357.815 472.554 368 485.64 368ZM481.278 345.958H485.64L492.91 357.815H497.272L490.002 345.726C492.91 345.232 497.272 343.096 497.272 338.214C497.272 332.736 492.91 330.324 487.094 330.324H476.916V357.815H481.278V345.958ZM481.278 342.413V333.826H487.094C488.548 333.826 492.91 334.494 492.91 337.967C492.91 342.137 488.548 342.413 485.64 342.413H481.278Z" fill="#014185"/>
</g>
<defs>
<clipPath id="clip0_549_2592">
<rect width="743" height="368" fill="white"/>
</clipPath>
</defs>
</svg>
