<svg width="175" height="50" viewBox="0 0 175 50" fill="none" xmlns="http://www.w3.org/2000/svg">
<g clip-path="url(#clip0_507_2559)">
<path d="M12.31 0C9.04519 0 5.91409 1.29694 3.60552 3.60552C1.29694 5.91409 0 9.04519 0 12.31L0 36.93C0 40.1948 1.29694 43.3259 3.60552 45.6345C5.91409 47.9431 9.04519 49.24 12.31 49.24H36.93C40.1948 49.24 43.3259 47.9431 45.6345 45.6345C47.9431 43.3259 49.24 40.1948 49.24 36.93V0H12.31Z" fill="#B1EC52"/>
<path d="M40.6899 18.46H34.7799L29.1499 24.62V12.31H24.5899V15.31C24.4433 15.1166 24.2833 14.9266 24.1099 14.74C23.1768 13.8233 22.0621 13.1122 20.8376 12.6523C19.613 12.1925 18.3058 11.9941 16.9999 12.07C15.7464 12.0123 14.4966 12.2469 13.3494 12.7555C12.2022 13.264 11.189 14.0324 10.3899 15C9.74331 15.7915 9.27465 16.7129 9.01582 17.7016C8.75699 18.6903 8.71406 19.7232 8.88994 20.73C9.94994 25.47 14.3499 26.23 17.5799 26.65C20.1299 26.98 22.5799 27.45 22.5099 29.72C22.4399 31.99 19.7799 32.64 17.9999 32.64C13.4499 32.64 13.2999 29.28 13.2999 29.28H8.43994C8.52394 31.1244 9.22873 32.8864 10.4399 34.28C12.1399 36.19 14.6899 37.15 18.0199 37.15C20.4149 37.2042 22.7474 36.3828 24.5799 34.84V36.84H29.1399V31.09L30.7599 29.33L35.3699 36.9H40.6799L33.9999 25.81L40.6899 18.46ZM13.4599 19.66C13.0599 17.9 14.8099 16.34 17.0899 16.34C19.0899 16.34 21.1799 16.8 21.9599 19.66H24.5899V24C21.3199 21.32 14.2199 23 13.4599 19.66Z" fill="#4D5759"/>
<path d="M69.82 23.33C69.6735 23.0885 69.5098 22.8579 69.33 22.64C69.1134 22.4083 68.8641 22.2095 68.59 22.05C68.2773 21.8628 67.941 21.7182 67.59 21.62C67.1227 21.5027 66.6417 21.4489 66.16 21.46C65.8883 21.4651 65.6175 21.4919 65.35 21.54C65.0074 21.6197 64.6727 21.7301 64.35 21.87C63.9926 22.063 63.6573 22.2944 63.35 22.56C63.0034 22.8784 62.7186 23.2581 62.51 23.68C62.2111 24.2178 61.9954 24.7977 61.87 25.4C61.7062 26.1791 61.6291 26.9739 61.64 27.77C61.6275 28.6663 61.7317 29.5605 61.95 30.43C62.1215 31.1456 62.4232 31.8235 62.84 32.43C63.207 32.95 63.6987 33.3695 64.27 33.65C64.8439 33.9487 65.4831 34.0999 66.13 34.09C66.8148 34.1157 67.4971 33.9928 68.13 33.73C68.5982 33.51 69.0167 33.197 69.36 32.81C69.6397 32.475 69.8565 32.0921 70 31.68C70.15 31.3 70.28 30.94 70.36 30.68H74.16C74.0091 31.7318 73.6703 32.748 73.16 33.68C72.7117 34.4852 72.1145 35.1979 71.4 35.78C70.6846 36.3352 69.8701 36.7492 69 37C66.8994 37.6302 64.6474 37.5315 62.61 36.72C61.6034 36.2856 60.7103 35.6252 60 34.79C59.2587 33.8885 58.7045 32.8482 58.37 31.73C57.9743 30.4344 57.7853 29.0845 57.81 27.73C57.795 26.7003 57.9059 25.6727 58.14 24.67C58.3176 23.8286 58.6068 23.0147 59 22.25C59.3722 21.5754 59.8366 20.9561 60.38 20.41C60.8819 19.9019 61.4586 19.4736 62.09 19.14C62.7074 18.8074 63.3619 18.5489 64.04 18.37C64.7164 18.2194 65.4071 18.1423 66.1 18.14C66.9965 18.1256 67.8909 18.2298 68.76 18.45C69.46 18.6429 70.1322 18.9252 70.76 19.29C71.3138 19.6133 71.8161 20.0178 72.25 20.49C72.6275 20.9163 72.9625 21.3785 73.25 21.87C73.4808 22.3306 73.6747 22.8088 73.83 23.3C73.9533 23.734 74.0304 24.1798 74.06 24.63H70.3L70.12 24C70.0408 23.7679 69.9403 23.5436 69.82 23.33Z" fill="#4D5759"/>
<path d="M84.34 23.35H89L83.42 29L89.26 36.94H84.67L80.67 31.19L79.24 32.65V36.94H75.73V23.35H79.25V28.51L84.34 23.35Z" fill="#4D5759"/>
<path d="M89.1 27.26C89.3859 26.4133 89.8574 25.6412 90.48 25C91.0959 24.356 91.8427 23.8513 92.67 23.52C93.5878 23.1496 94.5703 22.966 95.56 22.98C96.5661 22.9634 97.5655 23.1469 98.5 23.52C99.3227 23.8491 100.063 24.3542 100.67 25C101.269 25.6739 101.737 26.454 102.05 27.3C102.663 29.1745 102.663 31.1956 102.05 33.07C101.74 33.9172 101.272 34.6977 100.67 35.37C100.055 36.0063 99.3168 36.51 98.5 36.85C97.5655 37.2231 96.5661 37.4067 95.56 37.39C94.5703 37.4041 93.5878 37.2205 92.67 36.85C91.8486 36.5077 91.104 36.0045 90.48 35.37C89.8432 34.6972 89.3709 33.886 89.1 33C88.4468 31.1322 88.4468 29.0979 89.1 27.23V27.26ZM92.47 31.65C92.5487 32.1326 92.7294 32.5928 93 33C93.2457 33.4108 93.5892 33.7543 94 34C94.4709 34.2477 94.9982 34.3684 95.53 34.35C96.088 34.3754 96.6429 34.2548 97.14 34C97.5426 33.7653 97.885 33.4401 98.14 33.05C98.402 32.6457 98.5821 32.1938 98.67 31.72C98.8832 30.6943 98.8832 29.6357 98.67 28.61C98.5805 28.1274 98.4007 27.666 98.14 27.25C97.8657 26.8254 97.48 26.4842 97.025 26.2638C96.57 26.0434 96.0633 25.9521 95.56 26C95.0282 25.9817 94.5009 26.1023 94.03 26.35C93.6217 26.5989 93.2789 26.9418 93.03 27.35C92.7509 27.7559 92.5602 28.2158 92.47 28.7C92.3603 29.2063 92.3 29.7221 92.29 30.24C92.3047 30.7147 92.365 31.1869 92.47 31.65Z" fill="#4D5759"/>
<path d="M109.15 26.21L109.1 28.74C109.04 30.17 108.94 31.42 108.81 32.5C108.699 33.4198 108.467 34.321 108.12 35.18C107.838 35.8287 107.39 36.3911 106.82 36.81C106.192 37.1932 105.465 37.3811 104.73 37.35C104.32 37.35 103.99 37.35 103.73 37.3C103.476 37.2588 103.228 37.1884 102.99 37.09V34.09L103.45 34.24C103.663 34.2581 103.877 34.2581 104.09 34.24C104.35 34.2523 104.605 34.1626 104.8 33.99C105.062 33.7599 105.25 33.4571 105.34 33.12C105.518 32.5364 105.638 31.9369 105.7 31.33C105.77 30.57 105.82 29.6 105.85 28.4L105.95 23.26H116.88V36.94H113.39V26.21H109.15Z" fill="#4D5759"/>
<path d="M128 23.35H132.7L127.09 29L132.94 36.94H128.35L124.35 31.19L122.92 32.65V36.94H119.4V23.35H122.92V28.51L128 23.35Z" fill="#4D5759"/>
<path d="M132.77 27.26C133.059 26.403 133.53 25.6185 134.15 24.96C134.771 24.3178 135.521 23.8136 136.35 23.48C137.268 23.1088 138.25 22.9252 139.24 22.94C140.243 22.9233 141.239 23.1069 142.17 23.48C142.999 23.8156 143.741 24.3354 144.34 25C144.946 25.6687 145.415 26.4502 145.72 27.3C146.333 29.1745 146.333 31.1955 145.72 33.07C145.418 33.9208 144.948 34.7027 144.34 35.37C143.729 36.0108 142.99 36.5151 142.17 36.85C141.239 37.2231 140.243 37.4067 139.24 37.39C138.25 37.4048 137.268 37.2212 136.35 36.85C135.527 36.5053 134.779 36.0025 134.15 35.37C133.528 34.7132 133.057 33.9282 132.77 33.07C132.13 31.1999 132.13 29.1701 132.77 27.3V27.26ZM136.15 31.65C136.236 32.1384 136.428 32.6023 136.71 33.01C136.955 33.4215 137.299 33.7653 137.71 34.01C138.185 34.2577 138.715 34.3782 139.25 34.36C139.798 34.3802 140.342 34.2597 140.83 34.01C141.233 33.7753 141.575 33.45 141.83 33.06C142.092 32.6556 142.272 32.2038 142.36 31.73C142.573 30.7043 142.573 29.6457 142.36 28.62C142.271 28.1374 142.091 27.6759 141.83 27.26C141.556 26.8319 141.169 26.4877 140.712 26.2654C140.255 26.043 139.746 25.9512 139.24 26C138.705 25.9818 138.175 26.1023 137.7 26.35C137.292 26.5989 136.949 26.9417 136.7 27.35C136.421 27.7559 136.23 28.2158 136.14 28.7C136.025 29.2055 135.965 29.7217 135.96 30.24C135.974 30.7154 136.037 31.188 136.15 31.65Z" fill="#4D5759"/>
<path d="M156.67 23.51C157.206 23.6176 157.722 23.8065 158.2 24.07C158.639 24.3404 159 24.7192 159.25 25.17C159.527 25.7139 159.658 26.3203 159.63 26.93C159.643 27.2676 159.603 27.6051 159.51 27.93C159.441 28.2076 159.319 28.4692 159.15 28.7C159.015 28.9103 158.842 29.0934 158.64 29.24C158.448 29.3889 158.24 29.5163 158.02 29.62C158.658 29.8101 159.21 30.2168 159.58 30.77C159.949 31.33 160.138 31.9896 160.12 32.66C160.131 33.2546 160.026 33.8457 159.81 34.4C159.598 34.904 159.277 35.3549 158.87 35.72C158.446 36.1137 157.941 36.4105 157.39 36.59C156.766 36.8044 156.11 36.9093 155.45 36.9H147.83V23.35H154.83C155.447 23.3445 156.063 23.3981 156.67 23.51ZM155.09 28.59C155.308 28.533 155.515 28.4382 155.7 28.31C155.856 28.2039 155.972 28.0492 156.03 27.87C156.106 27.6655 156.14 27.4479 156.13 27.23C156.138 27.0383 156.103 26.8473 156.03 26.67C155.958 26.5009 155.845 26.3529 155.7 26.24C155.523 26.1096 155.323 26.0146 155.11 25.96C154.804 25.8762 154.487 25.8391 154.17 25.85H151.36V28.69H154.07C154.412 28.6875 154.754 28.654 155.09 28.59ZM155.32 34.28C155.584 34.1879 155.826 34.0414 156.03 33.85C156.191 33.7066 156.306 33.5187 156.36 33.31C156.415 33.1284 156.442 32.9396 156.44 32.75C156.457 32.4639 156.413 32.1774 156.31 31.91C156.24 31.6959 156.094 31.5147 155.9 31.4C155.686 31.2369 155.429 31.1397 155.16 31.12C154.8 31.0636 154.435 31.0368 154.07 31.04H151.36V34.44H154.07C154.493 34.4546 154.915 34.4006 155.32 34.28Z" fill="#4D5759"/>
<path d="M161.55 27.26C161.833 26.4061 162.301 25.625 162.92 24.9718C163.538 24.3186 164.293 23.8093 165.13 23.48C166.044 23.1088 167.023 22.9252 168.01 22.94C169.016 22.9233 170.015 23.1069 170.95 23.48C171.778 23.8186 172.519 24.338 173.12 25C173.726 25.6687 174.195 26.4502 174.5 27.3C175.113 29.1745 175.113 31.1955 174.5 33.07C174.197 33.9208 173.728 34.7027 173.12 35.37C172.518 35.9885 171.797 36.4783 171 36.81C170.065 37.1831 169.066 37.3667 168.06 37.35C167.073 37.3649 166.094 37.1812 165.18 36.81C164.356 36.4679 163.608 35.9648 162.98 35.33C162.358 34.6732 161.887 33.8882 161.6 33.03C160.947 31.1621 160.947 29.1279 161.6 27.26H161.55ZM164.92 31.65C165.006 32.1384 165.197 32.6023 165.48 33.01C165.726 33.4208 166.069 33.7643 166.48 34.01C166.951 34.2564 167.478 34.377 168.01 34.36C168.558 34.3811 169.102 34.2605 169.59 34.01C169.994 33.7771 170.337 33.4515 170.59 33.06C170.859 32.6585 171.043 32.2057 171.13 31.73C171.33 30.703 171.33 29.647 171.13 28.62C171.042 28.1355 170.858 27.6732 170.59 27.26C170.331 26.8761 169.989 26.555 169.59 26.32C169.096 26.0786 168.549 25.9684 168 26C167.468 25.983 166.941 26.1036 166.47 26.35C166.062 26.5989 165.719 26.9417 165.47 27.35C165.191 27.7559 165 28.2158 164.91 28.7C164.8 29.2063 164.74 29.7221 164.73 30.24C164.748 30.715 164.812 31.1872 164.92 31.65Z" fill="#4D5759"/>
</g>
<defs>
<clipPath id="clip0_507_2559">
<rect width="174.96" height="49.24" fill="white"/>
</clipPath>
</defs>
</svg>
