<svg width="1744" height="1269" viewBox="0 0 1744 1269" fill="none" xmlns="http://www.w3.org/2000/svg">
<path d="M954.403 114.252C900.586 157.136 848.991 213.908 819.039 276.027C757.479 403.701 791.6 521.047 817.987 597.209C853.916 700.911 926.677 753.274 1013.4 791.512C1137.04 846.039 1292.46 849.707 1433.59 813.261C1483.34 800.417 1560.58 773.703 1577.43 748.782C1595.68 721.801 1598.55 669.623 1559.34 646.7C1521.1 624.348 1517.39 641.42 1403.49 666.711C1324.21 684.311 1237.65 687.369 1133.69 642.488C1068.12 614.186 1023.75 570.751 1008.59 511.382C965.112 341.093 1059.04 277.934 1077.37 266.386L954.403 114.252Z" fill="url(#paint0_linear_549_2583)"/>
<path d="M1083.97 314.75C1035.02 308.265 891.421 293.048 741.191 266.394C508.712 225.145 235.398 167.939 148.134 161.832C-19.7989 150.083 -47.8009 368.248 86.2595 405.564C162.184 426.699 371.114 404.5 421.901 504.767C437.37 535.306 478.291 650.462 524.646 793.061C542.817 848.97 690.613 840.176 663.131 721.068C647.441 653.047 611.709 469.326 611.709 469.326C611.709 469.326 1035.64 514.282 1070.13 517.265L1083.97 314.75Z" fill="url(#paint1_linear_549_2583)"/>
<path d="M1307.2 202.549C1361.03 203.979 1454.7 217.805 1496.89 246.028L1732.13 292.386C1734.36 161.821 1662.76 91.5617 1582.52 51.0579C1521.61 20.3176 1436.17 -4.71747 1307.94 0.755261C1185.33 5.98765 1056.42 32.847 953.6 114.78L1076.49 267.174C1134.47 230.642 1207.34 199.897 1307.2 202.549Z" fill="url(#paint2_linear_549_2583)"/>
<path d="M1493.14 243.624C1493.14 243.624 1505.53 251.559 1510.91 256.476C1536.53 279.88 1545.01 307.847 1467.28 320.707L1528.77 510.815C1668.65 473.333 1730.38 390.793 1732.1 290.018L1493.14 243.624Z" fill="url(#paint3_linear_549_2583)"/>
<path d="M1469.6 320.38C1400.7 331.779 1267.11 339.151 1082.91 314.746L1069.08 517.265C1368.19 543.139 1473.38 525.492 1531.09 510.027L1469.6 320.38Z" fill="url(#paint4_linear_549_2583)"/>
<path d="M0 1051.9C0 1055.48 2.82108 1058.24 6.20559 1058.24H62.6232V1208.91L99.8095 1209.05V1058.24H156.231C159.612 1058.24 162.433 1055.48 162.433 1051.9V1028.62C162.433 1025.04 159.612 1022.29 156.227 1022.29H6.20559C2.81714 1022.29 0 1025.04 0 1028.63V1051.9Z" fill="#FC0103"/>
<path d="M132.311 1140.18C132.311 1179.88 165.596 1210.75 206.782 1210.75C248.251 1210.75 281.537 1179.88 281.537 1140.18C281.537 1100.22 248.251 1068.8 206.782 1068.8C165.596 1068.8 132.311 1100.22 132.311 1140.18ZM173.496 1139.91C173.496 1121.17 187.881 1105.73 206.782 1105.73C225.966 1105.73 240.351 1121.17 240.351 1139.91C240.351 1158.65 225.966 1173.81 206.782 1173.81C187.881 1173.81 173.496 1158.65 173.496 1139.91ZM305.859 1169.01C305.859 1199.6 329.27 1212 352.966 1212C369.045 1212 385.507 1209.78 396.007 1201.77C413.13 1188.7 398.781 1162.16 375.416 1175.31C368.486 1179.21 357.087 1177.22 354.999 1176.37C350.294 1174.46 342.115 1172.85 342.588 1159.63V1101.84H377.067C403.509 1101.84 403.174 1068.49 377.067 1068.49H342.592V1022.83L305.859 1022.7V1068.48H287.805V1101.83H305.859V1169.01ZM409.935 1139.63C409.935 1182.91 442.941 1210.75 478.484 1210.75C496.821 1210.75 515.942 1203.02 522.427 1192.55V1210.93L556.513 1210.8V1086.27C556.513 1061.89 523.129 1063.08 523.129 1084.93C516.64 1074.45 497.101 1068.8 478.764 1068.8C443.225 1068.8 409.935 1096.08 409.935 1139.63ZM451.12 1139.91C451.12 1121.17 465.51 1105.73 484.69 1105.73C503.874 1105.73 518.259 1121.17 518.259 1139.91C518.259 1158.65 503.874 1174.09 484.69 1174.09C465.51 1174.09 451.12 1158.65 451.12 1139.91ZM627.083 1209.05V1038.77C627.083 1017.18 588.55 1017.88 588.55 1038.77V1209.04L627.083 1209.05ZM660.444 1020.2C656.779 1020.2 654.238 1022.96 654.238 1026.27V1202.63C654.238 1206.22 656.775 1208.97 660.444 1208.97H785.194L785.328 1170.94H696.55V1134.86H766.155C769.82 1134.86 772.361 1131.83 772.361 1128.52V1104.27C772.361 1100.68 769.82 1097.93 766.155 1097.93H696.55V1058.24H776.754C780.418 1058.24 783.239 1055.48 783.239 1051.9V1026.54C783.239 1022.96 780.418 1020.2 776.754 1020.2H660.444ZM910.964 1203.46C910.964 1206.77 914.069 1208.97 917.17 1208.97H941.492C944.597 1208.97 947.697 1206.77 947.697 1203.46V1129.04C947.697 1096.24 928.781 1066.6 892.391 1066.6C870.953 1066.6 850.268 1072.9 842.088 1082.54C842.088 1062.78 809.807 1061.92 809.807 1080.8V1209.14L846.253 1209.27V1133.53C846.253 1086.82 910.964 1094.27 910.964 1133.53V1203.46ZM1208.85 1065.44C1188.77 1065.44 1172.35 1077.34 1164.74 1089.2V1080.25C1164.74 1063.61 1134.15 1061.85 1134.15 1080.84V1208.58L1170.09 1209.04V1143.92C1170.09 1124.32 1183.25 1102.69 1197.4 1100.39L1211.97 1098.02C1235.19 1098.02 1231.46 1065.44 1208.85 1065.44ZM1305.04 1235.05C1286.43 1235.05 1268.65 1234.01 1259.1 1228.71C1236.25 1216.02 1222.74 1243.89 1236.99 1252.12C1256.24 1263.23 1265.84 1268.7 1301.94 1268.7C1348.2 1268.7 1373.3 1243.11 1373.3 1205.62V1080.8C1373.3 1064.35 1341.3 1062.44 1341.3 1078.72V1087.26C1334.53 1076.79 1315.13 1070.88 1296.51 1070.88C1260.97 1070.88 1228.8 1097.9 1228.8 1140.62C1228.8 1183.34 1260.68 1209.8 1298.2 1209.8C1316.25 1209.8 1330.92 1202.08 1337.13 1192.71V1204.25C1337.13 1222.16 1326.77 1235.05 1305.04 1235.05ZM1269.99 1140.62C1269.99 1121.87 1284.38 1107.26 1303.28 1107.26C1322.46 1107.26 1336.85 1121.87 1336.85 1140.62C1336.85 1159.63 1322.46 1173.97 1303.28 1173.97C1284.38 1173.97 1269.99 1159.63 1269.99 1140.62Z" fill="#FC0103"/>
<path d="M1422.1 1052.04C1434.12 1052.04 1444.09 1041.79 1444.09 1029.74C1444.09 1017.44 1434.12 1007.18 1422.1 1007.18C1409.83 1007.18 1399.86 1017.44 1399.86 1029.74C1399.86 1041.79 1409.83 1052.04 1422.1 1052.04ZM1434.89 1208.97C1437.95 1208.97 1440.26 1206.41 1440.26 1203.33V1087.69C1440.26 1063.29 1403.44 1063.29 1403.44 1087.69V1203.33C1403.44 1206.41 1406 1208.97 1409.07 1208.97H1434.89Z" fill="#FC0103"/>
<path d="M1535.96 1066.43C1492.82 1066.43 1461.75 1099.53 1461.75 1140.62C1461.75 1181.7 1492.24 1213.38 1536.54 1213.38C1567.31 1213.38 1585.53 1204.29 1597.04 1189.45C1604.06 1177.29 1587.56 1162.45 1572.85 1170.95C1559.81 1179.77 1550.92 1178.57 1537.4 1178.57C1521.01 1178.57 1506.62 1167.44 1504.61 1150.03H1596.51C1602.27 1150.03 1603.7 1146.89 1603.7 1143.47V1135.77C1603.7 1100.1 1580.26 1066.43 1535.96 1066.43ZM1567.03 1124.35H1505.47C1509.5 1108.94 1522.16 1099.53 1536.25 1099.53C1549.77 1099.53 1563.29 1107.52 1567.03 1124.35Z" fill="#FC0103"/>
<path d="M1678.67 1065.35C1640.89 1065.35 1617.47 1085.4 1617.47 1110.89C1617.47 1133.51 1632.99 1147.54 1656.12 1152.12L1679.55 1156.99C1693.02 1159.56 1700.05 1162.43 1700.05 1169.3C1700.05 1175.32 1693.6 1181.04 1680.43 1181.04C1666.37 1181.04 1651.79 1178.43 1642.72 1170.7C1622.59 1160.25 1604.71 1182.31 1624.79 1197.37C1636.5 1205.38 1654.95 1212.83 1678.96 1212.83C1717.91 1212.83 1743.39 1192.5 1743.39 1165.58C1743.39 1139.52 1723.47 1128.07 1699.17 1123.49L1676.62 1119.19C1664.61 1116.9 1660.22 1113.17 1660.22 1107.73C1660.22 1102.01 1667.54 1097.43 1678.67 1097.43C1690.68 1097.43 1700.81 1098.66 1709.6 1104.38C1727.23 1114.56 1745.3 1092.85 1728.9 1079.16C1720.11 1071.43 1707.07 1065.35 1678.67 1065.35Z" fill="#FC0103"/>
<path d="M1043.92 1066.43C1000.77 1066.43 969.703 1099.53 969.703 1140.62C969.703 1181.7 1000.19 1213.38 1044.49 1213.38C1075.27 1213.38 1093.49 1204.29 1104.99 1189.45C1112.01 1177.29 1095.52 1162.45 1080.8 1170.95C1067.77 1179.77 1058.87 1178.57 1045.36 1178.57C1028.96 1178.57 1014.58 1167.44 1012.56 1150.03H1104.46C1110.22 1150.03 1111.66 1146.89 1111.66 1143.47V1135.77C1111.66 1100.1 1088.22 1066.43 1043.92 1066.43ZM1074.98 1124.35H1013.43C1017.45 1108.94 1030.11 1099.53 1044.2 1099.53C1057.72 1099.53 1071.24 1107.52 1074.98 1124.35Z" fill="#FC0103"/>
<defs>
<linearGradient id="paint0_linear_549_2583" x1="977.425" y1="254.026" x2="1427.41" y2="742.75" gradientUnits="userSpaceOnUse">
<stop stop-color="#0186F5"/>
<stop offset="0.132" stop-color="#0186F5"/>
<stop offset="0.315" stop-color="#35C2B0"/>
<stop offset="0.667" stop-color="#AAD825"/>
<stop offset="1" stop-color="#FED700"/>
</linearGradient>
<linearGradient id="paint1_linear_549_2583" x1="608.013" y1="776.04" x2="611.709" y2="469.326" gradientUnits="userSpaceOnUse">
<stop stop-color="#FF7F00"/>
<stop offset="1" stop-color="#FE0201"/>
</linearGradient>
<linearGradient id="paint2_linear_549_2583" x1="989.403" y1="177.482" x2="1486.18" y2="187.017" gradientUnits="userSpaceOnUse">
<stop stop-color="#0186F5"/>
<stop offset="0.198" stop-color="#0186F5"/>
<stop offset="1" stop-color="#3156FD"/>
</linearGradient>
<linearGradient id="paint3_linear_549_2583" x1="1513.38" y1="364.446" x2="1559.17" y2="274.096" gradientUnits="userSpaceOnUse">
<stop stop-color="#8434D5"/>
<stop offset="0.854" stop-color="#3156FD"/>
<stop offset="1" stop-color="#3156FD"/>
</linearGradient>
<linearGradient id="paint4_linear_549_2583" x1="1462.39" y1="414.812" x2="1080.97" y2="432.881" gradientUnits="userSpaceOnUse">
<stop stop-color="#8434D5"/>
<stop offset="1" stop-color="#FE0201"/>
</linearGradient>
</defs>
</svg>
