<svg  viewBox="0 0 260 85" fill="none" xmlns="http://www.w3.org/2000/svg">
<path d="M228.151 74.7172H31.8489C14.333 74.7172 0 60.3842 0 42.8682V42.8489C0 25.333 14.333 11 31.8489 11H228.151C245.667 11 260 25.333 260 42.8489V42.8682C260 60.3842 245.667 74.7172 228.151 74.7172Z" fill="white"/>
<path d="M196.283 42.849C196.283 32.895 200.565 24.0984 207.529 18.0219C207.934 17.6746 207.645 17.1924 207.356 17.1924C207.144 17.1924 31.849 17.1924 31.849 17.1924C17.6703 17.1924 6.19238 28.6896 6.19238 42.849C6.19238 57.0277 17.6896 68.5056 31.849 68.5056C31.849 68.5056 206.893 68.5056 207.24 68.5056C207.529 68.5056 207.954 68.0619 207.414 67.599C200.585 61.5417 196.283 52.6873 196.283 42.849Z" fill="#2C2C2C"/>
<path d="M130.367 30.9658C130.367 31.911 129.595 32.6827 128.631 32.6827H125.969C125.004 32.6827 124.232 31.911 124.232 30.9658V28.9017C124.232 27.9564 125.004 27.1848 125.969 27.1848H128.631C129.595 27.1848 130.367 27.9564 130.367 28.9017V30.9658Z" fill="white"/>
<path d="M117.076 28.9788C117.076 28.0336 116.401 27.262 115.436 27.262H112.678C111.713 27.262 110.941 28.0336 110.941 28.9788V56.5838C110.941 57.5291 111.713 58.3007 112.678 58.3007H115.34C116.304 58.3007 117.076 57.5291 117.076 56.5838V28.9788Z" fill="white"/>
<path d="M184.573 45.511C184.458 42.1545 183.532 39.5309 181.738 37.679C179.847 35.7114 177.282 34.7275 174.079 34.7275C172.073 34.7275 170.356 35.0748 168.89 35.7885C167.443 36.483 166.228 37.4089 165.302 38.5471C164.357 39.6853 163.662 40.997 163.238 42.4631C162.794 43.9485 162.582 45.4532 162.582 46.9964C162.582 49.0219 162.852 50.7581 163.412 52.2435C163.971 53.7289 164.762 54.9442 165.784 55.9087C166.807 56.8733 168.061 57.587 169.546 58.05C171.031 58.513 172.69 58.7445 174.504 58.7445C175.777 58.7445 177.05 58.5901 178.362 58.2815C178.786 58.185 179.191 58.0693 179.577 57.9342C179.751 57.8957 180.002 57.7992 180.349 57.6642C182.181 56.9118 183.455 55.8701 183.455 55.8701C184.149 55.4457 184.381 54.5198 183.937 53.8253L182.76 51.9541C182.336 51.2597 181.41 51.1246 180.696 51.5683C180.696 51.5683 178.478 52.9958 177.224 53.3624C176.529 53.5746 175.623 53.7868 174.677 53.7868C171.07 53.7868 169.102 51.9927 168.813 48.3854H182.876C183.802 48.3854 184.516 47.6523 184.554 46.7071V45.6847C184.573 45.6461 184.573 45.5689 184.573 45.511ZM169.064 43.8906C169.218 42.4052 169.739 41.2864 170.665 40.534C171.591 39.7624 172.69 39.3766 173.944 39.3766C174.735 39.3766 175.41 39.5116 175.97 39.7817C176.529 40.0518 176.992 40.399 177.359 40.8427C177.725 41.2864 177.995 41.7686 178.169 42.3088C178.343 42.8489 178.439 43.3698 178.439 43.9099H169.064V43.8906Z" fill="white"/>
<path d="M157.838 40.8427C157.683 39.6274 157.24 38.5278 156.468 37.5247C155.735 36.618 154.867 35.9236 153.844 35.4413C152.822 34.959 151.568 34.7083 150.025 34.7083C148.443 34.7083 147.054 35.0555 145.897 35.7307C144.739 36.4251 143.852 37.216 143.235 38.1227V37.6019V36.7145C143.235 35.7885 142.482 35.0362 141.556 35.0362H138.971C138.045 35.0362 137.293 35.7885 137.293 36.7145V56.6418C137.293 57.587 138.065 58.3587 139.01 58.3587H141.653C142.598 58.3587 143.37 57.587 143.37 56.6418C143.37 56.6418 143.37 46.0512 143.389 45.376C143.408 44.7008 143.485 44.1028 143.64 43.582C143.736 43.2347 143.871 42.8489 144.083 42.4438C144.295 42.0387 144.585 41.6529 144.971 41.2864C145.356 40.9199 145.819 40.6112 146.379 40.3604C146.938 40.1096 147.613 39.9939 148.404 39.9939C149.176 39.9939 149.813 40.1096 150.372 40.3411C150.912 40.5726 151.317 40.9777 151.587 41.5757C151.857 42.1545 151.992 43.0997 151.992 44.3922V56.6804C151.992 57.6256 152.764 58.3972 153.709 58.3972H156.352C157.297 58.3972 158.069 57.6256 158.069 56.6804V55.9087V44.2957C158.069 43.1962 157.992 42.058 157.838 40.8427Z" fill="white"/>
<path d="M24.9434 31.3516C24.7312 30.715 24.6348 30.1749 24.6348 29.7312C24.6348 28.9789 24.847 28.458 25.4643 28.0336C25.9658 27.7057 26.9497 27.7636 27.9913 27.725C29.7661 27.6864 30.4798 27.6285 31.0779 29.1911C31.0779 29.1911 35.7269 47.9416 35.8619 48.6168C35.997 49.292 36.1127 49.8514 36.1899 50.2758C36.2863 49.7742 36.3828 49.2341 36.4985 48.6554C36.6143 48.0767 41.0897 35.557 41.0897 35.557C41.3212 34.631 41.9192 34.1681 42.5944 33.8787C42.7873 33.8015 42.9995 33.7051 43.2696 33.7051C43.964 33.7051 45.1986 33.7051 45.6809 33.7051C46.1053 33.7051 46.5104 33.6858 46.8191 33.8401C47.5135 34.1681 48.073 34.7082 48.3044 35.6535C48.3044 35.6535 53.0885 48.1731 53.2043 48.7711C53.3393 49.3691 53.4358 49.8514 53.4936 50.2372C53.5515 49.89 53.648 49.427 53.7637 48.8869C53.8795 48.2696 58.7021 29.1911 58.7021 29.1911C59.358 27.6285 59.956 27.8021 61.7886 27.8021C62.811 27.8021 63.3898 27.7057 63.9685 28.0529C64.663 28.458 64.8173 29.056 64.8173 29.7505C64.8173 29.982 64.798 30.2521 64.7594 30.5414C64.7208 30.8308 64.6437 31.1394 64.5086 31.4674L57.236 56.2366C56.9853 57.0083 56.5416 57.4519 55.905 57.722C55.6735 57.8185 55.4227 57.8763 55.1912 57.8763C54.4968 57.8763 51.9504 57.8763 51.9504 57.8763C51.4295 57.8763 51.1788 57.8378 50.8315 57.6834C50.1178 57.2976 49.7512 56.7961 49.5583 56.063C49.5583 56.063 44.7743 41.73 44.755 41.4599C44.7164 41.6914 39.8165 56.198 39.8165 56.198C39.5851 57.0083 39.1414 57.4134 38.4662 57.7027C38.254 57.7992 38.0032 57.8185 37.8489 57.8185C37.1544 57.8185 34.3766 57.8185 34.3766 57.8185C34.0486 57.8185 33.6821 57.6834 33.4892 57.6063C32.8526 57.2976 32.4668 56.7575 32.2353 56.0244L24.9434 31.3516Z" fill="white"/>
<path d="M76.1403 30.9658C76.1403 31.911 75.3687 32.6827 74.4041 32.6827H71.742C70.7775 32.6827 70.0059 31.911 70.0059 30.9658V28.9017C70.0059 27.9564 70.7775 27.1848 71.742 27.1848H74.4041C75.3687 27.1848 76.1403 27.9564 76.1403 28.9017V30.9658Z" fill="white"/>
<path d="M103.727 40.8427C103.573 39.6274 103.129 38.5278 102.358 37.5247C101.625 36.618 100.756 35.9236 99.734 35.4413C98.7116 34.959 97.4577 34.7083 95.9145 34.7083C94.3326 34.7083 92.9437 35.0555 91.7863 35.7307C90.6288 36.4251 89.7415 37.216 89.1241 38.1227V37.6019V36.7145C89.1241 35.7885 88.3718 35.0362 87.4459 35.0362H84.8609C83.935 35.0362 83.1826 35.7885 83.1826 36.7145V56.6418C83.1826 57.587 83.9542 58.3587 84.8995 58.3587H87.5423C88.4876 58.3587 89.2592 57.587 89.2592 56.6418V47.0929C89.2592 46.6299 89.2592 46.0512 89.2785 45.376C89.2978 44.7008 89.3749 44.1028 89.5293 43.582C89.6257 43.2347 89.7607 42.8489 89.9729 42.4438C90.1851 42.0387 90.4745 41.6529 90.8603 41.2864C91.2461 40.9199 91.7091 40.6112 92.2685 40.3604C92.828 40.1096 93.5031 39.9939 94.2941 39.9939C95.0657 39.9939 95.7023 40.1096 96.2617 40.3411C96.8018 40.5726 97.207 40.9777 97.477 41.5757C97.7471 42.1545 97.8821 43.0997 97.8821 44.3922V56.6804C97.8821 57.6256 98.6538 58.3972 99.599 58.3972H102.223C103.168 58.3972 103.939 57.6256 103.939 56.6804V44.2957C103.939 43.1962 103.882 42.058 103.727 40.8427Z" fill="white"/>
<path d="M74.4044 35.1521H71.7423C70.7777 35.1521 70.0061 35.9237 70.0061 36.869L69.9482 56.5648C69.9482 57.5293 70.7392 58.3009 71.7037 58.3009H74.4044C75.3689 58.3009 76.1598 57.5293 76.1598 56.5648V36.8883C76.1406 35.9237 75.3496 35.1521 74.4044 35.1521Z" fill="white"/>
<path d="M128.65 35.1521H125.987C125.023 35.1521 124.251 35.9237 124.251 36.869L124.193 56.5648C124.193 57.5293 124.984 58.3009 125.949 58.3009H128.65C129.614 58.3009 130.405 57.5293 130.405 56.5648V36.8883C130.386 35.9237 129.614 35.1521 128.65 35.1521Z" fill="white"/>
<path d="M253.808 42.849C253.808 57.0277 242.311 68.5056 228.152 68.5056C213.973 68.5056 202.495 57.0084 202.495 42.849C202.495 28.6703 213.992 17.1924 228.152 17.1924C242.311 17.1924 253.808 28.6703 253.808 42.849Z" fill="#FF6A13"/>
</svg>
