<svg width="367" height="106" viewBox="0 0 367 106" fill="none" xmlns="http://www.w3.org/2000/svg">
<path d="M349.9 92.2999C357.1 92.2999 362.2 90.9999 366 88.1999V75.4999C362.1 78.1999 357.4 79.8999 350.8 79.8999C339.7 79.8999 335.1 71.2999 335.1 57.6999C335.1 43.3999 340.7 36.0999 350.9 36.0999C356.9 36.0999 362.8 38.1999 365.9 40.1999V26.9999C362.6 25.1999 356.9 23.8999 349.1 23.8999C329.2 23.8999 318.9 38.1999 318.9 58.1999C319 80.0999 329.1 92.2999 349.9 92.2999ZM252.6 86.4999V73.7999C247.8 77.0999 239.6 79.9999 232.1 79.9999C220.7 79.9999 216.4 74.5999 215.7 63.5999H253.3V55.3999C253.3 32.4999 243.2 23.8999 227.7 23.8999C208.7 23.8999 199.7 38.3999 199.7 58.2999C199.7 81.1999 211 92.2999 230.8 92.2999C240.7 92.2999 248 89.5999 252.6 86.4999ZM109.9 25.0999V51.0999H89.1V25.0999H73.5V90.9999H89.1V63.4999H109.9V90.9999H125.5V25.0999H109.9ZM195.8 78.5999H188.9V25.0999H143.5V30.6999C143.5 46.7999 142.5 67.5999 137 78.5999H132V106H146.4V90.9999H181.3V106H195.7V78.5999H195.8ZM302.3 90.9999H320L295 55.4999L317 25.0999H301.3L279.3 55.4999V25.0999H263.7V90.9999H279.3V58.5999L302.3 90.9999ZM227.3 36.0999C235 36.0999 237.4 42.4999 237.4 50.7999V52.0999H215.7C216.1 41.5999 219.9 36.0999 227.3 36.0999ZM173.3 78.5999H151.3C155.6 68.6999 156.8 50.6999 156.8 39.2999V37.2999H173.3V78.5999Z" fill="black"/>
<path d="M60.5 91H44.6V12.3H37.5C24.5 12.3 17.7 18.8 17.7 28.5C17.7 39.5 22.4 44.6 32.1 51.1L40.1 56.5L17.1 91H0L20.7 60.2C8.8 51.7 2.1 43.4 2.1 29.4C2.1 11.9 14.3 0 37.4 0H60.4V91H60.5Z" fill="#FC3F1D"/>
</svg>
