<svg width="104" height="69" viewBox="0 0 104 69" fill="none" xmlns="http://www.w3.org/2000/svg">
<rect width="103" height="69" rx="8" fill="#181818"/>
<rect x="3" y="20" width="99" height="47" rx="8" fill="#2C2C2E"/>
<line x1="3" y1="43.6715" x2="104" y2="43.6715" stroke="#181818" stroke-width="0.656981"/>
<path d="M68.1166 8.52288H67.0334L66.5134 7.82958C66.473 7.77576 66.4207 7.73208 66.3605 7.702C66.3003 7.67191 66.234 7.65625 66.1667 7.65625H64.6501C64.5352 7.65625 64.425 7.7019 64.3437 7.78317C64.2624 7.86443 64.2168 7.97464 64.2168 8.08957V12.8561C64.2168 12.971 64.2624 13.0812 64.3437 13.1625C64.425 13.2437 64.5352 13.2894 64.6501 13.2894H70.2832C70.3982 13.2894 70.5084 13.2437 70.5896 13.1625C70.6709 13.0812 70.7166 12.971 70.7166 12.8561V8.9562C70.7166 8.84128 70.6709 8.73106 70.5896 8.6498C70.5084 8.56854 70.3982 8.52288 70.2832 8.52288H69.8499" stroke="#FEFEFE" stroke-width="0.609352" stroke-linecap="round" stroke-linejoin="round"/>
<path d="M69.85 10.9064L68.9833 10.2564L68.1167 10.9064V8.3065C68.1167 8.24904 68.1395 8.19393 68.1802 8.1533C68.2208 8.11267 68.2759 8.08984 68.3334 8.08984H69.6333C69.6908 8.08984 69.7459 8.11267 69.7865 8.1533C69.8271 8.19393 69.85 8.24904 69.85 8.3065V10.9064Z" stroke="#FEFEFE" stroke-width="0.609352" stroke-linecap="round" stroke-linejoin="round"/>
<path d="M78.447 7.91126C78.4967 7.96645 78.5575 8.01058 78.6254 8.04078C78.6932 8.07099 78.7667 8.0866 78.841 8.0866C78.9153 8.0866 78.9887 8.07099 79.0566 8.04078C79.1245 8.01058 79.1852 7.96645 79.2349 7.91126L79.4913 7.63001C79.5647 7.54871 79.6615 7.49214 79.7684 7.46806C79.8753 7.44397 79.987 7.45356 80.0883 7.49551C80.1895 7.53745 80.2753 7.6097 80.3338 7.70233C80.3923 7.79496 80.4208 7.90343 80.4152 8.01286L80.3959 8.39219C80.3922 8.46618 80.404 8.54014 80.4306 8.60929C80.4572 8.67844 80.498 8.74126 80.5504 8.79368C80.6027 8.84611 80.6655 8.88699 80.7346 8.9137C80.8037 8.9404 80.8777 8.95232 80.9517 8.94871L81.331 8.92948C81.4403 8.92408 81.5487 8.95264 81.6412 9.01124C81.7337 9.06984 81.8058 9.15561 81.8476 9.2568C81.8895 9.35798 81.899 9.46963 81.8749 9.57644C81.8508 9.68325 81.7943 9.77999 81.713 9.8534L81.4307 10.1081C81.3756 10.1579 81.3315 10.2187 81.3013 10.2866C81.2712 10.3545 81.2556 10.4279 81.2556 10.5022C81.2556 10.5765 81.2712 10.6499 81.3013 10.7178C81.3315 10.7857 81.3756 10.8465 81.4307 10.8963L81.713 11.151C81.7943 11.2244 81.8509 11.3213 81.875 11.4281C81.8991 11.535 81.8895 11.6468 81.8475 11.748C81.8056 11.8492 81.7333 11.935 81.6407 11.9935C81.5481 12.052 81.4396 12.0805 81.3302 12.0749L80.9508 12.0557C80.8767 12.0518 80.8025 12.0636 80.7332 12.0903C80.6639 12.1169 80.601 12.1578 80.5485 12.2103C80.496 12.2629 80.4551 12.3258 80.4284 12.3951C80.4018 12.4644 80.39 12.5386 80.3938 12.6127L80.413 12.9921C80.4179 13.1009 80.3891 13.2087 80.3306 13.3006C80.2721 13.3926 80.1867 13.4643 80.086 13.506C79.9853 13.5477 79.8742 13.5575 79.7678 13.5339C79.6614 13.5103 79.5648 13.4545 79.4913 13.3741L79.2363 13.092C79.1865 13.0369 79.1257 12.9929 79.0579 12.9627C78.99 12.9325 78.9166 12.917 78.8423 12.917C78.7681 12.917 78.6946 12.9325 78.6268 12.9627C78.5589 12.9929 78.4981 13.0369 78.4484 13.092L78.1923 13.3741C78.1189 13.4549 78.0223 13.511 77.9157 13.5349C77.8092 13.5587 77.6978 13.5491 77.5969 13.5074C77.496 13.4657 77.4104 13.3939 77.3518 13.3018C77.2932 13.2096 77.2645 13.1017 77.2695 12.9926L77.289 12.6133C77.2928 12.5391 77.281 12.465 77.2544 12.3957C77.2277 12.3263 77.1868 12.2634 77.1343 12.2109C77.0818 12.1584 77.0189 12.1175 76.9495 12.0908C76.8802 12.0642 76.8061 12.0524 76.7319 12.0562L76.3526 12.0754C76.2432 12.0812 76.1347 12.0529 76.0421 11.9945C75.9494 11.9361 75.8771 11.8504 75.8351 11.7493C75.793 11.6481 75.7833 11.5364 75.8073 11.4295C75.8313 11.3227 75.8877 11.2258 75.9689 11.1523L76.251 10.8976C76.3061 10.8478 76.3502 10.787 76.3803 10.7192C76.4105 10.6513 76.4261 10.5778 76.4261 10.5035C76.4261 10.4293 76.4105 10.3558 76.3803 10.2879C76.3502 10.22 76.3061 10.1592 76.251 10.1094L75.9689 9.8534C75.888 9.77998 75.8317 9.68334 75.8078 9.57671C75.7838 9.47008 75.7934 9.35866 75.8352 9.25767C75.8769 9.15668 75.9489 9.07106 76.0412 9.01251C76.1334 8.95396 76.2415 8.92534 76.3507 8.93056L76.73 8.9498C76.8043 8.9537 76.8786 8.94194 76.9481 8.91526C77.0175 8.88859 77.0806 8.8476 77.1332 8.79496C77.1858 8.74232 77.2267 8.67921 77.2533 8.60973C77.2799 8.54025 77.2916 8.46594 77.2876 8.39164L77.2695 8.01205C77.2644 7.90293 77.293 7.79489 77.3516 7.70266C77.4101 7.61044 77.4957 7.53853 77.5967 7.49675C77.6976 7.45497 77.809 7.44534 77.9156 7.46919C78.0222 7.49304 78.1188 7.5492 78.1923 7.63001L78.447 7.91126Z" stroke="#FEFEFE" stroke-width="0.609352" stroke-linecap="round" stroke-linejoin="round"/>
<path d="M78.8411 11.7217C79.5145 11.7217 80.0604 11.1758 80.0604 10.5025C80.0604 9.82909 79.5145 9.2832 78.8411 9.2832C78.1677 9.2832 77.6218 9.82909 77.6218 10.5025C77.6218 11.1758 78.1677 11.7217 78.8411 11.7217Z" stroke="#FEFEFE" stroke-width="0.609352" stroke-linecap="round" stroke-linejoin="round"/>
<path d="M87.5874 7.8457L92.8685 13.1268" stroke="#FEFEFE" stroke-width="0.609352" stroke-linecap="round"/>
<path d="M87.5627 13.127L92.8438 7.8459" stroke="#FEFEFE" stroke-width="0.609352" stroke-linecap="round"/>
<path fill-rule="evenodd" clip-rule="evenodd" d="M14.9482 9.23492C14.8625 9.39997 14.7175 9.481 14.6301 9.48949C14.5427 9.49795 14.3819 9.43667 14.3707 9.33063C14.3604 9.23311 14.7439 8.91669 14.9775 8.90672C15.0098 8.90535 15.0357 8.93418 15.0321 8.96652C15.0258 9.02429 15.0064 9.12291 14.9482 9.23492ZM14.269 9.34352C14.2291 9.45775 13.9059 9.48017 13.8151 9.45941C13.7244 9.43866 13.5526 9.30784 13.477 9.13057C13.4215 9.00028 13.4275 8.89192 13.4371 8.83597C13.4413 8.81115 13.4671 8.79272 13.4959 8.79408C13.8353 8.81011 14.3089 9.22926 14.269 9.34352ZM16.7265 9.24551C16.6394 9.19191 16.6001 9.3076 16.5327 9.3076C16.5142 9.1372 16.6881 9.01738 16.7166 8.99981C16.745 8.9822 16.7669 8.87226 16.6411 8.87338C16.5492 8.87338 16.4649 9.0064 16.4649 9.0064C16.4485 8.91625 16.5404 8.83268 16.5656 8.8107C16.6378 8.75573 16.5109 8.67107 16.4223 8.73153C16.3161 8.81841 16.2822 8.93494 16.2822 8.93494C16.2581 8.87775 16.3095 8.76232 16.3249 8.72824C16.3402 8.69415 16.28 8.63589 16.187 8.72494C16.0776 8.82829 16.0425 9.02177 16.0425 9.02177C15.805 8.95285 15.2856 8.95432 15.101 9.03114C15.101 9.03114 15.2353 8.1517 14.3107 7.7256C14.0312 7.59681 13.6756 7.61948 13.446 7.81809C13.4708 7.72652 13.4806 7.49482 13.4013 7.38167C13.4013 7.38167 13.1085 7.23427 12.9096 7.25138C13.2813 7.62832 13.2669 7.84714 13.2598 8.00614C13.1507 7.60135 12.7703 7.27628 12.3463 7.2909C12.4159 7.51211 12.3535 7.81094 12.3535 7.81094C12.68 7.76041 12.9925 7.92631 13.1146 8.40764C13.0846 8.46922 13.0726 8.61538 13.1013 8.66771L12.9587 8.56361C12.5533 8.25907 11.6839 7.93955 11.4498 7.91811C11.2156 7.89666 11.0318 8.18399 11.0032 8.38754C10.9746 8.59108 11.1453 8.69056 11.2536 8.74036C11.3619 8.79015 11.6167 8.88669 11.6788 8.70182C12.1966 8.83784 12.6879 9.4902 12.6324 10.3865C12.3385 10.8134 11.8068 12.1044 12.4078 12.9259C12.2824 13.2992 12.2653 13.6916 12.4364 13.7482C12.5892 13.7932 13.0455 12.8556 13.0776 12.6943C13.0042 12.1068 13.3413 11.716 13.8801 11.5478C14.0452 11.7114 14.0769 12.1901 14.093 12.3698C14.109 12.5495 14.2103 12.5169 14.2492 12.4847C14.6688 12.1575 15.1068 11.9064 15.1572 11.888C15.3751 11.7613 15.3888 11.6184 15.1779 11.6092C14.9669 11.6 14.7774 11.6369 14.7774 11.6369C15.1053 11.0955 15.6433 10.382 14.8362 10.4827C14.9797 9.95374 15.5161 9.44584 16.3726 9.51742C16.7204 9.52533 16.8135 9.29912 16.7265 9.24551Z" fill="#FEFEFE"/>
<path d="M11.01 36H10.11L12.78 29H13.81L16.47 36H15.54L14.8 34.11H11.75L11.01 36ZM13.27 29.95L12.01 33.32H14.54L13.27 29.95ZM19.2674 36.06C17.7374 36.06 16.7374 35.01 16.7374 33.45C16.7374 31.9 17.7174 30.84 19.1574 30.84C20.5974 30.84 21.5374 31.75 21.5774 33.26C21.5774 33.37 21.5674 33.49 21.5574 33.61H17.5974V33.68C17.6274 34.65 18.2374 35.33 19.2074 35.33C19.9274 35.33 20.4874 34.95 20.6574 34.29H21.4874C21.2874 35.31 20.4474 36.06 19.2674 36.06ZM17.6474 32.93H20.6974C20.6174 32.05 20.0174 31.56 19.1674 31.56C18.4174 31.56 17.7274 32.1 17.6474 32.93ZM24.8631 36.06C23.3731 36.06 22.3331 35 22.3331 33.45C22.3331 31.9 23.3731 30.84 24.8631 30.84C26.3531 30.84 27.3931 31.9 27.3931 33.45C27.3931 35 26.3531 36.06 24.8631 36.06ZM24.8631 35.33C25.8731 35.33 26.5531 34.54 26.5531 33.45C26.5531 32.36 25.8731 31.57 24.8631 31.57C23.8531 31.57 23.1731 32.36 23.1731 33.45C23.1731 34.54 23.8531 35.33 24.8631 35.33ZM30.8334 30.84C31.9834 30.84 32.8934 31.47 32.8934 33.16V36H32.0734V33.21C32.0734 32.15 31.5834 31.59 30.6934 31.59C29.7334 31.59 29.1534 32.3 29.1534 33.45V36H28.3334V30.9H29.0434L29.1534 31.59C29.4534 31.2 29.9734 30.84 30.8334 30.84ZM34.3589 30.04C34.0589 30.04 33.8289 29.82 33.8289 29.51C33.8289 29.2 34.0589 28.98 34.3589 28.98C34.6589 28.98 34.8889 29.2 34.8889 29.51C34.8889 29.82 34.6589 30.04 34.3589 30.04ZM33.9389 36V30.9H34.7589V36H33.9389ZM35.8823 36V29H36.7023V33.61L39.2623 30.9H40.2723L38.2823 33.01L40.4123 36H39.4223L37.7323 33.6L36.7023 34.66V36H35.8823Z" fill="#FEFEFE"/>
<path d="M16.065 57.615L15.77 57.705L17.405 52.325L16.575 52.09L16.615 51.95H18.685L18.64 52.09L17.825 52.32L15.775 59.035H14.795L12.555 52.515L12.74 52.445L10.86 58.625L11.685 58.86L11.645 59H9.58L9.62 58.86L10.435 58.63L12.32 52.47L11.52 52.085L11.565 51.95H14.11L16.065 57.615ZM20.549 54.26C20.3957 54.26 20.2457 54.315 20.099 54.425C19.9523 54.535 19.814 54.685 19.684 54.875C19.5573 55.065 19.444 55.2867 19.344 55.54C19.2473 55.79 19.1707 56.0583 19.114 56.345C19.0607 56.6283 19.034 56.9167 19.034 57.21C19.034 57.5433 19.099 57.7867 19.229 57.94C19.359 58.0933 19.5557 58.17 19.819 58.17C20.009 58.17 20.1957 58.1383 20.379 58.075C20.5623 58.0117 20.7457 57.895 20.929 57.725C21.1157 57.555 21.3007 57.3117 21.484 56.995H21.609C21.3857 57.575 21.1457 58.02 20.889 58.33C20.6323 58.6367 20.3623 58.8467 20.079 58.96C19.799 59.0733 19.5007 59.13 19.184 59.13C18.804 59.13 18.489 59.0617 18.239 58.925C17.989 58.785 17.8023 58.5917 17.679 58.345C17.559 58.095 17.499 57.8067 17.499 57.48C17.499 57.1533 17.5457 56.8233 17.639 56.49C17.7357 56.1533 17.874 55.8317 18.054 55.525C18.2373 55.2183 18.4607 54.945 18.724 54.705C18.9873 54.465 19.2873 54.275 19.624 54.135C19.9607 53.995 20.3307 53.925 20.734 53.925C21.0873 53.925 21.364 53.97 21.564 54.06C21.764 54.1467 21.904 54.2617 21.984 54.405C22.0673 54.5483 22.109 54.7017 22.109 54.865C22.109 55.0383 22.0807 55.2083 22.024 55.375C21.9707 55.5383 21.8907 55.6883 21.784 55.825C21.604 55.8983 21.3907 55.9767 21.144 56.06C20.9007 56.14 20.639 56.2217 20.359 56.305C20.079 56.385 19.7923 56.465 19.499 56.545C19.209 56.625 18.9257 56.6983 18.649 56.765L18.679 56.525C19.039 56.395 19.3457 56.2717 19.599 56.155C19.8523 56.0383 20.0623 55.9233 20.229 55.81C20.3957 55.6933 20.5257 55.5783 20.619 55.465C20.7123 55.3483 20.7773 55.2283 20.814 55.105C20.854 54.9817 20.874 54.8533 20.874 54.72C20.874 54.6133 20.8607 54.5267 20.834 54.46C20.8107 54.39 20.774 54.34 20.724 54.31C20.6773 54.2767 20.619 54.26 20.549 54.26ZM26.6465 54.055H28.1065L27.3815 57.165C27.3548 57.285 27.3332 57.395 27.3165 57.495C27.2998 57.5917 27.2915 57.68 27.2915 57.76C27.2915 57.9467 27.3332 58.0833 27.4165 58.17C27.4998 58.2533 27.6248 58.295 27.7915 58.295C27.9482 58.295 28.1032 58.255 28.2565 58.175C28.4098 58.0917 28.5548 57.9783 28.6915 57.835C28.8315 57.6883 28.9532 57.5217 29.0565 57.335C29.1632 57.145 29.2465 56.9433 29.3065 56.73C29.3698 56.5133 29.4015 56.295 29.4015 56.075C29.4015 55.8683 29.3615 55.7 29.2815 55.57C29.2048 55.44 29.1148 55.3283 29.0115 55.235C28.9115 55.1383 28.8215 55.0417 28.7415 54.945C28.6648 54.8483 28.6265 54.7317 28.6265 54.595C28.6265 54.4117 28.6898 54.255 28.8165 54.125C28.9432 53.9917 29.1148 53.925 29.3315 53.925C29.4882 53.925 29.6198 53.9617 29.7265 54.035C29.8365 54.1083 29.9198 54.2183 29.9765 54.365C30.0332 54.5117 30.0615 54.6967 30.0615 54.92C30.0615 55.32 30.0048 55.7217 29.8915 56.125C29.7782 56.5283 29.6215 56.91 29.4215 57.27C29.2215 57.63 28.9882 57.95 28.7215 58.23C28.4582 58.51 28.1748 58.73 27.8715 58.89C27.5682 59.05 27.2582 59.13 26.9415 59.13C26.5882 59.13 26.3065 59.05 26.0965 58.89C25.8898 58.7267 25.7865 58.4733 25.7865 58.13C25.7865 58.04 25.7948 57.9433 25.8115 57.84C25.8282 57.7367 25.8532 57.625 25.8865 57.505L26.1365 56.59L26.2115 56.6C26.0348 57.0933 25.8432 57.5033 25.6365 57.83C25.4332 58.1567 25.2248 58.415 25.0115 58.605C24.8015 58.795 24.5898 58.93 24.3765 59.01C24.1665 59.09 23.9632 59.13 23.7665 59.13C23.3998 59.13 23.1248 59.045 22.9415 58.875C22.7582 58.705 22.6665 58.46 22.6665 58.14C22.6665 57.89 22.7215 57.5983 22.8315 57.265L23.5365 55.1C23.5565 55.0333 23.5598 54.98 23.5465 54.94C23.5332 54.9 23.4982 54.88 23.4415 54.88C23.3548 54.88 23.2582 54.91 23.1515 54.97C23.0482 55.0267 22.9282 55.1383 22.7915 55.305C22.6582 55.4717 22.5015 55.7233 22.3215 56.06L22.2215 56.01C22.3815 55.6133 22.5382 55.2833 22.6915 55.02C22.8482 54.7533 23.0115 54.5417 23.1815 54.385C23.3548 54.225 23.5415 54.1117 23.7415 54.045C23.9448 53.975 24.1715 53.94 24.4215 53.94C24.5482 53.94 24.6598 53.945 24.7565 53.955C24.8532 53.9617 24.9482 53.9733 25.0415 53.99C25.1348 54.0033 25.2365 54.025 25.3465 54.055L24.3765 57.12C24.3232 57.2967 24.2832 57.45 24.2565 57.58C24.2298 57.7067 24.2165 57.8133 24.2165 57.9C24.2165 58.0467 24.2498 58.1483 24.3165 58.205C24.3865 58.2617 24.4832 58.29 24.6065 58.29C24.7665 58.29 24.9365 58.2183 25.1165 58.075C25.2998 57.9317 25.4798 57.7017 25.6565 57.385C25.8332 57.0683 25.9865 56.65 26.1165 56.13L26.6465 54.055ZM30.921 57.725C30.9277 57.9183 30.946 58.0783 30.976 58.205C31.0093 58.3317 31.0593 58.4433 31.126 58.54C31.1927 58.6333 31.271 58.6967 31.361 58.73C31.451 58.7633 31.5543 58.78 31.671 58.78C31.8643 58.78 32.026 58.755 32.156 58.705C32.286 58.655 32.3827 58.5817 32.446 58.485C32.5093 58.3883 32.541 58.2733 32.541 58.14C32.541 58.0467 32.521 57.9517 32.481 57.855C32.441 57.7583 32.3693 57.65 32.266 57.53C32.1627 57.41 32.011 57.2667 31.811 57.1C31.6143 56.9367 31.4577 56.78 31.341 56.63C31.2243 56.48 31.141 56.33 31.091 56.18C31.041 56.03 31.016 55.8733 31.016 55.71C31.016 55.38 31.0977 55.0817 31.261 54.815C31.4277 54.545 31.6643 54.33 31.971 54.17C32.2777 54.0067 32.6443 53.925 33.071 53.925C33.3843 53.925 33.6343 53.96 33.821 54.03C34.0077 54.0967 34.141 54.1883 34.221 54.305C34.3043 54.4183 34.346 54.5467 34.346 54.69C34.346 54.83 34.3177 54.9433 34.261 55.03C34.2077 55.1167 34.1177 55.18 33.991 55.22C33.8643 55.26 33.6943 55.28 33.481 55.28C33.4843 55.06 33.4727 54.8917 33.446 54.775C33.4227 54.655 33.381 54.5533 33.321 54.47C33.2643 54.38 33.1927 54.3183 33.106 54.285C33.0227 54.2483 32.9243 54.23 32.811 54.23C32.5577 54.23 32.3643 54.2867 32.231 54.4C32.101 54.51 32.036 54.655 32.036 54.835C32.036 54.925 32.056 55.0167 32.096 55.11C32.1393 55.2033 32.2143 55.3083 32.321 55.425C32.4277 55.5417 32.581 55.6867 32.781 55.86C32.9777 56.03 33.1343 56.1933 33.251 56.35C33.371 56.5067 33.456 56.66 33.506 56.81C33.5593 56.9567 33.586 57.105 33.586 57.255C33.586 57.575 33.4943 57.8783 33.311 58.165C33.1277 58.4517 32.871 58.685 32.541 58.865C32.211 59.0417 31.826 59.13 31.386 59.13C31.0593 59.13 30.7943 59.0983 30.591 59.035C30.391 58.9717 30.2443 58.8817 30.151 58.765C30.0577 58.6483 30.011 58.515 30.011 58.365C30.011 58.2217 30.041 58.1033 30.101 58.01C30.161 57.9133 30.2577 57.8417 30.391 57.795C30.5243 57.7483 30.701 57.725 30.921 57.725ZM35.7295 55.1C35.7495 55.0367 35.7528 54.985 35.7395 54.945C35.7261 54.9017 35.6928 54.88 35.6395 54.88C35.5495 54.88 35.4511 54.9083 35.3445 54.965C35.2378 55.0217 35.1161 55.135 34.9795 55.305C34.8461 55.4717 34.6895 55.7233 34.5095 56.06L34.4095 56.015C34.6161 55.4817 34.8245 55.065 35.0345 54.765C35.2478 54.4617 35.4745 54.2483 35.7145 54.125C35.9545 54.0017 36.2228 53.94 36.5195 53.94C36.6428 53.94 36.7495 53.9433 36.8395 53.95C36.9328 53.9567 37.0245 53.97 37.1145 53.99C37.2045 54.0067 37.3045 54.0283 37.4145 54.055L36.6045 56.68V56.525C36.9211 55.8383 37.2111 55.3067 37.4745 54.93C37.7378 54.5533 37.9861 54.2917 38.2195 54.145C38.4561 53.9983 38.6845 53.925 38.9045 53.925C39.1478 53.925 39.3311 53.9867 39.4545 54.11C39.5778 54.2333 39.6395 54.4067 39.6395 54.63C39.6395 54.82 39.5961 54.99 39.5095 55.14C39.4261 55.29 39.3145 55.4083 39.1745 55.495C39.0378 55.5817 38.8845 55.625 38.7145 55.625C38.5911 55.625 38.5028 55.5967 38.4495 55.54C38.3961 55.48 38.3628 55.39 38.3495 55.27C38.3428 55.1467 38.3211 55.065 38.2845 55.025C38.2511 54.9817 38.2011 54.96 38.1345 54.96C38.0411 54.96 37.9395 54.995 37.8295 55.065C37.7228 55.1317 37.6111 55.235 37.4945 55.375C37.3778 55.5117 37.2595 55.6817 37.1395 55.885C37.0195 56.0883 36.8995 56.3233 36.7795 56.59C36.6628 56.8567 36.5478 57.1567 36.4345 57.49L35.9295 59H34.4395L35.7295 55.1ZM42.297 54.26C42.1437 54.26 41.9937 54.315 41.847 54.425C41.7004 54.535 41.562 54.685 41.432 54.875C41.3054 55.065 41.192 55.2867 41.092 55.54C40.9954 55.79 40.9187 56.0583 40.862 56.345C40.8087 56.6283 40.782 56.9167 40.782 57.21C40.782 57.5433 40.847 57.7867 40.977 57.94C41.107 58.0933 41.3037 58.17 41.567 58.17C41.757 58.17 41.9437 58.1383 42.127 58.075C42.3104 58.0117 42.4937 57.895 42.677 57.725C42.8637 57.555 43.0487 57.3117 43.232 56.995H43.357C43.1337 57.575 42.8937 58.02 42.637 58.33C42.3804 58.6367 42.1104 58.8467 41.827 58.96C41.547 59.0733 41.2487 59.13 40.932 59.13C40.552 59.13 40.237 59.0617 39.987 58.925C39.737 58.785 39.5504 58.5917 39.427 58.345C39.307 58.095 39.247 57.8067 39.247 57.48C39.247 57.1533 39.2937 56.8233 39.387 56.49C39.4837 56.1533 39.622 55.8317 39.802 55.525C39.9854 55.2183 40.2087 54.945 40.472 54.705C40.7354 54.465 41.0354 54.275 41.372 54.135C41.7087 53.995 42.0787 53.925 42.482 53.925C42.8354 53.925 43.112 53.97 43.312 54.06C43.512 54.1467 43.652 54.2617 43.732 54.405C43.8154 54.5483 43.857 54.7017 43.857 54.865C43.857 55.0383 43.8287 55.2083 43.772 55.375C43.7187 55.5383 43.6387 55.6883 43.532 55.825C43.352 55.8983 43.1387 55.9767 42.892 56.06C42.6487 56.14 42.387 56.2217 42.107 56.305C41.827 56.385 41.5404 56.465 41.247 56.545C40.957 56.625 40.6737 56.6983 40.397 56.765L40.427 56.525C40.787 56.395 41.0937 56.2717 41.347 56.155C41.6004 56.0383 41.8104 55.9233 41.977 55.81C42.1437 55.6933 42.2737 55.5783 42.367 55.465C42.4604 55.3483 42.5254 55.2283 42.562 55.105C42.602 54.9817 42.622 54.8533 42.622 54.72C42.622 54.6133 42.6087 54.5267 42.582 54.46C42.5587 54.39 42.522 54.34 42.472 54.31C42.4254 54.2767 42.367 54.26 42.297 54.26ZM46.7245 58.53L47.3395 56.685L47.4295 56.705C47.1295 57.2017 46.8595 57.6083 46.6195 57.925C46.3795 58.2383 46.1579 58.4833 45.9545 58.66C45.7512 58.8367 45.5579 58.9583 45.3745 59.025C45.1912 59.095 45.0062 59.13 44.8195 59.13C44.6062 59.13 44.4179 59.0867 44.2545 59C44.0945 58.9167 43.9695 58.7967 43.8795 58.64C43.7895 58.4833 43.7445 58.2983 43.7445 58.085C43.7445 57.735 43.8045 57.37 43.9245 56.99C44.0479 56.6067 44.2145 56.235 44.4245 55.875C44.6379 55.5117 44.8812 55.185 45.1545 54.895C45.4312 54.605 45.7245 54.3733 46.0345 54.2C46.3479 54.0267 46.6612 53.94 46.9745 53.94C47.1979 53.94 47.4079 54.0033 47.6045 54.13C47.8012 54.2533 47.9795 54.4533 48.1395 54.73L48.0445 54.93C47.9745 54.7967 47.8912 54.7 47.7945 54.64C47.6979 54.58 47.5845 54.55 47.4545 54.55C47.2745 54.55 47.0879 54.6217 46.8945 54.765C46.7045 54.905 46.5195 55.0917 46.3395 55.325C46.1595 55.5583 45.9979 55.8167 45.8545 56.1C45.7145 56.38 45.6012 56.6617 45.5145 56.945C45.4312 57.225 45.3895 57.4833 45.3895 57.72C45.3895 57.8867 45.4162 58.0017 45.4695 58.065C45.5262 58.1283 45.6162 58.16 45.7395 58.16C45.8195 58.16 45.9095 58.1383 46.0095 58.095C46.1129 58.0483 46.2279 57.9683 46.3545 57.855C46.4812 57.7417 46.6179 57.5867 46.7645 57.39C46.9145 57.1933 47.0745 56.945 47.2445 56.645L47.9695 54.6L48.2495 54.055H49.6045L48.1145 58.505L47.9645 58.275C48.0979 58.255 48.2395 58.21 48.3895 58.14C48.5395 58.07 48.6979 57.965 48.8645 57.825C49.0345 57.6817 49.2179 57.4983 49.4145 57.275L49.5045 57.35C49.1045 57.99 48.7112 58.4467 48.3245 58.72C47.9379 58.9933 47.5745 59.13 47.2345 59.13C47.0112 59.13 46.8545 59.0767 46.7645 58.97C46.6779 58.86 46.6645 58.7133 46.7245 58.53ZM54.0187 55.18C53.9387 54.9467 53.8403 54.7833 53.7237 54.69C53.6103 54.5933 53.4737 54.545 53.3137 54.545C53.1237 54.545 52.932 54.62 52.7387 54.77C52.5453 54.92 52.3603 55.1167 52.1837 55.36C52.007 55.6033 51.8487 55.8683 51.7087 56.155C51.5687 56.4383 51.4587 56.7183 51.3787 56.995C51.2987 57.2683 51.2587 57.51 51.2587 57.72C51.2587 57.8867 51.2853 58.0017 51.3387 58.065C51.3953 58.1283 51.4837 58.16 51.6037 58.16C51.6737 58.16 51.7503 58.1433 51.8337 58.11C51.9203 58.0733 52.0137 58.015 52.1137 57.935C52.2137 57.855 52.3187 57.7517 52.4287 57.625C52.542 57.4983 52.6603 57.345 52.7837 57.165C52.9103 56.9817 53.0387 56.77 53.1687 56.53L54.4187 52.885C54.3587 52.825 54.2887 52.7583 54.2087 52.685C54.1287 52.6083 54.0437 52.53 53.9537 52.45C53.8637 52.3667 53.7737 52.2867 53.6837 52.21L53.7187 52.065L56.2437 51.62H56.3437L54.0537 58.585L53.6487 58.315C53.7887 58.3183 53.942 58.295 54.1087 58.245C54.2787 58.195 54.4687 58.095 54.6787 57.945C54.8887 57.795 55.127 57.5717 55.3937 57.275L55.4837 57.35C55.077 57.98 54.6737 58.435 54.2737 58.715C53.8737 58.9917 53.502 59.13 53.1587 59.13C52.922 59.13 52.7587 59.0683 52.6687 58.945C52.5787 58.8217 52.5703 58.6467 52.6437 58.42L53.2137 56.7L53.2937 56.705C52.9803 57.225 52.6987 57.6467 52.4487 57.97C52.202 58.29 51.977 58.5333 51.7737 58.7C51.5703 58.8667 51.3803 58.98 51.2037 59.04C51.027 59.1 50.8553 59.13 50.6887 59.13C50.4753 59.13 50.287 59.0867 50.1237 59C49.9637 58.9167 49.8387 58.7967 49.7487 58.64C49.6587 58.4833 49.6137 58.2983 49.6137 58.085C49.6137 57.7417 49.6737 57.38 49.7937 57C49.9137 56.62 50.0787 56.25 50.2887 55.89C50.4987 55.5267 50.7403 55.1983 51.0137 54.905C51.287 54.6083 51.5787 54.3733 51.8887 54.2C52.202 54.0233 52.5203 53.935 52.8437 53.935C53.087 53.935 53.3137 54.0117 53.5237 54.165C53.737 54.3183 53.9287 54.5667 54.0987 54.91L54.0187 55.18ZM58.8107 54.26C58.6574 54.26 58.5074 54.315 58.3607 54.425C58.214 54.535 58.0757 54.685 57.9457 54.875C57.819 55.065 57.7057 55.2867 57.6057 55.54C57.509 55.79 57.4324 56.0583 57.3757 56.345C57.3224 56.6283 57.2957 56.9167 57.2957 57.21C57.2957 57.5433 57.3607 57.7867 57.4907 57.94C57.6207 58.0933 57.8174 58.17 58.0807 58.17C58.2707 58.17 58.4574 58.1383 58.6407 58.075C58.824 58.0117 59.0074 57.895 59.1907 57.725C59.3774 57.555 59.5624 57.3117 59.7457 56.995H59.8707C59.6474 57.575 59.4074 58.02 59.1507 58.33C58.894 58.6367 58.624 58.8467 58.3407 58.96C58.0607 59.0733 57.7624 59.13 57.4457 59.13C57.0657 59.13 56.7507 59.0617 56.5007 58.925C56.2507 58.785 56.064 58.5917 55.9407 58.345C55.8207 58.095 55.7607 57.8067 55.7607 57.48C55.7607 57.1533 55.8074 56.8233 55.9007 56.49C55.9974 56.1533 56.1357 55.8317 56.3157 55.525C56.499 55.2183 56.7224 54.945 56.9857 54.705C57.249 54.465 57.549 54.275 57.8857 54.135C58.2224 53.995 58.5924 53.925 58.9957 53.925C59.349 53.925 59.6257 53.97 59.8257 54.06C60.0257 54.1467 60.1657 54.2617 60.2457 54.405C60.329 54.5483 60.3707 54.7017 60.3707 54.865C60.3707 55.0383 60.3424 55.2083 60.2857 55.375C60.2324 55.5383 60.1524 55.6883 60.0457 55.825C59.8657 55.8983 59.6524 55.9767 59.4057 56.06C59.1624 56.14 58.9007 56.2217 58.6207 56.305C58.3407 56.385 58.054 56.465 57.7607 56.545C57.4707 56.625 57.1874 56.6983 56.9107 56.765L56.9407 56.525C57.3007 56.395 57.6074 56.2717 57.8607 56.155C58.114 56.0383 58.324 55.9233 58.4907 55.81C58.6574 55.6933 58.7874 55.5783 58.8807 55.465C58.974 55.3483 59.039 55.2283 59.0757 55.105C59.1157 54.9817 59.1357 54.8533 59.1357 54.72C59.1357 54.6133 59.1224 54.5267 59.0957 54.46C59.0724 54.39 59.0357 54.34 58.9857 54.31C58.939 54.2767 58.8807 54.26 58.8107 54.26ZM61.8232 55.1C61.8432 55.0367 61.8465 54.985 61.8332 54.945C61.8199 54.9017 61.7865 54.88 61.7332 54.88C61.6432 54.88 61.5449 54.9083 61.4382 54.965C61.3315 55.0217 61.2099 55.135 61.0732 55.305C60.9399 55.4717 60.7832 55.7233 60.6032 56.06L60.5032 56.015C60.7099 55.4817 60.9182 55.065 61.1282 54.765C61.3415 54.4617 61.5682 54.2483 61.8082 54.125C62.0482 54.0017 62.3165 53.94 62.6132 53.94C62.7365 53.94 62.8432 53.9433 62.9332 53.95C63.0265 53.9567 63.1182 53.97 63.2082 53.99C63.2982 54.0067 63.3982 54.0283 63.5082 54.055L62.6982 56.68V56.525C63.0149 55.8383 63.3049 55.3067 63.5682 54.93C63.8315 54.5533 64.0799 54.2917 64.3132 54.145C64.5499 53.9983 64.7782 53.925 64.9982 53.925C65.2415 53.925 65.4249 53.9867 65.5482 54.11C65.6715 54.2333 65.7332 54.4067 65.7332 54.63C65.7332 54.82 65.6899 54.99 65.6032 55.14C65.5199 55.29 65.4082 55.4083 65.2682 55.495C65.1315 55.5817 64.9782 55.625 64.8082 55.625C64.6849 55.625 64.5965 55.5967 64.5432 55.54C64.4899 55.48 64.4565 55.39 64.4432 55.27C64.4365 55.1467 64.4149 55.065 64.3782 55.025C64.3449 54.9817 64.2949 54.96 64.2282 54.96C64.1349 54.96 64.0332 54.995 63.9232 55.065C63.8165 55.1317 63.7049 55.235 63.5882 55.375C63.4715 55.5117 63.3532 55.6817 63.2332 55.885C63.1132 56.0883 62.9932 56.3233 62.8732 56.59C62.7565 56.8567 62.6415 57.1567 62.5282 57.49L62.0232 59H60.5332L61.8232 55.1Z" fill="#FEFEFE"/>
</svg>
