<svg width="103" height="69" viewBox="0 0 103 69" fill="none" xmlns="http://www.w3.org/2000/svg">
<rect width="103" height="69" rx="8" fill="#F7F6F6"/>
<rect x="2" y="20" width="99" height="47" rx="8" fill="white"/>
<line x1="2" y1="43.6715" x2="103" y2="43.6715" stroke="#F7F6F6" stroke-width="0.656981"/>
<path d="M67.1166 8.52288H66.0334L65.5134 7.82958C65.473 7.77576 65.4207 7.73208 65.3605 7.702C65.3003 7.67191 65.234 7.65625 65.1667 7.65625H63.6501C63.5352 7.65625 63.425 7.7019 63.3437 7.78317C63.2624 7.86443 63.2168 7.97464 63.2168 8.08957V12.8561C63.2168 12.971 63.2624 13.0812 63.3437 13.1625C63.425 13.2437 63.5352 13.2894 63.6501 13.2894H69.2832C69.3982 13.2894 69.5084 13.2437 69.5896 13.1625C69.6709 13.0812 69.7166 12.971 69.7166 12.8561V8.9562C69.7166 8.84128 69.6709 8.73106 69.5896 8.6498C69.5084 8.56854 69.3982 8.52288 69.2832 8.52288H68.8499" stroke="#121212" stroke-width="0.609352" stroke-linecap="round" stroke-linejoin="round"/>
<path d="M68.85 10.9064L67.9833 10.2564L67.1167 10.9064V8.3065C67.1167 8.24904 67.1395 8.19393 67.1802 8.1533C67.2208 8.11267 67.2759 8.08984 67.3334 8.08984H68.6333C68.6908 8.08984 68.7459 8.11267 68.7865 8.1533C68.8271 8.19393 68.85 8.24904 68.85 8.3065V10.9064Z" stroke="#121212" stroke-width="0.609352" stroke-linecap="round" stroke-linejoin="round"/>
<path d="M77.447 7.91126C77.4967 7.96645 77.5575 8.01058 77.6254 8.04078C77.6932 8.07099 77.7667 8.0866 77.841 8.0866C77.9153 8.0866 77.9887 8.07099 78.0566 8.04078C78.1245 8.01058 78.1852 7.96645 78.2349 7.91126L78.4913 7.63001C78.5647 7.54871 78.6615 7.49214 78.7684 7.46806C78.8753 7.44397 78.987 7.45356 79.0883 7.49551C79.1895 7.53745 79.2753 7.6097 79.3338 7.70233C79.3923 7.79496 79.4208 7.90343 79.4152 8.01286L79.3959 8.39219C79.3922 8.46618 79.404 8.54014 79.4306 8.60929C79.4572 8.67844 79.498 8.74126 79.5504 8.79368C79.6027 8.84611 79.6655 8.88699 79.7346 8.9137C79.8037 8.9404 79.8777 8.95232 79.9517 8.94871L80.331 8.92948C80.4403 8.92408 80.5487 8.95264 80.6412 9.01124C80.7337 9.06984 80.8058 9.15561 80.8476 9.2568C80.8895 9.35798 80.899 9.46963 80.8749 9.57644C80.8508 9.68325 80.7943 9.77999 80.713 9.8534L80.4307 10.1081C80.3756 10.1579 80.3315 10.2187 80.3013 10.2866C80.2712 10.3545 80.2556 10.4279 80.2556 10.5022C80.2556 10.5765 80.2712 10.6499 80.3013 10.7178C80.3315 10.7857 80.3756 10.8465 80.4307 10.8963L80.713 11.151C80.7943 11.2244 80.8509 11.3213 80.875 11.4281C80.8991 11.535 80.8895 11.6468 80.8475 11.748C80.8056 11.8492 80.7333 11.935 80.6407 11.9935C80.5481 12.052 80.4396 12.0805 80.3302 12.0749L79.9508 12.0557C79.8767 12.0518 79.8025 12.0636 79.7332 12.0903C79.6639 12.1169 79.601 12.1578 79.5485 12.2103C79.496 12.2629 79.4551 12.3258 79.4284 12.3951C79.4018 12.4644 79.39 12.5386 79.3938 12.6127L79.413 12.9921C79.4179 13.1009 79.3891 13.2087 79.3306 13.3006C79.2721 13.3926 79.1867 13.4643 79.086 13.506C78.9853 13.5477 78.8742 13.5575 78.7678 13.5339C78.6614 13.5103 78.5648 13.4545 78.4913 13.3741L78.2363 13.092C78.1865 13.0369 78.1257 12.9929 78.0579 12.9627C77.99 12.9325 77.9166 12.917 77.8423 12.917C77.7681 12.917 77.6946 12.9325 77.6268 12.9627C77.5589 12.9929 77.4981 13.0369 77.4484 13.092L77.1923 13.3741C77.1189 13.4549 77.0223 13.511 76.9157 13.5349C76.8092 13.5587 76.6978 13.5491 76.5969 13.5074C76.496 13.4657 76.4104 13.3939 76.3518 13.3018C76.2932 13.2096 76.2645 13.1017 76.2695 12.9926L76.289 12.6133C76.2928 12.5391 76.281 12.465 76.2544 12.3957C76.2277 12.3263 76.1868 12.2634 76.1343 12.2109C76.0818 12.1584 76.0189 12.1175 75.9495 12.0908C75.8802 12.0642 75.8061 12.0524 75.7319 12.0562L75.3526 12.0754C75.2432 12.0812 75.1347 12.0529 75.0421 11.9945C74.9494 11.9361 74.8771 11.8504 74.8351 11.7493C74.793 11.6481 74.7833 11.5364 74.8073 11.4295C74.8313 11.3227 74.8877 11.2258 74.9689 11.1523L75.251 10.8976C75.3061 10.8478 75.3502 10.787 75.3803 10.7192C75.4105 10.6513 75.4261 10.5778 75.4261 10.5035C75.4261 10.4293 75.4105 10.3558 75.3803 10.2879C75.3502 10.22 75.3061 10.1592 75.251 10.1094L74.9689 9.8534C74.888 9.77998 74.8317 9.68334 74.8078 9.57671C74.7838 9.47008 74.7934 9.35866 74.8352 9.25767C74.8769 9.15668 74.9489 9.07106 75.0412 9.01251C75.1334 8.95396 75.2415 8.92534 75.3507 8.93056L75.73 8.9498C75.8043 8.9537 75.8786 8.94194 75.9481 8.91526C76.0175 8.88859 76.0806 8.8476 76.1332 8.79496C76.1858 8.74232 76.2267 8.67921 76.2533 8.60973C76.2799 8.54025 76.2916 8.46594 76.2876 8.39164L76.2695 8.01205C76.2644 7.90293 76.293 7.79489 76.3516 7.70266C76.4101 7.61044 76.4957 7.53853 76.5967 7.49675C76.6976 7.45497 76.809 7.44534 76.9156 7.46919C77.0222 7.49304 77.1188 7.5492 77.1923 7.63001L77.447 7.91126Z" stroke="#121212" stroke-width="0.609352" stroke-linecap="round" stroke-linejoin="round"/>
<path d="M77.8411 11.7217C78.5145 11.7217 79.0604 11.1758 79.0604 10.5025C79.0604 9.82909 78.5145 9.2832 77.8411 9.2832C77.1677 9.2832 76.6218 9.82909 76.6218 10.5025C76.6218 11.1758 77.1677 11.7217 77.8411 11.7217Z" stroke="#121212" stroke-width="0.609352" stroke-linecap="round" stroke-linejoin="round"/>
<path d="M86.5874 7.8457L91.8685 13.1268" stroke="#121212" stroke-width="0.609352" stroke-linecap="round"/>
<path d="M86.5627 13.127L91.8438 7.8459" stroke="#121212" stroke-width="0.609352" stroke-linecap="round"/>
<path fill-rule="evenodd" clip-rule="evenodd" d="M13.9482 9.23492C13.8625 9.39997 13.7175 9.481 13.6301 9.48949C13.5427 9.49795 13.3819 9.43667 13.3707 9.33063C13.3604 9.23311 13.7439 8.91669 13.9775 8.90672C14.0098 8.90535 14.0357 8.93418 14.0321 8.96652C14.0258 9.02429 14.0064 9.12291 13.9482 9.23492ZM13.269 9.34352C13.2291 9.45775 12.9059 9.48017 12.8151 9.45941C12.7244 9.43866 12.5526 9.30784 12.477 9.13057C12.4215 9.00028 12.4275 8.89192 12.4371 8.83597C12.4413 8.81115 12.4671 8.79272 12.4959 8.79408C12.8353 8.81011 13.3089 9.22926 13.269 9.34352ZM15.7265 9.24551C15.6394 9.19191 15.6001 9.3076 15.5327 9.3076C15.5142 9.1372 15.6881 9.01738 15.7166 8.99981C15.745 8.9822 15.7669 8.87226 15.6411 8.87338C15.5492 8.87338 15.4649 9.0064 15.4649 9.0064C15.4485 8.91625 15.5404 8.83268 15.5656 8.8107C15.6378 8.75573 15.5109 8.67107 15.4223 8.73153C15.3161 8.81841 15.2822 8.93494 15.2822 8.93494C15.2581 8.87775 15.3095 8.76232 15.3249 8.72824C15.3402 8.69415 15.28 8.63589 15.187 8.72494C15.0776 8.82829 15.0425 9.02177 15.0425 9.02177C14.805 8.95285 14.2856 8.95432 14.101 9.03114C14.101 9.03114 14.2353 8.1517 13.3107 7.7256C13.0312 7.59681 12.6756 7.61948 12.446 7.81809C12.4708 7.72652 12.4806 7.49482 12.4013 7.38167C12.4013 7.38167 12.1085 7.23427 11.9096 7.25138C12.2813 7.62832 12.2669 7.84714 12.2598 8.00614C12.1507 7.60135 11.7703 7.27628 11.3463 7.2909C11.4159 7.51211 11.3535 7.81094 11.3535 7.81094C11.68 7.76041 11.9925 7.92631 12.1146 8.40764C12.0846 8.46922 12.0726 8.61538 12.1013 8.66771L11.9587 8.56361C11.5533 8.25907 10.6839 7.93955 10.4498 7.91811C10.2156 7.89666 10.0318 8.18399 10.0032 8.38754C9.9746 8.59108 10.1453 8.69056 10.2536 8.74036C10.3619 8.79015 10.6167 8.88669 10.6788 8.70182C11.1966 8.83784 11.6879 9.4902 11.6324 10.3865C11.3385 10.8134 10.8068 12.1044 11.4078 12.9259C11.2824 13.2992 11.2653 13.6916 11.4364 13.7482C11.5892 13.7932 12.0455 12.8556 12.0776 12.6943C12.0042 12.1068 12.3413 11.716 12.8801 11.5478C13.0452 11.7114 13.0769 12.1901 13.093 12.3698C13.109 12.5495 13.2103 12.5169 13.2492 12.4847C13.6688 12.1575 14.1068 11.9064 14.1572 11.888C14.3751 11.7613 14.3888 11.6184 14.1779 11.6092C13.9669 11.6 13.7774 11.6369 13.7774 11.6369C14.1053 11.0955 14.6433 10.382 13.8362 10.4827C13.9797 9.95374 14.5161 9.44584 15.3726 9.51742C15.7204 9.52533 15.8135 9.29912 15.7265 9.24551Z" fill="#121212"/>
<path d="M10.01 37H9.11L11.78 30H12.81L15.47 37H14.54L13.8 35.11H10.75L10.01 37ZM12.27 30.95L11.01 34.32H13.54L12.27 30.95ZM18.2674 37.06C16.7374 37.06 15.7374 36.01 15.7374 34.45C15.7374 32.9 16.7174 31.84 18.1574 31.84C19.5974 31.84 20.5374 32.75 20.5774 34.26C20.5774 34.37 20.5674 34.49 20.5574 34.61H16.5974V34.68C16.6274 35.65 17.2374 36.33 18.2074 36.33C18.9274 36.33 19.4874 35.95 19.6574 35.29H20.4874C20.2874 36.31 19.4474 37.06 18.2674 37.06ZM16.6474 33.93H19.6974C19.6174 33.05 19.0174 32.56 18.1674 32.56C17.4174 32.56 16.7274 33.1 16.6474 33.93ZM23.8631 37.06C22.3731 37.06 21.3331 36 21.3331 34.45C21.3331 32.9 22.3731 31.84 23.8631 31.84C25.3531 31.84 26.3931 32.9 26.3931 34.45C26.3931 36 25.3531 37.06 23.8631 37.06ZM23.8631 36.33C24.8731 36.33 25.5531 35.54 25.5531 34.45C25.5531 33.36 24.8731 32.57 23.8631 32.57C22.8531 32.57 22.1731 33.36 22.1731 34.45C22.1731 35.54 22.8531 36.33 23.8631 36.33ZM29.8334 31.84C30.9834 31.84 31.8934 32.47 31.8934 34.16V37H31.0734V34.21C31.0734 33.15 30.5834 32.59 29.6934 32.59C28.7334 32.59 28.1534 33.3 28.1534 34.45V37H27.3334V31.9H28.0434L28.1534 32.59C28.4534 32.2 28.9734 31.84 29.8334 31.84ZM33.3589 31.04C33.0589 31.04 32.8289 30.82 32.8289 30.51C32.8289 30.2 33.0589 29.98 33.3589 29.98C33.6589 29.98 33.8889 30.2 33.8889 30.51C33.8889 30.82 33.6589 31.04 33.3589 31.04ZM32.9389 37V31.9H33.7589V37H32.9389ZM34.8823 37V30H35.7023V34.61L38.2623 31.9H39.2723L37.2823 34.01L39.4123 37H38.4223L36.7323 34.6L35.7023 35.66V37H34.8823Z" fill="#121212"/>
<path d="M15.065 57.615L14.77 57.705L16.405 52.325L15.575 52.09L15.615 51.95H17.685L17.64 52.09L16.825 52.32L14.775 59.035H13.795L11.555 52.515L11.74 52.445L9.86 58.625L10.685 58.86L10.645 59H8.58L8.62 58.86L9.435 58.63L11.32 52.47L10.52 52.085L10.565 51.95H13.11L15.065 57.615ZM19.549 54.26C19.3957 54.26 19.2457 54.315 19.099 54.425C18.9523 54.535 18.814 54.685 18.684 54.875C18.5573 55.065 18.444 55.2867 18.344 55.54C18.2473 55.79 18.1707 56.0583 18.114 56.345C18.0607 56.6283 18.034 56.9167 18.034 57.21C18.034 57.5433 18.099 57.7867 18.229 57.94C18.359 58.0933 18.5557 58.17 18.819 58.17C19.009 58.17 19.1957 58.1383 19.379 58.075C19.5623 58.0117 19.7457 57.895 19.929 57.725C20.1157 57.555 20.3007 57.3117 20.484 56.995H20.609C20.3857 57.575 20.1457 58.02 19.889 58.33C19.6323 58.6367 19.3623 58.8467 19.079 58.96C18.799 59.0733 18.5007 59.13 18.184 59.13C17.804 59.13 17.489 59.0617 17.239 58.925C16.989 58.785 16.8023 58.5917 16.679 58.345C16.559 58.095 16.499 57.8067 16.499 57.48C16.499 57.1533 16.5457 56.8233 16.639 56.49C16.7357 56.1533 16.874 55.8317 17.054 55.525C17.2373 55.2183 17.4607 54.945 17.724 54.705C17.9873 54.465 18.2873 54.275 18.624 54.135C18.9607 53.995 19.3307 53.925 19.734 53.925C20.0873 53.925 20.364 53.97 20.564 54.06C20.764 54.1467 20.904 54.2617 20.984 54.405C21.0673 54.5483 21.109 54.7017 21.109 54.865C21.109 55.0383 21.0807 55.2083 21.024 55.375C20.9707 55.5383 20.8907 55.6883 20.784 55.825C20.604 55.8983 20.3907 55.9767 20.144 56.06C19.9007 56.14 19.639 56.2217 19.359 56.305C19.079 56.385 18.7923 56.465 18.499 56.545C18.209 56.625 17.9257 56.6983 17.649 56.765L17.679 56.525C18.039 56.395 18.3457 56.2717 18.599 56.155C18.8523 56.0383 19.0623 55.9233 19.229 55.81C19.3957 55.6933 19.5257 55.5783 19.619 55.465C19.7123 55.3483 19.7773 55.2283 19.814 55.105C19.854 54.9817 19.874 54.8533 19.874 54.72C19.874 54.6133 19.8607 54.5267 19.834 54.46C19.8107 54.39 19.774 54.34 19.724 54.31C19.6773 54.2767 19.619 54.26 19.549 54.26ZM25.6465 54.055H27.1065L26.3815 57.165C26.3548 57.285 26.3332 57.395 26.3165 57.495C26.2998 57.5917 26.2915 57.68 26.2915 57.76C26.2915 57.9467 26.3332 58.0833 26.4165 58.17C26.4998 58.2533 26.6248 58.295 26.7915 58.295C26.9482 58.295 27.1032 58.255 27.2565 58.175C27.4098 58.0917 27.5548 57.9783 27.6915 57.835C27.8315 57.6883 27.9532 57.5217 28.0565 57.335C28.1632 57.145 28.2465 56.9433 28.3065 56.73C28.3698 56.5133 28.4015 56.295 28.4015 56.075C28.4015 55.8683 28.3615 55.7 28.2815 55.57C28.2048 55.44 28.1148 55.3283 28.0115 55.235C27.9115 55.1383 27.8215 55.0417 27.7415 54.945C27.6648 54.8483 27.6265 54.7317 27.6265 54.595C27.6265 54.4117 27.6898 54.255 27.8165 54.125C27.9432 53.9917 28.1148 53.925 28.3315 53.925C28.4882 53.925 28.6198 53.9617 28.7265 54.035C28.8365 54.1083 28.9198 54.2183 28.9765 54.365C29.0332 54.5117 29.0615 54.6967 29.0615 54.92C29.0615 55.32 29.0048 55.7217 28.8915 56.125C28.7782 56.5283 28.6215 56.91 28.4215 57.27C28.2215 57.63 27.9882 57.95 27.7215 58.23C27.4582 58.51 27.1748 58.73 26.8715 58.89C26.5682 59.05 26.2582 59.13 25.9415 59.13C25.5882 59.13 25.3065 59.05 25.0965 58.89C24.8898 58.7267 24.7865 58.4733 24.7865 58.13C24.7865 58.04 24.7948 57.9433 24.8115 57.84C24.8282 57.7367 24.8532 57.625 24.8865 57.505L25.1365 56.59L25.2115 56.6C25.0348 57.0933 24.8432 57.5033 24.6365 57.83C24.4332 58.1567 24.2248 58.415 24.0115 58.605C23.8015 58.795 23.5898 58.93 23.3765 59.01C23.1665 59.09 22.9632 59.13 22.7665 59.13C22.3998 59.13 22.1248 59.045 21.9415 58.875C21.7582 58.705 21.6665 58.46 21.6665 58.14C21.6665 57.89 21.7215 57.5983 21.8315 57.265L22.5365 55.1C22.5565 55.0333 22.5598 54.98 22.5465 54.94C22.5332 54.9 22.4982 54.88 22.4415 54.88C22.3548 54.88 22.2582 54.91 22.1515 54.97C22.0482 55.0267 21.9282 55.1383 21.7915 55.305C21.6582 55.4717 21.5015 55.7233 21.3215 56.06L21.2215 56.01C21.3815 55.6133 21.5382 55.2833 21.6915 55.02C21.8482 54.7533 22.0115 54.5417 22.1815 54.385C22.3548 54.225 22.5415 54.1117 22.7415 54.045C22.9448 53.975 23.1715 53.94 23.4215 53.94C23.5482 53.94 23.6598 53.945 23.7565 53.955C23.8532 53.9617 23.9482 53.9733 24.0415 53.99C24.1348 54.0033 24.2365 54.025 24.3465 54.055L23.3765 57.12C23.3232 57.2967 23.2832 57.45 23.2565 57.58C23.2298 57.7067 23.2165 57.8133 23.2165 57.9C23.2165 58.0467 23.2498 58.1483 23.3165 58.205C23.3865 58.2617 23.4832 58.29 23.6065 58.29C23.7665 58.29 23.9365 58.2183 24.1165 58.075C24.2998 57.9317 24.4798 57.7017 24.6565 57.385C24.8332 57.0683 24.9865 56.65 25.1165 56.13L25.6465 54.055ZM29.921 57.725C29.9277 57.9183 29.946 58.0783 29.976 58.205C30.0093 58.3317 30.0593 58.4433 30.126 58.54C30.1927 58.6333 30.271 58.6967 30.361 58.73C30.451 58.7633 30.5543 58.78 30.671 58.78C30.8643 58.78 31.026 58.755 31.156 58.705C31.286 58.655 31.3827 58.5817 31.446 58.485C31.5093 58.3883 31.541 58.2733 31.541 58.14C31.541 58.0467 31.521 57.9517 31.481 57.855C31.441 57.7583 31.3693 57.65 31.266 57.53C31.1627 57.41 31.011 57.2667 30.811 57.1C30.6143 56.9367 30.4577 56.78 30.341 56.63C30.2243 56.48 30.141 56.33 30.091 56.18C30.041 56.03 30.016 55.8733 30.016 55.71C30.016 55.38 30.0977 55.0817 30.261 54.815C30.4277 54.545 30.6643 54.33 30.971 54.17C31.2777 54.0067 31.6443 53.925 32.071 53.925C32.3843 53.925 32.6343 53.96 32.821 54.03C33.0077 54.0967 33.141 54.1883 33.221 54.305C33.3043 54.4183 33.346 54.5467 33.346 54.69C33.346 54.83 33.3177 54.9433 33.261 55.03C33.2077 55.1167 33.1177 55.18 32.991 55.22C32.8643 55.26 32.6943 55.28 32.481 55.28C32.4843 55.06 32.4727 54.8917 32.446 54.775C32.4227 54.655 32.381 54.5533 32.321 54.47C32.2643 54.38 32.1927 54.3183 32.106 54.285C32.0227 54.2483 31.9243 54.23 31.811 54.23C31.5577 54.23 31.3643 54.2867 31.231 54.4C31.101 54.51 31.036 54.655 31.036 54.835C31.036 54.925 31.056 55.0167 31.096 55.11C31.1393 55.2033 31.2143 55.3083 31.321 55.425C31.4277 55.5417 31.581 55.6867 31.781 55.86C31.9777 56.03 32.1343 56.1933 32.251 56.35C32.371 56.5067 32.456 56.66 32.506 56.81C32.5593 56.9567 32.586 57.105 32.586 57.255C32.586 57.575 32.4943 57.8783 32.311 58.165C32.1277 58.4517 31.871 58.685 31.541 58.865C31.211 59.0417 30.826 59.13 30.386 59.13C30.0593 59.13 29.7943 59.0983 29.591 59.035C29.391 58.9717 29.2443 58.8817 29.151 58.765C29.0577 58.6483 29.011 58.515 29.011 58.365C29.011 58.2217 29.041 58.1033 29.101 58.01C29.161 57.9133 29.2577 57.8417 29.391 57.795C29.5243 57.7483 29.701 57.725 29.921 57.725ZM34.7295 55.1C34.7495 55.0367 34.7528 54.985 34.7395 54.945C34.7261 54.9017 34.6928 54.88 34.6395 54.88C34.5495 54.88 34.4511 54.9083 34.3445 54.965C34.2378 55.0217 34.1161 55.135 33.9795 55.305C33.8461 55.4717 33.6895 55.7233 33.5095 56.06L33.4095 56.015C33.6161 55.4817 33.8245 55.065 34.0345 54.765C34.2478 54.4617 34.4745 54.2483 34.7145 54.125C34.9545 54.0017 35.2228 53.94 35.5195 53.94C35.6428 53.94 35.7495 53.9433 35.8395 53.95C35.9328 53.9567 36.0245 53.97 36.1145 53.99C36.2045 54.0067 36.3045 54.0283 36.4145 54.055L35.6045 56.68V56.525C35.9211 55.8383 36.2111 55.3067 36.4745 54.93C36.7378 54.5533 36.9861 54.2917 37.2195 54.145C37.4561 53.9983 37.6845 53.925 37.9045 53.925C38.1478 53.925 38.3311 53.9867 38.4545 54.11C38.5778 54.2333 38.6395 54.4067 38.6395 54.63C38.6395 54.82 38.5961 54.99 38.5095 55.14C38.4261 55.29 38.3145 55.4083 38.1745 55.495C38.0378 55.5817 37.8845 55.625 37.7145 55.625C37.5911 55.625 37.5028 55.5967 37.4495 55.54C37.3961 55.48 37.3628 55.39 37.3495 55.27C37.3428 55.1467 37.3211 55.065 37.2845 55.025C37.2511 54.9817 37.2011 54.96 37.1345 54.96C37.0411 54.96 36.9395 54.995 36.8295 55.065C36.7228 55.1317 36.6111 55.235 36.4945 55.375C36.3778 55.5117 36.2595 55.6817 36.1395 55.885C36.0195 56.0883 35.8995 56.3233 35.7795 56.59C35.6628 56.8567 35.5478 57.1567 35.4345 57.49L34.9295 59H33.4395L34.7295 55.1ZM41.297 54.26C41.1437 54.26 40.9937 54.315 40.847 54.425C40.7004 54.535 40.562 54.685 40.432 54.875C40.3054 55.065 40.192 55.2867 40.092 55.54C39.9954 55.79 39.9187 56.0583 39.862 56.345C39.8087 56.6283 39.782 56.9167 39.782 57.21C39.782 57.5433 39.847 57.7867 39.977 57.94C40.107 58.0933 40.3037 58.17 40.567 58.17C40.757 58.17 40.9437 58.1383 41.127 58.075C41.3104 58.0117 41.4937 57.895 41.677 57.725C41.8637 57.555 42.0487 57.3117 42.232 56.995H42.357C42.1337 57.575 41.8937 58.02 41.637 58.33C41.3804 58.6367 41.1104 58.8467 40.827 58.96C40.547 59.0733 40.2487 59.13 39.932 59.13C39.552 59.13 39.237 59.0617 38.987 58.925C38.737 58.785 38.5504 58.5917 38.427 58.345C38.307 58.095 38.247 57.8067 38.247 57.48C38.247 57.1533 38.2937 56.8233 38.387 56.49C38.4837 56.1533 38.622 55.8317 38.802 55.525C38.9854 55.2183 39.2087 54.945 39.472 54.705C39.7354 54.465 40.0354 54.275 40.372 54.135C40.7087 53.995 41.0787 53.925 41.482 53.925C41.8354 53.925 42.112 53.97 42.312 54.06C42.512 54.1467 42.652 54.2617 42.732 54.405C42.8154 54.5483 42.857 54.7017 42.857 54.865C42.857 55.0383 42.8287 55.2083 42.772 55.375C42.7187 55.5383 42.6387 55.6883 42.532 55.825C42.352 55.8983 42.1387 55.9767 41.892 56.06C41.6487 56.14 41.387 56.2217 41.107 56.305C40.827 56.385 40.5404 56.465 40.247 56.545C39.957 56.625 39.6737 56.6983 39.397 56.765L39.427 56.525C39.787 56.395 40.0937 56.2717 40.347 56.155C40.6004 56.0383 40.8104 55.9233 40.977 55.81C41.1437 55.6933 41.2737 55.5783 41.367 55.465C41.4604 55.3483 41.5254 55.2283 41.562 55.105C41.602 54.9817 41.622 54.8533 41.622 54.72C41.622 54.6133 41.6087 54.5267 41.582 54.46C41.5587 54.39 41.522 54.34 41.472 54.31C41.4254 54.2767 41.367 54.26 41.297 54.26ZM45.7245 58.53L46.3395 56.685L46.4295 56.705C46.1295 57.2017 45.8595 57.6083 45.6195 57.925C45.3795 58.2383 45.1579 58.4833 44.9545 58.66C44.7512 58.8367 44.5579 58.9583 44.3745 59.025C44.1912 59.095 44.0062 59.13 43.8195 59.13C43.6062 59.13 43.4179 59.0867 43.2545 59C43.0945 58.9167 42.9695 58.7967 42.8795 58.64C42.7895 58.4833 42.7445 58.2983 42.7445 58.085C42.7445 57.735 42.8045 57.37 42.9245 56.99C43.0479 56.6067 43.2145 56.235 43.4245 55.875C43.6379 55.5117 43.8812 55.185 44.1545 54.895C44.4312 54.605 44.7245 54.3733 45.0345 54.2C45.3479 54.0267 45.6612 53.94 45.9745 53.94C46.1979 53.94 46.4079 54.0033 46.6045 54.13C46.8012 54.2533 46.9795 54.4533 47.1395 54.73L47.0445 54.93C46.9745 54.7967 46.8912 54.7 46.7945 54.64C46.6979 54.58 46.5845 54.55 46.4545 54.55C46.2745 54.55 46.0879 54.6217 45.8945 54.765C45.7045 54.905 45.5195 55.0917 45.3395 55.325C45.1595 55.5583 44.9979 55.8167 44.8545 56.1C44.7145 56.38 44.6012 56.6617 44.5145 56.945C44.4312 57.225 44.3895 57.4833 44.3895 57.72C44.3895 57.8867 44.4162 58.0017 44.4695 58.065C44.5262 58.1283 44.6162 58.16 44.7395 58.16C44.8195 58.16 44.9095 58.1383 45.0095 58.095C45.1129 58.0483 45.2279 57.9683 45.3545 57.855C45.4812 57.7417 45.6179 57.5867 45.7645 57.39C45.9145 57.1933 46.0745 56.945 46.2445 56.645L46.9695 54.6L47.2495 54.055H48.6045L47.1145 58.505L46.9645 58.275C47.0979 58.255 47.2395 58.21 47.3895 58.14C47.5395 58.07 47.6979 57.965 47.8645 57.825C48.0345 57.6817 48.2179 57.4983 48.4145 57.275L48.5045 57.35C48.1045 57.99 47.7112 58.4467 47.3245 58.72C46.9379 58.9933 46.5745 59.13 46.2345 59.13C46.0112 59.13 45.8545 59.0767 45.7645 58.97C45.6779 58.86 45.6645 58.7133 45.7245 58.53ZM53.0187 55.18C52.9387 54.9467 52.8403 54.7833 52.7237 54.69C52.6103 54.5933 52.4737 54.545 52.3137 54.545C52.1237 54.545 51.932 54.62 51.7387 54.77C51.5453 54.92 51.3603 55.1167 51.1837 55.36C51.007 55.6033 50.8487 55.8683 50.7087 56.155C50.5687 56.4383 50.4587 56.7183 50.3787 56.995C50.2987 57.2683 50.2587 57.51 50.2587 57.72C50.2587 57.8867 50.2853 58.0017 50.3387 58.065C50.3953 58.1283 50.4837 58.16 50.6037 58.16C50.6737 58.16 50.7503 58.1433 50.8337 58.11C50.9203 58.0733 51.0137 58.015 51.1137 57.935C51.2137 57.855 51.3187 57.7517 51.4287 57.625C51.542 57.4983 51.6603 57.345 51.7837 57.165C51.9103 56.9817 52.0387 56.77 52.1687 56.53L53.4187 52.885C53.3587 52.825 53.2887 52.7583 53.2087 52.685C53.1287 52.6083 53.0437 52.53 52.9537 52.45C52.8637 52.3667 52.7737 52.2867 52.6837 52.21L52.7187 52.065L55.2437 51.62H55.3437L53.0537 58.585L52.6487 58.315C52.7887 58.3183 52.942 58.295 53.1087 58.245C53.2787 58.195 53.4687 58.095 53.6787 57.945C53.8887 57.795 54.127 57.5717 54.3937 57.275L54.4837 57.35C54.077 57.98 53.6737 58.435 53.2737 58.715C52.8737 58.9917 52.502 59.13 52.1587 59.13C51.922 59.13 51.7587 59.0683 51.6687 58.945C51.5787 58.8217 51.5703 58.6467 51.6437 58.42L52.2137 56.7L52.2937 56.705C51.9803 57.225 51.6987 57.6467 51.4487 57.97C51.202 58.29 50.977 58.5333 50.7737 58.7C50.5703 58.8667 50.3803 58.98 50.2037 59.04C50.027 59.1 49.8553 59.13 49.6887 59.13C49.4753 59.13 49.287 59.0867 49.1237 59C48.9637 58.9167 48.8387 58.7967 48.7487 58.64C48.6587 58.4833 48.6137 58.2983 48.6137 58.085C48.6137 57.7417 48.6737 57.38 48.7937 57C48.9137 56.62 49.0787 56.25 49.2887 55.89C49.4987 55.5267 49.7403 55.1983 50.0137 54.905C50.287 54.6083 50.5787 54.3733 50.8887 54.2C51.202 54.0233 51.5203 53.935 51.8437 53.935C52.087 53.935 52.3137 54.0117 52.5237 54.165C52.737 54.3183 52.9287 54.5667 53.0987 54.91L53.0187 55.18ZM57.8107 54.26C57.6574 54.26 57.5074 54.315 57.3607 54.425C57.214 54.535 57.0757 54.685 56.9457 54.875C56.819 55.065 56.7057 55.2867 56.6057 55.54C56.509 55.79 56.4324 56.0583 56.3757 56.345C56.3224 56.6283 56.2957 56.9167 56.2957 57.21C56.2957 57.5433 56.3607 57.7867 56.4907 57.94C56.6207 58.0933 56.8174 58.17 57.0807 58.17C57.2707 58.17 57.4574 58.1383 57.6407 58.075C57.824 58.0117 58.0074 57.895 58.1907 57.725C58.3774 57.555 58.5624 57.3117 58.7457 56.995H58.8707C58.6474 57.575 58.4074 58.02 58.1507 58.33C57.894 58.6367 57.624 58.8467 57.3407 58.96C57.0607 59.0733 56.7624 59.13 56.4457 59.13C56.0657 59.13 55.7507 59.0617 55.5007 58.925C55.2507 58.785 55.064 58.5917 54.9407 58.345C54.8207 58.095 54.7607 57.8067 54.7607 57.48C54.7607 57.1533 54.8074 56.8233 54.9007 56.49C54.9974 56.1533 55.1357 55.8317 55.3157 55.525C55.499 55.2183 55.7224 54.945 55.9857 54.705C56.249 54.465 56.549 54.275 56.8857 54.135C57.2224 53.995 57.5924 53.925 57.9957 53.925C58.349 53.925 58.6257 53.97 58.8257 54.06C59.0257 54.1467 59.1657 54.2617 59.2457 54.405C59.329 54.5483 59.3707 54.7017 59.3707 54.865C59.3707 55.0383 59.3424 55.2083 59.2857 55.375C59.2324 55.5383 59.1524 55.6883 59.0457 55.825C58.8657 55.8983 58.6524 55.9767 58.4057 56.06C58.1624 56.14 57.9007 56.2217 57.6207 56.305C57.3407 56.385 57.054 56.465 56.7607 56.545C56.4707 56.625 56.1874 56.6983 55.9107 56.765L55.9407 56.525C56.3007 56.395 56.6074 56.2717 56.8607 56.155C57.114 56.0383 57.324 55.9233 57.4907 55.81C57.6574 55.6933 57.7874 55.5783 57.8807 55.465C57.974 55.3483 58.039 55.2283 58.0757 55.105C58.1157 54.9817 58.1357 54.8533 58.1357 54.72C58.1357 54.6133 58.1224 54.5267 58.0957 54.46C58.0724 54.39 58.0357 54.34 57.9857 54.31C57.939 54.2767 57.8807 54.26 57.8107 54.26ZM60.8232 55.1C60.8432 55.0367 60.8465 54.985 60.8332 54.945C60.8199 54.9017 60.7865 54.88 60.7332 54.88C60.6432 54.88 60.5449 54.9083 60.4382 54.965C60.3315 55.0217 60.2099 55.135 60.0732 55.305C59.9399 55.4717 59.7832 55.7233 59.6032 56.06L59.5032 56.015C59.7099 55.4817 59.9182 55.065 60.1282 54.765C60.3415 54.4617 60.5682 54.2483 60.8082 54.125C61.0482 54.0017 61.3165 53.94 61.6132 53.94C61.7365 53.94 61.8432 53.9433 61.9332 53.95C62.0265 53.9567 62.1182 53.97 62.2082 53.99C62.2982 54.0067 62.3982 54.0283 62.5082 54.055L61.6982 56.68V56.525C62.0149 55.8383 62.3049 55.3067 62.5682 54.93C62.8315 54.5533 63.0799 54.2917 63.3132 54.145C63.5499 53.9983 63.7782 53.925 63.9982 53.925C64.2415 53.925 64.4249 53.9867 64.5482 54.11C64.6715 54.2333 64.7332 54.4067 64.7332 54.63C64.7332 54.82 64.6899 54.99 64.6032 55.14C64.5199 55.29 64.4082 55.4083 64.2682 55.495C64.1315 55.5817 63.9782 55.625 63.8082 55.625C63.6849 55.625 63.5965 55.5967 63.5432 55.54C63.4899 55.48 63.4565 55.39 63.4432 55.27C63.4365 55.1467 63.4149 55.065 63.3782 55.025C63.3449 54.9817 63.2949 54.96 63.2282 54.96C63.1349 54.96 63.0332 54.995 62.9232 55.065C62.8165 55.1317 62.7049 55.235 62.5882 55.375C62.4715 55.5117 62.3532 55.6817 62.2332 55.885C62.1132 56.0883 61.9932 56.3233 61.8732 56.59C61.7565 56.8567 61.6415 57.1567 61.5282 57.49L61.0232 59H59.5332L60.8232 55.1Z" fill="#121212"/>
</svg>
