<svg width="24" height="24" viewBox="0 0 589 397" fill="none" xmlns="http://www.w3.org/2000/svg">
<path d="M418.893 169.704C399.663 180.598 380.92 191.25 361.448 201.903C343.679 162.199 326.154 123.222 308.385 83.0342C304.246 92.2339 300.839 100.223 297.188 108.454C280.635 146.221 264.084 183.745 247.532 221.513C241.203 236.038 234.631 250.564 228.059 265.089C227.328 266.784 225.869 268.479 224.408 269.205C184.976 286.878 145.543 304.793 103.92 316.898C85.1772 322.466 65.9477 326.823 46.2315 328.034C35.5214 328.76 25.0548 328.276 15.075 324.645C1.44402 319.802 -3.18077 309.635 2.17425 296.077C6.55564 285.183 14.3447 276.709 22.6207 268.72C43.5541 249.112 68.3818 235.554 93.94 223.449C108.788 216.428 124.123 210.375 139.214 203.839C139.457 204.324 139.701 204.566 139.701 205.05C138.241 205.776 137.024 206.503 135.563 207.228C113.656 217.397 92.7229 228.775 73.7369 243.785C67.6517 248.627 62.0532 254.437 56.9416 260.49C54.0207 263.879 51.0998 268.237 53.7772 273.078C56.2114 277.678 61.3229 278.162 65.9477 278.162C78.8485 278.647 91.2624 275.742 103.19 271.626C122.662 264.606 141.892 257.1 161.121 249.353C163.555 248.385 165.503 245.238 166.72 242.574C180.108 213.039 193.008 183.262 206.396 153.726C223.921 114.506 241.203 75.2872 258.729 36.0679C265.788 20.5738 275.524 7.98499 292.806 2.65885C317.634 -5.08817 342.219 4.35352 354.633 27.5946C362.665 42.6045 368.993 58.3406 376.052 74.0767C389.927 104.823 403.801 135.569 417.432 166.557C417.919 167.041 418.163 168.009 418.893 169.704Z" fill="white"/>
<path d="M435.412 112.126C461.179 101.18 486.703 91.6616 513.201 85.7126C525.841 82.8571 538.967 80.7155 552.095 79.5257C559.387 78.8118 567.409 79.5257 574.458 81.1914C586.856 84.0469 591.475 92.8514 587.1 104.749C583.453 114.981 576.646 123.31 569.354 131.401C549.177 153.294 525.355 171.14 500.802 188.035C482.571 200.647 463.61 212.545 444.893 224.442C438.572 228.488 438.572 228.25 441.732 235.152C463.61 282.981 485.245 330.572 507.123 378.403C509.554 383.876 512.228 389.586 514.902 395.536C512.957 395.536 511.498 395.773 510.283 395.773C489.377 395.773 468.471 395.773 447.567 395.773C443.676 395.773 442.219 394.347 440.76 391.252C421.555 348.42 402.352 305.825 383.147 263.23C382.904 262.517 382.175 261.803 381.689 260.85C291.259 311.061 197.427 354.131 101.893 396.25C102.865 394.108 103.108 392.68 103.837 391.491C112.831 371.74 121.583 351.99 130.82 332.477C132.035 330.097 134.223 327.718 136.655 326.766C187.46 304.635 238.751 283.457 288.099 258.709C337.203 233.962 386.794 209.69 433.71 181.134C455.102 168.046 475.765 153.531 496.184 139.015C503.476 133.781 509.068 126.642 515.145 120.217C517.09 118.075 518.305 115.219 519.278 112.602C520.737 108.081 519.278 104.036 514.416 102.37C510.527 100.942 506.394 99.9902 502.505 99.9902C481.355 99.2763 461.179 104.987 441.246 111.174C440.031 111.65 438.815 112.126 437.599 112.364C437.357 112.364 436.87 112.364 435.412 112.126Z" fill="#FBD506"/>
</svg>
