<svg width="24" height="24" viewBox="0 0 24 24" fill="none" xmlns="http://www.w3.org/2000/svg">
<path d="M20.603 12.5993C20.6637 12.5628 20.7946 12.449 20.7946 12.5719C20.7946 12.9089 20.7946 13.0045 20.7992 13.2641C20.7992 13.4325 20.7993 13.51 20.6638 13.6056C20.1918 13.9425 19.6171 14.3205 19.1405 14.6529C18.9069 14.8168 18.6546 14.9625 18.4116 15.1127C18.3555 15.1492 18.2995 15.1765 18.2434 15.2129C18.1032 15.2949 18.0378 15.2175 18.0285 15.0763C18.0144 14.7986 18.0144 14.5208 18.0285 14.243C18.0285 14.193 18.0425 14.1656 18.1639 14.0973C18.4957 13.9015 18.8135 13.7012 19.1405 13.5008C19.6265 13.2003 20.1217 12.9043 20.603 12.5993Z" fill="#E9B933"/>
<path fill-rule="evenodd" clip-rule="evenodd" d="M23 14.9579C23 15.7138 22.6869 16.3057 22.0655 16.7429C20.4348 17.8858 18.7948 19.0196 17.1594 20.1534C16.837 20.3765 16.5192 20.6224 16.1641 20.7772C15.2063 21.1961 14.225 21.2599 13.2251 20.8865C11.5243 20.2581 9.82355 19.6389 8.12276 19.015C6.20703 18.3138 4.29597 17.6171 2.38025 16.9204C2.00178 16.7838 1.66069 16.6063 1.4037 16.2921C1.14204 15.9825 1.01588 15.6227 1.01121 15.2266V9.64407C1.01121 9.6213 1.01118 9.59397 1.01585 9.55755C1.11865 9.59397 1.21679 9.62584 1.31492 9.66227C1.68404 9.78977 2.0485 9.91725 2.42229 10.0402C2.51574 10.0721 2.5531 10.1085 2.54843 10.2132C2.54376 10.6868 2.54376 11.1558 2.54843 11.6294C2.5531 11.9162 2.58116 12.2031 2.71666 12.4672C2.95496 12.918 3.4736 13.1684 4.02962 13.1092C4.71181 13.0318 5.13703 12.5993 5.16506 11.9299C5.17908 11.6248 5.16506 11.3152 5.16506 10.9873C5.40336 11.0647 5.60897 11.133 5.80988 11.2059C7.10883 11.6612 8.40777 12.1211 9.70672 12.5719C9.78615 12.5992 9.80484 12.6402 9.80484 12.7131C9.80484 13.1684 9.7955 13.6238 9.80484 14.0791C9.80952 14.3022 9.8282 14.5299 9.8796 14.7485C10.0058 15.2585 10.4497 15.6 10.9917 15.6318C11.4355 15.6592 11.8374 15.5818 12.1504 15.2448C12.4214 14.9579 12.4869 14.6028 12.5009 14.2339C12.5055 14.0199 12.5009 13.8105 12.5009 13.5828C12.7672 13.6648 13.0195 13.7513 13.2765 13.8241C14.0195 14.0336 14.767 14.0563 15.4819 13.733C15.9118 13.5372 16.3183 13.2777 16.7248 13.0364C18.7714 11.8388 20.8133 10.6413 22.8598 9.44372C22.8925 9.42551 22.9252 9.40729 22.9766 9.37997L23 9.3663V14.9579ZM6.39393 16.6473C6.179 16.5835 6.04815 16.6928 6.05282 16.9113C6.05282 17.0662 6.12759 17.1891 6.24907 17.2802C6.34718 17.3485 6.45466 17.4031 6.56212 17.4486C7.01068 17.6262 7.44992 17.8038 7.91717 17.9814C8.09005 18.0497 8.27695 18.0953 8.45917 18.1317C8.61804 18.1636 8.74885 18.077 8.81427 17.9359C8.875 17.7993 8.85166 17.6445 8.72084 17.5488C8.65543 17.4988 8.56197 17.4669 8.48254 17.435C8.02931 17.2529 7.56672 17.089 7.10881 16.9159C6.87052 16.8249 6.6369 16.7201 6.39393 16.6473ZM6.38459 15.2175C6.15097 15.1401 6.01077 15.2676 6.04348 15.5089C6.07152 15.7047 6.179 15.8367 6.36122 15.905C7.01537 16.1464 7.67419 16.3832 8.32834 16.62C8.38441 16.6382 8.44048 16.6427 8.46851 16.6473V16.6518C8.64139 16.6518 8.75355 16.5835 8.80962 16.4606C8.86102 16.3422 8.84229 16.1874 8.72548 16.0963C8.59933 16.0007 8.46382 15.946 8.31431 15.8914C7.67418 15.6592 7.02939 15.436 6.38459 15.2175ZM21.3973 11.3425C21.2478 11.2742 21.117 11.3152 20.9862 11.4017C20.3787 11.8115 19.7713 12.2259 19.1499 12.6129C18.6312 12.9362 18.0939 13.2322 17.5612 13.5418C17.3323 13.6739 17.2014 13.8742 17.1967 14.1338C17.1921 14.5071 17.1874 14.8805 17.2061 15.2493C17.2248 15.6546 17.4958 15.9506 17.8743 16.0052C18.1312 16.0417 18.3836 16.0189 18.6079 15.8959C18.8789 15.7502 19.1499 15.5999 19.4022 15.4269C19.9816 15.0308 20.5516 14.6255 21.1123 14.2157C21.4814 13.9471 21.6403 13.5874 21.6403 13.1184C21.6403 12.9089 21.631 12.7586 21.631 12.5491V11.7022C21.631 11.5474 21.5468 11.4153 21.3973 11.3425ZM6.48272 13.7877C6.25844 13.7194 6.07617 13.8241 6.0715 14.0245C6.0715 14.2476 6.15564 14.4115 6.35188 14.4843C6.94529 14.7075 7.5527 14.9033 8.15077 15.1127C8.25823 15.1492 8.40775 15.2038 8.48719 15.2129H8.49657C8.68813 15.2311 8.79558 15.1401 8.83764 14.9898C8.87034 14.8623 8.8797 14.7439 8.77691 14.6483C8.70215 14.58 8.56196 14.5117 8.46851 14.4707C8.10406 14.3114 7.70221 14.1838 7.32374 14.0518C7.0434 13.9516 6.76773 13.8742 6.48272 13.7877Z" fill="#E9B933"/>
<path d="M10.6506 11.9025C10.6739 11.8798 10.6973 11.8752 10.73 11.8843C11.029 11.9845 11.3141 12.0847 11.5523 12.1849C11.5897 12.1986 11.6318 12.2441 11.6318 12.3033V14.2931C11.6318 14.3614 11.6178 14.4297 11.6038 14.498C11.5524 14.7348 11.3608 14.8805 11.1178 14.876C10.8702 14.8714 10.6973 14.7211 10.6552 14.4752C10.6459 14.4115 10.6366 14.3432 10.6366 14.2795V11.9481H10.6319C10.632 11.9475 10.6367 11.9116 10.6506 11.9025Z" fill="#E9B933"/>
<path fill-rule="evenodd" clip-rule="evenodd" d="M8.03862 3.97505C8.59932 3.70184 9.19742 3.6654 9.7955 3.802C11.2113 4.12074 12.6224 4.45316 14.0335 4.79012C16.5706 5.39572 19.1031 6.00584 21.6403 6.61145C22.6028 6.83912 23.0233 7.63143 22.9953 8.41006C22.9953 8.45559 22.9393 8.51481 22.8925 8.54213C22.1403 8.97926 21.3833 9.40273 20.6357 9.84442C19.0377 10.787 17.4257 11.7159 15.8511 12.6949C15.0147 13.214 14.1736 13.2732 13.2625 12.9772C13.0522 12.9089 12.842 12.8315 12.6317 12.7677C12.5429 12.7404 12.5196 12.6949 12.5242 12.6084C12.5289 12.4399 12.5242 12.2714 12.5242 12.1029C12.5242 11.7887 12.4074 11.6157 12.0944 11.511C11.7486 11.3971 11.3982 11.297 11.0477 11.1923C10.9356 11.1604 10.8235 11.1239 10.7113 11.0966C10.3095 10.9919 9.89832 11.256 9.84224 11.6612C9.83757 11.7022 9.82822 11.7387 9.81887 11.7842V11.7796C9.16005 11.5474 8.51055 11.3152 7.8564 11.0875C7.01069 10.7915 6.16497 10.4956 5.31926 10.2041C5.22581 10.1723 5.18376 10.1358 5.18843 10.0311C5.19777 9.88994 5.1884 9.74424 5.16971 9.60309C5.14635 9.39364 5.0389 9.24791 4.82864 9.17505C4.40345 9.02934 3.9829 8.87907 3.56238 8.72881C3.3895 8.66506 3.21193 8.64232 3.02971 8.6924C2.76339 8.76981 2.60452 8.95194 2.55312 9.2479C2.30081 9.16139 2.05317 9.07942 1.80553 8.9929C1.56256 8.91094 1.32424 8.82897 1.08127 8.73791C1.04856 8.72423 1.00652 8.67417 1.00651 8.63775C0.983152 7.84091 1.33826 7.24439 2.05781 6.88922C4.04829 5.90568 6.04347 4.94493 8.03862 3.97505ZM3.97824 6.98032C3.77265 6.92112 3.57638 7.02585 3.51564 7.21254C3.45958 7.40378 3.56706 7.58137 3.78199 7.64511C6.81912 8.56035 9.8516 9.47557 12.8887 10.3908C13.3933 10.5411 13.898 10.7005 14.4026 10.8507C14.6498 10.9235 14.8736 10.7648 14.8791 10.5241C14.8777 10.3575 14.7749 10.2492 14.5474 10.1768C12.2532 9.48012 9.95435 8.77889 7.66015 8.08221C6.43129 7.70883 5.2071 7.34459 3.97824 6.98032ZM6.03879 5.76908C5.73509 5.7691 5.55288 6.05139 5.67436 6.2745C5.74444 6.40655 5.87526 6.43845 6.00608 6.47033C9.07592 7.31271 12.1458 8.15964 15.2156 9.00658C15.753 9.15228 16.2903 9.30709 16.8276 9.45735C17.0472 9.51654 17.2341 9.42548 17.2995 9.22513C17.3556 9.043 17.2528 8.88363 17.0239 8.81533C16.851 8.76524 16.6781 8.71972 16.5052 8.66963C13.1737 7.74528 9.83753 6.81636 6.50604 5.89201C6.34251 5.84648 6.17431 5.80551 6.04348 5.76908H6.03879ZM8.69747 4.5943C8.63205 4.57608 8.55728 4.56244 8.48719 4.56699C8.31899 4.58977 8.18351 4.74003 8.17883 4.89484C8.1695 5.05876 8.2863 5.1908 8.49188 5.24089C11.4776 6.01497 14.4633 6.79361 17.4491 7.56769C18.1406 7.74527 18.8274 7.92742 19.5143 8.10956C19.7666 8.17786 20.0003 8.01847 20.0003 7.77714H20.0049C20.0049 7.62688 19.9068 7.50393 19.7246 7.45839C19.1639 7.31268 18.6032 7.17153 18.0425 7.02582C14.9259 6.21531 11.814 5.40481 8.69747 4.5943Z" fill="#E9B933"/>
<path d="M3.35679 9.67594C3.35679 9.53479 3.37549 9.52569 3.51099 9.57122C3.75863 9.65318 4.0016 9.73971 4.24924 9.81712C4.324 9.83988 4.35206 9.87631 4.35206 9.95372V11.7978C4.35206 12.1393 4.17449 12.3352 3.87078 12.3443C3.56707 12.3534 3.35682 12.153 3.35214 11.8479V10.7551H3.35679V9.67594Z" fill="#E9B933"/>
</svg>
