<svg width="24" height="24" viewBox="0 0 24 24" fill="none" xmlns="http://www.w3.org/2000/svg">
<g clip-path="url(#clip0_23966_30991)">
<path d="M5.80762 6.60949L15.9894 7.91895L23.9786 4.41436L4.46219 5.41396L5.80762 6.60949Z" fill="#FF6E48"/>
<path d="M4.46219 5.41396L23.9786 4.41436C23.9786 4.41436 13.8213 5.04933 13.1946 5.05013C12.561 5.04399 4.46219 5.41396 4.46219 5.41396Z" fill="#FF6E48"/>
<path d="M13.3923 4.95605L12.4959 5.00197L11.3867 7.32669L11.3883 7.32731L12.9577 7.52915L13.3923 4.95605Z" fill="#FF6E48"/>
<path d="M17.1419 15.4848L6.94238 16.6534L0.0278105 21.9456L18.7445 16.3459L17.1419 15.4848Z" fill="#FF6E48"/>
<path d="M6.93899 16.6527L17.1385 15.4771C17.1385 15.4771 13.7286 15.9748 12.0368 16.151C10.345 16.3272 6.93899 16.6527 6.93899 16.6527Z" fill="#FF6E48"/>
<path d="M10.0198 16.3001L5.96094 20.167L13.1253 15.9443L10.0198 16.3001Z" fill="#FF6E48"/>
<path d="M18.7522 16.3454L16.8103 11.5588L16.1843 12.1095L17.1496 15.4773L18.7522 16.3454Z" fill="#FF6E48"/>
<path d="M5.81029 6.61059L4.46484 5.41504L5.5818 13.0358L6.0406 12.4296L5.81029 6.61059Z" fill="#FF6E48"/>
<path d="M6.05823 20.1341L23.9751 4.40747L15.9859 7.91902L5.95383 20.169L6.05823 20.1341Z" fill="#FF6E48"/>
<path d="M16.2309 7.81574L23.9767 4.41582C23.9767 4.41582 19.9819 6.08461 19.5435 6.28704C19.105 6.48947 16.2309 7.81574 16.2309 7.81574Z" fill="#FF6E48"/>
<path d="M15.9928 7.91833C16.6399 7.58337 17.2941 7.27625 17.9552 6.96912C18.2823 6.81556 18.6163 6.66895 18.9434 6.51539L19.9386 6.06861L20.9407 5.63575C21.2748 5.4961 21.6088 5.34949 21.9429 5.20984C22.618 4.93054 23.2861 4.6582 23.9751 4.40672C23.328 4.74168 22.6738 5.0488 22.0127 5.35593C21.6856 5.50949 21.3516 5.6561 21.0245 5.80966L20.0293 6.25644L19.0272 6.6893C18.6931 6.82895 18.3591 6.97556 18.025 7.11521C17.3499 7.39451 16.6749 7.66686 15.9928 7.91833Z" fill="#FF6E48"/>
<path d="M13.9193 2.06804L0.025536 21.9451L6.94011 16.6529L13.9193 2.06804Z" fill="#FF6E48"/>
<path d="M17.1406 15.4844C17.28 15.5468 17.4193 15.6093 17.5517 15.6788C17.6911 15.7482 17.8235 15.8176 17.9558 15.8871C18.0882 15.9565 18.2206 16.0329 18.353 16.1093L18.5482 16.2274C18.6109 16.2691 18.6806 16.3107 18.7433 16.3524C18.6736 16.3247 18.6039 16.29 18.5343 16.2622L18.3322 16.165C18.1929 16.0956 18.0605 16.0261 17.9281 15.9567C17.7957 15.8873 17.6633 15.8109 17.5309 15.7345C17.3985 15.6441 17.2661 15.5677 17.1406 15.4844Z" fill="#FF6E48"/>
<path d="M4.46484 5.41504C4.58334 5.50538 4.70183 5.59572 4.82033 5.69302C4.93883 5.79032 5.05037 5.88763 5.1619 5.98494C5.27344 6.08225 5.38499 6.18652 5.48957 6.2908L5.64993 6.45069C5.69874 6.50632 5.75451 6.55497 5.81029 6.61059C5.74757 6.5689 5.6918 6.52025 5.62907 6.4716L5.45481 6.33261C5.33631 6.23531 5.22477 6.138 5.11323 6.04069C5.00169 5.94338 4.89015 5.83911 4.78557 5.73483C4.67402 5.63056 4.56944 5.52628 4.46484 5.41504Z" fill="#FF6E48"/>
<path d="M0.0263248 21.9454C0.575813 21.4714 1.13925 21.0112 1.70269 20.5581C1.98789 20.328 2.27309 20.1049 2.5583 19.8818L3.42088 19.2124L4.29045 18.5569C4.58263 18.3408 4.87481 18.1246 5.16699 17.9085C5.75136 17.4831 6.34269 17.0577 6.94797 16.6532C6.39848 17.1272 5.83505 17.5874 5.27161 18.0406C4.98641 18.2707 4.7012 18.4938 4.416 18.7169L3.5534 19.3793L2.67688 20.0417C2.3847 20.2579 2.09252 20.474 1.80034 20.6902C1.21598 21.1156 0.631609 21.5409 0.0263248 21.9454Z" fill="#FF6E48"/>
</g>
<defs>
<clipPath id="clip0_23966_30991">
<rect width="24" height="24" fill="white"/>
</clipPath>
</defs>
</svg>
