<?xml version="1.0" encoding="utf-8"?>
<!-- Generator: Adobe Illustrator 16.0.0, SVG Export Plug-In . SVG Version: 6.00 Build 0)  -->
<!DOCTYPE svg PUBLIC "-//W3C//DTD SVG 1.1//EN" "http://www.w3.org/Graphics/SVG/1.1/DTD/svg11.dtd">
<svg version="1.1" id="图层_1" xmlns="http://www.w3.org/2000/svg" xmlns:xlink="http://www.w3.org/1999/xlink" x="0px" y="0px"
	 width="24px" height="24px" viewBox="0 0 24 24" enable-background="new 0 0 24 24" xml:space="preserve">
<path fill="#FFCC00" d="M13.342,2.999c-0.456,0.396-1.05,0.971-1.641,1.742c-0.913,1.192-1.161,1.553-1.17,1.584l0.055,0.396
	c-0.029,0.252-0.197,0.924-0.634,1.593C9.406,9.148,8.806,9.587,8.538,9.68c-0.214,0.074-0.352,0.505-0.394,0.71l0.25,0.235
	l0.021,0.08l-0.295,0.684l0.061,0.222c-0.175,0.436-0.496,1.629-0.379,2.928c0.147,1.623,0.664,3.234,2.083,4.736
	c0.566,0.598,1.178,1.063,1.714,1.398c-0.767,0.213-1.552,0.328-2.333,0.328c-4.185,0-6.688-3.273-5.59-7.313l2.589-9.521
	L13.342,2.999z M18.218,3.58c0.063,0.02,0.149,0.038,0.258,0.047l2.943,0.542l-2.588,9.521c-0.845,3.107-3.577,5.76-6.697,6.818
	c-0.365-0.477-0.748-1.094-0.955-1.77c-0.459-1.498-0.62-2.879-0.061-4.453c0.447-1.258,1.272-2.538,1.63-3.022l0.114-0.073
	l0.204-0.228c0.077,0.023,0.285,0.006,0.495-0.239c0.263-0.308,0.39-0.427,0.288-0.508c-0.104-0.081-0.906-0.3-1.075-0.923
	c-0.169-0.625-0.167-1.597,1.628-2.051c-0.082-0.302,0.017-0.825,0.432-1.259s0.934-0.679,1.276-0.791s0.302-0.167,0.419-0.521
	c0.117-0.355,0.402-0.776,1.043-0.968c0.3-0.089,0.452-0.13,0.522-0.146L18.218,3.58z"/>
</svg>
