<svg width="40" height="40" viewBox="0 0 40 40" fill="none" xmlns="http://www.w3.org/2000/svg">
<path d="M20.9088 0.395127C20.7268 0.203278 20.3991 0.203393 20.217 0.395204C19.0007 1.67642 14.648 5.42079 8.14571 1.66093C7.97166 1.56028 7.74431 1.59601 7.6186 1.75292L3.93521 6.35049C3.82518 6.48783 3.8161 6.67888 3.91204 6.8264C4.51753 7.75741 6.61274 11.1341 6.61274 13.2804C6.61274 14.0089 6.27743 23.7306 6.27743 23.7306C6.27743 30.0452 8.92771 33.66 13.9857 35.6623C15.6954 36.3391 16.6941 36.7751 17.5938 37.3764C18.3199 37.8616 19.6988 39.165 20.2869 39.7313C20.4423 39.8809 20.6872 39.8829 20.845 39.7357C21.442 39.1788 22.8447 37.8934 23.6183 37.3764C24.5181 36.7751 25.5168 36.3391 27.2264 35.6623C32.2845 33.66 34.9347 30.0452 34.9347 23.7306C34.9347 23.7306 34.5999 14.0089 34.5999 13.2804C34.5999 11.1401 36.7104 7.80616 37.3306 6.87271C37.4302 6.7228 37.4205 6.52637 37.3057 6.38777L33.2995 1.55149C33.1728 1.39858 32.9484 1.36522 32.7766 1.46481C26.298 5.22075 22.0958 1.64595 20.9088 0.395127Z" fill="#0D91EC"/>
<path d="M13.949 23.9511C13.2331 23.9511 12.5865 23.8258 12.0093 23.5753C11.4365 23.3202 10.9645 22.9578 10.5931 22.4879C10.2827 22.0867 10.0684 21.6215 9.9501 21.0922C9.9139 20.9302 10.0284 20.7768 10.1926 20.7525L11.5302 20.5547C11.6837 20.532 11.8271 20.631 11.8788 20.7773C12.0303 21.2062 12.2819 21.546 12.6335 21.7966C13.0541 22.0964 13.5329 22.2463 14.0699 22.2463C14.3697 22.2463 14.6605 22.1993 14.9424 22.1053C15.2243 22.0114 15.4548 21.8727 15.6337 21.6892C15.8172 21.5057 15.9089 21.2798 15.9089 21.0113C15.9089 20.9129 15.8933 20.8189 15.8619 20.7294C15.8351 20.6354 15.7881 20.5482 15.721 20.4676C15.6539 20.3871 15.5577 20.311 15.4324 20.2394C15.3116 20.1678 15.1572 20.1029 14.9693 20.0448L12.459 19.3065C12.2711 19.2528 12.0518 19.1767 11.8012 19.0783C11.5551 18.9798 11.3157 18.8389 11.083 18.6554C10.8504 18.4719 10.6557 18.2303 10.4991 17.9305C10.347 17.6262 10.2709 17.2437 10.2709 16.7828C10.2709 16.1339 10.4342 15.5947 10.7609 15.1652C11.0875 14.7356 11.5238 14.4157 12.0697 14.2054C12.6156 13.9951 13.2197 13.8921 13.8819 13.8966C14.5486 13.9056 15.1438 14.0197 15.6673 14.2389C16.1908 14.4582 16.6293 14.7781 16.9828 15.1987C17.2735 15.5409 17.4976 15.9466 17.6552 16.4158C17.7111 16.5825 17.5992 16.7544 17.4259 16.7838L16.0543 17.0171C15.8974 17.0438 15.7497 16.942 15.6929 16.7934C15.6175 16.5959 15.5128 16.4223 15.3787 16.2727C15.1863 16.0579 14.9558 15.8945 14.6874 15.7827C14.4234 15.6708 14.1459 15.6104 13.8551 15.6015C13.5687 15.5925 13.298 15.6328 13.0429 15.7223C12.7923 15.8073 12.5865 15.9326 12.4254 16.0981C12.2688 16.2637 12.1905 16.4606 12.1905 16.6888C12.1905 16.8991 12.2554 17.0714 12.3852 17.2056C12.5149 17.3354 12.6782 17.4405 12.8751 17.5211C13.072 17.6016 13.2734 17.6687 13.4792 17.7224L15.1572 18.1789C15.4078 18.246 15.6852 18.3355 15.9895 18.4473C16.2938 18.5547 16.5846 18.7069 16.862 18.9037C17.1439 19.0962 17.3744 19.3512 17.5534 19.6689C17.7368 19.9866 17.8286 20.3893 17.8286 20.8771C17.8286 21.3961 17.7189 21.8503 17.4997 22.2396C17.2849 22.6244 16.994 22.9443 16.6271 23.1994C16.2602 23.45 15.8441 23.6379 15.3787 23.7632C14.9178 23.8885 14.4413 23.9511 13.949 23.9511Z" fill="white"/>
<path d="M19.7381 23.7498C19.5724 23.7498 19.4381 23.6155 19.4381 23.4498V14.3846C19.4381 14.2189 19.5724 14.0846 19.7381 14.0846H20.9637C21.1294 14.0846 21.2637 14.2189 21.2637 14.3846V23.4498C21.2637 23.6155 21.1294 23.7498 20.9637 23.7498H19.7381Z" fill="white"/>
<path d="M23.5759 23.7498C23.4102 23.7498 23.2759 23.6155 23.2759 23.4498V14.3846C23.2759 14.2189 23.4102 14.0846 23.5759 14.0846H24.8016C24.9673 14.0846 25.1016 14.2189 25.1016 14.3846V18.058H29.4241V14.3846C29.4241 14.2189 29.5584 14.0846 29.7241 14.0846H30.9497C31.1154 14.0846 31.2497 14.2189 31.2497 14.3846V23.4498C31.2497 23.6155 31.1154 23.7498 30.9497 23.7498H29.7241C29.5584 23.7498 29.4241 23.6155 29.4241 23.4498V19.7629H25.1016V23.4498C25.1016 23.6155 24.9673 23.7498 24.8016 23.7498H23.5759Z" fill="white"/>
</svg>
