<svg width="100" height="25" viewBox="0 0 2597 634" fill="none" xmlns="http://www.w3.org/2000/svg">
<path d="M441.535 282.918C422.306 293.812 403.563 304.465 384.09 315.117C366.321 275.413 348.796 236.436 331.027 196.248C326.889 205.448 323.482 213.437 319.83 221.668C303.278 259.435 286.727 296.96 270.175 334.727C263.846 349.252 257.274 363.778 250.702 378.304C249.971 379.998 248.511 381.693 247.051 382.42C207.618 400.092 168.186 418.007 126.562 430.112C107.82 435.68 88.5903 440.038 68.8741 441.248C58.164 441.974 47.6974 441.49 37.7176 437.859C24.0866 433.016 19.4618 422.849 24.8168 409.292C29.1982 398.397 36.9873 389.924 45.2633 381.935C66.1966 362.326 91.0244 348.768 116.583 336.663C131.431 329.642 146.766 323.59 161.857 317.053C162.1 317.538 162.344 317.78 162.344 318.264C160.883 318.99 159.666 319.717 158.206 320.442C136.298 330.611 115.365 341.989 96.3795 356.999C90.2942 361.841 84.6958 367.651 79.5842 373.704C76.6633 377.093 73.7424 381.451 76.4198 386.293C78.854 390.892 83.9655 391.376 88.5903 391.376C101.491 391.861 113.905 388.956 125.832 384.84C145.305 377.82 164.535 370.315 183.763 362.568C186.198 361.599 188.146 358.452 189.362 355.788C202.75 326.253 215.651 296.476 229.039 266.94C246.564 227.72 263.846 188.501 281.372 149.282C288.431 133.788 298.167 121.199 315.449 115.873C340.277 108.126 364.862 117.568 377.275 140.809C385.308 155.819 391.636 171.555 398.695 187.291C412.569 218.037 426.444 248.783 440.075 279.771C440.562 280.255 440.806 281.224 441.535 282.918Z" fill="white"/>
<path d="M458.054 225.34C483.822 214.394 509.346 204.876 535.843 198.927C548.484 196.071 561.61 193.93 574.737 192.74C582.03 192.026 590.052 192.74 597.101 194.406C609.499 197.261 614.118 206.066 609.742 217.964C606.096 228.196 599.289 236.525 591.997 244.615C571.82 266.508 547.997 284.354 523.445 301.249C505.214 313.862 486.252 325.76 467.535 337.657C461.215 341.702 461.215 341.465 464.375 348.366C486.252 396.195 507.888 443.787 529.765 491.617C532.197 497.091 534.871 502.801 537.545 508.75C535.6 508.75 534.141 508.988 532.926 508.988C512.02 508.988 491.114 508.988 470.209 508.988C466.319 508.988 464.861 507.561 463.402 504.466C444.198 461.634 424.995 419.039 405.79 376.445C405.546 375.731 404.817 375.017 404.331 374.064C313.902 424.275 220.07 467.345 124.535 509.464C125.508 507.322 125.751 505.894 126.48 504.705C135.474 484.955 144.226 465.204 153.463 445.691C154.678 443.311 156.866 440.932 159.297 439.98C210.102 417.849 261.394 396.671 310.742 371.923C359.845 347.176 409.437 322.904 456.353 294.349C477.745 281.261 498.407 266.746 518.827 252.23C526.119 246.995 531.711 239.856 537.787 233.431C539.733 231.289 540.948 228.433 541.92 225.816C543.379 221.295 541.92 217.25 537.059 215.584C533.169 214.156 529.036 213.204 525.147 213.204C503.998 212.491 483.822 218.202 463.889 224.389C462.673 224.864 461.457 225.34 460.242 225.578C459.999 225.578 459.513 225.578 458.054 225.34Z" fill="#FBD506"/>
<path d="M771.363 408.281V313.035C771.363 306.037 770.19 299.992 767.843 294.902C765.497 289.812 761.916 285.868 757.1 283.068C752.284 280.269 746.171 278.869 738.762 278.869C732.217 278.869 726.475 280.014 721.535 282.305C716.719 284.595 713.015 287.84 710.422 292.039C707.828 296.111 706.532 300.819 706.532 306.164H657.446C657.446 297.638 659.421 289.558 663.373 281.923C667.325 274.161 672.943 267.289 680.229 261.308C687.638 255.201 696.468 250.429 706.717 246.993C717.09 243.557 728.698 241.839 741.54 241.839C756.729 241.839 770.251 244.512 782.106 249.856C794.084 255.073 803.469 262.963 810.261 273.524C817.176 284.086 820.634 297.384 820.634 313.417V403.51C820.634 413.817 821.252 422.661 822.486 430.041C823.845 437.294 825.821 443.593 828.414 448.938V452.183H778.587C776.24 446.965 774.45 440.348 773.215 432.332C771.98 424.188 771.363 416.171 771.363 408.281ZM778.216 326.397L778.587 356.364H747.653C739.997 356.364 733.267 357.191 727.463 358.845C721.659 360.372 716.905 362.663 713.2 365.717C709.495 368.643 706.717 372.206 704.865 376.406C703.012 380.478 702.086 385.122 702.086 390.339C702.086 395.429 703.198 400.01 705.42 404.082C707.767 408.154 711.101 411.399 715.423 413.817C719.868 416.107 725.055 417.253 730.982 417.253C739.626 417.253 747.159 415.471 753.58 411.908C760.002 408.218 765.003 403.764 768.584 398.547C772.165 393.33 774.079 388.367 774.326 383.659L788.404 405.418C786.675 410.636 784.082 416.171 780.624 422.024C777.167 427.878 772.721 433.35 767.288 438.44C761.854 443.53 755.309 447.729 747.653 451.037C739.997 454.346 731.106 456 720.98 456C708.014 456 696.406 453.328 686.156 447.983C675.907 442.639 667.818 435.322 661.891 426.033C655.964 416.744 653 406.182 653 394.348C653 383.404 654.976 373.733 658.927 365.335C662.879 356.936 668.745 349.874 676.524 344.148C684.304 338.294 693.936 333.904 705.42 330.978C717.028 327.924 730.303 326.397 745.245 326.397H778.216Z" fill="white"/>
<path d="M928.253 414.008L974.932 245.657H1026.06L957.335 452.183H926.216L928.253 414.008ZM894.171 245.657L941.405 414.389L943.072 452.183H911.768L842.862 245.657H894.171Z" fill="white"/>
<path d="M1159.24 408.281V313.035C1159.24 306.037 1158.06 299.992 1155.72 294.902C1153.37 289.812 1149.79 285.868 1144.97 283.068C1140.16 280.269 1134.05 278.869 1126.64 278.869C1120.09 278.869 1114.35 280.014 1109.41 282.305C1104.59 284.595 1100.89 287.84 1098.3 292.039C1095.7 296.111 1094.41 300.819 1094.41 306.164H1045.32C1045.32 297.638 1047.3 289.558 1051.25 281.923C1055.2 274.161 1060.82 267.289 1068.1 261.308C1075.51 255.201 1084.34 250.429 1094.59 246.993C1104.96 243.557 1116.57 241.839 1129.41 241.839C1144.6 241.839 1158.13 244.512 1169.98 249.856C1181.96 255.073 1191.34 262.963 1198.14 273.524C1205.05 284.086 1208.51 297.384 1208.51 313.417V403.51C1208.51 413.817 1209.13 422.661 1210.36 430.041C1211.72 437.294 1213.69 443.593 1216.29 448.938V452.183H1166.46C1164.11 446.965 1162.32 440.348 1161.09 432.332C1159.85 424.188 1159.24 416.171 1159.24 408.281ZM1166.09 326.397L1166.46 356.364H1135.53C1127.87 356.364 1121.14 357.191 1115.34 358.845C1109.53 360.372 1104.78 362.663 1101.07 365.717C1097.37 368.643 1094.59 372.206 1092.74 376.406C1090.89 380.478 1089.96 385.122 1089.96 390.339C1089.96 395.429 1091.07 400.01 1093.29 404.082C1095.64 408.154 1098.97 411.399 1103.3 413.817C1107.74 416.107 1112.93 417.253 1118.86 417.253C1127.5 417.253 1135.03 415.471 1141.45 411.908C1147.88 408.218 1152.88 403.764 1156.46 398.547C1160.04 393.33 1161.95 388.367 1162.2 383.659L1176.28 405.418C1174.55 410.636 1171.96 416.171 1168.5 422.024C1165.04 427.878 1160.59 433.35 1155.16 438.44C1149.73 443.53 1143.18 447.729 1135.53 451.037C1127.87 454.346 1118.98 456 1108.85 456C1095.89 456 1084.28 453.328 1074.03 447.983C1063.78 442.639 1055.69 435.322 1049.76 426.033C1043.84 416.744 1040.87 406.182 1040.87 394.348C1040.87 383.404 1042.85 373.733 1046.8 365.335C1050.75 356.936 1056.62 349.874 1064.4 344.148C1072.18 338.294 1081.81 333.904 1093.29 330.978C1104.9 327.924 1118.18 326.397 1133.12 326.397H1166.09Z" fill="white"/>
<path d="M1300.57 289.749V452.183H1251.67V245.657H1297.6L1300.57 289.749ZM1292.79 341.476H1278.34C1278.46 326.46 1280.44 312.844 1284.27 300.629C1288.1 288.413 1293.47 277.915 1300.38 269.134C1307.42 260.354 1315.76 253.61 1325.39 248.902C1335.02 244.193 1345.76 241.839 1357.62 241.839C1367.25 241.839 1375.96 243.239 1383.74 246.039C1391.52 248.838 1398.18 253.292 1403.74 259.4C1409.42 265.508 1413.74 273.524 1416.71 283.45C1419.79 293.248 1421.34 305.337 1421.34 319.716V452.183H1372.07V319.334C1372.07 309.918 1370.71 302.474 1367.99 297.002C1365.4 291.53 1361.57 287.649 1356.51 285.359C1351.57 283.068 1345.46 281.923 1338.17 281.923C1330.64 281.923 1324.03 283.513 1318.35 286.695C1312.79 289.749 1308.1 294.012 1304.27 299.483C1300.57 304.955 1297.73 311.254 1295.75 318.38C1293.78 325.506 1292.79 333.204 1292.79 341.476Z" fill="white"/>
<path d="M1492.47 288.413V452.183H1470.24V245.657H1491.54L1492.47 288.413ZM1488.39 336.131L1477.65 330.405C1478.39 318.189 1480.61 306.737 1484.32 296.048C1488.15 285.359 1493.46 275.942 1500.25 267.798C1507.04 259.654 1515.19 253.292 1524.7 248.711C1534.21 244.13 1545.01 241.839 1557.11 241.839C1566.87 241.839 1575.7 243.239 1583.6 246.039C1591.63 248.711 1598.42 252.974 1603.98 258.827C1609.66 264.553 1614.04 272.061 1617.13 281.35C1620.21 290.639 1621.76 301.774 1621.76 314.753V452.183H1599.72V315.517C1599.72 301.774 1597.62 291.021 1593.42 283.259C1589.34 275.497 1583.6 269.961 1576.19 266.653C1568.91 263.344 1560.45 261.69 1550.81 261.69C1539.45 261.69 1529.82 264.108 1521.92 268.943C1514.14 273.652 1507.78 279.823 1502.84 287.458C1498.02 294.966 1494.44 303.046 1492.1 311.699C1489.75 320.225 1488.52 328.369 1488.39 336.131ZM1621.57 318.189L1606.75 318.571C1607.37 308.518 1609.59 298.911 1613.42 289.749C1617.37 280.587 1622.75 272.443 1629.54 265.317C1636.33 258.064 1644.42 252.337 1653.8 248.138C1663.31 243.939 1673.99 241.839 1685.85 241.839C1696.22 241.839 1705.48 243.303 1713.63 246.229C1721.78 249.029 1728.64 253.546 1734.19 259.781C1739.87 265.889 1744.2 273.715 1747.16 283.259C1750.12 292.803 1751.61 304.255 1751.61 317.616V452.183H1729.38V317.425C1729.38 302.792 1727.28 291.467 1723.08 283.45C1719 275.306 1713.32 269.643 1706.04 266.462C1698.75 263.281 1690.23 261.69 1680.48 261.69C1670.84 261.817 1662.39 263.663 1655.1 267.226C1647.81 270.661 1641.7 275.242 1636.76 280.969C1631.95 286.567 1628.24 292.612 1625.65 299.102C1623.18 305.591 1621.82 311.954 1621.57 318.189Z" fill="white"/>
<path d="M1929.8 415.153V308.645C1929.8 298.847 1927.82 290.385 1923.87 283.259C1919.92 276.133 1914.11 270.661 1906.46 266.844C1898.8 263.026 1889.36 261.118 1878.12 261.118C1867.75 261.118 1858.48 263.026 1850.33 266.844C1842.31 270.534 1835.95 275.56 1831.25 281.923C1826.69 288.158 1824.4 295.093 1824.4 302.728L1802.17 302.537C1802.17 294.775 1804.03 287.267 1807.73 280.014C1811.44 272.761 1816.68 266.271 1823.48 260.545C1830.27 254.819 1838.36 250.301 1847.74 246.993C1857.25 243.557 1867.68 241.839 1879.04 241.839C1893.37 241.839 1905.96 244.321 1916.83 249.283C1927.82 254.246 1936.4 261.69 1942.58 271.616C1948.75 281.541 1951.84 294.012 1951.84 309.027V408.854C1951.84 415.98 1952.33 423.361 1953.32 430.996C1954.43 438.63 1955.98 444.929 1957.95 449.892V452.183H1934.43C1932.95 447.602 1931.77 441.875 1930.91 435.004C1930.17 428.005 1929.8 421.388 1929.8 415.153ZM1934.98 331.932L1935.35 349.492H1891.83C1880.46 349.492 1870.28 350.574 1861.26 352.737C1852.37 354.773 1844.84 357.827 1838.66 361.899C1832.49 365.844 1827.74 370.616 1824.4 376.215C1821.19 381.814 1819.59 388.176 1819.59 395.302C1819.59 402.683 1821.38 409.427 1824.96 415.535C1828.66 421.643 1833.85 426.542 1840.52 430.232C1847.31 433.795 1855.33 435.576 1864.6 435.576C1876.95 435.576 1887.81 433.222 1897.2 428.514C1906.71 423.806 1914.55 417.634 1920.72 409.999C1926.9 402.364 1931.03 394.03 1933.13 384.995L1942.76 398.165C1941.16 404.528 1938.19 411.081 1933.87 417.825C1929.67 424.442 1924.18 430.677 1917.39 436.531C1910.6 442.257 1902.57 446.965 1893.31 450.656C1884.17 454.219 1873.8 456 1862.19 456C1849.1 456 1837.68 453.455 1827.92 448.365C1818.29 443.275 1810.76 436.34 1805.32 427.56C1800.01 418.652 1797.36 408.6 1797.36 397.402C1797.36 387.222 1799.46 378.123 1803.66 370.107C1807.85 361.963 1813.9 355.091 1821.81 349.492C1829.83 343.766 1839.47 339.44 1850.7 336.513C1862.06 333.459 1874.78 331.932 1888.86 331.932H1934.98Z" fill="white"/>
<path d="M2033.34 279.823V452.183H2011.3V245.657H2032.79L2033.34 279.823ZM2104.29 244.13L2103.73 265.126C2101.26 264.744 2098.85 264.426 2096.51 264.172C2094.16 263.917 2091.63 263.79 2088.91 263.79C2079.28 263.79 2070.82 265.635 2063.53 269.325C2056.37 272.888 2050.32 277.915 2045.38 284.404C2040.44 290.767 2036.68 298.274 2034.08 306.927C2031.49 315.453 2030.01 324.615 2029.64 334.413L2021.49 337.658C2021.49 324.17 2022.85 311.636 2025.56 300.056C2028.28 288.476 2032.42 278.36 2037.97 269.707C2043.65 260.927 2050.75 254.119 2059.27 249.283C2067.92 244.321 2078.04 241.839 2089.65 241.839C2092.49 241.839 2095.27 242.094 2097.99 242.603C2100.83 242.985 2102.93 243.494 2104.29 244.13Z" fill="white"/>
<path d="M2161.15 159V452.183H2139.11V159H2161.15ZM2286.92 245.657L2193.2 341.476L2153.37 381.177L2150.04 358.845L2182.08 323.152L2258.95 245.657H2286.92ZM2267.66 452.183L2183.93 344.911L2196.16 325.251L2294.33 452.183H2267.66Z" fill="white"/>
<path d="M2398.8 456C2385.71 456 2373.67 453.519 2362.68 448.556C2351.82 443.593 2342.31 436.594 2334.16 427.56C2326.13 418.525 2319.89 407.836 2315.45 395.493C2311.13 383.022 2308.97 369.407 2308.97 354.646V346.438C2308.97 330.532 2311.25 316.153 2315.82 303.301C2320.39 290.449 2326.69 279.442 2334.71 270.28C2342.74 261.118 2351.88 254.119 2362.13 249.283C2372.5 244.321 2383.37 241.839 2394.73 241.839C2407.45 241.839 2418.75 244.193 2428.62 248.902C2438.5 253.483 2446.78 260.036 2453.45 268.562C2460.24 276.96 2465.36 286.949 2468.82 298.529C2472.28 309.981 2474.01 322.643 2474.01 336.513V350.447H2322.3V330.978H2451.96V328.305C2451.72 316.726 2449.43 305.909 2445.11 295.857C2440.91 285.677 2434.61 277.406 2426.22 271.043C2417.82 264.681 2407.32 261.499 2394.73 261.499C2385.34 261.499 2376.7 263.535 2368.8 267.607C2361.02 271.679 2354.29 277.533 2348.61 285.168C2343.05 292.675 2338.73 301.647 2335.64 312.081C2332.68 322.388 2331.19 333.841 2331.19 346.438V354.646C2331.19 366.098 2332.8 376.787 2336.01 386.713C2339.34 396.511 2344.04 405.164 2350.09 412.672C2356.26 420.179 2363.55 426.033 2371.94 430.232C2380.34 434.431 2389.6 436.531 2399.73 436.531C2411.58 436.531 2422.08 434.304 2431.22 429.85C2440.36 425.269 2448.57 418.08 2455.85 408.281L2469.75 419.352C2465.42 425.969 2459.99 432.077 2453.45 437.676C2447.02 443.275 2439.31 447.729 2430.29 451.037C2421.28 454.346 2410.78 456 2398.8 456Z" fill="white"/>
<path d="M2593.48 245.657V264.362H2493.09V245.657H2593.48ZM2529.95 192.594H2551.99V401.983C2551.99 411.526 2553.22 418.716 2555.69 423.551C2558.16 428.387 2561.37 431.632 2565.33 433.286C2569.28 434.94 2573.54 435.767 2578.11 435.767C2581.44 435.767 2584.65 435.576 2587.74 435.195C2590.83 434.686 2593.6 434.177 2596.07 433.668L2597 452.946C2594.28 453.837 2590.76 454.537 2586.44 455.046C2582.12 455.682 2577.8 456 2573.48 456C2564.96 456 2557.42 454.409 2550.88 451.228C2544.33 447.92 2539.21 442.321 2535.5 434.431C2531.8 426.415 2529.95 415.535 2529.95 401.792V192.594Z" fill="white"/>
</svg>
