<svg width="112" height="24" viewBox="0 0 112 24" fill="none" xmlns="http://www.w3.org/2000/svg">
<path d="M20.884 12.5883C20.9432 12.5542 21.0707 12.4477 21.0707 12.5627C21.0707 12.8779 21.0707 12.9674 21.0752 13.2102C21.0752 13.3678 21.0752 13.4403 20.9432 13.5297C20.4833 13.845 19.9232 14.1985 19.4588 14.5095C19.2311 14.6629 18.9852 14.7992 18.7484 14.9397C18.6938 14.9738 18.6391 14.9994 18.5845 15.0335C18.4479 15.1101 18.3841 15.0377 18.375 14.9057C18.3614 14.6458 18.3614 14.3859 18.375 14.1261C18.375 14.0792 18.3887 14.0537 18.507 13.9898C18.8303 13.8066 19.14 13.6191 19.4588 13.4317C19.9323 13.1506 20.415 12.8737 20.884 12.5883Z" fill="#E9B933"/>
<path fill-rule="evenodd" clip-rule="evenodd" d="M23.2199 14.7949C23.2199 15.502 22.9148 16.0558 22.3092 16.4648C20.7201 17.534 19.1218 18.5948 17.5281 19.6555C17.2139 19.8642 16.9042 20.0943 16.5582 20.2391C15.6247 20.631 14.6685 20.6906 13.6941 20.3413C12.0366 19.7534 10.3792 19.1741 8.72169 18.5905C6.85478 17.9345 4.99241 17.2827 3.12549 16.6309C2.75667 16.5031 2.42427 16.337 2.17383 16.0431C1.91883 15.7534 1.79589 15.4168 1.79133 15.0462V9.82356C1.79133 9.80226 1.79131 9.7767 1.79586 9.74262C1.89604 9.7767 1.99168 9.80651 2.0873 9.84059C2.44702 9.95987 2.80219 10.0791 3.16647 10.1942C3.25753 10.224 3.29394 10.2581 3.28939 10.356C3.28484 10.7991 3.28484 11.2378 3.28939 11.6809C3.29394 11.9493 3.32129 12.2176 3.45334 12.4647C3.68556 12.8864 4.19099 13.1207 4.73285 13.0653C5.39765 12.9929 5.81203 12.5883 5.83936 11.962C5.85302 11.6766 5.83936 11.387 5.83936 11.0802C6.07158 11.1527 6.27195 11.2165 6.46775 11.2847C7.7336 11.7107 8.99945 12.141 10.2653 12.5627C10.3427 12.5882 10.3609 12.6266 10.3609 12.6948C10.3609 13.1207 10.3518 13.5467 10.3609 13.9727C10.3655 14.1815 10.3837 14.3945 10.4338 14.599C10.5567 15.0761 10.9893 15.3955 11.5175 15.4254C11.9501 15.4509 12.3417 15.3785 12.6467 15.0633C12.9108 14.7949 12.9746 14.4626 12.9883 14.1176C12.9928 13.9174 12.9883 13.7214 12.9883 13.5084C13.2478 13.5851 13.4937 13.666 13.7442 13.7342C14.4682 13.9301 15.1967 13.9514 15.8934 13.649C16.3123 13.4658 16.7085 13.223 17.1046 12.9972C19.099 11.8768 21.0889 10.7565 23.0833 9.63613C23.1152 9.61909 23.147 9.60205 23.1971 9.57649L23.2199 9.5637V14.7949ZM7.03692 16.3753C6.82746 16.3157 6.69995 16.4179 6.7045 16.6224C6.7045 16.7672 6.77736 16.8823 6.89574 16.9675C6.99136 17.0313 7.09609 17.0825 7.20082 17.1251C7.63795 17.2912 8.066 17.4574 8.52135 17.6235C8.68982 17.6874 8.87196 17.73 9.04954 17.7641C9.20436 17.7939 9.33184 17.7129 9.39559 17.5809C9.45478 17.4531 9.43203 17.3083 9.30454 17.2188C9.24079 17.1719 9.14972 17.1421 9.07231 17.1123C8.63063 16.9419 8.17982 16.7886 7.73358 16.6267C7.50136 16.5415 7.27369 16.4435 7.03692 16.3753ZM7.02782 15.0377C6.80014 14.9653 6.66352 15.0846 6.6954 15.3104C6.72272 15.4935 6.82746 15.6171 7.00504 15.681C7.64252 15.9067 8.28456 16.1283 8.92204 16.3498C8.97668 16.3668 9.03132 16.3711 9.05864 16.3753V16.3796C9.22712 16.3796 9.33642 16.3157 9.39106 16.2007C9.44115 16.0899 9.4229 15.9451 9.30906 15.8599C9.18613 15.7704 9.05407 15.7193 8.90837 15.6682C8.28455 15.4509 7.65619 15.2422 7.02782 15.0377ZM21.6581 11.4125C21.5123 11.3486 21.3849 11.387 21.2574 11.4679C20.6654 11.8513 20.0735 12.2389 19.4679 12.601C18.9624 12.9035 18.4388 13.1804 17.9197 13.4701C17.6966 13.5936 17.569 13.7811 17.5645 14.0239C17.5599 14.3732 17.5554 14.7225 17.5736 15.0675C17.5918 15.4467 17.8559 15.7236 18.2247 15.7747C18.4752 15.8088 18.7211 15.7875 18.9397 15.6724C19.2038 15.5361 19.4679 15.3955 19.7138 15.2337C20.2784 14.863 20.8339 14.4839 21.3803 14.1005C21.74 13.8492 21.8948 13.5127 21.8948 13.0739C21.8948 12.8779 21.8857 12.7373 21.8857 12.5414V11.749C21.8857 11.6042 21.8038 11.4807 21.6581 11.4125ZM7.12344 13.7001C6.90487 13.6362 6.72725 13.7342 6.7227 13.9216C6.7227 14.1304 6.8047 14.2837 6.99594 14.3518C7.57422 14.5606 8.16616 14.7438 8.749 14.9397C8.85372 14.9738 8.99943 15.0249 9.07684 15.0335H9.08599C9.27266 15.0505 9.37738 14.9653 9.41836 14.8247C9.45023 14.7055 9.45935 14.5947 9.35919 14.5052C9.28633 14.4413 9.14971 14.3774 9.05864 14.3391C8.70347 14.19 8.31186 14.0707 7.94303 13.9472C7.66983 13.8534 7.40119 13.781 7.12344 13.7001Z" fill="#E9B933"/>
<path d="M11.1851 11.9365C11.2079 11.9152 11.2306 11.9109 11.2625 11.9194C11.5539 12.0132 11.8317 12.1069 12.0639 12.2006C12.1003 12.2134 12.1413 12.256 12.1413 12.3114V14.173C12.1413 14.2369 12.1277 14.3007 12.114 14.3646C12.0639 14.5862 11.8772 14.7225 11.6404 14.7182C11.3991 14.714 11.2306 14.5734 11.1897 14.3433C11.1806 14.2837 11.1715 14.2198 11.1715 14.1602V11.9791H11.1669C11.167 11.9785 11.1716 11.9449 11.1851 11.9365Z" fill="#E9B933"/>
<path fill-rule="evenodd" clip-rule="evenodd" d="M8.6397 4.51996C9.18611 4.26436 9.76898 4.23027 10.3518 4.35807C11.7315 4.65626 13.1067 4.96726 14.4818 5.28249C16.9543 5.84906 19.4223 6.41985 21.8948 6.98642C22.8328 7.19942 23.2426 7.94065 23.2153 8.66909C23.2153 8.71169 23.1607 8.76709 23.1152 8.79265C22.3821 9.20161 21.6444 9.59778 20.9158 10.011C19.3586 10.8928 17.7876 11.7618 16.2531 12.6777C15.438 13.1634 14.6184 13.2187 13.7305 12.9418C13.5256 12.8779 13.3207 12.8055 13.1158 12.7459C13.0293 12.7203 13.0065 12.6777 13.011 12.5968C13.0156 12.4392 13.011 12.2815 13.011 12.1239C13.011 11.83 12.8972 11.6681 12.5921 11.5701C12.2552 11.4636 11.9137 11.3699 11.5722 11.272C11.4629 11.2421 11.3536 11.2081 11.2443 11.1825C10.8527 11.0845 10.452 11.3316 10.3974 11.7107C10.3928 11.749 10.3837 11.7831 10.3746 11.8257V11.8215C9.73256 11.6042 9.09961 11.3869 8.46212 11.1739C7.63796 10.897 6.81379 10.6202 5.98963 10.3475C5.89856 10.3177 5.85758 10.2836 5.86213 10.1856C5.87124 10.0536 5.8621 9.91728 5.84388 9.78523C5.82112 9.58928 5.71641 9.45294 5.51151 9.38478C5.09715 9.24846 4.68731 9.10787 4.2775 8.9673C4.10903 8.90766 3.93599 8.88638 3.75841 8.93324C3.49887 9.00566 3.34405 9.17604 3.29396 9.45293C3.04808 9.37199 2.80675 9.29531 2.56542 9.21437C2.32864 9.13769 2.09639 9.06101 1.85961 8.97581C1.82774 8.96302 1.78676 8.91619 1.78676 8.88211C1.76399 8.13663 2.11005 7.57857 2.81127 7.24629C4.75104 6.32615 6.69538 5.42732 8.6397 4.51996ZM4.68277 7.33151C4.48242 7.27614 4.29115 7.37411 4.23195 7.54877C4.17733 7.72768 4.28207 7.89382 4.49152 7.95346C7.45127 8.8097 10.4065 9.66593 13.3662 10.5222C13.858 10.6627 14.3498 10.8119 14.8415 10.9524C15.0824 11.0205 15.3006 10.872 15.3059 10.6469C15.3046 10.491 15.2043 10.3897 14.9827 10.3219C12.7469 9.67018 10.5066 9.01415 8.27088 8.36238C7.07333 8.01307 5.88032 7.67231 4.68277 7.33151ZM6.69082 6.19835C6.39486 6.19836 6.2173 6.46246 6.33568 6.6712C6.40397 6.79473 6.53146 6.82458 6.65895 6.85439C9.65057 7.64248 12.6422 8.43481 15.6339 9.22716C16.1575 9.36348 16.6811 9.5083 17.2048 9.64888C17.4188 9.70426 17.6009 9.61906 17.6647 9.43162C17.7193 9.26123 17.6191 9.11214 17.396 9.04824C17.2275 9.00138 17.0591 8.95879 16.8906 8.91193C13.644 8.04717 10.3928 7.17812 7.14617 6.31336C6.9868 6.27076 6.82289 6.23243 6.6954 6.19835H6.69082ZM9.28176 5.09929C9.21801 5.08225 9.14514 5.06949 9.07684 5.07375C8.91292 5.09505 8.7809 5.23563 8.77634 5.38046C8.76724 5.53381 8.88107 5.65735 9.08141 5.70421C11.9911 6.42839 14.9007 7.15684 17.8104 7.88102C18.4843 8.04716 19.1536 8.21757 19.823 8.38797C20.0689 8.45186 20.2966 8.30275 20.2966 8.07697H20.3011C20.3011 7.9364 20.2055 7.82137 20.0279 7.77877C19.4815 7.64246 18.9351 7.5104 18.3887 7.37408C15.3515 6.61582 12.3189 5.85756 9.28176 5.09929Z" fill="#E9B933"/>
<path d="M4.07715 9.85338C4.07715 9.72132 4.09538 9.71281 4.22743 9.75541C4.46876 9.83209 4.70554 9.91304 4.94687 9.98546C5.01972 10.0068 5.04707 10.0408 5.04707 10.1132V11.8385C5.04707 12.158 4.87402 12.3412 4.57805 12.3497C4.28208 12.3582 4.07719 12.1708 4.07263 11.8854V10.863H4.07715V9.85338Z" fill="#E9B933"/>
<path d="M32.0836 17L30.7724 15.6888V9.6051L32.0836 8.29387H36.9506L38.2618 9.6051V11.2117L36.1119 11.1998V10.3848L35.6866 9.9713H33.4067L32.9814 10.3848V14.8973L33.4067 15.3226H35.2613L36.3954 14.3185V14.0113H34.8006V12.3221H38.3918V17H36.5253V16.2203L35.6512 17H32.0836ZM40.7231 17V15.2281H45.2593L45.6728 14.8146V13.8459L45.2593 13.4325H41.6918L40.3806 12.1094V9.6051L41.6918 8.29387H47.3856V10.0658H42.9676L42.5542 10.4793V11.2471L42.9676 11.6606H46.5351L47.8463 12.9718V15.6888L46.5351 17H40.7231ZM50.276 17L48.9648 15.6888V9.6051L50.276 8.29387H55.3792L56.6905 9.6051V15.6888L55.3792 17H50.276ZM51.5991 15.3226H54.0798L54.4932 14.9091V10.3848L54.0562 9.9713H51.5991L51.1738 10.3848V14.9091L51.5991 15.3226ZM58.1069 17V8.29387H60.3159V15.2044H64.3087V17H58.1069Z" fill="white"/>
<path d="M67.6743 17V10.0894H65.2408V8.29387H72.3168V10.0894H69.8833V17H67.6743ZM73.2072 17V8.29387H79.1373L80.4603 9.6051V12.7237L79.468 13.716L80.7911 17H78.5703L77.4244 14.035H75.4162V17H73.2072ZM75.4162 12.3575H77.8969L78.3104 11.9441V10.3848L77.8969 9.9713H75.4162V12.3575ZM81.0208 17L83.5724 8.29387H87.1635L89.7151 17H87.3761L86.9391 15.2635H83.7968L83.3597 17H81.0208ZM84.2339 13.5624H86.502L85.5806 9.95949H85.1553L84.2339 13.5624ZM90.5459 17V8.29387H96.2279L98.0353 10.1012V15.1926L96.2279 17H90.5459ZM92.7549 15.3226H95.2711L95.8972 14.6965V10.5974L95.2711 9.9713H92.7549V15.3226ZM99.3364 17V8.29387H105.952V10.0894H101.545V11.696H105.515V13.3616H101.545V15.2044H105.952V17H99.3364Z" fill="white"/>
</svg>
