<svg width="90" height="20" viewBox="0 0 90 20" fill="none" xmlns="http://www.w3.org/2000/svg">
<g clip-path="url(#clip0_23966_30992)">
<path d="M5.11187 5.25209L14.0795 6.4054L21.116 3.31872L3.92688 4.19912L5.11187 5.25209Z" fill="#FF6E48"/>
<path d="M3.92688 4.19912L21.116 3.31872C21.116 3.31872 12.17 3.87797 11.618 3.87868C11.0599 3.87326 3.92688 4.19912 3.92688 4.19912Z" fill="#FF6E48"/>
<path d="M11.8055 3.79492L11.0159 3.83536L10.0391 5.88287L10.0404 5.88341L11.4227 6.06118L11.8055 3.79492Z" fill="#FF6E48"/>
<path d="M15.0962 13.0656L6.11295 14.0948L0.022917 18.7559L16.5077 13.824L15.0962 13.0656Z" fill="#FF6E48"/>
<path d="M6.1146 14.0951L15.0978 13.0597C15.0978 13.0597 12.0946 13.4981 10.6045 13.6533C9.11441 13.8084 6.1146 14.0951 6.1146 14.0951Z" fill="#FF6E48"/>
<path d="M8.82484 13.7841L5.25 17.1898L11.56 13.4707L8.82484 13.7841Z" fill="#FF6E48"/>
<path d="M16.5123 13.8255L14.802 9.60964L14.2506 10.0947L15.1008 13.0609L16.5123 13.8255Z" fill="#FF6E48"/>
<path d="M5.11079 5.25025L3.92578 4.19727L4.90955 10.9093L5.31363 10.3754L5.11079 5.25025Z" fill="#FF6E48"/>
<path d="M5.34025 17.1599L21.1206 3.30867L14.0841 6.40148L5.24829 17.1907L5.34025 17.1599Z" fill="#FF6E48"/>
<path d="M14.2929 6.31091L21.115 3.31642C21.115 3.31642 17.5966 4.78622 17.2104 4.96451C16.8243 5.1428 14.2929 6.31091 14.2929 6.31091Z" fill="#FF6E48"/>
<path d="M14.0821 6.40217C14.6521 6.10716 15.2282 5.83666 15.8105 5.56615C16.0986 5.4309 16.3928 5.30178 16.6809 5.16653L17.5574 4.77303L18.44 4.39178C18.7342 4.26878 19.0284 4.13966 19.3227 4.01666C19.9172 3.77066 20.5057 3.53081 21.1126 3.30931C20.5426 3.60433 19.9664 3.87483 19.3842 4.14533C19.0961 4.28058 18.8019 4.40971 18.5138 4.54496L17.6373 4.93846L16.7547 5.31971C16.4604 5.4427 16.1662 5.57183 15.872 5.69482C15.2774 5.94082 14.6828 6.18069 14.0821 6.40217Z" fill="#FF6E48"/>
<path d="M12.2595 1.25181L0.0224909 18.7586L6.11252 14.0975L12.2595 1.25181Z" fill="#FF6E48"/>
<path d="M15.0938 13.0664C15.2165 13.1214 15.3392 13.1764 15.4558 13.2376C15.5785 13.2988 15.6952 13.3599 15.8118 13.4211C15.9284 13.4822 16.045 13.5495 16.1616 13.6168L16.3334 13.7208C16.3887 13.7575 16.4501 13.7942 16.5053 13.8309C16.4439 13.8065 16.3826 13.7759 16.3212 13.7515L16.1432 13.6659C16.0205 13.6047 15.9039 13.5436 15.7873 13.4824C15.6707 13.4213 15.5541 13.354 15.4375 13.2867C15.3208 13.2071 15.2042 13.1398 15.0938 13.0664Z" fill="#FF6E48"/>
<path d="M3.92578 4.19727C4.03014 4.27683 4.1345 4.3564 4.23887 4.4421C4.34324 4.52779 4.44148 4.6135 4.53972 4.69921C4.63796 4.78491 4.7362 4.87675 4.82831 4.96859L4.96955 5.10942C5.01254 5.15841 5.06166 5.20126 5.11079 5.25025C5.05554 5.21353 5.00643 5.17068 4.95117 5.12784L4.79769 5.00542C4.69332 4.91972 4.59509 4.83401 4.49685 4.74831C4.39861 4.6626 4.30037 4.57077 4.20826 4.47892C4.11001 4.38709 4.0179 4.29524 3.92578 4.19727Z" fill="#FF6E48"/>
<path d="M0.0216085 18.7588C0.505572 18.3413 1.00182 17.936 1.49807 17.5368C1.74926 17.3342 2.00046 17.1377 2.25165 16.9412L3.01138 16.3516L3.77725 15.7744C4.03459 15.584 4.29193 15.3936 4.54926 15.2032C5.06395 14.8285 5.58476 14.4539 6.11787 14.0976C5.63391 14.5151 5.13766 14.9204 4.64141 15.3196C4.39022 15.5222 4.13902 15.7187 3.88782 15.9152L3.12809 16.4986L2.35609 17.0821C2.09876 17.2724 1.84142 17.4628 1.58408 17.6532C1.0694 18.0279 0.554714 18.4025 0.0216085 18.7588Z" fill="#FF6E48"/>
<path d="M30.5902 8.6216H24.8563L24.697 8.69511L24.55 9.27095H29.365C29.4998 9.2832 29.6345 9.34446 29.757 9.41797C29.8796 9.49148 29.9898 9.5895 30.0756 9.69977C30.1614 9.81003 30.2349 9.93255 30.2716 10.0673C30.3206 10.2021 30.3329 10.3246 30.2961 10.4594L29.9776 11.6478C29.9408 11.7826 29.8673 11.9174 29.7448 12.0644C29.6345 12.2114 29.4998 12.3339 29.3527 12.4564C29.2057 12.5667 29.0587 12.6647 28.8994 12.7382C28.7401 12.8118 28.5931 12.8485 28.4706 12.8485H22.5039C22.5284 12.775 22.5652 12.6647 22.6142 12.5055C22.6395 12.4395 22.667 12.3736 22.6948 12.3068C22.7342 12.2123 22.7743 12.1159 22.8102 12.0154C22.8487 11.9077 22.8919 11.8097 22.931 11.7213C22.9541 11.6689 22.9757 11.6199 22.994 11.5743C23.0061 11.5478 23.0167 11.5241 23.0261 11.5031C23.0644 11.4178 23.0822 11.3783 23.092 11.3783H28.5441L28.6911 10.8514L28.5931 10.7534H24.0354C23.8884 10.7534 23.7659 10.7044 23.6433 10.6309C23.5331 10.5451 23.4351 10.4471 23.3615 10.3246C23.3532 10.3063 23.3449 10.2881 23.3366 10.2702C23.2841 10.156 23.234 10.0473 23.2023 9.9203C23.1655 9.77328 23.141 9.65076 23.1533 9.52824L23.2268 9.27095L23.4105 8.6216C23.4841 8.43782 23.5698 8.25404 23.6801 8.08251C23.7904 7.91099 23.9129 7.75171 24.0599 7.61694C24.2069 7.46992 24.3662 7.35965 24.55 7.28614C24.7338 7.20037 24.942 7.15137 25.1626 7.15137H31.1783L31.1048 7.31064C31.068 7.42091 31.019 7.54343 30.9577 7.69045C30.9332 7.76396 30.9057 7.83441 30.8781 7.90486C30.8505 7.97531 30.823 8.04576 30.7985 8.11927C30.7494 8.25404 30.7004 8.37656 30.6514 8.47457C30.6147 8.57259 30.5902 8.6216 30.5902 8.6216Z" fill="#FAFAFA"/>
<path d="M37.1694 9.27095L39.436 7.15137H37.5983L35.2336 9.27095H33.0773L33.6409 7.15137H32.1339L31.5703 9.27095L30.6147 12.8363H32.1216L32.6852 10.7412H34.8416L36.079 12.8363H37.9168L36.3608 10.0061L37.1694 9.27095Z" fill="#FAFAFA"/>
<path d="M39.6443 9.27095L38.6887 12.8363H40.1957L41.1513 9.27095L41.7149 7.15137H40.2079L39.6443 9.27095Z" fill="#FAFAFA"/>
<path d="M48.0246 9.27095L47.6203 10.8269L46.1378 9.27095L44.1408 7.15137H42.6583L42.0947 9.27095L41.1513 12.8363H42.6461L43.6017 9.27095H43.7487L47.0322 12.8363H48.527L49.4826 9.27095L50.0462 7.15137H48.5882L48.0246 9.27095Z" fill="#FAFAFA"/>
<path fill-rule="evenodd" clip-rule="evenodd" d="M57.9732 8.62159L57.5444 10.1898C57.5199 10.3124 57.4586 10.4349 57.3606 10.5819C57.2748 10.7289 57.1646 10.8637 57.0298 10.9862C56.9073 11.1087 56.748 11.2067 56.5765 11.2925C56.4049 11.3783 56.2212 11.415 56.0374 11.415H51.3449L50.9651 12.8363H49.4581L50.6098 8.62159L51.0019 7.15137H57.0298C57.2381 7.15137 57.4096 7.20037 57.5444 7.28614C57.6914 7.3719 57.7894 7.46992 57.8629 7.61694C57.9364 7.73946 57.9855 7.89873 57.9977 8.08251C58.01 8.25404 57.9977 8.43782 57.9732 8.62159ZM56.3314 9.27094L56.1844 9.79778L56.0129 9.93255H51.7492L52.0923 8.62159H56.3314V9.27094Z" fill="#FAFAFA"/>
<path d="M64.0624 11.5498C64.0746 11.4273 64.0624 11.366 64.0501 11.366H59.6885L60.252 9.27095L60.8156 7.15137H59.3332L58.7696 9.27095L57.8139 12.8363H63.8664C63.8909 12.7627 63.9154 12.6402 63.9399 12.4809C63.9639 12.3768 63.9775 12.2675 63.9908 12.1597C63.9979 12.1027 64.0049 12.046 64.0134 11.9909C64.0332 11.8523 64.045 11.7298 64.0552 11.6232L64.0572 11.6033C64.0589 11.585 64.0607 11.5672 64.0624 11.5498Z" fill="#FAFAFA"/>
<path fill-rule="evenodd" clip-rule="evenodd" d="M69.9188 7.15137C69.7718 7.15137 69.637 7.18812 69.4777 7.24938C69.3307 7.29839 69.1837 7.38414 69.0367 7.4699C68.8897 7.55566 68.7671 7.6537 68.6324 7.76396C68.5098 7.87423 68.3873 7.9845 68.2893 8.08251L67.7992 8.6216L63.9766 12.8363H65.7164L67.0519 11.415H70.6662L70.2864 12.8363H71.7566L73.2758 7.15137H69.9188ZM71.0827 9.9203H68.3996C68.4193 9.89406 68.4495 9.85729 68.4883 9.80998C68.5221 9.76893 68.5623 9.71994 68.6079 9.66301C68.7181 9.54049 69.4777 8.75637 69.6125 8.63385H71.4258L71.0827 9.9203Z" fill="#FAFAFA"/>
<path d="M74.2315 7.15137H81.6439C81.6317 7.22488 81.5949 7.33515 81.5091 7.50667C81.4959 7.54098 81.4827 7.57585 81.4694 7.61105C81.4209 7.73927 81.3708 7.87178 81.3131 7.99675C81.2518 8.16828 81.1906 8.3153 81.1293 8.43782C81.1114 8.4737 81.0966 8.50433 81.0843 8.52971C81.0548 8.59097 81.04 8.6216 81.0313 8.6216H75.3342L74.6481 11.1945L74.6971 11.3538H80.2962C80.3084 11.3538 80.3207 11.415 80.3084 11.5376L80.3051 11.5743C80.2939 11.6989 80.2817 11.8337 80.2594 11.9786C80.251 12.0337 80.244 12.0902 80.2369 12.1471L80.2369 12.1474C80.2235 12.2552 80.21 12.3645 80.1859 12.4687C80.1614 12.628 80.1369 12.7505 80.1124 12.824H74.0845C73.9252 12.824 73.7782 12.775 73.6311 12.7015C73.4841 12.628 73.3616 12.5177 73.2636 12.3952C73.1778 12.2727 73.1043 12.1134 73.0676 11.9541C73.0308 11.7948 73.0308 11.6233 73.0798 11.4518L73.8394 8.6216L74.2315 7.15137Z" fill="#FAFAFA"/>
<path d="M82.5873 7.15137L82.1952 8.6216L82.0237 9.27095L81.4356 11.4518C81.3866 11.6233 81.3866 11.7948 81.4234 11.9541C81.4601 12.1134 81.5336 12.2727 81.6194 12.3952C81.7174 12.5177 81.8399 12.628 81.987 12.7015C82.134 12.775 82.281 12.824 82.4403 12.824H88.4682C88.4927 12.7505 88.5172 12.628 88.5417 12.4687C88.5658 12.3646 88.5793 12.2552 88.5927 12.1475C88.5997 12.0904 88.6068 12.0337 88.6152 11.9786C88.6376 11.8337 88.6497 11.6988 88.6609 11.5742L88.6643 11.5376C88.6765 11.415 88.6643 11.3538 88.652 11.3538H83.0529L83.0039 11.1945L83.1386 10.7412H88.3825C88.3911 10.7412 88.4059 10.7105 88.4355 10.6493C88.4477 10.6239 88.4625 10.5933 88.4805 10.5574C88.4987 10.5118 88.5203 10.4628 88.5434 10.4105C88.5825 10.3221 88.6258 10.224 88.6643 10.1163C88.7378 9.9448 88.799 9.77328 88.848 9.62625C88.8958 9.50197 88.9287 9.40006 88.9525 9.32635C88.9592 9.30561 88.9652 9.2871 88.9706 9.27095H83.5307L83.69 8.68286L83.8247 8.6216H89.3994C89.408 8.6216 89.4228 8.59099 89.4524 8.52977C89.4646 8.50439 89.4794 8.47371 89.4974 8.43782C89.5586 8.3153 89.6199 8.16828 89.6812 7.99675C89.7389 7.87176 89.789 7.73923 89.8375 7.611L89.838 7.60979C89.8511 7.57502 89.8642 7.54057 89.8772 7.50667C89.925 7.38238 89.9579 7.28048 89.9817 7.20677L89.982 7.20575C89.9886 7.18542 89.9944 7.16725 89.9997 7.15137H82.5873Z" fill="#FAFAFA"/>
</g>
<defs>
<clipPath id="clip0_23966_30992">
<rect width="90" height="20" fill="white"/>
</clipPath>
</defs>
</svg>
