<?xml version="1.0" encoding="utf-8"?>
<!-- Generator: Adobe Illustrator 16.0.0, SVG Export Plug-In . SVG Version: 6.00 Build 0)  -->
<!DOCTYPE svg PUBLIC "-//W3C//DTD SVG 1.1//EN" "http://www.w3.org/Graphics/SVG/1.1/DTD/svg11.dtd">
<svg version="1.1" id="图层_1" xmlns="http://www.w3.org/2000/svg" xmlns:xlink="http://www.w3.org/1999/xlink" x="0px" y="0px"
	 width="112px" height="20px" viewBox="0 0 112 20" enable-background="new 0 0 112 20" xml:space="preserve">
<path fill="#FFFFFF" d="M85.021,16.518l0.65-2.412h5.846c0.934,0,1.578-0.096,1.937-0.283c0.524-0.285,0.862-0.711,1.015-1.277
	c0.18-0.662,0.047-1.143-0.396-1.439c-0.247-0.175-0.696-0.263-1.348-0.263h-2.377c-1.445,0-2.412-0.276-2.901-0.831
	c-0.302-0.352-0.496-0.79-0.584-1.316c-0.075-0.527-0.03-1.095,0.134-1.703c0.254-0.946,0.75-1.81,1.484-2.594
	c0.715-0.757,1.653-1.203,2.814-1.337C91.689,3.02,92.264,3,93.018,3h6.346l-0.65,2.412H92.98c-0.859,0.014-1.438,0.054-1.738,0.122
	c-0.615,0.148-1.026,0.608-1.234,1.378c-0.175,0.648-0.049,1.081,0.379,1.297c0.275,0.163,0.79,0.243,1.545,0.243h2.051
	c1.047,0,1.802,0.095,2.262,0.283c0.82,0.325,1.294,0.893,1.42,1.703c0.093,0.649,0.04,1.344-0.16,2.088
	c-0.223,0.824-0.6,1.561-1.133,2.209c-0.746,0.918-1.643,1.473-2.691,1.66c-0.507,0.082-1.253,0.123-2.236,0.123H85.021z"/>
<path fill="#FFFFFF" d="M74.901,6.607l-2.673,9.911h-2.803L73.07,3h3.752l2.748,10.073L82.287,3h2.783l-3.645,13.518h-3.588
	L74.901,6.607z"/>
<path fill="#FFFFFF" d="M63.426,16.518L67.07,3h3l-3.645,13.518H63.426z"/>
<path fill="#FFFFFF" d="M55.963,3l-3.645,13.518h-2.893L53.07,3H55.963z M54.262,9.687L61.261,3h3.81l-7.488,6.688l3.578,6.831
	h-3.81L54.262,9.687z"/>
<path fill="#FFFFFF" d="M35.018,16.518l0.651-2.412h5.846c0.933,0,1.579-0.096,1.936-0.283c0.524-0.285,0.862-0.711,1.015-1.277
	c0.179-0.662,0.046-1.143-0.398-1.439c-0.247-0.175-0.695-0.263-1.347-0.263h-2.377c-1.444,0-2.411-0.276-2.901-0.831
	c-0.301-0.352-0.496-0.79-0.584-1.316c-0.075-0.527-0.031-1.095,0.133-1.703c0.255-0.946,0.75-1.81,1.485-2.594
	c0.715-0.757,1.653-1.203,2.814-1.337C41.687,3.02,42.261,3,43.015,3h6.345l-0.65,2.412h-5.731c-0.86,0.014-1.439,0.054-1.739,0.122
	c-0.615,0.148-1.026,0.608-1.234,1.378c-0.175,0.648-0.049,1.081,0.379,1.297c0.275,0.163,0.791,0.243,1.544,0.243h2.051
	c1.048,0,1.802,0.095,2.262,0.283c0.82,0.325,1.293,0.893,1.419,1.703c0.093,0.649,0.04,1.344-0.161,2.088
	c-0.222,0.824-0.6,1.561-1.132,2.209c-0.746,0.918-1.643,1.473-2.691,1.66c-0.507,0.082-1.253,0.123-2.237,0.123H35.018z"/>
<path fill="#FFCC00" d="M27.342,0.999c-0.456,0.396-1.05,0.971-1.641,1.742c-0.913,1.192-1.161,1.553-1.17,1.584l0.055,0.396
	c-0.029,0.252-0.197,0.924-0.634,1.593c-0.546,0.835-1.146,1.274-1.414,1.367c-0.214,0.074-0.352,0.505-0.394,0.71l0.25,0.235
	l0.021,0.08l-0.295,0.684l0.061,0.222c-0.175,0.436-0.496,1.629-0.379,2.928c0.147,1.623,0.664,3.234,2.083,4.736
	c0.566,0.598,1.178,1.063,1.714,1.398c-0.767,0.213-1.552,0.328-2.333,0.328c-4.185,0-6.688-3.273-5.59-7.313l2.589-9.521
	L27.342,0.999z M32.218,1.58c0.063,0.02,0.15,0.038,0.258,0.047l2.943,0.542l-2.588,9.521c-0.845,3.107-3.577,5.76-6.697,6.818
	c-0.365-0.477-0.748-1.094-0.955-1.77c-0.459-1.498-0.62-2.879-0.061-4.453c0.447-1.258,1.272-2.538,1.63-3.022l0.114-0.073
	l0.204-0.228c0.077,0.023,0.285,0.006,0.495-0.239c0.263-0.308,0.39-0.427,0.288-0.508c-0.104-0.081-0.906-0.3-1.075-0.923
	c-0.169-0.625-0.167-1.597,1.628-2.051c-0.082-0.302,0.017-0.825,0.432-1.259s0.934-0.679,1.276-0.791s0.302-0.167,0.419-0.521
	c0.117-0.355,0.402-0.776,1.043-0.968c0.3-0.089,0.452-0.13,0.522-0.146L32.218,1.58z"/>
<path fill="#FFFFFF" d="M7.977,3l-2.17,8.045c-0.173,0.645-0.254,1.146-0.242,1.51c0.016,0.348,0.12,0.65,0.313,0.904
	c0.429,0.551,1.159,0.826,2.19,0.826c0.66,0,1.259-0.107,1.798-0.322c0.556-0.229,0.981-0.531,1.275-0.906
	c0.293-0.375,0.571-1.045,0.831-2.012L14.142,3h2.928l-2.132,7.905c-0.282,1.046-0.632,1.912-1.05,2.595
	c-0.401,0.67-0.891,1.213-1.47,1.629c-1.335,0.926-3,1.389-4.993,1.389c-2.131,0-3.561-0.457-4.291-1.369
	c-0.382-0.469-0.592-0.992-0.628-1.568c-0.034-0.59,0.093-1.414,0.378-2.475L5.069,3H7.977z"/>
</svg>
