<svg width="16" height="16" viewBox="0 0 16 16" fill="none" xmlns="http://www.w3.org/2000/svg">
<path d="M13.77 9.61508L8.62232 4.28109C8.44645 4.08913 8.23675 4 8 4C7.76325 4 7.54679 4.09598 7.37091 4.2811L2.22999 9.61508C2.08117 9.76592 2 9.95788 2 10.1841C2 10.6435 2.35175 11 2.7982 11C3.01466 11 3.22435 10.9177 3.37993 10.7532L7.99324 5.94711L12.6201 10.7532C12.7689 10.9109 12.9786 11 13.2018 11C13.6483 11 14 10.6435 14 10.1841C14 9.96474 13.9188 9.76591 13.77 9.61508Z" fill="#6F7F8A"/>
</svg>
