<svg width="20" height="20" viewBox="0 0 20 20" fill="none" xmlns="http://www.w3.org/2000/svg">
<g clip-path="url(#clip0_6743_1146)">
<path d="M5.64038 0C2.77355 0 0.449951 1.1316 0.449951 2.52809V3.8782C0.449951 5.27465 2.77355 6.40625 5.64038 6.40625C8.50597 6.40625 10.8302 5.27465 10.8302 3.87816V2.52809C10.8302 1.1316 8.50597 0 5.64038 0ZM5.64038 1.0498C8.16726 1.0498 9.77979 2.02027 9.77979 2.52809C9.77979 3.0359 8.16726 4.00637 5.64038 4.00637C3.11229 4.00637 1.50038 3.0359 1.50038 2.52809C1.50038 2.02027 3.11229 1.0498 5.64038 1.0498Z" fill="white"/>
<path d="M5.63976 8.43736C6.59983 8.43736 7.4989 8.30919 8.27038 8.08822C7.52757 8.7413 6.91968 9.54818 6.4912 10.454C6.2153 10.4765 5.93089 10.4893 5.63976 10.4893C2.77417 10.4893 0.449951 9.35591 0.449951 7.96005V6.37314C0.449951 6.34751 0.469482 6.32431 0.495107 6.32185C0.507334 6.31818 0.520732 6.32431 0.529912 6.33771C0.523818 6.33771 0.529912 6.35603 0.565303 6.44271C1.06761 7.58286 3.14831 8.43736 5.63976 8.43736Z" fill="white"/>
<path d="M5.78319 13.5977C5.78319 13.9089 5.80272 14.2129 5.84362 14.5132C5.7771 14.5169 5.70933 14.5169 5.63976 14.5169C2.77417 14.5169 0.449951 13.3865 0.449951 11.9913V10.4001C0.449951 10.3775 0.469482 10.3555 0.495107 10.3519C0.51585 10.3494 0.529287 10.3616 0.539053 10.3763C0.526826 10.3604 0.514014 10.3519 0.565303 10.4739C1.06761 11.6129 3.14831 12.4686 5.63976 12.4686C5.71667 12.4686 5.79663 12.4686 5.87292 12.4613C5.81186 12.8329 5.78319 13.2107 5.78319 13.5977Z" fill="white"/>
<path d="M7.5471 18.3701C6.95811 18.4861 6.31479 18.5465 5.63976 18.5465C2.77417 18.5465 0.449951 17.4168 0.449951 16.0179V14.4297C0.449951 14.4041 0.469482 14.3846 0.495107 14.3821C0.514639 14.3784 0.532959 14.3882 0.539678 14.4077C0.526865 14.3919 0.511006 14.376 0.565303 14.5005C1.06761 15.6431 3.14831 16.4976 5.63976 16.4976C5.88573 16.4976 6.13229 16.4878 6.36913 16.472C6.66331 17.1665 7.0637 17.8074 7.5471 18.3701Z" fill="white"/>
<path d="M13.1471 8.79514C15.7948 8.79514 17.9494 10.9497 17.9494 13.5974C17.9494 16.2451 15.7948 18.3997 13.1471 18.3997C10.5 18.3997 8.34547 16.2451 8.34547 13.5974C8.34547 10.9497 10.5 8.79514 13.1471 8.79514ZM13.1471 7.19482C9.61074 7.19482 6.74512 10.0617 6.74512 13.5974C6.74512 17.1338 9.6107 20 13.1471 20C16.6835 20 19.5503 17.1338 19.5503 13.5974C19.5503 10.0616 16.6835 7.19482 13.1471 7.19482Z" fill="white"/>
<path fill-rule="evenodd" clip-rule="evenodd" d="M13.6883 10.913C13.6883 10.7386 13.5391 10.5972 13.355 10.5972C13.1709 10.5972 13.0216 10.7386 13.0216 10.913V11.0895C12.6316 11.1338 12.2728 11.2556 11.987 11.4426C11.6202 11.6827 11.355 12.0467 11.355 12.4919C11.355 12.8942 11.5189 13.2678 11.8809 13.5317C12.1664 13.7397 12.5509 13.862 13.0216 13.9V15.4672C12.7603 15.4276 12.5351 15.3428 12.3659 15.2321C12.1296 15.0774 12.0216 14.8888 12.0216 14.7024C12.0216 14.528 11.8724 14.3866 11.6883 14.3866C11.5042 14.3866 11.355 14.528 11.355 14.7024C11.355 15.1476 11.6202 15.5117 11.987 15.7517C12.2728 15.9387 12.6316 16.0605 13.0216 16.1048V16.2814C13.0216 16.4558 13.1709 16.5972 13.355 16.5972C13.5391 16.5972 13.6883 16.4558 13.6883 16.2814V16.1056C14.0757 16.0635 14.4342 15.9474 14.7208 15.763C15.0924 15.5239 15.355 15.1583 15.355 14.7024C15.355 14.2898 15.1931 13.9137 14.8269 13.6512C14.5406 13.4461 14.1563 13.3298 13.6883 13.2937V11.7271C13.9496 11.7667 14.1748 11.8515 14.344 11.9623C14.5804 12.1169 14.6883 12.3055 14.6883 12.4919C14.6883 12.6663 14.8375 12.8077 15.0216 12.8077C15.2057 12.8077 15.355 12.6663 15.355 12.4919C15.355 12.0467 15.0898 11.6827 14.7229 11.4426C14.4372 11.2556 14.0783 11.1338 13.6883 11.0895V10.913ZM13.0216 11.7271C12.7603 11.7667 12.5351 11.8515 12.3659 11.9623C12.1296 12.1169 12.0216 12.3055 12.0216 12.4919C12.0216 12.7212 12.1078 12.9002 12.2874 13.0311C12.436 13.1394 12.6706 13.2303 13.0216 13.2657V11.7271ZM13.6883 13.9278V15.4686C13.952 15.4308 14.1777 15.349 14.3462 15.2405C14.5778 15.0915 14.6883 14.9045 14.6883 14.7024C14.6883 14.4571 14.6002 14.2807 14.4247 14.1549C14.2769 14.049 14.0422 13.9615 13.6883 13.9278Z" fill="white"/>
<circle cx="16.5" cy="3.5" r="4.5" fill="#82B83B" stroke="#1E1E1F" stroke-width="2"/>
</g>
<defs>
<clipPath id="clip0_6743_1146">
<rect width="20" height="20" fill="white"/>
</clipPath>
</defs>
</svg>
