<svg width="18" height="18" viewBox="0 0 18 18" fill="none" xmlns="http://www.w3.org/2000/svg">
  <path fill-rule="evenodd" clip-rule="evenodd" d="M10.7856 0.4878C10.8639 0.6399 10.8837 0.8352 10.9224 1.2258C10.9962 1.9638 11.0331 2.3328 11.1879 2.5362C11.2843 2.66249 11.4125 2.76099 11.5594 2.82169C11.7062 2.8824 11.8665 2.90313 12.024 2.8818C12.276 2.8485 12.564 2.6136 13.1382 2.1438C13.4415 1.8945 13.5936 1.7703 13.7565 1.7181C13.964 1.6518 14.1884 1.663 14.3883 1.7496C14.5458 1.818 14.6853 1.9566 14.9616 2.2338L15.7662 3.0384C16.0434 3.3156 16.182 3.4542 16.2504 3.6117C16.337 3.81155 16.3482 4.03603 16.2819 4.2435C16.2297 4.4064 16.1055 4.5585 15.8571 4.8618C15.3864 5.4369 15.1515 5.724 15.1173 5.9769C15.0962 6.13431 15.1172 6.29449 15.178 6.44117C15.2389 6.58786 15.3375 6.71584 15.4638 6.8121C15.6663 6.9669 16.0362 7.0038 16.7751 7.0776C17.1648 7.1163 17.3601 7.1361 17.5131 7.2144C17.7061 7.31448 17.8564 7.48104 17.9361 7.6833C18 7.8426 18 8.0388 18 8.4312V9.5688C18 9.9612 18 10.1574 17.937 10.3158C17.857 10.5187 17.706 10.6856 17.5122 10.7856C17.3601 10.8639 17.1648 10.8837 16.7742 10.9224C16.0362 10.9962 15.6672 11.0331 15.4638 11.1879C15.3375 11.2843 15.239 11.4125 15.1783 11.5594C15.1176 11.7062 15.0969 11.8665 15.1182 12.024C15.1524 12.276 15.3873 12.564 15.8571 13.1382C16.1055 13.4415 16.2297 13.5927 16.2819 13.7565C16.3482 13.964 16.337 14.1884 16.2504 14.3883C16.182 14.5458 16.0434 14.6844 15.7662 14.9616L14.9616 15.7653C14.6844 16.0434 14.5458 16.182 14.3883 16.2495C14.1884 16.3361 13.964 16.3473 13.7565 16.281C13.5936 16.2288 13.4415 16.1046 13.1382 15.8562C12.5631 15.3864 12.276 15.1515 12.024 15.1182C11.8665 15.0969 11.7062 15.1176 11.5594 15.1783C11.4125 15.239 11.2843 15.3375 11.1879 15.4638C11.0331 15.6663 10.9962 16.0353 10.9224 16.7742C10.8837 17.1648 10.8639 17.3601 10.7856 17.5122C10.6859 17.7059 10.5193 17.8568 10.3167 17.937C10.1574 18 9.9612 18 9.5688 18H8.4312C8.0388 18 7.8426 18 7.6842 17.937C7.4813 17.857 7.31435 17.706 7.2144 17.5122C7.1361 17.3601 7.1163 17.1648 7.0776 16.7742C7.0038 16.0362 6.9669 15.6672 6.8121 15.4638C6.71573 15.3377 6.58771 15.2392 6.44103 15.1785C6.29435 15.1179 6.13422 15.097 5.9769 15.1182C5.724 15.1515 5.4369 15.3864 4.8618 15.8562C4.5585 16.1055 4.4064 16.2297 4.2435 16.2819C4.03603 16.3482 3.81155 16.337 3.6117 16.2504C3.4542 16.182 3.3147 16.0434 3.0384 15.7662L2.2338 14.9616C1.9566 14.6844 1.818 14.5458 1.7496 14.3883C1.663 14.1884 1.6518 13.964 1.7181 13.7565C1.7703 13.5936 1.8945 13.4415 2.1429 13.1382C2.6136 12.5631 2.8485 12.276 2.8818 12.0231C2.90297 11.8658 2.88215 11.7056 2.82145 11.559C2.76076 11.4123 2.66234 11.2843 2.5362 11.1879C2.3337 11.0331 1.9638 10.9962 1.2249 10.9224C0.8352 10.8837 0.6399 10.8639 0.4869 10.7856C0.293893 10.6855 0.143636 10.519 0.0639001 10.3167C8.71718e-08 10.1574 0 9.9612 0 9.5688V8.4312C0 8.0388 -6.03497e-08 7.8426 0.0629999 7.6842C0.142998 7.4813 0.293953 7.31435 0.4878 7.2144C0.6399 7.1361 0.8352 7.1163 1.2258 7.0776C1.9638 7.0038 2.3337 6.9669 2.5362 6.8121C2.66251 6.71584 2.7611 6.58786 2.82195 6.44117C2.88281 6.29449 2.90377 6.13431 2.8827 5.9769C2.8485 5.724 2.6127 5.4369 2.1429 4.8609C1.8945 4.5576 1.7703 4.4064 1.7181 4.2426C1.6518 4.03513 1.663 3.81065 1.7496 3.6108C1.818 3.4542 1.9566 3.3147 2.2338 3.0375L3.0384 2.2338C3.3156 1.9566 3.4542 1.8171 3.6117 1.7496C3.81155 1.663 4.03603 1.6518 4.2435 1.7181C4.4064 1.7703 4.5585 1.8945 4.8618 2.1429C5.4369 2.6127 5.724 2.8476 5.976 2.8818C6.13369 2.9032 6.29424 2.8824 6.44127 2.82153C6.58831 2.76067 6.71658 2.6619 6.813 2.5353C6.966 2.3328 7.0038 1.9638 7.0776 1.2249C7.1163 0.8352 7.1361 0.6399 7.2144 0.4869C7.31431 0.293554 7.48089 0.142959 7.6833 0.0629999C7.8426 -6.03497e-08 8.0388 0 8.4312 0H9.5688C9.9612 0 10.1574 -6.03497e-08 10.3158 0.0629999C10.5187 0.142998 10.6856 0.293953 10.7856 0.4878ZM9 12.6C9.95478 12.6 10.8705 12.2207 11.5456 11.5456C12.2207 10.8705 12.6 9.95478 12.6 9C12.6 8.04522 12.2207 7.12955 11.5456 6.45442C10.8705 5.77928 9.95478 5.4 9 5.4C8.04522 5.4 7.12955 5.77928 6.45442 6.45442C5.77928 7.12955 5.4 8.04522 5.4 9C5.4 9.95478 5.77928 10.8705 6.45442 11.5456C7.12955 12.2207 8.04522 12.6 9 12.6Z" fill="#505050"/>
</svg>
