<svg width="24" height="24" viewBox="0 0 24 24" fill="none" xmlns="http://www.w3.org/2000/svg">
<path d="M11.0753 12.2306V6.9134H9.51844C7.79443 6.9134 6.88539 5.83992 6.88539 4.79654C6.88539 3.713 7.72132 3.07092 8.8393 3.07092C10.1245 3.07092 11.1275 4.02403 11.1275 5.61917V6.9134H12.8724V5.61917C12.8724 4.02403 13.8755 3.07092 15.1606 3.07092C16.2786 3.07092 17.125 3.713 17.125 4.79654C17.125 5.83992 16.1846 6.9134 14.4815 6.9134H12.9246V12.2306H20.2909C21.4298 12.2306 22.0463 11.8093 22.0463 10.7358V8.40826C22.0463 7.34479 21.4298 6.9134 20.2909 6.9134H17.8563C18.5041 6.35158 18.8908 5.58908 18.8908 4.72629C18.8908 2.79003 17.2921 1.39551 15.2651 1.39551C13.7606 1.39551 12.5381 2.19807 12.0052 3.62272C11.4723 2.19807 10.2394 1.39551 8.7348 1.39551C6.71826 1.39551 5.10918 2.79003 5.10918 4.72629C5.10918 5.58908 5.4853 6.35158 6.14357 6.9134H3.70909C2.63287 6.9134 1.95374 7.34479 1.95374 8.40826V10.7358C1.95374 11.8093 2.58062 12.2306 3.70909 12.2306H11.0753ZM11.0753 22.6043V13.3041H3.44785V20.056C3.44785 21.7315 4.47181 22.6043 6.21668 22.6043H11.0753ZM12.9246 13.3041V22.6043H17.7832C19.5281 22.6043 20.5521 21.7315 20.5521 20.056V13.3041H12.9246Z" fill="#0D91EC"/>
</svg>
