<svg width="24" height="24" viewBox="0 0 24 24" fill="none" xmlns="http://www.w3.org/2000/svg">
<path fill-rule="evenodd" clip-rule="evenodd" d="M16.468 4.14667L18.4444 6.12305C21.3485 9.02821 22.8 10.4797 22.8 12.2833C22.8 14.0879 21.3485 15.5394 18.4444 18.4436C15.5391 21.3487 14.0876 22.8002 12.2829 22.8002C10.4793 22.8002 9.02668 21.3487 6.12254 18.4446L4.14613 16.4683C2.47752 14.7986 1.64267 13.9648 1.33271 12.8816C1.02167 11.7984 1.28735 10.6482 1.81872 8.34891L2.12435 7.02268C2.5704 5.08734 2.79396 4.11967 3.456 3.45656C4.11804 2.79344 5.08681 2.57096 7.02219 2.12494L8.34844 1.81821C10.6489 1.28794 11.798 1.02226 12.8812 1.33222C13.9645 1.64326 14.7994 2.47809 16.468 4.14667ZM11.0776 14.5146C10.3508 13.7888 10.3562 12.7455 10.7914 11.9194C10.6837 11.7637 10.6338 11.5753 10.6505 11.3867C10.6673 11.1981 10.7495 11.0214 10.883 10.8872C11.0165 10.753 11.1927 10.6697 11.3812 10.6519C11.5696 10.6341 11.7584 10.6828 11.9146 10.7897C12.2818 10.5953 12.6847 10.4916 13.0864 10.4959C13.3013 10.4979 13.5065 10.5852 13.6569 10.7385C13.8075 10.8918 13.8909 11.0987 13.8889 11.3135C13.8868 11.5283 13.7996 11.7335 13.6463 11.884C13.493 12.0345 13.2861 12.1179 13.0713 12.1159C12.8212 12.1251 12.5849 12.2326 12.4136 12.4151C11.9956 12.833 12.1047 13.2521 12.2224 13.3698C12.3412 13.4875 12.7592 13.5966 13.1771 13.1786C14.0238 12.3319 15.4862 12.0511 16.4226 12.9875C17.1494 13.7143 17.144 14.7576 16.7088 15.5838C16.8158 15.7394 16.8651 15.9276 16.8481 16.1158C16.8311 16.3039 16.7488 16.4802 16.6156 16.6142C16.4822 16.7481 16.3064 16.8311 16.1183 16.8492C15.9301 16.867 15.7417 16.8187 15.5855 16.7123C15.1009 16.9782 14.5387 17.0669 13.9958 16.9629C13.7852 16.9197 13.6006 16.7946 13.4822 16.6151C13.364 16.4356 13.3218 16.2166 13.3651 16.006C13.4084 15.7955 13.5334 15.6108 13.7129 15.4925C13.8923 15.3742 14.1114 15.3321 14.3219 15.3754C14.5131 15.4153 14.822 15.3527 15.0866 15.088C15.5045 14.669 15.3955 14.2511 15.2777 14.1333C15.159 14.0156 14.741 13.9065 14.3231 14.3244C13.4763 15.1712 12.014 15.452 11.0776 14.5146ZM9.86153 10.1568C10.0621 9.95619 10.2211 9.71804 10.3296 9.45595C10.4382 9.19387 10.494 8.91298 10.4939 8.62932C10.4939 8.34566 10.438 8.06479 10.3294 7.80274C10.2208 7.54069 10.0616 7.3026 9.86098 7.10206C9.66037 6.90151 9.42222 6.74246 9.16013 6.63394C8.89804 6.52544 8.61714 6.46961 8.33348 6.46967C8.04981 6.46972 7.76894 6.52564 7.50689 6.63424C7.24483 6.74283 7.00673 6.90198 6.80619 7.1026C6.40117 7.50775 6.17368 8.05721 6.17379 8.63009C6.17389 9.20297 6.40156 9.75233 6.80673 10.1573C7.21189 10.5624 7.76136 10.7898 8.33423 10.7897C8.90712 10.7896 9.45651 10.562 9.86153 10.1568Z" fill="#0D91EC"/>
</svg>
