<svg width="24" height="24" viewBox="0 0 24 24" fill="none" xmlns="http://www.w3.org/2000/svg">
<path d="M11.9996 3.39355C13.3858 0.678137 17.4478 0.319761 19.1696 3.18652C19.9704 4.52013 19.9137 6.03143 19.275 7.23047C20.8493 7.50406 22.0465 8.87672 22.0465 10.5293V19.46C22.0463 21.3093 20.5472 22.8085 18.6979 22.8086H5.30237C3.45297 22.8086 1.95392 21.3094 1.95374 19.46V10.5293C1.95378 8.87665 3.15079 7.50399 4.72522 7.23047C4.08654 6.03141 4.02983 4.52016 4.83069 3.18652C6.55241 0.319858 10.6133 0.678388 11.9996 3.39355ZM4.61389 15.584H7.9469V17.1797H4.61389V19.0723H9.68225V13.9766H6.32385V12.4805H9.68225V10.7119H4.61389V15.584ZM11.0953 19.0723H12.9293V10.7119H11.0953V19.0723ZM14.3424 19.0723H16.028V15.4609H17.6754V19.0723H19.3864V10.7119H17.651V13.9766H16.0524V10.7119H14.3424V19.0723ZM10.1901 4.93262C9.85365 3.25292 7.62683 2.86729 6.74475 4.33594C5.99488 5.58472 6.89263 7.17381 8.34924 7.17578L10.6403 7.17871L10.1901 4.93262ZM17.2555 4.33594C16.3734 2.86731 14.1466 3.25295 13.8102 4.93262L13.36 7.17871L15.651 7.17578C17.1074 7.17366 18.0052 5.58465 17.2555 4.33594Z" fill="#0D91EC"/>
</svg>
