<svg viewBox="0 0 24 24" fill="none" xmlns="http://www.w3.org/2000/svg">
  <circle cx="12" cy="12" r="12" fill="#121212"></circle>
  <path fill-rule="evenodd" clip-rule="evenodd" d="M16.685 17.467a7.2 7.2 0 10-9.371 0l-1.563 1.822A9.58 9.58 0 012.4 12 9.6 9.6 0 0112 2.4a9.6 9.6 0 019.6 9.6 9.58 9.58 0 01-3.352 7.29l-1.563-1.823z" fill="#CDCDCD" fill-opacity=".1"></path>
  <path fill-rule="evenodd" clip-rule="evenodd" d="M6.91 6.91L5.211 5.211A9.57 9.57 0 002.4 12a9.58 9.58 0 003.352 7.289l1.562-1.822A7.184 7.184 0 014.801 12c0-1.988.805-3.788 2.108-5.09z" fill="#FFC800"></path>
  <path d="M12.303 13.3h-2.52v-.967l2.243-3.385h1.386v3.47H14v.881h-.588v1.1h-1.109v-1.1zm0-.883v-2.31l-1.47 2.31h1.47z" fill="#FFC800"></path>
</svg>
